<?xml version="1.0" encoding="utf-8" standalone="no"?>
<!DOCTYPE svg PUBLIC "-//W3C//DTD SVG 1.1//EN"
  "http://www.w3.org/Graphics/SVG/1.1/DTD/svg11.dtd">
<svg xmlns:xlink="http://www.w3.org/1999/xlink" width="712.61375pt" height="423.034375pt" viewBox="0 0 712.61375 423.034375" xmlns="http://www.w3.org/2000/svg" version="1.1">
 <metadata>
  <rdf:RDF xmlns:dc="http://purl.org/dc/elements/1.1/" xmlns:cc="http://creativecommons.org/ns#" xmlns:rdf="http://www.w3.org/1999/02/22-rdf-syntax-ns#">
   <cc:Work>
    <dc:type rdf:resource="http://purl.org/dc/dcmitype/StillImage"/>
    <dc:date>2025-06-26T04:36:04.086262</dc:date>
    <dc:format>image/svg+xml</dc:format>
    <dc:creator>
     <cc:Agent>
      <dc:title>Matplotlib v3.10.0, https://matplotlib.org/</dc:title>
     </cc:Agent>
    </dc:creator>
   </cc:Work>
  </rdf:RDF>
 </metadata>
 <defs>
  <style type="text/css">*{stroke-linejoin: round; stroke-linecap: butt}</style>
 </defs>
 <g id="figure_1">
  <g id="patch_1">
   <path d="M 0 423.034375 
L 712.61375 423.034375 
L 712.61375 0 
L 0 0 
z
" style="fill: #ffffff"/>
  </g>
  <g id="axes_1">
   <g id="patch_2">
    <path d="M 50.14375 385.478125 
L 705.41375 385.478125 
L 705.41375 22.318125 
L 50.14375 22.318125 
z
" style="fill: #ffffff"/>
   </g>
   <g id="matplotlib.axis_1">
    <g id="xtick_1">
     <g id="line2d_1">
      <defs>
       <path id="m089a0560a5" d="M 0 0 
L 0 3.5 
" style="stroke: #000000; stroke-width: 0.8"/>
      </defs>
      <g>
       <use xlink:href="#m089a0560a5" x="73.911578" y="385.478125" style="stroke: #000000; stroke-width: 0.8"/>
      </g>
     </g>
     <g id="text_1">
      <!-- 0 -->
      <g transform="translate(70.730328 400.076562) scale(0.1 -0.1)">
       <defs>
        <path id="DejaVuSans-30" d="M 2034 4250 
Q 1547 4250 1301 3770 
Q 1056 3291 1056 2328 
Q 1056 1369 1301 889 
Q 1547 409 2034 409 
Q 2525 409 2770 889 
Q 3016 1369 3016 2328 
Q 3016 3291 2770 3770 
Q 2525 4250 2034 4250 
z
M 2034 4750 
Q 2819 4750 3233 4129 
Q 3647 3509 3647 2328 
Q 3647 1150 3233 529 
Q 2819 -91 2034 -91 
Q 1250 -91 836 529 
Q 422 1150 422 2328 
Q 422 3509 836 4129 
Q 1250 4750 2034 4750 
z
" transform="scale(0.015625)"/>
       </defs>
       <use xlink:href="#DejaVuSans-30"/>
      </g>
     </g>
    </g>
    <g id="xtick_2">
     <g id="line2d_2">
      <g>
       <use xlink:href="#m089a0560a5" x="194.255013" y="385.478125" style="stroke: #000000; stroke-width: 0.8"/>
      </g>
     </g>
     <g id="text_2">
      <!-- 20 -->
      <g transform="translate(187.892513 400.076562) scale(0.1 -0.1)">
       <defs>
        <path id="DejaVuSans-32" d="M 1228 531 
L 3431 531 
L 3431 0 
L 469 0 
L 469 531 
Q 828 903 1448 1529 
Q 2069 2156 2228 2338 
Q 2531 2678 2651 2914 
Q 2772 3150 2772 3378 
Q 2772 3750 2511 3984 
Q 2250 4219 1831 4219 
Q 1534 4219 1204 4116 
Q 875 4013 500 3803 
L 500 4441 
Q 881 4594 1212 4672 
Q 1544 4750 1819 4750 
Q 2544 4750 2975 4387 
Q 3406 4025 3406 3419 
Q 3406 3131 3298 2873 
Q 3191 2616 2906 2266 
Q 2828 2175 2409 1742 
Q 1991 1309 1228 531 
z
" transform="scale(0.015625)"/>
       </defs>
       <use xlink:href="#DejaVuSans-32"/>
       <use xlink:href="#DejaVuSans-30" transform="translate(63.623047 0)"/>
      </g>
     </g>
    </g>
    <g id="xtick_3">
     <g id="line2d_3">
      <g>
       <use xlink:href="#m089a0560a5" x="314.598447" y="385.478125" style="stroke: #000000; stroke-width: 0.8"/>
      </g>
     </g>
     <g id="text_3">
      <!-- 40 -->
      <g transform="translate(308.235947 400.076562) scale(0.1 -0.1)">
       <defs>
        <path id="DejaVuSans-34" d="M 2419 4116 
L 825 1625 
L 2419 1625 
L 2419 4116 
z
M 2253 4666 
L 3047 4666 
L 3047 1625 
L 3713 1625 
L 3713 1100 
L 3047 1100 
L 3047 0 
L 2419 0 
L 2419 1100 
L 313 1100 
L 313 1709 
L 2253 4666 
z
" transform="scale(0.015625)"/>
       </defs>
       <use xlink:href="#DejaVuSans-34"/>
       <use xlink:href="#DejaVuSans-30" transform="translate(63.623047 0)"/>
      </g>
     </g>
    </g>
    <g id="xtick_4">
     <g id="line2d_4">
      <g>
       <use xlink:href="#m089a0560a5" x="434.941881" y="385.478125" style="stroke: #000000; stroke-width: 0.8"/>
      </g>
     </g>
     <g id="text_4">
      <!-- 60 -->
      <g transform="translate(428.579381 400.076562) scale(0.1 -0.1)">
       <defs>
        <path id="DejaVuSans-36" d="M 2113 2584 
Q 1688 2584 1439 2293 
Q 1191 2003 1191 1497 
Q 1191 994 1439 701 
Q 1688 409 2113 409 
Q 2538 409 2786 701 
Q 3034 994 3034 1497 
Q 3034 2003 2786 2293 
Q 2538 2584 2113 2584 
z
M 3366 4563 
L 3366 3988 
Q 3128 4100 2886 4159 
Q 2644 4219 2406 4219 
Q 1781 4219 1451 3797 
Q 1122 3375 1075 2522 
Q 1259 2794 1537 2939 
Q 1816 3084 2150 3084 
Q 2853 3084 3261 2657 
Q 3669 2231 3669 1497 
Q 3669 778 3244 343 
Q 2819 -91 2113 -91 
Q 1303 -91 875 529 
Q 447 1150 447 2328 
Q 447 3434 972 4092 
Q 1497 4750 2381 4750 
Q 2619 4750 2861 4703 
Q 3103 4656 3366 4563 
z
" transform="scale(0.015625)"/>
       </defs>
       <use xlink:href="#DejaVuSans-36"/>
       <use xlink:href="#DejaVuSans-30" transform="translate(63.623047 0)"/>
      </g>
     </g>
    </g>
    <g id="xtick_5">
     <g id="line2d_5">
      <g>
       <use xlink:href="#m089a0560a5" x="555.285316" y="385.478125" style="stroke: #000000; stroke-width: 0.8"/>
      </g>
     </g>
     <g id="text_5">
      <!-- 80 -->
      <g transform="translate(548.922816 400.076562) scale(0.1 -0.1)">
       <defs>
        <path id="DejaVuSans-38" d="M 2034 2216 
Q 1584 2216 1326 1975 
Q 1069 1734 1069 1313 
Q 1069 891 1326 650 
Q 1584 409 2034 409 
Q 2484 409 2743 651 
Q 3003 894 3003 1313 
Q 3003 1734 2745 1975 
Q 2488 2216 2034 2216 
z
M 1403 2484 
Q 997 2584 770 2862 
Q 544 3141 544 3541 
Q 544 4100 942 4425 
Q 1341 4750 2034 4750 
Q 2731 4750 3128 4425 
Q 3525 4100 3525 3541 
Q 3525 3141 3298 2862 
Q 3072 2584 2669 2484 
Q 3125 2378 3379 2068 
Q 3634 1759 3634 1313 
Q 3634 634 3220 271 
Q 2806 -91 2034 -91 
Q 1263 -91 848 271 
Q 434 634 434 1313 
Q 434 1759 690 2068 
Q 947 2378 1403 2484 
z
M 1172 3481 
Q 1172 3119 1398 2916 
Q 1625 2713 2034 2713 
Q 2441 2713 2670 2916 
Q 2900 3119 2900 3481 
Q 2900 3844 2670 4047 
Q 2441 4250 2034 4250 
Q 1625 4250 1398 4047 
Q 1172 3844 1172 3481 
z
" transform="scale(0.015625)"/>
       </defs>
       <use xlink:href="#DejaVuSans-38"/>
       <use xlink:href="#DejaVuSans-30" transform="translate(63.623047 0)"/>
      </g>
     </g>
    </g>
    <g id="xtick_6">
     <g id="line2d_6">
      <g>
       <use xlink:href="#m089a0560a5" x="675.62875" y="385.478125" style="stroke: #000000; stroke-width: 0.8"/>
      </g>
     </g>
     <g id="text_6">
      <!-- 100 -->
      <g transform="translate(666.085 400.076562) scale(0.1 -0.1)">
       <defs>
        <path id="DejaVuSans-31" d="M 794 531 
L 1825 531 
L 1825 4091 
L 703 3866 
L 703 4441 
L 1819 4666 
L 2450 4666 
L 2450 531 
L 3481 531 
L 3481 0 
L 794 0 
L 794 531 
z
" transform="scale(0.015625)"/>
       </defs>
       <use xlink:href="#DejaVuSans-31"/>
       <use xlink:href="#DejaVuSans-30" transform="translate(63.623047 0)"/>
       <use xlink:href="#DejaVuSans-30" transform="translate(127.246094 0)"/>
      </g>
     </g>
    </g>
    <g id="text_7">
     <!-- Epoch -->
     <g transform="translate(362.467813 413.754687) scale(0.1 -0.1)">
      <defs>
       <path id="DejaVuSans-45" d="M 628 4666 
L 3578 4666 
L 3578 4134 
L 1259 4134 
L 1259 2753 
L 3481 2753 
L 3481 2222 
L 1259 2222 
L 1259 531 
L 3634 531 
L 3634 0 
L 628 0 
L 628 4666 
z
" transform="scale(0.015625)"/>
       <path id="DejaVuSans-70" d="M 1159 525 
L 1159 -1331 
L 581 -1331 
L 581 3500 
L 1159 3500 
L 1159 2969 
Q 1341 3281 1617 3432 
Q 1894 3584 2278 3584 
Q 2916 3584 3314 3078 
Q 3713 2572 3713 1747 
Q 3713 922 3314 415 
Q 2916 -91 2278 -91 
Q 1894 -91 1617 61 
Q 1341 213 1159 525 
z
M 3116 1747 
Q 3116 2381 2855 2742 
Q 2594 3103 2138 3103 
Q 1681 3103 1420 2742 
Q 1159 2381 1159 1747 
Q 1159 1113 1420 752 
Q 1681 391 2138 391 
Q 2594 391 2855 752 
Q 3116 1113 3116 1747 
z
" transform="scale(0.015625)"/>
       <path id="DejaVuSans-6f" d="M 1959 3097 
Q 1497 3097 1228 2736 
Q 959 2375 959 1747 
Q 959 1119 1226 758 
Q 1494 397 1959 397 
Q 2419 397 2687 759 
Q 2956 1122 2956 1747 
Q 2956 2369 2687 2733 
Q 2419 3097 1959 3097 
z
M 1959 3584 
Q 2709 3584 3137 3096 
Q 3566 2609 3566 1747 
Q 3566 888 3137 398 
Q 2709 -91 1959 -91 
Q 1206 -91 779 398 
Q 353 888 353 1747 
Q 353 2609 779 3096 
Q 1206 3584 1959 3584 
z
" transform="scale(0.015625)"/>
       <path id="DejaVuSans-63" d="M 3122 3366 
L 3122 2828 
Q 2878 2963 2633 3030 
Q 2388 3097 2138 3097 
Q 1578 3097 1268 2742 
Q 959 2388 959 1747 
Q 959 1106 1268 751 
Q 1578 397 2138 397 
Q 2388 397 2633 464 
Q 2878 531 3122 666 
L 3122 134 
Q 2881 22 2623 -34 
Q 2366 -91 2075 -91 
Q 1284 -91 818 406 
Q 353 903 353 1747 
Q 353 2603 823 3093 
Q 1294 3584 2113 3584 
Q 2378 3584 2631 3529 
Q 2884 3475 3122 3366 
z
" transform="scale(0.015625)"/>
       <path id="DejaVuSans-68" d="M 3513 2113 
L 3513 0 
L 2938 0 
L 2938 2094 
Q 2938 2591 2744 2837 
Q 2550 3084 2163 3084 
Q 1697 3084 1428 2787 
Q 1159 2491 1159 1978 
L 1159 0 
L 581 0 
L 581 4863 
L 1159 4863 
L 1159 2956 
Q 1366 3272 1645 3428 
Q 1925 3584 2291 3584 
Q 2894 3584 3203 3211 
Q 3513 2838 3513 2113 
z
" transform="scale(0.015625)"/>
      </defs>
      <use xlink:href="#DejaVuSans-45"/>
      <use xlink:href="#DejaVuSans-70" transform="translate(63.183594 0)"/>
      <use xlink:href="#DejaVuSans-6f" transform="translate(126.660156 0)"/>
      <use xlink:href="#DejaVuSans-63" transform="translate(187.841797 0)"/>
      <use xlink:href="#DejaVuSans-68" transform="translate(242.822266 0)"/>
     </g>
    </g>
   </g>
   <g id="matplotlib.axis_2">
    <g id="ytick_1">
     <g id="line2d_7">
      <defs>
       <path id="mf0df01fc5c" d="M 0 0 
L -3.5 0 
" style="stroke: #000000; stroke-width: 0.8"/>
      </defs>
      <g>
       <use xlink:href="#mf0df01fc5c" x="50.14375" y="339.132508" style="stroke: #000000; stroke-width: 0.8"/>
      </g>
     </g>
     <g id="text_8">
      <!-- 0.25 -->
      <g transform="translate(20.878125 342.931727) scale(0.1 -0.1)">
       <defs>
        <path id="DejaVuSans-2e" d="M 684 794 
L 1344 794 
L 1344 0 
L 684 0 
L 684 794 
z
" transform="scale(0.015625)"/>
        <path id="DejaVuSans-35" d="M 691 4666 
L 3169 4666 
L 3169 4134 
L 1269 4134 
L 1269 2991 
Q 1406 3038 1543 3061 
Q 1681 3084 1819 3084 
Q 2600 3084 3056 2656 
Q 3513 2228 3513 1497 
Q 3513 744 3044 326 
Q 2575 -91 1722 -91 
Q 1428 -91 1123 -41 
Q 819 9 494 109 
L 494 744 
Q 775 591 1075 516 
Q 1375 441 1709 441 
Q 2250 441 2565 725 
Q 2881 1009 2881 1497 
Q 2881 1984 2565 2268 
Q 2250 2553 1709 2553 
Q 1456 2553 1204 2497 
Q 953 2441 691 2322 
L 691 4666 
z
" transform="scale(0.015625)"/>
       </defs>
       <use xlink:href="#DejaVuSans-30"/>
       <use xlink:href="#DejaVuSans-2e" transform="translate(63.623047 0)"/>
       <use xlink:href="#DejaVuSans-32" transform="translate(95.410156 0)"/>
       <use xlink:href="#DejaVuSans-35" transform="translate(159.033203 0)"/>
      </g>
     </g>
    </g>
    <g id="ytick_2">
     <g id="line2d_8">
      <g>
       <use xlink:href="#mf0df01fc5c" x="50.14375" y="269.150606" style="stroke: #000000; stroke-width: 0.8"/>
      </g>
     </g>
     <g id="text_9">
      <!-- 0.30 -->
      <g transform="translate(20.878125 272.949825) scale(0.1 -0.1)">
       <defs>
        <path id="DejaVuSans-33" d="M 2597 2516 
Q 3050 2419 3304 2112 
Q 3559 1806 3559 1356 
Q 3559 666 3084 287 
Q 2609 -91 1734 -91 
Q 1441 -91 1130 -33 
Q 819 25 488 141 
L 488 750 
Q 750 597 1062 519 
Q 1375 441 1716 441 
Q 2309 441 2620 675 
Q 2931 909 2931 1356 
Q 2931 1769 2642 2001 
Q 2353 2234 1838 2234 
L 1294 2234 
L 1294 2753 
L 1863 2753 
Q 2328 2753 2575 2939 
Q 2822 3125 2822 3475 
Q 2822 3834 2567 4026 
Q 2313 4219 1838 4219 
Q 1578 4219 1281 4162 
Q 984 4106 628 3988 
L 628 4550 
Q 988 4650 1302 4700 
Q 1616 4750 1894 4750 
Q 2613 4750 3031 4423 
Q 3450 4097 3450 3541 
Q 3450 3153 3228 2886 
Q 3006 2619 2597 2516 
z
" transform="scale(0.015625)"/>
       </defs>
       <use xlink:href="#DejaVuSans-30"/>
       <use xlink:href="#DejaVuSans-2e" transform="translate(63.623047 0)"/>
       <use xlink:href="#DejaVuSans-33" transform="translate(95.410156 0)"/>
       <use xlink:href="#DejaVuSans-30" transform="translate(159.033203 0)"/>
      </g>
     </g>
    </g>
    <g id="ytick_3">
     <g id="line2d_9">
      <g>
       <use xlink:href="#mf0df01fc5c" x="50.14375" y="199.168703" style="stroke: #000000; stroke-width: 0.8"/>
      </g>
     </g>
     <g id="text_10">
      <!-- 0.35 -->
      <g transform="translate(20.878125 202.967922) scale(0.1 -0.1)">
       <use xlink:href="#DejaVuSans-30"/>
       <use xlink:href="#DejaVuSans-2e" transform="translate(63.623047 0)"/>
       <use xlink:href="#DejaVuSans-33" transform="translate(95.410156 0)"/>
       <use xlink:href="#DejaVuSans-35" transform="translate(159.033203 0)"/>
      </g>
     </g>
    </g>
    <g id="ytick_4">
     <g id="line2d_10">
      <g>
       <use xlink:href="#mf0df01fc5c" x="50.14375" y="129.186801" style="stroke: #000000; stroke-width: 0.8"/>
      </g>
     </g>
     <g id="text_11">
      <!-- 0.40 -->
      <g transform="translate(20.878125 132.98602) scale(0.1 -0.1)">
       <use xlink:href="#DejaVuSans-30"/>
       <use xlink:href="#DejaVuSans-2e" transform="translate(63.623047 0)"/>
       <use xlink:href="#DejaVuSans-34" transform="translate(95.410156 0)"/>
       <use xlink:href="#DejaVuSans-30" transform="translate(159.033203 0)"/>
      </g>
     </g>
    </g>
    <g id="ytick_5">
     <g id="line2d_11">
      <g>
       <use xlink:href="#mf0df01fc5c" x="50.14375" y="59.204899" style="stroke: #000000; stroke-width: 0.8"/>
      </g>
     </g>
     <g id="text_12">
      <!-- 0.45 -->
      <g transform="translate(20.878125 63.004117) scale(0.1 -0.1)">
       <use xlink:href="#DejaVuSans-30"/>
       <use xlink:href="#DejaVuSans-2e" transform="translate(63.623047 0)"/>
       <use xlink:href="#DejaVuSans-34" transform="translate(95.410156 0)"/>
       <use xlink:href="#DejaVuSans-35" transform="translate(159.033203 0)"/>
      </g>
     </g>
    </g>
    <g id="text_13">
     <!-- Train Accuracy -->
     <g transform="translate(14.798438 240.309062) rotate(-90) scale(0.1 -0.1)">
      <defs>
       <path id="DejaVuSans-54" d="M -19 4666 
L 3928 4666 
L 3928 4134 
L 2272 4134 
L 2272 0 
L 1638 0 
L 1638 4134 
L -19 4134 
L -19 4666 
z
" transform="scale(0.015625)"/>
       <path id="DejaVuSans-72" d="M 2631 2963 
Q 2534 3019 2420 3045 
Q 2306 3072 2169 3072 
Q 1681 3072 1420 2755 
Q 1159 2438 1159 1844 
L 1159 0 
L 581 0 
L 581 3500 
L 1159 3500 
L 1159 2956 
Q 1341 3275 1631 3429 
Q 1922 3584 2338 3584 
Q 2397 3584 2469 3576 
Q 2541 3569 2628 3553 
L 2631 2963 
z
" transform="scale(0.015625)"/>
       <path id="DejaVuSans-61" d="M 2194 1759 
Q 1497 1759 1228 1600 
Q 959 1441 959 1056 
Q 959 750 1161 570 
Q 1363 391 1709 391 
Q 2188 391 2477 730 
Q 2766 1069 2766 1631 
L 2766 1759 
L 2194 1759 
z
M 3341 1997 
L 3341 0 
L 2766 0 
L 2766 531 
Q 2569 213 2275 61 
Q 1981 -91 1556 -91 
Q 1019 -91 701 211 
Q 384 513 384 1019 
Q 384 1609 779 1909 
Q 1175 2209 1959 2209 
L 2766 2209 
L 2766 2266 
Q 2766 2663 2505 2880 
Q 2244 3097 1772 3097 
Q 1472 3097 1187 3025 
Q 903 2953 641 2809 
L 641 3341 
Q 956 3463 1253 3523 
Q 1550 3584 1831 3584 
Q 2591 3584 2966 3190 
Q 3341 2797 3341 1997 
z
" transform="scale(0.015625)"/>
       <path id="DejaVuSans-69" d="M 603 3500 
L 1178 3500 
L 1178 0 
L 603 0 
L 603 3500 
z
M 603 4863 
L 1178 4863 
L 1178 4134 
L 603 4134 
L 603 4863 
z
" transform="scale(0.015625)"/>
       <path id="DejaVuSans-6e" d="M 3513 2113 
L 3513 0 
L 2938 0 
L 2938 2094 
Q 2938 2591 2744 2837 
Q 2550 3084 2163 3084 
Q 1697 3084 1428 2787 
Q 1159 2491 1159 1978 
L 1159 0 
L 581 0 
L 581 3500 
L 1159 3500 
L 1159 2956 
Q 1366 3272 1645 3428 
Q 1925 3584 2291 3584 
Q 2894 3584 3203 3211 
Q 3513 2838 3513 2113 
z
" transform="scale(0.015625)"/>
       <path id="DejaVuSans-20" transform="scale(0.015625)"/>
       <path id="DejaVuSans-41" d="M 2188 4044 
L 1331 1722 
L 3047 1722 
L 2188 4044 
z
M 1831 4666 
L 2547 4666 
L 4325 0 
L 3669 0 
L 3244 1197 
L 1141 1197 
L 716 0 
L 50 0 
L 1831 4666 
z
" transform="scale(0.015625)"/>
       <path id="DejaVuSans-75" d="M 544 1381 
L 544 3500 
L 1119 3500 
L 1119 1403 
Q 1119 906 1312 657 
Q 1506 409 1894 409 
Q 2359 409 2629 706 
Q 2900 1003 2900 1516 
L 2900 3500 
L 3475 3500 
L 3475 0 
L 2900 0 
L 2900 538 
Q 2691 219 2414 64 
Q 2138 -91 1772 -91 
Q 1169 -91 856 284 
Q 544 659 544 1381 
z
M 1991 3584 
L 1991 3584 
z
" transform="scale(0.015625)"/>
       <path id="DejaVuSans-79" d="M 2059 -325 
Q 1816 -950 1584 -1140 
Q 1353 -1331 966 -1331 
L 506 -1331 
L 506 -850 
L 844 -850 
Q 1081 -850 1212 -737 
Q 1344 -625 1503 -206 
L 1606 56 
L 191 3500 
L 800 3500 
L 1894 763 
L 2988 3500 
L 3597 3500 
L 2059 -325 
z
" transform="scale(0.015625)"/>
      </defs>
      <use xlink:href="#DejaVuSans-54"/>
      <use xlink:href="#DejaVuSans-72" transform="translate(46.333984 0)"/>
      <use xlink:href="#DejaVuSans-61" transform="translate(87.447266 0)"/>
      <use xlink:href="#DejaVuSans-69" transform="translate(148.726562 0)"/>
      <use xlink:href="#DejaVuSans-6e" transform="translate(176.509766 0)"/>
      <use xlink:href="#DejaVuSans-20" transform="translate(239.888672 0)"/>
      <use xlink:href="#DejaVuSans-41" transform="translate(271.675781 0)"/>
      <use xlink:href="#DejaVuSans-63" transform="translate(338.333984 0)"/>
      <use xlink:href="#DejaVuSans-63" transform="translate(393.314453 0)"/>
      <use xlink:href="#DejaVuSans-75" transform="translate(448.294922 0)"/>
      <use xlink:href="#DejaVuSans-72" transform="translate(511.673828 0)"/>
      <use xlink:href="#DejaVuSans-61" transform="translate(552.787109 0)"/>
      <use xlink:href="#DejaVuSans-63" transform="translate(614.066406 0)"/>
      <use xlink:href="#DejaVuSans-79" transform="translate(669.046875 0)"/>
     </g>
    </g>
   </g>
   <g id="line2d_12">
    <path d="M 79.92875 187.81454 
L 85.945922 169.10356 
L 91.963093 146.423583 
L 97.980265 139.336091 
L 103.997437 151.526578 
L 110.014609 151.526578 
L 116.03178 160.031569 
L 122.048952 99.929631 
L 128.066124 108.434623 
L 134.083295 238.560988 
L 140.100467 344.873377 
L 146.117639 368.970852 
L 152.134811 360.182361 
L 158.151982 363.867858 
L 164.169154 364.151357 
L 170.186326 357.914364 
L 176.203497 348.558873 
L 182.220669 325.028398 
L 188.237841 359.615362 
L 194.255013 365.568856 
L 200.272184 349.976372 
L 206.289356 350.826871 
L 212.306528 314.255409 
L 218.323699 215.030512 
L 224.340871 158.614071 
L 230.358043 153.227576 
L 236.375215 127.996102 
L 242.392386 133.382597 
L 248.409558 154.645075 
L 254.42673 129.9806 
L 260.443902 139.336091 
L 266.461073 131.965098 
L 272.478245 140.753589 
L 278.495417 166.268563 
L 284.512588 167.402561 
L 290.52976 159.18107 
L 296.546932 166.268563 
L 302.564104 144.155586 
L 308.581275 155.495574 
L 314.598447 157.480072 
L 320.615619 124.877606 
L 326.63279 61.373671 
L 332.649962 86.321646 
L 338.667134 66.476666 
L 344.684306 110.98612 
L 350.701477 124.877606 
L 356.718649 163.717065 
L 362.735821 171.655057 
L 368.752992 141.887588 
L 374.770164 152.944076 
L 380.787336 99.929631 
L 386.804508 99.646132 
L 392.821679 112.120119 
L 398.838851 124.027106 
L 404.856023 100.780131 
L 410.873194 142.738087 
L 416.890366 163.150066 
L 422.907538 202.840025 
L 428.92471 151.243078 
L 434.941881 158.047071 
L 440.959053 148.408081 
L 446.976225 148.124581 
L 452.993396 154.078075 
L 459.010568 157.480072 
L 465.02774 158.614071 
L 471.044912 152.377077 
L 477.062083 152.944076 
L 483.079255 143.021587 
L 489.096427 169.387059 
L 495.113598 199.438028 
L 501.13077 219.283008 
L 507.147942 209.927517 
L 513.165114 154.078075 
L 519.182285 154.078075 
L 525.199457 154.928574 
L 531.216629 155.212074 
L 537.233801 164.567564 
L 543.250972 179.876548 
L 549.268144 183.845544 
L 555.285316 163.150066 
L 561.302487 173.072556 
L 567.319659 214.463513 
L 573.336831 209.927517 
L 579.354003 135.083595 
L 585.371174 172.789056 
L 591.388346 142.738087 
L 597.405518 114.955116 
L 603.422689 140.18659 
L 609.439861 144.439085 
L 615.457033 143.872086 
L 621.474205 142.454587 
L 627.491376 155.495574 
L 633.508548 154.078075 
L 639.52572 155.212074 
L 645.542891 148.975081 
L 651.560063 164.567564 
L 657.577235 155.495574 
L 663.594407 171.655057 
L 669.611578 182.428046 
L 675.62875 173.072556 
" clip-path="url(#p05005a9364)" style="fill: none; stroke: #1f77b4; stroke-width: 1.5; stroke-linecap: square"/>
   </g>
   <g id="line2d_13">
    <path d="M 79.92875 133.382597 
L 85.945922 146.140083 
L 91.963093 138.485591 
L 97.980265 137.068093 
L 103.997437 120.62511 
L 110.014609 112.120119 
L 116.03178 106.733624 
L 122.048952 151.243078 
L 128.066124 116.089115 
L 134.083295 118.924112 
L 140.100467 151.810078 
L 146.117639 143.588586 
L 152.134811 354.795867 
L 158.151982 353.094869 
L 164.169154 316.523407 
L 170.186326 140.470089 
L 176.203497 132.248598 
L 182.220669 281.936443 
L 188.237841 352.24437 
L 194.255013 347.141375 
L 200.272184 351.393871 
L 206.289356 356.780365 
L 212.306528 351.67737 
L 218.323699 350.259872 
L 224.340871 349.409373 
L 230.358043 353.378368 
L 236.375215 348.842373 
L 242.392386 363.017358 
L 248.409558 348.275374 
L 254.42673 362.733859 
L 260.443902 224.669502 
L 266.461073 208.510019 
L 272.478245 157.196572 
L 278.495417 147.557582 
L 284.512588 134.516596 
L 290.52976 144.155586 
L 296.546932 127.429103 
L 302.564104 127.996102 
L 308.581275 149.25858 
L 314.598447 155.495574 
L 320.615619 155.779073 
L 326.63279 156.629573 
L 332.649962 170.237558 
L 338.667134 124.027106 
L 344.684306 141.604088 
L 350.701477 175.340553 
L 356.718649 167.119062 
L 362.735821 188.09804 
L 368.752992 167.686061 
L 374.770164 185.263043 
L 380.787336 281.369443 
L 386.804508 349.976372 
L 392.821679 345.723876 
L 398.838851 348.275374 
L 404.856023 320.775902 
L 410.873194 197.45353 
L 416.890366 186.680541 
L 422.907538 192.634035 
L 428.92471 177.608551 
L 434.941881 181.294047 
L 440.959053 192.350536 
L 446.976225 188.948539 
L 452.993396 185.830042 
L 459.010568 180.160048 
L 465.02774 183.562045 
L 471.044912 179.026049 
L 477.062083 185.830042 
L 483.079255 186.964041 
L 489.096427 183.278545 
L 495.113598 186.397042 
L 501.13077 184.979543 
L 507.147942 194.618533 
L 513.165114 171.938557 
L 519.182285 174.490054 
L 525.199457 178.74255 
L 531.216629 150.676079 
L 537.233801 172.789056 
L 543.250972 193.201035 
L 549.268144 164.851064 
L 555.285316 156.629573 
L 561.302487 165.701563 
L 567.319659 156.346073 
L 573.336831 155.212074 
L 579.354003 162.866566 
L 585.371174 151.243078 
L 591.388346 159.18107 
L 597.405518 156.913072 
L 603.422689 150.676079 
L 609.439861 151.526578 
L 615.457033 156.346073 
L 621.474205 158.330571 
L 627.491376 162.583066 
L 633.508548 174.206554 
L 639.52572 160.031569 
L 645.542891 147.557582 
L 651.560063 159.46457 
L 657.577235 173.072556 
L 663.594407 169.10356 
L 669.611578 160.315069 
L 675.62875 166.835562 
" clip-path="url(#p05005a9364)" style="fill: none; stroke: #ff7f0e; stroke-width: 1.5; stroke-linecap: square"/>
   </g>
   <g id="line2d_14">
    <path d="M 79.92875 352.312575 
L 85.945922 353.729786 
L 91.963093 362.79994 
L 97.980265 367.618459 
L 103.997437 355.713882 
L 110.014609 354.013229 
L 116.03178 346.076844 
L 122.048952 353.729786 
L 128.066124 352.029133 
L 134.083295 338.990787 
L 140.100467 360.815844 
L 146.117639 364.217151 
L 152.134811 347.210614 
L 158.151982 344.376191 
L 164.169154 353.446344 
L 170.186326 349.761594 
L 176.203497 359.682075 
L 182.220669 360.532401 
L 188.237841 351.462248 
L 194.255013 349.19471 
L 200.272184 356.564209 
L 206.289356 344.092748 
L 212.306528 349.478152 
L 218.323699 358.831748 
L 224.340871 353.729786 
L 230.358043 353.446344 
L 236.375215 353.446344 
L 242.392386 364.500594 
L 248.409558 355.997325 
L 254.42673 349.761594 
L 260.443902 346.360287 
L 266.461073 354.863556 
L 272.478245 356.280767 
L 278.495417 346.643729 
L 284.512588 352.029133 
L 290.52976 355.997325 
L 296.546932 354.580113 
L 302.564104 367.335016 
L 308.581275 342.392095 
L 314.598447 355.146998 
L 320.615619 353.446344 
L 326.63279 349.19471 
L 332.649962 348.06094 
L 338.667134 352.596017 
L 344.684306 358.831748 
L 350.701477 352.879459 
L 356.718649 356.847652 
L 362.735821 349.478152 
L 368.752992 354.296671 
L 374.770164 357.414536 
L 380.787336 349.478152 
L 386.804508 351.74569 
L 392.821679 343.242421 
L 398.838851 349.19471 
L 404.856023 347.494056 
L 410.873194 348.911267 
L 416.890366 351.462248 
L 422.907538 358.548305 
L 428.92471 353.446344 
L 434.941881 350.611921 
L 440.959053 345.226518 
L 446.976225 348.344383 
L 452.993396 352.879459 
L 459.010568 355.146998 
L 465.02774 346.076844 
L 471.044912 348.344383 
L 477.062083 353.729786 
L 483.079255 355.997325 
L 489.096427 349.19471 
L 495.113598 354.863556 
L 501.13077 360.248959 
L 507.147942 353.446344 
L 513.165114 366.201247 
L 519.182285 339.557672 
L 525.199457 355.43044 
L 531.216629 347.777498 
L 537.233801 347.210614 
L 543.250972 358.831748 
L 549.268144 351.462248 
L 555.285316 351.178806 
L 561.302487 357.981421 
L 567.319659 353.162902 
L 573.336831 353.729786 
L 579.354003 348.344383 
L 585.371174 352.312575 
L 591.388346 361.666171 
L 597.405518 338.990787 
L 603.422689 359.682075 
L 609.439861 344.092748 
L 615.457033 348.344383 
L 621.474205 344.092748 
L 627.491376 341.82521 
L 633.508548 349.19471 
L 639.52572 348.627825 
L 645.542891 355.713882 
L 651.560063 350.045037 
L 657.577235 348.06094 
L 663.594407 356.847652 
L 669.611578 359.11519 
L 675.62875 344.092748 
" clip-path="url(#p05005a9364)" style="fill: none; stroke: #2ca02c; stroke-width: 1.5; stroke-linecap: square"/>
   </g>
   <g id="line2d_15">
    <path d="M 79.92875 158.721488 
L 85.945922 92.112549 
L 91.963093 153.902969 
L 97.980265 76.239781 
L 103.997437 127.542836 
L 110.014609 154.186411 
L 116.03178 154.469854 
L 122.048952 200.95439 
L 128.066124 189.333256 
L 134.083295 213.992735 
L 140.100467 109.969414 
L 146.117639 87.860915 
L 152.134811 177.712122 
L 158.151982 176.011468 
L 164.169154 113.654163 
L 170.186326 141.998393 
L 176.203497 85.026492 
L 182.220669 125.55874 
L 188.237841 155.603623 
L 194.255013 157.871161 
L 200.272184 164.390334 
L 206.289356 223.629773 
L 212.306528 189.333256 
L 218.323699 198.686852 
L 224.340871 204.355697 
L 230.358043 227.031081 
L 236.375215 210.024543 
L 242.392386 241.77008 
L 248.409558 234.400581 
L 254.42673 233.550254 
L 260.443902 243.754176 
L 266.461073 212.292082 
L 272.478245 212.008639 
L 278.495417 213.992735 
L 284.512588 217.394043 
L 290.52976 305.261154 
L 296.546932 196.135871 
L 302.564104 270.11431 
L 308.581275 217.110601 
L 314.598447 167.508199 
L 320.615619 203.505371 
L 326.63279 185.931948 
L 332.649962 184.514737 
L 338.667134 199.253736 
L 344.684306 181.113429 
L 350.701477 183.66441 
L 356.718649 172.326718 
L 362.735821 130.377259 
L 368.752992 141.71495 
L 374.770164 113.937606 
L 380.787336 110.81974 
L 386.804508 119.889894 
L 392.821679 113.654163 
L 398.838851 229.865504 
L 404.856023 327.369653 
L 410.873194 252.540887 
L 416.890366 219.094697 
L 422.907538 355.43044 
L 428.92471 345.793402 
L 434.941881 342.958979 
L 440.959053 163.256565 
L 446.976225 127.826278 
L 452.993396 130.660701 
L 459.010568 149.934777 
L 465.02774 120.740221 
L 471.044912 92.395991 
L 477.062083 111.386625 
L 483.079255 98.348279 
L 489.096427 70.570935 
L 495.113598 38.825398 
L 501.13077 44.777686 
L 507.147942 54.414724 
L 513.165114 80.774857 
L 519.182285 106.851548 
L 525.199457 96.647626 
L 531.216629 92.395991 
L 537.233801 97.497953 
L 543.250972 96.080741 
L 549.268144 92.395991 
L 555.285316 99.198606 
L 561.302487 94.946972 
L 567.319659 98.348279 
L 573.336831 78.223877 
L 579.354003 137.179874 
L 585.371174 155.320181 
L 591.388346 157.587719 
L 597.405518 152.202315 
L 603.422689 159.571815 
L 609.439861 157.020834 
L 615.457033 156.170507 
L 621.474205 160.1387 
L 627.491376 156.45395 
L 633.508548 146.816912 
L 639.52572 148.234123 
L 645.542891 151.351988 
L 651.560063 150.501662 
L 657.577235 146.533469 
L 663.594407 152.202315 
L 669.611578 151.918873 
L 675.62875 163.823449 
" clip-path="url(#p05005a9364)" style="fill: none; stroke: #d62728; stroke-width: 1.5; stroke-linecap: square"/>
   </g>
   <g id="line2d_16">
    <path d="M 79.92875 341.82521 
L 85.945922 347.777498 
L 91.963093 357.131094 
L 97.980265 352.879459 
L 103.997437 349.19471 
L 110.014609 362.516497 
L 116.03178 344.092748 
L 122.048952 350.045037 
L 128.066124 340.691441 
L 134.083295 342.392095 
L 140.100467 350.895363 
L 146.117639 362.516497 
L 152.134811 360.248959 
L 158.151982 340.124556 
L 164.169154 355.43044 
L 170.186326 347.210614 
L 176.203497 358.264863 
L 182.220669 357.131094 
L 188.237841 354.296671 
L 194.255013 354.580113 
L 200.272184 352.312575 
L 206.289356 350.328479 
L 212.306528 342.675537 
L 218.323699 351.74569 
L 224.340871 356.280767 
L 230.358043 345.226518 
L 236.375215 359.682075 
L 242.392386 354.013229 
L 248.409558 359.965517 
L 254.42673 353.446344 
L 260.443902 356.847652 
L 266.461073 350.895363 
L 272.478245 353.729786 
L 278.495417 350.611921 
L 284.512588 349.761594 
L 290.52976 354.580113 
L 296.546932 360.815844 
L 302.564104 352.596017 
L 308.581275 353.729786 
L 314.598447 351.462248 
L 320.615619 346.927171 
L 326.63279 358.548305 
L 332.649962 351.462248 
L 338.667134 351.178806 
L 344.684306 348.911267 
L 350.701477 348.344383 
L 356.718649 351.462248 
L 362.735821 355.997325 
L 368.752992 349.19471 
L 374.770164 359.11519 
L 380.787336 349.478152 
L 386.804508 354.580113 
L 392.821679 345.793402 
L 398.838851 353.729786 
L 404.856023 356.280767 
L 410.873194 358.264863 
L 416.890366 355.43044 
L 422.907538 344.092748 
L 428.92471 352.312575 
L 434.941881 345.793402 
L 440.959053 360.815844 
L 446.976225 345.793402 
L 452.993396 350.895363 
L 459.010568 341.541768 
L 465.02774 346.927171 
L 471.044912 358.548305 
L 477.062083 348.06094 
L 483.079255 359.965517 
L 489.096427 357.697978 
L 495.113598 361.949613 
L 501.13077 354.296671 
L 507.147942 357.414536 
L 513.165114 358.831748 
L 519.182285 356.564209 
L 525.199457 354.296671 
L 531.216629 356.564209 
L 537.233801 343.525864 
L 543.250972 357.131094 
L 549.268144 357.131094 
L 555.285316 353.729786 
L 561.302487 337.290133 
L 567.319659 350.328479 
L 573.336831 356.847652 
L 579.354003 346.927171 
L 585.371174 349.761594 
L 591.388346 359.682075 
L 597.405518 364.500594 
L 603.422689 345.226518 
L 609.439861 343.525864 
L 615.457033 349.478152 
L 621.474205 359.398632 
L 627.491376 359.682075 
L 633.508548 362.79994 
L 639.52572 354.013229 
L 645.542891 361.099286 
L 651.560063 364.217151 
L 657.577235 350.045037 
L 663.594407 345.793402 
L 669.611578 352.596017 
L 675.62875 350.045037 
" clip-path="url(#p05005a9364)" style="fill: none; stroke: #9467bd; stroke-width: 1.5; stroke-linecap: square"/>
   </g>
   <g id="patch_3">
    <path d="M 50.14375 385.478125 
L 50.14375 22.318125 
" style="fill: none; stroke: #000000; stroke-width: 0.8; stroke-linejoin: miter; stroke-linecap: square"/>
   </g>
   <g id="patch_4">
    <path d="M 705.41375 385.478125 
L 705.41375 22.318125 
" style="fill: none; stroke: #000000; stroke-width: 0.8; stroke-linejoin: miter; stroke-linecap: square"/>
   </g>
   <g id="patch_5">
    <path d="M 50.14375 385.478125 
L 705.41375 385.478125 
" style="fill: none; stroke: #000000; stroke-width: 0.8; stroke-linejoin: miter; stroke-linecap: square"/>
   </g>
   <g id="patch_6">
    <path d="M 50.14375 22.318125 
L 705.41375 22.318125 
" style="fill: none; stroke: #000000; stroke-width: 0.8; stroke-linejoin: miter; stroke-linecap: square"/>
   </g>
   <g id="text_14">
    <!-- Combined Train Accuracy -->
    <g transform="translate(301.694063 16.318125) scale(0.12 -0.12)">
     <defs>
      <path id="DejaVuSans-43" d="M 4122 4306 
L 4122 3641 
Q 3803 3938 3442 4084 
Q 3081 4231 2675 4231 
Q 1875 4231 1450 3742 
Q 1025 3253 1025 2328 
Q 1025 1406 1450 917 
Q 1875 428 2675 428 
Q 3081 428 3442 575 
Q 3803 722 4122 1019 
L 4122 359 
Q 3791 134 3420 21 
Q 3050 -91 2638 -91 
Q 1578 -91 968 557 
Q 359 1206 359 2328 
Q 359 3453 968 4101 
Q 1578 4750 2638 4750 
Q 3056 4750 3426 4639 
Q 3797 4528 4122 4306 
z
" transform="scale(0.015625)"/>
      <path id="DejaVuSans-6d" d="M 3328 2828 
Q 3544 3216 3844 3400 
Q 4144 3584 4550 3584 
Q 5097 3584 5394 3201 
Q 5691 2819 5691 2113 
L 5691 0 
L 5113 0 
L 5113 2094 
Q 5113 2597 4934 2840 
Q 4756 3084 4391 3084 
Q 3944 3084 3684 2787 
Q 3425 2491 3425 1978 
L 3425 0 
L 2847 0 
L 2847 2094 
Q 2847 2600 2669 2842 
Q 2491 3084 2119 3084 
Q 1678 3084 1418 2786 
Q 1159 2488 1159 1978 
L 1159 0 
L 581 0 
L 581 3500 
L 1159 3500 
L 1159 2956 
Q 1356 3278 1631 3431 
Q 1906 3584 2284 3584 
Q 2666 3584 2933 3390 
Q 3200 3197 3328 2828 
z
" transform="scale(0.015625)"/>
      <path id="DejaVuSans-62" d="M 3116 1747 
Q 3116 2381 2855 2742 
Q 2594 3103 2138 3103 
Q 1681 3103 1420 2742 
Q 1159 2381 1159 1747 
Q 1159 1113 1420 752 
Q 1681 391 2138 391 
Q 2594 391 2855 752 
Q 3116 1113 3116 1747 
z
M 1159 2969 
Q 1341 3281 1617 3432 
Q 1894 3584 2278 3584 
Q 2916 3584 3314 3078 
Q 3713 2572 3713 1747 
Q 3713 922 3314 415 
Q 2916 -91 2278 -91 
Q 1894 -91 1617 61 
Q 1341 213 1159 525 
L 1159 0 
L 581 0 
L 581 4863 
L 1159 4863 
L 1159 2969 
z
" transform="scale(0.015625)"/>
      <path id="DejaVuSans-65" d="M 3597 1894 
L 3597 1613 
L 953 1613 
Q 991 1019 1311 708 
Q 1631 397 2203 397 
Q 2534 397 2845 478 
Q 3156 559 3463 722 
L 3463 178 
Q 3153 47 2828 -22 
Q 2503 -91 2169 -91 
Q 1331 -91 842 396 
Q 353 884 353 1716 
Q 353 2575 817 3079 
Q 1281 3584 2069 3584 
Q 2775 3584 3186 3129 
Q 3597 2675 3597 1894 
z
M 3022 2063 
Q 3016 2534 2758 2815 
Q 2500 3097 2075 3097 
Q 1594 3097 1305 2825 
Q 1016 2553 972 2059 
L 3022 2063 
z
" transform="scale(0.015625)"/>
      <path id="DejaVuSans-64" d="M 2906 2969 
L 2906 4863 
L 3481 4863 
L 3481 0 
L 2906 0 
L 2906 525 
Q 2725 213 2448 61 
Q 2172 -91 1784 -91 
Q 1150 -91 751 415 
Q 353 922 353 1747 
Q 353 2572 751 3078 
Q 1150 3584 1784 3584 
Q 2172 3584 2448 3432 
Q 2725 3281 2906 2969 
z
M 947 1747 
Q 947 1113 1208 752 
Q 1469 391 1925 391 
Q 2381 391 2643 752 
Q 2906 1113 2906 1747 
Q 2906 2381 2643 2742 
Q 2381 3103 1925 3103 
Q 1469 3103 1208 2742 
Q 947 2381 947 1747 
z
" transform="scale(0.015625)"/>
     </defs>
     <use xlink:href="#DejaVuSans-43"/>
     <use xlink:href="#DejaVuSans-6f" transform="translate(69.824219 0)"/>
     <use xlink:href="#DejaVuSans-6d" transform="translate(131.005859 0)"/>
     <use xlink:href="#DejaVuSans-62" transform="translate(228.417969 0)"/>
     <use xlink:href="#DejaVuSans-69" transform="translate(291.894531 0)"/>
     <use xlink:href="#DejaVuSans-6e" transform="translate(319.677734 0)"/>
     <use xlink:href="#DejaVuSans-65" transform="translate(383.056641 0)"/>
     <use xlink:href="#DejaVuSans-64" transform="translate(444.580078 0)"/>
     <use xlink:href="#DejaVuSans-20" transform="translate(508.056641 0)"/>
     <use xlink:href="#DejaVuSans-54" transform="translate(539.84375 0)"/>
     <use xlink:href="#DejaVuSans-72" transform="translate(586.177734 0)"/>
     <use xlink:href="#DejaVuSans-61" transform="translate(627.291016 0)"/>
     <use xlink:href="#DejaVuSans-69" transform="translate(688.570312 0)"/>
     <use xlink:href="#DejaVuSans-6e" transform="translate(716.353516 0)"/>
     <use xlink:href="#DejaVuSans-20" transform="translate(779.732422 0)"/>
     <use xlink:href="#DejaVuSans-41" transform="translate(811.519531 0)"/>
     <use xlink:href="#DejaVuSans-63" transform="translate(878.177734 0)"/>
     <use xlink:href="#DejaVuSans-63" transform="translate(933.158203 0)"/>
     <use xlink:href="#DejaVuSans-75" transform="translate(988.138672 0)"/>
     <use xlink:href="#DejaVuSans-72" transform="translate(1051.517578 0)"/>
     <use xlink:href="#DejaVuSans-61" transform="translate(1092.630859 0)"/>
     <use xlink:href="#DejaVuSans-63" transform="translate(1153.910156 0)"/>
     <use xlink:href="#DejaVuSans-79" transform="translate(1208.890625 0)"/>
    </g>
   </g>
   <g id="legend_1">
    <g id="patch_7">
     <path d="M 636.23875 103.70875 
L 698.41375 103.70875 
Q 700.41375 103.70875 700.41375 101.70875 
L 700.41375 29.318125 
Q 700.41375 27.318125 698.41375 27.318125 
L 636.23875 27.318125 
Q 634.23875 27.318125 634.23875 29.318125 
L 634.23875 101.70875 
Q 634.23875 103.70875 636.23875 103.70875 
z
" style="fill: #ffffff; opacity: 0.8; stroke: #cccccc; stroke-linejoin: miter"/>
    </g>
    <g id="line2d_17">
     <path d="M 638.23875 35.416562 
L 648.23875 35.416562 
L 658.23875 35.416562 
" style="fill: none; stroke: #1f77b4; stroke-width: 1.5; stroke-linecap: square"/>
    </g>
    <g id="text_15">
     <!-- Fold 1 -->
     <g transform="translate(666.23875 38.916562) scale(0.1 -0.1)">
      <defs>
       <path id="DejaVuSans-46" d="M 628 4666 
L 3309 4666 
L 3309 4134 
L 1259 4134 
L 1259 2759 
L 3109 2759 
L 3109 2228 
L 1259 2228 
L 1259 0 
L 628 0 
L 628 4666 
z
" transform="scale(0.015625)"/>
       <path id="DejaVuSans-6c" d="M 603 4863 
L 1178 4863 
L 1178 0 
L 603 0 
L 603 4863 
z
" transform="scale(0.015625)"/>
      </defs>
      <use xlink:href="#DejaVuSans-46"/>
      <use xlink:href="#DejaVuSans-6f" transform="translate(53.894531 0)"/>
      <use xlink:href="#DejaVuSans-6c" transform="translate(115.076172 0)"/>
      <use xlink:href="#DejaVuSans-64" transform="translate(142.859375 0)"/>
      <use xlink:href="#DejaVuSans-20" transform="translate(206.335938 0)"/>
      <use xlink:href="#DejaVuSans-31" transform="translate(238.123047 0)"/>
     </g>
    </g>
    <g id="line2d_18">
     <path d="M 638.23875 50.094688 
L 648.23875 50.094688 
L 658.23875 50.094688 
" style="fill: none; stroke: #ff7f0e; stroke-width: 1.5; stroke-linecap: square"/>
    </g>
    <g id="text_16">
     <!-- Fold 2 -->
     <g transform="translate(666.23875 53.594688) scale(0.1 -0.1)">
      <use xlink:href="#DejaVuSans-46"/>
      <use xlink:href="#DejaVuSans-6f" transform="translate(53.894531 0)"/>
      <use xlink:href="#DejaVuSans-6c" transform="translate(115.076172 0)"/>
      <use xlink:href="#DejaVuSans-64" transform="translate(142.859375 0)"/>
      <use xlink:href="#DejaVuSans-20" transform="translate(206.335938 0)"/>
      <use xlink:href="#DejaVuSans-32" transform="translate(238.123047 0)"/>
     </g>
    </g>
    <g id="line2d_19">
     <path d="M 638.23875 64.772812 
L 648.23875 64.772812 
L 658.23875 64.772812 
" style="fill: none; stroke: #2ca02c; stroke-width: 1.5; stroke-linecap: square"/>
    </g>
    <g id="text_17">
     <!-- Fold 3 -->
     <g transform="translate(666.23875 68.272812) scale(0.1 -0.1)">
      <use xlink:href="#DejaVuSans-46"/>
      <use xlink:href="#DejaVuSans-6f" transform="translate(53.894531 0)"/>
      <use xlink:href="#DejaVuSans-6c" transform="translate(115.076172 0)"/>
      <use xlink:href="#DejaVuSans-64" transform="translate(142.859375 0)"/>
      <use xlink:href="#DejaVuSans-20" transform="translate(206.335938 0)"/>
      <use xlink:href="#DejaVuSans-33" transform="translate(238.123047 0)"/>
     </g>
    </g>
    <g id="line2d_20">
     <path d="M 638.23875 79.450938 
L 648.23875 79.450938 
L 658.23875 79.450938 
" style="fill: none; stroke: #d62728; stroke-width: 1.5; stroke-linecap: square"/>
    </g>
    <g id="text_18">
     <!-- Fold 4 -->
     <g transform="translate(666.23875 82.950938) scale(0.1 -0.1)">
      <use xlink:href="#DejaVuSans-46"/>
      <use xlink:href="#DejaVuSans-6f" transform="translate(53.894531 0)"/>
      <use xlink:href="#DejaVuSans-6c" transform="translate(115.076172 0)"/>
      <use xlink:href="#DejaVuSans-64" transform="translate(142.859375 0)"/>
      <use xlink:href="#DejaVuSans-20" transform="translate(206.335938 0)"/>
      <use xlink:href="#DejaVuSans-34" transform="translate(238.123047 0)"/>
     </g>
    </g>
    <g id="line2d_21">
     <path d="M 638.23875 94.129063 
L 648.23875 94.129063 
L 658.23875 94.129063 
" style="fill: none; stroke: #9467bd; stroke-width: 1.5; stroke-linecap: square"/>
    </g>
    <g id="text_19">
     <!-- Fold 5 -->
     <g transform="translate(666.23875 97.629063) scale(0.1 -0.1)">
      <use xlink:href="#DejaVuSans-46"/>
      <use xlink:href="#DejaVuSans-6f" transform="translate(53.894531 0)"/>
      <use xlink:href="#DejaVuSans-6c" transform="translate(115.076172 0)"/>
      <use xlink:href="#DejaVuSans-64" transform="translate(142.859375 0)"/>
      <use xlink:href="#DejaVuSans-20" transform="translate(206.335938 0)"/>
      <use xlink:href="#DejaVuSans-35" transform="translate(238.123047 0)"/>
     </g>
    </g>
   </g>
  </g>
 </g>
 <defs>
  <clipPath id="p05005a9364">
   <rect x="50.14375" y="22.318125" width="655.27" height="363.16"/>
  </clipPath>
 </defs>
</svg>
