<?xml version="1.0" encoding="utf-8" standalone="no"?>
<!DOCTYPE svg PUBLIC "-//W3C//DTD SVG 1.1//EN"
  "http://www.w3.org/Graphics/SVG/1.1/DTD/svg11.dtd">
<svg xmlns:xlink="http://www.w3.org/1999/xlink" width="712.46125pt" height="423.034375pt" viewBox="0 0 712.46125 423.034375" xmlns="http://www.w3.org/2000/svg" version="1.1">
 <metadata>
  <rdf:RDF xmlns:dc="http://purl.org/dc/elements/1.1/" xmlns:cc="http://creativecommons.org/ns#" xmlns:rdf="http://www.w3.org/1999/02/22-rdf-syntax-ns#">
   <cc:Work>
    <dc:type rdf:resource="http://purl.org/dc/dcmitype/StillImage"/>
    <dc:date>2025-06-26T06:37:05.957894</dc:date>
    <dc:format>image/svg+xml</dc:format>
    <dc:creator>
     <cc:Agent>
      <dc:title>Matplotlib v3.10.0, https://matplotlib.org/</dc:title>
     </cc:Agent>
    </dc:creator>
   </cc:Work>
  </rdf:RDF>
 </metadata>
 <defs>
  <style type="text/css">*{stroke-linejoin: round; stroke-linecap: butt}</style>
 </defs>
 <g id="figure_1">
  <g id="patch_1">
   <path d="M 0 423.034375 
L 712.46125 423.034375 
L 712.46125 0 
L 0 0 
z
" style="fill: #ffffff"/>
  </g>
  <g id="axes_1">
   <g id="patch_2">
    <path d="M 43.78125 385.478125 
L 705.26125 385.478125 
L 705.26125 22.318125 
L 43.78125 22.318125 
z
" style="fill: #ffffff"/>
   </g>
   <g id="matplotlib.axis_1">
    <g id="xtick_1">
     <g id="line2d_1">
      <defs>
       <path id="m9b57cd6b4b" d="M 0 0 
L 0 3.5 
" style="stroke: #000000; stroke-width: 0.8"/>
      </defs>
      <g>
       <use xlink:href="#m9b57cd6b4b" x="67.774326" y="385.478125" style="stroke: #000000; stroke-width: 0.8"/>
      </g>
     </g>
     <g id="text_1">
      <!-- 0 -->
      <g transform="translate(64.593076 400.076562) scale(0.1 -0.1)">
       <defs>
        <path id="DejaVuSans-30" d="M 2034 4250 
Q 1547 4250 1301 3770 
Q 1056 3291 1056 2328 
Q 1056 1369 1301 889 
Q 1547 409 2034 409 
Q 2525 409 2770 889 
Q 3016 1369 3016 2328 
Q 3016 3291 2770 3770 
Q 2525 4250 2034 4250 
z
M 2034 4750 
Q 2819 4750 3233 4129 
Q 3647 3509 3647 2328 
Q 3647 1150 3233 529 
Q 2819 -91 2034 -91 
Q 1250 -91 836 529 
Q 422 1150 422 2328 
Q 422 3509 836 4129 
Q 1250 4750 2034 4750 
z
" transform="scale(0.015625)"/>
       </defs>
       <use xlink:href="#DejaVuSans-30"/>
      </g>
     </g>
    </g>
    <g id="xtick_2">
     <g id="line2d_2">
      <g>
       <use xlink:href="#m9b57cd6b4b" x="189.258256" y="385.478125" style="stroke: #000000; stroke-width: 0.8"/>
      </g>
     </g>
     <g id="text_2">
      <!-- 20 -->
      <g transform="translate(182.895756 400.076562) scale(0.1 -0.1)">
       <defs>
        <path id="DejaVuSans-32" d="M 1228 531 
L 3431 531 
L 3431 0 
L 469 0 
L 469 531 
Q 828 903 1448 1529 
Q 2069 2156 2228 2338 
Q 2531 2678 2651 2914 
Q 2772 3150 2772 3378 
Q 2772 3750 2511 3984 
Q 2250 4219 1831 4219 
Q 1534 4219 1204 4116 
Q 875 4013 500 3803 
L 500 4441 
Q 881 4594 1212 4672 
Q 1544 4750 1819 4750 
Q 2544 4750 2975 4387 
Q 3406 4025 3406 3419 
Q 3406 3131 3298 2873 
Q 3191 2616 2906 2266 
Q 2828 2175 2409 1742 
Q 1991 1309 1228 531 
z
" transform="scale(0.015625)"/>
       </defs>
       <use xlink:href="#DejaVuSans-32"/>
       <use xlink:href="#DejaVuSans-30" transform="translate(63.623047 0)"/>
      </g>
     </g>
    </g>
    <g id="xtick_3">
     <g id="line2d_3">
      <g>
       <use xlink:href="#m9b57cd6b4b" x="310.742187" y="385.478125" style="stroke: #000000; stroke-width: 0.8"/>
      </g>
     </g>
     <g id="text_3">
      <!-- 40 -->
      <g transform="translate(304.379687 400.076562) scale(0.1 -0.1)">
       <defs>
        <path id="DejaVuSans-34" d="M 2419 4116 
L 825 1625 
L 2419 1625 
L 2419 4116 
z
M 2253 4666 
L 3047 4666 
L 3047 1625 
L 3713 1625 
L 3713 1100 
L 3047 1100 
L 3047 0 
L 2419 0 
L 2419 1100 
L 313 1100 
L 313 1709 
L 2253 4666 
z
" transform="scale(0.015625)"/>
       </defs>
       <use xlink:href="#DejaVuSans-34"/>
       <use xlink:href="#DejaVuSans-30" transform="translate(63.623047 0)"/>
      </g>
     </g>
    </g>
    <g id="xtick_4">
     <g id="line2d_4">
      <g>
       <use xlink:href="#m9b57cd6b4b" x="432.226117" y="385.478125" style="stroke: #000000; stroke-width: 0.8"/>
      </g>
     </g>
     <g id="text_4">
      <!-- 60 -->
      <g transform="translate(425.863617 400.076562) scale(0.1 -0.1)">
       <defs>
        <path id="DejaVuSans-36" d="M 2113 2584 
Q 1688 2584 1439 2293 
Q 1191 2003 1191 1497 
Q 1191 994 1439 701 
Q 1688 409 2113 409 
Q 2538 409 2786 701 
Q 3034 994 3034 1497 
Q 3034 2003 2786 2293 
Q 2538 2584 2113 2584 
z
M 3366 4563 
L 3366 3988 
Q 3128 4100 2886 4159 
Q 2644 4219 2406 4219 
Q 1781 4219 1451 3797 
Q 1122 3375 1075 2522 
Q 1259 2794 1537 2939 
Q 1816 3084 2150 3084 
Q 2853 3084 3261 2657 
Q 3669 2231 3669 1497 
Q 3669 778 3244 343 
Q 2819 -91 2113 -91 
Q 1303 -91 875 529 
Q 447 1150 447 2328 
Q 447 3434 972 4092 
Q 1497 4750 2381 4750 
Q 2619 4750 2861 4703 
Q 3103 4656 3366 4563 
z
" transform="scale(0.015625)"/>
       </defs>
       <use xlink:href="#DejaVuSans-36"/>
       <use xlink:href="#DejaVuSans-30" transform="translate(63.623047 0)"/>
      </g>
     </g>
    </g>
    <g id="xtick_5">
     <g id="line2d_5">
      <g>
       <use xlink:href="#m9b57cd6b4b" x="553.710047" y="385.478125" style="stroke: #000000; stroke-width: 0.8"/>
      </g>
     </g>
     <g id="text_5">
      <!-- 80 -->
      <g transform="translate(547.347547 400.076562) scale(0.1 -0.1)">
       <defs>
        <path id="DejaVuSans-38" d="M 2034 2216 
Q 1584 2216 1326 1975 
Q 1069 1734 1069 1313 
Q 1069 891 1326 650 
Q 1584 409 2034 409 
Q 2484 409 2743 651 
Q 3003 894 3003 1313 
Q 3003 1734 2745 1975 
Q 2488 2216 2034 2216 
z
M 1403 2484 
Q 997 2584 770 2862 
Q 544 3141 544 3541 
Q 544 4100 942 4425 
Q 1341 4750 2034 4750 
Q 2731 4750 3128 4425 
Q 3525 4100 3525 3541 
Q 3525 3141 3298 2862 
Q 3072 2584 2669 2484 
Q 3125 2378 3379 2068 
Q 3634 1759 3634 1313 
Q 3634 634 3220 271 
Q 2806 -91 2034 -91 
Q 1263 -91 848 271 
Q 434 634 434 1313 
Q 434 1759 690 2068 
Q 947 2378 1403 2484 
z
M 1172 3481 
Q 1172 3119 1398 2916 
Q 1625 2713 2034 2713 
Q 2441 2713 2670 2916 
Q 2900 3119 2900 3481 
Q 2900 3844 2670 4047 
Q 2441 4250 2034 4250 
Q 1625 4250 1398 4047 
Q 1172 3844 1172 3481 
z
" transform="scale(0.015625)"/>
       </defs>
       <use xlink:href="#DejaVuSans-38"/>
       <use xlink:href="#DejaVuSans-30" transform="translate(63.623047 0)"/>
      </g>
     </g>
    </g>
    <g id="xtick_6">
     <g id="line2d_6">
      <g>
       <use xlink:href="#m9b57cd6b4b" x="675.193977" y="385.478125" style="stroke: #000000; stroke-width: 0.8"/>
      </g>
     </g>
     <g id="text_6">
      <!-- 100 -->
      <g transform="translate(665.650227 400.076562) scale(0.1 -0.1)">
       <defs>
        <path id="DejaVuSans-31" d="M 794 531 
L 1825 531 
L 1825 4091 
L 703 3866 
L 703 4441 
L 1819 4666 
L 2450 4666 
L 2450 531 
L 3481 531 
L 3481 0 
L 794 0 
L 794 531 
z
" transform="scale(0.015625)"/>
       </defs>
       <use xlink:href="#DejaVuSans-31"/>
       <use xlink:href="#DejaVuSans-30" transform="translate(63.623047 0)"/>
       <use xlink:href="#DejaVuSans-30" transform="translate(127.246094 0)"/>
      </g>
     </g>
    </g>
    <g id="text_7">
     <!-- Epoch -->
     <g transform="translate(359.210312 413.754687) scale(0.1 -0.1)">
      <defs>
       <path id="DejaVuSans-45" d="M 628 4666 
L 3578 4666 
L 3578 4134 
L 1259 4134 
L 1259 2753 
L 3481 2753 
L 3481 2222 
L 1259 2222 
L 1259 531 
L 3634 531 
L 3634 0 
L 628 0 
L 628 4666 
z
" transform="scale(0.015625)"/>
       <path id="DejaVuSans-70" d="M 1159 525 
L 1159 -1331 
L 581 -1331 
L 581 3500 
L 1159 3500 
L 1159 2969 
Q 1341 3281 1617 3432 
Q 1894 3584 2278 3584 
Q 2916 3584 3314 3078 
Q 3713 2572 3713 1747 
Q 3713 922 3314 415 
Q 2916 -91 2278 -91 
Q 1894 -91 1617 61 
Q 1341 213 1159 525 
z
M 3116 1747 
Q 3116 2381 2855 2742 
Q 2594 3103 2138 3103 
Q 1681 3103 1420 2742 
Q 1159 2381 1159 1747 
Q 1159 1113 1420 752 
Q 1681 391 2138 391 
Q 2594 391 2855 752 
Q 3116 1113 3116 1747 
z
" transform="scale(0.015625)"/>
       <path id="DejaVuSans-6f" d="M 1959 3097 
Q 1497 3097 1228 2736 
Q 959 2375 959 1747 
Q 959 1119 1226 758 
Q 1494 397 1959 397 
Q 2419 397 2687 759 
Q 2956 1122 2956 1747 
Q 2956 2369 2687 2733 
Q 2419 3097 1959 3097 
z
M 1959 3584 
Q 2709 3584 3137 3096 
Q 3566 2609 3566 1747 
Q 3566 888 3137 398 
Q 2709 -91 1959 -91 
Q 1206 -91 779 398 
Q 353 888 353 1747 
Q 353 2609 779 3096 
Q 1206 3584 1959 3584 
z
" transform="scale(0.015625)"/>
       <path id="DejaVuSans-63" d="M 3122 3366 
L 3122 2828 
Q 2878 2963 2633 3030 
Q 2388 3097 2138 3097 
Q 1578 3097 1268 2742 
Q 959 2388 959 1747 
Q 959 1106 1268 751 
Q 1578 397 2138 397 
Q 2388 397 2633 464 
Q 2878 531 3122 666 
L 3122 134 
Q 2881 22 2623 -34 
Q 2366 -91 2075 -91 
Q 1284 -91 818 406 
Q 353 903 353 1747 
Q 353 2603 823 3093 
Q 1294 3584 2113 3584 
Q 2378 3584 2631 3529 
Q 2884 3475 3122 3366 
z
" transform="scale(0.015625)"/>
       <path id="DejaVuSans-68" d="M 3513 2113 
L 3513 0 
L 2938 0 
L 2938 2094 
Q 2938 2591 2744 2837 
Q 2550 3084 2163 3084 
Q 1697 3084 1428 2787 
Q 1159 2491 1159 1978 
L 1159 0 
L 581 0 
L 581 4863 
L 1159 4863 
L 1159 2956 
Q 1366 3272 1645 3428 
Q 1925 3584 2291 3584 
Q 2894 3584 3203 3211 
Q 3513 2838 3513 2113 
z
" transform="scale(0.015625)"/>
      </defs>
      <use xlink:href="#DejaVuSans-45"/>
      <use xlink:href="#DejaVuSans-70" transform="translate(63.183594 0)"/>
      <use xlink:href="#DejaVuSans-6f" transform="translate(126.660156 0)"/>
      <use xlink:href="#DejaVuSans-63" transform="translate(187.841797 0)"/>
      <use xlink:href="#DejaVuSans-68" transform="translate(242.822266 0)"/>
     </g>
    </g>
   </g>
   <g id="matplotlib.axis_2">
    <g id="ytick_1">
     <g id="line2d_7">
      <defs>
       <path id="mdf855043d7" d="M 0 0 
L -3.5 0 
" style="stroke: #000000; stroke-width: 0.8"/>
      </defs>
      <g>
       <use xlink:href="#mdf855043d7" x="43.78125" y="376.367412" style="stroke: #000000; stroke-width: 0.8"/>
      </g>
     </g>
     <g id="text_8">
      <!-- 0.1 -->
      <g transform="translate(20.878125 380.16663) scale(0.1 -0.1)">
       <defs>
        <path id="DejaVuSans-2e" d="M 684 794 
L 1344 794 
L 1344 0 
L 684 0 
L 684 794 
z
" transform="scale(0.015625)"/>
       </defs>
       <use xlink:href="#DejaVuSans-30"/>
       <use xlink:href="#DejaVuSans-2e" transform="translate(63.623047 0)"/>
       <use xlink:href="#DejaVuSans-31" transform="translate(95.410156 0)"/>
      </g>
     </g>
    </g>
    <g id="ytick_2">
     <g id="line2d_8">
      <g>
       <use xlink:href="#mdf855043d7" x="43.78125" y="328.289775" style="stroke: #000000; stroke-width: 0.8"/>
      </g>
     </g>
     <g id="text_9">
      <!-- 0.2 -->
      <g transform="translate(20.878125 332.088994) scale(0.1 -0.1)">
       <use xlink:href="#DejaVuSans-30"/>
       <use xlink:href="#DejaVuSans-2e" transform="translate(63.623047 0)"/>
       <use xlink:href="#DejaVuSans-32" transform="translate(95.410156 0)"/>
      </g>
     </g>
    </g>
    <g id="ytick_3">
     <g id="line2d_9">
      <g>
       <use xlink:href="#mdf855043d7" x="43.78125" y="280.212139" style="stroke: #000000; stroke-width: 0.8"/>
      </g>
     </g>
     <g id="text_10">
      <!-- 0.3 -->
      <g transform="translate(20.878125 284.011357) scale(0.1 -0.1)">
       <defs>
        <path id="DejaVuSans-33" d="M 2597 2516 
Q 3050 2419 3304 2112 
Q 3559 1806 3559 1356 
Q 3559 666 3084 287 
Q 2609 -91 1734 -91 
Q 1441 -91 1130 -33 
Q 819 25 488 141 
L 488 750 
Q 750 597 1062 519 
Q 1375 441 1716 441 
Q 2309 441 2620 675 
Q 2931 909 2931 1356 
Q 2931 1769 2642 2001 
Q 2353 2234 1838 2234 
L 1294 2234 
L 1294 2753 
L 1863 2753 
Q 2328 2753 2575 2939 
Q 2822 3125 2822 3475 
Q 2822 3834 2567 4026 
Q 2313 4219 1838 4219 
Q 1578 4219 1281 4162 
Q 984 4106 628 3988 
L 628 4550 
Q 988 4650 1302 4700 
Q 1616 4750 1894 4750 
Q 2613 4750 3031 4423 
Q 3450 4097 3450 3541 
Q 3450 3153 3228 2886 
Q 3006 2619 2597 2516 
z
" transform="scale(0.015625)"/>
       </defs>
       <use xlink:href="#DejaVuSans-30"/>
       <use xlink:href="#DejaVuSans-2e" transform="translate(63.623047 0)"/>
       <use xlink:href="#DejaVuSans-33" transform="translate(95.410156 0)"/>
      </g>
     </g>
    </g>
    <g id="ytick_4">
     <g id="line2d_10">
      <g>
       <use xlink:href="#mdf855043d7" x="43.78125" y="232.134502" style="stroke: #000000; stroke-width: 0.8"/>
      </g>
     </g>
     <g id="text_11">
      <!-- 0.4 -->
      <g transform="translate(20.878125 235.933721) scale(0.1 -0.1)">
       <use xlink:href="#DejaVuSans-30"/>
       <use xlink:href="#DejaVuSans-2e" transform="translate(63.623047 0)"/>
       <use xlink:href="#DejaVuSans-34" transform="translate(95.410156 0)"/>
      </g>
     </g>
    </g>
    <g id="ytick_5">
     <g id="line2d_11">
      <g>
       <use xlink:href="#mdf855043d7" x="43.78125" y="184.056866" style="stroke: #000000; stroke-width: 0.8"/>
      </g>
     </g>
     <g id="text_12">
      <!-- 0.5 -->
      <g transform="translate(20.878125 187.856084) scale(0.1 -0.1)">
       <defs>
        <path id="DejaVuSans-35" d="M 691 4666 
L 3169 4666 
L 3169 4134 
L 1269 4134 
L 1269 2991 
Q 1406 3038 1543 3061 
Q 1681 3084 1819 3084 
Q 2600 3084 3056 2656 
Q 3513 2228 3513 1497 
Q 3513 744 3044 326 
Q 2575 -91 1722 -91 
Q 1428 -91 1123 -41 
Q 819 9 494 109 
L 494 744 
Q 775 591 1075 516 
Q 1375 441 1709 441 
Q 2250 441 2565 725 
Q 2881 1009 2881 1497 
Q 2881 1984 2565 2268 
Q 2250 2553 1709 2553 
Q 1456 2553 1204 2497 
Q 953 2441 691 2322 
L 691 4666 
z
" transform="scale(0.015625)"/>
       </defs>
       <use xlink:href="#DejaVuSans-30"/>
       <use xlink:href="#DejaVuSans-2e" transform="translate(63.623047 0)"/>
       <use xlink:href="#DejaVuSans-35" transform="translate(95.410156 0)"/>
      </g>
     </g>
    </g>
    <g id="ytick_6">
     <g id="line2d_12">
      <g>
       <use xlink:href="#mdf855043d7" x="43.78125" y="135.979229" style="stroke: #000000; stroke-width: 0.8"/>
      </g>
     </g>
     <g id="text_13">
      <!-- 0.6 -->
      <g transform="translate(20.878125 139.778448) scale(0.1 -0.1)">
       <use xlink:href="#DejaVuSans-30"/>
       <use xlink:href="#DejaVuSans-2e" transform="translate(63.623047 0)"/>
       <use xlink:href="#DejaVuSans-36" transform="translate(95.410156 0)"/>
      </g>
     </g>
    </g>
    <g id="ytick_7">
     <g id="line2d_13">
      <g>
       <use xlink:href="#mdf855043d7" x="43.78125" y="87.901592" style="stroke: #000000; stroke-width: 0.8"/>
      </g>
     </g>
     <g id="text_14">
      <!-- 0.7 -->
      <g transform="translate(20.878125 91.700811) scale(0.1 -0.1)">
       <defs>
        <path id="DejaVuSans-37" d="M 525 4666 
L 3525 4666 
L 3525 4397 
L 1831 0 
L 1172 0 
L 2766 4134 
L 525 4134 
L 525 4666 
z
" transform="scale(0.015625)"/>
       </defs>
       <use xlink:href="#DejaVuSans-30"/>
       <use xlink:href="#DejaVuSans-2e" transform="translate(63.623047 0)"/>
       <use xlink:href="#DejaVuSans-37" transform="translate(95.410156 0)"/>
      </g>
     </g>
    </g>
    <g id="ytick_8">
     <g id="line2d_14">
      <g>
       <use xlink:href="#mdf855043d7" x="43.78125" y="39.823956" style="stroke: #000000; stroke-width: 0.8"/>
      </g>
     </g>
     <g id="text_15">
      <!-- 0.8 -->
      <g transform="translate(20.878125 43.623175) scale(0.1 -0.1)">
       <use xlink:href="#DejaVuSans-30"/>
       <use xlink:href="#DejaVuSans-2e" transform="translate(63.623047 0)"/>
       <use xlink:href="#DejaVuSans-38" transform="translate(95.410156 0)"/>
      </g>
     </g>
    </g>
    <g id="text_16">
     <!-- Train Accuracy -->
     <g transform="translate(14.798438 240.309062) rotate(-90) scale(0.1 -0.1)">
      <defs>
       <path id="DejaVuSans-54" d="M -19 4666 
L 3928 4666 
L 3928 4134 
L 2272 4134 
L 2272 0 
L 1638 0 
L 1638 4134 
L -19 4134 
L -19 4666 
z
" transform="scale(0.015625)"/>
       <path id="DejaVuSans-72" d="M 2631 2963 
Q 2534 3019 2420 3045 
Q 2306 3072 2169 3072 
Q 1681 3072 1420 2755 
Q 1159 2438 1159 1844 
L 1159 0 
L 581 0 
L 581 3500 
L 1159 3500 
L 1159 2956 
Q 1341 3275 1631 3429 
Q 1922 3584 2338 3584 
Q 2397 3584 2469 3576 
Q 2541 3569 2628 3553 
L 2631 2963 
z
" transform="scale(0.015625)"/>
       <path id="DejaVuSans-61" d="M 2194 1759 
Q 1497 1759 1228 1600 
Q 959 1441 959 1056 
Q 959 750 1161 570 
Q 1363 391 1709 391 
Q 2188 391 2477 730 
Q 2766 1069 2766 1631 
L 2766 1759 
L 2194 1759 
z
M 3341 1997 
L 3341 0 
L 2766 0 
L 2766 531 
Q 2569 213 2275 61 
Q 1981 -91 1556 -91 
Q 1019 -91 701 211 
Q 384 513 384 1019 
Q 384 1609 779 1909 
Q 1175 2209 1959 2209 
L 2766 2209 
L 2766 2266 
Q 2766 2663 2505 2880 
Q 2244 3097 1772 3097 
Q 1472 3097 1187 3025 
Q 903 2953 641 2809 
L 641 3341 
Q 956 3463 1253 3523 
Q 1550 3584 1831 3584 
Q 2591 3584 2966 3190 
Q 3341 2797 3341 1997 
z
" transform="scale(0.015625)"/>
       <path id="DejaVuSans-69" d="M 603 3500 
L 1178 3500 
L 1178 0 
L 603 0 
L 603 3500 
z
M 603 4863 
L 1178 4863 
L 1178 4134 
L 603 4134 
L 603 4863 
z
" transform="scale(0.015625)"/>
       <path id="DejaVuSans-6e" d="M 3513 2113 
L 3513 0 
L 2938 0 
L 2938 2094 
Q 2938 2591 2744 2837 
Q 2550 3084 2163 3084 
Q 1697 3084 1428 2787 
Q 1159 2491 1159 1978 
L 1159 0 
L 581 0 
L 581 3500 
L 1159 3500 
L 1159 2956 
Q 1366 3272 1645 3428 
Q 1925 3584 2291 3584 
Q 2894 3584 3203 3211 
Q 3513 2838 3513 2113 
z
" transform="scale(0.015625)"/>
       <path id="DejaVuSans-20" transform="scale(0.015625)"/>
       <path id="DejaVuSans-41" d="M 2188 4044 
L 1331 1722 
L 3047 1722 
L 2188 4044 
z
M 1831 4666 
L 2547 4666 
L 4325 0 
L 3669 0 
L 3244 1197 
L 1141 1197 
L 716 0 
L 50 0 
L 1831 4666 
z
" transform="scale(0.015625)"/>
       <path id="DejaVuSans-75" d="M 544 1381 
L 544 3500 
L 1119 3500 
L 1119 1403 
Q 1119 906 1312 657 
Q 1506 409 1894 409 
Q 2359 409 2629 706 
Q 2900 1003 2900 1516 
L 2900 3500 
L 3475 3500 
L 3475 0 
L 2900 0 
L 2900 538 
Q 2691 219 2414 64 
Q 2138 -91 1772 -91 
Q 1169 -91 856 284 
Q 544 659 544 1381 
z
M 1991 3584 
L 1991 3584 
z
" transform="scale(0.015625)"/>
       <path id="DejaVuSans-79" d="M 2059 -325 
Q 1816 -950 1584 -1140 
Q 1353 -1331 966 -1331 
L 506 -1331 
L 506 -850 
L 844 -850 
Q 1081 -850 1212 -737 
Q 1344 -625 1503 -206 
L 1606 56 
L 191 3500 
L 800 3500 
L 1894 763 
L 2988 3500 
L 3597 3500 
L 2059 -325 
z
" transform="scale(0.015625)"/>
      </defs>
      <use xlink:href="#DejaVuSans-54"/>
      <use xlink:href="#DejaVuSans-72" transform="translate(46.333984 0)"/>
      <use xlink:href="#DejaVuSans-61" transform="translate(87.447266 0)"/>
      <use xlink:href="#DejaVuSans-69" transform="translate(148.726562 0)"/>
      <use xlink:href="#DejaVuSans-6e" transform="translate(176.509766 0)"/>
      <use xlink:href="#DejaVuSans-20" transform="translate(239.888672 0)"/>
      <use xlink:href="#DejaVuSans-41" transform="translate(271.675781 0)"/>
      <use xlink:href="#DejaVuSans-63" transform="translate(338.333984 0)"/>
      <use xlink:href="#DejaVuSans-63" transform="translate(393.314453 0)"/>
      <use xlink:href="#DejaVuSans-75" transform="translate(448.294922 0)"/>
      <use xlink:href="#DejaVuSans-72" transform="translate(511.673828 0)"/>
      <use xlink:href="#DejaVuSans-61" transform="translate(552.787109 0)"/>
      <use xlink:href="#DejaVuSans-63" transform="translate(614.066406 0)"/>
      <use xlink:href="#DejaVuSans-79" transform="translate(669.046875 0)"/>
     </g>
    </g>
   </g>
   <g id="line2d_15">
    <path d="M 73.848523 347.203641 
L 79.922719 347.203641 
L 85.996916 278.185653 
L 92.071112 229.726215 
L 98.145309 219.153247 
L 104.219505 210.929827 
L 110.293702 208.286585 
L 116.367898 211.810907 
L 122.442095 205.937036 
L 128.516291 198.888391 
L 134.590488 197.713616 
L 140.664684 187.140648 
L 146.738881 186.846954 
L 152.813077 183.616325 
L 158.887274 177.44876 
L 164.96147 173.33705 
L 171.035667 159.827146 
L 177.109863 157.183904 
L 183.18406 151.016339 
L 189.258256 135.450581 
L 195.332453 131.338871 
L 201.406649 125.464999 
L 207.480846 127.227161 
L 213.555042 121.940677 
L 219.629239 120.765902 
L 225.703435 112.836176 
L 231.777632 103.731676 
L 237.851829 108.137079 
L 243.926025 102.556901 
L 250.000222 91.102852 
L 256.074418 91.396546 
L 262.148615 91.690239 
L 268.222811 88.165917 
L 274.297008 82.292045 
L 280.371204 80.823577 
L 286.445401 79.648803 
L 292.519597 83.173126 
L 298.593794 80.823577 
L 304.66799 76.418174 
L 310.742187 77.592948 
L 316.816383 73.187545 
L 322.89058 77.592948 
L 328.964776 79.648803 
L 335.038973 73.187545 
L 341.113169 73.774932 
L 347.187366 75.830787 
L 353.261562 74.068626 
L 359.335759 70.837996 
L 365.409955 70.544303 
L 371.484152 75.830787 
L 377.558348 74.949706 
L 383.632545 75.537093 
L 389.706741 71.13169 
L 395.780938 67.901061 
L 401.855134 67.313674 
L 407.929331 74.656013 
L 414.003527 74.656013 
L 420.077724 67.607367 
L 426.15192 70.250609 
L 432.226117 65.257819 
L 438.300313 70.250609 
L 444.37451 68.194754 
L 450.448706 67.313674 
L 456.522903 71.425383 
L 462.597099 72.600158 
L 468.671296 69.956916 
L 474.745492 68.488448 
L 480.819689 66.726286 
L 486.893885 69.956916 
L 492.968082 68.194754 
L 499.042278 67.901061 
L 505.116475 70.544303 
L 511.190671 69.663222 
L 517.264868 70.837996 
L 523.339065 69.663222 
L 529.413261 69.956916 
L 535.487458 66.432593 
L 541.561654 67.313674 
L 547.635851 71.13169 
L 553.710047 65.551512 
L 559.784244 67.901061 
L 565.85844 66.726286 
L 571.932637 69.956916 
L 578.006833 67.607367 
L 584.08103 63.789351 
L 590.155226 67.901061 
L 596.229423 67.313674 
L 602.303619 67.313674 
L 608.377816 68.488448 
L 614.452012 68.782141 
L 620.526209 68.782141 
L 626.600405 67.01998 
L 632.674602 67.901061 
L 638.748798 73.481238 
L 644.822995 66.432593 
L 650.897191 65.845206 
L 656.971388 68.194754 
L 663.045584 67.901061 
L 669.119781 63.789351 
L 675.193977 65.845206 
" clip-path="url(#p73230f24de)" style="fill: none; stroke: #1f77b4; stroke-width: 1.5; stroke-linecap: square"/>
   </g>
   <g id="line2d_16">
    <path d="M 73.848523 343.973012 
L 79.922719 326.351398 
L 85.996916 274.955024 
L 92.071112 262.326201 
L 98.145309 244.99828 
L 104.219505 224.146037 
L 110.293702 211.810907 
L 116.367898 198.301003 
L 122.442095 192.427132 
L 128.516291 184.203712 
L 134.590488 180.973083 
L 140.664684 186.259567 
L 146.738881 180.67939 
L 152.813077 178.917228 
L 158.887274 163.938856 
L 164.96147 156.596517 
L 171.035667 149.547872 
L 177.109863 134.5695 
L 183.18406 138.68121 
L 189.258256 134.863193 
L 195.332453 125.171306 
L 201.406649 124.877612 
L 207.480846 120.472209 
L 213.555042 117.828967 
L 219.629239 112.836176 
L 225.703435 113.12987 
L 231.777632 114.892031 
L 237.851829 106.668611 
L 243.926025 107.255998 
L 250.000222 99.032579 
L 256.074418 99.913659 
L 262.148615 101.382127 
L 268.222811 99.326272 
L 274.297008 92.865014 
L 280.371204 90.515465 
L 286.445401 99.032579 
L 292.519597 94.920869 
L 298.593794 91.102852 
L 304.66799 87.578529 
L 310.742187 87.578529 
L 316.816383 93.746094 
L 322.89058 84.641594 
L 328.964776 87.872223 
L 335.038973 81.998352 
L 341.113169 85.816368 
L 347.187366 81.410965 
L 353.261562 83.760513 
L 359.335759 76.12448 
L 365.409955 78.474029 
L 371.484152 79.942497 
L 377.558348 82.292045 
L 383.632545 75.537093 
L 389.706741 82.292045 
L 395.780938 72.893851 
L 401.855134 75.537093 
L 407.929331 77.886642 
L 414.003527 74.656013 
L 420.077724 72.600158 
L 426.15192 72.012771 
L 432.226117 69.369528 
L 438.300313 74.949706 
L 444.37451 71.13169 
L 450.448706 78.767723 
L 456.522903 67.607367 
L 462.597099 67.607367 
L 468.671296 62.90827 
L 474.745492 59.677641 
L 480.819689 62.614576 
L 486.893885 59.971334 
L 492.968082 55.859624 
L 499.042278 50.279447 
L 505.116475 49.985753 
L 511.190671 45.874043 
L 517.264868 48.810979 
L 523.339065 50.866834 
L 529.413261 56.153318 
L 535.487458 45.58035 
L 541.561654 46.167737 
L 547.635851 45.874043 
L 553.710047 50.57314 
L 559.784244 44.699269 
L 565.85844 47.342511 
L 571.932637 41.46864 
L 578.006833 50.866834 
L 584.08103 44.111882 
L 590.155226 49.69206 
L 596.229423 44.992963 
L 602.303619 42.937108 
L 608.377816 48.223592 
L 614.452012 46.167737 
L 620.526209 47.342511 
L 626.600405 47.048818 
L 632.674602 40.587559 
L 638.748798 40.293866 
L 644.822995 39.119091 
L 650.897191 43.818188 
L 656.971388 45.58035 
L 663.045584 38.825398 
L 669.119781 40.587559 
L 675.193977 39.412785 
" clip-path="url(#p73230f24de)" style="fill: none; stroke: #ff7f0e; stroke-width: 1.5; stroke-linecap: square"/>
   </g>
   <g id="line2d_17">
    <path d="M 73.848523 302.343114 
L 79.922719 294.124715 
L 85.996916 243.933776 
L 92.071112 226.029405 
L 98.145309 221.626691 
L 104.219505 213.408292 
L 110.293702 212.234235 
L 116.367898 210.473149 
L 122.442095 213.995321 
L 128.516291 209.005578 
L 134.590488 204.30935 
L 140.664684 189.046608 
L 146.738881 177.599552 
L 152.813077 183.763351 
L 158.887274 174.370895 
L 164.96147 177.599552 
L 171.035667 167.620067 
L 177.109863 167.326552 
L 183.18406 163.217353 
L 189.258256 158.22761 
L 195.332453 155.292468 
L 201.406649 160.575724 
L 207.480846 146.193525 
L 213.555042 145.019468 
L 219.629239 149.422182 
L 225.703435 149.128668 
L 231.777632 148.835154 
L 237.851829 139.149183 
L 243.926025 142.964868 
L 250.000222 132.398355 
L 256.074418 130.637269 
L 262.148615 126.821584 
L 268.222811 130.050241 
L 274.297008 130.050241 
L 280.371204 128.289155 
L 286.445401 130.050241 
L 292.519597 121.831841 
L 298.593794 125.354013 
L 304.66799 125.647527 
L 310.742187 121.244813 
L 316.816383 128.876184 
L 322.89058 119.483727 
L 328.964776 117.429127 
L 335.038973 119.190213 
L 341.113169 120.36427 
L 347.187366 127.995641 
L 353.261562 120.36427 
L 359.335759 116.548585 
L 365.409955 114.787499 
L 371.484152 115.961556 
L 377.558348 115.668042 
L 383.632545 117.429127 
L 389.706741 123.592927 
L 395.780938 128.289155 
L 401.855134 122.712384 
L 407.929331 115.668042 
L 414.003527 120.070756 
L 420.077724 109.797757 
L 426.15192 110.384785 
L 432.226117 119.483727 
L 438.300313 113.906956 
L 444.37451 117.722642 
L 450.448706 109.210728 
L 456.522903 105.101528 
L 462.597099 112.145871 
L 468.671296 116.25507 
L 474.745492 120.36427 
L 480.819689 113.906956 
L 486.893885 110.091271 
L 492.968082 110.971814 
L 499.042278 113.319928 
L 505.116475 114.787499 
L 511.190671 109.504242 
L 517.264868 110.971814 
L 523.339065 110.384785 
L 529.413261 106.275585 
L 535.487458 113.319928 
L 541.561654 110.384785 
L 547.635851 115.961556 
L 553.710047 112.145871 
L 559.784244 111.265328 
L 565.85844 111.558842 
L 571.932637 103.046928 
L 578.006833 110.971814 
L 584.08103 114.493985 
L 590.155226 111.558842 
L 596.229423 110.971814 
L 602.303619 103.927471 
L 608.377816 104.220986 
L 614.452012 115.374528 
L 620.526209 100.4053 
L 626.600405 105.101528 
L 632.674602 106.275585 
L 638.748798 116.842099 
L 644.822995 105.395043 
L 650.897191 102.753414 
L 656.971388 108.623699 
L 663.045584 106.862614 
L 669.119781 106.5691 
L 675.193977 109.797757 
" clip-path="url(#p73230f24de)" style="fill: none; stroke: #2ca02c; stroke-width: 1.5; stroke-linecap: square"/>
   </g>
   <g id="line2d_18">
    <path d="M 73.848523 368.970852 
L 79.922719 315.257742 
L 85.996916 279.155487 
L 92.071112 243.053233 
L 98.145309 206.36395 
L 104.219505 194.036351 
L 110.293702 184.643894 
L 116.367898 179.360637 
L 122.442095 178.480094 
L 128.516291 179.360637 
L 134.590488 173.490352 
L 140.664684 172.022781 
L 146.738881 170.555209 
L 152.813077 157.053553 
L 158.887274 158.814639 
L 164.96147 152.650839 
L 171.035667 144.138926 
L 177.109863 145.606497 
L 183.18406 136.21404 
L 189.258256 132.691869 
L 195.332453 131.224298 
L 201.406649 118.603184 
L 207.480846 118.603184 
L 213.555042 123.299413 
L 219.629239 117.135613 
L 225.703435 118.016156 
L 231.777632 111.852356 
L 237.851829 111.265328 
L 243.926025 116.548585 
L 250.000222 112.145871 
L 256.074418 110.678299 
L 262.148615 109.797757 
L 268.222811 115.081013 
L 274.297008 106.275585 
L 280.371204 103.340443 
L 286.445401 104.5145 
L 292.519597 107.449642 
L 298.593794 113.613442 
L 304.66799 95.415558 
L 310.742187 106.275585 
L 316.816383 96.2961 
L 322.89058 96.2961 
L 328.964776 95.122043 
L 335.038973 96.883129 
L 341.113169 95.415558 
L 347.187366 94.241501 
L 353.261562 96.589615 
L 359.335759 85.436073 
L 365.409955 98.3507 
L 371.484152 91.599872 
L 377.558348 95.709072 
L 383.632545 79.859302 
L 389.706741 91.599872 
L 395.780938 84.55553 
L 401.855134 81.913901 
L 407.929331 85.142558 
L 414.003527 83.381473 
L 420.077724 76.043616 
L 426.15192 86.903644 
L 432.226117 82.794444 
L 438.300313 78.098216 
L 444.37451 83.674987 
L 450.448706 86.61013 
L 456.522903 78.685244 
L 462.597099 75.163073 
L 468.671296 79.272273 
L 474.745492 65.477103 
L 480.819689 71.934416 
L 486.893885 67.531702 
L 492.968082 74.576045 
L 499.042278 68.705759 
L 505.116475 74.576045 
L 511.190671 67.238188 
L 517.264868 68.705759 
L 523.339065 66.357645 
L 529.413261 76.630645 
L 535.487458 66.65116 
L 541.561654 89.251758 
L 547.635851 67.238188 
L 553.710047 73.989016 
L 559.784244 71.640902 
L 565.85844 64.009531 
L 571.932637 72.227931 
L 578.006833 65.477103 
L 584.08103 67.531702 
L 590.155226 63.128988 
L 596.229423 61.074389 
L 602.303619 58.726274 
L 608.377816 64.009531 
L 614.452012 61.367903 
L 620.526209 59.019789 
L 626.600405 59.900332 
L 632.674602 61.661417 
L 638.748798 60.48736 
L 644.822995 58.726274 
L 650.897191 61.954931 
L 656.971388 62.54196 
L 663.045584 64.303046 
L 669.119781 63.422503 
L 675.193977 62.835474 
" clip-path="url(#p73230f24de)" style="fill: none; stroke: #d62728; stroke-width: 1.5; stroke-linecap: square"/>
   </g>
   <g id="line2d_19">
    <path d="M 73.848523 340.499969 
L 79.922719 323.182627 
L 85.996916 261.838146 
L 92.071112 211.060178 
L 98.145309 198.14555 
L 104.219505 173.490352 
L 110.293702 157.053553 
L 116.367898 151.770296 
L 122.442095 141.497297 
L 128.516291 143.551897 
L 134.590488 140.910269 
L 140.664684 137.975126 
L 146.738881 137.094583 
L 152.813077 137.388097 
L 158.887274 132.985383 
L 164.96147 138.26864 
L 171.035667 134.746469 
L 177.109863 139.442697 
L 183.18406 133.278898 
L 189.258256 136.801069 
L 195.332453 132.104841 
L 201.406649 131.517812 
L 207.480846 132.985383 
L 213.555042 130.930784 
L 219.629239 128.582669 
L 225.703435 128.582669 
L 231.777632 123.299413 
L 237.851829 130.930784 
L 243.926025 126.821584 
L 250.000222 130.637269 
L 256.074418 123.886441 
L 262.148615 127.408612 
L 268.222811 125.941041 
L 274.297008 125.060498 
L 280.371204 129.463212 
L 286.445401 126.234555 
L 292.519597 120.657784 
L 298.593794 116.842099 
L 304.66799 115.961556 
L 310.742187 114.787499 
L 316.816383 112.145871 
L 322.89058 119.777242 
L 328.964776 115.374528 
L 335.038973 109.210728 
L 341.113169 112.145871 
L 347.187366 108.036671 
L 353.261562 112.145871 
L 359.335759 112.732899 
L 365.409955 110.091271 
L 371.484152 115.081013 
L 377.558348 108.917214 
L 383.632545 111.265328 
L 389.706741 108.917214 
L 395.780938 108.623699 
L 401.855134 105.688557 
L 407.929331 104.5145 
L 414.003527 108.917214 
L 420.077724 103.633957 
L 426.15192 103.927471 
L 432.226117 105.688557 
L 438.300313 98.3507 
L 444.37451 101.579357 
L 450.448706 104.5145 
L 456.522903 100.4053 
L 462.597099 99.818272 
L 468.671296 102.4599 
L 474.745492 101.285843 
L 480.819689 98.644214 
L 486.893885 97.763672 
L 492.968082 98.057186 
L 499.042278 97.763672 
L 505.116475 96.589615 
L 511.190671 94.535015 
L 517.264868 85.436073 
L 523.339065 89.838787 
L 529.413261 93.947986 
L 535.487458 91.893386 
L 541.561654 89.545272 
L 547.635851 83.968501 
L 553.710047 85.729587 
L 559.784244 86.316615 
L 565.85844 88.077701 
L 571.932637 85.436073 
L 578.006833 88.077701 
L 584.08103 86.61013 
L 590.155226 77.804702 
L 596.229423 86.023101 
L 602.303619 87.197158 
L 608.377816 84.55553 
L 614.452012 90.425815 
L 620.526209 84.849044 
L 626.600405 78.098216 
L 632.674602 81.620387 
L 638.748798 81.326873 
L 644.822995 77.511187 
L 650.897191 78.978759 
L 656.971388 83.674987 
L 663.045584 79.859302 
L 669.119781 80.739844 
L 675.193977 78.978759 
" clip-path="url(#p73230f24de)" style="fill: none; stroke: #9467bd; stroke-width: 1.5; stroke-linecap: square"/>
   </g>
   <g id="patch_3">
    <path d="M 43.78125 385.478125 
L 43.78125 22.318125 
" style="fill: none; stroke: #000000; stroke-width: 0.8; stroke-linejoin: miter; stroke-linecap: square"/>
   </g>
   <g id="patch_4">
    <path d="M 705.26125 385.478125 
L 705.26125 22.318125 
" style="fill: none; stroke: #000000; stroke-width: 0.8; stroke-linejoin: miter; stroke-linecap: square"/>
   </g>
   <g id="patch_5">
    <path d="M 43.78125 385.478125 
L 705.26125 385.478125 
" style="fill: none; stroke: #000000; stroke-width: 0.8; stroke-linejoin: miter; stroke-linecap: square"/>
   </g>
   <g id="patch_6">
    <path d="M 43.78125 22.318125 
L 705.26125 22.318125 
" style="fill: none; stroke: #000000; stroke-width: 0.8; stroke-linejoin: miter; stroke-linecap: square"/>
   </g>
   <g id="text_17">
    <!-- Combined Train Accuracy -->
    <g transform="translate(298.436563 16.318125) scale(0.12 -0.12)">
     <defs>
      <path id="DejaVuSans-43" d="M 4122 4306 
L 4122 3641 
Q 3803 3938 3442 4084 
Q 3081 4231 2675 4231 
Q 1875 4231 1450 3742 
Q 1025 3253 1025 2328 
Q 1025 1406 1450 917 
Q 1875 428 2675 428 
Q 3081 428 3442 575 
Q 3803 722 4122 1019 
L 4122 359 
Q 3791 134 3420 21 
Q 3050 -91 2638 -91 
Q 1578 -91 968 557 
Q 359 1206 359 2328 
Q 359 3453 968 4101 
Q 1578 4750 2638 4750 
Q 3056 4750 3426 4639 
Q 3797 4528 4122 4306 
z
" transform="scale(0.015625)"/>
      <path id="DejaVuSans-6d" d="M 3328 2828 
Q 3544 3216 3844 3400 
Q 4144 3584 4550 3584 
Q 5097 3584 5394 3201 
Q 5691 2819 5691 2113 
L 5691 0 
L 5113 0 
L 5113 2094 
Q 5113 2597 4934 2840 
Q 4756 3084 4391 3084 
Q 3944 3084 3684 2787 
Q 3425 2491 3425 1978 
L 3425 0 
L 2847 0 
L 2847 2094 
Q 2847 2600 2669 2842 
Q 2491 3084 2119 3084 
Q 1678 3084 1418 2786 
Q 1159 2488 1159 1978 
L 1159 0 
L 581 0 
L 581 3500 
L 1159 3500 
L 1159 2956 
Q 1356 3278 1631 3431 
Q 1906 3584 2284 3584 
Q 2666 3584 2933 3390 
Q 3200 3197 3328 2828 
z
" transform="scale(0.015625)"/>
      <path id="DejaVuSans-62" d="M 3116 1747 
Q 3116 2381 2855 2742 
Q 2594 3103 2138 3103 
Q 1681 3103 1420 2742 
Q 1159 2381 1159 1747 
Q 1159 1113 1420 752 
Q 1681 391 2138 391 
Q 2594 391 2855 752 
Q 3116 1113 3116 1747 
z
M 1159 2969 
Q 1341 3281 1617 3432 
Q 1894 3584 2278 3584 
Q 2916 3584 3314 3078 
Q 3713 2572 3713 1747 
Q 3713 922 3314 415 
Q 2916 -91 2278 -91 
Q 1894 -91 1617 61 
Q 1341 213 1159 525 
L 1159 0 
L 581 0 
L 581 4863 
L 1159 4863 
L 1159 2969 
z
" transform="scale(0.015625)"/>
      <path id="DejaVuSans-65" d="M 3597 1894 
L 3597 1613 
L 953 1613 
Q 991 1019 1311 708 
Q 1631 397 2203 397 
Q 2534 397 2845 478 
Q 3156 559 3463 722 
L 3463 178 
Q 3153 47 2828 -22 
Q 2503 -91 2169 -91 
Q 1331 -91 842 396 
Q 353 884 353 1716 
Q 353 2575 817 3079 
Q 1281 3584 2069 3584 
Q 2775 3584 3186 3129 
Q 3597 2675 3597 1894 
z
M 3022 2063 
Q 3016 2534 2758 2815 
Q 2500 3097 2075 3097 
Q 1594 3097 1305 2825 
Q 1016 2553 972 2059 
L 3022 2063 
z
" transform="scale(0.015625)"/>
      <path id="DejaVuSans-64" d="M 2906 2969 
L 2906 4863 
L 3481 4863 
L 3481 0 
L 2906 0 
L 2906 525 
Q 2725 213 2448 61 
Q 2172 -91 1784 -91 
Q 1150 -91 751 415 
Q 353 922 353 1747 
Q 353 2572 751 3078 
Q 1150 3584 1784 3584 
Q 2172 3584 2448 3432 
Q 2725 3281 2906 2969 
z
M 947 1747 
Q 947 1113 1208 752 
Q 1469 391 1925 391 
Q 2381 391 2643 752 
Q 2906 1113 2906 1747 
Q 2906 2381 2643 2742 
Q 2381 3103 1925 3103 
Q 1469 3103 1208 2742 
Q 947 2381 947 1747 
z
" transform="scale(0.015625)"/>
     </defs>
     <use xlink:href="#DejaVuSans-43"/>
     <use xlink:href="#DejaVuSans-6f" transform="translate(69.824219 0)"/>
     <use xlink:href="#DejaVuSans-6d" transform="translate(131.005859 0)"/>
     <use xlink:href="#DejaVuSans-62" transform="translate(228.417969 0)"/>
     <use xlink:href="#DejaVuSans-69" transform="translate(291.894531 0)"/>
     <use xlink:href="#DejaVuSans-6e" transform="translate(319.677734 0)"/>
     <use xlink:href="#DejaVuSans-65" transform="translate(383.056641 0)"/>
     <use xlink:href="#DejaVuSans-64" transform="translate(444.580078 0)"/>
     <use xlink:href="#DejaVuSans-20" transform="translate(508.056641 0)"/>
     <use xlink:href="#DejaVuSans-54" transform="translate(539.84375 0)"/>
     <use xlink:href="#DejaVuSans-72" transform="translate(586.177734 0)"/>
     <use xlink:href="#DejaVuSans-61" transform="translate(627.291016 0)"/>
     <use xlink:href="#DejaVuSans-69" transform="translate(688.570312 0)"/>
     <use xlink:href="#DejaVuSans-6e" transform="translate(716.353516 0)"/>
     <use xlink:href="#DejaVuSans-20" transform="translate(779.732422 0)"/>
     <use xlink:href="#DejaVuSans-41" transform="translate(811.519531 0)"/>
     <use xlink:href="#DejaVuSans-63" transform="translate(878.177734 0)"/>
     <use xlink:href="#DejaVuSans-63" transform="translate(933.158203 0)"/>
     <use xlink:href="#DejaVuSans-75" transform="translate(988.138672 0)"/>
     <use xlink:href="#DejaVuSans-72" transform="translate(1051.517578 0)"/>
     <use xlink:href="#DejaVuSans-61" transform="translate(1092.630859 0)"/>
     <use xlink:href="#DejaVuSans-63" transform="translate(1153.910156 0)"/>
     <use xlink:href="#DejaVuSans-79" transform="translate(1208.890625 0)"/>
    </g>
   </g>
   <g id="legend_1">
    <g id="patch_7">
     <path d="M 50.78125 103.70875 
L 112.95625 103.70875 
Q 114.95625 103.70875 114.95625 101.70875 
L 114.95625 29.318125 
Q 114.95625 27.318125 112.95625 27.318125 
L 50.78125 27.318125 
Q 48.78125 27.318125 48.78125 29.318125 
L 48.78125 101.70875 
Q 48.78125 103.70875 50.78125 103.70875 
z
" style="fill: #ffffff; opacity: 0.8; stroke: #cccccc; stroke-linejoin: miter"/>
    </g>
    <g id="line2d_20">
     <path d="M 52.78125 35.416562 
L 62.78125 35.416562 
L 72.78125 35.416562 
" style="fill: none; stroke: #1f77b4; stroke-width: 1.5; stroke-linecap: square"/>
    </g>
    <g id="text_18">
     <!-- Fold 1 -->
     <g transform="translate(80.78125 38.916562) scale(0.1 -0.1)">
      <defs>
       <path id="DejaVuSans-46" d="M 628 4666 
L 3309 4666 
L 3309 4134 
L 1259 4134 
L 1259 2759 
L 3109 2759 
L 3109 2228 
L 1259 2228 
L 1259 0 
L 628 0 
L 628 4666 
z
" transform="scale(0.015625)"/>
       <path id="DejaVuSans-6c" d="M 603 4863 
L 1178 4863 
L 1178 0 
L 603 0 
L 603 4863 
z
" transform="scale(0.015625)"/>
      </defs>
      <use xlink:href="#DejaVuSans-46"/>
      <use xlink:href="#DejaVuSans-6f" transform="translate(53.894531 0)"/>
      <use xlink:href="#DejaVuSans-6c" transform="translate(115.076172 0)"/>
      <use xlink:href="#DejaVuSans-64" transform="translate(142.859375 0)"/>
      <use xlink:href="#DejaVuSans-20" transform="translate(206.335938 0)"/>
      <use xlink:href="#DejaVuSans-31" transform="translate(238.123047 0)"/>
     </g>
    </g>
    <g id="line2d_21">
     <path d="M 52.78125 50.094688 
L 62.78125 50.094688 
L 72.78125 50.094688 
" style="fill: none; stroke: #ff7f0e; stroke-width: 1.5; stroke-linecap: square"/>
    </g>
    <g id="text_19">
     <!-- Fold 2 -->
     <g transform="translate(80.78125 53.594688) scale(0.1 -0.1)">
      <use xlink:href="#DejaVuSans-46"/>
      <use xlink:href="#DejaVuSans-6f" transform="translate(53.894531 0)"/>
      <use xlink:href="#DejaVuSans-6c" transform="translate(115.076172 0)"/>
      <use xlink:href="#DejaVuSans-64" transform="translate(142.859375 0)"/>
      <use xlink:href="#DejaVuSans-20" transform="translate(206.335938 0)"/>
      <use xlink:href="#DejaVuSans-32" transform="translate(238.123047 0)"/>
     </g>
    </g>
    <g id="line2d_22">
     <path d="M 52.78125 64.772812 
L 62.78125 64.772812 
L 72.78125 64.772812 
" style="fill: none; stroke: #2ca02c; stroke-width: 1.5; stroke-linecap: square"/>
    </g>
    <g id="text_20">
     <!-- Fold 3 -->
     <g transform="translate(80.78125 68.272812) scale(0.1 -0.1)">
      <use xlink:href="#DejaVuSans-46"/>
      <use xlink:href="#DejaVuSans-6f" transform="translate(53.894531 0)"/>
      <use xlink:href="#DejaVuSans-6c" transform="translate(115.076172 0)"/>
      <use xlink:href="#DejaVuSans-64" transform="translate(142.859375 0)"/>
      <use xlink:href="#DejaVuSans-20" transform="translate(206.335938 0)"/>
      <use xlink:href="#DejaVuSans-33" transform="translate(238.123047 0)"/>
     </g>
    </g>
    <g id="line2d_23">
     <path d="M 52.78125 79.450938 
L 62.78125 79.450938 
L 72.78125 79.450938 
" style="fill: none; stroke: #d62728; stroke-width: 1.5; stroke-linecap: square"/>
    </g>
    <g id="text_21">
     <!-- Fold 4 -->
     <g transform="translate(80.78125 82.950938) scale(0.1 -0.1)">
      <use xlink:href="#DejaVuSans-46"/>
      <use xlink:href="#DejaVuSans-6f" transform="translate(53.894531 0)"/>
      <use xlink:href="#DejaVuSans-6c" transform="translate(115.076172 0)"/>
      <use xlink:href="#DejaVuSans-64" transform="translate(142.859375 0)"/>
      <use xlink:href="#DejaVuSans-20" transform="translate(206.335938 0)"/>
      <use xlink:href="#DejaVuSans-34" transform="translate(238.123047 0)"/>
     </g>
    </g>
    <g id="line2d_24">
     <path d="M 52.78125 94.129063 
L 62.78125 94.129063 
L 72.78125 94.129063 
" style="fill: none; stroke: #9467bd; stroke-width: 1.5; stroke-linecap: square"/>
    </g>
    <g id="text_22">
     <!-- Fold 5 -->
     <g transform="translate(80.78125 97.629063) scale(0.1 -0.1)">
      <use xlink:href="#DejaVuSans-46"/>
      <use xlink:href="#DejaVuSans-6f" transform="translate(53.894531 0)"/>
      <use xlink:href="#DejaVuSans-6c" transform="translate(115.076172 0)"/>
      <use xlink:href="#DejaVuSans-64" transform="translate(142.859375 0)"/>
      <use xlink:href="#DejaVuSans-20" transform="translate(206.335938 0)"/>
      <use xlink:href="#DejaVuSans-35" transform="translate(238.123047 0)"/>
     </g>
    </g>
   </g>
  </g>
 </g>
 <defs>
  <clipPath id="p73230f24de">
   <rect x="43.78125" y="22.318125" width="661.48" height="363.16"/>
  </clipPath>
 </defs>
</svg>
