<?xml version="1.0" encoding="utf-8" standalone="no"?>
<!DOCTYPE svg PUBLIC "-//W3C//DTD SVG 1.1//EN"
  "http://www.w3.org/Graphics/SVG/1.1/DTD/svg11.dtd">
<svg xmlns:xlink="http://www.w3.org/1999/xlink" width="712.46125pt" height="423.034375pt" viewBox="0 0 712.46125 423.034375" xmlns="http://www.w3.org/2000/svg" version="1.1">
 <metadata>
  <rdf:RDF xmlns:dc="http://purl.org/dc/elements/1.1/" xmlns:cc="http://creativecommons.org/ns#" xmlns:rdf="http://www.w3.org/1999/02/22-rdf-syntax-ns#">
   <cc:Work>
    <dc:type rdf:resource="http://purl.org/dc/dcmitype/StillImage"/>
    <dc:date>2025-06-27T13:19:24.883960</dc:date>
    <dc:format>image/svg+xml</dc:format>
    <dc:creator>
     <cc:Agent>
      <dc:title>Matplotlib v3.10.0, https://matplotlib.org/</dc:title>
     </cc:Agent>
    </dc:creator>
   </cc:Work>
  </rdf:RDF>
 </metadata>
 <defs>
  <style type="text/css">*{stroke-linejoin: round; stroke-linecap: butt}</style>
 </defs>
 <g id="figure_1">
  <g id="patch_1">
   <path d="M 0 423.034375 
L 712.46125 423.034375 
L 712.46125 0 
L 0 0 
z
" style="fill: #ffffff"/>
  </g>
  <g id="axes_1">
   <g id="patch_2">
    <path d="M 43.78125 385.478125 
L 705.26125 385.478125 
L 705.26125 22.318125 
L 43.78125 22.318125 
z
" style="fill: #ffffff"/>
   </g>
   <g id="matplotlib.axis_1">
    <g id="xtick_1">
     <g id="line2d_1">
      <defs>
       <path id="m459e65bd1f" d="M 0 0 
L 0 3.5 
" style="stroke: #000000; stroke-width: 0.8"/>
      </defs>
      <g>
       <use xlink:href="#m459e65bd1f" x="67.774326" y="385.478125" style="stroke: #000000; stroke-width: 0.8"/>
      </g>
     </g>
     <g id="text_1">
      <!-- 0 -->
      <g transform="translate(64.593076 400.076562) scale(0.1 -0.1)">
       <defs>
        <path id="DejaVuSans-30" d="M 2034 4250 
Q 1547 4250 1301 3770 
Q 1056 3291 1056 2328 
Q 1056 1369 1301 889 
Q 1547 409 2034 409 
Q 2525 409 2770 889 
Q 3016 1369 3016 2328 
Q 3016 3291 2770 3770 
Q 2525 4250 2034 4250 
z
M 2034 4750 
Q 2819 4750 3233 4129 
Q 3647 3509 3647 2328 
Q 3647 1150 3233 529 
Q 2819 -91 2034 -91 
Q 1250 -91 836 529 
Q 422 1150 422 2328 
Q 422 3509 836 4129 
Q 1250 4750 2034 4750 
z
" transform="scale(0.015625)"/>
       </defs>
       <use xlink:href="#DejaVuSans-30"/>
      </g>
     </g>
    </g>
    <g id="xtick_2">
     <g id="line2d_2">
      <g>
       <use xlink:href="#m459e65bd1f" x="189.258256" y="385.478125" style="stroke: #000000; stroke-width: 0.8"/>
      </g>
     </g>
     <g id="text_2">
      <!-- 20 -->
      <g transform="translate(182.895756 400.076562) scale(0.1 -0.1)">
       <defs>
        <path id="DejaVuSans-32" d="M 1228 531 
L 3431 531 
L 3431 0 
L 469 0 
L 469 531 
Q 828 903 1448 1529 
Q 2069 2156 2228 2338 
Q 2531 2678 2651 2914 
Q 2772 3150 2772 3378 
Q 2772 3750 2511 3984 
Q 2250 4219 1831 4219 
Q 1534 4219 1204 4116 
Q 875 4013 500 3803 
L 500 4441 
Q 881 4594 1212 4672 
Q 1544 4750 1819 4750 
Q 2544 4750 2975 4387 
Q 3406 4025 3406 3419 
Q 3406 3131 3298 2873 
Q 3191 2616 2906 2266 
Q 2828 2175 2409 1742 
Q 1991 1309 1228 531 
z
" transform="scale(0.015625)"/>
       </defs>
       <use xlink:href="#DejaVuSans-32"/>
       <use xlink:href="#DejaVuSans-30" transform="translate(63.623047 0)"/>
      </g>
     </g>
    </g>
    <g id="xtick_3">
     <g id="line2d_3">
      <g>
       <use xlink:href="#m459e65bd1f" x="310.742187" y="385.478125" style="stroke: #000000; stroke-width: 0.8"/>
      </g>
     </g>
     <g id="text_3">
      <!-- 40 -->
      <g transform="translate(304.379687 400.076562) scale(0.1 -0.1)">
       <defs>
        <path id="DejaVuSans-34" d="M 2419 4116 
L 825 1625 
L 2419 1625 
L 2419 4116 
z
M 2253 4666 
L 3047 4666 
L 3047 1625 
L 3713 1625 
L 3713 1100 
L 3047 1100 
L 3047 0 
L 2419 0 
L 2419 1100 
L 313 1100 
L 313 1709 
L 2253 4666 
z
" transform="scale(0.015625)"/>
       </defs>
       <use xlink:href="#DejaVuSans-34"/>
       <use xlink:href="#DejaVuSans-30" transform="translate(63.623047 0)"/>
      </g>
     </g>
    </g>
    <g id="xtick_4">
     <g id="line2d_4">
      <g>
       <use xlink:href="#m459e65bd1f" x="432.226117" y="385.478125" style="stroke: #000000; stroke-width: 0.8"/>
      </g>
     </g>
     <g id="text_4">
      <!-- 60 -->
      <g transform="translate(425.863617 400.076562) scale(0.1 -0.1)">
       <defs>
        <path id="DejaVuSans-36" d="M 2113 2584 
Q 1688 2584 1439 2293 
Q 1191 2003 1191 1497 
Q 1191 994 1439 701 
Q 1688 409 2113 409 
Q 2538 409 2786 701 
Q 3034 994 3034 1497 
Q 3034 2003 2786 2293 
Q 2538 2584 2113 2584 
z
M 3366 4563 
L 3366 3988 
Q 3128 4100 2886 4159 
Q 2644 4219 2406 4219 
Q 1781 4219 1451 3797 
Q 1122 3375 1075 2522 
Q 1259 2794 1537 2939 
Q 1816 3084 2150 3084 
Q 2853 3084 3261 2657 
Q 3669 2231 3669 1497 
Q 3669 778 3244 343 
Q 2819 -91 2113 -91 
Q 1303 -91 875 529 
Q 447 1150 447 2328 
Q 447 3434 972 4092 
Q 1497 4750 2381 4750 
Q 2619 4750 2861 4703 
Q 3103 4656 3366 4563 
z
" transform="scale(0.015625)"/>
       </defs>
       <use xlink:href="#DejaVuSans-36"/>
       <use xlink:href="#DejaVuSans-30" transform="translate(63.623047 0)"/>
      </g>
     </g>
    </g>
    <g id="xtick_5">
     <g id="line2d_5">
      <g>
       <use xlink:href="#m459e65bd1f" x="553.710047" y="385.478125" style="stroke: #000000; stroke-width: 0.8"/>
      </g>
     </g>
     <g id="text_5">
      <!-- 80 -->
      <g transform="translate(547.347547 400.076562) scale(0.1 -0.1)">
       <defs>
        <path id="DejaVuSans-38" d="M 2034 2216 
Q 1584 2216 1326 1975 
Q 1069 1734 1069 1313 
Q 1069 891 1326 650 
Q 1584 409 2034 409 
Q 2484 409 2743 651 
Q 3003 894 3003 1313 
Q 3003 1734 2745 1975 
Q 2488 2216 2034 2216 
z
M 1403 2484 
Q 997 2584 770 2862 
Q 544 3141 544 3541 
Q 544 4100 942 4425 
Q 1341 4750 2034 4750 
Q 2731 4750 3128 4425 
Q 3525 4100 3525 3541 
Q 3525 3141 3298 2862 
Q 3072 2584 2669 2484 
Q 3125 2378 3379 2068 
Q 3634 1759 3634 1313 
Q 3634 634 3220 271 
Q 2806 -91 2034 -91 
Q 1263 -91 848 271 
Q 434 634 434 1313 
Q 434 1759 690 2068 
Q 947 2378 1403 2484 
z
M 1172 3481 
Q 1172 3119 1398 2916 
Q 1625 2713 2034 2713 
Q 2441 2713 2670 2916 
Q 2900 3119 2900 3481 
Q 2900 3844 2670 4047 
Q 2441 4250 2034 4250 
Q 1625 4250 1398 4047 
Q 1172 3844 1172 3481 
z
" transform="scale(0.015625)"/>
       </defs>
       <use xlink:href="#DejaVuSans-38"/>
       <use xlink:href="#DejaVuSans-30" transform="translate(63.623047 0)"/>
      </g>
     </g>
    </g>
    <g id="xtick_6">
     <g id="line2d_6">
      <g>
       <use xlink:href="#m459e65bd1f" x="675.193977" y="385.478125" style="stroke: #000000; stroke-width: 0.8"/>
      </g>
     </g>
     <g id="text_6">
      <!-- 100 -->
      <g transform="translate(665.650227 400.076562) scale(0.1 -0.1)">
       <defs>
        <path id="DejaVuSans-31" d="M 794 531 
L 1825 531 
L 1825 4091 
L 703 3866 
L 703 4441 
L 1819 4666 
L 2450 4666 
L 2450 531 
L 3481 531 
L 3481 0 
L 794 0 
L 794 531 
z
" transform="scale(0.015625)"/>
       </defs>
       <use xlink:href="#DejaVuSans-31"/>
       <use xlink:href="#DejaVuSans-30" transform="translate(63.623047 0)"/>
       <use xlink:href="#DejaVuSans-30" transform="translate(127.246094 0)"/>
      </g>
     </g>
    </g>
    <g id="text_7">
     <!-- Epoch -->
     <g transform="translate(359.210312 413.754687) scale(0.1 -0.1)">
      <defs>
       <path id="DejaVuSans-45" d="M 628 4666 
L 3578 4666 
L 3578 4134 
L 1259 4134 
L 1259 2753 
L 3481 2753 
L 3481 2222 
L 1259 2222 
L 1259 531 
L 3634 531 
L 3634 0 
L 628 0 
L 628 4666 
z
" transform="scale(0.015625)"/>
       <path id="DejaVuSans-70" d="M 1159 525 
L 1159 -1331 
L 581 -1331 
L 581 3500 
L 1159 3500 
L 1159 2969 
Q 1341 3281 1617 3432 
Q 1894 3584 2278 3584 
Q 2916 3584 3314 3078 
Q 3713 2572 3713 1747 
Q 3713 922 3314 415 
Q 2916 -91 2278 -91 
Q 1894 -91 1617 61 
Q 1341 213 1159 525 
z
M 3116 1747 
Q 3116 2381 2855 2742 
Q 2594 3103 2138 3103 
Q 1681 3103 1420 2742 
Q 1159 2381 1159 1747 
Q 1159 1113 1420 752 
Q 1681 391 2138 391 
Q 2594 391 2855 752 
Q 3116 1113 3116 1747 
z
" transform="scale(0.015625)"/>
       <path id="DejaVuSans-6f" d="M 1959 3097 
Q 1497 3097 1228 2736 
Q 959 2375 959 1747 
Q 959 1119 1226 758 
Q 1494 397 1959 397 
Q 2419 397 2687 759 
Q 2956 1122 2956 1747 
Q 2956 2369 2687 2733 
Q 2419 3097 1959 3097 
z
M 1959 3584 
Q 2709 3584 3137 3096 
Q 3566 2609 3566 1747 
Q 3566 888 3137 398 
Q 2709 -91 1959 -91 
Q 1206 -91 779 398 
Q 353 888 353 1747 
Q 353 2609 779 3096 
Q 1206 3584 1959 3584 
z
" transform="scale(0.015625)"/>
       <path id="DejaVuSans-63" d="M 3122 3366 
L 3122 2828 
Q 2878 2963 2633 3030 
Q 2388 3097 2138 3097 
Q 1578 3097 1268 2742 
Q 959 2388 959 1747 
Q 959 1106 1268 751 
Q 1578 397 2138 397 
Q 2388 397 2633 464 
Q 2878 531 3122 666 
L 3122 134 
Q 2881 22 2623 -34 
Q 2366 -91 2075 -91 
Q 1284 -91 818 406 
Q 353 903 353 1747 
Q 353 2603 823 3093 
Q 1294 3584 2113 3584 
Q 2378 3584 2631 3529 
Q 2884 3475 3122 3366 
z
" transform="scale(0.015625)"/>
       <path id="DejaVuSans-68" d="M 3513 2113 
L 3513 0 
L 2938 0 
L 2938 2094 
Q 2938 2591 2744 2837 
Q 2550 3084 2163 3084 
Q 1697 3084 1428 2787 
Q 1159 2491 1159 1978 
L 1159 0 
L 581 0 
L 581 4863 
L 1159 4863 
L 1159 2956 
Q 1366 3272 1645 3428 
Q 1925 3584 2291 3584 
Q 2894 3584 3203 3211 
Q 3513 2838 3513 2113 
z
" transform="scale(0.015625)"/>
      </defs>
      <use xlink:href="#DejaVuSans-45"/>
      <use xlink:href="#DejaVuSans-70" transform="translate(63.183594 0)"/>
      <use xlink:href="#DejaVuSans-6f" transform="translate(126.660156 0)"/>
      <use xlink:href="#DejaVuSans-63" transform="translate(187.841797 0)"/>
      <use xlink:href="#DejaVuSans-68" transform="translate(242.822266 0)"/>
     </g>
    </g>
   </g>
   <g id="matplotlib.axis_2">
    <g id="ytick_1">
     <g id="line2d_7">
      <defs>
       <path id="m6ac50eda33" d="M 0 0 
L -3.5 0 
" style="stroke: #000000; stroke-width: 0.8"/>
      </defs>
      <g>
       <use xlink:href="#m6ac50eda33" x="43.78125" y="376.315559" style="stroke: #000000; stroke-width: 0.8"/>
      </g>
     </g>
     <g id="text_8">
      <!-- 0.2 -->
      <g transform="translate(20.878125 380.114778) scale(0.1 -0.1)">
       <defs>
        <path id="DejaVuSans-2e" d="M 684 794 
L 1344 794 
L 1344 0 
L 684 0 
L 684 794 
z
" transform="scale(0.015625)"/>
       </defs>
       <use xlink:href="#DejaVuSans-30"/>
       <use xlink:href="#DejaVuSans-2e" transform="translate(63.623047 0)"/>
       <use xlink:href="#DejaVuSans-32" transform="translate(95.410156 0)"/>
      </g>
     </g>
    </g>
    <g id="ytick_2">
     <g id="line2d_8">
      <g>
       <use xlink:href="#m6ac50eda33" x="43.78125" y="322.130527" style="stroke: #000000; stroke-width: 0.8"/>
      </g>
     </g>
     <g id="text_9">
      <!-- 0.4 -->
      <g transform="translate(20.878125 325.929746) scale(0.1 -0.1)">
       <use xlink:href="#DejaVuSans-30"/>
       <use xlink:href="#DejaVuSans-2e" transform="translate(63.623047 0)"/>
       <use xlink:href="#DejaVuSans-34" transform="translate(95.410156 0)"/>
      </g>
     </g>
    </g>
    <g id="ytick_3">
     <g id="line2d_9">
      <g>
       <use xlink:href="#m6ac50eda33" x="43.78125" y="267.945496" style="stroke: #000000; stroke-width: 0.8"/>
      </g>
     </g>
     <g id="text_10">
      <!-- 0.6 -->
      <g transform="translate(20.878125 271.744714) scale(0.1 -0.1)">
       <use xlink:href="#DejaVuSans-30"/>
       <use xlink:href="#DejaVuSans-2e" transform="translate(63.623047 0)"/>
       <use xlink:href="#DejaVuSans-36" transform="translate(95.410156 0)"/>
      </g>
     </g>
    </g>
    <g id="ytick_4">
     <g id="line2d_10">
      <g>
       <use xlink:href="#m6ac50eda33" x="43.78125" y="213.760464" style="stroke: #000000; stroke-width: 0.8"/>
      </g>
     </g>
     <g id="text_11">
      <!-- 0.8 -->
      <g transform="translate(20.878125 217.559683) scale(0.1 -0.1)">
       <use xlink:href="#DejaVuSans-30"/>
       <use xlink:href="#DejaVuSans-2e" transform="translate(63.623047 0)"/>
       <use xlink:href="#DejaVuSans-38" transform="translate(95.410156 0)"/>
      </g>
     </g>
    </g>
    <g id="ytick_5">
     <g id="line2d_11">
      <g>
       <use xlink:href="#m6ac50eda33" x="43.78125" y="159.575432" style="stroke: #000000; stroke-width: 0.8"/>
      </g>
     </g>
     <g id="text_12">
      <!-- 1.0 -->
      <g transform="translate(20.878125 163.374651) scale(0.1 -0.1)">
       <use xlink:href="#DejaVuSans-31"/>
       <use xlink:href="#DejaVuSans-2e" transform="translate(63.623047 0)"/>
       <use xlink:href="#DejaVuSans-30" transform="translate(95.410156 0)"/>
      </g>
     </g>
    </g>
    <g id="ytick_6">
     <g id="line2d_12">
      <g>
       <use xlink:href="#m6ac50eda33" x="43.78125" y="105.390401" style="stroke: #000000; stroke-width: 0.8"/>
      </g>
     </g>
     <g id="text_13">
      <!-- 1.2 -->
      <g transform="translate(20.878125 109.189619) scale(0.1 -0.1)">
       <use xlink:href="#DejaVuSans-31"/>
       <use xlink:href="#DejaVuSans-2e" transform="translate(63.623047 0)"/>
       <use xlink:href="#DejaVuSans-32" transform="translate(95.410156 0)"/>
      </g>
     </g>
    </g>
    <g id="ytick_7">
     <g id="line2d_13">
      <g>
       <use xlink:href="#m6ac50eda33" x="43.78125" y="51.205369" style="stroke: #000000; stroke-width: 0.8"/>
      </g>
     </g>
     <g id="text_14">
      <!-- 1.4 -->
      <g transform="translate(20.878125 55.004588) scale(0.1 -0.1)">
       <use xlink:href="#DejaVuSans-31"/>
       <use xlink:href="#DejaVuSans-2e" transform="translate(63.623047 0)"/>
       <use xlink:href="#DejaVuSans-34" transform="translate(95.410156 0)"/>
      </g>
     </g>
    </g>
    <g id="text_15">
     <!-- Train Loss -->
     <g transform="translate(14.798438 228.448125) rotate(-90) scale(0.1 -0.1)">
      <defs>
       <path id="DejaVuSans-54" d="M -19 4666 
L 3928 4666 
L 3928 4134 
L 2272 4134 
L 2272 0 
L 1638 0 
L 1638 4134 
L -19 4134 
L -19 4666 
z
" transform="scale(0.015625)"/>
       <path id="DejaVuSans-72" d="M 2631 2963 
Q 2534 3019 2420 3045 
Q 2306 3072 2169 3072 
Q 1681 3072 1420 2755 
Q 1159 2438 1159 1844 
L 1159 0 
L 581 0 
L 581 3500 
L 1159 3500 
L 1159 2956 
Q 1341 3275 1631 3429 
Q 1922 3584 2338 3584 
Q 2397 3584 2469 3576 
Q 2541 3569 2628 3553 
L 2631 2963 
z
" transform="scale(0.015625)"/>
       <path id="DejaVuSans-61" d="M 2194 1759 
Q 1497 1759 1228 1600 
Q 959 1441 959 1056 
Q 959 750 1161 570 
Q 1363 391 1709 391 
Q 2188 391 2477 730 
Q 2766 1069 2766 1631 
L 2766 1759 
L 2194 1759 
z
M 3341 1997 
L 3341 0 
L 2766 0 
L 2766 531 
Q 2569 213 2275 61 
Q 1981 -91 1556 -91 
Q 1019 -91 701 211 
Q 384 513 384 1019 
Q 384 1609 779 1909 
Q 1175 2209 1959 2209 
L 2766 2209 
L 2766 2266 
Q 2766 2663 2505 2880 
Q 2244 3097 1772 3097 
Q 1472 3097 1187 3025 
Q 903 2953 641 2809 
L 641 3341 
Q 956 3463 1253 3523 
Q 1550 3584 1831 3584 
Q 2591 3584 2966 3190 
Q 3341 2797 3341 1997 
z
" transform="scale(0.015625)"/>
       <path id="DejaVuSans-69" d="M 603 3500 
L 1178 3500 
L 1178 0 
L 603 0 
L 603 3500 
z
M 603 4863 
L 1178 4863 
L 1178 4134 
L 603 4134 
L 603 4863 
z
" transform="scale(0.015625)"/>
       <path id="DejaVuSans-6e" d="M 3513 2113 
L 3513 0 
L 2938 0 
L 2938 2094 
Q 2938 2591 2744 2837 
Q 2550 3084 2163 3084 
Q 1697 3084 1428 2787 
Q 1159 2491 1159 1978 
L 1159 0 
L 581 0 
L 581 3500 
L 1159 3500 
L 1159 2956 
Q 1366 3272 1645 3428 
Q 1925 3584 2291 3584 
Q 2894 3584 3203 3211 
Q 3513 2838 3513 2113 
z
" transform="scale(0.015625)"/>
       <path id="DejaVuSans-20" transform="scale(0.015625)"/>
       <path id="DejaVuSans-4c" d="M 628 4666 
L 1259 4666 
L 1259 531 
L 3531 531 
L 3531 0 
L 628 0 
L 628 4666 
z
" transform="scale(0.015625)"/>
       <path id="DejaVuSans-73" d="M 2834 3397 
L 2834 2853 
Q 2591 2978 2328 3040 
Q 2066 3103 1784 3103 
Q 1356 3103 1142 2972 
Q 928 2841 928 2578 
Q 928 2378 1081 2264 
Q 1234 2150 1697 2047 
L 1894 2003 
Q 2506 1872 2764 1633 
Q 3022 1394 3022 966 
Q 3022 478 2636 193 
Q 2250 -91 1575 -91 
Q 1294 -91 989 -36 
Q 684 19 347 128 
L 347 722 
Q 666 556 975 473 
Q 1284 391 1588 391 
Q 1994 391 2212 530 
Q 2431 669 2431 922 
Q 2431 1156 2273 1281 
Q 2116 1406 1581 1522 
L 1381 1569 
Q 847 1681 609 1914 
Q 372 2147 372 2553 
Q 372 3047 722 3315 
Q 1072 3584 1716 3584 
Q 2034 3584 2315 3537 
Q 2597 3491 2834 3397 
z
" transform="scale(0.015625)"/>
      </defs>
      <use xlink:href="#DejaVuSans-54"/>
      <use xlink:href="#DejaVuSans-72" transform="translate(46.333984 0)"/>
      <use xlink:href="#DejaVuSans-61" transform="translate(87.447266 0)"/>
      <use xlink:href="#DejaVuSans-69" transform="translate(148.726562 0)"/>
      <use xlink:href="#DejaVuSans-6e" transform="translate(176.509766 0)"/>
      <use xlink:href="#DejaVuSans-20" transform="translate(239.888672 0)"/>
      <use xlink:href="#DejaVuSans-4c" transform="translate(271.675781 0)"/>
      <use xlink:href="#DejaVuSans-6f" transform="translate(325.638672 0)"/>
      <use xlink:href="#DejaVuSans-73" transform="translate(386.820312 0)"/>
      <use xlink:href="#DejaVuSans-73" transform="translate(438.919922 0)"/>
     </g>
    </g>
   </g>
   <g id="line2d_14">
    <path d="M 73.848523 44.954921 
L 79.922719 88.358496 
L 85.996916 102.038992 
L 92.071112 91.895284 
L 98.145309 90.283457 
L 104.219505 104.506598 
L 110.293702 112.77083 
L 116.367898 126.032514 
L 122.442095 132.856304 
L 128.516291 149.288116 
L 134.590488 186.42896 
L 140.664684 205.372086 
L 146.738881 192.215282 
L 152.813077 224.794238 
L 158.887274 200.583534 
L 164.96147 217.785613 
L 171.035667 256.803304 
L 177.109863 257.271883 
L 183.18406 270.761746 
L 189.258256 284.017799 
L 195.332453 275.933875 
L 201.406649 238.016352 
L 207.480846 268.396664 
L 213.555042 284.883825 
L 219.629239 291.339305 
L 225.703435 293.79969 
L 231.777632 303.176376 
L 237.851829 275.644211 
L 243.926025 295.698921 
L 250.000222 299.110875 
L 256.074418 313.042569 
L 262.148615 308.215953 
L 268.222811 300.479157 
L 274.297008 311.876823 
L 280.371204 312.635011 
L 286.445401 308.114907 
L 292.519597 323.395138 
L 298.593794 308.924441 
L 304.66799 300.563619 
L 310.742187 288.52105 
L 316.816383 305.401089 
L 322.89058 314.072653 
L 328.964776 281.496874 
L 335.038973 299.838583 
L 341.113169 306.497507 
L 347.187366 307.026305 
L 353.261562 315.3803 
L 359.335759 324.62545 
L 365.409955 335.782865 
L 371.484152 336.120142 
L 377.558348 322.021459 
L 383.632545 329.322057 
L 389.706741 332.969854 
L 395.780938 341.218544 
L 401.855134 324.105611 
L 407.929331 286.293847 
L 414.003527 304.363853 
L 420.077724 292.568269 
L 426.15192 283.452941 
L 432.226117 261.935612 
L 438.300313 298.5601 
L 444.37451 312.404249 
L 450.448706 320.740857 
L 456.522903 301.418162 
L 462.597099 314.219318 
L 468.671296 323.700515 
L 474.745492 313.17201 
L 480.819689 325.133692 
L 486.893885 340.244277 
L 492.968082 333.471726 
L 499.042278 334.118459 
L 505.116475 339.112334 
L 511.190671 348.478795 
L 517.264868 347.784885 
L 523.339065 347.189209 
L 529.413261 347.186316 
L 535.487458 338.298687 
L 541.561654 340.960516 
L 547.635851 342.003295 
L 553.710047 343.939755 
L 559.784244 344.65199 
L 565.85844 353.058271 
L 571.932637 362.954117 
L 578.006833 332.576007 
L 584.08103 272.465815 
L 590.155226 275.871076 
L 596.229423 313.217242 
L 602.303619 299.920105 
L 608.377816 315.270418 
L 614.452012 328.479588 
L 620.526209 331.0595 
L 626.600405 314.8366 
L 632.674602 313.642209 
L 638.748798 334.577114 
L 644.822995 320.588401 
L 650.897191 336.941941 
L 656.971388 329.025036 
L 663.045584 336.489038 
L 669.119781 331.493405 
L 675.193977 333.573057 
" clip-path="url(#p664b115d99)" style="fill: none; stroke: #1f77b4; stroke-width: 1.5; stroke-linecap: square"/>
   </g>
   <g id="line2d_15">
    <path d="M 73.848523 50.421695 
L 79.922719 81.76927 
L 85.996916 51.284353 
L 92.071112 96.567721 
L 98.145309 128.744465 
L 104.219505 152.966929 
L 110.293702 170.796461 
L 116.367898 170.337968 
L 122.442095 147.283253 
L 128.516291 148.219439 
L 134.590488 178.312867 
L 140.664684 129.021758 
L 146.738881 155.892144 
L 152.813077 188.618655 
L 158.887274 171.376904 
L 164.96147 191.398507 
L 171.035667 198.733157 
L 177.109863 194.227335 
L 183.18406 222.571168 
L 189.258256 243.843334 
L 195.332453 255.336283 
L 201.406649 173.349436 
L 207.480846 241.584364 
L 213.555042 244.760406 
L 219.629239 208.85629 
L 225.703435 242.673727 
L 231.777632 255.90607 
L 237.851829 243.696116 
L 243.926025 262.465516 
L 250.000222 262.386604 
L 256.074418 258.05728 
L 262.148615 260.428699 
L 268.222811 260.529174 
L 274.297008 261.436603 
L 280.371204 267.678016 
L 286.445401 271.174382 
L 292.519597 264.73388 
L 298.593794 281.095837 
L 304.66799 287.242442 
L 310.742187 275.4487 
L 316.816383 295.434066 
L 322.89058 294.872246 
L 328.964776 290.796654 
L 335.038973 307.170273 
L 341.113169 305.081111 
L 347.187366 290.061069 
L 353.261562 307.929669 
L 359.335759 302.213375 
L 365.409955 309.37476 
L 371.484152 313.769783 
L 377.558348 320.24286 
L 383.632545 309.666509 
L 389.706741 329.77374 
L 395.780938 318.902475 
L 401.855134 303.61284 
L 407.929331 311.99921 
L 414.003527 318.333482 
L 420.077724 335.171604 
L 426.15192 320.505171 
L 432.226117 322.31777 
L 438.300313 331.266789 
L 444.37451 330.43039 
L 450.448706 322.192005 
L 456.522903 336.448103 
L 462.597099 335.337158 
L 468.671296 334.891777 
L 474.745492 318.7356 
L 480.819689 322.737899 
L 486.893885 347.236134 
L 492.968082 340.56802 
L 499.042278 339.647345 
L 505.116475 340.985146 
L 511.190671 321.626676 
L 517.264868 325.506644 
L 523.339065 346.896478 
L 529.413261 346.826173 
L 535.487458 345.020853 
L 541.561654 360.977209 
L 547.635851 348.596045 
L 553.710047 339.357354 
L 559.784244 345.114726 
L 565.85844 342.39005 
L 571.932637 349.834296 
L 578.006833 355.26943 
L 584.08103 305.846339 
L 590.155226 315.244808 
L 596.229423 311.542506 
L 602.303619 283.971199 
L 608.377816 326.028256 
L 614.452012 332.900741 
L 620.526209 325.624511 
L 626.600405 324.900268 
L 632.674602 311.146847 
L 638.748798 327.349457 
L 644.822995 337.354688 
L 650.897191 337.348269 
L 656.971388 338.94217 
L 663.045584 346.885369 
L 669.119781 342.663505 
L 675.193977 344.206036 
" clip-path="url(#p664b115d99)" style="fill: none; stroke: #ff7f0e; stroke-width: 1.5; stroke-linecap: square"/>
   </g>
   <g id="line2d_16">
    <path d="M 73.848523 38.825398 
L 79.922719 76.849407 
L 85.996916 114.103883 
L 92.071112 125.284524 
L 98.145309 148.737696 
L 104.219505 153.856251 
L 110.293702 157.998281 
L 116.367898 159.874121 
L 122.442095 104.483002 
L 128.516291 114.580774 
L 134.590488 151.77618 
L 140.664684 167.929811 
L 146.738881 178.74905 
L 152.813077 194.201455 
L 158.887274 196.082174 
L 164.96147 184.203834 
L 171.035667 199.152957 
L 177.109863 195.321491 
L 183.18406 183.248795 
L 189.258256 208.355082 
L 195.332453 237.415738 
L 201.406649 230.055264 
L 207.480846 233.091402 
L 213.555042 197.690351 
L 219.629239 238.700593 
L 225.703435 253.278384 
L 231.777632 267.221703 
L 237.851829 261.405165 
L 243.926025 271.130102 
L 250.000222 270.293918 
L 256.074418 274.686297 
L 262.148615 270.045349 
L 268.222811 288.694389 
L 274.297008 287.71794 
L 280.371204 287.859033 
L 286.445401 286.773057 
L 292.519597 300.627632 
L 298.593794 277.515143 
L 304.66799 283.312971 
L 310.742187 293.710989 
L 316.816383 301.949155 
L 322.89058 298.688387 
L 328.964776 294.207136 
L 335.038973 301.143419 
L 341.113169 292.844492 
L 347.187366 247.4447 
L 353.261562 255.979696 
L 359.335759 271.112432 
L 365.409955 290.489685 
L 371.484152 301.743351 
L 377.558348 298.761566 
L 383.632545 271.0898 
L 389.706741 286.192073 
L 395.780938 285.55122 
L 401.855134 299.089826 
L 407.929331 295.717942 
L 414.003527 297.560545 
L 420.077724 310.990123 
L 426.15192 299.558076 
L 432.226117 254.037876 
L 438.300313 251.132449 
L 444.37451 278.086628 
L 450.448706 295.83649 
L 456.522903 304.900816 
L 462.597099 293.186266 
L 468.671296 272.52699 
L 474.745492 299.205614 
L 480.819689 276.606908 
L 486.893885 292.020045 
L 492.968082 295.144803 
L 499.042278 292.800748 
L 505.116475 293.391348 
L 511.190671 294.613436 
L 517.264868 301.528792 
L 523.339065 262.927513 
L 529.413261 269.510741 
L 535.487458 249.746091 
L 541.561654 271.577752 
L 547.635851 272.684212 
L 553.710047 289.029139 
L 559.784244 293.877985 
L 565.85844 293.194849 
L 571.932637 296.469024 
L 578.006833 280.104152 
L 584.08103 281.894084 
L 590.155226 262.615075 
L 596.229423 273.416483 
L 602.303619 263.34748 
L 608.377816 248.18046 
L 614.452012 243.29727 
L 620.526209 257.429962 
L 626.600405 263.319603 
L 632.674602 266.377041 
L 638.748798 259.778582 
L 644.822995 285.50475 
L 650.897191 282.271587 
L 656.971388 290.430614 
L 663.045584 289.433319 
L 669.119781 277.633622 
L 675.193977 300.897085 
" clip-path="url(#p664b115d99)" style="fill: none; stroke: #2ca02c; stroke-width: 1.5; stroke-linecap: square"/>
   </g>
   <g id="line2d_17">
    <path d="M 73.848523 47.887552 
L 79.922719 58.236715 
L 85.996916 66.129547 
L 92.071112 98.139362 
L 98.145309 97.57181 
L 104.219505 96.223386 
L 110.293702 97.653227 
L 116.367898 125.930755 
L 122.442095 131.853381 
L 128.516291 128.211085 
L 134.590488 119.383804 
L 140.664684 124.125001 
L 146.738881 153.041527 
L 152.813077 163.364836 
L 158.887274 181.447026 
L 164.96147 196.604348 
L 171.035667 217.909446 
L 177.109863 108.215705 
L 183.18406 125.961505 
L 189.258256 133.207183 
L 195.332453 178.754821 
L 201.406649 198.869782 
L 207.480846 204.629235 
L 213.555042 192.470649 
L 219.629239 185.106967 
L 225.703435 227.616803 
L 231.777632 237.245668 
L 237.851829 236.449746 
L 243.926025 246.576777 
L 250.000222 255.708607 
L 256.074418 261.932708 
L 262.148615 263.495237 
L 268.222811 265.824173 
L 274.297008 258.195747 
L 280.371204 257.111658 
L 286.445401 271.345536 
L 292.519597 258.539713 
L 298.593794 275.868862 
L 304.66799 284.369114 
L 310.742187 290.187741 
L 316.816383 295.915574 
L 322.89058 293.587437 
L 328.964776 302.043537 
L 335.038973 312.207101 
L 341.113169 304.446595 
L 347.187366 307.961891 
L 353.261562 288.830399 
L 359.335759 305.789892 
L 365.409955 307.059028 
L 371.484152 304.829026 
L 377.558348 275.05389 
L 383.632545 292.785538 
L 389.706741 306.56332 
L 395.780938 317.834968 
L 401.855134 302.213299 
L 407.929331 313.310359 
L 414.003527 312.714967 
L 420.077724 295.61534 
L 426.15192 304.103422 
L 432.226117 307.584157 
L 438.300313 315.935974 
L 444.37451 324.998836 
L 450.448706 318.261874 
L 456.522903 328.301699 
L 462.597099 333.055999 
L 468.671296 307.309026 
L 474.745492 329.164753 
L 480.819689 306.405916 
L 486.893885 327.663018 
L 492.968082 299.69513 
L 499.042278 318.50712 
L 505.116475 326.316664 
L 511.190671 309.106295 
L 517.264868 327.715469 
L 523.339065 339.03345 
L 529.413261 337.722487 
L 535.487458 339.358102 
L 541.561654 333.634704 
L 547.635851 345.850095 
L 553.710047 351.691212 
L 559.784244 313.804015 
L 565.85844 332.708775 
L 571.932637 342.194747 
L 578.006833 347.446203 
L 584.08103 346.857551 
L 590.155226 334.331965 
L 596.229423 309.961728 
L 602.303619 333.722406 
L 608.377816 318.27347 
L 614.452012 326.660222 
L 620.526209 337.583771 
L 626.600405 340.14794 
L 632.674602 307.83364 
L 638.748798 299.516707 
L 644.822995 331.465394 
L 650.897191 336.637433 
L 656.971388 330.107514 
L 663.045584 340.657804 
L 669.119781 343.208603 
L 675.193977 343.378272 
" clip-path="url(#p664b115d99)" style="fill: none; stroke: #d62728; stroke-width: 1.5; stroke-linecap: square"/>
   </g>
   <g id="line2d_18">
    <path d="M 73.848523 39.761498 
L 79.922719 76.287087 
L 85.996916 46.290438 
L 92.071112 133.358459 
L 98.145309 124.387575 
L 104.219505 113.350877 
L 110.293702 146.686455 
L 116.367898 140.645992 
L 122.442095 168.857946 
L 128.516291 187.556082 
L 134.590488 184.28473 
L 140.664684 200.032089 
L 146.738881 211.430579 
L 152.813077 159.55852 
L 158.887274 199.134991 
L 164.96147 229.195103 
L 171.035667 220.206776 
L 177.109863 254.301033 
L 183.18406 246.899984 
L 189.258256 207.587746 
L 195.332453 202.684875 
L 201.406649 242.525067 
L 207.480846 264.635677 
L 213.555042 281.415111 
L 219.629239 265.080307 
L 225.703435 276.70274 
L 231.777632 262.306382 
L 237.851829 239.377803 
L 243.926025 261.861045 
L 250.000222 277.117009 
L 256.074418 281.963196 
L 262.148615 272.647948 
L 268.222811 298.43603 
L 274.297008 310.419473 
L 280.371204 310.275131 
L 286.445401 309.857062 
L 292.519597 252.09994 
L 298.593794 264.403885 
L 304.66799 270.955911 
L 310.742187 277.263059 
L 316.816383 299.747398 
L 322.89058 315.358808 
L 328.964776 320.591248 
L 335.038973 312.935063 
L 341.113169 318.641424 
L 347.187366 317.329394 
L 353.261562 321.513182 
L 359.335759 338.842507 
L 365.409955 335.010664 
L 371.484152 351.487697 
L 377.558348 340.660885 
L 383.632545 319.371322 
L 389.706741 345.445375 
L 395.780938 347.975611 
L 401.855134 348.776574 
L 407.929331 334.103317 
L 414.003527 313.609125 
L 420.077724 322.773309 
L 426.15192 331.264311 
L 432.226117 332.440153 
L 438.300313 347.696165 
L 444.37451 348.024837 
L 450.448706 350.232863 
L 456.522903 327.730818 
L 462.597099 341.03702 
L 468.671296 348.784037 
L 474.745492 350.501383 
L 480.819689 346.472315 
L 486.893885 347.510188 
L 492.968082 353.859856 
L 499.042278 357.090025 
L 505.116475 332.232818 
L 511.190671 317.56539 
L 517.264868 338.977689 
L 523.339065 353.475128 
L 529.413261 365.904758 
L 535.487458 356.874921 
L 541.561654 351.889129 
L 547.635851 360.385057 
L 553.710047 327.235782 
L 559.784244 308.529625 
L 565.85844 315.882295 
L 571.932637 344.451027 
L 578.006833 351.362307 
L 584.08103 358.770035 
L 590.155226 330.881658 
L 596.229423 333.097774 
L 602.303619 344.526755 
L 608.377816 340.333549 
L 614.452012 342.278594 
L 620.526209 347.260567 
L 626.600405 360.939665 
L 632.674602 354.325901 
L 638.748798 356.885552 
L 644.822995 368.970852 
L 650.897191 353.546329 
L 656.971388 363.542032 
L 663.045584 330.98255 
L 669.119781 332.062878 
L 675.193977 282.998536 
" clip-path="url(#p664b115d99)" style="fill: none; stroke: #9467bd; stroke-width: 1.5; stroke-linecap: square"/>
   </g>
   <g id="patch_3">
    <path d="M 43.78125 385.478125 
L 43.78125 22.318125 
" style="fill: none; stroke: #000000; stroke-width: 0.8; stroke-linejoin: miter; stroke-linecap: square"/>
   </g>
   <g id="patch_4">
    <path d="M 705.26125 385.478125 
L 705.26125 22.318125 
" style="fill: none; stroke: #000000; stroke-width: 0.8; stroke-linejoin: miter; stroke-linecap: square"/>
   </g>
   <g id="patch_5">
    <path d="M 43.78125 385.478125 
L 705.26125 385.478125 
" style="fill: none; stroke: #000000; stroke-width: 0.8; stroke-linejoin: miter; stroke-linecap: square"/>
   </g>
   <g id="patch_6">
    <path d="M 43.78125 22.318125 
L 705.26125 22.318125 
" style="fill: none; stroke: #000000; stroke-width: 0.8; stroke-linejoin: miter; stroke-linecap: square"/>
   </g>
   <g id="text_16">
    <!-- Combined Train Loss -->
    <g transform="translate(312.669688 16.318125) scale(0.12 -0.12)">
     <defs>
      <path id="DejaVuSans-43" d="M 4122 4306 
L 4122 3641 
Q 3803 3938 3442 4084 
Q 3081 4231 2675 4231 
Q 1875 4231 1450 3742 
Q 1025 3253 1025 2328 
Q 1025 1406 1450 917 
Q 1875 428 2675 428 
Q 3081 428 3442 575 
Q 3803 722 4122 1019 
L 4122 359 
Q 3791 134 3420 21 
Q 3050 -91 2638 -91 
Q 1578 -91 968 557 
Q 359 1206 359 2328 
Q 359 3453 968 4101 
Q 1578 4750 2638 4750 
Q 3056 4750 3426 4639 
Q 3797 4528 4122 4306 
z
" transform="scale(0.015625)"/>
      <path id="DejaVuSans-6d" d="M 3328 2828 
Q 3544 3216 3844 3400 
Q 4144 3584 4550 3584 
Q 5097 3584 5394 3201 
Q 5691 2819 5691 2113 
L 5691 0 
L 5113 0 
L 5113 2094 
Q 5113 2597 4934 2840 
Q 4756 3084 4391 3084 
Q 3944 3084 3684 2787 
Q 3425 2491 3425 1978 
L 3425 0 
L 2847 0 
L 2847 2094 
Q 2847 2600 2669 2842 
Q 2491 3084 2119 3084 
Q 1678 3084 1418 2786 
Q 1159 2488 1159 1978 
L 1159 0 
L 581 0 
L 581 3500 
L 1159 3500 
L 1159 2956 
Q 1356 3278 1631 3431 
Q 1906 3584 2284 3584 
Q 2666 3584 2933 3390 
Q 3200 3197 3328 2828 
z
" transform="scale(0.015625)"/>
      <path id="DejaVuSans-62" d="M 3116 1747 
Q 3116 2381 2855 2742 
Q 2594 3103 2138 3103 
Q 1681 3103 1420 2742 
Q 1159 2381 1159 1747 
Q 1159 1113 1420 752 
Q 1681 391 2138 391 
Q 2594 391 2855 752 
Q 3116 1113 3116 1747 
z
M 1159 2969 
Q 1341 3281 1617 3432 
Q 1894 3584 2278 3584 
Q 2916 3584 3314 3078 
Q 3713 2572 3713 1747 
Q 3713 922 3314 415 
Q 2916 -91 2278 -91 
Q 1894 -91 1617 61 
Q 1341 213 1159 525 
L 1159 0 
L 581 0 
L 581 4863 
L 1159 4863 
L 1159 2969 
z
" transform="scale(0.015625)"/>
      <path id="DejaVuSans-65" d="M 3597 1894 
L 3597 1613 
L 953 1613 
Q 991 1019 1311 708 
Q 1631 397 2203 397 
Q 2534 397 2845 478 
Q 3156 559 3463 722 
L 3463 178 
Q 3153 47 2828 -22 
Q 2503 -91 2169 -91 
Q 1331 -91 842 396 
Q 353 884 353 1716 
Q 353 2575 817 3079 
Q 1281 3584 2069 3584 
Q 2775 3584 3186 3129 
Q 3597 2675 3597 1894 
z
M 3022 2063 
Q 3016 2534 2758 2815 
Q 2500 3097 2075 3097 
Q 1594 3097 1305 2825 
Q 1016 2553 972 2059 
L 3022 2063 
z
" transform="scale(0.015625)"/>
      <path id="DejaVuSans-64" d="M 2906 2969 
L 2906 4863 
L 3481 4863 
L 3481 0 
L 2906 0 
L 2906 525 
Q 2725 213 2448 61 
Q 2172 -91 1784 -91 
Q 1150 -91 751 415 
Q 353 922 353 1747 
Q 353 2572 751 3078 
Q 1150 3584 1784 3584 
Q 2172 3584 2448 3432 
Q 2725 3281 2906 2969 
z
M 947 1747 
Q 947 1113 1208 752 
Q 1469 391 1925 391 
Q 2381 391 2643 752 
Q 2906 1113 2906 1747 
Q 2906 2381 2643 2742 
Q 2381 3103 1925 3103 
Q 1469 3103 1208 2742 
Q 947 2381 947 1747 
z
" transform="scale(0.015625)"/>
     </defs>
     <use xlink:href="#DejaVuSans-43"/>
     <use xlink:href="#DejaVuSans-6f" transform="translate(69.824219 0)"/>
     <use xlink:href="#DejaVuSans-6d" transform="translate(131.005859 0)"/>
     <use xlink:href="#DejaVuSans-62" transform="translate(228.417969 0)"/>
     <use xlink:href="#DejaVuSans-69" transform="translate(291.894531 0)"/>
     <use xlink:href="#DejaVuSans-6e" transform="translate(319.677734 0)"/>
     <use xlink:href="#DejaVuSans-65" transform="translate(383.056641 0)"/>
     <use xlink:href="#DejaVuSans-64" transform="translate(444.580078 0)"/>
     <use xlink:href="#DejaVuSans-20" transform="translate(508.056641 0)"/>
     <use xlink:href="#DejaVuSans-54" transform="translate(539.84375 0)"/>
     <use xlink:href="#DejaVuSans-72" transform="translate(586.177734 0)"/>
     <use xlink:href="#DejaVuSans-61" transform="translate(627.291016 0)"/>
     <use xlink:href="#DejaVuSans-69" transform="translate(688.570312 0)"/>
     <use xlink:href="#DejaVuSans-6e" transform="translate(716.353516 0)"/>
     <use xlink:href="#DejaVuSans-20" transform="translate(779.732422 0)"/>
     <use xlink:href="#DejaVuSans-4c" transform="translate(811.519531 0)"/>
     <use xlink:href="#DejaVuSans-6f" transform="translate(865.482422 0)"/>
     <use xlink:href="#DejaVuSans-73" transform="translate(926.664062 0)"/>
     <use xlink:href="#DejaVuSans-73" transform="translate(978.763672 0)"/>
    </g>
   </g>
   <g id="legend_1">
    <g id="patch_7">
     <path d="M 636.08625 103.70875 
L 698.26125 103.70875 
Q 700.26125 103.70875 700.26125 101.70875 
L 700.26125 29.318125 
Q 700.26125 27.318125 698.26125 27.318125 
L 636.08625 27.318125 
Q 634.08625 27.318125 634.08625 29.318125 
L 634.08625 101.70875 
Q 634.08625 103.70875 636.08625 103.70875 
z
" style="fill: #ffffff; opacity: 0.8; stroke: #cccccc; stroke-linejoin: miter"/>
    </g>
    <g id="line2d_19">
     <path d="M 638.08625 35.416562 
L 648.08625 35.416562 
L 658.08625 35.416562 
" style="fill: none; stroke: #1f77b4; stroke-width: 1.5; stroke-linecap: square"/>
    </g>
    <g id="text_17">
     <!-- Fold 1 -->
     <g transform="translate(666.08625 38.916562) scale(0.1 -0.1)">
      <defs>
       <path id="DejaVuSans-46" d="M 628 4666 
L 3309 4666 
L 3309 4134 
L 1259 4134 
L 1259 2759 
L 3109 2759 
L 3109 2228 
L 1259 2228 
L 1259 0 
L 628 0 
L 628 4666 
z
" transform="scale(0.015625)"/>
       <path id="DejaVuSans-6c" d="M 603 4863 
L 1178 4863 
L 1178 0 
L 603 0 
L 603 4863 
z
" transform="scale(0.015625)"/>
      </defs>
      <use xlink:href="#DejaVuSans-46"/>
      <use xlink:href="#DejaVuSans-6f" transform="translate(53.894531 0)"/>
      <use xlink:href="#DejaVuSans-6c" transform="translate(115.076172 0)"/>
      <use xlink:href="#DejaVuSans-64" transform="translate(142.859375 0)"/>
      <use xlink:href="#DejaVuSans-20" transform="translate(206.335938 0)"/>
      <use xlink:href="#DejaVuSans-31" transform="translate(238.123047 0)"/>
     </g>
    </g>
    <g id="line2d_20">
     <path d="M 638.08625 50.094688 
L 648.08625 50.094688 
L 658.08625 50.094688 
" style="fill: none; stroke: #ff7f0e; stroke-width: 1.5; stroke-linecap: square"/>
    </g>
    <g id="text_18">
     <!-- Fold 2 -->
     <g transform="translate(666.08625 53.594688) scale(0.1 -0.1)">
      <use xlink:href="#DejaVuSans-46"/>
      <use xlink:href="#DejaVuSans-6f" transform="translate(53.894531 0)"/>
      <use xlink:href="#DejaVuSans-6c" transform="translate(115.076172 0)"/>
      <use xlink:href="#DejaVuSans-64" transform="translate(142.859375 0)"/>
      <use xlink:href="#DejaVuSans-20" transform="translate(206.335938 0)"/>
      <use xlink:href="#DejaVuSans-32" transform="translate(238.123047 0)"/>
     </g>
    </g>
    <g id="line2d_21">
     <path d="M 638.08625 64.772812 
L 648.08625 64.772812 
L 658.08625 64.772812 
" style="fill: none; stroke: #2ca02c; stroke-width: 1.5; stroke-linecap: square"/>
    </g>
    <g id="text_19">
     <!-- Fold 3 -->
     <g transform="translate(666.08625 68.272812) scale(0.1 -0.1)">
      <defs>
       <path id="DejaVuSans-33" d="M 2597 2516 
Q 3050 2419 3304 2112 
Q 3559 1806 3559 1356 
Q 3559 666 3084 287 
Q 2609 -91 1734 -91 
Q 1441 -91 1130 -33 
Q 819 25 488 141 
L 488 750 
Q 750 597 1062 519 
Q 1375 441 1716 441 
Q 2309 441 2620 675 
Q 2931 909 2931 1356 
Q 2931 1769 2642 2001 
Q 2353 2234 1838 2234 
L 1294 2234 
L 1294 2753 
L 1863 2753 
Q 2328 2753 2575 2939 
Q 2822 3125 2822 3475 
Q 2822 3834 2567 4026 
Q 2313 4219 1838 4219 
Q 1578 4219 1281 4162 
Q 984 4106 628 3988 
L 628 4550 
Q 988 4650 1302 4700 
Q 1616 4750 1894 4750 
Q 2613 4750 3031 4423 
Q 3450 4097 3450 3541 
Q 3450 3153 3228 2886 
Q 3006 2619 2597 2516 
z
" transform="scale(0.015625)"/>
      </defs>
      <use xlink:href="#DejaVuSans-46"/>
      <use xlink:href="#DejaVuSans-6f" transform="translate(53.894531 0)"/>
      <use xlink:href="#DejaVuSans-6c" transform="translate(115.076172 0)"/>
      <use xlink:href="#DejaVuSans-64" transform="translate(142.859375 0)"/>
      <use xlink:href="#DejaVuSans-20" transform="translate(206.335938 0)"/>
      <use xlink:href="#DejaVuSans-33" transform="translate(238.123047 0)"/>
     </g>
    </g>
    <g id="line2d_22">
     <path d="M 638.08625 79.450938 
L 648.08625 79.450938 
L 658.08625 79.450938 
" style="fill: none; stroke: #d62728; stroke-width: 1.5; stroke-linecap: square"/>
    </g>
    <g id="text_20">
     <!-- Fold 4 -->
     <g transform="translate(666.08625 82.950938) scale(0.1 -0.1)">
      <use xlink:href="#DejaVuSans-46"/>
      <use xlink:href="#DejaVuSans-6f" transform="translate(53.894531 0)"/>
      <use xlink:href="#DejaVuSans-6c" transform="translate(115.076172 0)"/>
      <use xlink:href="#DejaVuSans-64" transform="translate(142.859375 0)"/>
      <use xlink:href="#DejaVuSans-20" transform="translate(206.335938 0)"/>
      <use xlink:href="#DejaVuSans-34" transform="translate(238.123047 0)"/>
     </g>
    </g>
    <g id="line2d_23">
     <path d="M 638.08625 94.129063 
L 648.08625 94.129063 
L 658.08625 94.129063 
" style="fill: none; stroke: #9467bd; stroke-width: 1.5; stroke-linecap: square"/>
    </g>
    <g id="text_21">
     <!-- Fold 5 -->
     <g transform="translate(666.08625 97.629063) scale(0.1 -0.1)">
      <defs>
       <path id="DejaVuSans-35" d="M 691 4666 
L 3169 4666 
L 3169 4134 
L 1269 4134 
L 1269 2991 
Q 1406 3038 1543 3061 
Q 1681 3084 1819 3084 
Q 2600 3084 3056 2656 
Q 3513 2228 3513 1497 
Q 3513 744 3044 326 
Q 2575 -91 1722 -91 
Q 1428 -91 1123 -41 
Q 819 9 494 109 
L 494 744 
Q 775 591 1075 516 
Q 1375 441 1709 441 
Q 2250 441 2565 725 
Q 2881 1009 2881 1497 
Q 2881 1984 2565 2268 
Q 2250 2553 1709 2553 
Q 1456 2553 1204 2497 
Q 953 2441 691 2322 
L 691 4666 
z
" transform="scale(0.015625)"/>
      </defs>
      <use xlink:href="#DejaVuSans-46"/>
      <use xlink:href="#DejaVuSans-6f" transform="translate(53.894531 0)"/>
      <use xlink:href="#DejaVuSans-6c" transform="translate(115.076172 0)"/>
      <use xlink:href="#DejaVuSans-64" transform="translate(142.859375 0)"/>
      <use xlink:href="#DejaVuSans-20" transform="translate(206.335938 0)"/>
      <use xlink:href="#DejaVuSans-35" transform="translate(238.123047 0)"/>
     </g>
    </g>
   </g>
  </g>
 </g>
 <defs>
  <clipPath id="p664b115d99">
   <rect x="43.78125" y="22.318125" width="661.48" height="363.16"/>
  </clipPath>
 </defs>
</svg>
