<?xml version="1.0" encoding="utf-8" standalone="no"?>
<!DOCTYPE svg PUBLIC "-//W3C//DTD SVG 1.1//EN"
  "http://www.w3.org/Graphics/SVG/1.1/DTD/svg11.dtd">
<svg xmlns:xlink="http://www.w3.org/1999/xlink" width="712.61375pt" height="423.034375pt" viewBox="0 0 712.61375 423.034375" xmlns="http://www.w3.org/2000/svg" version="1.1">
 <metadata>
  <rdf:RDF xmlns:dc="http://purl.org/dc/elements/1.1/" xmlns:cc="http://creativecommons.org/ns#" xmlns:rdf="http://www.w3.org/1999/02/22-rdf-syntax-ns#">
   <cc:Work>
    <dc:type rdf:resource="http://purl.org/dc/dcmitype/StillImage"/>
    <dc:date>2025-06-26T09:02:30.359346</dc:date>
    <dc:format>image/svg+xml</dc:format>
    <dc:creator>
     <cc:Agent>
      <dc:title>Matplotlib v3.10.0, https://matplotlib.org/</dc:title>
     </cc:Agent>
    </dc:creator>
   </cc:Work>
  </rdf:RDF>
 </metadata>
 <defs>
  <style type="text/css">*{stroke-linejoin: round; stroke-linecap: butt}</style>
 </defs>
 <g id="figure_1">
  <g id="patch_1">
   <path d="M 0 423.034375 
L 712.61375 423.034375 
L 712.61375 0 
L 0 0 
z
" style="fill: #ffffff"/>
  </g>
  <g id="axes_1">
   <g id="patch_2">
    <path d="M 50.14375 385.478125 
L 705.41375 385.478125 
L 705.41375 22.318125 
L 50.14375 22.318125 
z
" style="fill: #ffffff"/>
   </g>
   <g id="matplotlib.axis_1">
    <g id="xtick_1">
     <g id="line2d_1">
      <defs>
       <path id="m723624276e" d="M 0 0 
L 0 3.5 
" style="stroke: #000000; stroke-width: 0.8"/>
      </defs>
      <g>
       <use xlink:href="#m723624276e" x="73.911578" y="385.478125" style="stroke: #000000; stroke-width: 0.8"/>
      </g>
     </g>
     <g id="text_1">
      <!-- 0 -->
      <g transform="translate(70.730328 400.076562) scale(0.1 -0.1)">
       <defs>
        <path id="DejaVuSans-30" d="M 2034 4250 
Q 1547 4250 1301 3770 
Q 1056 3291 1056 2328 
Q 1056 1369 1301 889 
Q 1547 409 2034 409 
Q 2525 409 2770 889 
Q 3016 1369 3016 2328 
Q 3016 3291 2770 3770 
Q 2525 4250 2034 4250 
z
M 2034 4750 
Q 2819 4750 3233 4129 
Q 3647 3509 3647 2328 
Q 3647 1150 3233 529 
Q 2819 -91 2034 -91 
Q 1250 -91 836 529 
Q 422 1150 422 2328 
Q 422 3509 836 4129 
Q 1250 4750 2034 4750 
z
" transform="scale(0.015625)"/>
       </defs>
       <use xlink:href="#DejaVuSans-30"/>
      </g>
     </g>
    </g>
    <g id="xtick_2">
     <g id="line2d_2">
      <g>
       <use xlink:href="#m723624276e" x="194.255013" y="385.478125" style="stroke: #000000; stroke-width: 0.8"/>
      </g>
     </g>
     <g id="text_2">
      <!-- 20 -->
      <g transform="translate(187.892513 400.076562) scale(0.1 -0.1)">
       <defs>
        <path id="DejaVuSans-32" d="M 1228 531 
L 3431 531 
L 3431 0 
L 469 0 
L 469 531 
Q 828 903 1448 1529 
Q 2069 2156 2228 2338 
Q 2531 2678 2651 2914 
Q 2772 3150 2772 3378 
Q 2772 3750 2511 3984 
Q 2250 4219 1831 4219 
Q 1534 4219 1204 4116 
Q 875 4013 500 3803 
L 500 4441 
Q 881 4594 1212 4672 
Q 1544 4750 1819 4750 
Q 2544 4750 2975 4387 
Q 3406 4025 3406 3419 
Q 3406 3131 3298 2873 
Q 3191 2616 2906 2266 
Q 2828 2175 2409 1742 
Q 1991 1309 1228 531 
z
" transform="scale(0.015625)"/>
       </defs>
       <use xlink:href="#DejaVuSans-32"/>
       <use xlink:href="#DejaVuSans-30" transform="translate(63.623047 0)"/>
      </g>
     </g>
    </g>
    <g id="xtick_3">
     <g id="line2d_3">
      <g>
       <use xlink:href="#m723624276e" x="314.598447" y="385.478125" style="stroke: #000000; stroke-width: 0.8"/>
      </g>
     </g>
     <g id="text_3">
      <!-- 40 -->
      <g transform="translate(308.235947 400.076562) scale(0.1 -0.1)">
       <defs>
        <path id="DejaVuSans-34" d="M 2419 4116 
L 825 1625 
L 2419 1625 
L 2419 4116 
z
M 2253 4666 
L 3047 4666 
L 3047 1625 
L 3713 1625 
L 3713 1100 
L 3047 1100 
L 3047 0 
L 2419 0 
L 2419 1100 
L 313 1100 
L 313 1709 
L 2253 4666 
z
" transform="scale(0.015625)"/>
       </defs>
       <use xlink:href="#DejaVuSans-34"/>
       <use xlink:href="#DejaVuSans-30" transform="translate(63.623047 0)"/>
      </g>
     </g>
    </g>
    <g id="xtick_4">
     <g id="line2d_4">
      <g>
       <use xlink:href="#m723624276e" x="434.941881" y="385.478125" style="stroke: #000000; stroke-width: 0.8"/>
      </g>
     </g>
     <g id="text_4">
      <!-- 60 -->
      <g transform="translate(428.579381 400.076562) scale(0.1 -0.1)">
       <defs>
        <path id="DejaVuSans-36" d="M 2113 2584 
Q 1688 2584 1439 2293 
Q 1191 2003 1191 1497 
Q 1191 994 1439 701 
Q 1688 409 2113 409 
Q 2538 409 2786 701 
Q 3034 994 3034 1497 
Q 3034 2003 2786 2293 
Q 2538 2584 2113 2584 
z
M 3366 4563 
L 3366 3988 
Q 3128 4100 2886 4159 
Q 2644 4219 2406 4219 
Q 1781 4219 1451 3797 
Q 1122 3375 1075 2522 
Q 1259 2794 1537 2939 
Q 1816 3084 2150 3084 
Q 2853 3084 3261 2657 
Q 3669 2231 3669 1497 
Q 3669 778 3244 343 
Q 2819 -91 2113 -91 
Q 1303 -91 875 529 
Q 447 1150 447 2328 
Q 447 3434 972 4092 
Q 1497 4750 2381 4750 
Q 2619 4750 2861 4703 
Q 3103 4656 3366 4563 
z
" transform="scale(0.015625)"/>
       </defs>
       <use xlink:href="#DejaVuSans-36"/>
       <use xlink:href="#DejaVuSans-30" transform="translate(63.623047 0)"/>
      </g>
     </g>
    </g>
    <g id="xtick_5">
     <g id="line2d_5">
      <g>
       <use xlink:href="#m723624276e" x="555.285316" y="385.478125" style="stroke: #000000; stroke-width: 0.8"/>
      </g>
     </g>
     <g id="text_5">
      <!-- 80 -->
      <g transform="translate(548.922816 400.076562) scale(0.1 -0.1)">
       <defs>
        <path id="DejaVuSans-38" d="M 2034 2216 
Q 1584 2216 1326 1975 
Q 1069 1734 1069 1313 
Q 1069 891 1326 650 
Q 1584 409 2034 409 
Q 2484 409 2743 651 
Q 3003 894 3003 1313 
Q 3003 1734 2745 1975 
Q 2488 2216 2034 2216 
z
M 1403 2484 
Q 997 2584 770 2862 
Q 544 3141 544 3541 
Q 544 4100 942 4425 
Q 1341 4750 2034 4750 
Q 2731 4750 3128 4425 
Q 3525 4100 3525 3541 
Q 3525 3141 3298 2862 
Q 3072 2584 2669 2484 
Q 3125 2378 3379 2068 
Q 3634 1759 3634 1313 
Q 3634 634 3220 271 
Q 2806 -91 2034 -91 
Q 1263 -91 848 271 
Q 434 634 434 1313 
Q 434 1759 690 2068 
Q 947 2378 1403 2484 
z
M 1172 3481 
Q 1172 3119 1398 2916 
Q 1625 2713 2034 2713 
Q 2441 2713 2670 2916 
Q 2900 3119 2900 3481 
Q 2900 3844 2670 4047 
Q 2441 4250 2034 4250 
Q 1625 4250 1398 4047 
Q 1172 3844 1172 3481 
z
" transform="scale(0.015625)"/>
       </defs>
       <use xlink:href="#DejaVuSans-38"/>
       <use xlink:href="#DejaVuSans-30" transform="translate(63.623047 0)"/>
      </g>
     </g>
    </g>
    <g id="xtick_6">
     <g id="line2d_6">
      <g>
       <use xlink:href="#m723624276e" x="675.62875" y="385.478125" style="stroke: #000000; stroke-width: 0.8"/>
      </g>
     </g>
     <g id="text_6">
      <!-- 100 -->
      <g transform="translate(666.085 400.076562) scale(0.1 -0.1)">
       <defs>
        <path id="DejaVuSans-31" d="M 794 531 
L 1825 531 
L 1825 4091 
L 703 3866 
L 703 4441 
L 1819 4666 
L 2450 4666 
L 2450 531 
L 3481 531 
L 3481 0 
L 794 0 
L 794 531 
z
" transform="scale(0.015625)"/>
       </defs>
       <use xlink:href="#DejaVuSans-31"/>
       <use xlink:href="#DejaVuSans-30" transform="translate(63.623047 0)"/>
       <use xlink:href="#DejaVuSans-30" transform="translate(127.246094 0)"/>
      </g>
     </g>
    </g>
    <g id="text_7">
     <!-- Epoch -->
     <g transform="translate(362.467813 413.754687) scale(0.1 -0.1)">
      <defs>
       <path id="DejaVuSans-45" d="M 628 4666 
L 3578 4666 
L 3578 4134 
L 1259 4134 
L 1259 2753 
L 3481 2753 
L 3481 2222 
L 1259 2222 
L 1259 531 
L 3634 531 
L 3634 0 
L 628 0 
L 628 4666 
z
" transform="scale(0.015625)"/>
       <path id="DejaVuSans-70" d="M 1159 525 
L 1159 -1331 
L 581 -1331 
L 581 3500 
L 1159 3500 
L 1159 2969 
Q 1341 3281 1617 3432 
Q 1894 3584 2278 3584 
Q 2916 3584 3314 3078 
Q 3713 2572 3713 1747 
Q 3713 922 3314 415 
Q 2916 -91 2278 -91 
Q 1894 -91 1617 61 
Q 1341 213 1159 525 
z
M 3116 1747 
Q 3116 2381 2855 2742 
Q 2594 3103 2138 3103 
Q 1681 3103 1420 2742 
Q 1159 2381 1159 1747 
Q 1159 1113 1420 752 
Q 1681 391 2138 391 
Q 2594 391 2855 752 
Q 3116 1113 3116 1747 
z
" transform="scale(0.015625)"/>
       <path id="DejaVuSans-6f" d="M 1959 3097 
Q 1497 3097 1228 2736 
Q 959 2375 959 1747 
Q 959 1119 1226 758 
Q 1494 397 1959 397 
Q 2419 397 2687 759 
Q 2956 1122 2956 1747 
Q 2956 2369 2687 2733 
Q 2419 3097 1959 3097 
z
M 1959 3584 
Q 2709 3584 3137 3096 
Q 3566 2609 3566 1747 
Q 3566 888 3137 398 
Q 2709 -91 1959 -91 
Q 1206 -91 779 398 
Q 353 888 353 1747 
Q 353 2609 779 3096 
Q 1206 3584 1959 3584 
z
" transform="scale(0.015625)"/>
       <path id="DejaVuSans-63" d="M 3122 3366 
L 3122 2828 
Q 2878 2963 2633 3030 
Q 2388 3097 2138 3097 
Q 1578 3097 1268 2742 
Q 959 2388 959 1747 
Q 959 1106 1268 751 
Q 1578 397 2138 397 
Q 2388 397 2633 464 
Q 2878 531 3122 666 
L 3122 134 
Q 2881 22 2623 -34 
Q 2366 -91 2075 -91 
Q 1284 -91 818 406 
Q 353 903 353 1747 
Q 353 2603 823 3093 
Q 1294 3584 2113 3584 
Q 2378 3584 2631 3529 
Q 2884 3475 3122 3366 
z
" transform="scale(0.015625)"/>
       <path id="DejaVuSans-68" d="M 3513 2113 
L 3513 0 
L 2938 0 
L 2938 2094 
Q 2938 2591 2744 2837 
Q 2550 3084 2163 3084 
Q 1697 3084 1428 2787 
Q 1159 2491 1159 1978 
L 1159 0 
L 581 0 
L 581 4863 
L 1159 4863 
L 1159 2956 
Q 1366 3272 1645 3428 
Q 1925 3584 2291 3584 
Q 2894 3584 3203 3211 
Q 3513 2838 3513 2113 
z
" transform="scale(0.015625)"/>
      </defs>
      <use xlink:href="#DejaVuSans-45"/>
      <use xlink:href="#DejaVuSans-70" transform="translate(63.183594 0)"/>
      <use xlink:href="#DejaVuSans-6f" transform="translate(126.660156 0)"/>
      <use xlink:href="#DejaVuSans-63" transform="translate(187.841797 0)"/>
      <use xlink:href="#DejaVuSans-68" transform="translate(242.822266 0)"/>
     </g>
    </g>
   </g>
   <g id="matplotlib.axis_2">
    <g id="ytick_1">
     <g id="line2d_7">
      <defs>
       <path id="mbbe51171cb" d="M 0 0 
L -3.5 0 
" style="stroke: #000000; stroke-width: 0.8"/>
      </defs>
      <g>
       <use xlink:href="#mbbe51171cb" x="50.14375" y="375.727298" style="stroke: #000000; stroke-width: 0.8"/>
      </g>
     </g>
     <g id="text_8">
      <!-- 0.20 -->
      <g transform="translate(20.878125 379.526517) scale(0.1 -0.1)">
       <defs>
        <path id="DejaVuSans-2e" d="M 684 794 
L 1344 794 
L 1344 0 
L 684 0 
L 684 794 
z
" transform="scale(0.015625)"/>
       </defs>
       <use xlink:href="#DejaVuSans-30"/>
       <use xlink:href="#DejaVuSans-2e" transform="translate(63.623047 0)"/>
       <use xlink:href="#DejaVuSans-32" transform="translate(95.410156 0)"/>
       <use xlink:href="#DejaVuSans-30" transform="translate(159.033203 0)"/>
      </g>
     </g>
    </g>
    <g id="ytick_2">
     <g id="line2d_8">
      <g>
       <use xlink:href="#mbbe51171cb" x="50.14375" y="309.85195" style="stroke: #000000; stroke-width: 0.8"/>
      </g>
     </g>
     <g id="text_9">
      <!-- 0.25 -->
      <g transform="translate(20.878125 313.651169) scale(0.1 -0.1)">
       <defs>
        <path id="DejaVuSans-35" d="M 691 4666 
L 3169 4666 
L 3169 4134 
L 1269 4134 
L 1269 2991 
Q 1406 3038 1543 3061 
Q 1681 3084 1819 3084 
Q 2600 3084 3056 2656 
Q 3513 2228 3513 1497 
Q 3513 744 3044 326 
Q 2575 -91 1722 -91 
Q 1428 -91 1123 -41 
Q 819 9 494 109 
L 494 744 
Q 775 591 1075 516 
Q 1375 441 1709 441 
Q 2250 441 2565 725 
Q 2881 1009 2881 1497 
Q 2881 1984 2565 2268 
Q 2250 2553 1709 2553 
Q 1456 2553 1204 2497 
Q 953 2441 691 2322 
L 691 4666 
z
" transform="scale(0.015625)"/>
       </defs>
       <use xlink:href="#DejaVuSans-30"/>
       <use xlink:href="#DejaVuSans-2e" transform="translate(63.623047 0)"/>
       <use xlink:href="#DejaVuSans-32" transform="translate(95.410156 0)"/>
       <use xlink:href="#DejaVuSans-35" transform="translate(159.033203 0)"/>
      </g>
     </g>
    </g>
    <g id="ytick_3">
     <g id="line2d_9">
      <g>
       <use xlink:href="#mbbe51171cb" x="50.14375" y="243.976603" style="stroke: #000000; stroke-width: 0.8"/>
      </g>
     </g>
     <g id="text_10">
      <!-- 0.30 -->
      <g transform="translate(20.878125 247.775822) scale(0.1 -0.1)">
       <defs>
        <path id="DejaVuSans-33" d="M 2597 2516 
Q 3050 2419 3304 2112 
Q 3559 1806 3559 1356 
Q 3559 666 3084 287 
Q 2609 -91 1734 -91 
Q 1441 -91 1130 -33 
Q 819 25 488 141 
L 488 750 
Q 750 597 1062 519 
Q 1375 441 1716 441 
Q 2309 441 2620 675 
Q 2931 909 2931 1356 
Q 2931 1769 2642 2001 
Q 2353 2234 1838 2234 
L 1294 2234 
L 1294 2753 
L 1863 2753 
Q 2328 2753 2575 2939 
Q 2822 3125 2822 3475 
Q 2822 3834 2567 4026 
Q 2313 4219 1838 4219 
Q 1578 4219 1281 4162 
Q 984 4106 628 3988 
L 628 4550 
Q 988 4650 1302 4700 
Q 1616 4750 1894 4750 
Q 2613 4750 3031 4423 
Q 3450 4097 3450 3541 
Q 3450 3153 3228 2886 
Q 3006 2619 2597 2516 
z
" transform="scale(0.015625)"/>
       </defs>
       <use xlink:href="#DejaVuSans-30"/>
       <use xlink:href="#DejaVuSans-2e" transform="translate(63.623047 0)"/>
       <use xlink:href="#DejaVuSans-33" transform="translate(95.410156 0)"/>
       <use xlink:href="#DejaVuSans-30" transform="translate(159.033203 0)"/>
      </g>
     </g>
    </g>
    <g id="ytick_4">
     <g id="line2d_10">
      <g>
       <use xlink:href="#mbbe51171cb" x="50.14375" y="178.101255" style="stroke: #000000; stroke-width: 0.8"/>
      </g>
     </g>
     <g id="text_11">
      <!-- 0.35 -->
      <g transform="translate(20.878125 181.900474) scale(0.1 -0.1)">
       <use xlink:href="#DejaVuSans-30"/>
       <use xlink:href="#DejaVuSans-2e" transform="translate(63.623047 0)"/>
       <use xlink:href="#DejaVuSans-33" transform="translate(95.410156 0)"/>
       <use xlink:href="#DejaVuSans-35" transform="translate(159.033203 0)"/>
      </g>
     </g>
    </g>
    <g id="ytick_5">
     <g id="line2d_11">
      <g>
       <use xlink:href="#mbbe51171cb" x="50.14375" y="112.225907" style="stroke: #000000; stroke-width: 0.8"/>
      </g>
     </g>
     <g id="text_12">
      <!-- 0.40 -->
      <g transform="translate(20.878125 116.025126) scale(0.1 -0.1)">
       <use xlink:href="#DejaVuSans-30"/>
       <use xlink:href="#DejaVuSans-2e" transform="translate(63.623047 0)"/>
       <use xlink:href="#DejaVuSans-34" transform="translate(95.410156 0)"/>
       <use xlink:href="#DejaVuSans-30" transform="translate(159.033203 0)"/>
      </g>
     </g>
    </g>
    <g id="ytick_6">
     <g id="line2d_12">
      <g>
       <use xlink:href="#mbbe51171cb" x="50.14375" y="46.35056" style="stroke: #000000; stroke-width: 0.8"/>
      </g>
     </g>
     <g id="text_13">
      <!-- 0.45 -->
      <g transform="translate(20.878125 50.149778) scale(0.1 -0.1)">
       <use xlink:href="#DejaVuSans-30"/>
       <use xlink:href="#DejaVuSans-2e" transform="translate(63.623047 0)"/>
       <use xlink:href="#DejaVuSans-34" transform="translate(95.410156 0)"/>
       <use xlink:href="#DejaVuSans-35" transform="translate(159.033203 0)"/>
      </g>
     </g>
    </g>
    <g id="text_14">
     <!-- Train Accuracy -->
     <g transform="translate(14.798438 240.309062) rotate(-90) scale(0.1 -0.1)">
      <defs>
       <path id="DejaVuSans-54" d="M -19 4666 
L 3928 4666 
L 3928 4134 
L 2272 4134 
L 2272 0 
L 1638 0 
L 1638 4134 
L -19 4134 
L -19 4666 
z
" transform="scale(0.015625)"/>
       <path id="DejaVuSans-72" d="M 2631 2963 
Q 2534 3019 2420 3045 
Q 2306 3072 2169 3072 
Q 1681 3072 1420 2755 
Q 1159 2438 1159 1844 
L 1159 0 
L 581 0 
L 581 3500 
L 1159 3500 
L 1159 2956 
Q 1341 3275 1631 3429 
Q 1922 3584 2338 3584 
Q 2397 3584 2469 3576 
Q 2541 3569 2628 3553 
L 2631 2963 
z
" transform="scale(0.015625)"/>
       <path id="DejaVuSans-61" d="M 2194 1759 
Q 1497 1759 1228 1600 
Q 959 1441 959 1056 
Q 959 750 1161 570 
Q 1363 391 1709 391 
Q 2188 391 2477 730 
Q 2766 1069 2766 1631 
L 2766 1759 
L 2194 1759 
z
M 3341 1997 
L 3341 0 
L 2766 0 
L 2766 531 
Q 2569 213 2275 61 
Q 1981 -91 1556 -91 
Q 1019 -91 701 211 
Q 384 513 384 1019 
Q 384 1609 779 1909 
Q 1175 2209 1959 2209 
L 2766 2209 
L 2766 2266 
Q 2766 2663 2505 2880 
Q 2244 3097 1772 3097 
Q 1472 3097 1187 3025 
Q 903 2953 641 2809 
L 641 3341 
Q 956 3463 1253 3523 
Q 1550 3584 1831 3584 
Q 2591 3584 2966 3190 
Q 3341 2797 3341 1997 
z
" transform="scale(0.015625)"/>
       <path id="DejaVuSans-69" d="M 603 3500 
L 1178 3500 
L 1178 0 
L 603 0 
L 603 3500 
z
M 603 4863 
L 1178 4863 
L 1178 4134 
L 603 4134 
L 603 4863 
z
" transform="scale(0.015625)"/>
       <path id="DejaVuSans-6e" d="M 3513 2113 
L 3513 0 
L 2938 0 
L 2938 2094 
Q 2938 2591 2744 2837 
Q 2550 3084 2163 3084 
Q 1697 3084 1428 2787 
Q 1159 2491 1159 1978 
L 1159 0 
L 581 0 
L 581 3500 
L 1159 3500 
L 1159 2956 
Q 1366 3272 1645 3428 
Q 1925 3584 2291 3584 
Q 2894 3584 3203 3211 
Q 3513 2838 3513 2113 
z
" transform="scale(0.015625)"/>
       <path id="DejaVuSans-20" transform="scale(0.015625)"/>
       <path id="DejaVuSans-41" d="M 2188 4044 
L 1331 1722 
L 3047 1722 
L 2188 4044 
z
M 1831 4666 
L 2547 4666 
L 4325 0 
L 3669 0 
L 3244 1197 
L 1141 1197 
L 716 0 
L 50 0 
L 1831 4666 
z
" transform="scale(0.015625)"/>
       <path id="DejaVuSans-75" d="M 544 1381 
L 544 3500 
L 1119 3500 
L 1119 1403 
Q 1119 906 1312 657 
Q 1506 409 1894 409 
Q 2359 409 2629 706 
Q 2900 1003 2900 1516 
L 2900 3500 
L 3475 3500 
L 3475 0 
L 2900 0 
L 2900 538 
Q 2691 219 2414 64 
Q 2138 -91 1772 -91 
Q 1169 -91 856 284 
Q 544 659 544 1381 
z
M 1991 3584 
L 1991 3584 
z
" transform="scale(0.015625)"/>
       <path id="DejaVuSans-79" d="M 2059 -325 
Q 1816 -950 1584 -1140 
Q 1353 -1331 966 -1331 
L 506 -1331 
L 506 -850 
L 844 -850 
Q 1081 -850 1212 -737 
Q 1344 -625 1503 -206 
L 1606 56 
L 191 3500 
L 800 3500 
L 1894 763 
L 2988 3500 
L 3597 3500 
L 2059 -325 
z
" transform="scale(0.015625)"/>
      </defs>
      <use xlink:href="#DejaVuSans-54"/>
      <use xlink:href="#DejaVuSans-72" transform="translate(46.333984 0)"/>
      <use xlink:href="#DejaVuSans-61" transform="translate(87.447266 0)"/>
      <use xlink:href="#DejaVuSans-69" transform="translate(148.726562 0)"/>
      <use xlink:href="#DejaVuSans-6e" transform="translate(176.509766 0)"/>
      <use xlink:href="#DejaVuSans-20" transform="translate(239.888672 0)"/>
      <use xlink:href="#DejaVuSans-41" transform="translate(271.675781 0)"/>
      <use xlink:href="#DejaVuSans-63" transform="translate(338.333984 0)"/>
      <use xlink:href="#DejaVuSans-63" transform="translate(393.314453 0)"/>
      <use xlink:href="#DejaVuSans-75" transform="translate(448.294922 0)"/>
      <use xlink:href="#DejaVuSans-72" transform="translate(511.673828 0)"/>
      <use xlink:href="#DejaVuSans-61" transform="translate(552.787109 0)"/>
      <use xlink:href="#DejaVuSans-63" transform="translate(614.066406 0)"/>
      <use xlink:href="#DejaVuSans-79" transform="translate(669.046875 0)"/>
     </g>
    </g>
   </g>
   <g id="line2d_13">
    <path d="M 79.92875 240.837765 
L 85.945922 161.964411 
L 91.963093 244.057086 
L 97.980265 223.936332 
L 103.997437 216.692861 
L 110.014609 297.175876 
L 116.03178 343.856024 
L 122.048952 322.93044 
L 128.066124 324.540101 
L 134.083295 330.978742 
L 140.100467 310.857988 
L 146.117639 317.296629 
L 152.134811 311.662818 
L 158.151982 320.51595 
L 164.169154 326.149761 
L 170.186326 310.857988 
L 176.203497 311.662818 
L 182.220669 316.491799 
L 188.237841 306.833837 
L 194.255013 302.809687 
L 200.272184 318.10146 
L 206.289356 324.540101 
L 212.306528 297.980706 
L 218.323699 324.540101 
L 224.340871 319.71112 
L 230.358043 320.51595 
L 236.375215 335.002893 
L 242.392386 311.662818 
L 248.409558 310.053158 
L 254.42673 312.467648 
L 260.443902 319.71112 
L 266.461073 305.224177 
L 272.478245 313.272479 
L 278.495417 322.93044 
L 284.512588 310.857988 
L 290.52976 310.053158 
L 296.546932 326.954591 
L 302.564104 328.564251 
L 308.581275 326.149761 
L 314.598447 341.441534 
L 320.615619 314.882139 
L 326.63279 302.004857 
L 332.649962 310.857988 
L 338.667134 319.71112 
L 344.684306 314.077309 
L 350.701477 306.029007 
L 356.718649 303.614517 
L 362.735821 308.443498 
L 368.752992 314.077309 
L 374.770164 321.32078 
L 380.787336 315.686969 
L 386.804508 310.857988 
L 392.821679 306.029007 
L 398.838851 318.90629 
L 404.856023 318.10146 
L 410.873194 313.272479 
L 416.890366 328.564251 
L 422.907538 315.686969 
L 428.92471 309.248328 
L 434.941881 331.783572 
L 440.959053 320.51595 
L 446.976225 310.053158 
L 452.993396 314.882139 
L 459.010568 302.809687 
L 465.02774 310.053158 
L 471.044912 310.857988 
L 477.062083 297.980706 
L 483.079255 314.882139 
L 489.096427 307.638668 
L 495.113598 320.51595 
L 501.13077 304.419347 
L 507.147942 319.71112 
L 513.165114 307.638668 
L 519.182285 305.224177 
L 525.199457 315.686969 
L 531.216629 311.662818 
L 537.233801 311.662818 
L 543.250972 314.077309 
L 549.268144 309.248328 
L 555.285316 319.71112 
L 561.302487 311.662818 
L 567.319659 330.173912 
L 573.336831 307.638668 
L 579.354003 295.566215 
L 585.371174 312.467648 
L 591.388346 314.882139 
L 597.405518 310.053158 
L 603.422689 323.735271 
L 609.439861 306.833837 
L 615.457033 308.443498 
L 621.474205 316.491799 
L 627.491376 328.564251 
L 633.508548 335.002893 
L 639.52572 321.32078 
L 645.542891 314.882139 
L 651.560063 302.809687 
L 657.577235 324.540101 
L 663.594407 326.954591 
L 669.611578 326.149761 
L 675.62875 325.344931 
" clip-path="url(#p4ecba35ba8)" style="fill: none; stroke: #1f77b4; stroke-width: 1.5; stroke-linecap: square"/>
   </g>
   <g id="line2d_14">
    <path d="M 79.92875 141.843657 
L 85.945922 137.819506 
L 91.963093 172.427202 
L 97.980265 240.032935 
L 103.997437 185.304485 
L 110.014609 174.036863 
L 116.03178 202.205918 
L 122.048952 160.35475 
L 128.066124 153.916109 
L 134.083295 127.356714 
L 140.100467 257.739198 
L 146.117639 226.350822 
L 152.134811 136.209846 
L 158.151982 107.23596 
L 164.169154 125.747054 
L 170.186326 108.040791 
L 176.203497 122.527733 
L 182.220669 99.992489 
L 188.237841 99.187659 
L 194.255013 58.946151 
L 200.272184 96.773168 
L 206.289356 59.750982 
L 212.306528 71.018604 
L 218.323699 49.28819 
L 224.340871 69.408943 
L 230.358043 52.50751 
L 236.375215 41.239888 
L 242.392386 59.750982 
L 248.409558 38.825398 
L 254.42673 59.750982 
L 260.443902 66.189623 
L 266.461073 84.700716 
L 272.478245 60.555812 
L 278.495417 51.70268 
L 284.512588 77.457245 
L 290.52976 61.360642 
L 296.546932 81.481396 
L 302.564104 75.042754 
L 308.581275 149.891958 
L 314.598447 168.403052 
L 320.615619 155.525769 
L 326.63279 123.332563 
L 332.649962 77.457245 
L 338.667134 105.6263 
L 344.684306 97.577999 
L 350.701477 82.286226 
L 356.718649 75.847585 
L 362.735821 79.066905 
L 368.752992 78.262075 
L 374.770164 66.189623 
L 380.787336 122.527733 
L 386.804508 87.920037 
L 392.821679 97.577999 
L 398.838851 94.358678 
L 404.856023 149.891958 
L 410.873194 120.113243 
L 416.890366 120.113243 
L 422.907538 103.21181 
L 428.92471 124.137394 
L 434.941881 119.308413 
L 440.959053 229.570143 
L 446.976225 229.570143 
L 452.993396 306.833837 
L 459.010568 270.616481 
L 465.02774 277.055122 
L 471.044912 203.010748 
L 477.062083 170.012712 
L 483.079255 177.256183 
L 489.096427 207.034899 
L 495.113598 166.793391 
L 501.13077 90.334527 
L 507.147942 142.648487 
L 513.165114 128.161544 
L 519.182285 228.765313 
L 525.199457 277.859952 
L 531.216629 306.833837 
L 537.233801 316.491799 
L 543.250972 246.471576 
L 549.268144 231.984634 
L 555.285316 138.624336 
L 561.302487 131.380865 
L 567.319659 114.479432 
L 573.336831 174.841693 
L 579.354003 132.990525 
L 585.371174 255.324708 
L 591.388346 326.954591 
L 597.405518 337.417383 
L 603.422689 326.149761 
L 609.439861 325.344931 
L 615.457033 328.564251 
L 621.474205 297.980706 
L 627.491376 323.735271 
L 633.508548 314.882139 
L 639.52572 350.294665 
L 645.542891 312.467648 
L 651.560063 326.149761 
L 657.577235 361.562288 
L 663.594407 345.465685 
L 669.611578 320.51595 
L 675.62875 303.614517 
" clip-path="url(#p4ecba35ba8)" style="fill: none; stroke: #ff7f0e; stroke-width: 1.5; stroke-linecap: square"/>
   </g>
   <g id="line2d_15">
    <path d="M 79.92875 148.582021 
L 85.945922 102.734709 
L 91.963093 206.494415 
L 97.980265 276.47189 
L 103.997437 172.712185 
L 110.014609 120.430163 
L 116.03178 121.234502 
L 122.048952 104.343387 
L 128.066124 209.71177 
L 134.083295 278.080568 
L 140.100467 171.907846 
L 146.117639 146.169005 
L 152.134811 187.994622 
L 158.151982 155.016731 
L 164.169154 131.690906 
L 170.186326 175.125201 
L 176.203497 142.147311 
L 182.220669 144.560327 
L 188.237841 133.299584 
L 194.255013 147.777682 
L 200.272184 160.647103 
L 206.289356 172.712185 
L 212.306528 163.864458 
L 218.323699 153.408054 
L 224.340871 155.016731 
L 230.358043 186.385945 
L 236.375215 208.103092 
L 242.392386 162.255781 
L 248.409558 186.385945 
L 254.42673 167.081813 
L 260.443902 179.146895 
L 266.461073 155.82107 
L 272.478245 175.92954 
L 278.495417 154.212393 
L 284.512588 162.255781 
L 290.52976 149.38636 
L 296.546932 146.169005 
L 302.564104 113.191114 
L 308.581275 122.843179 
L 314.598447 103.539048 
L 320.615619 97.908677 
L 326.63279 265.211147 
L 332.649962 345.645027 
L 338.667134 349.666721 
L 344.684306 340.818994 
L 350.701477 337.601639 
L 356.718649 348.058043 
L 362.735821 324.732218 
L 368.752992 332.775606 
L 374.770164 341.623333 
L 380.787336 332.775606 
L 386.804508 333.579945 
L 392.821679 321.514863 
L 398.838851 317.493169 
L 404.856023 328.753912 
L 410.873194 325.536557 
L 416.890366 352.884076 
L 422.907538 306.232426 
L 428.92471 328.753912 
L 434.941881 337.601639 
L 440.959053 350.47106 
L 446.976225 349.666721 
L 452.993396 319.906185 
L 459.010568 322.319202 
L 465.02774 324.732218 
L 471.044912 324.732218 
L 477.062083 336.7973 
L 483.079255 338.405978 
L 489.096427 335.992961 
L 495.113598 312.667136 
L 501.13077 319.101847 
L 507.147942 309.449781 
L 513.165114 313.471475 
L 519.182285 335.188623 
L 525.199457 323.123541 
L 531.216629 325.536557 
L 537.233801 336.7973 
L 543.250972 331.971267 
L 549.268144 319.101847 
L 555.285316 310.25412 
L 561.302487 323.927879 
L 567.319659 346.449366 
L 573.336831 324.732218 
L 579.354003 317.493169 
L 585.371174 317.493169 
L 591.388346 325.536557 
L 597.405518 315.884491 
L 603.422689 315.080153 
L 609.439861 321.514863 
L 615.457033 326.340896 
L 621.474205 327.145235 
L 627.491376 323.123541 
L 633.508548 329.558251 
L 639.52572 327.949573 
L 645.542891 335.188623 
L 651.560063 332.775606 
L 657.577235 333.579945 
L 663.594407 317.493169 
L 669.611578 336.7973 
L 675.62875 345.645027 
" clip-path="url(#p4ecba35ba8)" style="fill: none; stroke: #2ca02c; stroke-width: 1.5; stroke-linecap: square"/>
   </g>
   <g id="line2d_16">
    <path d="M 79.92875 140.538633 
L 85.945922 228.211562 
L 91.963093 278.884907 
L 97.980265 130.886567 
L 103.997437 158.234087 
L 110.014609 180.755573 
L 116.03178 191.211977 
L 122.048952 327.145235 
L 128.066124 341.623333 
L 134.083295 351.275399 
L 140.100467 350.47106 
L 146.117639 327.949573 
L 152.134811 348.862382 
L 158.151982 317.493169 
L 164.169154 334.384284 
L 170.186326 343.232011 
L 176.203497 327.145235 
L 182.220669 360.123125 
L 188.237841 327.145235 
L 194.255013 323.927879 
L 200.272184 368.970852 
L 206.289356 329.558251 
L 212.306528 328.753912 
L 218.323699 331.971267 
L 224.340871 322.319202 
L 230.358043 345.645027 
L 236.375215 320.710524 
L 242.392386 325.536557 
L 248.409558 333.579945 
L 254.42673 327.145235 
L 260.443902 335.188623 
L 266.461073 335.188623 
L 272.478245 352.884076 
L 278.495417 257.167759 
L 284.512588 186.385945 
L 290.52976 208.103092 
L 296.546932 188.798961 
L 302.564104 218.559497 
L 308.581275 222.581191 
L 314.598447 212.124786 
L 320.615619 184.777267 
L 326.63279 165.473136 
L 332.649962 151.799376 
L 338.667134 128.473551 
L 344.684306 131.690906 
L 350.701477 142.951649 
L 356.718649 98.713015 
L 362.735821 94.691321 
L 368.752992 132.495245 
L 374.770164 104.343387 
L 380.787336 82.626239 
L 386.804508 113.995453 
L 392.821679 92.278305 
L 398.838851 129.27789 
L 404.856023 122.843179 
L 410.873194 105.952065 
L 416.890366 93.886983 
L 422.907538 122.843179 
L 428.92471 104.343387 
L 434.941881 112.386775 
L 440.959053 122.038841 
L 446.976225 106.756403 
L 452.993396 107.560742 
L 459.010568 115.60413 
L 465.02774 96.299999 
L 471.044912 128.473551 
L 477.062083 155.016731 
L 483.079255 233.841934 
L 489.096427 195.233671 
L 495.113598 113.995453 
L 501.13077 159.842764 
L 507.147942 163.060119 
L 513.165114 171.907846 
L 519.182285 164.668797 
L 525.199457 175.92954 
L 531.216629 177.538218 
L 537.233801 191.211977 
L 543.250972 146.973343 
L 549.268144 157.429748 
L 555.285316 134.103923 
L 561.302487 163.060119 
L 567.319659 158.234087 
L 573.336831 166.277475 
L 579.354003 159.038425 
L 585.371174 160.647103 
L 591.388346 145.364666 
L 597.405518 146.973343 
L 603.422689 163.060119 
L 609.439861 158.234087 
L 615.457033 159.038425 
L 621.474205 149.38636 
L 627.491376 170.299169 
L 633.508548 170.299169 
L 639.52572 163.060119 
L 645.542891 160.647103 
L 651.560063 167.886152 
L 657.577235 147.777682 
L 663.594407 156.625409 
L 669.611578 189.6033 
L 675.62875 160.647103 
" clip-path="url(#p4ecba35ba8)" style="fill: none; stroke: #d62728; stroke-width: 1.5; stroke-linecap: square"/>
   </g>
   <g id="line2d_17">
    <path d="M 79.92875 306.232426 
L 85.945922 308.645442 
L 91.963093 310.25412 
L 97.980265 298.993377 
L 103.997437 310.25412 
L 110.014609 319.906185 
L 116.03178 298.993377 
L 122.048952 315.884491 
L 128.066124 298.993377 
L 134.083295 320.710524 
L 140.100467 325.536557 
L 146.117639 307.841103 
L 152.134811 315.080153 
L 158.151982 298.993377 
L 164.169154 304.623748 
L 170.186326 298.189038 
L 176.203497 310.25412 
L 182.220669 307.036765 
L 188.237841 315.080153 
L 194.255013 306.232426 
L 200.272184 330.36259 
L 206.289356 309.449781 
L 212.306528 327.949573 
L 218.323699 314.275814 
L 224.340871 304.623748 
L 230.358043 308.645442 
L 236.375215 332.775606 
L 242.392386 314.275814 
L 248.409558 314.275814 
L 254.42673 307.841103 
L 260.443902 298.993377 
L 266.461073 308.645442 
L 272.478245 307.841103 
L 278.495417 316.68883 
L 284.512588 319.906185 
L 290.52976 303.015071 
L 296.546932 329.558251 
L 302.564104 307.036765 
L 308.581275 329.558251 
L 314.598447 317.493169 
L 320.615619 331.166929 
L 326.63279 309.449781 
L 332.649962 323.927879 
L 338.667134 321.514863 
L 344.684306 298.189038 
L 350.701477 298.993377 
L 356.718649 297.384699 
L 362.735821 315.884491 
L 368.752992 295.776021 
L 374.770164 324.732218 
L 380.787336 313.471475 
L 386.804508 304.623748 
L 392.821679 320.710524 
L 398.838851 320.710524 
L 404.856023 313.471475 
L 410.873194 304.623748 
L 416.890366 318.297508 
L 422.907538 305.428087 
L 428.92471 305.428087 
L 434.941881 315.080153 
L 440.959053 319.906185 
L 446.976225 308.645442 
L 452.993396 315.884491 
L 459.010568 311.058459 
L 465.02774 308.645442 
L 471.044912 329.558251 
L 477.062083 310.25412 
L 483.079255 326.340896 
L 489.096427 330.36259 
L 495.113598 310.25412 
L 501.13077 298.189038 
L 507.147942 321.514863 
L 513.165114 330.36259 
L 519.182285 312.667136 
L 525.199457 318.297508 
L 531.216629 319.101847 
L 537.233801 320.710524 
L 543.250972 320.710524 
L 549.268144 318.297508 
L 555.285316 319.101847 
L 561.302487 320.710524 
L 567.319659 315.080153 
L 573.336831 315.884491 
L 579.354003 307.036765 
L 585.371174 310.25412 
L 591.388346 308.645442 
L 597.405518 298.993377 
L 603.422689 300.602054 
L 609.439861 322.319202 
L 615.457033 324.732218 
L 621.474205 324.732218 
L 627.491376 310.25412 
L 633.508548 319.906185 
L 639.52572 324.732218 
L 645.542891 304.623748 
L 651.560063 327.949573 
L 657.577235 303.819409 
L 663.594407 327.949573 
L 669.611578 314.275814 
L 675.62875 303.015071 
" clip-path="url(#p4ecba35ba8)" style="fill: none; stroke: #9467bd; stroke-width: 1.5; stroke-linecap: square"/>
   </g>
   <g id="patch_3">
    <path d="M 50.14375 385.478125 
L 50.14375 22.318125 
" style="fill: none; stroke: #000000; stroke-width: 0.8; stroke-linejoin: miter; stroke-linecap: square"/>
   </g>
   <g id="patch_4">
    <path d="M 705.41375 385.478125 
L 705.41375 22.318125 
" style="fill: none; stroke: #000000; stroke-width: 0.8; stroke-linejoin: miter; stroke-linecap: square"/>
   </g>
   <g id="patch_5">
    <path d="M 50.14375 385.478125 
L 705.41375 385.478125 
" style="fill: none; stroke: #000000; stroke-width: 0.8; stroke-linejoin: miter; stroke-linecap: square"/>
   </g>
   <g id="patch_6">
    <path d="M 50.14375 22.318125 
L 705.41375 22.318125 
" style="fill: none; stroke: #000000; stroke-width: 0.8; stroke-linejoin: miter; stroke-linecap: square"/>
   </g>
   <g id="text_15">
    <!-- Combined Train Accuracy -->
    <g transform="translate(301.694063 16.318125) scale(0.12 -0.12)">
     <defs>
      <path id="DejaVuSans-43" d="M 4122 4306 
L 4122 3641 
Q 3803 3938 3442 4084 
Q 3081 4231 2675 4231 
Q 1875 4231 1450 3742 
Q 1025 3253 1025 2328 
Q 1025 1406 1450 917 
Q 1875 428 2675 428 
Q 3081 428 3442 575 
Q 3803 722 4122 1019 
L 4122 359 
Q 3791 134 3420 21 
Q 3050 -91 2638 -91 
Q 1578 -91 968 557 
Q 359 1206 359 2328 
Q 359 3453 968 4101 
Q 1578 4750 2638 4750 
Q 3056 4750 3426 4639 
Q 3797 4528 4122 4306 
z
" transform="scale(0.015625)"/>
      <path id="DejaVuSans-6d" d="M 3328 2828 
Q 3544 3216 3844 3400 
Q 4144 3584 4550 3584 
Q 5097 3584 5394 3201 
Q 5691 2819 5691 2113 
L 5691 0 
L 5113 0 
L 5113 2094 
Q 5113 2597 4934 2840 
Q 4756 3084 4391 3084 
Q 3944 3084 3684 2787 
Q 3425 2491 3425 1978 
L 3425 0 
L 2847 0 
L 2847 2094 
Q 2847 2600 2669 2842 
Q 2491 3084 2119 3084 
Q 1678 3084 1418 2786 
Q 1159 2488 1159 1978 
L 1159 0 
L 581 0 
L 581 3500 
L 1159 3500 
L 1159 2956 
Q 1356 3278 1631 3431 
Q 1906 3584 2284 3584 
Q 2666 3584 2933 3390 
Q 3200 3197 3328 2828 
z
" transform="scale(0.015625)"/>
      <path id="DejaVuSans-62" d="M 3116 1747 
Q 3116 2381 2855 2742 
Q 2594 3103 2138 3103 
Q 1681 3103 1420 2742 
Q 1159 2381 1159 1747 
Q 1159 1113 1420 752 
Q 1681 391 2138 391 
Q 2594 391 2855 752 
Q 3116 1113 3116 1747 
z
M 1159 2969 
Q 1341 3281 1617 3432 
Q 1894 3584 2278 3584 
Q 2916 3584 3314 3078 
Q 3713 2572 3713 1747 
Q 3713 922 3314 415 
Q 2916 -91 2278 -91 
Q 1894 -91 1617 61 
Q 1341 213 1159 525 
L 1159 0 
L 581 0 
L 581 4863 
L 1159 4863 
L 1159 2969 
z
" transform="scale(0.015625)"/>
      <path id="DejaVuSans-65" d="M 3597 1894 
L 3597 1613 
L 953 1613 
Q 991 1019 1311 708 
Q 1631 397 2203 397 
Q 2534 397 2845 478 
Q 3156 559 3463 722 
L 3463 178 
Q 3153 47 2828 -22 
Q 2503 -91 2169 -91 
Q 1331 -91 842 396 
Q 353 884 353 1716 
Q 353 2575 817 3079 
Q 1281 3584 2069 3584 
Q 2775 3584 3186 3129 
Q 3597 2675 3597 1894 
z
M 3022 2063 
Q 3016 2534 2758 2815 
Q 2500 3097 2075 3097 
Q 1594 3097 1305 2825 
Q 1016 2553 972 2059 
L 3022 2063 
z
" transform="scale(0.015625)"/>
      <path id="DejaVuSans-64" d="M 2906 2969 
L 2906 4863 
L 3481 4863 
L 3481 0 
L 2906 0 
L 2906 525 
Q 2725 213 2448 61 
Q 2172 -91 1784 -91 
Q 1150 -91 751 415 
Q 353 922 353 1747 
Q 353 2572 751 3078 
Q 1150 3584 1784 3584 
Q 2172 3584 2448 3432 
Q 2725 3281 2906 2969 
z
M 947 1747 
Q 947 1113 1208 752 
Q 1469 391 1925 391 
Q 2381 391 2643 752 
Q 2906 1113 2906 1747 
Q 2906 2381 2643 2742 
Q 2381 3103 1925 3103 
Q 1469 3103 1208 2742 
Q 947 2381 947 1747 
z
" transform="scale(0.015625)"/>
     </defs>
     <use xlink:href="#DejaVuSans-43"/>
     <use xlink:href="#DejaVuSans-6f" transform="translate(69.824219 0)"/>
     <use xlink:href="#DejaVuSans-6d" transform="translate(131.005859 0)"/>
     <use xlink:href="#DejaVuSans-62" transform="translate(228.417969 0)"/>
     <use xlink:href="#DejaVuSans-69" transform="translate(291.894531 0)"/>
     <use xlink:href="#DejaVuSans-6e" transform="translate(319.677734 0)"/>
     <use xlink:href="#DejaVuSans-65" transform="translate(383.056641 0)"/>
     <use xlink:href="#DejaVuSans-64" transform="translate(444.580078 0)"/>
     <use xlink:href="#DejaVuSans-20" transform="translate(508.056641 0)"/>
     <use xlink:href="#DejaVuSans-54" transform="translate(539.84375 0)"/>
     <use xlink:href="#DejaVuSans-72" transform="translate(586.177734 0)"/>
     <use xlink:href="#DejaVuSans-61" transform="translate(627.291016 0)"/>
     <use xlink:href="#DejaVuSans-69" transform="translate(688.570312 0)"/>
     <use xlink:href="#DejaVuSans-6e" transform="translate(716.353516 0)"/>
     <use xlink:href="#DejaVuSans-20" transform="translate(779.732422 0)"/>
     <use xlink:href="#DejaVuSans-41" transform="translate(811.519531 0)"/>
     <use xlink:href="#DejaVuSans-63" transform="translate(878.177734 0)"/>
     <use xlink:href="#DejaVuSans-63" transform="translate(933.158203 0)"/>
     <use xlink:href="#DejaVuSans-75" transform="translate(988.138672 0)"/>
     <use xlink:href="#DejaVuSans-72" transform="translate(1051.517578 0)"/>
     <use xlink:href="#DejaVuSans-61" transform="translate(1092.630859 0)"/>
     <use xlink:href="#DejaVuSans-63" transform="translate(1153.910156 0)"/>
     <use xlink:href="#DejaVuSans-79" transform="translate(1208.890625 0)"/>
    </g>
   </g>
   <g id="legend_1">
    <g id="patch_7">
     <path d="M 636.23875 103.70875 
L 698.41375 103.70875 
Q 700.41375 103.70875 700.41375 101.70875 
L 700.41375 29.318125 
Q 700.41375 27.318125 698.41375 27.318125 
L 636.23875 27.318125 
Q 634.23875 27.318125 634.23875 29.318125 
L 634.23875 101.70875 
Q 634.23875 103.70875 636.23875 103.70875 
z
" style="fill: #ffffff; opacity: 0.8; stroke: #cccccc; stroke-linejoin: miter"/>
    </g>
    <g id="line2d_18">
     <path d="M 638.23875 35.416562 
L 648.23875 35.416562 
L 658.23875 35.416562 
" style="fill: none; stroke: #1f77b4; stroke-width: 1.5; stroke-linecap: square"/>
    </g>
    <g id="text_16">
     <!-- Fold 1 -->
     <g transform="translate(666.23875 38.916562) scale(0.1 -0.1)">
      <defs>
       <path id="DejaVuSans-46" d="M 628 4666 
L 3309 4666 
L 3309 4134 
L 1259 4134 
L 1259 2759 
L 3109 2759 
L 3109 2228 
L 1259 2228 
L 1259 0 
L 628 0 
L 628 4666 
z
" transform="scale(0.015625)"/>
       <path id="DejaVuSans-6c" d="M 603 4863 
L 1178 4863 
L 1178 0 
L 603 0 
L 603 4863 
z
" transform="scale(0.015625)"/>
      </defs>
      <use xlink:href="#DejaVuSans-46"/>
      <use xlink:href="#DejaVuSans-6f" transform="translate(53.894531 0)"/>
      <use xlink:href="#DejaVuSans-6c" transform="translate(115.076172 0)"/>
      <use xlink:href="#DejaVuSans-64" transform="translate(142.859375 0)"/>
      <use xlink:href="#DejaVuSans-20" transform="translate(206.335938 0)"/>
      <use xlink:href="#DejaVuSans-31" transform="translate(238.123047 0)"/>
     </g>
    </g>
    <g id="line2d_19">
     <path d="M 638.23875 50.094688 
L 648.23875 50.094688 
L 658.23875 50.094688 
" style="fill: none; stroke: #ff7f0e; stroke-width: 1.5; stroke-linecap: square"/>
    </g>
    <g id="text_17">
     <!-- Fold 2 -->
     <g transform="translate(666.23875 53.594688) scale(0.1 -0.1)">
      <use xlink:href="#DejaVuSans-46"/>
      <use xlink:href="#DejaVuSans-6f" transform="translate(53.894531 0)"/>
      <use xlink:href="#DejaVuSans-6c" transform="translate(115.076172 0)"/>
      <use xlink:href="#DejaVuSans-64" transform="translate(142.859375 0)"/>
      <use xlink:href="#DejaVuSans-20" transform="translate(206.335938 0)"/>
      <use xlink:href="#DejaVuSans-32" transform="translate(238.123047 0)"/>
     </g>
    </g>
    <g id="line2d_20">
     <path d="M 638.23875 64.772812 
L 648.23875 64.772812 
L 658.23875 64.772812 
" style="fill: none; stroke: #2ca02c; stroke-width: 1.5; stroke-linecap: square"/>
    </g>
    <g id="text_18">
     <!-- Fold 3 -->
     <g transform="translate(666.23875 68.272812) scale(0.1 -0.1)">
      <use xlink:href="#DejaVuSans-46"/>
      <use xlink:href="#DejaVuSans-6f" transform="translate(53.894531 0)"/>
      <use xlink:href="#DejaVuSans-6c" transform="translate(115.076172 0)"/>
      <use xlink:href="#DejaVuSans-64" transform="translate(142.859375 0)"/>
      <use xlink:href="#DejaVuSans-20" transform="translate(206.335938 0)"/>
      <use xlink:href="#DejaVuSans-33" transform="translate(238.123047 0)"/>
     </g>
    </g>
    <g id="line2d_21">
     <path d="M 638.23875 79.450938 
L 648.23875 79.450938 
L 658.23875 79.450938 
" style="fill: none; stroke: #d62728; stroke-width: 1.5; stroke-linecap: square"/>
    </g>
    <g id="text_19">
     <!-- Fold 4 -->
     <g transform="translate(666.23875 82.950938) scale(0.1 -0.1)">
      <use xlink:href="#DejaVuSans-46"/>
      <use xlink:href="#DejaVuSans-6f" transform="translate(53.894531 0)"/>
      <use xlink:href="#DejaVuSans-6c" transform="translate(115.076172 0)"/>
      <use xlink:href="#DejaVuSans-64" transform="translate(142.859375 0)"/>
      <use xlink:href="#DejaVuSans-20" transform="translate(206.335938 0)"/>
      <use xlink:href="#DejaVuSans-34" transform="translate(238.123047 0)"/>
     </g>
    </g>
    <g id="line2d_22">
     <path d="M 638.23875 94.129063 
L 648.23875 94.129063 
L 658.23875 94.129063 
" style="fill: none; stroke: #9467bd; stroke-width: 1.5; stroke-linecap: square"/>
    </g>
    <g id="text_20">
     <!-- Fold 5 -->
     <g transform="translate(666.23875 97.629063) scale(0.1 -0.1)">
      <use xlink:href="#DejaVuSans-46"/>
      <use xlink:href="#DejaVuSans-6f" transform="translate(53.894531 0)"/>
      <use xlink:href="#DejaVuSans-6c" transform="translate(115.076172 0)"/>
      <use xlink:href="#DejaVuSans-64" transform="translate(142.859375 0)"/>
      <use xlink:href="#DejaVuSans-20" transform="translate(206.335938 0)"/>
      <use xlink:href="#DejaVuSans-35" transform="translate(238.123047 0)"/>
     </g>
    </g>
   </g>
  </g>
 </g>
 <defs>
  <clipPath id="p4ecba35ba8">
   <rect x="50.14375" y="22.318125" width="655.27" height="363.16"/>
  </clipPath>
 </defs>
</svg>
