<?xml version="1.0" encoding="utf-8" standalone="no"?>
<!DOCTYPE svg PUBLIC "-//W3C//DTD SVG 1.1//EN"
  "http://www.w3.org/Graphics/SVG/1.1/DTD/svg11.dtd">
<svg xmlns:xlink="http://www.w3.org/1999/xlink" width="712.46125pt" height="423.034375pt" viewBox="0 0 712.46125 423.034375" xmlns="http://www.w3.org/2000/svg" version="1.1">
 <metadata>
  <rdf:RDF xmlns:dc="http://purl.org/dc/elements/1.1/" xmlns:cc="http://creativecommons.org/ns#" xmlns:rdf="http://www.w3.org/1999/02/22-rdf-syntax-ns#">
   <cc:Work>
    <dc:type rdf:resource="http://purl.org/dc/dcmitype/StillImage"/>
    <dc:date>2025-06-25T08:01:55.406379</dc:date>
    <dc:format>image/svg+xml</dc:format>
    <dc:creator>
     <cc:Agent>
      <dc:title>Matplotlib v3.10.0, https://matplotlib.org/</dc:title>
     </cc:Agent>
    </dc:creator>
   </cc:Work>
  </rdf:RDF>
 </metadata>
 <defs>
  <style type="text/css">*{stroke-linejoin: round; stroke-linecap: butt}</style>
 </defs>
 <g id="figure_1">
  <g id="patch_1">
   <path d="M 0 423.034375 
L 712.46125 423.034375 
L 712.46125 0 
L 0 0 
z
" style="fill: #ffffff"/>
  </g>
  <g id="axes_1">
   <g id="patch_2">
    <path d="M 43.78125 385.478125 
L 705.26125 385.478125 
L 705.26125 22.318125 
L 43.78125 22.318125 
z
" style="fill: #ffffff"/>
   </g>
   <g id="matplotlib.axis_1">
    <g id="xtick_1">
     <g id="line2d_1">
      <defs>
       <path id="mb28bd9895b" d="M 0 0 
L 0 3.5 
" style="stroke: #000000; stroke-width: 0.8"/>
      </defs>
      <g>
       <use xlink:href="#mb28bd9895b" x="67.774326" y="385.478125" style="stroke: #000000; stroke-width: 0.8"/>
      </g>
     </g>
     <g id="text_1">
      <!-- 0 -->
      <g transform="translate(64.593076 400.076562) scale(0.1 -0.1)">
       <defs>
        <path id="DejaVuSans-30" d="M 2034 4250 
Q 1547 4250 1301 3770 
Q 1056 3291 1056 2328 
Q 1056 1369 1301 889 
Q 1547 409 2034 409 
Q 2525 409 2770 889 
Q 3016 1369 3016 2328 
Q 3016 3291 2770 3770 
Q 2525 4250 2034 4250 
z
M 2034 4750 
Q 2819 4750 3233 4129 
Q 3647 3509 3647 2328 
Q 3647 1150 3233 529 
Q 2819 -91 2034 -91 
Q 1250 -91 836 529 
Q 422 1150 422 2328 
Q 422 3509 836 4129 
Q 1250 4750 2034 4750 
z
" transform="scale(0.015625)"/>
       </defs>
       <use xlink:href="#DejaVuSans-30"/>
      </g>
     </g>
    </g>
    <g id="xtick_2">
     <g id="line2d_2">
      <g>
       <use xlink:href="#mb28bd9895b" x="189.258256" y="385.478125" style="stroke: #000000; stroke-width: 0.8"/>
      </g>
     </g>
     <g id="text_2">
      <!-- 20 -->
      <g transform="translate(182.895756 400.076562) scale(0.1 -0.1)">
       <defs>
        <path id="DejaVuSans-32" d="M 1228 531 
L 3431 531 
L 3431 0 
L 469 0 
L 469 531 
Q 828 903 1448 1529 
Q 2069 2156 2228 2338 
Q 2531 2678 2651 2914 
Q 2772 3150 2772 3378 
Q 2772 3750 2511 3984 
Q 2250 4219 1831 4219 
Q 1534 4219 1204 4116 
Q 875 4013 500 3803 
L 500 4441 
Q 881 4594 1212 4672 
Q 1544 4750 1819 4750 
Q 2544 4750 2975 4387 
Q 3406 4025 3406 3419 
Q 3406 3131 3298 2873 
Q 3191 2616 2906 2266 
Q 2828 2175 2409 1742 
Q 1991 1309 1228 531 
z
" transform="scale(0.015625)"/>
       </defs>
       <use xlink:href="#DejaVuSans-32"/>
       <use xlink:href="#DejaVuSans-30" transform="translate(63.623047 0)"/>
      </g>
     </g>
    </g>
    <g id="xtick_3">
     <g id="line2d_3">
      <g>
       <use xlink:href="#mb28bd9895b" x="310.742187" y="385.478125" style="stroke: #000000; stroke-width: 0.8"/>
      </g>
     </g>
     <g id="text_3">
      <!-- 40 -->
      <g transform="translate(304.379687 400.076562) scale(0.1 -0.1)">
       <defs>
        <path id="DejaVuSans-34" d="M 2419 4116 
L 825 1625 
L 2419 1625 
L 2419 4116 
z
M 2253 4666 
L 3047 4666 
L 3047 1625 
L 3713 1625 
L 3713 1100 
L 3047 1100 
L 3047 0 
L 2419 0 
L 2419 1100 
L 313 1100 
L 313 1709 
L 2253 4666 
z
" transform="scale(0.015625)"/>
       </defs>
       <use xlink:href="#DejaVuSans-34"/>
       <use xlink:href="#DejaVuSans-30" transform="translate(63.623047 0)"/>
      </g>
     </g>
    </g>
    <g id="xtick_4">
     <g id="line2d_4">
      <g>
       <use xlink:href="#mb28bd9895b" x="432.226117" y="385.478125" style="stroke: #000000; stroke-width: 0.8"/>
      </g>
     </g>
     <g id="text_4">
      <!-- 60 -->
      <g transform="translate(425.863617 400.076562) scale(0.1 -0.1)">
       <defs>
        <path id="DejaVuSans-36" d="M 2113 2584 
Q 1688 2584 1439 2293 
Q 1191 2003 1191 1497 
Q 1191 994 1439 701 
Q 1688 409 2113 409 
Q 2538 409 2786 701 
Q 3034 994 3034 1497 
Q 3034 2003 2786 2293 
Q 2538 2584 2113 2584 
z
M 3366 4563 
L 3366 3988 
Q 3128 4100 2886 4159 
Q 2644 4219 2406 4219 
Q 1781 4219 1451 3797 
Q 1122 3375 1075 2522 
Q 1259 2794 1537 2939 
Q 1816 3084 2150 3084 
Q 2853 3084 3261 2657 
Q 3669 2231 3669 1497 
Q 3669 778 3244 343 
Q 2819 -91 2113 -91 
Q 1303 -91 875 529 
Q 447 1150 447 2328 
Q 447 3434 972 4092 
Q 1497 4750 2381 4750 
Q 2619 4750 2861 4703 
Q 3103 4656 3366 4563 
z
" transform="scale(0.015625)"/>
       </defs>
       <use xlink:href="#DejaVuSans-36"/>
       <use xlink:href="#DejaVuSans-30" transform="translate(63.623047 0)"/>
      </g>
     </g>
    </g>
    <g id="xtick_5">
     <g id="line2d_5">
      <g>
       <use xlink:href="#mb28bd9895b" x="553.710047" y="385.478125" style="stroke: #000000; stroke-width: 0.8"/>
      </g>
     </g>
     <g id="text_5">
      <!-- 80 -->
      <g transform="translate(547.347547 400.076562) scale(0.1 -0.1)">
       <defs>
        <path id="DejaVuSans-38" d="M 2034 2216 
Q 1584 2216 1326 1975 
Q 1069 1734 1069 1313 
Q 1069 891 1326 650 
Q 1584 409 2034 409 
Q 2484 409 2743 651 
Q 3003 894 3003 1313 
Q 3003 1734 2745 1975 
Q 2488 2216 2034 2216 
z
M 1403 2484 
Q 997 2584 770 2862 
Q 544 3141 544 3541 
Q 544 4100 942 4425 
Q 1341 4750 2034 4750 
Q 2731 4750 3128 4425 
Q 3525 4100 3525 3541 
Q 3525 3141 3298 2862 
Q 3072 2584 2669 2484 
Q 3125 2378 3379 2068 
Q 3634 1759 3634 1313 
Q 3634 634 3220 271 
Q 2806 -91 2034 -91 
Q 1263 -91 848 271 
Q 434 634 434 1313 
Q 434 1759 690 2068 
Q 947 2378 1403 2484 
z
M 1172 3481 
Q 1172 3119 1398 2916 
Q 1625 2713 2034 2713 
Q 2441 2713 2670 2916 
Q 2900 3119 2900 3481 
Q 2900 3844 2670 4047 
Q 2441 4250 2034 4250 
Q 1625 4250 1398 4047 
Q 1172 3844 1172 3481 
z
" transform="scale(0.015625)"/>
       </defs>
       <use xlink:href="#DejaVuSans-38"/>
       <use xlink:href="#DejaVuSans-30" transform="translate(63.623047 0)"/>
      </g>
     </g>
    </g>
    <g id="xtick_6">
     <g id="line2d_6">
      <g>
       <use xlink:href="#mb28bd9895b" x="675.193977" y="385.478125" style="stroke: #000000; stroke-width: 0.8"/>
      </g>
     </g>
     <g id="text_6">
      <!-- 100 -->
      <g transform="translate(665.650227 400.076562) scale(0.1 -0.1)">
       <defs>
        <path id="DejaVuSans-31" d="M 794 531 
L 1825 531 
L 1825 4091 
L 703 3866 
L 703 4441 
L 1819 4666 
L 2450 4666 
L 2450 531 
L 3481 531 
L 3481 0 
L 794 0 
L 794 531 
z
" transform="scale(0.015625)"/>
       </defs>
       <use xlink:href="#DejaVuSans-31"/>
       <use xlink:href="#DejaVuSans-30" transform="translate(63.623047 0)"/>
       <use xlink:href="#DejaVuSans-30" transform="translate(127.246094 0)"/>
      </g>
     </g>
    </g>
    <g id="text_7">
     <!-- Epoch -->
     <g transform="translate(359.210312 413.754687) scale(0.1 -0.1)">
      <defs>
       <path id="DejaVuSans-45" d="M 628 4666 
L 3578 4666 
L 3578 4134 
L 1259 4134 
L 1259 2753 
L 3481 2753 
L 3481 2222 
L 1259 2222 
L 1259 531 
L 3634 531 
L 3634 0 
L 628 0 
L 628 4666 
z
" transform="scale(0.015625)"/>
       <path id="DejaVuSans-70" d="M 1159 525 
L 1159 -1331 
L 581 -1331 
L 581 3500 
L 1159 3500 
L 1159 2969 
Q 1341 3281 1617 3432 
Q 1894 3584 2278 3584 
Q 2916 3584 3314 3078 
Q 3713 2572 3713 1747 
Q 3713 922 3314 415 
Q 2916 -91 2278 -91 
Q 1894 -91 1617 61 
Q 1341 213 1159 525 
z
M 3116 1747 
Q 3116 2381 2855 2742 
Q 2594 3103 2138 3103 
Q 1681 3103 1420 2742 
Q 1159 2381 1159 1747 
Q 1159 1113 1420 752 
Q 1681 391 2138 391 
Q 2594 391 2855 752 
Q 3116 1113 3116 1747 
z
" transform="scale(0.015625)"/>
       <path id="DejaVuSans-6f" d="M 1959 3097 
Q 1497 3097 1228 2736 
Q 959 2375 959 1747 
Q 959 1119 1226 758 
Q 1494 397 1959 397 
Q 2419 397 2687 759 
Q 2956 1122 2956 1747 
Q 2956 2369 2687 2733 
Q 2419 3097 1959 3097 
z
M 1959 3584 
Q 2709 3584 3137 3096 
Q 3566 2609 3566 1747 
Q 3566 888 3137 398 
Q 2709 -91 1959 -91 
Q 1206 -91 779 398 
Q 353 888 353 1747 
Q 353 2609 779 3096 
Q 1206 3584 1959 3584 
z
" transform="scale(0.015625)"/>
       <path id="DejaVuSans-63" d="M 3122 3366 
L 3122 2828 
Q 2878 2963 2633 3030 
Q 2388 3097 2138 3097 
Q 1578 3097 1268 2742 
Q 959 2388 959 1747 
Q 959 1106 1268 751 
Q 1578 397 2138 397 
Q 2388 397 2633 464 
Q 2878 531 3122 666 
L 3122 134 
Q 2881 22 2623 -34 
Q 2366 -91 2075 -91 
Q 1284 -91 818 406 
Q 353 903 353 1747 
Q 353 2603 823 3093 
Q 1294 3584 2113 3584 
Q 2378 3584 2631 3529 
Q 2884 3475 3122 3366 
z
" transform="scale(0.015625)"/>
       <path id="DejaVuSans-68" d="M 3513 2113 
L 3513 0 
L 2938 0 
L 2938 2094 
Q 2938 2591 2744 2837 
Q 2550 3084 2163 3084 
Q 1697 3084 1428 2787 
Q 1159 2491 1159 1978 
L 1159 0 
L 581 0 
L 581 4863 
L 1159 4863 
L 1159 2956 
Q 1366 3272 1645 3428 
Q 1925 3584 2291 3584 
Q 2894 3584 3203 3211 
Q 3513 2838 3513 2113 
z
" transform="scale(0.015625)"/>
      </defs>
      <use xlink:href="#DejaVuSans-45"/>
      <use xlink:href="#DejaVuSans-70" transform="translate(63.183594 0)"/>
      <use xlink:href="#DejaVuSans-6f" transform="translate(126.660156 0)"/>
      <use xlink:href="#DejaVuSans-63" transform="translate(187.841797 0)"/>
      <use xlink:href="#DejaVuSans-68" transform="translate(242.822266 0)"/>
     </g>
    </g>
   </g>
   <g id="matplotlib.axis_2">
    <g id="ytick_1">
     <g id="line2d_7">
      <defs>
       <path id="mce2e2e5df4" d="M 0 0 
L -3.5 0 
" style="stroke: #000000; stroke-width: 0.8"/>
      </defs>
      <g>
       <use xlink:href="#mce2e2e5df4" x="43.78125" y="352.159982" style="stroke: #000000; stroke-width: 0.8"/>
      </g>
     </g>
     <g id="text_8">
      <!-- 0.2 -->
      <g transform="translate(20.878125 355.959201) scale(0.1 -0.1)">
       <defs>
        <path id="DejaVuSans-2e" d="M 684 794 
L 1344 794 
L 1344 0 
L 684 0 
L 684 794 
z
" transform="scale(0.015625)"/>
       </defs>
       <use xlink:href="#DejaVuSans-30"/>
       <use xlink:href="#DejaVuSans-2e" transform="translate(63.623047 0)"/>
       <use xlink:href="#DejaVuSans-32" transform="translate(95.410156 0)"/>
      </g>
     </g>
    </g>
    <g id="ytick_2">
     <g id="line2d_8">
      <g>
       <use xlink:href="#mce2e2e5df4" x="43.78125" y="301.980153" style="stroke: #000000; stroke-width: 0.8"/>
      </g>
     </g>
     <g id="text_9">
      <!-- 0.4 -->
      <g transform="translate(20.878125 305.779372) scale(0.1 -0.1)">
       <use xlink:href="#DejaVuSans-30"/>
       <use xlink:href="#DejaVuSans-2e" transform="translate(63.623047 0)"/>
       <use xlink:href="#DejaVuSans-34" transform="translate(95.410156 0)"/>
      </g>
     </g>
    </g>
    <g id="ytick_3">
     <g id="line2d_9">
      <g>
       <use xlink:href="#mce2e2e5df4" x="43.78125" y="251.800323" style="stroke: #000000; stroke-width: 0.8"/>
      </g>
     </g>
     <g id="text_10">
      <!-- 0.6 -->
      <g transform="translate(20.878125 255.599542) scale(0.1 -0.1)">
       <use xlink:href="#DejaVuSans-30"/>
       <use xlink:href="#DejaVuSans-2e" transform="translate(63.623047 0)"/>
       <use xlink:href="#DejaVuSans-36" transform="translate(95.410156 0)"/>
      </g>
     </g>
    </g>
    <g id="ytick_4">
     <g id="line2d_10">
      <g>
       <use xlink:href="#mce2e2e5df4" x="43.78125" y="201.620494" style="stroke: #000000; stroke-width: 0.8"/>
      </g>
     </g>
     <g id="text_11">
      <!-- 0.8 -->
      <g transform="translate(20.878125 205.419713) scale(0.1 -0.1)">
       <use xlink:href="#DejaVuSans-30"/>
       <use xlink:href="#DejaVuSans-2e" transform="translate(63.623047 0)"/>
       <use xlink:href="#DejaVuSans-38" transform="translate(95.410156 0)"/>
      </g>
     </g>
    </g>
    <g id="ytick_5">
     <g id="line2d_11">
      <g>
       <use xlink:href="#mce2e2e5df4" x="43.78125" y="151.440664" style="stroke: #000000; stroke-width: 0.8"/>
      </g>
     </g>
     <g id="text_12">
      <!-- 1.0 -->
      <g transform="translate(20.878125 155.239883) scale(0.1 -0.1)">
       <use xlink:href="#DejaVuSans-31"/>
       <use xlink:href="#DejaVuSans-2e" transform="translate(63.623047 0)"/>
       <use xlink:href="#DejaVuSans-30" transform="translate(95.410156 0)"/>
      </g>
     </g>
    </g>
    <g id="ytick_6">
     <g id="line2d_12">
      <g>
       <use xlink:href="#mce2e2e5df4" x="43.78125" y="101.260835" style="stroke: #000000; stroke-width: 0.8"/>
      </g>
     </g>
     <g id="text_13">
      <!-- 1.2 -->
      <g transform="translate(20.878125 105.060054) scale(0.1 -0.1)">
       <use xlink:href="#DejaVuSans-31"/>
       <use xlink:href="#DejaVuSans-2e" transform="translate(63.623047 0)"/>
       <use xlink:href="#DejaVuSans-32" transform="translate(95.410156 0)"/>
      </g>
     </g>
    </g>
    <g id="ytick_7">
     <g id="line2d_13">
      <g>
       <use xlink:href="#mce2e2e5df4" x="43.78125" y="51.081005" style="stroke: #000000; stroke-width: 0.8"/>
      </g>
     </g>
     <g id="text_14">
      <!-- 1.4 -->
      <g transform="translate(20.878125 54.880224) scale(0.1 -0.1)">
       <use xlink:href="#DejaVuSans-31"/>
       <use xlink:href="#DejaVuSans-2e" transform="translate(63.623047 0)"/>
       <use xlink:href="#DejaVuSans-34" transform="translate(95.410156 0)"/>
      </g>
     </g>
    </g>
    <g id="text_15">
     <!-- Train Loss -->
     <g transform="translate(14.798438 228.448125) rotate(-90) scale(0.1 -0.1)">
      <defs>
       <path id="DejaVuSans-54" d="M -19 4666 
L 3928 4666 
L 3928 4134 
L 2272 4134 
L 2272 0 
L 1638 0 
L 1638 4134 
L -19 4134 
L -19 4666 
z
" transform="scale(0.015625)"/>
       <path id="DejaVuSans-72" d="M 2631 2963 
Q 2534 3019 2420 3045 
Q 2306 3072 2169 3072 
Q 1681 3072 1420 2755 
Q 1159 2438 1159 1844 
L 1159 0 
L 581 0 
L 581 3500 
L 1159 3500 
L 1159 2956 
Q 1341 3275 1631 3429 
Q 1922 3584 2338 3584 
Q 2397 3584 2469 3576 
Q 2541 3569 2628 3553 
L 2631 2963 
z
" transform="scale(0.015625)"/>
       <path id="DejaVuSans-61" d="M 2194 1759 
Q 1497 1759 1228 1600 
Q 959 1441 959 1056 
Q 959 750 1161 570 
Q 1363 391 1709 391 
Q 2188 391 2477 730 
Q 2766 1069 2766 1631 
L 2766 1759 
L 2194 1759 
z
M 3341 1997 
L 3341 0 
L 2766 0 
L 2766 531 
Q 2569 213 2275 61 
Q 1981 -91 1556 -91 
Q 1019 -91 701 211 
Q 384 513 384 1019 
Q 384 1609 779 1909 
Q 1175 2209 1959 2209 
L 2766 2209 
L 2766 2266 
Q 2766 2663 2505 2880 
Q 2244 3097 1772 3097 
Q 1472 3097 1187 3025 
Q 903 2953 641 2809 
L 641 3341 
Q 956 3463 1253 3523 
Q 1550 3584 1831 3584 
Q 2591 3584 2966 3190 
Q 3341 2797 3341 1997 
z
" transform="scale(0.015625)"/>
       <path id="DejaVuSans-69" d="M 603 3500 
L 1178 3500 
L 1178 0 
L 603 0 
L 603 3500 
z
M 603 4863 
L 1178 4863 
L 1178 4134 
L 603 4134 
L 603 4863 
z
" transform="scale(0.015625)"/>
       <path id="DejaVuSans-6e" d="M 3513 2113 
L 3513 0 
L 2938 0 
L 2938 2094 
Q 2938 2591 2744 2837 
Q 2550 3084 2163 3084 
Q 1697 3084 1428 2787 
Q 1159 2491 1159 1978 
L 1159 0 
L 581 0 
L 581 3500 
L 1159 3500 
L 1159 2956 
Q 1366 3272 1645 3428 
Q 1925 3584 2291 3584 
Q 2894 3584 3203 3211 
Q 3513 2838 3513 2113 
z
" transform="scale(0.015625)"/>
       <path id="DejaVuSans-20" transform="scale(0.015625)"/>
       <path id="DejaVuSans-4c" d="M 628 4666 
L 1259 4666 
L 1259 531 
L 3531 531 
L 3531 0 
L 628 0 
L 628 4666 
z
" transform="scale(0.015625)"/>
       <path id="DejaVuSans-73" d="M 2834 3397 
L 2834 2853 
Q 2591 2978 2328 3040 
Q 2066 3103 1784 3103 
Q 1356 3103 1142 2972 
Q 928 2841 928 2578 
Q 928 2378 1081 2264 
Q 1234 2150 1697 2047 
L 1894 2003 
Q 2506 1872 2764 1633 
Q 3022 1394 3022 966 
Q 3022 478 2636 193 
Q 2250 -91 1575 -91 
Q 1294 -91 989 -36 
Q 684 19 347 128 
L 347 722 
Q 666 556 975 473 
Q 1284 391 1588 391 
Q 1994 391 2212 530 
Q 2431 669 2431 922 
Q 2431 1156 2273 1281 
Q 2116 1406 1581 1522 
L 1381 1569 
Q 847 1681 609 1914 
Q 372 2147 372 2553 
Q 372 3047 722 3315 
Q 1072 3584 1716 3584 
Q 2034 3584 2315 3537 
Q 2597 3491 2834 3397 
z
" transform="scale(0.015625)"/>
      </defs>
      <use xlink:href="#DejaVuSans-54"/>
      <use xlink:href="#DejaVuSans-72" transform="translate(46.333984 0)"/>
      <use xlink:href="#DejaVuSans-61" transform="translate(87.447266 0)"/>
      <use xlink:href="#DejaVuSans-69" transform="translate(148.726562 0)"/>
      <use xlink:href="#DejaVuSans-6e" transform="translate(176.509766 0)"/>
      <use xlink:href="#DejaVuSans-20" transform="translate(239.888672 0)"/>
      <use xlink:href="#DejaVuSans-4c" transform="translate(271.675781 0)"/>
      <use xlink:href="#DejaVuSans-6f" transform="translate(325.638672 0)"/>
      <use xlink:href="#DejaVuSans-73" transform="translate(386.820312 0)"/>
      <use xlink:href="#DejaVuSans-73" transform="translate(438.919922 0)"/>
     </g>
    </g>
   </g>
   <g id="line2d_14">
    <path d="M 73.848523 40.401675 
L 79.922719 148.526152 
L 85.996916 179.961519 
L 92.071112 200.371523 
L 98.145309 209.092845 
L 104.219505 228.46169 
L 110.293702 237.578797 
L 116.367898 238.398812 
L 122.442095 237.727162 
L 128.516291 259.432575 
L 134.590488 261.512292 
L 140.664684 269.474447 
L 146.738881 272.700564 
L 152.813077 277.732017 
L 158.887274 269.121118 
L 164.96147 270.973345 
L 171.035667 285.412135 
L 177.109863 285.321182 
L 183.18406 284.803875 
L 189.258256 285.420318 
L 195.332453 290.395712 
L 201.406649 294.014926 
L 207.480846 306.374218 
L 213.555042 305.450569 
L 219.629239 308.343698 
L 225.703435 309.511725 
L 231.777632 305.686012 
L 237.851829 311.798044 
L 243.926025 316.015443 
L 250.000222 321.931089 
L 256.074418 314.769547 
L 262.148615 311.590899 
L 268.222811 319.565793 
L 274.297008 322.226205 
L 280.371204 322.789427 
L 286.445401 324.936457 
L 292.519597 321.215547 
L 298.593794 325.117789 
L 304.66799 329.277841 
L 310.742187 330.21937 
L 316.816383 328.8872 
L 322.89058 323.778485 
L 328.964776 328.583298 
L 335.038973 333.551195 
L 341.113169 335.923842 
L 347.187366 339.861307 
L 353.261562 333.338117 
L 359.335759 338.162952 
L 365.409955 331.033358 
L 371.484152 340.731775 
L 377.558348 336.702585 
L 383.632545 340.285146 
L 389.706741 341.180276 
L 395.780938 344.30705 
L 401.855134 342.070469 
L 407.929331 340.952096 
L 414.003527 342.173378 
L 420.077724 339.013788 
L 426.15192 345.572882 
L 432.226117 348.099061 
L 438.300313 345.846047 
L 444.37451 345.864407 
L 450.448706 348.909526 
L 456.522903 347.607902 
L 462.597099 341.97986 
L 468.671296 349.107916 
L 474.745492 352.119977 
L 480.819689 349.473348 
L 486.893885 348.092723 
L 492.968082 351.423953 
L 499.042278 349.026215 
L 505.116475 346.727341 
L 511.190671 345.482198 
L 517.264868 346.809743 
L 523.339065 347.780006 
L 529.413261 355.252138 
L 535.487458 351.264309 
L 541.561654 354.718898 
L 547.635851 351.357376 
L 553.710047 353.116948 
L 559.784244 354.973221 
L 565.85844 350.025033 
L 571.932637 356.916709 
L 578.006833 352.312948 
L 584.08103 354.542542 
L 590.155226 354.637312 
L 596.229423 354.348857 
L 602.303619 359.834944 
L 608.377816 347.041746 
L 614.452012 358.934666 
L 620.526209 350.206729 
L 626.600405 357.293511 
L 632.674602 358.970739 
L 638.748798 353.874165 
L 644.822995 360.014319 
L 650.897191 355.140061 
L 656.971388 360.938842 
L 663.045584 351.390037 
L 669.119781 357.657779 
L 675.193977 362.303204 
" clip-path="url(#p0981083b3a)" style="fill: none; stroke: #1f77b4; stroke-width: 1.5; stroke-linecap: square"/>
   </g>
   <g id="line2d_15">
    <path d="M 73.848523 56.648004 
L 79.922719 152.829189 
L 85.996916 171.37632 
L 92.071112 190.731294 
L 98.145309 198.190585 
L 104.219505 203.650138 
L 110.293702 209.861444 
L 116.367898 209.424409 
L 122.442095 211.998698 
L 128.516291 217.603586 
L 134.590488 221.076847 
L 140.664684 225.423708 
L 146.738881 224.537807 
L 152.813077 231.749414 
L 158.887274 235.733849 
L 164.96147 238.139926 
L 171.035667 232.960414 
L 177.109863 244.753158 
L 183.18406 247.982041 
L 189.258256 248.655705 
L 195.332453 250.563893 
L 201.406649 245.848223 
L 207.480846 256.383632 
L 213.555042 261.823317 
L 219.629239 262.146524 
L 225.703435 259.472725 
L 231.777632 266.920495 
L 237.851829 270.243693 
L 243.926025 270.76797 
L 250.000222 270.302215 
L 256.074418 275.977692 
L 262.148615 282.082791 
L 268.222811 280.671282 
L 274.297008 290.97557 
L 280.371204 309.972593 
L 286.445401 303.530642 
L 292.519597 308.309632 
L 298.593794 310.605681 
L 304.66799 311.013926 
L 310.742187 312.543265 
L 316.816383 319.174007 
L 322.89058 318.521978 
L 328.964776 321.252001 
L 335.038973 326.461128 
L 341.113169 329.567994 
L 347.187366 321.237944 
L 353.261562 317.932577 
L 359.335759 323.098945 
L 365.409955 330.560898 
L 371.484152 336.061185 
L 377.558348 334.150226 
L 383.632545 325.552705 
L 389.706741 332.28999 
L 395.780938 336.068509 
L 401.855134 335.594449 
L 407.929331 338.377831 
L 414.003527 341.013522 
L 420.077724 337.344932 
L 426.15192 339.643345 
L 432.226117 342.693968 
L 438.300313 338.313413 
L 444.37451 344.312496 
L 450.448706 345.995229 
L 456.522903 330.16952 
L 462.597099 340.654665 
L 468.671296 330.947022 
L 474.745492 338.280542 
L 480.819689 343.477147 
L 486.893885 343.748833 
L 492.968082 345.760889 
L 499.042278 353.65376 
L 505.116475 348.324045 
L 511.190671 351.605108 
L 517.264868 354.918301 
L 523.339065 346.427653 
L 529.413261 344.789791 
L 535.487458 350.236001 
L 541.561654 355.276457 
L 547.635851 352.442464 
L 553.710047 348.083858 
L 559.784244 354.096832 
L 565.85844 360.468821 
L 571.932637 361.165679 
L 578.006833 354.438041 
L 584.08103 354.998553 
L 590.155226 361.745311 
L 596.229423 357.452297 
L 602.303619 356.536515 
L 608.377816 350.894116 
L 614.452012 354.742765 
L 620.526209 353.732307 
L 626.600405 365.458752 
L 632.674602 349.657149 
L 638.748798 353.900041 
L 644.822995 355.412635 
L 650.897191 365.444032 
L 656.971388 363.995353 
L 663.045584 358.1051 
L 669.119781 351.839848 
L 675.193977 354.239551 
" clip-path="url(#p0981083b3a)" style="fill: none; stroke: #ff7f0e; stroke-width: 1.5; stroke-linecap: square"/>
   </g>
   <g id="line2d_16">
    <path d="M 73.848523 41.948913 
L 79.922719 134.071001 
L 85.996916 165.076475 
L 92.071112 188.416484 
L 98.145309 193.890781 
L 104.219505 204.400542 
L 110.293702 211.860387 
L 116.367898 232.960687 
L 122.442095 235.585373 
L 128.516291 249.287869 
L 134.590488 252.648402 
L 140.664684 258.204833 
L 146.738881 260.847308 
L 152.813077 269.878035 
L 158.887274 271.637805 
L 164.96147 274.708877 
L 171.035667 273.069948 
L 177.109863 282.8875 
L 183.18406 290.300845 
L 189.258256 291.133496 
L 195.332453 290.746526 
L 201.406649 295.048195 
L 207.480846 293.624733 
L 213.555042 292.091768 
L 219.629239 297.673626 
L 225.703435 296.73278 
L 231.777632 298.863038 
L 237.851829 302.998078 
L 243.926025 301.194193 
L 250.000222 302.684424 
L 256.074418 296.711632 
L 262.148615 303.955994 
L 268.222811 312.690126 
L 274.297008 306.14686 
L 280.371204 308.042918 
L 286.445401 308.636556 
L 292.519597 306.880532 
L 298.593794 313.686536 
L 304.66799 311.446337 
L 310.742187 315.266463 
L 316.816383 314.736268 
L 322.89058 316.456865 
L 328.964776 314.762862 
L 335.038973 317.040743 
L 341.113169 313.991109 
L 347.187366 317.824937 
L 353.261562 327.670404 
L 359.335759 324.732569 
L 365.409955 327.740801 
L 371.484152 322.784034 
L 377.558348 317.459658 
L 383.632545 323.771085 
L 389.706741 328.82751 
L 395.780938 331.697206 
L 401.855134 329.138501 
L 407.929331 329.380326 
L 414.003527 335.114635 
L 420.077724 328.654618 
L 426.15192 326.577868 
L 432.226117 333.635343 
L 438.300313 331.191084 
L 444.37451 337.677636 
L 450.448706 337.544546 
L 456.522903 340.805812 
L 462.597099 328.358764 
L 468.671296 332.961734 
L 474.745492 340.314102 
L 480.819689 342.133872 
L 486.893885 340.430277 
L 492.968082 345.945331 
L 499.042278 338.149677 
L 505.116475 338.364275 
L 511.190671 330.050142 
L 517.264868 345.357877 
L 523.339065 342.530596 
L 529.413261 344.387965 
L 535.487458 339.324649 
L 541.561654 345.237734 
L 547.635851 343.434281 
L 553.710047 346.416425 
L 559.784244 346.026075 
L 565.85844 345.349938 
L 571.932637 345.740175 
L 578.006833 349.428143 
L 584.08103 347.894417 
L 590.155226 344.581401 
L 596.229423 346.933931 
L 602.303619 353.547106 
L 608.377816 344.566507 
L 614.452012 351.954425 
L 620.526209 353.154299 
L 626.600405 348.861878 
L 632.674602 332.928547 
L 638.748798 345.080119 
L 644.822995 350.498118 
L 650.897191 353.07406 
L 656.971388 349.85044 
L 663.045584 356.729194 
L 669.119781 346.98618 
L 675.193977 350.883792 
" clip-path="url(#p0981083b3a)" style="fill: none; stroke: #2ca02c; stroke-width: 1.5; stroke-linecap: square"/>
   </g>
   <g id="line2d_17">
    <path d="M 73.848523 50.47504 
L 79.922719 133.666498 
L 85.996916 158.463128 
L 92.071112 171.845631 
L 98.145309 180.578947 
L 104.219505 194.620857 
L 110.293702 201.470715 
L 116.367898 212.971606 
L 122.442095 214.274471 
L 128.516291 230.158282 
L 134.590488 232.053693 
L 140.664684 241.070872 
L 146.738881 246.154192 
L 152.813077 254.953133 
L 158.887274 255.602422 
L 164.96147 259.540833 
L 171.035667 264.861577 
L 177.109863 271.27425 
L 183.18406 278.521283 
L 189.258256 278.428619 
L 195.332453 282.123118 
L 201.406649 293.975744 
L 207.480846 296.365073 
L 213.555042 297.953095 
L 219.629239 306.971598 
L 225.703435 303.666012 
L 231.777632 306.468133 
L 237.851829 311.428659 
L 243.926025 313.090562 
L 250.000222 318.72324 
L 256.074418 321.665935 
L 262.148615 317.627038 
L 268.222811 315.590166 
L 274.297008 318.670359 
L 280.371204 323.625865 
L 286.445401 327.626097 
L 292.519597 325.828983 
L 298.593794 331.436787 
L 304.66799 322.30298 
L 310.742187 322.102477 
L 316.816383 331.898244 
L 322.89058 333.729934 
L 328.964776 338.967751 
L 335.038973 333.748105 
L 341.113169 339.65977 
L 347.187366 334.27742 
L 353.261562 326.346124 
L 359.335759 330.705728 
L 365.409955 342.566612 
L 371.484152 339.42721 
L 377.558348 342.632232 
L 383.632545 344.23921 
L 389.706741 349.36684 
L 395.780938 344.565799 
L 401.855134 354.465537 
L 407.929331 345.535832 
L 414.003527 351.65179 
L 420.077724 353.709113 
L 426.15192 349.873039 
L 432.226117 344.998216 
L 438.300313 352.061125 
L 444.37451 348.455331 
L 450.448706 349.621898 
L 456.522903 357.051566 
L 462.597099 357.121655 
L 468.671296 360.643022 
L 474.745492 359.203979 
L 480.819689 357.181793 
L 486.893885 363.197101 
L 492.968082 350.251939 
L 499.042278 349.019275 
L 505.116475 351.513605 
L 511.190671 345.820884 
L 517.264868 352.544938 
L 523.339065 358.750094 
L 529.413261 361.953115 
L 535.487458 357.577496 
L 541.561654 358.498058 
L 547.635851 364.907734 
L 553.710047 361.246446 
L 559.784244 359.830916 
L 565.85844 354.313296 
L 571.932637 356.220325 
L 578.006833 364.946349 
L 584.08103 365.798665 
L 590.155226 365.036491 
L 596.229423 366.473311 
L 602.303619 362.189115 
L 608.377816 364.233115 
L 614.452012 358.326193 
L 620.526209 361.96216 
L 626.600405 363.845086 
L 632.674602 367.659861 
L 638.748798 365.331814 
L 644.822995 359.88285 
L 650.897191 352.729391 
L 656.971388 366.270476 
L 663.045584 361.135179 
L 669.119781 367.247682 
L 675.193977 368.970852 
" clip-path="url(#p0981083b3a)" style="fill: none; stroke: #d62728; stroke-width: 1.5; stroke-linecap: square"/>
   </g>
   <g id="line2d_18">
    <path d="M 73.848523 38.825398 
L 79.922719 149.786635 
L 85.996916 173.273627 
L 92.071112 202.392453 
L 98.145309 213.501877 
L 104.219505 215.07206 
L 110.293702 229.850742 
L 116.367898 226.152943 
L 122.442095 244.984709 
L 128.516291 254.957687 
L 134.590488 263.434874 
L 140.664684 269.668039 
L 146.738881 271.651387 
L 152.813077 280.890927 
L 158.887274 280.411534 
L 164.96147 280.882108 
L 171.035667 284.350098 
L 177.109863 290.927952 
L 183.18406 278.372749 
L 189.258256 284.870342 
L 195.332453 275.29611 
L 201.406649 280.71538 
L 207.480846 297.861214 
L 213.555042 299.305699 
L 219.629239 296.962298 
L 225.703435 299.612009 
L 231.777632 302.813914 
L 237.851829 307.045019 
L 243.926025 309.834084 
L 250.000222 305.414026 
L 256.074418 303.00771 
L 262.148615 310.24558 
L 268.222811 312.686544 
L 274.297008 316.514796 
L 280.371204 307.082757 
L 286.445401 305.072346 
L 292.519597 314.86089 
L 298.593794 314.928405 
L 304.66799 318.27053 
L 310.742187 310.94924 
L 316.816383 292.832604 
L 322.89058 306.761099 
L 328.964776 317.669302 
L 335.038973 326.554189 
L 341.113169 322.370381 
L 347.187366 325.539786 
L 353.261562 330.914904 
L 359.335759 330.68115 
L 365.409955 328.827118 
L 371.484152 330.243218 
L 377.558348 328.427222 
L 383.632545 328.549099 
L 389.706741 325.133903 
L 395.780938 339.921371 
L 401.855134 337.508228 
L 407.929331 334.156946 
L 414.003527 340.370474 
L 420.077724 337.78849 
L 426.15192 334.355871 
L 432.226117 325.490728 
L 438.300313 340.410836 
L 444.37451 341.10294 
L 450.448706 339.286011 
L 456.522903 346.49049 
L 462.597099 344.120302 
L 468.671296 347.192302 
L 474.745492 348.478079 
L 480.819689 349.000006 
L 486.893885 348.497183 
L 492.968082 346.487612 
L 499.042278 348.869469 
L 505.116475 344.172861 
L 511.190671 350.308721 
L 517.264868 348.473878 
L 523.339065 351.883206 
L 529.413261 348.736355 
L 535.487458 339.624616 
L 541.561654 350.054186 
L 547.635851 356.279916 
L 553.710047 353.472026 
L 559.784244 358.994867 
L 565.85844 351.854707 
L 571.932637 361.770894 
L 578.006833 355.231496 
L 584.08103 354.568686 
L 590.155226 359.916977 
L 596.229423 348.61948 
L 602.303619 360.914884 
L 608.377816 362.382977 
L 614.452012 356.960228 
L 620.526209 357.817048 
L 626.600405 362.665831 
L 632.674602 365.45038 
L 638.748798 360.562718 
L 644.822995 365.633501 
L 650.897191 352.949063 
L 656.971388 358.177634 
L 663.045584 355.372567 
L 669.119781 366.579869 
L 675.193977 365.107075 
" clip-path="url(#p0981083b3a)" style="fill: none; stroke: #9467bd; stroke-width: 1.5; stroke-linecap: square"/>
   </g>
   <g id="patch_3">
    <path d="M 43.78125 385.478125 
L 43.78125 22.318125 
" style="fill: none; stroke: #000000; stroke-width: 0.8; stroke-linejoin: miter; stroke-linecap: square"/>
   </g>
   <g id="patch_4">
    <path d="M 705.26125 385.478125 
L 705.26125 22.318125 
" style="fill: none; stroke: #000000; stroke-width: 0.8; stroke-linejoin: miter; stroke-linecap: square"/>
   </g>
   <g id="patch_5">
    <path d="M 43.78125 385.478125 
L 705.26125 385.478125 
" style="fill: none; stroke: #000000; stroke-width: 0.8; stroke-linejoin: miter; stroke-linecap: square"/>
   </g>
   <g id="patch_6">
    <path d="M 43.78125 22.318125 
L 705.26125 22.318125 
" style="fill: none; stroke: #000000; stroke-width: 0.8; stroke-linejoin: miter; stroke-linecap: square"/>
   </g>
   <g id="text_16">
    <!-- Combined Train Loss -->
    <g transform="translate(312.669688 16.318125) scale(0.12 -0.12)">
     <defs>
      <path id="DejaVuSans-43" d="M 4122 4306 
L 4122 3641 
Q 3803 3938 3442 4084 
Q 3081 4231 2675 4231 
Q 1875 4231 1450 3742 
Q 1025 3253 1025 2328 
Q 1025 1406 1450 917 
Q 1875 428 2675 428 
Q 3081 428 3442 575 
Q 3803 722 4122 1019 
L 4122 359 
Q 3791 134 3420 21 
Q 3050 -91 2638 -91 
Q 1578 -91 968 557 
Q 359 1206 359 2328 
Q 359 3453 968 4101 
Q 1578 4750 2638 4750 
Q 3056 4750 3426 4639 
Q 3797 4528 4122 4306 
z
" transform="scale(0.015625)"/>
      <path id="DejaVuSans-6d" d="M 3328 2828 
Q 3544 3216 3844 3400 
Q 4144 3584 4550 3584 
Q 5097 3584 5394 3201 
Q 5691 2819 5691 2113 
L 5691 0 
L 5113 0 
L 5113 2094 
Q 5113 2597 4934 2840 
Q 4756 3084 4391 3084 
Q 3944 3084 3684 2787 
Q 3425 2491 3425 1978 
L 3425 0 
L 2847 0 
L 2847 2094 
Q 2847 2600 2669 2842 
Q 2491 3084 2119 3084 
Q 1678 3084 1418 2786 
Q 1159 2488 1159 1978 
L 1159 0 
L 581 0 
L 581 3500 
L 1159 3500 
L 1159 2956 
Q 1356 3278 1631 3431 
Q 1906 3584 2284 3584 
Q 2666 3584 2933 3390 
Q 3200 3197 3328 2828 
z
" transform="scale(0.015625)"/>
      <path id="DejaVuSans-62" d="M 3116 1747 
Q 3116 2381 2855 2742 
Q 2594 3103 2138 3103 
Q 1681 3103 1420 2742 
Q 1159 2381 1159 1747 
Q 1159 1113 1420 752 
Q 1681 391 2138 391 
Q 2594 391 2855 752 
Q 3116 1113 3116 1747 
z
M 1159 2969 
Q 1341 3281 1617 3432 
Q 1894 3584 2278 3584 
Q 2916 3584 3314 3078 
Q 3713 2572 3713 1747 
Q 3713 922 3314 415 
Q 2916 -91 2278 -91 
Q 1894 -91 1617 61 
Q 1341 213 1159 525 
L 1159 0 
L 581 0 
L 581 4863 
L 1159 4863 
L 1159 2969 
z
" transform="scale(0.015625)"/>
      <path id="DejaVuSans-65" d="M 3597 1894 
L 3597 1613 
L 953 1613 
Q 991 1019 1311 708 
Q 1631 397 2203 397 
Q 2534 397 2845 478 
Q 3156 559 3463 722 
L 3463 178 
Q 3153 47 2828 -22 
Q 2503 -91 2169 -91 
Q 1331 -91 842 396 
Q 353 884 353 1716 
Q 353 2575 817 3079 
Q 1281 3584 2069 3584 
Q 2775 3584 3186 3129 
Q 3597 2675 3597 1894 
z
M 3022 2063 
Q 3016 2534 2758 2815 
Q 2500 3097 2075 3097 
Q 1594 3097 1305 2825 
Q 1016 2553 972 2059 
L 3022 2063 
z
" transform="scale(0.015625)"/>
      <path id="DejaVuSans-64" d="M 2906 2969 
L 2906 4863 
L 3481 4863 
L 3481 0 
L 2906 0 
L 2906 525 
Q 2725 213 2448 61 
Q 2172 -91 1784 -91 
Q 1150 -91 751 415 
Q 353 922 353 1747 
Q 353 2572 751 3078 
Q 1150 3584 1784 3584 
Q 2172 3584 2448 3432 
Q 2725 3281 2906 2969 
z
M 947 1747 
Q 947 1113 1208 752 
Q 1469 391 1925 391 
Q 2381 391 2643 752 
Q 2906 1113 2906 1747 
Q 2906 2381 2643 2742 
Q 2381 3103 1925 3103 
Q 1469 3103 1208 2742 
Q 947 2381 947 1747 
z
" transform="scale(0.015625)"/>
     </defs>
     <use xlink:href="#DejaVuSans-43"/>
     <use xlink:href="#DejaVuSans-6f" transform="translate(69.824219 0)"/>
     <use xlink:href="#DejaVuSans-6d" transform="translate(131.005859 0)"/>
     <use xlink:href="#DejaVuSans-62" transform="translate(228.417969 0)"/>
     <use xlink:href="#DejaVuSans-69" transform="translate(291.894531 0)"/>
     <use xlink:href="#DejaVuSans-6e" transform="translate(319.677734 0)"/>
     <use xlink:href="#DejaVuSans-65" transform="translate(383.056641 0)"/>
     <use xlink:href="#DejaVuSans-64" transform="translate(444.580078 0)"/>
     <use xlink:href="#DejaVuSans-20" transform="translate(508.056641 0)"/>
     <use xlink:href="#DejaVuSans-54" transform="translate(539.84375 0)"/>
     <use xlink:href="#DejaVuSans-72" transform="translate(586.177734 0)"/>
     <use xlink:href="#DejaVuSans-61" transform="translate(627.291016 0)"/>
     <use xlink:href="#DejaVuSans-69" transform="translate(688.570312 0)"/>
     <use xlink:href="#DejaVuSans-6e" transform="translate(716.353516 0)"/>
     <use xlink:href="#DejaVuSans-20" transform="translate(779.732422 0)"/>
     <use xlink:href="#DejaVuSans-4c" transform="translate(811.519531 0)"/>
     <use xlink:href="#DejaVuSans-6f" transform="translate(865.482422 0)"/>
     <use xlink:href="#DejaVuSans-73" transform="translate(926.664062 0)"/>
     <use xlink:href="#DejaVuSans-73" transform="translate(978.763672 0)"/>
    </g>
   </g>
   <g id="legend_1">
    <g id="patch_7">
     <path d="M 636.08625 103.70875 
L 698.26125 103.70875 
Q 700.26125 103.70875 700.26125 101.70875 
L 700.26125 29.318125 
Q 700.26125 27.318125 698.26125 27.318125 
L 636.08625 27.318125 
Q 634.08625 27.318125 634.08625 29.318125 
L 634.08625 101.70875 
Q 634.08625 103.70875 636.08625 103.70875 
z
" style="fill: #ffffff; opacity: 0.8; stroke: #cccccc; stroke-linejoin: miter"/>
    </g>
    <g id="line2d_19">
     <path d="M 638.08625 35.416562 
L 648.08625 35.416562 
L 658.08625 35.416562 
" style="fill: none; stroke: #1f77b4; stroke-width: 1.5; stroke-linecap: square"/>
    </g>
    <g id="text_17">
     <!-- Fold 1 -->
     <g transform="translate(666.08625 38.916562) scale(0.1 -0.1)">
      <defs>
       <path id="DejaVuSans-46" d="M 628 4666 
L 3309 4666 
L 3309 4134 
L 1259 4134 
L 1259 2759 
L 3109 2759 
L 3109 2228 
L 1259 2228 
L 1259 0 
L 628 0 
L 628 4666 
z
" transform="scale(0.015625)"/>
       <path id="DejaVuSans-6c" d="M 603 4863 
L 1178 4863 
L 1178 0 
L 603 0 
L 603 4863 
z
" transform="scale(0.015625)"/>
      </defs>
      <use xlink:href="#DejaVuSans-46"/>
      <use xlink:href="#DejaVuSans-6f" transform="translate(53.894531 0)"/>
      <use xlink:href="#DejaVuSans-6c" transform="translate(115.076172 0)"/>
      <use xlink:href="#DejaVuSans-64" transform="translate(142.859375 0)"/>
      <use xlink:href="#DejaVuSans-20" transform="translate(206.335938 0)"/>
      <use xlink:href="#DejaVuSans-31" transform="translate(238.123047 0)"/>
     </g>
    </g>
    <g id="line2d_20">
     <path d="M 638.08625 50.094688 
L 648.08625 50.094688 
L 658.08625 50.094688 
" style="fill: none; stroke: #ff7f0e; stroke-width: 1.5; stroke-linecap: square"/>
    </g>
    <g id="text_18">
     <!-- Fold 2 -->
     <g transform="translate(666.08625 53.594688) scale(0.1 -0.1)">
      <use xlink:href="#DejaVuSans-46"/>
      <use xlink:href="#DejaVuSans-6f" transform="translate(53.894531 0)"/>
      <use xlink:href="#DejaVuSans-6c" transform="translate(115.076172 0)"/>
      <use xlink:href="#DejaVuSans-64" transform="translate(142.859375 0)"/>
      <use xlink:href="#DejaVuSans-20" transform="translate(206.335938 0)"/>
      <use xlink:href="#DejaVuSans-32" transform="translate(238.123047 0)"/>
     </g>
    </g>
    <g id="line2d_21">
     <path d="M 638.08625 64.772812 
L 648.08625 64.772812 
L 658.08625 64.772812 
" style="fill: none; stroke: #2ca02c; stroke-width: 1.5; stroke-linecap: square"/>
    </g>
    <g id="text_19">
     <!-- Fold 3 -->
     <g transform="translate(666.08625 68.272812) scale(0.1 -0.1)">
      <defs>
       <path id="DejaVuSans-33" d="M 2597 2516 
Q 3050 2419 3304 2112 
Q 3559 1806 3559 1356 
Q 3559 666 3084 287 
Q 2609 -91 1734 -91 
Q 1441 -91 1130 -33 
Q 819 25 488 141 
L 488 750 
Q 750 597 1062 519 
Q 1375 441 1716 441 
Q 2309 441 2620 675 
Q 2931 909 2931 1356 
Q 2931 1769 2642 2001 
Q 2353 2234 1838 2234 
L 1294 2234 
L 1294 2753 
L 1863 2753 
Q 2328 2753 2575 2939 
Q 2822 3125 2822 3475 
Q 2822 3834 2567 4026 
Q 2313 4219 1838 4219 
Q 1578 4219 1281 4162 
Q 984 4106 628 3988 
L 628 4550 
Q 988 4650 1302 4700 
Q 1616 4750 1894 4750 
Q 2613 4750 3031 4423 
Q 3450 4097 3450 3541 
Q 3450 3153 3228 2886 
Q 3006 2619 2597 2516 
z
" transform="scale(0.015625)"/>
      </defs>
      <use xlink:href="#DejaVuSans-46"/>
      <use xlink:href="#DejaVuSans-6f" transform="translate(53.894531 0)"/>
      <use xlink:href="#DejaVuSans-6c" transform="translate(115.076172 0)"/>
      <use xlink:href="#DejaVuSans-64" transform="translate(142.859375 0)"/>
      <use xlink:href="#DejaVuSans-20" transform="translate(206.335938 0)"/>
      <use xlink:href="#DejaVuSans-33" transform="translate(238.123047 0)"/>
     </g>
    </g>
    <g id="line2d_22">
     <path d="M 638.08625 79.450938 
L 648.08625 79.450938 
L 658.08625 79.450938 
" style="fill: none; stroke: #d62728; stroke-width: 1.5; stroke-linecap: square"/>
    </g>
    <g id="text_20">
     <!-- Fold 4 -->
     <g transform="translate(666.08625 82.950938) scale(0.1 -0.1)">
      <use xlink:href="#DejaVuSans-46"/>
      <use xlink:href="#DejaVuSans-6f" transform="translate(53.894531 0)"/>
      <use xlink:href="#DejaVuSans-6c" transform="translate(115.076172 0)"/>
      <use xlink:href="#DejaVuSans-64" transform="translate(142.859375 0)"/>
      <use xlink:href="#DejaVuSans-20" transform="translate(206.335938 0)"/>
      <use xlink:href="#DejaVuSans-34" transform="translate(238.123047 0)"/>
     </g>
    </g>
    <g id="line2d_23">
     <path d="M 638.08625 94.129063 
L 648.08625 94.129063 
L 658.08625 94.129063 
" style="fill: none; stroke: #9467bd; stroke-width: 1.5; stroke-linecap: square"/>
    </g>
    <g id="text_21">
     <!-- Fold 5 -->
     <g transform="translate(666.08625 97.629063) scale(0.1 -0.1)">
      <defs>
       <path id="DejaVuSans-35" d="M 691 4666 
L 3169 4666 
L 3169 4134 
L 1269 4134 
L 1269 2991 
Q 1406 3038 1543 3061 
Q 1681 3084 1819 3084 
Q 2600 3084 3056 2656 
Q 3513 2228 3513 1497 
Q 3513 744 3044 326 
Q 2575 -91 1722 -91 
Q 1428 -91 1123 -41 
Q 819 9 494 109 
L 494 744 
Q 775 591 1075 516 
Q 1375 441 1709 441 
Q 2250 441 2565 725 
Q 2881 1009 2881 1497 
Q 2881 1984 2565 2268 
Q 2250 2553 1709 2553 
Q 1456 2553 1204 2497 
Q 953 2441 691 2322 
L 691 4666 
z
" transform="scale(0.015625)"/>
      </defs>
      <use xlink:href="#DejaVuSans-46"/>
      <use xlink:href="#DejaVuSans-6f" transform="translate(53.894531 0)"/>
      <use xlink:href="#DejaVuSans-6c" transform="translate(115.076172 0)"/>
      <use xlink:href="#DejaVuSans-64" transform="translate(142.859375 0)"/>
      <use xlink:href="#DejaVuSans-20" transform="translate(206.335938 0)"/>
      <use xlink:href="#DejaVuSans-35" transform="translate(238.123047 0)"/>
     </g>
    </g>
   </g>
  </g>
 </g>
 <defs>
  <clipPath id="p0981083b3a">
   <rect x="43.78125" y="22.318125" width="661.48" height="363.16"/>
  </clipPath>
 </defs>
</svg>
