<?xml version="1.0" encoding="utf-8" standalone="no"?>
<!DOCTYPE svg PUBLIC "-//W3C//DTD SVG 1.1//EN"
  "http://www.w3.org/Graphics/SVG/1.1/DTD/svg11.dtd">
<svg xmlns:xlink="http://www.w3.org/1999/xlink" width="712.61375pt" height="423.034375pt" viewBox="0 0 712.61375 423.034375" xmlns="http://www.w3.org/2000/svg" version="1.1">
 <metadata>
  <rdf:RDF xmlns:dc="http://purl.org/dc/elements/1.1/" xmlns:cc="http://creativecommons.org/ns#" xmlns:rdf="http://www.w3.org/1999/02/22-rdf-syntax-ns#">
   <cc:Work>
    <dc:type rdf:resource="http://purl.org/dc/dcmitype/StillImage"/>
    <dc:date>2025-06-27T19:21:49.877161</dc:date>
    <dc:format>image/svg+xml</dc:format>
    <dc:creator>
     <cc:Agent>
      <dc:title>Matplotlib v3.10.0, https://matplotlib.org/</dc:title>
     </cc:Agent>
    </dc:creator>
   </cc:Work>
  </rdf:RDF>
 </metadata>
 <defs>
  <style type="text/css">*{stroke-linejoin: round; stroke-linecap: butt}</style>
 </defs>
 <g id="figure_1">
  <g id="patch_1">
   <path d="M 0 423.034375 
L 712.61375 423.034375 
L 712.61375 0 
L 0 0 
z
" style="fill: #ffffff"/>
  </g>
  <g id="axes_1">
   <g id="patch_2">
    <path d="M 50.14375 385.478125 
L 705.41375 385.478125 
L 705.41375 22.318125 
L 50.14375 22.318125 
z
" style="fill: #ffffff"/>
   </g>
   <g id="matplotlib.axis_1">
    <g id="xtick_1">
     <g id="line2d_1">
      <defs>
       <path id="m51740d1b35" d="M 0 0 
L 0 3.5 
" style="stroke: #000000; stroke-width: 0.8"/>
      </defs>
      <g>
       <use xlink:href="#m51740d1b35" x="73.911578" y="385.478125" style="stroke: #000000; stroke-width: 0.8"/>
      </g>
     </g>
     <g id="text_1">
      <!-- 0 -->
      <g transform="translate(70.730328 400.076562) scale(0.1 -0.1)">
       <defs>
        <path id="DejaVuSans-30" d="M 2034 4250 
Q 1547 4250 1301 3770 
Q 1056 3291 1056 2328 
Q 1056 1369 1301 889 
Q 1547 409 2034 409 
Q 2525 409 2770 889 
Q 3016 1369 3016 2328 
Q 3016 3291 2770 3770 
Q 2525 4250 2034 4250 
z
M 2034 4750 
Q 2819 4750 3233 4129 
Q 3647 3509 3647 2328 
Q 3647 1150 3233 529 
Q 2819 -91 2034 -91 
Q 1250 -91 836 529 
Q 422 1150 422 2328 
Q 422 3509 836 4129 
Q 1250 4750 2034 4750 
z
" transform="scale(0.015625)"/>
       </defs>
       <use xlink:href="#DejaVuSans-30"/>
      </g>
     </g>
    </g>
    <g id="xtick_2">
     <g id="line2d_2">
      <g>
       <use xlink:href="#m51740d1b35" x="194.255013" y="385.478125" style="stroke: #000000; stroke-width: 0.8"/>
      </g>
     </g>
     <g id="text_2">
      <!-- 20 -->
      <g transform="translate(187.892513 400.076562) scale(0.1 -0.1)">
       <defs>
        <path id="DejaVuSans-32" d="M 1228 531 
L 3431 531 
L 3431 0 
L 469 0 
L 469 531 
Q 828 903 1448 1529 
Q 2069 2156 2228 2338 
Q 2531 2678 2651 2914 
Q 2772 3150 2772 3378 
Q 2772 3750 2511 3984 
Q 2250 4219 1831 4219 
Q 1534 4219 1204 4116 
Q 875 4013 500 3803 
L 500 4441 
Q 881 4594 1212 4672 
Q 1544 4750 1819 4750 
Q 2544 4750 2975 4387 
Q 3406 4025 3406 3419 
Q 3406 3131 3298 2873 
Q 3191 2616 2906 2266 
Q 2828 2175 2409 1742 
Q 1991 1309 1228 531 
z
" transform="scale(0.015625)"/>
       </defs>
       <use xlink:href="#DejaVuSans-32"/>
       <use xlink:href="#DejaVuSans-30" transform="translate(63.623047 0)"/>
      </g>
     </g>
    </g>
    <g id="xtick_3">
     <g id="line2d_3">
      <g>
       <use xlink:href="#m51740d1b35" x="314.598447" y="385.478125" style="stroke: #000000; stroke-width: 0.8"/>
      </g>
     </g>
     <g id="text_3">
      <!-- 40 -->
      <g transform="translate(308.235947 400.076562) scale(0.1 -0.1)">
       <defs>
        <path id="DejaVuSans-34" d="M 2419 4116 
L 825 1625 
L 2419 1625 
L 2419 4116 
z
M 2253 4666 
L 3047 4666 
L 3047 1625 
L 3713 1625 
L 3713 1100 
L 3047 1100 
L 3047 0 
L 2419 0 
L 2419 1100 
L 313 1100 
L 313 1709 
L 2253 4666 
z
" transform="scale(0.015625)"/>
       </defs>
       <use xlink:href="#DejaVuSans-34"/>
       <use xlink:href="#DejaVuSans-30" transform="translate(63.623047 0)"/>
      </g>
     </g>
    </g>
    <g id="xtick_4">
     <g id="line2d_4">
      <g>
       <use xlink:href="#m51740d1b35" x="434.941881" y="385.478125" style="stroke: #000000; stroke-width: 0.8"/>
      </g>
     </g>
     <g id="text_4">
      <!-- 60 -->
      <g transform="translate(428.579381 400.076562) scale(0.1 -0.1)">
       <defs>
        <path id="DejaVuSans-36" d="M 2113 2584 
Q 1688 2584 1439 2293 
Q 1191 2003 1191 1497 
Q 1191 994 1439 701 
Q 1688 409 2113 409 
Q 2538 409 2786 701 
Q 3034 994 3034 1497 
Q 3034 2003 2786 2293 
Q 2538 2584 2113 2584 
z
M 3366 4563 
L 3366 3988 
Q 3128 4100 2886 4159 
Q 2644 4219 2406 4219 
Q 1781 4219 1451 3797 
Q 1122 3375 1075 2522 
Q 1259 2794 1537 2939 
Q 1816 3084 2150 3084 
Q 2853 3084 3261 2657 
Q 3669 2231 3669 1497 
Q 3669 778 3244 343 
Q 2819 -91 2113 -91 
Q 1303 -91 875 529 
Q 447 1150 447 2328 
Q 447 3434 972 4092 
Q 1497 4750 2381 4750 
Q 2619 4750 2861 4703 
Q 3103 4656 3366 4563 
z
" transform="scale(0.015625)"/>
       </defs>
       <use xlink:href="#DejaVuSans-36"/>
       <use xlink:href="#DejaVuSans-30" transform="translate(63.623047 0)"/>
      </g>
     </g>
    </g>
    <g id="xtick_5">
     <g id="line2d_5">
      <g>
       <use xlink:href="#m51740d1b35" x="555.285316" y="385.478125" style="stroke: #000000; stroke-width: 0.8"/>
      </g>
     </g>
     <g id="text_5">
      <!-- 80 -->
      <g transform="translate(548.922816 400.076562) scale(0.1 -0.1)">
       <defs>
        <path id="DejaVuSans-38" d="M 2034 2216 
Q 1584 2216 1326 1975 
Q 1069 1734 1069 1313 
Q 1069 891 1326 650 
Q 1584 409 2034 409 
Q 2484 409 2743 651 
Q 3003 894 3003 1313 
Q 3003 1734 2745 1975 
Q 2488 2216 2034 2216 
z
M 1403 2484 
Q 997 2584 770 2862 
Q 544 3141 544 3541 
Q 544 4100 942 4425 
Q 1341 4750 2034 4750 
Q 2731 4750 3128 4425 
Q 3525 4100 3525 3541 
Q 3525 3141 3298 2862 
Q 3072 2584 2669 2484 
Q 3125 2378 3379 2068 
Q 3634 1759 3634 1313 
Q 3634 634 3220 271 
Q 2806 -91 2034 -91 
Q 1263 -91 848 271 
Q 434 634 434 1313 
Q 434 1759 690 2068 
Q 947 2378 1403 2484 
z
M 1172 3481 
Q 1172 3119 1398 2916 
Q 1625 2713 2034 2713 
Q 2441 2713 2670 2916 
Q 2900 3119 2900 3481 
Q 2900 3844 2670 4047 
Q 2441 4250 2034 4250 
Q 1625 4250 1398 4047 
Q 1172 3844 1172 3481 
z
" transform="scale(0.015625)"/>
       </defs>
       <use xlink:href="#DejaVuSans-38"/>
       <use xlink:href="#DejaVuSans-30" transform="translate(63.623047 0)"/>
      </g>
     </g>
    </g>
    <g id="xtick_6">
     <g id="line2d_6">
      <g>
       <use xlink:href="#m51740d1b35" x="675.62875" y="385.478125" style="stroke: #000000; stroke-width: 0.8"/>
      </g>
     </g>
     <g id="text_6">
      <!-- 100 -->
      <g transform="translate(666.085 400.076562) scale(0.1 -0.1)">
       <defs>
        <path id="DejaVuSans-31" d="M 794 531 
L 1825 531 
L 1825 4091 
L 703 3866 
L 703 4441 
L 1819 4666 
L 2450 4666 
L 2450 531 
L 3481 531 
L 3481 0 
L 794 0 
L 794 531 
z
" transform="scale(0.015625)"/>
       </defs>
       <use xlink:href="#DejaVuSans-31"/>
       <use xlink:href="#DejaVuSans-30" transform="translate(63.623047 0)"/>
       <use xlink:href="#DejaVuSans-30" transform="translate(127.246094 0)"/>
      </g>
     </g>
    </g>
    <g id="text_7">
     <!-- Epoch -->
     <g transform="translate(362.467813 413.754687) scale(0.1 -0.1)">
      <defs>
       <path id="DejaVuSans-45" d="M 628 4666 
L 3578 4666 
L 3578 4134 
L 1259 4134 
L 1259 2753 
L 3481 2753 
L 3481 2222 
L 1259 2222 
L 1259 531 
L 3634 531 
L 3634 0 
L 628 0 
L 628 4666 
z
" transform="scale(0.015625)"/>
       <path id="DejaVuSans-70" d="M 1159 525 
L 1159 -1331 
L 581 -1331 
L 581 3500 
L 1159 3500 
L 1159 2969 
Q 1341 3281 1617 3432 
Q 1894 3584 2278 3584 
Q 2916 3584 3314 3078 
Q 3713 2572 3713 1747 
Q 3713 922 3314 415 
Q 2916 -91 2278 -91 
Q 1894 -91 1617 61 
Q 1341 213 1159 525 
z
M 3116 1747 
Q 3116 2381 2855 2742 
Q 2594 3103 2138 3103 
Q 1681 3103 1420 2742 
Q 1159 2381 1159 1747 
Q 1159 1113 1420 752 
Q 1681 391 2138 391 
Q 2594 391 2855 752 
Q 3116 1113 3116 1747 
z
" transform="scale(0.015625)"/>
       <path id="DejaVuSans-6f" d="M 1959 3097 
Q 1497 3097 1228 2736 
Q 959 2375 959 1747 
Q 959 1119 1226 758 
Q 1494 397 1959 397 
Q 2419 397 2687 759 
Q 2956 1122 2956 1747 
Q 2956 2369 2687 2733 
Q 2419 3097 1959 3097 
z
M 1959 3584 
Q 2709 3584 3137 3096 
Q 3566 2609 3566 1747 
Q 3566 888 3137 398 
Q 2709 -91 1959 -91 
Q 1206 -91 779 398 
Q 353 888 353 1747 
Q 353 2609 779 3096 
Q 1206 3584 1959 3584 
z
" transform="scale(0.015625)"/>
       <path id="DejaVuSans-63" d="M 3122 3366 
L 3122 2828 
Q 2878 2963 2633 3030 
Q 2388 3097 2138 3097 
Q 1578 3097 1268 2742 
Q 959 2388 959 1747 
Q 959 1106 1268 751 
Q 1578 397 2138 397 
Q 2388 397 2633 464 
Q 2878 531 3122 666 
L 3122 134 
Q 2881 22 2623 -34 
Q 2366 -91 2075 -91 
Q 1284 -91 818 406 
Q 353 903 353 1747 
Q 353 2603 823 3093 
Q 1294 3584 2113 3584 
Q 2378 3584 2631 3529 
Q 2884 3475 3122 3366 
z
" transform="scale(0.015625)"/>
       <path id="DejaVuSans-68" d="M 3513 2113 
L 3513 0 
L 2938 0 
L 2938 2094 
Q 2938 2591 2744 2837 
Q 2550 3084 2163 3084 
Q 1697 3084 1428 2787 
Q 1159 2491 1159 1978 
L 1159 0 
L 581 0 
L 581 4863 
L 1159 4863 
L 1159 2956 
Q 1366 3272 1645 3428 
Q 1925 3584 2291 3584 
Q 2894 3584 3203 3211 
Q 3513 2838 3513 2113 
z
" transform="scale(0.015625)"/>
      </defs>
      <use xlink:href="#DejaVuSans-45"/>
      <use xlink:href="#DejaVuSans-70" transform="translate(63.183594 0)"/>
      <use xlink:href="#DejaVuSans-6f" transform="translate(126.660156 0)"/>
      <use xlink:href="#DejaVuSans-63" transform="translate(187.841797 0)"/>
      <use xlink:href="#DejaVuSans-68" transform="translate(242.822266 0)"/>
     </g>
    </g>
   </g>
   <g id="matplotlib.axis_2">
    <g id="ytick_1">
     <g id="line2d_7">
      <defs>
       <path id="m284c7134e6" d="M 0 0 
L -3.5 0 
" style="stroke: #000000; stroke-width: 0.8"/>
      </defs>
      <g>
       <use xlink:href="#m284c7134e6" x="50.14375" y="355.937787" style="stroke: #000000; stroke-width: 0.8"/>
      </g>
     </g>
     <g id="text_8">
      <!-- 0.25 -->
      <g transform="translate(20.878125 359.737005) scale(0.1 -0.1)">
       <defs>
        <path id="DejaVuSans-2e" d="M 684 794 
L 1344 794 
L 1344 0 
L 684 0 
L 684 794 
z
" transform="scale(0.015625)"/>
        <path id="DejaVuSans-35" d="M 691 4666 
L 3169 4666 
L 3169 4134 
L 1269 4134 
L 1269 2991 
Q 1406 3038 1543 3061 
Q 1681 3084 1819 3084 
Q 2600 3084 3056 2656 
Q 3513 2228 3513 1497 
Q 3513 744 3044 326 
Q 2575 -91 1722 -91 
Q 1428 -91 1123 -41 
Q 819 9 494 109 
L 494 744 
Q 775 591 1075 516 
Q 1375 441 1709 441 
Q 2250 441 2565 725 
Q 2881 1009 2881 1497 
Q 2881 1984 2565 2268 
Q 2250 2553 1709 2553 
Q 1456 2553 1204 2497 
Q 953 2441 691 2322 
L 691 4666 
z
" transform="scale(0.015625)"/>
       </defs>
       <use xlink:href="#DejaVuSans-30"/>
       <use xlink:href="#DejaVuSans-2e" transform="translate(63.623047 0)"/>
       <use xlink:href="#DejaVuSans-32" transform="translate(95.410156 0)"/>
       <use xlink:href="#DejaVuSans-35" transform="translate(159.033203 0)"/>
      </g>
     </g>
    </g>
    <g id="ytick_2">
     <g id="line2d_8">
      <g>
       <use xlink:href="#m284c7134e6" x="50.14375" y="302.749954" style="stroke: #000000; stroke-width: 0.8"/>
      </g>
     </g>
     <g id="text_9">
      <!-- 0.30 -->
      <g transform="translate(20.878125 306.549172) scale(0.1 -0.1)">
       <defs>
        <path id="DejaVuSans-33" d="M 2597 2516 
Q 3050 2419 3304 2112 
Q 3559 1806 3559 1356 
Q 3559 666 3084 287 
Q 2609 -91 1734 -91 
Q 1441 -91 1130 -33 
Q 819 25 488 141 
L 488 750 
Q 750 597 1062 519 
Q 1375 441 1716 441 
Q 2309 441 2620 675 
Q 2931 909 2931 1356 
Q 2931 1769 2642 2001 
Q 2353 2234 1838 2234 
L 1294 2234 
L 1294 2753 
L 1863 2753 
Q 2328 2753 2575 2939 
Q 2822 3125 2822 3475 
Q 2822 3834 2567 4026 
Q 2313 4219 1838 4219 
Q 1578 4219 1281 4162 
Q 984 4106 628 3988 
L 628 4550 
Q 988 4650 1302 4700 
Q 1616 4750 1894 4750 
Q 2613 4750 3031 4423 
Q 3450 4097 3450 3541 
Q 3450 3153 3228 2886 
Q 3006 2619 2597 2516 
z
" transform="scale(0.015625)"/>
       </defs>
       <use xlink:href="#DejaVuSans-30"/>
       <use xlink:href="#DejaVuSans-2e" transform="translate(63.623047 0)"/>
       <use xlink:href="#DejaVuSans-33" transform="translate(95.410156 0)"/>
       <use xlink:href="#DejaVuSans-30" transform="translate(159.033203 0)"/>
      </g>
     </g>
    </g>
    <g id="ytick_3">
     <g id="line2d_9">
      <g>
       <use xlink:href="#m284c7134e6" x="50.14375" y="249.562121" style="stroke: #000000; stroke-width: 0.8"/>
      </g>
     </g>
     <g id="text_10">
      <!-- 0.35 -->
      <g transform="translate(20.878125 253.361339) scale(0.1 -0.1)">
       <use xlink:href="#DejaVuSans-30"/>
       <use xlink:href="#DejaVuSans-2e" transform="translate(63.623047 0)"/>
       <use xlink:href="#DejaVuSans-33" transform="translate(95.410156 0)"/>
       <use xlink:href="#DejaVuSans-35" transform="translate(159.033203 0)"/>
      </g>
     </g>
    </g>
    <g id="ytick_4">
     <g id="line2d_10">
      <g>
       <use xlink:href="#m284c7134e6" x="50.14375" y="196.374288" style="stroke: #000000; stroke-width: 0.8"/>
      </g>
     </g>
     <g id="text_11">
      <!-- 0.40 -->
      <g transform="translate(20.878125 200.173506) scale(0.1 -0.1)">
       <use xlink:href="#DejaVuSans-30"/>
       <use xlink:href="#DejaVuSans-2e" transform="translate(63.623047 0)"/>
       <use xlink:href="#DejaVuSans-34" transform="translate(95.410156 0)"/>
       <use xlink:href="#DejaVuSans-30" transform="translate(159.033203 0)"/>
      </g>
     </g>
    </g>
    <g id="ytick_5">
     <g id="line2d_11">
      <g>
       <use xlink:href="#m284c7134e6" x="50.14375" y="143.186455" style="stroke: #000000; stroke-width: 0.8"/>
      </g>
     </g>
     <g id="text_12">
      <!-- 0.45 -->
      <g transform="translate(20.878125 146.985673) scale(0.1 -0.1)">
       <use xlink:href="#DejaVuSans-30"/>
       <use xlink:href="#DejaVuSans-2e" transform="translate(63.623047 0)"/>
       <use xlink:href="#DejaVuSans-34" transform="translate(95.410156 0)"/>
       <use xlink:href="#DejaVuSans-35" transform="translate(159.033203 0)"/>
      </g>
     </g>
    </g>
    <g id="ytick_6">
     <g id="line2d_12">
      <g>
       <use xlink:href="#m284c7134e6" x="50.14375" y="89.998622" style="stroke: #000000; stroke-width: 0.8"/>
      </g>
     </g>
     <g id="text_13">
      <!-- 0.50 -->
      <g transform="translate(20.878125 93.79784) scale(0.1 -0.1)">
       <use xlink:href="#DejaVuSans-30"/>
       <use xlink:href="#DejaVuSans-2e" transform="translate(63.623047 0)"/>
       <use xlink:href="#DejaVuSans-35" transform="translate(95.410156 0)"/>
       <use xlink:href="#DejaVuSans-30" transform="translate(159.033203 0)"/>
      </g>
     </g>
    </g>
    <g id="ytick_7">
     <g id="line2d_13">
      <g>
       <use xlink:href="#m284c7134e6" x="50.14375" y="36.810789" style="stroke: #000000; stroke-width: 0.8"/>
      </g>
     </g>
     <g id="text_14">
      <!-- 0.55 -->
      <g transform="translate(20.878125 40.610007) scale(0.1 -0.1)">
       <use xlink:href="#DejaVuSans-30"/>
       <use xlink:href="#DejaVuSans-2e" transform="translate(63.623047 0)"/>
       <use xlink:href="#DejaVuSans-35" transform="translate(95.410156 0)"/>
       <use xlink:href="#DejaVuSans-35" transform="translate(159.033203 0)"/>
      </g>
     </g>
    </g>
    <g id="text_15">
     <!-- Train Accuracy -->
     <g transform="translate(14.798438 240.309062) rotate(-90) scale(0.1 -0.1)">
      <defs>
       <path id="DejaVuSans-54" d="M -19 4666 
L 3928 4666 
L 3928 4134 
L 2272 4134 
L 2272 0 
L 1638 0 
L 1638 4134 
L -19 4134 
L -19 4666 
z
" transform="scale(0.015625)"/>
       <path id="DejaVuSans-72" d="M 2631 2963 
Q 2534 3019 2420 3045 
Q 2306 3072 2169 3072 
Q 1681 3072 1420 2755 
Q 1159 2438 1159 1844 
L 1159 0 
L 581 0 
L 581 3500 
L 1159 3500 
L 1159 2956 
Q 1341 3275 1631 3429 
Q 1922 3584 2338 3584 
Q 2397 3584 2469 3576 
Q 2541 3569 2628 3553 
L 2631 2963 
z
" transform="scale(0.015625)"/>
       <path id="DejaVuSans-61" d="M 2194 1759 
Q 1497 1759 1228 1600 
Q 959 1441 959 1056 
Q 959 750 1161 570 
Q 1363 391 1709 391 
Q 2188 391 2477 730 
Q 2766 1069 2766 1631 
L 2766 1759 
L 2194 1759 
z
M 3341 1997 
L 3341 0 
L 2766 0 
L 2766 531 
Q 2569 213 2275 61 
Q 1981 -91 1556 -91 
Q 1019 -91 701 211 
Q 384 513 384 1019 
Q 384 1609 779 1909 
Q 1175 2209 1959 2209 
L 2766 2209 
L 2766 2266 
Q 2766 2663 2505 2880 
Q 2244 3097 1772 3097 
Q 1472 3097 1187 3025 
Q 903 2953 641 2809 
L 641 3341 
Q 956 3463 1253 3523 
Q 1550 3584 1831 3584 
Q 2591 3584 2966 3190 
Q 3341 2797 3341 1997 
z
" transform="scale(0.015625)"/>
       <path id="DejaVuSans-69" d="M 603 3500 
L 1178 3500 
L 1178 0 
L 603 0 
L 603 3500 
z
M 603 4863 
L 1178 4863 
L 1178 4134 
L 603 4134 
L 603 4863 
z
" transform="scale(0.015625)"/>
       <path id="DejaVuSans-6e" d="M 3513 2113 
L 3513 0 
L 2938 0 
L 2938 2094 
Q 2938 2591 2744 2837 
Q 2550 3084 2163 3084 
Q 1697 3084 1428 2787 
Q 1159 2491 1159 1978 
L 1159 0 
L 581 0 
L 581 3500 
L 1159 3500 
L 1159 2956 
Q 1366 3272 1645 3428 
Q 1925 3584 2291 3584 
Q 2894 3584 3203 3211 
Q 3513 2838 3513 2113 
z
" transform="scale(0.015625)"/>
       <path id="DejaVuSans-20" transform="scale(0.015625)"/>
       <path id="DejaVuSans-41" d="M 2188 4044 
L 1331 1722 
L 3047 1722 
L 2188 4044 
z
M 1831 4666 
L 2547 4666 
L 4325 0 
L 3669 0 
L 3244 1197 
L 1141 1197 
L 716 0 
L 50 0 
L 1831 4666 
z
" transform="scale(0.015625)"/>
       <path id="DejaVuSans-75" d="M 544 1381 
L 544 3500 
L 1119 3500 
L 1119 1403 
Q 1119 906 1312 657 
Q 1506 409 1894 409 
Q 2359 409 2629 706 
Q 2900 1003 2900 1516 
L 2900 3500 
L 3475 3500 
L 3475 0 
L 2900 0 
L 2900 538 
Q 2691 219 2414 64 
Q 2138 -91 1772 -91 
Q 1169 -91 856 284 
Q 544 659 544 1381 
z
M 1991 3584 
L 1991 3584 
z
" transform="scale(0.015625)"/>
       <path id="DejaVuSans-79" d="M 2059 -325 
Q 1816 -950 1584 -1140 
Q 1353 -1331 966 -1331 
L 506 -1331 
L 506 -850 
L 844 -850 
Q 1081 -850 1212 -737 
Q 1344 -625 1503 -206 
L 1606 56 
L 191 3500 
L 800 3500 
L 1894 763 
L 2988 3500 
L 3597 3500 
L 2059 -325 
z
" transform="scale(0.015625)"/>
      </defs>
      <use xlink:href="#DejaVuSans-54"/>
      <use xlink:href="#DejaVuSans-72" transform="translate(46.333984 0)"/>
      <use xlink:href="#DejaVuSans-61" transform="translate(87.447266 0)"/>
      <use xlink:href="#DejaVuSans-69" transform="translate(148.726562 0)"/>
      <use xlink:href="#DejaVuSans-6e" transform="translate(176.509766 0)"/>
      <use xlink:href="#DejaVuSans-20" transform="translate(239.888672 0)"/>
      <use xlink:href="#DejaVuSans-41" transform="translate(271.675781 0)"/>
      <use xlink:href="#DejaVuSans-63" transform="translate(338.333984 0)"/>
      <use xlink:href="#DejaVuSans-63" transform="translate(393.314453 0)"/>
      <use xlink:href="#DejaVuSans-75" transform="translate(448.294922 0)"/>
      <use xlink:href="#DejaVuSans-72" transform="translate(511.673828 0)"/>
      <use xlink:href="#DejaVuSans-61" transform="translate(552.787109 0)"/>
      <use xlink:href="#DejaVuSans-63" transform="translate(614.066406 0)"/>
      <use xlink:href="#DejaVuSans-79" transform="translate(669.046875 0)"/>
     </g>
    </g>
   </g>
   <g id="line2d_14">
    <path d="M 79.92875 359.223646 
L 85.945922 355.129788 
L 91.963093 368.273227 
L 97.980265 356.853518 
L 103.997437 361.593775 
L 110.014609 355.776187 
L 116.03178 357.930849 
L 122.048952 361.378308 
L 128.066124 364.394835 
L 134.083295 358.361781 
L 140.100467 360.947376 
L 146.117639 352.75966 
L 152.134811 356.207119 
L 158.151982 360.947376 
L 164.169154 357.499917 
L 170.186326 357.068984 
L 176.203497 351.251397 
L 182.220669 357.068984 
L 188.237841 368.057761 
L 194.255013 357.28445 
L 200.272184 362.671106 
L 206.289356 352.113262 
L 212.306528 361.809241 
L 218.323699 354.052457 
L 224.340871 355.345255 
L 230.358043 361.378308 
L 236.375215 360.300977 
L 242.392386 351.03593 
L 248.409558 360.085511 
L 254.42673 360.947376 
L 260.443902 358.792714 
L 266.461073 368.919626 
L 272.478245 358.792714 
L 278.495417 358.361781 
L 284.512588 359.223646 
L 290.52976 356.207119 
L 296.546932 352.75966 
L 302.564104 362.024707 
L 308.581275 362.455639 
L 314.598447 362.024707 
L 320.615619 359.00818 
L 326.63279 356.638052 
L 332.649962 363.748437 
L 338.667134 358.792714 
L 344.684306 367.626828 
L 350.701477 357.930849 
L 356.718649 359.439113 
L 362.735821 355.129788 
L 368.752992 365.2567 
L 374.770164 364.610301 
L 380.787336 363.102038 
L 386.804508 363.963903 
L 392.821679 354.48339 
L 398.838851 360.73191 
L 404.856023 356.207119 
L 410.873194 360.947376 
L 416.890366 363.317504 
L 422.907538 365.472166 
L 428.92471 354.698856 
L 434.941881 361.593775 
L 440.959053 359.654579 
L 446.976225 353.406059 
L 452.993396 366.549497 
L 459.010568 364.825768 
L 465.02774 360.300977 
L 471.044912 357.28445 
L 477.062083 361.162842 
L 483.079255 355.776187 
L 489.096427 359.870045 
L 495.113598 365.2567 
L 501.13077 354.914322 
L 507.147942 359.00818 
L 513.165114 355.776187 
L 519.182285 358.146315 
L 525.199457 362.455639 
L 531.216629 362.886572 
L 537.233801 368.919626 
L 543.250972 360.300977 
L 549.268144 360.085511 
L 555.285316 363.748437 
L 561.302487 364.179369 
L 567.319659 361.809241 
L 573.336831 357.499917 
L 579.354003 358.792714 
L 585.371174 362.671106 
L 591.388346 356.638052 
L 597.405518 365.041234 
L 603.422689 365.2567 
L 609.439861 364.394835 
L 615.457033 362.455639 
L 621.474205 360.73191 
L 627.491376 361.809241 
L 633.508548 353.406059 
L 639.52572 358.361781 
L 645.542891 364.179369 
L 651.560063 366.334031 
L 657.577235 361.809241 
L 663.594407 364.825768 
L 669.611578 365.472166 
L 675.62875 349.312201 
" clip-path="url(#pd4d49eb0a4)" style="fill: none; stroke: #1f77b4; stroke-width: 1.5; stroke-linecap: square"/>
   </g>
   <g id="line2d_15">
    <path d="M 79.92875 216.154085 
L 85.945922 174.569108 
L 91.963093 171.983513 
L 97.980265 189.22081 
L 103.997437 247.181219 
L 110.014609 190.298141 
L 116.03178 181.894959 
L 122.048952 157.97821 
L 128.066124 173.922709 
L 134.083295 178.878432 
L 140.100467 173.491777 
L 146.117639 174.784574 
L 152.134811 176.939236 
L 158.151982 184.480553 
L 164.169154 170.906182 
L 170.186326 179.740297 
L 176.203497 167.243257 
L 182.220669 182.756823 
L 188.237841 194.607465 
L 194.255013 170.259783 
L 200.272184 187.281614 
L 206.289356 183.834154 
L 212.306528 212.49116 
L 218.323699 222.402605 
L 224.340871 189.651742 
L 230.358043 178.016567 
L 236.375215 163.580331 
L 242.392386 182.325891 
L 248.409558 204.949843 
L 254.42673 284.241407 
L 260.443902 240.070834 
L 266.461073 249.335881 
L 272.478245 220.46341 
L 278.495417 206.673572 
L 284.512588 225.419132 
L 290.52976 205.165309 
L 296.546932 188.143479 
L 302.564104 170.690716 
L 308.581275 148.28223 
L 314.598447 121.564421 
L 320.615619 160.994737 
L 326.63279 156.469946 
L 332.649962 127.382008 
L 338.667134 140.525447 
L 344.684306 107.559117 
L 350.701477 119.194293 
L 356.718649 100.664199 
L 362.735821 121.133488 
L 368.752992 115.9623 
L 374.770164 147.635832 
L 380.787336 130.614002 
L 386.804508 106.912719 
L 392.821679 95.062078 
L 398.838851 70.067998 
L 404.856023 85.366098 
L 410.873194 63.604011 
L 416.890366 123.503617 
L 422.907538 90.537287 
L 428.92471 103.034327 
L 434.941881 116.393232 
L 440.959053 86.227963 
L 446.976225 104.327124 
L 452.993396 79.979443 
L 459.010568 38.825398 
L 465.02774 141.818244 
L 471.044912 144.188373 
L 477.062083 128.674806 
L 483.079255 148.928629 
L 489.096427 131.691333 
L 495.113598 129.321204 
L 501.13077 112.51484 
L 507.147942 105.188989 
L 513.165114 128.028407 
L 519.182285 126.304677 
L 525.199457 131.044934 
L 531.216629 159.271007 
L 537.233801 115.9623 
L 543.250972 122.857218 
L 549.268144 123.719083 
L 555.285316 125.01188 
L 561.302487 139.663582 
L 567.319659 157.331811 
L 573.336831 148.928629 
L 579.354003 174.569108 
L 585.371174 155.608081 
L 591.388346 157.547277 
L 597.405518 155.177149 
L 603.422689 153.668886 
L 609.439861 156.900879 
L 615.457033 165.734993 
L 621.474205 168.536054 
L 627.491376 125.873745 
L 633.508548 133.845995 
L 639.52572 145.912102 
L 645.542891 165.734993 
L 651.560063 166.596858 
L 657.577235 146.989433 
L 663.594407 149.575028 
L 669.611578 148.497697 
L 675.62875 138.370785 
" clip-path="url(#pd4d49eb0a4)" style="fill: none; stroke: #ff7f0e; stroke-width: 1.5; stroke-linecap: square"/>
   </g>
   <g id="line2d_16">
    <path d="M 79.92875 227.007377 
L 85.945922 211.927797 
L 91.963093 215.159136 
L 97.980265 231.746674 
L 103.997437 219.467587 
L 110.014609 249.626747 
L 116.03178 217.097939 
L 122.048952 213.435755 
L 128.066124 196.20195 
L 134.083295 195.555682 
L 140.100467 165.181099 
L 146.117639 200.294978 
L 152.134811 189.093005 
L 158.151982 185.215398 
L 164.169154 193.186034 
L 170.186326 187.369624 
L 176.203497 166.473635 
L 182.220669 222.268081 
L 188.237841 211.927797 
L 194.255013 206.326811 
L 200.272184 198.356175 
L 206.289356 205.895965 
L 212.306528 197.92533 
L 218.323699 187.369624 
L 224.340871 191.24723 
L 230.358043 192.970611 
L 236.375215 232.392942 
L 242.392386 184.353708 
L 248.409558 181.337792 
L 254.42673 177.675608 
L 260.443902 187.369624 
L 266.461073 168.412438 
L 272.478245 188.231314 
L 278.495417 169.489551 
L 284.512588 162.380606 
L 290.52976 147.085603 
L 296.546932 169.920396 
L 302.564104 159.795535 
L 308.581275 160.010958 
L 314.598447 194.909414 
L 320.615619 162.811451 
L 326.63279 186.938779 
L 332.649962 185.646244 
L 338.667134 183.276595 
L 344.684306 178.968144 
L 350.701477 185.215398 
L 356.718649 184.784553 
L 362.735821 151.609477 
L 368.752992 149.886097 
L 374.770164 154.194548 
L 380.787336 153.332858 
L 386.804508 142.130884 
L 392.821679 173.58258 
L 398.838851 195.124837 
L 404.856023 181.337792 
L 410.873194 219.898433 
L 416.890366 189.52385 
L 422.907538 192.755188 
L 428.92471 202.233782 
L 434.941881 158.933845 
L 440.959053 169.920396 
L 446.976225 180.476102 
L 452.993396 178.968144 
L 459.010568 172.074622 
L 465.02774 165.827367 
L 471.044912 157.425887 
L 477.062083 177.244763 
L 483.079255 160.657225 
L 489.096427 186.723356 
L 495.113598 183.276595 
L 501.13077 174.228847 
L 507.147942 181.98406 
L 513.165114 183.061173 
L 519.182285 186.723356 
L 525.199457 187.585047 
L 531.216629 187.369624 
L 537.233801 233.039209 
L 543.250972 195.340259 
L 549.268144 194.047724 
L 555.285316 192.970611 
L 561.302487 196.417372 
L 567.319659 189.093005 
L 573.336831 180.906947 
L 579.354003 177.244763 
L 585.371174 183.061173 
L 591.388346 188.015892 
L 597.405518 178.537299 
L 603.422689 195.340259 
L 609.439861 197.06364 
L 615.457033 172.290044 
L 621.474205 185.430821 
L 627.491376 165.827367 
L 633.508548 168.412438 
L 639.52572 175.952228 
L 645.542891 166.90448 
L 651.560063 172.936312 
L 657.577235 169.920396 
L 663.594407 177.891031 
L 669.611578 175.30596 
L 675.62875 160.441803 
" clip-path="url(#pd4d49eb0a4)" style="fill: none; stroke: #2ca02c; stroke-width: 1.5; stroke-linecap: square"/>
   </g>
   <g id="line2d_17">
    <path d="M 79.92875 242.517803 
L 85.945922 150.96321 
L 91.963093 210.204417 
L 97.980265 144.28511 
L 103.997437 172.290044 
L 110.014609 167.335325 
L 116.03178 114.12595 
L 122.048952 125.112501 
L 128.066124 113.695105 
L 134.083295 110.679189 
L 140.100467 98.184679 
L 146.117639 96.245876 
L 152.134811 71.256858 
L 158.151982 67.379252 
L 164.169154 115.203063 
L 170.186326 114.12595 
L 176.203497 106.58616 
L 182.220669 129.636375 
L 188.237841 67.163829 
L 194.255013 53.376784 
L 200.272184 74.272774 
L 206.289356 104.216511 
L 212.306528 78.15038 
L 218.323699 108.524963 
L 224.340871 141.700039 
L 230.358043 116.064753 
L 236.375215 141.915462 
L 242.392386 134.160249 
L 248.409558 124.466233 
L 254.42673 114.12595 
L 260.443902 84.613057 
L 266.461073 140.192081 
L 272.478245 124.035388 
L 278.495417 118.649824 
L 284.512588 116.926443 
L 290.52976 112.402569 
L 296.546932 108.524963 
L 302.564104 101.416018 
L 308.581275 51.222559 
L 314.598447 154.625393 
L 320.615619 148.593561 
L 326.63279 163.888564 
L 332.649962 150.96321 
L 338.667134 129.420952 
L 344.684306 194.478569 
L 350.701477 164.319409 
L 356.718649 156.995042 
L 362.735821 169.274128 
L 368.752992 192.539766 
L 374.770164 213.220333 
L 380.787336 243.810338 
L 386.804508 202.233782 
L 392.821679 206.111388 
L 398.838851 233.685477 
L 404.856023 241.225267 
L 410.873194 229.161603 
L 416.890366 247.041677 
L 422.907538 239.501887 
L 428.92471 245.102873 
L 434.941881 259.751608 
L 440.959053 255.227734 
L 446.976225 230.023293 
L 452.993396 239.501887 
L 459.010568 230.238716 
L 465.02774 229.377026 
L 471.044912 213.435755 
L 477.062083 220.760123 
L 483.079255 215.374559 
L 489.096427 181.553215 
L 495.113598 166.473635 
L 501.13077 140.838349 
L 507.147942 141.700039 
L 513.165114 211.712375 
L 519.182285 179.398989 
L 525.199457 183.061173 
L 531.216629 174.013425 
L 537.233801 139.545813 
L 543.250972 116.711021 
L 549.268144 141.269194 
L 555.285316 184.138286 
L 561.302487 180.260679 
L 567.319659 167.76617 
L 573.336831 166.473635 
L 579.354003 208.911881 
L 585.371174 179.183566 
L 591.388346 189.52385 
L 597.405518 162.380606 
L 603.422689 141.700039 
L 609.439861 150.96321 
L 615.457033 144.28511 
L 621.474205 157.210464 
L 627.491376 165.827367 
L 633.508548 157.425887 
L 639.52572 167.119902 
L 645.542891 169.489551 
L 651.560063 166.258212 
L 657.577235 169.704973 
L 663.594407 168.412438 
L 669.611578 170.782086 
L 675.62875 149.670674 
" clip-path="url(#pd4d49eb0a4)" style="fill: none; stroke: #d62728; stroke-width: 1.5; stroke-linecap: square"/>
   </g>
   <g id="line2d_18">
    <path d="M 79.92875 257.166537 
L 85.945922 244.456606 
L 91.963093 207.188501 
L 97.980265 201.587514 
L 103.997437 201.156669 
L 110.014609 199.433288 
L 116.03178 206.111388 
L 122.048952 214.512868 
L 128.066124 205.46512 
L 134.083295 205.249698 
L 140.100467 199.648711 
L 146.117639 189.52385 
L 152.134811 194.047724 
L 158.151982 194.263146 
L 164.169154 191.24723 
L 170.186326 200.079556 
L 176.203497 183.70744 
L 182.220669 179.183566 
L 188.237841 182.84575 
L 194.255013 181.98406 
L 200.272184 170.997509 
L 206.289356 199.433288 
L 212.306528 239.071041 
L 218.323699 242.948648 
L 224.340871 241.009845 
L 230.358043 260.397876 
L 236.375215 246.826254 
L 242.392386 244.241183 
L 248.409558 236.701393 
L 254.42673 234.978013 
L 260.443902 239.071041 
L 266.461073 233.9009 
L 272.478245 237.563083 
L 278.495417 235.193435 
L 284.512588 251.780973 
L 290.52976 254.581467 
L 296.546932 244.456606 
L 302.564104 236.701393 
L 308.581275 240.148154 
L 314.598447 237.563083 
L 320.615619 243.379493 
L 326.63279 241.656112 
L 332.649962 286.464007 
L 338.667134 364.446978 
L 344.684306 364.231556 
L 350.701477 360.569372 
L 356.718649 363.154443 
L 362.735821 368.970852 
L 368.752992 356.907188 
L 374.770164 359.492259 
L 380.787336 353.67585 
L 386.804508 238.209351 
L 392.821679 278.062527 
L 398.838851 272.892385 
L 404.856023 250.273015 
L 410.873194 219.898433 
L 416.890366 228.299913 
L 422.907538 220.760123 
L 428.92471 254.366044 
L 434.941881 231.531251 
L 440.959053 226.576532 
L 446.976225 222.268081 
L 452.993396 226.791955 
L 459.010568 223.560616 
L 465.02774 225.714842 
L 471.044912 221.190968 
L 477.062083 234.547167 
L 483.079255 247.687944 
L 489.096427 242.948648 
L 495.113598 233.039209 
L 501.13077 229.592448 
L 507.147942 308.006264 
L 513.165114 290.557036 
L 519.182285 226.576532 
L 525.199457 238.209351 
L 531.216629 241.656112 
L 537.233801 226.36111 
L 543.250972 216.236249 
L 549.268144 223.345194 
L 555.285316 234.116322 
L 561.302487 242.948648 
L 567.319659 317.915703 
L 573.336831 225.283997 
L 579.354003 227.007377 
L 585.371174 232.608364 
L 591.388346 232.608364 
L 597.405518 249.411325 
L 603.422689 238.640196 
L 609.439861 237.778506 
L 615.457033 255.874002 
L 621.474205 259.751608 
L 627.491376 263.629215 
L 633.508548 247.903367 
L 639.52572 255.227734 
L 645.542891 256.089425 
L 651.560063 254.366044 
L 657.577235 283.448091 
L 663.594407 320.500774 
L 669.611578 314.684364 
L 675.62875 267.291398 
" clip-path="url(#pd4d49eb0a4)" style="fill: none; stroke: #9467bd; stroke-width: 1.5; stroke-linecap: square"/>
   </g>
   <g id="patch_3">
    <path d="M 50.14375 385.478125 
L 50.14375 22.318125 
" style="fill: none; stroke: #000000; stroke-width: 0.8; stroke-linejoin: miter; stroke-linecap: square"/>
   </g>
   <g id="patch_4">
    <path d="M 705.41375 385.478125 
L 705.41375 22.318125 
" style="fill: none; stroke: #000000; stroke-width: 0.8; stroke-linejoin: miter; stroke-linecap: square"/>
   </g>
   <g id="patch_5">
    <path d="M 50.14375 385.478125 
L 705.41375 385.478125 
" style="fill: none; stroke: #000000; stroke-width: 0.8; stroke-linejoin: miter; stroke-linecap: square"/>
   </g>
   <g id="patch_6">
    <path d="M 50.14375 22.318125 
L 705.41375 22.318125 
" style="fill: none; stroke: #000000; stroke-width: 0.8; stroke-linejoin: miter; stroke-linecap: square"/>
   </g>
   <g id="text_16">
    <!-- Combined Train Accuracy -->
    <g transform="translate(301.694063 16.318125) scale(0.12 -0.12)">
     <defs>
      <path id="DejaVuSans-43" d="M 4122 4306 
L 4122 3641 
Q 3803 3938 3442 4084 
Q 3081 4231 2675 4231 
Q 1875 4231 1450 3742 
Q 1025 3253 1025 2328 
Q 1025 1406 1450 917 
Q 1875 428 2675 428 
Q 3081 428 3442 575 
Q 3803 722 4122 1019 
L 4122 359 
Q 3791 134 3420 21 
Q 3050 -91 2638 -91 
Q 1578 -91 968 557 
Q 359 1206 359 2328 
Q 359 3453 968 4101 
Q 1578 4750 2638 4750 
Q 3056 4750 3426 4639 
Q 3797 4528 4122 4306 
z
" transform="scale(0.015625)"/>
      <path id="DejaVuSans-6d" d="M 3328 2828 
Q 3544 3216 3844 3400 
Q 4144 3584 4550 3584 
Q 5097 3584 5394 3201 
Q 5691 2819 5691 2113 
L 5691 0 
L 5113 0 
L 5113 2094 
Q 5113 2597 4934 2840 
Q 4756 3084 4391 3084 
Q 3944 3084 3684 2787 
Q 3425 2491 3425 1978 
L 3425 0 
L 2847 0 
L 2847 2094 
Q 2847 2600 2669 2842 
Q 2491 3084 2119 3084 
Q 1678 3084 1418 2786 
Q 1159 2488 1159 1978 
L 1159 0 
L 581 0 
L 581 3500 
L 1159 3500 
L 1159 2956 
Q 1356 3278 1631 3431 
Q 1906 3584 2284 3584 
Q 2666 3584 2933 3390 
Q 3200 3197 3328 2828 
z
" transform="scale(0.015625)"/>
      <path id="DejaVuSans-62" d="M 3116 1747 
Q 3116 2381 2855 2742 
Q 2594 3103 2138 3103 
Q 1681 3103 1420 2742 
Q 1159 2381 1159 1747 
Q 1159 1113 1420 752 
Q 1681 391 2138 391 
Q 2594 391 2855 752 
Q 3116 1113 3116 1747 
z
M 1159 2969 
Q 1341 3281 1617 3432 
Q 1894 3584 2278 3584 
Q 2916 3584 3314 3078 
Q 3713 2572 3713 1747 
Q 3713 922 3314 415 
Q 2916 -91 2278 -91 
Q 1894 -91 1617 61 
Q 1341 213 1159 525 
L 1159 0 
L 581 0 
L 581 4863 
L 1159 4863 
L 1159 2969 
z
" transform="scale(0.015625)"/>
      <path id="DejaVuSans-65" d="M 3597 1894 
L 3597 1613 
L 953 1613 
Q 991 1019 1311 708 
Q 1631 397 2203 397 
Q 2534 397 2845 478 
Q 3156 559 3463 722 
L 3463 178 
Q 3153 47 2828 -22 
Q 2503 -91 2169 -91 
Q 1331 -91 842 396 
Q 353 884 353 1716 
Q 353 2575 817 3079 
Q 1281 3584 2069 3584 
Q 2775 3584 3186 3129 
Q 3597 2675 3597 1894 
z
M 3022 2063 
Q 3016 2534 2758 2815 
Q 2500 3097 2075 3097 
Q 1594 3097 1305 2825 
Q 1016 2553 972 2059 
L 3022 2063 
z
" transform="scale(0.015625)"/>
      <path id="DejaVuSans-64" d="M 2906 2969 
L 2906 4863 
L 3481 4863 
L 3481 0 
L 2906 0 
L 2906 525 
Q 2725 213 2448 61 
Q 2172 -91 1784 -91 
Q 1150 -91 751 415 
Q 353 922 353 1747 
Q 353 2572 751 3078 
Q 1150 3584 1784 3584 
Q 2172 3584 2448 3432 
Q 2725 3281 2906 2969 
z
M 947 1747 
Q 947 1113 1208 752 
Q 1469 391 1925 391 
Q 2381 391 2643 752 
Q 2906 1113 2906 1747 
Q 2906 2381 2643 2742 
Q 2381 3103 1925 3103 
Q 1469 3103 1208 2742 
Q 947 2381 947 1747 
z
" transform="scale(0.015625)"/>
     </defs>
     <use xlink:href="#DejaVuSans-43"/>
     <use xlink:href="#DejaVuSans-6f" transform="translate(69.824219 0)"/>
     <use xlink:href="#DejaVuSans-6d" transform="translate(131.005859 0)"/>
     <use xlink:href="#DejaVuSans-62" transform="translate(228.417969 0)"/>
     <use xlink:href="#DejaVuSans-69" transform="translate(291.894531 0)"/>
     <use xlink:href="#DejaVuSans-6e" transform="translate(319.677734 0)"/>
     <use xlink:href="#DejaVuSans-65" transform="translate(383.056641 0)"/>
     <use xlink:href="#DejaVuSans-64" transform="translate(444.580078 0)"/>
     <use xlink:href="#DejaVuSans-20" transform="translate(508.056641 0)"/>
     <use xlink:href="#DejaVuSans-54" transform="translate(539.84375 0)"/>
     <use xlink:href="#DejaVuSans-72" transform="translate(586.177734 0)"/>
     <use xlink:href="#DejaVuSans-61" transform="translate(627.291016 0)"/>
     <use xlink:href="#DejaVuSans-69" transform="translate(688.570312 0)"/>
     <use xlink:href="#DejaVuSans-6e" transform="translate(716.353516 0)"/>
     <use xlink:href="#DejaVuSans-20" transform="translate(779.732422 0)"/>
     <use xlink:href="#DejaVuSans-41" transform="translate(811.519531 0)"/>
     <use xlink:href="#DejaVuSans-63" transform="translate(878.177734 0)"/>
     <use xlink:href="#DejaVuSans-63" transform="translate(933.158203 0)"/>
     <use xlink:href="#DejaVuSans-75" transform="translate(988.138672 0)"/>
     <use xlink:href="#DejaVuSans-72" transform="translate(1051.517578 0)"/>
     <use xlink:href="#DejaVuSans-61" transform="translate(1092.630859 0)"/>
     <use xlink:href="#DejaVuSans-63" transform="translate(1153.910156 0)"/>
     <use xlink:href="#DejaVuSans-79" transform="translate(1208.890625 0)"/>
    </g>
   </g>
   <g id="legend_1">
    <g id="patch_7">
     <path d="M 636.23875 103.70875 
L 698.41375 103.70875 
Q 700.41375 103.70875 700.41375 101.70875 
L 700.41375 29.318125 
Q 700.41375 27.318125 698.41375 27.318125 
L 636.23875 27.318125 
Q 634.23875 27.318125 634.23875 29.318125 
L 634.23875 101.70875 
Q 634.23875 103.70875 636.23875 103.70875 
z
" style="fill: #ffffff; opacity: 0.8; stroke: #cccccc; stroke-linejoin: miter"/>
    </g>
    <g id="line2d_19">
     <path d="M 638.23875 35.416562 
L 648.23875 35.416562 
L 658.23875 35.416562 
" style="fill: none; stroke: #1f77b4; stroke-width: 1.5; stroke-linecap: square"/>
    </g>
    <g id="text_17">
     <!-- Fold 1 -->
     <g transform="translate(666.23875 38.916562) scale(0.1 -0.1)">
      <defs>
       <path id="DejaVuSans-46" d="M 628 4666 
L 3309 4666 
L 3309 4134 
L 1259 4134 
L 1259 2759 
L 3109 2759 
L 3109 2228 
L 1259 2228 
L 1259 0 
L 628 0 
L 628 4666 
z
" transform="scale(0.015625)"/>
       <path id="DejaVuSans-6c" d="M 603 4863 
L 1178 4863 
L 1178 0 
L 603 0 
L 603 4863 
z
" transform="scale(0.015625)"/>
      </defs>
      <use xlink:href="#DejaVuSans-46"/>
      <use xlink:href="#DejaVuSans-6f" transform="translate(53.894531 0)"/>
      <use xlink:href="#DejaVuSans-6c" transform="translate(115.076172 0)"/>
      <use xlink:href="#DejaVuSans-64" transform="translate(142.859375 0)"/>
      <use xlink:href="#DejaVuSans-20" transform="translate(206.335938 0)"/>
      <use xlink:href="#DejaVuSans-31" transform="translate(238.123047 0)"/>
     </g>
    </g>
    <g id="line2d_20">
     <path d="M 638.23875 50.094688 
L 648.23875 50.094688 
L 658.23875 50.094688 
" style="fill: none; stroke: #ff7f0e; stroke-width: 1.5; stroke-linecap: square"/>
    </g>
    <g id="text_18">
     <!-- Fold 2 -->
     <g transform="translate(666.23875 53.594688) scale(0.1 -0.1)">
      <use xlink:href="#DejaVuSans-46"/>
      <use xlink:href="#DejaVuSans-6f" transform="translate(53.894531 0)"/>
      <use xlink:href="#DejaVuSans-6c" transform="translate(115.076172 0)"/>
      <use xlink:href="#DejaVuSans-64" transform="translate(142.859375 0)"/>
      <use xlink:href="#DejaVuSans-20" transform="translate(206.335938 0)"/>
      <use xlink:href="#DejaVuSans-32" transform="translate(238.123047 0)"/>
     </g>
    </g>
    <g id="line2d_21">
     <path d="M 638.23875 64.772812 
L 648.23875 64.772812 
L 658.23875 64.772812 
" style="fill: none; stroke: #2ca02c; stroke-width: 1.5; stroke-linecap: square"/>
    </g>
    <g id="text_19">
     <!-- Fold 3 -->
     <g transform="translate(666.23875 68.272812) scale(0.1 -0.1)">
      <use xlink:href="#DejaVuSans-46"/>
      <use xlink:href="#DejaVuSans-6f" transform="translate(53.894531 0)"/>
      <use xlink:href="#DejaVuSans-6c" transform="translate(115.076172 0)"/>
      <use xlink:href="#DejaVuSans-64" transform="translate(142.859375 0)"/>
      <use xlink:href="#DejaVuSans-20" transform="translate(206.335938 0)"/>
      <use xlink:href="#DejaVuSans-33" transform="translate(238.123047 0)"/>
     </g>
    </g>
    <g id="line2d_22">
     <path d="M 638.23875 79.450938 
L 648.23875 79.450938 
L 658.23875 79.450938 
" style="fill: none; stroke: #d62728; stroke-width: 1.5; stroke-linecap: square"/>
    </g>
    <g id="text_20">
     <!-- Fold 4 -->
     <g transform="translate(666.23875 82.950938) scale(0.1 -0.1)">
      <use xlink:href="#DejaVuSans-46"/>
      <use xlink:href="#DejaVuSans-6f" transform="translate(53.894531 0)"/>
      <use xlink:href="#DejaVuSans-6c" transform="translate(115.076172 0)"/>
      <use xlink:href="#DejaVuSans-64" transform="translate(142.859375 0)"/>
      <use xlink:href="#DejaVuSans-20" transform="translate(206.335938 0)"/>
      <use xlink:href="#DejaVuSans-34" transform="translate(238.123047 0)"/>
     </g>
    </g>
    <g id="line2d_23">
     <path d="M 638.23875 94.129063 
L 648.23875 94.129063 
L 658.23875 94.129063 
" style="fill: none; stroke: #9467bd; stroke-width: 1.5; stroke-linecap: square"/>
    </g>
    <g id="text_21">
     <!-- Fold 5 -->
     <g transform="translate(666.23875 97.629063) scale(0.1 -0.1)">
      <use xlink:href="#DejaVuSans-46"/>
      <use xlink:href="#DejaVuSans-6f" transform="translate(53.894531 0)"/>
      <use xlink:href="#DejaVuSans-6c" transform="translate(115.076172 0)"/>
      <use xlink:href="#DejaVuSans-64" transform="translate(142.859375 0)"/>
      <use xlink:href="#DejaVuSans-20" transform="translate(206.335938 0)"/>
      <use xlink:href="#DejaVuSans-35" transform="translate(238.123047 0)"/>
     </g>
    </g>
   </g>
  </g>
 </g>
 <defs>
  <clipPath id="pd4d49eb0a4">
   <rect x="50.14375" y="22.318125" width="655.27" height="363.16"/>
  </clipPath>
 </defs>
</svg>
