<?xml version="1.0" encoding="utf-8" standalone="no"?>
<!DOCTYPE svg PUBLIC "-//W3C//DTD SVG 1.1//EN"
  "http://www.w3.org/Graphics/SVG/1.1/DTD/svg11.dtd">
<svg xmlns:xlink="http://www.w3.org/1999/xlink" width="712.46125pt" height="423.034375pt" viewBox="0 0 712.46125 423.034375" xmlns="http://www.w3.org/2000/svg" version="1.1">
 <metadata>
  <rdf:RDF xmlns:dc="http://purl.org/dc/elements/1.1/" xmlns:cc="http://creativecommons.org/ns#" xmlns:rdf="http://www.w3.org/1999/02/22-rdf-syntax-ns#">
   <cc:Work>
    <dc:type rdf:resource="http://purl.org/dc/dcmitype/StillImage"/>
    <dc:date>2025-06-26T15:14:05.800823</dc:date>
    <dc:format>image/svg+xml</dc:format>
    <dc:creator>
     <cc:Agent>
      <dc:title>Matplotlib v3.10.0, https://matplotlib.org/</dc:title>
     </cc:Agent>
    </dc:creator>
   </cc:Work>
  </rdf:RDF>
 </metadata>
 <defs>
  <style type="text/css">*{stroke-linejoin: round; stroke-linecap: butt}</style>
 </defs>
 <g id="figure_1">
  <g id="patch_1">
   <path d="M 0 423.034375 
L 712.46125 423.034375 
L 712.46125 0 
L 0 0 
z
" style="fill: #ffffff"/>
  </g>
  <g id="axes_1">
   <g id="patch_2">
    <path d="M 43.78125 385.478125 
L 705.26125 385.478125 
L 705.26125 22.318125 
L 43.78125 22.318125 
z
" style="fill: #ffffff"/>
   </g>
   <g id="matplotlib.axis_1">
    <g id="xtick_1">
     <g id="line2d_1">
      <defs>
       <path id="m1bfe7b60ca" d="M 0 0 
L 0 3.5 
" style="stroke: #000000; stroke-width: 0.8"/>
      </defs>
      <g>
       <use xlink:href="#m1bfe7b60ca" x="67.774326" y="385.478125" style="stroke: #000000; stroke-width: 0.8"/>
      </g>
     </g>
     <g id="text_1">
      <!-- 0 -->
      <g transform="translate(64.593076 400.076562) scale(0.1 -0.1)">
       <defs>
        <path id="DejaVuSans-30" d="M 2034 4250 
Q 1547 4250 1301 3770 
Q 1056 3291 1056 2328 
Q 1056 1369 1301 889 
Q 1547 409 2034 409 
Q 2525 409 2770 889 
Q 3016 1369 3016 2328 
Q 3016 3291 2770 3770 
Q 2525 4250 2034 4250 
z
M 2034 4750 
Q 2819 4750 3233 4129 
Q 3647 3509 3647 2328 
Q 3647 1150 3233 529 
Q 2819 -91 2034 -91 
Q 1250 -91 836 529 
Q 422 1150 422 2328 
Q 422 3509 836 4129 
Q 1250 4750 2034 4750 
z
" transform="scale(0.015625)"/>
       </defs>
       <use xlink:href="#DejaVuSans-30"/>
      </g>
     </g>
    </g>
    <g id="xtick_2">
     <g id="line2d_2">
      <g>
       <use xlink:href="#m1bfe7b60ca" x="189.258256" y="385.478125" style="stroke: #000000; stroke-width: 0.8"/>
      </g>
     </g>
     <g id="text_2">
      <!-- 20 -->
      <g transform="translate(182.895756 400.076562) scale(0.1 -0.1)">
       <defs>
        <path id="DejaVuSans-32" d="M 1228 531 
L 3431 531 
L 3431 0 
L 469 0 
L 469 531 
Q 828 903 1448 1529 
Q 2069 2156 2228 2338 
Q 2531 2678 2651 2914 
Q 2772 3150 2772 3378 
Q 2772 3750 2511 3984 
Q 2250 4219 1831 4219 
Q 1534 4219 1204 4116 
Q 875 4013 500 3803 
L 500 4441 
Q 881 4594 1212 4672 
Q 1544 4750 1819 4750 
Q 2544 4750 2975 4387 
Q 3406 4025 3406 3419 
Q 3406 3131 3298 2873 
Q 3191 2616 2906 2266 
Q 2828 2175 2409 1742 
Q 1991 1309 1228 531 
z
" transform="scale(0.015625)"/>
       </defs>
       <use xlink:href="#DejaVuSans-32"/>
       <use xlink:href="#DejaVuSans-30" transform="translate(63.623047 0)"/>
      </g>
     </g>
    </g>
    <g id="xtick_3">
     <g id="line2d_3">
      <g>
       <use xlink:href="#m1bfe7b60ca" x="310.742187" y="385.478125" style="stroke: #000000; stroke-width: 0.8"/>
      </g>
     </g>
     <g id="text_3">
      <!-- 40 -->
      <g transform="translate(304.379687 400.076562) scale(0.1 -0.1)">
       <defs>
        <path id="DejaVuSans-34" d="M 2419 4116 
L 825 1625 
L 2419 1625 
L 2419 4116 
z
M 2253 4666 
L 3047 4666 
L 3047 1625 
L 3713 1625 
L 3713 1100 
L 3047 1100 
L 3047 0 
L 2419 0 
L 2419 1100 
L 313 1100 
L 313 1709 
L 2253 4666 
z
" transform="scale(0.015625)"/>
       </defs>
       <use xlink:href="#DejaVuSans-34"/>
       <use xlink:href="#DejaVuSans-30" transform="translate(63.623047 0)"/>
      </g>
     </g>
    </g>
    <g id="xtick_4">
     <g id="line2d_4">
      <g>
       <use xlink:href="#m1bfe7b60ca" x="432.226117" y="385.478125" style="stroke: #000000; stroke-width: 0.8"/>
      </g>
     </g>
     <g id="text_4">
      <!-- 60 -->
      <g transform="translate(425.863617 400.076562) scale(0.1 -0.1)">
       <defs>
        <path id="DejaVuSans-36" d="M 2113 2584 
Q 1688 2584 1439 2293 
Q 1191 2003 1191 1497 
Q 1191 994 1439 701 
Q 1688 409 2113 409 
Q 2538 409 2786 701 
Q 3034 994 3034 1497 
Q 3034 2003 2786 2293 
Q 2538 2584 2113 2584 
z
M 3366 4563 
L 3366 3988 
Q 3128 4100 2886 4159 
Q 2644 4219 2406 4219 
Q 1781 4219 1451 3797 
Q 1122 3375 1075 2522 
Q 1259 2794 1537 2939 
Q 1816 3084 2150 3084 
Q 2853 3084 3261 2657 
Q 3669 2231 3669 1497 
Q 3669 778 3244 343 
Q 2819 -91 2113 -91 
Q 1303 -91 875 529 
Q 447 1150 447 2328 
Q 447 3434 972 4092 
Q 1497 4750 2381 4750 
Q 2619 4750 2861 4703 
Q 3103 4656 3366 4563 
z
" transform="scale(0.015625)"/>
       </defs>
       <use xlink:href="#DejaVuSans-36"/>
       <use xlink:href="#DejaVuSans-30" transform="translate(63.623047 0)"/>
      </g>
     </g>
    </g>
    <g id="xtick_5">
     <g id="line2d_5">
      <g>
       <use xlink:href="#m1bfe7b60ca" x="553.710047" y="385.478125" style="stroke: #000000; stroke-width: 0.8"/>
      </g>
     </g>
     <g id="text_5">
      <!-- 80 -->
      <g transform="translate(547.347547 400.076562) scale(0.1 -0.1)">
       <defs>
        <path id="DejaVuSans-38" d="M 2034 2216 
Q 1584 2216 1326 1975 
Q 1069 1734 1069 1313 
Q 1069 891 1326 650 
Q 1584 409 2034 409 
Q 2484 409 2743 651 
Q 3003 894 3003 1313 
Q 3003 1734 2745 1975 
Q 2488 2216 2034 2216 
z
M 1403 2484 
Q 997 2584 770 2862 
Q 544 3141 544 3541 
Q 544 4100 942 4425 
Q 1341 4750 2034 4750 
Q 2731 4750 3128 4425 
Q 3525 4100 3525 3541 
Q 3525 3141 3298 2862 
Q 3072 2584 2669 2484 
Q 3125 2378 3379 2068 
Q 3634 1759 3634 1313 
Q 3634 634 3220 271 
Q 2806 -91 2034 -91 
Q 1263 -91 848 271 
Q 434 634 434 1313 
Q 434 1759 690 2068 
Q 947 2378 1403 2484 
z
M 1172 3481 
Q 1172 3119 1398 2916 
Q 1625 2713 2034 2713 
Q 2441 2713 2670 2916 
Q 2900 3119 2900 3481 
Q 2900 3844 2670 4047 
Q 2441 4250 2034 4250 
Q 1625 4250 1398 4047 
Q 1172 3844 1172 3481 
z
" transform="scale(0.015625)"/>
       </defs>
       <use xlink:href="#DejaVuSans-38"/>
       <use xlink:href="#DejaVuSans-30" transform="translate(63.623047 0)"/>
      </g>
     </g>
    </g>
    <g id="xtick_6">
     <g id="line2d_6">
      <g>
       <use xlink:href="#m1bfe7b60ca" x="675.193977" y="385.478125" style="stroke: #000000; stroke-width: 0.8"/>
      </g>
     </g>
     <g id="text_6">
      <!-- 100 -->
      <g transform="translate(665.650227 400.076562) scale(0.1 -0.1)">
       <defs>
        <path id="DejaVuSans-31" d="M 794 531 
L 1825 531 
L 1825 4091 
L 703 3866 
L 703 4441 
L 1819 4666 
L 2450 4666 
L 2450 531 
L 3481 531 
L 3481 0 
L 794 0 
L 794 531 
z
" transform="scale(0.015625)"/>
       </defs>
       <use xlink:href="#DejaVuSans-31"/>
       <use xlink:href="#DejaVuSans-30" transform="translate(63.623047 0)"/>
       <use xlink:href="#DejaVuSans-30" transform="translate(127.246094 0)"/>
      </g>
     </g>
    </g>
    <g id="text_7">
     <!-- Epoch -->
     <g transform="translate(359.210312 413.754687) scale(0.1 -0.1)">
      <defs>
       <path id="DejaVuSans-45" d="M 628 4666 
L 3578 4666 
L 3578 4134 
L 1259 4134 
L 1259 2753 
L 3481 2753 
L 3481 2222 
L 1259 2222 
L 1259 531 
L 3634 531 
L 3634 0 
L 628 0 
L 628 4666 
z
" transform="scale(0.015625)"/>
       <path id="DejaVuSans-70" d="M 1159 525 
L 1159 -1331 
L 581 -1331 
L 581 3500 
L 1159 3500 
L 1159 2969 
Q 1341 3281 1617 3432 
Q 1894 3584 2278 3584 
Q 2916 3584 3314 3078 
Q 3713 2572 3713 1747 
Q 3713 922 3314 415 
Q 2916 -91 2278 -91 
Q 1894 -91 1617 61 
Q 1341 213 1159 525 
z
M 3116 1747 
Q 3116 2381 2855 2742 
Q 2594 3103 2138 3103 
Q 1681 3103 1420 2742 
Q 1159 2381 1159 1747 
Q 1159 1113 1420 752 
Q 1681 391 2138 391 
Q 2594 391 2855 752 
Q 3116 1113 3116 1747 
z
" transform="scale(0.015625)"/>
       <path id="DejaVuSans-6f" d="M 1959 3097 
Q 1497 3097 1228 2736 
Q 959 2375 959 1747 
Q 959 1119 1226 758 
Q 1494 397 1959 397 
Q 2419 397 2687 759 
Q 2956 1122 2956 1747 
Q 2956 2369 2687 2733 
Q 2419 3097 1959 3097 
z
M 1959 3584 
Q 2709 3584 3137 3096 
Q 3566 2609 3566 1747 
Q 3566 888 3137 398 
Q 2709 -91 1959 -91 
Q 1206 -91 779 398 
Q 353 888 353 1747 
Q 353 2609 779 3096 
Q 1206 3584 1959 3584 
z
" transform="scale(0.015625)"/>
       <path id="DejaVuSans-63" d="M 3122 3366 
L 3122 2828 
Q 2878 2963 2633 3030 
Q 2388 3097 2138 3097 
Q 1578 3097 1268 2742 
Q 959 2388 959 1747 
Q 959 1106 1268 751 
Q 1578 397 2138 397 
Q 2388 397 2633 464 
Q 2878 531 3122 666 
L 3122 134 
Q 2881 22 2623 -34 
Q 2366 -91 2075 -91 
Q 1284 -91 818 406 
Q 353 903 353 1747 
Q 353 2603 823 3093 
Q 1294 3584 2113 3584 
Q 2378 3584 2631 3529 
Q 2884 3475 3122 3366 
z
" transform="scale(0.015625)"/>
       <path id="DejaVuSans-68" d="M 3513 2113 
L 3513 0 
L 2938 0 
L 2938 2094 
Q 2938 2591 2744 2837 
Q 2550 3084 2163 3084 
Q 1697 3084 1428 2787 
Q 1159 2491 1159 1978 
L 1159 0 
L 581 0 
L 581 4863 
L 1159 4863 
L 1159 2956 
Q 1366 3272 1645 3428 
Q 1925 3584 2291 3584 
Q 2894 3584 3203 3211 
Q 3513 2838 3513 2113 
z
" transform="scale(0.015625)"/>
      </defs>
      <use xlink:href="#DejaVuSans-45"/>
      <use xlink:href="#DejaVuSans-70" transform="translate(63.183594 0)"/>
      <use xlink:href="#DejaVuSans-6f" transform="translate(126.660156 0)"/>
      <use xlink:href="#DejaVuSans-63" transform="translate(187.841797 0)"/>
      <use xlink:href="#DejaVuSans-68" transform="translate(242.822266 0)"/>
     </g>
    </g>
   </g>
   <g id="matplotlib.axis_2">
    <g id="ytick_1">
     <g id="line2d_7">
      <defs>
       <path id="m37e04bdd0c" d="M 0 0 
L -3.5 0 
" style="stroke: #000000; stroke-width: 0.8"/>
      </defs>
      <g>
       <use xlink:href="#m37e04bdd0c" x="43.78125" y="342.178584" style="stroke: #000000; stroke-width: 0.8"/>
      </g>
     </g>
     <g id="text_8">
      <!-- 0.2 -->
      <g transform="translate(20.878125 345.977803) scale(0.1 -0.1)">
       <defs>
        <path id="DejaVuSans-2e" d="M 684 794 
L 1344 794 
L 1344 0 
L 684 0 
L 684 794 
z
" transform="scale(0.015625)"/>
       </defs>
       <use xlink:href="#DejaVuSans-30"/>
       <use xlink:href="#DejaVuSans-2e" transform="translate(63.623047 0)"/>
       <use xlink:href="#DejaVuSans-32" transform="translate(95.410156 0)"/>
      </g>
     </g>
    </g>
    <g id="ytick_2">
     <g id="line2d_8">
      <g>
       <use xlink:href="#m37e04bdd0c" x="43.78125" y="266.728703" style="stroke: #000000; stroke-width: 0.8"/>
      </g>
     </g>
     <g id="text_9">
      <!-- 0.4 -->
      <g transform="translate(20.878125 270.527922) scale(0.1 -0.1)">
       <use xlink:href="#DejaVuSans-30"/>
       <use xlink:href="#DejaVuSans-2e" transform="translate(63.623047 0)"/>
       <use xlink:href="#DejaVuSans-34" transform="translate(95.410156 0)"/>
      </g>
     </g>
    </g>
    <g id="ytick_3">
     <g id="line2d_9">
      <g>
       <use xlink:href="#m37e04bdd0c" x="43.78125" y="191.278822" style="stroke: #000000; stroke-width: 0.8"/>
      </g>
     </g>
     <g id="text_10">
      <!-- 0.6 -->
      <g transform="translate(20.878125 195.078041) scale(0.1 -0.1)">
       <use xlink:href="#DejaVuSans-30"/>
       <use xlink:href="#DejaVuSans-2e" transform="translate(63.623047 0)"/>
       <use xlink:href="#DejaVuSans-36" transform="translate(95.410156 0)"/>
      </g>
     </g>
    </g>
    <g id="ytick_4">
     <g id="line2d_10">
      <g>
       <use xlink:href="#m37e04bdd0c" x="43.78125" y="115.828942" style="stroke: #000000; stroke-width: 0.8"/>
      </g>
     </g>
     <g id="text_11">
      <!-- 0.8 -->
      <g transform="translate(20.878125 119.62816) scale(0.1 -0.1)">
       <use xlink:href="#DejaVuSans-30"/>
       <use xlink:href="#DejaVuSans-2e" transform="translate(63.623047 0)"/>
       <use xlink:href="#DejaVuSans-38" transform="translate(95.410156 0)"/>
      </g>
     </g>
    </g>
    <g id="ytick_5">
     <g id="line2d_11">
      <g>
       <use xlink:href="#m37e04bdd0c" x="43.78125" y="40.379061" style="stroke: #000000; stroke-width: 0.8"/>
      </g>
     </g>
     <g id="text_12">
      <!-- 1.0 -->
      <g transform="translate(20.878125 44.17828) scale(0.1 -0.1)">
       <use xlink:href="#DejaVuSans-31"/>
       <use xlink:href="#DejaVuSans-2e" transform="translate(63.623047 0)"/>
       <use xlink:href="#DejaVuSans-30" transform="translate(95.410156 0)"/>
      </g>
     </g>
    </g>
    <g id="text_13">
     <!-- Train Loss -->
     <g transform="translate(14.798438 228.448125) rotate(-90) scale(0.1 -0.1)">
      <defs>
       <path id="DejaVuSans-54" d="M -19 4666 
L 3928 4666 
L 3928 4134 
L 2272 4134 
L 2272 0 
L 1638 0 
L 1638 4134 
L -19 4134 
L -19 4666 
z
" transform="scale(0.015625)"/>
       <path id="DejaVuSans-72" d="M 2631 2963 
Q 2534 3019 2420 3045 
Q 2306 3072 2169 3072 
Q 1681 3072 1420 2755 
Q 1159 2438 1159 1844 
L 1159 0 
L 581 0 
L 581 3500 
L 1159 3500 
L 1159 2956 
Q 1341 3275 1631 3429 
Q 1922 3584 2338 3584 
Q 2397 3584 2469 3576 
Q 2541 3569 2628 3553 
L 2631 2963 
z
" transform="scale(0.015625)"/>
       <path id="DejaVuSans-61" d="M 2194 1759 
Q 1497 1759 1228 1600 
Q 959 1441 959 1056 
Q 959 750 1161 570 
Q 1363 391 1709 391 
Q 2188 391 2477 730 
Q 2766 1069 2766 1631 
L 2766 1759 
L 2194 1759 
z
M 3341 1997 
L 3341 0 
L 2766 0 
L 2766 531 
Q 2569 213 2275 61 
Q 1981 -91 1556 -91 
Q 1019 -91 701 211 
Q 384 513 384 1019 
Q 384 1609 779 1909 
Q 1175 2209 1959 2209 
L 2766 2209 
L 2766 2266 
Q 2766 2663 2505 2880 
Q 2244 3097 1772 3097 
Q 1472 3097 1187 3025 
Q 903 2953 641 2809 
L 641 3341 
Q 956 3463 1253 3523 
Q 1550 3584 1831 3584 
Q 2591 3584 2966 3190 
Q 3341 2797 3341 1997 
z
" transform="scale(0.015625)"/>
       <path id="DejaVuSans-69" d="M 603 3500 
L 1178 3500 
L 1178 0 
L 603 0 
L 603 3500 
z
M 603 4863 
L 1178 4863 
L 1178 4134 
L 603 4134 
L 603 4863 
z
" transform="scale(0.015625)"/>
       <path id="DejaVuSans-6e" d="M 3513 2113 
L 3513 0 
L 2938 0 
L 2938 2094 
Q 2938 2591 2744 2837 
Q 2550 3084 2163 3084 
Q 1697 3084 1428 2787 
Q 1159 2491 1159 1978 
L 1159 0 
L 581 0 
L 581 3500 
L 1159 3500 
L 1159 2956 
Q 1366 3272 1645 3428 
Q 1925 3584 2291 3584 
Q 2894 3584 3203 3211 
Q 3513 2838 3513 2113 
z
" transform="scale(0.015625)"/>
       <path id="DejaVuSans-20" transform="scale(0.015625)"/>
       <path id="DejaVuSans-4c" d="M 628 4666 
L 1259 4666 
L 1259 531 
L 3531 531 
L 3531 0 
L 628 0 
L 628 4666 
z
" transform="scale(0.015625)"/>
       <path id="DejaVuSans-73" d="M 2834 3397 
L 2834 2853 
Q 2591 2978 2328 3040 
Q 2066 3103 1784 3103 
Q 1356 3103 1142 2972 
Q 928 2841 928 2578 
Q 928 2378 1081 2264 
Q 1234 2150 1697 2047 
L 1894 2003 
Q 2506 1872 2764 1633 
Q 3022 1394 3022 966 
Q 3022 478 2636 193 
Q 2250 -91 1575 -91 
Q 1294 -91 989 -36 
Q 684 19 347 128 
L 347 722 
Q 666 556 975 473 
Q 1284 391 1588 391 
Q 1994 391 2212 530 
Q 2431 669 2431 922 
Q 2431 1156 2273 1281 
Q 2116 1406 1581 1522 
L 1381 1569 
Q 847 1681 609 1914 
Q 372 2147 372 2553 
Q 372 3047 722 3315 
Q 1072 3584 1716 3584 
Q 2034 3584 2315 3537 
Q 2597 3491 2834 3397 
z
" transform="scale(0.015625)"/>
      </defs>
      <use xlink:href="#DejaVuSans-54"/>
      <use xlink:href="#DejaVuSans-72" transform="translate(46.333984 0)"/>
      <use xlink:href="#DejaVuSans-61" transform="translate(87.447266 0)"/>
      <use xlink:href="#DejaVuSans-69" transform="translate(148.726562 0)"/>
      <use xlink:href="#DejaVuSans-6e" transform="translate(176.509766 0)"/>
      <use xlink:href="#DejaVuSans-20" transform="translate(239.888672 0)"/>
      <use xlink:href="#DejaVuSans-4c" transform="translate(271.675781 0)"/>
      <use xlink:href="#DejaVuSans-6f" transform="translate(325.638672 0)"/>
      <use xlink:href="#DejaVuSans-73" transform="translate(386.820312 0)"/>
      <use xlink:href="#DejaVuSans-73" transform="translate(438.919922 0)"/>
     </g>
    </g>
   </g>
   <g id="line2d_12">
    <path d="M 73.848523 118.31848 
L 79.922719 271.862236 
L 85.996916 283.381681 
L 92.071112 283.860369 
L 98.145309 285.904352 
L 104.219505 286.142787 
L 110.293702 292.782006 
L 116.367898 305.412433 
L 122.442095 310.819089 
L 128.516291 306.839243 
L 134.590488 312.614153 
L 140.664684 312.831515 
L 146.738881 314.944535 
L 152.813077 315.447168 
L 158.887274 316.810568 
L 164.96147 318.866457 
L 171.035667 319.472738 
L 177.109863 318.407397 
L 183.18406 314.782209 
L 189.258256 317.253959 
L 195.332453 317.492481 
L 201.406649 316.602657 
L 207.480846 312.066875 
L 213.555042 318.909622 
L 219.629239 316.766696 
L 225.703435 318.487496 
L 231.777632 318.077933 
L 237.851829 318.770581 
L 243.926025 318.864016 
L 250.000222 324.171979 
L 256.074418 321.931365 
L 262.148615 320.395384 
L 268.222811 322.642675 
L 274.297008 324.286737 
L 280.371204 322.184004 
L 286.445401 324.554998 
L 292.519597 324.668437 
L 298.593794 325.665441 
L 304.66799 323.528461 
L 310.742187 325.354044 
L 316.816383 324.443292 
L 322.89058 323.396885 
L 328.964776 323.736692 
L 335.038973 326.332512 
L 341.113169 326.556018 
L 347.187366 320.066743 
L 353.261562 325.05291 
L 359.335759 332.221046 
L 365.409955 329.696686 
L 371.484152 332.475973 
L 377.558348 330.551533 
L 383.632545 331.877163 
L 389.706741 333.003318 
L 395.780938 334.428989 
L 401.855134 334.685328 
L 407.929331 338.093478 
L 414.003527 334.564684 
L 420.077724 320.686882 
L 426.15192 339.085575 
L 432.226117 340.40106 
L 438.300313 340.147847 
L 444.37451 338.874405 
L 450.448706 339.429782 
L 456.522903 341.553327 
L 462.597099 341.63895 
L 468.671296 335.927117 
L 474.745492 342.151191 
L 480.819689 341.628421 
L 486.893885 339.915143 
L 492.968082 343.423654 
L 499.042278 338.684749 
L 505.116475 345.018041 
L 511.190671 343.824978 
L 517.264868 342.192383 
L 523.339065 344.546118 
L 529.413261 347.03334 
L 535.487458 345.753164 
L 541.561654 346.369251 
L 547.635851 349.247491 
L 553.710047 349.423488 
L 559.784244 348.652247 
L 565.85844 348.036407 
L 571.932637 351.187785 
L 578.006833 351.162958 
L 584.08103 353.103445 
L 590.155226 352.515097 
L 596.229423 355.292031 
L 602.303619 352.70256 
L 608.377816 353.667051 
L 614.452012 351.104602 
L 620.526209 331.553689 
L 626.600405 343.361892 
L 632.674602 348.985259 
L 638.748798 354.145837 
L 644.822995 354.401729 
L 650.897191 355.567645 
L 656.971388 357.092889 
L 663.045584 357.046808 
L 669.119781 359.210013 
L 675.193977 354.485869 
" clip-path="url(#pf1c276d3b1)" style="fill: none; stroke: #1f77b4; stroke-width: 1.5; stroke-linecap: square"/>
   </g>
   <g id="line2d_13">
    <path d="M 73.848523 130.957263 
L 79.922719 271.869655 
L 85.996916 281.003864 
L 92.071112 284.576883 
L 98.145309 286.331837 
L 104.219505 287.097266 
L 110.293702 287.372112 
L 116.367898 287.884698 
L 122.442095 288.187597 
L 128.516291 288.370015 
L 134.590488 288.347705 
L 140.664684 288.82872 
L 146.738881 289.14226 
L 152.813077 288.902697 
L 158.887274 288.821693 
L 164.96147 278.181058 
L 171.035667 305.076242 
L 177.109863 315.269929 
L 183.18406 321.655925 
L 189.258256 321.993147 
L 195.332453 323.973432 
L 201.406649 323.601391 
L 207.480846 325.167642 
L 213.555042 327.77412 
L 219.629239 327.180106 
L 225.703435 329.0952 
L 231.777632 328.941884 
L 237.851829 329.330261 
L 243.926025 284.832504 
L 250.000222 327.845001 
L 256.074418 329.302971 
L 262.148615 331.277269 
L 268.222811 330.388167 
L 274.297008 334.413552 
L 280.371204 331.761969 
L 286.445401 336.042682 
L 292.519597 331.362201 
L 298.593794 333.584023 
L 304.66799 336.717859 
L 310.742187 335.459856 
L 316.816383 337.37389 
L 322.89058 335.628611 
L 328.964776 335.996362 
L 335.038973 334.31213 
L 341.113169 329.411787 
L 347.187366 336.756745 
L 353.261562 332.670146 
L 359.335759 333.386122 
L 365.409955 337.028682 
L 371.484152 331.341512 
L 377.558348 335.718506 
L 383.632545 336.751424 
L 389.706741 337.626547 
L 395.780938 336.404622 
L 401.855134 334.917099 
L 407.929331 334.018185 
L 414.003527 331.754381 
L 420.077724 336.69953 
L 426.15192 337.67518 
L 432.226117 336.892983 
L 438.300313 335.737671 
L 444.37451 315.649091 
L 450.448706 333.824557 
L 456.522903 338.408287 
L 462.597099 338.81126 
L 468.671296 335.258938 
L 474.745492 330.795649 
L 480.819689 338.131938 
L 486.893885 336.984535 
L 492.968082 338.303495 
L 499.042278 336.361788 
L 505.116475 332.478331 
L 511.190671 337.925819 
L 517.264868 337.006173 
L 523.339065 335.814716 
L 529.413261 336.541854 
L 535.487458 338.241692 
L 541.561654 338.150624 
L 547.635851 328.93549 
L 553.710047 332.022354 
L 559.784244 336.866856 
L 565.85844 336.463585 
L 571.932637 334.5823 
L 578.006833 338.315835 
L 584.08103 335.377143 
L 590.155226 333.018838 
L 596.229423 338.584441 
L 602.303619 336.10384 
L 608.377816 338.254562 
L 614.452012 337.254178 
L 620.526209 336.438566 
L 626.600405 333.001045 
L 632.674602 331.465109 
L 638.748798 339.410818 
L 644.822995 321.577724 
L 650.897191 334.052698 
L 656.971388 327.200956 
L 663.045584 325.757453 
L 669.119781 329.133086 
L 675.193977 335.012053 
" clip-path="url(#pf1c276d3b1)" style="fill: none; stroke: #ff7f0e; stroke-width: 1.5; stroke-linecap: square"/>
   </g>
   <g id="line2d_14">
    <path d="M 73.848523 38.825398 
L 79.922719 159.246208 
L 85.996916 270.872872 
L 92.071112 284.155662 
L 98.145309 303.435729 
L 104.219505 306.51532 
L 110.293702 317.226479 
L 116.367898 318.432787 
L 122.442095 318.085934 
L 128.516291 323.361851 
L 134.590488 323.686624 
L 140.664684 320.78503 
L 146.738881 326.265056 
L 152.813077 325.019353 
L 158.887274 327.617235 
L 164.96147 327.566693 
L 171.035667 329.131373 
L 177.109863 329.370101 
L 183.18406 329.094474 
L 189.258256 325.528264 
L 195.332453 330.484385 
L 201.406649 330.966473 
L 207.480846 330.571008 
L 213.555042 331.860458 
L 219.629239 330.606199 
L 225.703435 331.83612 
L 231.777632 333.798309 
L 237.851829 334.10881 
L 243.926025 335.688727 
L 250.000222 335.906491 
L 256.074418 335.378322 
L 262.148615 334.635716 
L 268.222811 339.194573 
L 274.297008 330.957302 
L 280.371204 333.938119 
L 286.445401 339.201571 
L 292.519597 339.696154 
L 298.593794 339.608834 
L 304.66799 340.566735 
L 310.742187 337.683129 
L 316.816383 339.140497 
L 322.89058 339.138179 
L 328.964776 337.852866 
L 335.038973 338.065257 
L 341.113169 335.465623 
L 347.187366 338.32116 
L 353.261562 342.060827 
L 359.335759 336.625887 
L 365.409955 337.93801 
L 371.484152 337.488221 
L 377.558348 339.251166 
L 383.632545 341.217381 
L 389.706741 339.093935 
L 395.780938 340.751227 
L 401.855134 340.382752 
L 407.929331 324.95743 
L 414.003527 341.199603 
L 420.077724 338.921286 
L 426.15192 341.48267 
L 432.226117 343.691647 
L 438.300313 346.135209 
L 444.37451 346.386151 
L 450.448706 342.426286 
L 456.522903 348.328585 
L 462.597099 347.732266 
L 468.671296 349.044543 
L 474.745492 349.122224 
L 480.819689 344.243016 
L 486.893885 346.668473 
L 492.968082 349.653313 
L 499.042278 349.632051 
L 505.116475 346.091803 
L 511.190671 350.045951 
L 517.264868 350.61694 
L 523.339065 348.69451 
L 529.413261 349.832474 
L 535.487458 352.108622 
L 541.561654 346.438101 
L 547.635851 351.224068 
L 553.710047 339.057081 
L 559.784244 352.40148 
L 565.85844 350.489718 
L 571.932637 349.820507 
L 578.006833 353.51205 
L 584.08103 352.961091 
L 590.155226 347.043368 
L 596.229423 353.120556 
L 602.303619 351.554569 
L 608.377816 355.423413 
L 614.452012 352.364884 
L 620.526209 354.418735 
L 626.600405 355.692871 
L 632.674602 356.401046 
L 638.748798 357.08663 
L 644.822995 357.299493 
L 650.897191 354.677352 
L 656.971388 355.564955 
L 663.045584 352.853876 
L 669.119781 356.853211 
L 675.193977 355.193809 
" clip-path="url(#pf1c276d3b1)" style="fill: none; stroke: #2ca02c; stroke-width: 1.5; stroke-linecap: square"/>
   </g>
   <g id="line2d_15">
    <path d="M 73.848523 133.804196 
L 79.922719 276.51145 
L 85.996916 278.91004 
L 92.071112 283.996964 
L 98.145309 285.540514 
L 104.219505 286.36537 
L 110.293702 287.253365 
L 116.367898 290.638558 
L 122.442095 288.352803 
L 128.516291 290.80685 
L 134.590488 289.353793 
L 140.664684 293.374246 
L 146.738881 298.044689 
L 152.813077 303.445306 
L 158.887274 311.99086 
L 164.96147 313.472582 
L 171.035667 315.338272 
L 177.109863 315.389111 
L 183.18406 313.791008 
L 189.258256 316.872167 
L 195.332453 319.539962 
L 201.406649 318.310051 
L 207.480846 316.106246 
L 213.555042 315.86711 
L 219.629239 319.404509 
L 225.703435 319.728974 
L 231.777632 320.348972 
L 237.851829 319.25094 
L 243.926025 319.092609 
L 250.000222 320.539474 
L 256.074418 313.035285 
L 262.148615 318.647522 
L 268.222811 321.516794 
L 274.297008 324.310451 
L 280.371204 322.632076 
L 286.445401 323.534799 
L 292.519597 320.886885 
L 298.593794 322.188504 
L 304.66799 324.216634 
L 310.742187 326.224866 
L 316.816383 323.769595 
L 322.89058 319.853232 
L 328.964776 322.582341 
L 335.038973 327.035068 
L 341.113169 327.2038 
L 347.187366 327.217114 
L 353.261562 328.857603 
L 359.335759 327.387899 
L 365.409955 329.054687 
L 371.484152 326.041405 
L 377.558348 325.914619 
L 383.632545 328.798771 
L 389.706741 327.527002 
L 395.780938 328.903661 
L 401.855134 330.94503 
L 407.929331 330.300703 
L 414.003527 330.752507 
L 420.077724 331.366862 
L 426.15192 325.505232 
L 432.226117 330.125612 
L 438.300313 330.576831 
L 444.37451 333.022009 
L 450.448706 333.90387 
L 456.522903 330.115024 
L 462.597099 331.794778 
L 468.671296 332.650613 
L 474.745492 331.298827 
L 480.819689 333.55948 
L 486.893885 333.474827 
L 492.968082 331.01616 
L 499.042278 333.010433 
L 505.116475 331.331424 
L 511.190671 332.594314 
L 517.264868 333.834537 
L 523.339065 333.760421 
L 529.413261 334.281437 
L 535.487458 334.961726 
L 541.561654 335.170711 
L 547.635851 335.872129 
L 553.710047 336.534097 
L 559.784244 337.177162 
L 565.85844 337.572463 
L 571.932637 341.81698 
L 578.006833 332.63136 
L 584.08103 339.063495 
L 590.155226 340.178997 
L 596.229423 344.225956 
L 602.303619 342.97198 
L 608.377816 336.581272 
L 614.452012 342.867171 
L 620.526209 345.268381 
L 626.600405 346.285847 
L 632.674602 343.632977 
L 638.748798 345.457866 
L 644.822995 341.772426 
L 650.897191 346.532693 
L 656.971388 346.114273 
L 663.045584 338.044463 
L 669.119781 339.897498 
L 675.193977 340.334419 
" clip-path="url(#pf1c276d3b1)" style="fill: none; stroke: #d62728; stroke-width: 1.5; stroke-linecap: square"/>
   </g>
   <g id="line2d_16">
    <path d="M 73.848523 50.691353 
L 79.922719 266.977579 
L 85.996916 280.273204 
L 92.071112 284.544705 
L 98.145309 283.104093 
L 104.219505 284.46806 
L 110.293702 286.936725 
L 116.367898 286.985769 
L 122.442095 298.501527 
L 128.516291 312.452535 
L 134.590488 318.973216 
L 140.664684 320.331657 
L 146.738881 321.042686 
L 152.813077 321.911286 
L 158.887274 323.05864 
L 164.96147 322.587902 
L 171.035667 322.528809 
L 177.109863 322.48073 
L 183.18406 325.42883 
L 189.258256 323.445798 
L 195.332453 324.83956 
L 201.406649 326.64838 
L 207.480846 327.445122 
L 213.555042 328.820059 
L 219.629239 329.460324 
L 225.703435 320.451517 
L 231.777632 335.767155 
L 237.851829 336.240601 
L 243.926025 338.478041 
L 250.000222 335.58397 
L 256.074418 338.031543 
L 262.148615 335.236869 
L 268.222811 336.845589 
L 274.297008 336.376857 
L 280.371204 332.929731 
L 286.445401 338.966075 
L 292.519597 336.46479 
L 298.593794 338.451368 
L 304.66799 327.392339 
L 310.742187 337.994882 
L 316.816383 338.533622 
L 322.89058 337.907929 
L 328.964776 335.266076 
L 335.038973 337.570274 
L 341.113169 339.853444 
L 347.187366 339.228498 
L 353.261562 338.201268 
L 359.335759 335.725235 
L 365.409955 337.805183 
L 371.484152 339.202774 
L 377.558348 335.927036 
L 383.632545 330.169145 
L 389.706741 341.776539 
L 395.780938 342.756148 
L 401.855134 340.22681 
L 407.929331 340.559977 
L 414.003527 341.414061 
L 420.077724 345.988163 
L 426.15192 347.84627 
L 432.226117 346.684875 
L 438.300313 345.871295 
L 444.37451 348.986184 
L 450.448706 352.14644 
L 456.522903 351.698006 
L 462.597099 352.27581 
L 468.671296 356.773826 
L 474.745492 358.325675 
L 480.819689 359.34806 
L 486.893885 358.420299 
L 492.968082 358.0232 
L 499.042278 355.264341 
L 505.116475 359.806748 
L 511.190671 350.106099 
L 517.264868 361.79285 
L 523.339065 362.751473 
L 529.413261 361.041272 
L 535.487458 360.653968 
L 541.561654 363.819003 
L 547.635851 362.615415 
L 553.710047 363.783054 
L 559.784244 361.518106 
L 565.85844 364.802183 
L 571.932637 365.035112 
L 578.006833 364.353032 
L 584.08103 364.429372 
L 590.155226 362.015618 
L 596.229423 366.191591 
L 602.303619 363.194129 
L 608.377816 361.849073 
L 614.452012 366.067111 
L 620.526209 365.071919 
L 626.600405 362.894273 
L 632.674602 368.294706 
L 638.748798 361.647994 
L 644.822995 365.90828 
L 650.897191 367.859441 
L 656.971388 365.619941 
L 663.045584 368.970852 
L 669.119781 356.641433 
L 675.193977 361.884982 
" clip-path="url(#pf1c276d3b1)" style="fill: none; stroke: #9467bd; stroke-width: 1.5; stroke-linecap: square"/>
   </g>
   <g id="patch_3">
    <path d="M 43.78125 385.478125 
L 43.78125 22.318125 
" style="fill: none; stroke: #000000; stroke-width: 0.8; stroke-linejoin: miter; stroke-linecap: square"/>
   </g>
   <g id="patch_4">
    <path d="M 705.26125 385.478125 
L 705.26125 22.318125 
" style="fill: none; stroke: #000000; stroke-width: 0.8; stroke-linejoin: miter; stroke-linecap: square"/>
   </g>
   <g id="patch_5">
    <path d="M 43.78125 385.478125 
L 705.26125 385.478125 
" style="fill: none; stroke: #000000; stroke-width: 0.8; stroke-linejoin: miter; stroke-linecap: square"/>
   </g>
   <g id="patch_6">
    <path d="M 43.78125 22.318125 
L 705.26125 22.318125 
" style="fill: none; stroke: #000000; stroke-width: 0.8; stroke-linejoin: miter; stroke-linecap: square"/>
   </g>
   <g id="text_14">
    <!-- Combined Train Loss -->
    <g transform="translate(312.669688 16.318125) scale(0.12 -0.12)">
     <defs>
      <path id="DejaVuSans-43" d="M 4122 4306 
L 4122 3641 
Q 3803 3938 3442 4084 
Q 3081 4231 2675 4231 
Q 1875 4231 1450 3742 
Q 1025 3253 1025 2328 
Q 1025 1406 1450 917 
Q 1875 428 2675 428 
Q 3081 428 3442 575 
Q 3803 722 4122 1019 
L 4122 359 
Q 3791 134 3420 21 
Q 3050 -91 2638 -91 
Q 1578 -91 968 557 
Q 359 1206 359 2328 
Q 359 3453 968 4101 
Q 1578 4750 2638 4750 
Q 3056 4750 3426 4639 
Q 3797 4528 4122 4306 
z
" transform="scale(0.015625)"/>
      <path id="DejaVuSans-6d" d="M 3328 2828 
Q 3544 3216 3844 3400 
Q 4144 3584 4550 3584 
Q 5097 3584 5394 3201 
Q 5691 2819 5691 2113 
L 5691 0 
L 5113 0 
L 5113 2094 
Q 5113 2597 4934 2840 
Q 4756 3084 4391 3084 
Q 3944 3084 3684 2787 
Q 3425 2491 3425 1978 
L 3425 0 
L 2847 0 
L 2847 2094 
Q 2847 2600 2669 2842 
Q 2491 3084 2119 3084 
Q 1678 3084 1418 2786 
Q 1159 2488 1159 1978 
L 1159 0 
L 581 0 
L 581 3500 
L 1159 3500 
L 1159 2956 
Q 1356 3278 1631 3431 
Q 1906 3584 2284 3584 
Q 2666 3584 2933 3390 
Q 3200 3197 3328 2828 
z
" transform="scale(0.015625)"/>
      <path id="DejaVuSans-62" d="M 3116 1747 
Q 3116 2381 2855 2742 
Q 2594 3103 2138 3103 
Q 1681 3103 1420 2742 
Q 1159 2381 1159 1747 
Q 1159 1113 1420 752 
Q 1681 391 2138 391 
Q 2594 391 2855 752 
Q 3116 1113 3116 1747 
z
M 1159 2969 
Q 1341 3281 1617 3432 
Q 1894 3584 2278 3584 
Q 2916 3584 3314 3078 
Q 3713 2572 3713 1747 
Q 3713 922 3314 415 
Q 2916 -91 2278 -91 
Q 1894 -91 1617 61 
Q 1341 213 1159 525 
L 1159 0 
L 581 0 
L 581 4863 
L 1159 4863 
L 1159 2969 
z
" transform="scale(0.015625)"/>
      <path id="DejaVuSans-65" d="M 3597 1894 
L 3597 1613 
L 953 1613 
Q 991 1019 1311 708 
Q 1631 397 2203 397 
Q 2534 397 2845 478 
Q 3156 559 3463 722 
L 3463 178 
Q 3153 47 2828 -22 
Q 2503 -91 2169 -91 
Q 1331 -91 842 396 
Q 353 884 353 1716 
Q 353 2575 817 3079 
Q 1281 3584 2069 3584 
Q 2775 3584 3186 3129 
Q 3597 2675 3597 1894 
z
M 3022 2063 
Q 3016 2534 2758 2815 
Q 2500 3097 2075 3097 
Q 1594 3097 1305 2825 
Q 1016 2553 972 2059 
L 3022 2063 
z
" transform="scale(0.015625)"/>
      <path id="DejaVuSans-64" d="M 2906 2969 
L 2906 4863 
L 3481 4863 
L 3481 0 
L 2906 0 
L 2906 525 
Q 2725 213 2448 61 
Q 2172 -91 1784 -91 
Q 1150 -91 751 415 
Q 353 922 353 1747 
Q 353 2572 751 3078 
Q 1150 3584 1784 3584 
Q 2172 3584 2448 3432 
Q 2725 3281 2906 2969 
z
M 947 1747 
Q 947 1113 1208 752 
Q 1469 391 1925 391 
Q 2381 391 2643 752 
Q 2906 1113 2906 1747 
Q 2906 2381 2643 2742 
Q 2381 3103 1925 3103 
Q 1469 3103 1208 2742 
Q 947 2381 947 1747 
z
" transform="scale(0.015625)"/>
     </defs>
     <use xlink:href="#DejaVuSans-43"/>
     <use xlink:href="#DejaVuSans-6f" transform="translate(69.824219 0)"/>
     <use xlink:href="#DejaVuSans-6d" transform="translate(131.005859 0)"/>
     <use xlink:href="#DejaVuSans-62" transform="translate(228.417969 0)"/>
     <use xlink:href="#DejaVuSans-69" transform="translate(291.894531 0)"/>
     <use xlink:href="#DejaVuSans-6e" transform="translate(319.677734 0)"/>
     <use xlink:href="#DejaVuSans-65" transform="translate(383.056641 0)"/>
     <use xlink:href="#DejaVuSans-64" transform="translate(444.580078 0)"/>
     <use xlink:href="#DejaVuSans-20" transform="translate(508.056641 0)"/>
     <use xlink:href="#DejaVuSans-54" transform="translate(539.84375 0)"/>
     <use xlink:href="#DejaVuSans-72" transform="translate(586.177734 0)"/>
     <use xlink:href="#DejaVuSans-61" transform="translate(627.291016 0)"/>
     <use xlink:href="#DejaVuSans-69" transform="translate(688.570312 0)"/>
     <use xlink:href="#DejaVuSans-6e" transform="translate(716.353516 0)"/>
     <use xlink:href="#DejaVuSans-20" transform="translate(779.732422 0)"/>
     <use xlink:href="#DejaVuSans-4c" transform="translate(811.519531 0)"/>
     <use xlink:href="#DejaVuSans-6f" transform="translate(865.482422 0)"/>
     <use xlink:href="#DejaVuSans-73" transform="translate(926.664062 0)"/>
     <use xlink:href="#DejaVuSans-73" transform="translate(978.763672 0)"/>
    </g>
   </g>
   <g id="legend_1">
    <g id="patch_7">
     <path d="M 636.08625 103.70875 
L 698.26125 103.70875 
Q 700.26125 103.70875 700.26125 101.70875 
L 700.26125 29.318125 
Q 700.26125 27.318125 698.26125 27.318125 
L 636.08625 27.318125 
Q 634.08625 27.318125 634.08625 29.318125 
L 634.08625 101.70875 
Q 634.08625 103.70875 636.08625 103.70875 
z
" style="fill: #ffffff; opacity: 0.8; stroke: #cccccc; stroke-linejoin: miter"/>
    </g>
    <g id="line2d_17">
     <path d="M 638.08625 35.416562 
L 648.08625 35.416562 
L 658.08625 35.416562 
" style="fill: none; stroke: #1f77b4; stroke-width: 1.5; stroke-linecap: square"/>
    </g>
    <g id="text_15">
     <!-- Fold 1 -->
     <g transform="translate(666.08625 38.916562) scale(0.1 -0.1)">
      <defs>
       <path id="DejaVuSans-46" d="M 628 4666 
L 3309 4666 
L 3309 4134 
L 1259 4134 
L 1259 2759 
L 3109 2759 
L 3109 2228 
L 1259 2228 
L 1259 0 
L 628 0 
L 628 4666 
z
" transform="scale(0.015625)"/>
       <path id="DejaVuSans-6c" d="M 603 4863 
L 1178 4863 
L 1178 0 
L 603 0 
L 603 4863 
z
" transform="scale(0.015625)"/>
      </defs>
      <use xlink:href="#DejaVuSans-46"/>
      <use xlink:href="#DejaVuSans-6f" transform="translate(53.894531 0)"/>
      <use xlink:href="#DejaVuSans-6c" transform="translate(115.076172 0)"/>
      <use xlink:href="#DejaVuSans-64" transform="translate(142.859375 0)"/>
      <use xlink:href="#DejaVuSans-20" transform="translate(206.335938 0)"/>
      <use xlink:href="#DejaVuSans-31" transform="translate(238.123047 0)"/>
     </g>
    </g>
    <g id="line2d_18">
     <path d="M 638.08625 50.094688 
L 648.08625 50.094688 
L 658.08625 50.094688 
" style="fill: none; stroke: #ff7f0e; stroke-width: 1.5; stroke-linecap: square"/>
    </g>
    <g id="text_16">
     <!-- Fold 2 -->
     <g transform="translate(666.08625 53.594688) scale(0.1 -0.1)">
      <use xlink:href="#DejaVuSans-46"/>
      <use xlink:href="#DejaVuSans-6f" transform="translate(53.894531 0)"/>
      <use xlink:href="#DejaVuSans-6c" transform="translate(115.076172 0)"/>
      <use xlink:href="#DejaVuSans-64" transform="translate(142.859375 0)"/>
      <use xlink:href="#DejaVuSans-20" transform="translate(206.335938 0)"/>
      <use xlink:href="#DejaVuSans-32" transform="translate(238.123047 0)"/>
     </g>
    </g>
    <g id="line2d_19">
     <path d="M 638.08625 64.772812 
L 648.08625 64.772812 
L 658.08625 64.772812 
" style="fill: none; stroke: #2ca02c; stroke-width: 1.5; stroke-linecap: square"/>
    </g>
    <g id="text_17">
     <!-- Fold 3 -->
     <g transform="translate(666.08625 68.272812) scale(0.1 -0.1)">
      <defs>
       <path id="DejaVuSans-33" d="M 2597 2516 
Q 3050 2419 3304 2112 
Q 3559 1806 3559 1356 
Q 3559 666 3084 287 
Q 2609 -91 1734 -91 
Q 1441 -91 1130 -33 
Q 819 25 488 141 
L 488 750 
Q 750 597 1062 519 
Q 1375 441 1716 441 
Q 2309 441 2620 675 
Q 2931 909 2931 1356 
Q 2931 1769 2642 2001 
Q 2353 2234 1838 2234 
L 1294 2234 
L 1294 2753 
L 1863 2753 
Q 2328 2753 2575 2939 
Q 2822 3125 2822 3475 
Q 2822 3834 2567 4026 
Q 2313 4219 1838 4219 
Q 1578 4219 1281 4162 
Q 984 4106 628 3988 
L 628 4550 
Q 988 4650 1302 4700 
Q 1616 4750 1894 4750 
Q 2613 4750 3031 4423 
Q 3450 4097 3450 3541 
Q 3450 3153 3228 2886 
Q 3006 2619 2597 2516 
z
" transform="scale(0.015625)"/>
      </defs>
      <use xlink:href="#DejaVuSans-46"/>
      <use xlink:href="#DejaVuSans-6f" transform="translate(53.894531 0)"/>
      <use xlink:href="#DejaVuSans-6c" transform="translate(115.076172 0)"/>
      <use xlink:href="#DejaVuSans-64" transform="translate(142.859375 0)"/>
      <use xlink:href="#DejaVuSans-20" transform="translate(206.335938 0)"/>
      <use xlink:href="#DejaVuSans-33" transform="translate(238.123047 0)"/>
     </g>
    </g>
    <g id="line2d_20">
     <path d="M 638.08625 79.450938 
L 648.08625 79.450938 
L 658.08625 79.450938 
" style="fill: none; stroke: #d62728; stroke-width: 1.5; stroke-linecap: square"/>
    </g>
    <g id="text_18">
     <!-- Fold 4 -->
     <g transform="translate(666.08625 82.950938) scale(0.1 -0.1)">
      <use xlink:href="#DejaVuSans-46"/>
      <use xlink:href="#DejaVuSans-6f" transform="translate(53.894531 0)"/>
      <use xlink:href="#DejaVuSans-6c" transform="translate(115.076172 0)"/>
      <use xlink:href="#DejaVuSans-64" transform="translate(142.859375 0)"/>
      <use xlink:href="#DejaVuSans-20" transform="translate(206.335938 0)"/>
      <use xlink:href="#DejaVuSans-34" transform="translate(238.123047 0)"/>
     </g>
    </g>
    <g id="line2d_21">
     <path d="M 638.08625 94.129063 
L 648.08625 94.129063 
L 658.08625 94.129063 
" style="fill: none; stroke: #9467bd; stroke-width: 1.5; stroke-linecap: square"/>
    </g>
    <g id="text_19">
     <!-- Fold 5 -->
     <g transform="translate(666.08625 97.629063) scale(0.1 -0.1)">
      <defs>
       <path id="DejaVuSans-35" d="M 691 4666 
L 3169 4666 
L 3169 4134 
L 1269 4134 
L 1269 2991 
Q 1406 3038 1543 3061 
Q 1681 3084 1819 3084 
Q 2600 3084 3056 2656 
Q 3513 2228 3513 1497 
Q 3513 744 3044 326 
Q 2575 -91 1722 -91 
Q 1428 -91 1123 -41 
Q 819 9 494 109 
L 494 744 
Q 775 591 1075 516 
Q 1375 441 1709 441 
Q 2250 441 2565 725 
Q 2881 1009 2881 1497 
Q 2881 1984 2565 2268 
Q 2250 2553 1709 2553 
Q 1456 2553 1204 2497 
Q 953 2441 691 2322 
L 691 4666 
z
" transform="scale(0.015625)"/>
      </defs>
      <use xlink:href="#DejaVuSans-46"/>
      <use xlink:href="#DejaVuSans-6f" transform="translate(53.894531 0)"/>
      <use xlink:href="#DejaVuSans-6c" transform="translate(115.076172 0)"/>
      <use xlink:href="#DejaVuSans-64" transform="translate(142.859375 0)"/>
      <use xlink:href="#DejaVuSans-20" transform="translate(206.335938 0)"/>
      <use xlink:href="#DejaVuSans-35" transform="translate(238.123047 0)"/>
     </g>
    </g>
   </g>
  </g>
 </g>
 <defs>
  <clipPath id="pf1c276d3b1">
   <rect x="43.78125" y="22.318125" width="661.48" height="363.16"/>
  </clipPath>
 </defs>
</svg>
