<?xml version="1.0" encoding="utf-8" standalone="no"?>
<!DOCTYPE svg PUBLIC "-//W3C//DTD SVG 1.1//EN"
  "http://www.w3.org/Graphics/SVG/1.1/DTD/svg11.dtd">
<svg xmlns:xlink="http://www.w3.org/1999/xlink" width="712.46125pt" height="423.034375pt" viewBox="0 0 712.46125 423.034375" xmlns="http://www.w3.org/2000/svg" version="1.1">
 <metadata>
  <rdf:RDF xmlns:dc="http://purl.org/dc/elements/1.1/" xmlns:cc="http://creativecommons.org/ns#" xmlns:rdf="http://www.w3.org/1999/02/22-rdf-syntax-ns#">
   <cc:Work>
    <dc:type rdf:resource="http://purl.org/dc/dcmitype/StillImage"/>
    <dc:date>2025-06-25T07:23:48.782329</dc:date>
    <dc:format>image/svg+xml</dc:format>
    <dc:creator>
     <cc:Agent>
      <dc:title>Matplotlib v3.10.0, https://matplotlib.org/</dc:title>
     </cc:Agent>
    </dc:creator>
   </cc:Work>
  </rdf:RDF>
 </metadata>
 <defs>
  <style type="text/css">*{stroke-linejoin: round; stroke-linecap: butt}</style>
 </defs>
 <g id="figure_1">
  <g id="patch_1">
   <path d="M 0 423.034375 
L 712.46125 423.034375 
L 712.46125 0 
L 0 0 
z
" style="fill: #ffffff"/>
  </g>
  <g id="axes_1">
   <g id="patch_2">
    <path d="M 43.78125 385.478125 
L 705.26125 385.478125 
L 705.26125 22.318125 
L 43.78125 22.318125 
z
" style="fill: #ffffff"/>
   </g>
   <g id="matplotlib.axis_1">
    <g id="xtick_1">
     <g id="line2d_1">
      <defs>
       <path id="m605887fcb0" d="M 0 0 
L 0 3.5 
" style="stroke: #000000; stroke-width: 0.8"/>
      </defs>
      <g>
       <use xlink:href="#m605887fcb0" x="67.774326" y="385.478125" style="stroke: #000000; stroke-width: 0.8"/>
      </g>
     </g>
     <g id="text_1">
      <!-- 0 -->
      <g transform="translate(64.593076 400.076562) scale(0.1 -0.1)">
       <defs>
        <path id="DejaVuSans-30" d="M 2034 4250 
Q 1547 4250 1301 3770 
Q 1056 3291 1056 2328 
Q 1056 1369 1301 889 
Q 1547 409 2034 409 
Q 2525 409 2770 889 
Q 3016 1369 3016 2328 
Q 3016 3291 2770 3770 
Q 2525 4250 2034 4250 
z
M 2034 4750 
Q 2819 4750 3233 4129 
Q 3647 3509 3647 2328 
Q 3647 1150 3233 529 
Q 2819 -91 2034 -91 
Q 1250 -91 836 529 
Q 422 1150 422 2328 
Q 422 3509 836 4129 
Q 1250 4750 2034 4750 
z
" transform="scale(0.015625)"/>
       </defs>
       <use xlink:href="#DejaVuSans-30"/>
      </g>
     </g>
    </g>
    <g id="xtick_2">
     <g id="line2d_2">
      <g>
       <use xlink:href="#m605887fcb0" x="189.258256" y="385.478125" style="stroke: #000000; stroke-width: 0.8"/>
      </g>
     </g>
     <g id="text_2">
      <!-- 20 -->
      <g transform="translate(182.895756 400.076562) scale(0.1 -0.1)">
       <defs>
        <path id="DejaVuSans-32" d="M 1228 531 
L 3431 531 
L 3431 0 
L 469 0 
L 469 531 
Q 828 903 1448 1529 
Q 2069 2156 2228 2338 
Q 2531 2678 2651 2914 
Q 2772 3150 2772 3378 
Q 2772 3750 2511 3984 
Q 2250 4219 1831 4219 
Q 1534 4219 1204 4116 
Q 875 4013 500 3803 
L 500 4441 
Q 881 4594 1212 4672 
Q 1544 4750 1819 4750 
Q 2544 4750 2975 4387 
Q 3406 4025 3406 3419 
Q 3406 3131 3298 2873 
Q 3191 2616 2906 2266 
Q 2828 2175 2409 1742 
Q 1991 1309 1228 531 
z
" transform="scale(0.015625)"/>
       </defs>
       <use xlink:href="#DejaVuSans-32"/>
       <use xlink:href="#DejaVuSans-30" transform="translate(63.623047 0)"/>
      </g>
     </g>
    </g>
    <g id="xtick_3">
     <g id="line2d_3">
      <g>
       <use xlink:href="#m605887fcb0" x="310.742187" y="385.478125" style="stroke: #000000; stroke-width: 0.8"/>
      </g>
     </g>
     <g id="text_3">
      <!-- 40 -->
      <g transform="translate(304.379687 400.076562) scale(0.1 -0.1)">
       <defs>
        <path id="DejaVuSans-34" d="M 2419 4116 
L 825 1625 
L 2419 1625 
L 2419 4116 
z
M 2253 4666 
L 3047 4666 
L 3047 1625 
L 3713 1625 
L 3713 1100 
L 3047 1100 
L 3047 0 
L 2419 0 
L 2419 1100 
L 313 1100 
L 313 1709 
L 2253 4666 
z
" transform="scale(0.015625)"/>
       </defs>
       <use xlink:href="#DejaVuSans-34"/>
       <use xlink:href="#DejaVuSans-30" transform="translate(63.623047 0)"/>
      </g>
     </g>
    </g>
    <g id="xtick_4">
     <g id="line2d_4">
      <g>
       <use xlink:href="#m605887fcb0" x="432.226117" y="385.478125" style="stroke: #000000; stroke-width: 0.8"/>
      </g>
     </g>
     <g id="text_4">
      <!-- 60 -->
      <g transform="translate(425.863617 400.076562) scale(0.1 -0.1)">
       <defs>
        <path id="DejaVuSans-36" d="M 2113 2584 
Q 1688 2584 1439 2293 
Q 1191 2003 1191 1497 
Q 1191 994 1439 701 
Q 1688 409 2113 409 
Q 2538 409 2786 701 
Q 3034 994 3034 1497 
Q 3034 2003 2786 2293 
Q 2538 2584 2113 2584 
z
M 3366 4563 
L 3366 3988 
Q 3128 4100 2886 4159 
Q 2644 4219 2406 4219 
Q 1781 4219 1451 3797 
Q 1122 3375 1075 2522 
Q 1259 2794 1537 2939 
Q 1816 3084 2150 3084 
Q 2853 3084 3261 2657 
Q 3669 2231 3669 1497 
Q 3669 778 3244 343 
Q 2819 -91 2113 -91 
Q 1303 -91 875 529 
Q 447 1150 447 2328 
Q 447 3434 972 4092 
Q 1497 4750 2381 4750 
Q 2619 4750 2861 4703 
Q 3103 4656 3366 4563 
z
" transform="scale(0.015625)"/>
       </defs>
       <use xlink:href="#DejaVuSans-36"/>
       <use xlink:href="#DejaVuSans-30" transform="translate(63.623047 0)"/>
      </g>
     </g>
    </g>
    <g id="xtick_5">
     <g id="line2d_5">
      <g>
       <use xlink:href="#m605887fcb0" x="553.710047" y="385.478125" style="stroke: #000000; stroke-width: 0.8"/>
      </g>
     </g>
     <g id="text_5">
      <!-- 80 -->
      <g transform="translate(547.347547 400.076562) scale(0.1 -0.1)">
       <defs>
        <path id="DejaVuSans-38" d="M 2034 2216 
Q 1584 2216 1326 1975 
Q 1069 1734 1069 1313 
Q 1069 891 1326 650 
Q 1584 409 2034 409 
Q 2484 409 2743 651 
Q 3003 894 3003 1313 
Q 3003 1734 2745 1975 
Q 2488 2216 2034 2216 
z
M 1403 2484 
Q 997 2584 770 2862 
Q 544 3141 544 3541 
Q 544 4100 942 4425 
Q 1341 4750 2034 4750 
Q 2731 4750 3128 4425 
Q 3525 4100 3525 3541 
Q 3525 3141 3298 2862 
Q 3072 2584 2669 2484 
Q 3125 2378 3379 2068 
Q 3634 1759 3634 1313 
Q 3634 634 3220 271 
Q 2806 -91 2034 -91 
Q 1263 -91 848 271 
Q 434 634 434 1313 
Q 434 1759 690 2068 
Q 947 2378 1403 2484 
z
M 1172 3481 
Q 1172 3119 1398 2916 
Q 1625 2713 2034 2713 
Q 2441 2713 2670 2916 
Q 2900 3119 2900 3481 
Q 2900 3844 2670 4047 
Q 2441 4250 2034 4250 
Q 1625 4250 1398 4047 
Q 1172 3844 1172 3481 
z
" transform="scale(0.015625)"/>
       </defs>
       <use xlink:href="#DejaVuSans-38"/>
       <use xlink:href="#DejaVuSans-30" transform="translate(63.623047 0)"/>
      </g>
     </g>
    </g>
    <g id="xtick_6">
     <g id="line2d_6">
      <g>
       <use xlink:href="#m605887fcb0" x="675.193977" y="385.478125" style="stroke: #000000; stroke-width: 0.8"/>
      </g>
     </g>
     <g id="text_6">
      <!-- 100 -->
      <g transform="translate(665.650227 400.076562) scale(0.1 -0.1)">
       <defs>
        <path id="DejaVuSans-31" d="M 794 531 
L 1825 531 
L 1825 4091 
L 703 3866 
L 703 4441 
L 1819 4666 
L 2450 4666 
L 2450 531 
L 3481 531 
L 3481 0 
L 794 0 
L 794 531 
z
" transform="scale(0.015625)"/>
       </defs>
       <use xlink:href="#DejaVuSans-31"/>
       <use xlink:href="#DejaVuSans-30" transform="translate(63.623047 0)"/>
       <use xlink:href="#DejaVuSans-30" transform="translate(127.246094 0)"/>
      </g>
     </g>
    </g>
    <g id="text_7">
     <!-- Epoch -->
     <g transform="translate(359.210312 413.754687) scale(0.1 -0.1)">
      <defs>
       <path id="DejaVuSans-45" d="M 628 4666 
L 3578 4666 
L 3578 4134 
L 1259 4134 
L 1259 2753 
L 3481 2753 
L 3481 2222 
L 1259 2222 
L 1259 531 
L 3634 531 
L 3634 0 
L 628 0 
L 628 4666 
z
" transform="scale(0.015625)"/>
       <path id="DejaVuSans-70" d="M 1159 525 
L 1159 -1331 
L 581 -1331 
L 581 3500 
L 1159 3500 
L 1159 2969 
Q 1341 3281 1617 3432 
Q 1894 3584 2278 3584 
Q 2916 3584 3314 3078 
Q 3713 2572 3713 1747 
Q 3713 922 3314 415 
Q 2916 -91 2278 -91 
Q 1894 -91 1617 61 
Q 1341 213 1159 525 
z
M 3116 1747 
Q 3116 2381 2855 2742 
Q 2594 3103 2138 3103 
Q 1681 3103 1420 2742 
Q 1159 2381 1159 1747 
Q 1159 1113 1420 752 
Q 1681 391 2138 391 
Q 2594 391 2855 752 
Q 3116 1113 3116 1747 
z
" transform="scale(0.015625)"/>
       <path id="DejaVuSans-6f" d="M 1959 3097 
Q 1497 3097 1228 2736 
Q 959 2375 959 1747 
Q 959 1119 1226 758 
Q 1494 397 1959 397 
Q 2419 397 2687 759 
Q 2956 1122 2956 1747 
Q 2956 2369 2687 2733 
Q 2419 3097 1959 3097 
z
M 1959 3584 
Q 2709 3584 3137 3096 
Q 3566 2609 3566 1747 
Q 3566 888 3137 398 
Q 2709 -91 1959 -91 
Q 1206 -91 779 398 
Q 353 888 353 1747 
Q 353 2609 779 3096 
Q 1206 3584 1959 3584 
z
" transform="scale(0.015625)"/>
       <path id="DejaVuSans-63" d="M 3122 3366 
L 3122 2828 
Q 2878 2963 2633 3030 
Q 2388 3097 2138 3097 
Q 1578 3097 1268 2742 
Q 959 2388 959 1747 
Q 959 1106 1268 751 
Q 1578 397 2138 397 
Q 2388 397 2633 464 
Q 2878 531 3122 666 
L 3122 134 
Q 2881 22 2623 -34 
Q 2366 -91 2075 -91 
Q 1284 -91 818 406 
Q 353 903 353 1747 
Q 353 2603 823 3093 
Q 1294 3584 2113 3584 
Q 2378 3584 2631 3529 
Q 2884 3475 3122 3366 
z
" transform="scale(0.015625)"/>
       <path id="DejaVuSans-68" d="M 3513 2113 
L 3513 0 
L 2938 0 
L 2938 2094 
Q 2938 2591 2744 2837 
Q 2550 3084 2163 3084 
Q 1697 3084 1428 2787 
Q 1159 2491 1159 1978 
L 1159 0 
L 581 0 
L 581 4863 
L 1159 4863 
L 1159 2956 
Q 1366 3272 1645 3428 
Q 1925 3584 2291 3584 
Q 2894 3584 3203 3211 
Q 3513 2838 3513 2113 
z
" transform="scale(0.015625)"/>
      </defs>
      <use xlink:href="#DejaVuSans-45"/>
      <use xlink:href="#DejaVuSans-70" transform="translate(63.183594 0)"/>
      <use xlink:href="#DejaVuSans-6f" transform="translate(126.660156 0)"/>
      <use xlink:href="#DejaVuSans-63" transform="translate(187.841797 0)"/>
      <use xlink:href="#DejaVuSans-68" transform="translate(242.822266 0)"/>
     </g>
    </g>
   </g>
   <g id="matplotlib.axis_2">
    <g id="ytick_1">
     <g id="line2d_7">
      <defs>
       <path id="m7103e38ab0" d="M 0 0 
L -3.5 0 
" style="stroke: #000000; stroke-width: 0.8"/>
      </defs>
      <g>
       <use xlink:href="#m7103e38ab0" x="43.78125" y="358.282331" style="stroke: #000000; stroke-width: 0.8"/>
      </g>
     </g>
     <g id="text_8">
      <!-- 0.4 -->
      <g transform="translate(20.878125 362.081549) scale(0.1 -0.1)">
       <defs>
        <path id="DejaVuSans-2e" d="M 684 794 
L 1344 794 
L 1344 0 
L 684 0 
L 684 794 
z
" transform="scale(0.015625)"/>
       </defs>
       <use xlink:href="#DejaVuSans-30"/>
       <use xlink:href="#DejaVuSans-2e" transform="translate(63.623047 0)"/>
       <use xlink:href="#DejaVuSans-34" transform="translate(95.410156 0)"/>
      </g>
     </g>
    </g>
    <g id="ytick_2">
     <g id="line2d_8">
      <g>
       <use xlink:href="#m7103e38ab0" x="43.78125" y="296.798359" style="stroke: #000000; stroke-width: 0.8"/>
      </g>
     </g>
     <g id="text_9">
      <!-- 0.5 -->
      <g transform="translate(20.878125 300.597578) scale(0.1 -0.1)">
       <defs>
        <path id="DejaVuSans-35" d="M 691 4666 
L 3169 4666 
L 3169 4134 
L 1269 4134 
L 1269 2991 
Q 1406 3038 1543 3061 
Q 1681 3084 1819 3084 
Q 2600 3084 3056 2656 
Q 3513 2228 3513 1497 
Q 3513 744 3044 326 
Q 2575 -91 1722 -91 
Q 1428 -91 1123 -41 
Q 819 9 494 109 
L 494 744 
Q 775 591 1075 516 
Q 1375 441 1709 441 
Q 2250 441 2565 725 
Q 2881 1009 2881 1497 
Q 2881 1984 2565 2268 
Q 2250 2553 1709 2553 
Q 1456 2553 1204 2497 
Q 953 2441 691 2322 
L 691 4666 
z
" transform="scale(0.015625)"/>
       </defs>
       <use xlink:href="#DejaVuSans-30"/>
       <use xlink:href="#DejaVuSans-2e" transform="translate(63.623047 0)"/>
       <use xlink:href="#DejaVuSans-35" transform="translate(95.410156 0)"/>
      </g>
     </g>
    </g>
    <g id="ytick_3">
     <g id="line2d_9">
      <g>
       <use xlink:href="#m7103e38ab0" x="43.78125" y="235.314387" style="stroke: #000000; stroke-width: 0.8"/>
      </g>
     </g>
     <g id="text_10">
      <!-- 0.6 -->
      <g transform="translate(20.878125 239.113606) scale(0.1 -0.1)">
       <use xlink:href="#DejaVuSans-30"/>
       <use xlink:href="#DejaVuSans-2e" transform="translate(63.623047 0)"/>
       <use xlink:href="#DejaVuSans-36" transform="translate(95.410156 0)"/>
      </g>
     </g>
    </g>
    <g id="ytick_4">
     <g id="line2d_10">
      <g>
       <use xlink:href="#m7103e38ab0" x="43.78125" y="173.830415" style="stroke: #000000; stroke-width: 0.8"/>
      </g>
     </g>
     <g id="text_11">
      <!-- 0.7 -->
      <g transform="translate(20.878125 177.629634) scale(0.1 -0.1)">
       <defs>
        <path id="DejaVuSans-37" d="M 525 4666 
L 3525 4666 
L 3525 4397 
L 1831 0 
L 1172 0 
L 2766 4134 
L 525 4134 
L 525 4666 
z
" transform="scale(0.015625)"/>
       </defs>
       <use xlink:href="#DejaVuSans-30"/>
       <use xlink:href="#DejaVuSans-2e" transform="translate(63.623047 0)"/>
       <use xlink:href="#DejaVuSans-37" transform="translate(95.410156 0)"/>
      </g>
     </g>
    </g>
    <g id="ytick_5">
     <g id="line2d_11">
      <g>
       <use xlink:href="#m7103e38ab0" x="43.78125" y="112.346443" style="stroke: #000000; stroke-width: 0.8"/>
      </g>
     </g>
     <g id="text_12">
      <!-- 0.8 -->
      <g transform="translate(20.878125 116.145662) scale(0.1 -0.1)">
       <use xlink:href="#DejaVuSans-30"/>
       <use xlink:href="#DejaVuSans-2e" transform="translate(63.623047 0)"/>
       <use xlink:href="#DejaVuSans-38" transform="translate(95.410156 0)"/>
      </g>
     </g>
    </g>
    <g id="ytick_6">
     <g id="line2d_12">
      <g>
       <use xlink:href="#m7103e38ab0" x="43.78125" y="50.862471" style="stroke: #000000; stroke-width: 0.8"/>
      </g>
     </g>
     <g id="text_13">
      <!-- 0.9 -->
      <g transform="translate(20.878125 54.66169) scale(0.1 -0.1)">
       <defs>
        <path id="DejaVuSans-39" d="M 703 97 
L 703 672 
Q 941 559 1184 500 
Q 1428 441 1663 441 
Q 2288 441 2617 861 
Q 2947 1281 2994 2138 
Q 2813 1869 2534 1725 
Q 2256 1581 1919 1581 
Q 1219 1581 811 2004 
Q 403 2428 403 3163 
Q 403 3881 828 4315 
Q 1253 4750 1959 4750 
Q 2769 4750 3195 4129 
Q 3622 3509 3622 2328 
Q 3622 1225 3098 567 
Q 2575 -91 1691 -91 
Q 1453 -91 1209 -44 
Q 966 3 703 97 
z
M 1959 2075 
Q 2384 2075 2632 2365 
Q 2881 2656 2881 3163 
Q 2881 3666 2632 3958 
Q 2384 4250 1959 4250 
Q 1534 4250 1286 3958 
Q 1038 3666 1038 3163 
Q 1038 2656 1286 2365 
Q 1534 2075 1959 2075 
z
" transform="scale(0.015625)"/>
       </defs>
       <use xlink:href="#DejaVuSans-30"/>
       <use xlink:href="#DejaVuSans-2e" transform="translate(63.623047 0)"/>
       <use xlink:href="#DejaVuSans-39" transform="translate(95.410156 0)"/>
      </g>
     </g>
    </g>
    <g id="text_14">
     <!-- Train Accuracy -->
     <g transform="translate(14.798438 240.309062) rotate(-90) scale(0.1 -0.1)">
      <defs>
       <path id="DejaVuSans-54" d="M -19 4666 
L 3928 4666 
L 3928 4134 
L 2272 4134 
L 2272 0 
L 1638 0 
L 1638 4134 
L -19 4134 
L -19 4666 
z
" transform="scale(0.015625)"/>
       <path id="DejaVuSans-72" d="M 2631 2963 
Q 2534 3019 2420 3045 
Q 2306 3072 2169 3072 
Q 1681 3072 1420 2755 
Q 1159 2438 1159 1844 
L 1159 0 
L 581 0 
L 581 3500 
L 1159 3500 
L 1159 2956 
Q 1341 3275 1631 3429 
Q 1922 3584 2338 3584 
Q 2397 3584 2469 3576 
Q 2541 3569 2628 3553 
L 2631 2963 
z
" transform="scale(0.015625)"/>
       <path id="DejaVuSans-61" d="M 2194 1759 
Q 1497 1759 1228 1600 
Q 959 1441 959 1056 
Q 959 750 1161 570 
Q 1363 391 1709 391 
Q 2188 391 2477 730 
Q 2766 1069 2766 1631 
L 2766 1759 
L 2194 1759 
z
M 3341 1997 
L 3341 0 
L 2766 0 
L 2766 531 
Q 2569 213 2275 61 
Q 1981 -91 1556 -91 
Q 1019 -91 701 211 
Q 384 513 384 1019 
Q 384 1609 779 1909 
Q 1175 2209 1959 2209 
L 2766 2209 
L 2766 2266 
Q 2766 2663 2505 2880 
Q 2244 3097 1772 3097 
Q 1472 3097 1187 3025 
Q 903 2953 641 2809 
L 641 3341 
Q 956 3463 1253 3523 
Q 1550 3584 1831 3584 
Q 2591 3584 2966 3190 
Q 3341 2797 3341 1997 
z
" transform="scale(0.015625)"/>
       <path id="DejaVuSans-69" d="M 603 3500 
L 1178 3500 
L 1178 0 
L 603 0 
L 603 3500 
z
M 603 4863 
L 1178 4863 
L 1178 4134 
L 603 4134 
L 603 4863 
z
" transform="scale(0.015625)"/>
       <path id="DejaVuSans-6e" d="M 3513 2113 
L 3513 0 
L 2938 0 
L 2938 2094 
Q 2938 2591 2744 2837 
Q 2550 3084 2163 3084 
Q 1697 3084 1428 2787 
Q 1159 2491 1159 1978 
L 1159 0 
L 581 0 
L 581 3500 
L 1159 3500 
L 1159 2956 
Q 1366 3272 1645 3428 
Q 1925 3584 2291 3584 
Q 2894 3584 3203 3211 
Q 3513 2838 3513 2113 
z
" transform="scale(0.015625)"/>
       <path id="DejaVuSans-20" transform="scale(0.015625)"/>
       <path id="DejaVuSans-41" d="M 2188 4044 
L 1331 1722 
L 3047 1722 
L 2188 4044 
z
M 1831 4666 
L 2547 4666 
L 4325 0 
L 3669 0 
L 3244 1197 
L 1141 1197 
L 716 0 
L 50 0 
L 1831 4666 
z
" transform="scale(0.015625)"/>
       <path id="DejaVuSans-75" d="M 544 1381 
L 544 3500 
L 1119 3500 
L 1119 1403 
Q 1119 906 1312 657 
Q 1506 409 1894 409 
Q 2359 409 2629 706 
Q 2900 1003 2900 1516 
L 2900 3500 
L 3475 3500 
L 3475 0 
L 2900 0 
L 2900 538 
Q 2691 219 2414 64 
Q 2138 -91 1772 -91 
Q 1169 -91 856 284 
Q 544 659 544 1381 
z
M 1991 3584 
L 1991 3584 
z
" transform="scale(0.015625)"/>
       <path id="DejaVuSans-79" d="M 2059 -325 
Q 1816 -950 1584 -1140 
Q 1353 -1331 966 -1331 
L 506 -1331 
L 506 -850 
L 844 -850 
Q 1081 -850 1212 -737 
Q 1344 -625 1503 -206 
L 1606 56 
L 191 3500 
L 800 3500 
L 1894 763 
L 2988 3500 
L 3597 3500 
L 2059 -325 
z
" transform="scale(0.015625)"/>
      </defs>
      <use xlink:href="#DejaVuSans-54"/>
      <use xlink:href="#DejaVuSans-72" transform="translate(46.333984 0)"/>
      <use xlink:href="#DejaVuSans-61" transform="translate(87.447266 0)"/>
      <use xlink:href="#DejaVuSans-69" transform="translate(148.726562 0)"/>
      <use xlink:href="#DejaVuSans-6e" transform="translate(176.509766 0)"/>
      <use xlink:href="#DejaVuSans-20" transform="translate(239.888672 0)"/>
      <use xlink:href="#DejaVuSans-41" transform="translate(271.675781 0)"/>
      <use xlink:href="#DejaVuSans-63" transform="translate(338.333984 0)"/>
      <use xlink:href="#DejaVuSans-63" transform="translate(393.314453 0)"/>
      <use xlink:href="#DejaVuSans-75" transform="translate(448.294922 0)"/>
      <use xlink:href="#DejaVuSans-72" transform="translate(511.673828 0)"/>
      <use xlink:href="#DejaVuSans-61" transform="translate(552.787109 0)"/>
      <use xlink:href="#DejaVuSans-63" transform="translate(614.066406 0)"/>
      <use xlink:href="#DejaVuSans-79" transform="translate(669.046875 0)"/>
     </g>
    </g>
   </g>
   <g id="line2d_13">
    <path d="M 73.848523 340.394267 
L 79.922719 346.390266 
L 85.996916 274.43828 
L 92.071112 298.921942 
L 98.145309 288.17911 
L 104.219505 258.698783 
L 110.293702 258.698783 
L 116.367898 224.721455 
L 122.442095 190.993962 
L 128.516291 208.232459 
L 134.590488 205.734126 
L 140.664684 184.248463 
L 146.738881 168.758799 
L 152.813077 196.240461 
L 158.887274 167.509633 
L 164.96147 142.276471 
L 171.035667 131.033973 
L 177.109863 144.774804 
L 183.18406 135.281139 
L 189.258256 119.291808 
L 195.332453 133.782139 
L 201.406649 133.282472 
L 207.480846 137.779472 
L 213.555042 123.538974 
L 219.629239 120.291142 
L 225.703435 109.798143 
L 231.777632 155.767468 
L 237.851829 105.051311 
L 243.926025 100.304479 
L 250.000222 91.060647 
L 256.074418 96.307146 
L 262.148615 89.81148 
L 268.222811 90.061314 
L 274.297008 81.566982 
L 280.371204 95.807479 
L 286.445401 123.289141 
L 292.519597 96.806813 
L 298.593794 106.550311 
L 304.66799 108.79881 
L 310.742187 104.551644 
L 316.816383 106.300477 
L 322.89058 100.554312 
L 328.964776 98.805479 
L 335.038973 96.556979 
L 341.113169 88.312481 
L 347.187366 87.313148 
L 353.261562 99.055312 
L 359.335759 115.044642 
L 365.409955 132.033306 
L 371.484152 112.54631 
L 377.558348 85.314481 
L 383.632545 102.802811 
L 389.706741 88.812147 
L 395.780938 78.319149 
L 401.855134 88.312481 
L 407.929331 79.818149 
L 414.003527 75.071317 
L 420.077724 76.320483 
L 426.15192 81.317149 
L 432.226117 93.309147 
L 438.300313 95.05798 
L 444.37451 112.796143 
L 450.448706 99.305145 
L 456.522903 96.057313 
L 462.597099 101.803478 
L 468.671296 89.81148 
L 474.745492 81.317149 
L 480.819689 128.53564 
L 486.893885 101.303812 
L 492.968082 96.307146 
L 499.042278 101.303812 
L 505.116475 113.045976 
L 511.190671 84.814815 
L 517.264868 90.56098 
L 523.339065 98.305812 
L 529.413261 106.550311 
L 535.487458 103.802145 
L 541.561654 79.068649 
L 547.635851 104.801478 
L 553.710047 89.061981 
L 559.784244 79.318482 
L 565.85844 96.556979 
L 571.932637 86.313814 
L 578.006833 73.322484 
L 584.08103 74.821483 
L 590.155226 74.57165 
L 596.229423 78.319149 
L 602.303619 84.065315 
L 608.377816 71.573651 
L 614.452012 72.073317 
L 620.526209 74.321817 
L 626.600405 72.32315 
L 632.674602 96.307146 
L 638.748798 93.309147 
L 644.822995 111.79681 
L 650.897191 110.29781 
L 656.971388 107.049977 
L 663.045584 87.812814 
L 669.119781 74.821483 
L 675.193977 79.068649 
" clip-path="url(#p6bea2a016d)" style="fill: none; stroke: #1f77b4; stroke-width: 1.5; stroke-linecap: square"/>
   </g>
   <g id="line2d_14">
    <path d="M 73.848523 327.153103 
L 79.922719 356.383598 
L 85.996916 336.147102 
L 92.071112 326.403603 
L 98.145309 313.162439 
L 104.219505 295.923942 
L 110.293702 295.174442 
L 116.367898 296.173776 
L 122.442095 276.436946 
L 128.516291 268.692114 
L 134.590488 248.205784 
L 140.664684 251.953284 
L 146.738881 243.209119 
L 152.813077 202.486293 
L 158.887274 200.73746 
L 164.96147 194.241794 
L 171.035667 170.007966 
L 177.109863 153.269135 
L 183.18406 151.270469 
L 189.258256 164.2618 
L 195.332453 134.281806 
L 201.406649 138.029305 
L 207.480846 111.546976 
L 213.555042 155.017968 
L 219.629239 203.735459 
L 225.703435 204.734793 
L 231.777632 182.249797 
L 237.851829 176.753464 
L 243.926025 153.768802 
L 250.000222 145.524303 
L 256.074418 154.518302 
L 262.148615 140.777471 
L 268.222811 152.519636 
L 274.297008 148.522303 
L 280.371204 147.52297 
L 286.445401 142.276471 
L 292.519597 124.788141 
L 298.593794 123.788808 
L 304.66799 127.286474 
L 310.742187 120.790808 
L 316.816383 123.039308 
L 322.89058 111.546976 
L 328.964776 102.802811 
L 335.038973 101.803478 
L 341.113169 104.301811 
L 347.187366 112.046643 
L 353.261562 99.305145 
L 359.335759 110.547643 
L 365.409955 142.776137 
L 371.484152 107.049977 
L 377.558348 108.04931 
L 383.632545 103.052645 
L 389.706741 96.057313 
L 395.780938 99.554979 
L 401.855134 83.565648 
L 407.929331 88.812147 
L 414.003527 79.568316 
L 420.077724 104.051978 
L 426.15192 104.551644 
L 432.226117 102.802811 
L 438.300313 98.555646 
L 444.37451 88.812147 
L 450.448706 91.31048 
L 456.522903 71.823484 
L 462.597099 74.821483 
L 468.671296 99.055312 
L 474.745492 72.822817 
L 480.819689 66.077318 
L 486.893885 67.576318 
L 492.968082 69.824818 
L 499.042278 71.073984 
L 505.116475 68.575651 
L 511.190671 79.568316 
L 517.264868 75.570983 
L 523.339065 75.820816 
L 529.413261 77.569649 
L 535.487458 69.824818 
L 541.561654 54.335154 
L 547.635851 62.579652 
L 553.710047 54.08532 
L 559.784244 59.081986 
L 565.85844 61.330486 
L 571.932637 66.576985 
L 578.006833 67.826151 
L 584.08103 66.826818 
L 590.155226 70.574317 
L 596.229423 64.328485 
L 602.303619 56.33382 
L 608.377816 72.32315 
L 614.452012 62.329819 
L 620.526209 63.079319 
L 626.600405 67.326485 
L 632.674602 66.826818 
L 638.748798 59.581653 
L 644.822995 51.836821 
L 650.897191 50.587654 
L 656.971388 57.83282 
L 663.045584 52.836154 
L 669.119781 51.337154 
L 675.193977 65.577652 
" clip-path="url(#p6bea2a016d)" style="fill: none; stroke: #ff7f0e; stroke-width: 1.5; stroke-linecap: square"/>
   </g>
   <g id="line2d_15">
    <path d="M 73.848523 368.970852 
L 79.922719 352.988016 
L 85.996916 356.23453 
L 92.071112 333.259203 
L 98.145309 331.511081 
L 104.219505 292.80265 
L 110.293702 272.324641 
L 116.367898 258.33966 
L 122.442095 281.314987 
L 128.516291 275.820887 
L 134.590488 316.27744 
L 140.664684 289.306404 
L 146.738881 255.342878 
L 152.813077 269.078128 
L 158.887274 265.082419 
L 164.96147 241.607629 
L 171.035667 220.879888 
L 177.109863 193.409389 
L 183.18406 229.620502 
L 189.258256 243.106019 
L 195.332453 224.875597 
L 201.406649 218.132838 
L 207.480846 217.633375 
L 213.555042 214.886325 
L 219.629239 177.926017 
L 225.703435 163.19184 
L 231.777632 161.693449 
L 237.851829 158.946399 
L 243.926025 144.711686 
L 250.000222 170.434062 
L 256.074418 141.964636 
L 262.148615 189.913144 
L 268.222811 205.646248 
L 274.297008 223.87667 
L 280.371204 165.189694 
L 286.445401 180.173603 
L 292.519597 184.169312 
L 298.593794 201.400807 
L 304.66799 158.197204 
L 310.742187 179.424407 
L 316.816383 185.168239 
L 322.89058 151.953908 
L 328.964776 117.74065 
L 335.038973 123.484482 
L 341.113169 129.727777 
L 347.187366 108.500573 
L 353.261562 122.485555 
L 359.335759 129.977509 
L 365.409955 145.960345 
L 371.484152 133.473754 
L 377.558348 125.9818 
L 383.632545 132.225095 
L 389.706741 129.727777 
L 395.780938 107.751378 
L 401.855134 91.51881 
L 407.929331 88.77176 
L 414.003527 93.266933 
L 420.077724 89.021492 
L 426.15192 88.022565 
L 432.226117 83.777124 
L 438.300313 78.033292 
L 444.37451 93.766396 
L 450.448706 82.778197 
L 456.522903 93.766396 
L 462.597099 99.010764 
L 468.671296 90.270151 
L 474.745492 87.772833 
L 480.819689 87.772833 
L 486.893885 89.770687 
L 492.968082 82.278733 
L 499.042278 81.529537 
L 505.116475 84.776051 
L 511.190671 78.033292 
L 517.264868 93.266933 
L 523.339065 94.765323 
L 529.413261 86.524174 
L 535.487458 82.278733 
L 541.561654 81.030074 
L 547.635851 75.535974 
L 553.710047 67.544556 
L 559.784244 72.788924 
L 565.85844 73.288388 
L 571.932637 72.039729 
L 578.006833 77.034365 
L 584.08103 74.037583 
L 590.155226 62.799652 
L 596.229423 69.042947 
L 602.303619 64.298042 
L 608.377816 69.542411 
L 614.452012 69.792142 
L 620.526209 84.526319 
L 626.600405 86.773905 
L 632.674602 76.784633 
L 638.748798 69.042947 
L 644.822995 61.800724 
L 650.897191 62.300188 
L 656.971388 73.038656 
L 663.045584 71.540265 
L 669.119781 51.311988 
L 675.193977 48.315207 
" clip-path="url(#p6bea2a016d)" style="fill: none; stroke: #2ca02c; stroke-width: 1.5; stroke-linecap: square"/>
   </g>
   <g id="line2d_16">
    <path d="M 73.848523 349.242039 
L 79.922719 330.512153 
L 85.996916 337.00518 
L 92.071112 308.785486 
L 98.145309 298.546481 
L 104.219505 275.820887 
L 110.293702 308.785486 
L 116.367898 277.069546 
L 122.442095 273.5733 
L 128.516291 247.850924 
L 134.590488 255.342878 
L 140.664684 215.63552 
L 146.738881 185.667703 
L 152.813077 185.667703 
L 158.887274 174.679503 
L 164.96147 163.691303 
L 171.035667 156.199349 
L 177.109863 136.720268 
L 183.18406 150.705249 
L 189.258256 133.973218 
L 195.332453 154.95069 
L 201.406649 174.679503 
L 207.480846 148.457663 
L 213.555042 123.23475 
L 219.629239 121.486627 
L 225.703435 119.488773 
L 231.777632 120.987164 
L 237.851829 101.008619 
L 243.926025 94.765323 
L 250.000222 97.762105 
L 256.074418 89.021492 
L 262.148615 86.02471 
L 268.222811 88.272296 
L 274.297008 85.774978 
L 280.371204 85.525246 
L 286.445401 103.505937 
L 292.519597 93.516664 
L 298.593794 78.033292 
L 304.66799 77.78356 
L 310.742187 98.261569 
L 316.816383 87.273369 
L 322.89058 71.540265 
L 328.964776 83.27766 
L 335.038973 71.290533 
L 341.113169 79.531683 
L 347.187366 73.787851 
L 353.261562 74.037583 
L 359.335759 65.29697 
L 365.409955 65.29697 
L 371.484152 68.293751 
L 377.558348 75.03651 
L 383.632545 99.260496 
L 389.706741 77.78356 
L 395.780938 79.281951 
L 401.855134 58.803943 
L 407.929331 55.307697 
L 414.003527 78.782488 
L 420.077724 62.050456 
L 426.15192 61.051529 
L 432.226117 71.290533 
L 438.300313 56.556356 
L 444.37451 65.546702 
L 450.448706 67.045092 
L 456.522903 59.303406 
L 462.597099 58.054747 
L 468.671296 65.29697 
L 474.745492 73.288388 
L 480.819689 60.302333 
L 486.893885 63.798579 
L 492.968082 80.031147 
L 499.042278 67.045092 
L 505.116475 69.792142 
L 511.190671 61.051529 
L 517.264868 55.807161 
L 523.339065 59.80287 
L 529.413261 59.80287 
L 535.487458 63.798579 
L 541.561654 72.539192 
L 547.635851 61.301261 
L 553.710047 55.807161 
L 559.784244 53.309843 
L 565.85844 53.309843 
L 571.932637 49.813597 
L 578.006833 54.059038 
L 584.08103 48.564938 
L 590.155226 65.546702 
L 596.229423 62.050456 
L 602.303619 54.30877 
L 608.377816 62.300188 
L 614.452012 45.318425 
L 620.526209 40.074057 
L 626.600405 42.571375 
L 632.674602 39.574593 
L 638.748798 38.825398 
L 644.822995 41.822179 
L 650.897191 43.070839 
L 656.971388 42.571375 
L 663.045584 42.821107 
L 669.119781 78.283024 
L 675.193977 91.269078 
" clip-path="url(#p6bea2a016d)" style="fill: none; stroke: #d62728; stroke-width: 1.5; stroke-linecap: square"/>
   </g>
   <g id="line2d_17">
    <path d="M 73.848523 339.003035 
L 79.922719 320.273149 
L 85.996916 286.309623 
L 92.071112 283.562573 
L 98.145309 270.326787 
L 104.219505 264.083492 
L 110.293702 233.116747 
L 116.367898 237.112456 
L 122.442095 236.862724 
L 128.516291 237.861651 
L 134.590488 215.63552 
L 140.664684 206.645175 
L 146.738881 204.147857 
L 152.813077 176.427626 
L 158.887274 154.95069 
L 164.96147 170.933526 
L 171.035667 169.684867 
L 177.109863 228.621574 
L 183.18406 223.626938 
L 189.258256 197.155366 
L 195.332453 176.427626 
L 201.406649 181.921726 
L 207.480846 161.443717 
L 213.555042 154.201495 
L 219.629239 170.933526 
L 225.703435 163.941035 
L 231.777632 159.695594 
L 237.851829 149.45659 
L 243.926025 152.952835 
L 250.000222 141.21544 
L 256.074418 121.236895 
L 262.148615 110.997891 
L 268.222811 106.75245 
L 274.297008 105.004328 
L 280.371204 100.758887 
L 286.445401 95.764251 
L 292.519597 93.266933 
L 298.593794 83.27766 
L 304.66799 80.031147 
L 310.742187 84.026856 
L 316.816383 103.256205 
L 322.89058 111.497355 
L 328.964776 124.233677 
L 335.038973 119.988236 
L 341.113169 97.262642 
L 347.187366 92.517737 
L 353.261562 90.020419 
L 359.335759 87.273369 
L 365.409955 86.02471 
L 371.484152 85.774978 
L 377.558348 82.528465 
L 383.632545 88.522028 
L 389.706741 101.508082 
L 395.780938 88.77176 
L 401.855134 71.040801 
L 407.929331 77.78356 
L 414.003527 92.268005 
L 420.077724 87.273369 
L 426.15192 78.532756 
L 432.226117 63.548847 
L 438.300313 59.553138 
L 444.37451 64.797506 
L 450.448706 56.306625 
L 456.522903 70.041874 
L 462.597099 51.811452 
L 468.671296 56.056893 
L 474.745492 88.272296 
L 480.819689 67.294824 
L 486.893885 54.558502 
L 492.968082 52.310916 
L 499.042278 49.064402 
L 505.116475 61.550993 
L 511.190671 79.032219 
L 517.264868 70.041874 
L 523.339065 54.558502 
L 529.413261 72.788924 
L 535.487458 83.27766 
L 541.561654 55.807161 
L 547.635851 60.801797 
L 553.710047 77.284097 
L 559.784244 79.781415 
L 565.85844 71.290533 
L 571.932637 59.553138 
L 578.006833 66.795361 
L 584.08103 66.795361 
L 590.155226 66.545629 
L 596.229423 85.275515 
L 602.303619 67.045092 
L 608.377816 67.045092 
L 614.452012 61.051529 
L 620.526209 56.556356 
L 626.600405 51.811452 
L 632.674602 88.77176 
L 638.748798 94.765323 
L 644.822995 66.046165 
L 650.897191 63.798579 
L 656.971388 58.803943 
L 663.045584 76.534901 
L 669.119781 62.300188 
L 675.193977 65.546702 
" clip-path="url(#p6bea2a016d)" style="fill: none; stroke: #9467bd; stroke-width: 1.5; stroke-linecap: square"/>
   </g>
   <g id="patch_3">
    <path d="M 43.78125 385.478125 
L 43.78125 22.318125 
" style="fill: none; stroke: #000000; stroke-width: 0.8; stroke-linejoin: miter; stroke-linecap: square"/>
   </g>
   <g id="patch_4">
    <path d="M 705.26125 385.478125 
L 705.26125 22.318125 
" style="fill: none; stroke: #000000; stroke-width: 0.8; stroke-linejoin: miter; stroke-linecap: square"/>
   </g>
   <g id="patch_5">
    <path d="M 43.78125 385.478125 
L 705.26125 385.478125 
" style="fill: none; stroke: #000000; stroke-width: 0.8; stroke-linejoin: miter; stroke-linecap: square"/>
   </g>
   <g id="patch_6">
    <path d="M 43.78125 22.318125 
L 705.26125 22.318125 
" style="fill: none; stroke: #000000; stroke-width: 0.8; stroke-linejoin: miter; stroke-linecap: square"/>
   </g>
   <g id="text_15">
    <!-- Combined Train Accuracy -->
    <g transform="translate(298.436563 16.318125) scale(0.12 -0.12)">
     <defs>
      <path id="DejaVuSans-43" d="M 4122 4306 
L 4122 3641 
Q 3803 3938 3442 4084 
Q 3081 4231 2675 4231 
Q 1875 4231 1450 3742 
Q 1025 3253 1025 2328 
Q 1025 1406 1450 917 
Q 1875 428 2675 428 
Q 3081 428 3442 575 
Q 3803 722 4122 1019 
L 4122 359 
Q 3791 134 3420 21 
Q 3050 -91 2638 -91 
Q 1578 -91 968 557 
Q 359 1206 359 2328 
Q 359 3453 968 4101 
Q 1578 4750 2638 4750 
Q 3056 4750 3426 4639 
Q 3797 4528 4122 4306 
z
" transform="scale(0.015625)"/>
      <path id="DejaVuSans-6d" d="M 3328 2828 
Q 3544 3216 3844 3400 
Q 4144 3584 4550 3584 
Q 5097 3584 5394 3201 
Q 5691 2819 5691 2113 
L 5691 0 
L 5113 0 
L 5113 2094 
Q 5113 2597 4934 2840 
Q 4756 3084 4391 3084 
Q 3944 3084 3684 2787 
Q 3425 2491 3425 1978 
L 3425 0 
L 2847 0 
L 2847 2094 
Q 2847 2600 2669 2842 
Q 2491 3084 2119 3084 
Q 1678 3084 1418 2786 
Q 1159 2488 1159 1978 
L 1159 0 
L 581 0 
L 581 3500 
L 1159 3500 
L 1159 2956 
Q 1356 3278 1631 3431 
Q 1906 3584 2284 3584 
Q 2666 3584 2933 3390 
Q 3200 3197 3328 2828 
z
" transform="scale(0.015625)"/>
      <path id="DejaVuSans-62" d="M 3116 1747 
Q 3116 2381 2855 2742 
Q 2594 3103 2138 3103 
Q 1681 3103 1420 2742 
Q 1159 2381 1159 1747 
Q 1159 1113 1420 752 
Q 1681 391 2138 391 
Q 2594 391 2855 752 
Q 3116 1113 3116 1747 
z
M 1159 2969 
Q 1341 3281 1617 3432 
Q 1894 3584 2278 3584 
Q 2916 3584 3314 3078 
Q 3713 2572 3713 1747 
Q 3713 922 3314 415 
Q 2916 -91 2278 -91 
Q 1894 -91 1617 61 
Q 1341 213 1159 525 
L 1159 0 
L 581 0 
L 581 4863 
L 1159 4863 
L 1159 2969 
z
" transform="scale(0.015625)"/>
      <path id="DejaVuSans-65" d="M 3597 1894 
L 3597 1613 
L 953 1613 
Q 991 1019 1311 708 
Q 1631 397 2203 397 
Q 2534 397 2845 478 
Q 3156 559 3463 722 
L 3463 178 
Q 3153 47 2828 -22 
Q 2503 -91 2169 -91 
Q 1331 -91 842 396 
Q 353 884 353 1716 
Q 353 2575 817 3079 
Q 1281 3584 2069 3584 
Q 2775 3584 3186 3129 
Q 3597 2675 3597 1894 
z
M 3022 2063 
Q 3016 2534 2758 2815 
Q 2500 3097 2075 3097 
Q 1594 3097 1305 2825 
Q 1016 2553 972 2059 
L 3022 2063 
z
" transform="scale(0.015625)"/>
      <path id="DejaVuSans-64" d="M 2906 2969 
L 2906 4863 
L 3481 4863 
L 3481 0 
L 2906 0 
L 2906 525 
Q 2725 213 2448 61 
Q 2172 -91 1784 -91 
Q 1150 -91 751 415 
Q 353 922 353 1747 
Q 353 2572 751 3078 
Q 1150 3584 1784 3584 
Q 2172 3584 2448 3432 
Q 2725 3281 2906 2969 
z
M 947 1747 
Q 947 1113 1208 752 
Q 1469 391 1925 391 
Q 2381 391 2643 752 
Q 2906 1113 2906 1747 
Q 2906 2381 2643 2742 
Q 2381 3103 1925 3103 
Q 1469 3103 1208 2742 
Q 947 2381 947 1747 
z
" transform="scale(0.015625)"/>
     </defs>
     <use xlink:href="#DejaVuSans-43"/>
     <use xlink:href="#DejaVuSans-6f" transform="translate(69.824219 0)"/>
     <use xlink:href="#DejaVuSans-6d" transform="translate(131.005859 0)"/>
     <use xlink:href="#DejaVuSans-62" transform="translate(228.417969 0)"/>
     <use xlink:href="#DejaVuSans-69" transform="translate(291.894531 0)"/>
     <use xlink:href="#DejaVuSans-6e" transform="translate(319.677734 0)"/>
     <use xlink:href="#DejaVuSans-65" transform="translate(383.056641 0)"/>
     <use xlink:href="#DejaVuSans-64" transform="translate(444.580078 0)"/>
     <use xlink:href="#DejaVuSans-20" transform="translate(508.056641 0)"/>
     <use xlink:href="#DejaVuSans-54" transform="translate(539.84375 0)"/>
     <use xlink:href="#DejaVuSans-72" transform="translate(586.177734 0)"/>
     <use xlink:href="#DejaVuSans-61" transform="translate(627.291016 0)"/>
     <use xlink:href="#DejaVuSans-69" transform="translate(688.570312 0)"/>
     <use xlink:href="#DejaVuSans-6e" transform="translate(716.353516 0)"/>
     <use xlink:href="#DejaVuSans-20" transform="translate(779.732422 0)"/>
     <use xlink:href="#DejaVuSans-41" transform="translate(811.519531 0)"/>
     <use xlink:href="#DejaVuSans-63" transform="translate(878.177734 0)"/>
     <use xlink:href="#DejaVuSans-63" transform="translate(933.158203 0)"/>
     <use xlink:href="#DejaVuSans-75" transform="translate(988.138672 0)"/>
     <use xlink:href="#DejaVuSans-72" transform="translate(1051.517578 0)"/>
     <use xlink:href="#DejaVuSans-61" transform="translate(1092.630859 0)"/>
     <use xlink:href="#DejaVuSans-63" transform="translate(1153.910156 0)"/>
     <use xlink:href="#DejaVuSans-79" transform="translate(1208.890625 0)"/>
    </g>
   </g>
   <g id="legend_1">
    <g id="patch_7">
     <path d="M 50.78125 103.70875 
L 112.95625 103.70875 
Q 114.95625 103.70875 114.95625 101.70875 
L 114.95625 29.318125 
Q 114.95625 27.318125 112.95625 27.318125 
L 50.78125 27.318125 
Q 48.78125 27.318125 48.78125 29.318125 
L 48.78125 101.70875 
Q 48.78125 103.70875 50.78125 103.70875 
z
" style="fill: #ffffff; opacity: 0.8; stroke: #cccccc; stroke-linejoin: miter"/>
    </g>
    <g id="line2d_18">
     <path d="M 52.78125 35.416562 
L 62.78125 35.416562 
L 72.78125 35.416562 
" style="fill: none; stroke: #1f77b4; stroke-width: 1.5; stroke-linecap: square"/>
    </g>
    <g id="text_16">
     <!-- Fold 1 -->
     <g transform="translate(80.78125 38.916562) scale(0.1 -0.1)">
      <defs>
       <path id="DejaVuSans-46" d="M 628 4666 
L 3309 4666 
L 3309 4134 
L 1259 4134 
L 1259 2759 
L 3109 2759 
L 3109 2228 
L 1259 2228 
L 1259 0 
L 628 0 
L 628 4666 
z
" transform="scale(0.015625)"/>
       <path id="DejaVuSans-6c" d="M 603 4863 
L 1178 4863 
L 1178 0 
L 603 0 
L 603 4863 
z
" transform="scale(0.015625)"/>
      </defs>
      <use xlink:href="#DejaVuSans-46"/>
      <use xlink:href="#DejaVuSans-6f" transform="translate(53.894531 0)"/>
      <use xlink:href="#DejaVuSans-6c" transform="translate(115.076172 0)"/>
      <use xlink:href="#DejaVuSans-64" transform="translate(142.859375 0)"/>
      <use xlink:href="#DejaVuSans-20" transform="translate(206.335938 0)"/>
      <use xlink:href="#DejaVuSans-31" transform="translate(238.123047 0)"/>
     </g>
    </g>
    <g id="line2d_19">
     <path d="M 52.78125 50.094688 
L 62.78125 50.094688 
L 72.78125 50.094688 
" style="fill: none; stroke: #ff7f0e; stroke-width: 1.5; stroke-linecap: square"/>
    </g>
    <g id="text_17">
     <!-- Fold 2 -->
     <g transform="translate(80.78125 53.594688) scale(0.1 -0.1)">
      <use xlink:href="#DejaVuSans-46"/>
      <use xlink:href="#DejaVuSans-6f" transform="translate(53.894531 0)"/>
      <use xlink:href="#DejaVuSans-6c" transform="translate(115.076172 0)"/>
      <use xlink:href="#DejaVuSans-64" transform="translate(142.859375 0)"/>
      <use xlink:href="#DejaVuSans-20" transform="translate(206.335938 0)"/>
      <use xlink:href="#DejaVuSans-32" transform="translate(238.123047 0)"/>
     </g>
    </g>
    <g id="line2d_20">
     <path d="M 52.78125 64.772812 
L 62.78125 64.772812 
L 72.78125 64.772812 
" style="fill: none; stroke: #2ca02c; stroke-width: 1.5; stroke-linecap: square"/>
    </g>
    <g id="text_18">
     <!-- Fold 3 -->
     <g transform="translate(80.78125 68.272812) scale(0.1 -0.1)">
      <defs>
       <path id="DejaVuSans-33" d="M 2597 2516 
Q 3050 2419 3304 2112 
Q 3559 1806 3559 1356 
Q 3559 666 3084 287 
Q 2609 -91 1734 -91 
Q 1441 -91 1130 -33 
Q 819 25 488 141 
L 488 750 
Q 750 597 1062 519 
Q 1375 441 1716 441 
Q 2309 441 2620 675 
Q 2931 909 2931 1356 
Q 2931 1769 2642 2001 
Q 2353 2234 1838 2234 
L 1294 2234 
L 1294 2753 
L 1863 2753 
Q 2328 2753 2575 2939 
Q 2822 3125 2822 3475 
Q 2822 3834 2567 4026 
Q 2313 4219 1838 4219 
Q 1578 4219 1281 4162 
Q 984 4106 628 3988 
L 628 4550 
Q 988 4650 1302 4700 
Q 1616 4750 1894 4750 
Q 2613 4750 3031 4423 
Q 3450 4097 3450 3541 
Q 3450 3153 3228 2886 
Q 3006 2619 2597 2516 
z
" transform="scale(0.015625)"/>
      </defs>
      <use xlink:href="#DejaVuSans-46"/>
      <use xlink:href="#DejaVuSans-6f" transform="translate(53.894531 0)"/>
      <use xlink:href="#DejaVuSans-6c" transform="translate(115.076172 0)"/>
      <use xlink:href="#DejaVuSans-64" transform="translate(142.859375 0)"/>
      <use xlink:href="#DejaVuSans-20" transform="translate(206.335938 0)"/>
      <use xlink:href="#DejaVuSans-33" transform="translate(238.123047 0)"/>
     </g>
    </g>
    <g id="line2d_21">
     <path d="M 52.78125 79.450938 
L 62.78125 79.450938 
L 72.78125 79.450938 
" style="fill: none; stroke: #d62728; stroke-width: 1.5; stroke-linecap: square"/>
    </g>
    <g id="text_19">
     <!-- Fold 4 -->
     <g transform="translate(80.78125 82.950938) scale(0.1 -0.1)">
      <use xlink:href="#DejaVuSans-46"/>
      <use xlink:href="#DejaVuSans-6f" transform="translate(53.894531 0)"/>
      <use xlink:href="#DejaVuSans-6c" transform="translate(115.076172 0)"/>
      <use xlink:href="#DejaVuSans-64" transform="translate(142.859375 0)"/>
      <use xlink:href="#DejaVuSans-20" transform="translate(206.335938 0)"/>
      <use xlink:href="#DejaVuSans-34" transform="translate(238.123047 0)"/>
     </g>
    </g>
    <g id="line2d_22">
     <path d="M 52.78125 94.129063 
L 62.78125 94.129063 
L 72.78125 94.129063 
" style="fill: none; stroke: #9467bd; stroke-width: 1.5; stroke-linecap: square"/>
    </g>
    <g id="text_20">
     <!-- Fold 5 -->
     <g transform="translate(80.78125 97.629063) scale(0.1 -0.1)">
      <use xlink:href="#DejaVuSans-46"/>
      <use xlink:href="#DejaVuSans-6f" transform="translate(53.894531 0)"/>
      <use xlink:href="#DejaVuSans-6c" transform="translate(115.076172 0)"/>
      <use xlink:href="#DejaVuSans-64" transform="translate(142.859375 0)"/>
      <use xlink:href="#DejaVuSans-20" transform="translate(206.335938 0)"/>
      <use xlink:href="#DejaVuSans-35" transform="translate(238.123047 0)"/>
     </g>
    </g>
   </g>
  </g>
 </g>
 <defs>
  <clipPath id="p6bea2a016d">
   <rect x="43.78125" y="22.318125" width="661.48" height="363.16"/>
  </clipPath>
 </defs>
</svg>
