<?xml version="1.0" encoding="utf-8" standalone="no"?>
<!DOCTYPE svg PUBLIC "-//W3C//DTD SVG 1.1//EN"
  "http://www.w3.org/Graphics/SVG/1.1/DTD/svg11.dtd">
<svg xmlns:xlink="http://www.w3.org/1999/xlink" width="712.52375pt" height="423.034375pt" viewBox="0 0 712.52375 423.034375" xmlns="http://www.w3.org/2000/svg" version="1.1">
 <metadata>
  <rdf:RDF xmlns:dc="http://purl.org/dc/elements/1.1/" xmlns:cc="http://creativecommons.org/ns#" xmlns:rdf="http://www.w3.org/1999/02/22-rdf-syntax-ns#">
   <cc:Work>
    <dc:type rdf:resource="http://purl.org/dc/dcmitype/StillImage"/>
    <dc:date>2025-06-26T18:31:03.410746</dc:date>
    <dc:format>image/svg+xml</dc:format>
    <dc:creator>
     <cc:Agent>
      <dc:title>Matplotlib v3.10.0, https://matplotlib.org/</dc:title>
     </cc:Agent>
    </dc:creator>
   </cc:Work>
  </rdf:RDF>
 </metadata>
 <defs>
  <style type="text/css">*{stroke-linejoin: round; stroke-linecap: butt}</style>
 </defs>
 <g id="figure_1">
  <g id="patch_1">
   <path d="M 0 423.034375 
L 712.52375 423.034375 
L 712.52375 0 
L 0 0 
z
" style="fill: #ffffff"/>
  </g>
  <g id="axes_1">
   <g id="patch_2">
    <path d="M 50.14375 385.478125 
L 705.32375 385.478125 
L 705.32375 22.318125 
L 50.14375 22.318125 
z
" style="fill: #ffffff"/>
   </g>
   <g id="matplotlib.axis_1">
    <g id="xtick_1">
     <g id="line2d_1">
      <defs>
       <path id="m4a7403d8ac" d="M 0 0 
L 0 3.5 
" style="stroke: #000000; stroke-width: 0.8"/>
      </defs>
      <g>
       <use xlink:href="#m4a7403d8ac" x="73.908314" y="385.478125" style="stroke: #000000; stroke-width: 0.8"/>
      </g>
     </g>
     <g id="text_1">
      <!-- 0 -->
      <g transform="translate(70.727064 400.076562) scale(0.1 -0.1)">
       <defs>
        <path id="DejaVuSans-30" d="M 2034 4250 
Q 1547 4250 1301 3770 
Q 1056 3291 1056 2328 
Q 1056 1369 1301 889 
Q 1547 409 2034 409 
Q 2525 409 2770 889 
Q 3016 1369 3016 2328 
Q 3016 3291 2770 3770 
Q 2525 4250 2034 4250 
z
M 2034 4750 
Q 2819 4750 3233 4129 
Q 3647 3509 3647 2328 
Q 3647 1150 3233 529 
Q 2819 -91 2034 -91 
Q 1250 -91 836 529 
Q 422 1150 422 2328 
Q 422 3509 836 4129 
Q 1250 4750 2034 4750 
z
" transform="scale(0.015625)"/>
       </defs>
       <use xlink:href="#DejaVuSans-30"/>
      </g>
     </g>
    </g>
    <g id="xtick_2">
     <g id="line2d_2">
      <g>
       <use xlink:href="#m4a7403d8ac" x="194.235219" y="385.478125" style="stroke: #000000; stroke-width: 0.8"/>
      </g>
     </g>
     <g id="text_2">
      <!-- 20 -->
      <g transform="translate(187.872719 400.076562) scale(0.1 -0.1)">
       <defs>
        <path id="DejaVuSans-32" d="M 1228 531 
L 3431 531 
L 3431 0 
L 469 0 
L 469 531 
Q 828 903 1448 1529 
Q 2069 2156 2228 2338 
Q 2531 2678 2651 2914 
Q 2772 3150 2772 3378 
Q 2772 3750 2511 3984 
Q 2250 4219 1831 4219 
Q 1534 4219 1204 4116 
Q 875 4013 500 3803 
L 500 4441 
Q 881 4594 1212 4672 
Q 1544 4750 1819 4750 
Q 2544 4750 2975 4387 
Q 3406 4025 3406 3419 
Q 3406 3131 3298 2873 
Q 3191 2616 2906 2266 
Q 2828 2175 2409 1742 
Q 1991 1309 1228 531 
z
" transform="scale(0.015625)"/>
       </defs>
       <use xlink:href="#DejaVuSans-32"/>
       <use xlink:href="#DejaVuSans-30" transform="translate(63.623047 0)"/>
      </g>
     </g>
    </g>
    <g id="xtick_3">
     <g id="line2d_3">
      <g>
       <use xlink:href="#m4a7403d8ac" x="314.562125" y="385.478125" style="stroke: #000000; stroke-width: 0.8"/>
      </g>
     </g>
     <g id="text_3">
      <!-- 40 -->
      <g transform="translate(308.199625 400.076562) scale(0.1 -0.1)">
       <defs>
        <path id="DejaVuSans-34" d="M 2419 4116 
L 825 1625 
L 2419 1625 
L 2419 4116 
z
M 2253 4666 
L 3047 4666 
L 3047 1625 
L 3713 1625 
L 3713 1100 
L 3047 1100 
L 3047 0 
L 2419 0 
L 2419 1100 
L 313 1100 
L 313 1709 
L 2253 4666 
z
" transform="scale(0.015625)"/>
       </defs>
       <use xlink:href="#DejaVuSans-34"/>
       <use xlink:href="#DejaVuSans-30" transform="translate(63.623047 0)"/>
      </g>
     </g>
    </g>
    <g id="xtick_4">
     <g id="line2d_4">
      <g>
       <use xlink:href="#m4a7403d8ac" x="434.88903" y="385.478125" style="stroke: #000000; stroke-width: 0.8"/>
      </g>
     </g>
     <g id="text_4">
      <!-- 60 -->
      <g transform="translate(428.52653 400.076562) scale(0.1 -0.1)">
       <defs>
        <path id="DejaVuSans-36" d="M 2113 2584 
Q 1688 2584 1439 2293 
Q 1191 2003 1191 1497 
Q 1191 994 1439 701 
Q 1688 409 2113 409 
Q 2538 409 2786 701 
Q 3034 994 3034 1497 
Q 3034 2003 2786 2293 
Q 2538 2584 2113 2584 
z
M 3366 4563 
L 3366 3988 
Q 3128 4100 2886 4159 
Q 2644 4219 2406 4219 
Q 1781 4219 1451 3797 
Q 1122 3375 1075 2522 
Q 1259 2794 1537 2939 
Q 1816 3084 2150 3084 
Q 2853 3084 3261 2657 
Q 3669 2231 3669 1497 
Q 3669 778 3244 343 
Q 2819 -91 2113 -91 
Q 1303 -91 875 529 
Q 447 1150 447 2328 
Q 447 3434 972 4092 
Q 1497 4750 2381 4750 
Q 2619 4750 2861 4703 
Q 3103 4656 3366 4563 
z
" transform="scale(0.015625)"/>
       </defs>
       <use xlink:href="#DejaVuSans-36"/>
       <use xlink:href="#DejaVuSans-30" transform="translate(63.623047 0)"/>
      </g>
     </g>
    </g>
    <g id="xtick_5">
     <g id="line2d_5">
      <g>
       <use xlink:href="#m4a7403d8ac" x="555.215935" y="385.478125" style="stroke: #000000; stroke-width: 0.8"/>
      </g>
     </g>
     <g id="text_5">
      <!-- 80 -->
      <g transform="translate(548.853435 400.076562) scale(0.1 -0.1)">
       <defs>
        <path id="DejaVuSans-38" d="M 2034 2216 
Q 1584 2216 1326 1975 
Q 1069 1734 1069 1313 
Q 1069 891 1326 650 
Q 1584 409 2034 409 
Q 2484 409 2743 651 
Q 3003 894 3003 1313 
Q 3003 1734 2745 1975 
Q 2488 2216 2034 2216 
z
M 1403 2484 
Q 997 2584 770 2862 
Q 544 3141 544 3541 
Q 544 4100 942 4425 
Q 1341 4750 2034 4750 
Q 2731 4750 3128 4425 
Q 3525 4100 3525 3541 
Q 3525 3141 3298 2862 
Q 3072 2584 2669 2484 
Q 3125 2378 3379 2068 
Q 3634 1759 3634 1313 
Q 3634 634 3220 271 
Q 2806 -91 2034 -91 
Q 1263 -91 848 271 
Q 434 634 434 1313 
Q 434 1759 690 2068 
Q 947 2378 1403 2484 
z
M 1172 3481 
Q 1172 3119 1398 2916 
Q 1625 2713 2034 2713 
Q 2441 2713 2670 2916 
Q 2900 3119 2900 3481 
Q 2900 3844 2670 4047 
Q 2441 4250 2034 4250 
Q 1625 4250 1398 4047 
Q 1172 3844 1172 3481 
z
" transform="scale(0.015625)"/>
       </defs>
       <use xlink:href="#DejaVuSans-38"/>
       <use xlink:href="#DejaVuSans-30" transform="translate(63.623047 0)"/>
      </g>
     </g>
    </g>
    <g id="xtick_6">
     <g id="line2d_6">
      <g>
       <use xlink:href="#m4a7403d8ac" x="675.542841" y="385.478125" style="stroke: #000000; stroke-width: 0.8"/>
      </g>
     </g>
     <g id="text_6">
      <!-- 100 -->
      <g transform="translate(665.999091 400.076562) scale(0.1 -0.1)">
       <defs>
        <path id="DejaVuSans-31" d="M 794 531 
L 1825 531 
L 1825 4091 
L 703 3866 
L 703 4441 
L 1819 4666 
L 2450 4666 
L 2450 531 
L 3481 531 
L 3481 0 
L 794 0 
L 794 531 
z
" transform="scale(0.015625)"/>
       </defs>
       <use xlink:href="#DejaVuSans-31"/>
       <use xlink:href="#DejaVuSans-30" transform="translate(63.623047 0)"/>
       <use xlink:href="#DejaVuSans-30" transform="translate(127.246094 0)"/>
      </g>
     </g>
    </g>
    <g id="text_7">
     <!-- Epoch -->
     <g transform="translate(362.422813 413.754687) scale(0.1 -0.1)">
      <defs>
       <path id="DejaVuSans-45" d="M 628 4666 
L 3578 4666 
L 3578 4134 
L 1259 4134 
L 1259 2753 
L 3481 2753 
L 3481 2222 
L 1259 2222 
L 1259 531 
L 3634 531 
L 3634 0 
L 628 0 
L 628 4666 
z
" transform="scale(0.015625)"/>
       <path id="DejaVuSans-70" d="M 1159 525 
L 1159 -1331 
L 581 -1331 
L 581 3500 
L 1159 3500 
L 1159 2969 
Q 1341 3281 1617 3432 
Q 1894 3584 2278 3584 
Q 2916 3584 3314 3078 
Q 3713 2572 3713 1747 
Q 3713 922 3314 415 
Q 2916 -91 2278 -91 
Q 1894 -91 1617 61 
Q 1341 213 1159 525 
z
M 3116 1747 
Q 3116 2381 2855 2742 
Q 2594 3103 2138 3103 
Q 1681 3103 1420 2742 
Q 1159 2381 1159 1747 
Q 1159 1113 1420 752 
Q 1681 391 2138 391 
Q 2594 391 2855 752 
Q 3116 1113 3116 1747 
z
" transform="scale(0.015625)"/>
       <path id="DejaVuSans-6f" d="M 1959 3097 
Q 1497 3097 1228 2736 
Q 959 2375 959 1747 
Q 959 1119 1226 758 
Q 1494 397 1959 397 
Q 2419 397 2687 759 
Q 2956 1122 2956 1747 
Q 2956 2369 2687 2733 
Q 2419 3097 1959 3097 
z
M 1959 3584 
Q 2709 3584 3137 3096 
Q 3566 2609 3566 1747 
Q 3566 888 3137 398 
Q 2709 -91 1959 -91 
Q 1206 -91 779 398 
Q 353 888 353 1747 
Q 353 2609 779 3096 
Q 1206 3584 1959 3584 
z
" transform="scale(0.015625)"/>
       <path id="DejaVuSans-63" d="M 3122 3366 
L 3122 2828 
Q 2878 2963 2633 3030 
Q 2388 3097 2138 3097 
Q 1578 3097 1268 2742 
Q 959 2388 959 1747 
Q 959 1106 1268 751 
Q 1578 397 2138 397 
Q 2388 397 2633 464 
Q 2878 531 3122 666 
L 3122 134 
Q 2881 22 2623 -34 
Q 2366 -91 2075 -91 
Q 1284 -91 818 406 
Q 353 903 353 1747 
Q 353 2603 823 3093 
Q 1294 3584 2113 3584 
Q 2378 3584 2631 3529 
Q 2884 3475 3122 3366 
z
" transform="scale(0.015625)"/>
       <path id="DejaVuSans-68" d="M 3513 2113 
L 3513 0 
L 2938 0 
L 2938 2094 
Q 2938 2591 2744 2837 
Q 2550 3084 2163 3084 
Q 1697 3084 1428 2787 
Q 1159 2491 1159 1978 
L 1159 0 
L 581 0 
L 581 4863 
L 1159 4863 
L 1159 2956 
Q 1366 3272 1645 3428 
Q 1925 3584 2291 3584 
Q 2894 3584 3203 3211 
Q 3513 2838 3513 2113 
z
" transform="scale(0.015625)"/>
      </defs>
      <use xlink:href="#DejaVuSans-45"/>
      <use xlink:href="#DejaVuSans-70" transform="translate(63.183594 0)"/>
      <use xlink:href="#DejaVuSans-6f" transform="translate(126.660156 0)"/>
      <use xlink:href="#DejaVuSans-63" transform="translate(187.841797 0)"/>
      <use xlink:href="#DejaVuSans-68" transform="translate(242.822266 0)"/>
     </g>
    </g>
   </g>
   <g id="matplotlib.axis_2">
    <g id="ytick_1">
     <g id="line2d_7">
      <defs>
       <path id="m252af15a25" d="M 0 0 
L -3.5 0 
" style="stroke: #000000; stroke-width: 0.8"/>
      </defs>
      <g>
       <use xlink:href="#m252af15a25" x="50.14375" y="351.814765" style="stroke: #000000; stroke-width: 0.8"/>
      </g>
     </g>
     <g id="text_8">
      <!-- 0.50 -->
      <g transform="translate(20.878125 355.613984) scale(0.1 -0.1)">
       <defs>
        <path id="DejaVuSans-2e" d="M 684 794 
L 1344 794 
L 1344 0 
L 684 0 
L 684 794 
z
" transform="scale(0.015625)"/>
        <path id="DejaVuSans-35" d="M 691 4666 
L 3169 4666 
L 3169 4134 
L 1269 4134 
L 1269 2991 
Q 1406 3038 1543 3061 
Q 1681 3084 1819 3084 
Q 2600 3084 3056 2656 
Q 3513 2228 3513 1497 
Q 3513 744 3044 326 
Q 2575 -91 1722 -91 
Q 1428 -91 1123 -41 
Q 819 9 494 109 
L 494 744 
Q 775 591 1075 516 
Q 1375 441 1709 441 
Q 2250 441 2565 725 
Q 2881 1009 2881 1497 
Q 2881 1984 2565 2268 
Q 2250 2553 1709 2553 
Q 1456 2553 1204 2497 
Q 953 2441 691 2322 
L 691 4666 
z
" transform="scale(0.015625)"/>
       </defs>
       <use xlink:href="#DejaVuSans-30"/>
       <use xlink:href="#DejaVuSans-2e" transform="translate(63.623047 0)"/>
       <use xlink:href="#DejaVuSans-35" transform="translate(95.410156 0)"/>
       <use xlink:href="#DejaVuSans-30" transform="translate(159.033203 0)"/>
      </g>
     </g>
    </g>
    <g id="ytick_2">
     <g id="line2d_8">
      <g>
       <use xlink:href="#m252af15a25" x="50.14375" y="308.006864" style="stroke: #000000; stroke-width: 0.8"/>
      </g>
     </g>
     <g id="text_9">
      <!-- 0.75 -->
      <g transform="translate(20.878125 311.806083) scale(0.1 -0.1)">
       <defs>
        <path id="DejaVuSans-37" d="M 525 4666 
L 3525 4666 
L 3525 4397 
L 1831 0 
L 1172 0 
L 2766 4134 
L 525 4134 
L 525 4666 
z
" transform="scale(0.015625)"/>
       </defs>
       <use xlink:href="#DejaVuSans-30"/>
       <use xlink:href="#DejaVuSans-2e" transform="translate(63.623047 0)"/>
       <use xlink:href="#DejaVuSans-37" transform="translate(95.410156 0)"/>
       <use xlink:href="#DejaVuSans-35" transform="translate(159.033203 0)"/>
      </g>
     </g>
    </g>
    <g id="ytick_3">
     <g id="line2d_9">
      <g>
       <use xlink:href="#m252af15a25" x="50.14375" y="264.198962" style="stroke: #000000; stroke-width: 0.8"/>
      </g>
     </g>
     <g id="text_10">
      <!-- 1.00 -->
      <g transform="translate(20.878125 267.998181) scale(0.1 -0.1)">
       <use xlink:href="#DejaVuSans-31"/>
       <use xlink:href="#DejaVuSans-2e" transform="translate(63.623047 0)"/>
       <use xlink:href="#DejaVuSans-30" transform="translate(95.410156 0)"/>
       <use xlink:href="#DejaVuSans-30" transform="translate(159.033203 0)"/>
      </g>
     </g>
    </g>
    <g id="ytick_4">
     <g id="line2d_10">
      <g>
       <use xlink:href="#m252af15a25" x="50.14375" y="220.391061" style="stroke: #000000; stroke-width: 0.8"/>
      </g>
     </g>
     <g id="text_11">
      <!-- 1.25 -->
      <g transform="translate(20.878125 224.19028) scale(0.1 -0.1)">
       <use xlink:href="#DejaVuSans-31"/>
       <use xlink:href="#DejaVuSans-2e" transform="translate(63.623047 0)"/>
       <use xlink:href="#DejaVuSans-32" transform="translate(95.410156 0)"/>
       <use xlink:href="#DejaVuSans-35" transform="translate(159.033203 0)"/>
      </g>
     </g>
    </g>
    <g id="ytick_5">
     <g id="line2d_11">
      <g>
       <use xlink:href="#m252af15a25" x="50.14375" y="176.583159" style="stroke: #000000; stroke-width: 0.8"/>
      </g>
     </g>
     <g id="text_12">
      <!-- 1.50 -->
      <g transform="translate(20.878125 180.382378) scale(0.1 -0.1)">
       <use xlink:href="#DejaVuSans-31"/>
       <use xlink:href="#DejaVuSans-2e" transform="translate(63.623047 0)"/>
       <use xlink:href="#DejaVuSans-35" transform="translate(95.410156 0)"/>
       <use xlink:href="#DejaVuSans-30" transform="translate(159.033203 0)"/>
      </g>
     </g>
    </g>
    <g id="ytick_6">
     <g id="line2d_12">
      <g>
       <use xlink:href="#m252af15a25" x="50.14375" y="132.775258" style="stroke: #000000; stroke-width: 0.8"/>
      </g>
     </g>
     <g id="text_13">
      <!-- 1.75 -->
      <g transform="translate(20.878125 136.574477) scale(0.1 -0.1)">
       <use xlink:href="#DejaVuSans-31"/>
       <use xlink:href="#DejaVuSans-2e" transform="translate(63.623047 0)"/>
       <use xlink:href="#DejaVuSans-37" transform="translate(95.410156 0)"/>
       <use xlink:href="#DejaVuSans-35" transform="translate(159.033203 0)"/>
      </g>
     </g>
    </g>
    <g id="ytick_7">
     <g id="line2d_13">
      <g>
       <use xlink:href="#m252af15a25" x="50.14375" y="88.967356" style="stroke: #000000; stroke-width: 0.8"/>
      </g>
     </g>
     <g id="text_14">
      <!-- 2.00 -->
      <g transform="translate(20.878125 92.766575) scale(0.1 -0.1)">
       <use xlink:href="#DejaVuSans-32"/>
       <use xlink:href="#DejaVuSans-2e" transform="translate(63.623047 0)"/>
       <use xlink:href="#DejaVuSans-30" transform="translate(95.410156 0)"/>
       <use xlink:href="#DejaVuSans-30" transform="translate(159.033203 0)"/>
      </g>
     </g>
    </g>
    <g id="ytick_8">
     <g id="line2d_14">
      <g>
       <use xlink:href="#m252af15a25" x="50.14375" y="45.159455" style="stroke: #000000; stroke-width: 0.8"/>
      </g>
     </g>
     <g id="text_15">
      <!-- 2.25 -->
      <g transform="translate(20.878125 48.958674) scale(0.1 -0.1)">
       <use xlink:href="#DejaVuSans-32"/>
       <use xlink:href="#DejaVuSans-2e" transform="translate(63.623047 0)"/>
       <use xlink:href="#DejaVuSans-32" transform="translate(95.410156 0)"/>
       <use xlink:href="#DejaVuSans-35" transform="translate(159.033203 0)"/>
      </g>
     </g>
    </g>
    <g id="text_16">
     <!-- Train Loss -->
     <g transform="translate(14.798438 228.448125) rotate(-90) scale(0.1 -0.1)">
      <defs>
       <path id="DejaVuSans-54" d="M -19 4666 
L 3928 4666 
L 3928 4134 
L 2272 4134 
L 2272 0 
L 1638 0 
L 1638 4134 
L -19 4134 
L -19 4666 
z
" transform="scale(0.015625)"/>
       <path id="DejaVuSans-72" d="M 2631 2963 
Q 2534 3019 2420 3045 
Q 2306 3072 2169 3072 
Q 1681 3072 1420 2755 
Q 1159 2438 1159 1844 
L 1159 0 
L 581 0 
L 581 3500 
L 1159 3500 
L 1159 2956 
Q 1341 3275 1631 3429 
Q 1922 3584 2338 3584 
Q 2397 3584 2469 3576 
Q 2541 3569 2628 3553 
L 2631 2963 
z
" transform="scale(0.015625)"/>
       <path id="DejaVuSans-61" d="M 2194 1759 
Q 1497 1759 1228 1600 
Q 959 1441 959 1056 
Q 959 750 1161 570 
Q 1363 391 1709 391 
Q 2188 391 2477 730 
Q 2766 1069 2766 1631 
L 2766 1759 
L 2194 1759 
z
M 3341 1997 
L 3341 0 
L 2766 0 
L 2766 531 
Q 2569 213 2275 61 
Q 1981 -91 1556 -91 
Q 1019 -91 701 211 
Q 384 513 384 1019 
Q 384 1609 779 1909 
Q 1175 2209 1959 2209 
L 2766 2209 
L 2766 2266 
Q 2766 2663 2505 2880 
Q 2244 3097 1772 3097 
Q 1472 3097 1187 3025 
Q 903 2953 641 2809 
L 641 3341 
Q 956 3463 1253 3523 
Q 1550 3584 1831 3584 
Q 2591 3584 2966 3190 
Q 3341 2797 3341 1997 
z
" transform="scale(0.015625)"/>
       <path id="DejaVuSans-69" d="M 603 3500 
L 1178 3500 
L 1178 0 
L 603 0 
L 603 3500 
z
M 603 4863 
L 1178 4863 
L 1178 4134 
L 603 4134 
L 603 4863 
z
" transform="scale(0.015625)"/>
       <path id="DejaVuSans-6e" d="M 3513 2113 
L 3513 0 
L 2938 0 
L 2938 2094 
Q 2938 2591 2744 2837 
Q 2550 3084 2163 3084 
Q 1697 3084 1428 2787 
Q 1159 2491 1159 1978 
L 1159 0 
L 581 0 
L 581 3500 
L 1159 3500 
L 1159 2956 
Q 1366 3272 1645 3428 
Q 1925 3584 2291 3584 
Q 2894 3584 3203 3211 
Q 3513 2838 3513 2113 
z
" transform="scale(0.015625)"/>
       <path id="DejaVuSans-20" transform="scale(0.015625)"/>
       <path id="DejaVuSans-4c" d="M 628 4666 
L 1259 4666 
L 1259 531 
L 3531 531 
L 3531 0 
L 628 0 
L 628 4666 
z
" transform="scale(0.015625)"/>
       <path id="DejaVuSans-73" d="M 2834 3397 
L 2834 2853 
Q 2591 2978 2328 3040 
Q 2066 3103 1784 3103 
Q 1356 3103 1142 2972 
Q 928 2841 928 2578 
Q 928 2378 1081 2264 
Q 1234 2150 1697 2047 
L 1894 2003 
Q 2506 1872 2764 1633 
Q 3022 1394 3022 966 
Q 3022 478 2636 193 
Q 2250 -91 1575 -91 
Q 1294 -91 989 -36 
Q 684 19 347 128 
L 347 722 
Q 666 556 975 473 
Q 1284 391 1588 391 
Q 1994 391 2212 530 
Q 2431 669 2431 922 
Q 2431 1156 2273 1281 
Q 2116 1406 1581 1522 
L 1381 1569 
Q 847 1681 609 1914 
Q 372 2147 372 2553 
Q 372 3047 722 3315 
Q 1072 3584 1716 3584 
Q 2034 3584 2315 3537 
Q 2597 3491 2834 3397 
z
" transform="scale(0.015625)"/>
      </defs>
      <use xlink:href="#DejaVuSans-54"/>
      <use xlink:href="#DejaVuSans-72" transform="translate(46.333984 0)"/>
      <use xlink:href="#DejaVuSans-61" transform="translate(87.447266 0)"/>
      <use xlink:href="#DejaVuSans-69" transform="translate(148.726562 0)"/>
      <use xlink:href="#DejaVuSans-6e" transform="translate(176.509766 0)"/>
      <use xlink:href="#DejaVuSans-20" transform="translate(239.888672 0)"/>
      <use xlink:href="#DejaVuSans-4c" transform="translate(271.675781 0)"/>
      <use xlink:href="#DejaVuSans-6f" transform="translate(325.638672 0)"/>
      <use xlink:href="#DejaVuSans-73" transform="translate(386.820312 0)"/>
      <use xlink:href="#DejaVuSans-73" transform="translate(438.919922 0)"/>
     </g>
    </g>
   </g>
   <g id="line2d_15">
    <path d="M 79.924659 256.235126 
L 85.941004 271.68385 
L 91.95735 290.158404 
L 97.973695 274.49462 
L 103.99004 291.244514 
L 110.006385 224.526923 
L 116.022731 257.969677 
L 122.039076 274.67048 
L 128.055421 128.902652 
L 134.071767 189.77222 
L 140.088112 191.2722 
L 146.104457 194.524349 
L 152.120802 194.330543 
L 158.137148 195.825623 
L 164.153493 193.97985 
L 170.169838 194.606645 
L 176.186183 194.025456 
L 182.202529 192.715564 
L 188.218874 192.939655 
L 194.235219 193.906315 
L 200.251565 194.3383 
L 206.26791 195.271796 
L 212.284255 195.198955 
L 218.3006 195.647135 
L 224.316946 194.87317 
L 230.333291 195.359908 
L 236.349636 194.075209 
L 242.365981 210.108435 
L 248.382327 232.569371 
L 254.398672 247.853991 
L 260.415017 253.367745 
L 266.431362 249.882471 
L 272.447708 210.681506 
L 278.464053 150.205641 
L 284.480398 223.253518 
L 290.496744 215.542139 
L 296.513089 174.004929 
L 302.529434 218.029743 
L 308.545779 244.786735 
L 314.562125 248.962174 
L 320.57847 243.581968 
L 326.594815 259.494567 
L 332.61116 257.600323 
L 338.627506 261.782672 
L 344.643851 255.236305 
L 350.660196 263.212157 
L 356.676542 276.329662 
L 362.692887 281.938303 
L 368.709232 280.507827 
L 374.725577 275.302283 
L 380.741923 281.147338 
L 386.758268 277.765819 
L 392.774613 259.136103 
L 398.790958 224.952059 
L 404.807304 246.459132 
L 410.823649 58.152418 
L 416.839994 83.471112 
L 422.85634 146.427347 
L 428.872685 144.749334 
L 434.88903 164.483623 
L 440.905375 188.087728 
L 446.921721 256.863784 
L 452.938066 264.503748 
L 458.954411 266.749192 
L 464.970756 268.113777 
L 470.987102 283.587719 
L 477.003447 282.702317 
L 483.019792 284.104958 
L 489.036138 278.772049 
L 495.052483 284.538686 
L 501.068828 287.50427 
L 507.085173 293.268581 
L 513.101519 293.230464 
L 519.117864 302.972782 
L 525.134209 285.727845 
L 531.150554 285.874135 
L 537.1669 286.115501 
L 543.183245 286.307498 
L 549.19959 298.646346 
L 555.215935 286.871458 
L 561.232281 293.76101 
L 567.248626 296.961288 
L 573.264971 280.935472 
L 579.281317 292.360137 
L 585.297662 284.649791 
L 591.314007 286.050376 
L 597.330352 233.951465 
L 603.346698 249.455296 
L 609.363043 258.117191 
L 615.379388 264.372247 
L 621.395733 252.107958 
L 627.412079 245.645415 
L 633.428424 252.791161 
L 639.444769 252.672664 
L 645.461115 250.596744 
L 651.47746 255.759917 
L 657.493805 244.54712 
L 663.51015 258.289555 
L 669.526496 262.17341 
L 675.542841 261.688261 
" clip-path="url(#p8cc1c7ff00)" style="fill: none; stroke: #1f77b4; stroke-width: 1.5; stroke-linecap: square"/>
   </g>
   <g id="line2d_16">
    <path d="M 79.924659 181.584803 
L 85.941004 243.448699 
L 91.95735 236.74816 
L 97.973695 255.682472 
L 103.99004 255.682066 
L 110.006385 253.640259 
L 116.022731 261.28021 
L 122.039076 266.213375 
L 128.055421 244.246093 
L 134.071767 262.97041 
L 140.088112 195.932333 
L 146.104457 298.900051 
L 152.120802 320.554144 
L 158.137148 265.179543 
L 164.153493 291.657785 
L 170.169838 292.068567 
L 176.186183 266.863396 
L 182.202529 287.170999 
L 188.218874 288.222846 
L 194.235219 296.808097 
L 200.251565 296.076976 
L 206.26791 299.578442 
L 212.284255 301.591027 
L 218.3006 304.54784 
L 224.316946 302.677074 
L 230.333291 294.512086 
L 236.349636 304.437799 
L 242.365981 302.606966 
L 248.382327 305.13469 
L 254.398672 297.938448 
L 260.415017 304.981743 
L 266.431362 304.532683 
L 272.447708 303.983973 
L 278.464053 303.122489 
L 284.480398 304.075309 
L 290.496744 301.39281 
L 296.513089 292.18408 
L 302.529434 304.869368 
L 308.545779 306.69381 
L 314.562125 303.442286 
L 320.57847 305.181862 
L 326.594815 306.069166 
L 332.61116 301.686737 
L 338.627506 302.918983 
L 344.643851 307.458828 
L 350.660196 307.683443 
L 356.676542 302.557861 
L 362.692887 282.742157 
L 368.709232 294.327815 
L 374.725577 298.316564 
L 380.741923 293.048182 
L 386.758268 297.120856 
L 392.774613 290.729418 
L 398.790958 296.192759 
L 404.807304 299.956469 
L 410.823649 294.654311 
L 416.839994 294.723103 
L 422.85634 294.829882 
L 428.872685 297.335581 
L 434.88903 294.622831 
L 440.905375 294.035262 
L 446.921721 299.216282 
L 452.938066 301.875146 
L 458.954411 299.011055 
L 464.970756 291.820683 
L 470.987102 297.906322 
L 477.003447 301.134735 
L 483.019792 281.343647 
L 489.036138 302.346642 
L 495.052483 306.720901 
L 501.068828 301.021925 
L 507.085173 306.736505 
L 513.101519 308.324304 
L 519.117864 296.582939 
L 525.134209 302.099825 
L 531.150554 305.110266 
L 537.1669 303.299697 
L 543.183245 303.233213 
L 549.19959 303.909664 
L 555.215935 301.239778 
L 561.232281 303.239621 
L 567.248626 304.614757 
L 573.264971 305.009531 
L 579.281317 309.482867 
L 585.297662 299.767522 
L 591.314007 301.296936 
L 597.330352 307.05657 
L 603.346698 307.335458 
L 609.363043 306.826602 
L 615.379388 302.768774 
L 621.395733 306.850873 
L 627.412079 307.768252 
L 633.428424 309.748287 
L 639.444769 299.464536 
L 645.461115 299.504903 
L 651.47746 306.707415 
L 657.493805 302.714377 
L 663.51015 306.995437 
L 669.526496 307.715076 
L 675.542841 310.007482 
" clip-path="url(#p8cc1c7ff00)" style="fill: none; stroke: #ff7f0e; stroke-width: 1.5; stroke-linecap: square"/>
   </g>
   <g id="line2d_17">
    <path d="M 79.924659 276.75301 
L 85.941004 302.15718 
L 91.95735 308.068522 
L 97.973695 304.331034 
L 103.99004 307.008532 
L 110.006385 307.952359 
L 116.022731 304.711285 
L 122.039076 305.635293 
L 128.055421 309.309719 
L 134.071767 307.832452 
L 140.088112 301.641846 
L 146.104457 308.138272 
L 152.120802 312.469353 
L 158.137148 309.684941 
L 164.153493 312.171772 
L 170.169838 311.910735 
L 176.186183 311.579519 
L 182.202529 289.321726 
L 188.218874 308.837226 
L 194.235219 305.511734 
L 200.251565 305.563882 
L 206.26791 304.883337 
L 212.284255 308.895065 
L 218.3006 308.023587 
L 224.316946 299.010386 
L 230.333291 300.612666 
L 236.349636 310.471884 
L 242.365981 306.741526 
L 248.382327 308.462191 
L 254.398672 303.165606 
L 260.415017 307.252965 
L 266.431362 304.185836 
L 272.447708 302.206997 
L 278.464053 295.656247 
L 284.480398 305.791909 
L 290.496744 297.584083 
L 296.513089 298.431808 
L 302.529434 301.532057 
L 308.545779 307.590723 
L 314.562125 310.932834 
L 320.57847 294.368923 
L 326.594815 303.917367 
L 332.61116 305.167787 
L 338.627506 305.910886 
L 344.643851 301.578144 
L 350.660196 308.74921 
L 356.676542 308.657398 
L 362.692887 306.095895 
L 368.709232 306.550923 
L 374.725577 303.97909 
L 380.741923 301.298139 
L 386.758268 310.741417 
L 392.774613 310.252329 
L 398.790958 302.852025 
L 404.807304 287.833522 
L 410.823649 298.211195 
L 416.839994 298.123319 
L 422.85634 312.960581 
L 428.872685 311.758571 
L 434.88903 312.306294 
L 440.905375 308.913716 
L 446.921721 293.747672 
L 452.938066 306.88479 
L 458.954411 304.800661 
L 464.970756 306.805287 
L 470.987102 226.434186 
L 477.003447 263.412255 
L 483.019792 276.793538 
L 489.036138 266.609876 
L 495.052483 271.02271 
L 501.068828 269.016015 
L 507.085173 273.822472 
L 513.101519 272.984732 
L 519.117864 276.171506 
L 525.134209 274.434485 
L 531.150554 275.212106 
L 537.1669 271.538534 
L 543.183245 272.34423 
L 549.19959 271.925568 
L 555.215935 271.342549 
L 561.232281 272.523547 
L 567.248626 270.515519 
L 573.264971 280.230946 
L 579.281317 270.824263 
L 585.297662 272.742238 
L 591.314007 272.680847 
L 597.330352 275.411238 
L 603.346698 273.240384 
L 609.363043 272.446336 
L 615.379388 267.155508 
L 621.395733 275.178907 
L 627.412079 267.82862 
L 633.428424 279.168305 
L 639.444769 284.828871 
L 645.461115 287.855395 
L 651.47746 288.296099 
L 657.493805 280.873 
L 663.51015 281.8479 
L 669.526496 289.620738 
L 675.542841 293.177915 
" clip-path="url(#p8cc1c7ff00)" style="fill: none; stroke: #2ca02c; stroke-width: 1.5; stroke-linecap: square"/>
   </g>
   <g id="line2d_18">
    <path d="M 79.924659 274.099013 
L 85.941004 303.378177 
L 91.95735 276.105109 
L 97.973695 279.180461 
L 103.99004 288.373303 
L 110.006385 279.158817 
L 116.022731 288.840964 
L 122.039076 292.107278 
L 128.055421 292.382403 
L 134.071767 293.393909 
L 140.088112 294.024425 
L 146.104457 293.432296 
L 152.120802 294.490355 
L 158.137148 293.724559 
L 164.153493 294.40834 
L 170.169838 294.207411 
L 176.186183 295.22757 
L 182.202529 293.047222 
L 188.218874 295.291274 
L 194.235219 295.187173 
L 200.251565 294.896099 
L 206.26791 294.696645 
L 212.284255 296.378959 
L 218.3006 295.776285 
L 224.316946 293.915815 
L 230.333291 295.544275 
L 236.349636 293.306715 
L 242.365981 295.64204 
L 248.382327 294.764884 
L 254.398672 296.870793 
L 260.415017 295.954061 
L 266.431362 295.124295 
L 272.447708 294.877635 
L 278.464053 293.405041 
L 284.480398 295.926194 
L 290.496744 294.734007 
L 296.513089 295.641379 
L 302.529434 296.118792 
L 308.545779 294.942119 
L 314.562125 295.037276 
L 320.57847 295.937431 
L 326.594815 295.97282 
L 332.61116 295.974808 
L 338.627506 296.313396 
L 344.643851 295.089142 
L 350.660196 295.276765 
L 356.676542 295.858208 
L 362.692887 296.264814 
L 368.709232 297.015655 
L 374.725577 295.659461 
L 380.741923 296.919535 
L 386.758268 296.460984 
L 392.774613 293.98196 
L 398.790958 294.807225 
L 404.807304 296.172161 
L 410.823649 295.582295 
L 416.839994 295.599808 
L 422.85634 296.074586 
L 428.872685 295.635042 
L 434.88903 295.596013 
L 440.905375 296.394979 
L 446.921721 296.074329 
L 452.938066 296.294547 
L 458.954411 296.542792 
L 464.970756 295.325449 
L 470.987102 296.084329 
L 477.003447 295.874926 
L 483.019792 295.541907 
L 489.036138 295.76244 
L 495.052483 295.565263 
L 501.068828 295.445853 
L 507.085173 294.954203 
L 513.101519 295.802937 
L 519.117864 296.207879 
L 525.134209 295.949943 
L 531.150554 296.050804 
L 537.1669 296.694653 
L 543.183245 295.768755 
L 549.19959 295.766626 
L 555.215935 295.986137 
L 561.232281 296.518678 
L 567.248626 295.830261 
L 573.264971 296.404914 
L 579.281317 297.29181 
L 585.297662 293.031902 
L 591.314007 296.409305 
L 597.330352 296.161446 
L 603.346698 296.423731 
L 609.363043 295.920614 
L 615.379388 296.689561 
L 621.395733 293.246604 
L 627.412079 296.365741 
L 633.428424 296.408217 
L 639.444769 296.401596 
L 645.461115 295.894067 
L 651.47746 295.650949 
L 657.493805 295.977657 
L 663.51015 293.549151 
L 669.526496 295.88377 
L 675.542841 292.667057 
" clip-path="url(#p8cc1c7ff00)" style="fill: none; stroke: #d62728; stroke-width: 1.5; stroke-linecap: square"/>
   </g>
   <g id="line2d_19">
    <path d="M 79.924659 210.700786 
L 85.941004 205.704732 
L 91.95735 247.248978 
L 97.973695 280.387999 
L 103.99004 276.038314 
L 110.006385 265.575758 
L 116.022731 302.892813 
L 122.039076 317.460413 
L 128.055421 321.027848 
L 134.071767 344.284667 
L 140.088112 355.779096 
L 146.104457 358.273605 
L 152.120802 361.451043 
L 158.137148 366.116038 
L 164.153493 359.367995 
L 170.169838 359.831527 
L 176.186183 359.990495 
L 182.202529 368.970852 
L 188.218874 368.691174 
L 194.235219 354.418911 
L 200.251565 329.384891 
L 206.26791 344.315868 
L 212.284255 340.17324 
L 218.3006 335.183787 
L 224.316946 349.050204 
L 230.333291 353.472036 
L 236.349636 366.599154 
L 242.365981 39.965234 
L 248.382327 38.825398 
L 254.398672 161.640972 
L 260.415017 208.741538 
L 266.431362 226.719915 
L 272.447708 205.956852 
L 278.464053 227.661292 
L 284.480398 228.364743 
L 290.496744 215.251491 
L 296.513089 228.431009 
L 302.529434 220.051623 
L 308.545779 229.851667 
L 314.562125 224.361429 
L 320.57847 227.03929 
L 326.594815 228.782612 
L 332.61116 228.019348 
L 338.627506 223.725144 
L 344.643851 232.872627 
L 350.660196 230.190233 
L 356.676542 223.482926 
L 362.692887 227.016179 
L 368.709232 226.921311 
L 374.725577 232.01784 
L 380.741923 230.48344 
L 386.758268 221.190836 
L 392.774613 227.945232 
L 398.790958 225.803039 
L 404.807304 228.467814 
L 410.823649 229.99054 
L 416.839994 229.010331 
L 422.85634 221.069702 
L 428.872685 216.842947 
L 434.88903 228.893856 
L 440.905375 225.617704 
L 446.921721 221.228729 
L 452.938066 232.211406 
L 458.954411 231.031086 
L 464.970756 227.360915 
L 470.987102 231.326903 
L 477.003447 227.235528 
L 483.019792 224.186158 
L 489.036138 230.963027 
L 495.052483 228.236702 
L 501.068828 217.863553 
L 507.085173 226.654831 
L 513.101519 231.113393 
L 519.117864 229.697126 
L 525.134209 224.584611 
L 531.150554 228.689326 
L 537.1669 230.631623 
L 543.183245 231.123888 
L 549.19959 227.050081 
L 555.215935 277.187314 
L 561.232281 295.491169 
L 567.248626 296.864383 
L 573.264971 298.718916 
L 579.281317 303.969302 
L 585.297662 295.223908 
L 591.314007 303.269226 
L 597.330352 196.367884 
L 603.346698 164.111609 
L 609.363043 248.748458 
L 615.379388 262.338197 
L 621.395733 260.506003 
L 627.412079 100.905365 
L 633.428424 242.921194 
L 639.444769 258.016085 
L 645.461115 256.589219 
L 651.47746 265.921439 
L 657.493805 275.831897 
L 663.51015 270.864069 
L 669.526496 285.389594 
L 675.542841 280.313973 
" clip-path="url(#p8cc1c7ff00)" style="fill: none; stroke: #9467bd; stroke-width: 1.5; stroke-linecap: square"/>
   </g>
   <g id="patch_3">
    <path d="M 50.14375 385.478125 
L 50.14375 22.318125 
" style="fill: none; stroke: #000000; stroke-width: 0.8; stroke-linejoin: miter; stroke-linecap: square"/>
   </g>
   <g id="patch_4">
    <path d="M 705.32375 385.478125 
L 705.32375 22.318125 
" style="fill: none; stroke: #000000; stroke-width: 0.8; stroke-linejoin: miter; stroke-linecap: square"/>
   </g>
   <g id="patch_5">
    <path d="M 50.14375 385.478125 
L 705.32375 385.478125 
" style="fill: none; stroke: #000000; stroke-width: 0.8; stroke-linejoin: miter; stroke-linecap: square"/>
   </g>
   <g id="patch_6">
    <path d="M 50.14375 22.318125 
L 705.32375 22.318125 
" style="fill: none; stroke: #000000; stroke-width: 0.8; stroke-linejoin: miter; stroke-linecap: square"/>
   </g>
   <g id="text_17">
    <!-- Combined Train Loss -->
    <g transform="translate(315.882188 16.318125) scale(0.12 -0.12)">
     <defs>
      <path id="DejaVuSans-43" d="M 4122 4306 
L 4122 3641 
Q 3803 3938 3442 4084 
Q 3081 4231 2675 4231 
Q 1875 4231 1450 3742 
Q 1025 3253 1025 2328 
Q 1025 1406 1450 917 
Q 1875 428 2675 428 
Q 3081 428 3442 575 
Q 3803 722 4122 1019 
L 4122 359 
Q 3791 134 3420 21 
Q 3050 -91 2638 -91 
Q 1578 -91 968 557 
Q 359 1206 359 2328 
Q 359 3453 968 4101 
Q 1578 4750 2638 4750 
Q 3056 4750 3426 4639 
Q 3797 4528 4122 4306 
z
" transform="scale(0.015625)"/>
      <path id="DejaVuSans-6d" d="M 3328 2828 
Q 3544 3216 3844 3400 
Q 4144 3584 4550 3584 
Q 5097 3584 5394 3201 
Q 5691 2819 5691 2113 
L 5691 0 
L 5113 0 
L 5113 2094 
Q 5113 2597 4934 2840 
Q 4756 3084 4391 3084 
Q 3944 3084 3684 2787 
Q 3425 2491 3425 1978 
L 3425 0 
L 2847 0 
L 2847 2094 
Q 2847 2600 2669 2842 
Q 2491 3084 2119 3084 
Q 1678 3084 1418 2786 
Q 1159 2488 1159 1978 
L 1159 0 
L 581 0 
L 581 3500 
L 1159 3500 
L 1159 2956 
Q 1356 3278 1631 3431 
Q 1906 3584 2284 3584 
Q 2666 3584 2933 3390 
Q 3200 3197 3328 2828 
z
" transform="scale(0.015625)"/>
      <path id="DejaVuSans-62" d="M 3116 1747 
Q 3116 2381 2855 2742 
Q 2594 3103 2138 3103 
Q 1681 3103 1420 2742 
Q 1159 2381 1159 1747 
Q 1159 1113 1420 752 
Q 1681 391 2138 391 
Q 2594 391 2855 752 
Q 3116 1113 3116 1747 
z
M 1159 2969 
Q 1341 3281 1617 3432 
Q 1894 3584 2278 3584 
Q 2916 3584 3314 3078 
Q 3713 2572 3713 1747 
Q 3713 922 3314 415 
Q 2916 -91 2278 -91 
Q 1894 -91 1617 61 
Q 1341 213 1159 525 
L 1159 0 
L 581 0 
L 581 4863 
L 1159 4863 
L 1159 2969 
z
" transform="scale(0.015625)"/>
      <path id="DejaVuSans-65" d="M 3597 1894 
L 3597 1613 
L 953 1613 
Q 991 1019 1311 708 
Q 1631 397 2203 397 
Q 2534 397 2845 478 
Q 3156 559 3463 722 
L 3463 178 
Q 3153 47 2828 -22 
Q 2503 -91 2169 -91 
Q 1331 -91 842 396 
Q 353 884 353 1716 
Q 353 2575 817 3079 
Q 1281 3584 2069 3584 
Q 2775 3584 3186 3129 
Q 3597 2675 3597 1894 
z
M 3022 2063 
Q 3016 2534 2758 2815 
Q 2500 3097 2075 3097 
Q 1594 3097 1305 2825 
Q 1016 2553 972 2059 
L 3022 2063 
z
" transform="scale(0.015625)"/>
      <path id="DejaVuSans-64" d="M 2906 2969 
L 2906 4863 
L 3481 4863 
L 3481 0 
L 2906 0 
L 2906 525 
Q 2725 213 2448 61 
Q 2172 -91 1784 -91 
Q 1150 -91 751 415 
Q 353 922 353 1747 
Q 353 2572 751 3078 
Q 1150 3584 1784 3584 
Q 2172 3584 2448 3432 
Q 2725 3281 2906 2969 
z
M 947 1747 
Q 947 1113 1208 752 
Q 1469 391 1925 391 
Q 2381 391 2643 752 
Q 2906 1113 2906 1747 
Q 2906 2381 2643 2742 
Q 2381 3103 1925 3103 
Q 1469 3103 1208 2742 
Q 947 2381 947 1747 
z
" transform="scale(0.015625)"/>
     </defs>
     <use xlink:href="#DejaVuSans-43"/>
     <use xlink:href="#DejaVuSans-6f" transform="translate(69.824219 0)"/>
     <use xlink:href="#DejaVuSans-6d" transform="translate(131.005859 0)"/>
     <use xlink:href="#DejaVuSans-62" transform="translate(228.417969 0)"/>
     <use xlink:href="#DejaVuSans-69" transform="translate(291.894531 0)"/>
     <use xlink:href="#DejaVuSans-6e" transform="translate(319.677734 0)"/>
     <use xlink:href="#DejaVuSans-65" transform="translate(383.056641 0)"/>
     <use xlink:href="#DejaVuSans-64" transform="translate(444.580078 0)"/>
     <use xlink:href="#DejaVuSans-20" transform="translate(508.056641 0)"/>
     <use xlink:href="#DejaVuSans-54" transform="translate(539.84375 0)"/>
     <use xlink:href="#DejaVuSans-72" transform="translate(586.177734 0)"/>
     <use xlink:href="#DejaVuSans-61" transform="translate(627.291016 0)"/>
     <use xlink:href="#DejaVuSans-69" transform="translate(688.570312 0)"/>
     <use xlink:href="#DejaVuSans-6e" transform="translate(716.353516 0)"/>
     <use xlink:href="#DejaVuSans-20" transform="translate(779.732422 0)"/>
     <use xlink:href="#DejaVuSans-4c" transform="translate(811.519531 0)"/>
     <use xlink:href="#DejaVuSans-6f" transform="translate(865.482422 0)"/>
     <use xlink:href="#DejaVuSans-73" transform="translate(926.664062 0)"/>
     <use xlink:href="#DejaVuSans-73" transform="translate(978.763672 0)"/>
    </g>
   </g>
   <g id="legend_1">
    <g id="patch_7">
     <path d="M 636.14875 103.70875 
L 698.32375 103.70875 
Q 700.32375 103.70875 700.32375 101.70875 
L 700.32375 29.318125 
Q 700.32375 27.318125 698.32375 27.318125 
L 636.14875 27.318125 
Q 634.14875 27.318125 634.14875 29.318125 
L 634.14875 101.70875 
Q 634.14875 103.70875 636.14875 103.70875 
z
" style="fill: #ffffff; opacity: 0.8; stroke: #cccccc; stroke-linejoin: miter"/>
    </g>
    <g id="line2d_20">
     <path d="M 638.14875 35.416562 
L 648.14875 35.416562 
L 658.14875 35.416562 
" style="fill: none; stroke: #1f77b4; stroke-width: 1.5; stroke-linecap: square"/>
    </g>
    <g id="text_18">
     <!-- Fold 1 -->
     <g transform="translate(666.14875 38.916562) scale(0.1 -0.1)">
      <defs>
       <path id="DejaVuSans-46" d="M 628 4666 
L 3309 4666 
L 3309 4134 
L 1259 4134 
L 1259 2759 
L 3109 2759 
L 3109 2228 
L 1259 2228 
L 1259 0 
L 628 0 
L 628 4666 
z
" transform="scale(0.015625)"/>
       <path id="DejaVuSans-6c" d="M 603 4863 
L 1178 4863 
L 1178 0 
L 603 0 
L 603 4863 
z
" transform="scale(0.015625)"/>
      </defs>
      <use xlink:href="#DejaVuSans-46"/>
      <use xlink:href="#DejaVuSans-6f" transform="translate(53.894531 0)"/>
      <use xlink:href="#DejaVuSans-6c" transform="translate(115.076172 0)"/>
      <use xlink:href="#DejaVuSans-64" transform="translate(142.859375 0)"/>
      <use xlink:href="#DejaVuSans-20" transform="translate(206.335938 0)"/>
      <use xlink:href="#DejaVuSans-31" transform="translate(238.123047 0)"/>
     </g>
    </g>
    <g id="line2d_21">
     <path d="M 638.14875 50.094688 
L 648.14875 50.094688 
L 658.14875 50.094688 
" style="fill: none; stroke: #ff7f0e; stroke-width: 1.5; stroke-linecap: square"/>
    </g>
    <g id="text_19">
     <!-- Fold 2 -->
     <g transform="translate(666.14875 53.594688) scale(0.1 -0.1)">
      <use xlink:href="#DejaVuSans-46"/>
      <use xlink:href="#DejaVuSans-6f" transform="translate(53.894531 0)"/>
      <use xlink:href="#DejaVuSans-6c" transform="translate(115.076172 0)"/>
      <use xlink:href="#DejaVuSans-64" transform="translate(142.859375 0)"/>
      <use xlink:href="#DejaVuSans-20" transform="translate(206.335938 0)"/>
      <use xlink:href="#DejaVuSans-32" transform="translate(238.123047 0)"/>
     </g>
    </g>
    <g id="line2d_22">
     <path d="M 638.14875 64.772812 
L 648.14875 64.772812 
L 658.14875 64.772812 
" style="fill: none; stroke: #2ca02c; stroke-width: 1.5; stroke-linecap: square"/>
    </g>
    <g id="text_20">
     <!-- Fold 3 -->
     <g transform="translate(666.14875 68.272812) scale(0.1 -0.1)">
      <defs>
       <path id="DejaVuSans-33" d="M 2597 2516 
Q 3050 2419 3304 2112 
Q 3559 1806 3559 1356 
Q 3559 666 3084 287 
Q 2609 -91 1734 -91 
Q 1441 -91 1130 -33 
Q 819 25 488 141 
L 488 750 
Q 750 597 1062 519 
Q 1375 441 1716 441 
Q 2309 441 2620 675 
Q 2931 909 2931 1356 
Q 2931 1769 2642 2001 
Q 2353 2234 1838 2234 
L 1294 2234 
L 1294 2753 
L 1863 2753 
Q 2328 2753 2575 2939 
Q 2822 3125 2822 3475 
Q 2822 3834 2567 4026 
Q 2313 4219 1838 4219 
Q 1578 4219 1281 4162 
Q 984 4106 628 3988 
L 628 4550 
Q 988 4650 1302 4700 
Q 1616 4750 1894 4750 
Q 2613 4750 3031 4423 
Q 3450 4097 3450 3541 
Q 3450 3153 3228 2886 
Q 3006 2619 2597 2516 
z
" transform="scale(0.015625)"/>
      </defs>
      <use xlink:href="#DejaVuSans-46"/>
      <use xlink:href="#DejaVuSans-6f" transform="translate(53.894531 0)"/>
      <use xlink:href="#DejaVuSans-6c" transform="translate(115.076172 0)"/>
      <use xlink:href="#DejaVuSans-64" transform="translate(142.859375 0)"/>
      <use xlink:href="#DejaVuSans-20" transform="translate(206.335938 0)"/>
      <use xlink:href="#DejaVuSans-33" transform="translate(238.123047 0)"/>
     </g>
    </g>
    <g id="line2d_23">
     <path d="M 638.14875 79.450938 
L 648.14875 79.450938 
L 658.14875 79.450938 
" style="fill: none; stroke: #d62728; stroke-width: 1.5; stroke-linecap: square"/>
    </g>
    <g id="text_21">
     <!-- Fold 4 -->
     <g transform="translate(666.14875 82.950938) scale(0.1 -0.1)">
      <use xlink:href="#DejaVuSans-46"/>
      <use xlink:href="#DejaVuSans-6f" transform="translate(53.894531 0)"/>
      <use xlink:href="#DejaVuSans-6c" transform="translate(115.076172 0)"/>
      <use xlink:href="#DejaVuSans-64" transform="translate(142.859375 0)"/>
      <use xlink:href="#DejaVuSans-20" transform="translate(206.335938 0)"/>
      <use xlink:href="#DejaVuSans-34" transform="translate(238.123047 0)"/>
     </g>
    </g>
    <g id="line2d_24">
     <path d="M 638.14875 94.129063 
L 648.14875 94.129063 
L 658.14875 94.129063 
" style="fill: none; stroke: #9467bd; stroke-width: 1.5; stroke-linecap: square"/>
    </g>
    <g id="text_22">
     <!-- Fold 5 -->
     <g transform="translate(666.14875 97.629063) scale(0.1 -0.1)">
      <use xlink:href="#DejaVuSans-46"/>
      <use xlink:href="#DejaVuSans-6f" transform="translate(53.894531 0)"/>
      <use xlink:href="#DejaVuSans-6c" transform="translate(115.076172 0)"/>
      <use xlink:href="#DejaVuSans-64" transform="translate(142.859375 0)"/>
      <use xlink:href="#DejaVuSans-20" transform="translate(206.335938 0)"/>
      <use xlink:href="#DejaVuSans-35" transform="translate(238.123047 0)"/>
     </g>
    </g>
   </g>
  </g>
 </g>
 <defs>
  <clipPath id="p8cc1c7ff00">
   <rect x="50.14375" y="22.318125" width="655.18" height="363.16"/>
  </clipPath>
 </defs>
</svg>
