<?xml version="1.0" encoding="utf-8" standalone="no"?>
<!DOCTYPE svg PUBLIC "-//W3C//DTD SVG 1.1//EN"
  "http://www.w3.org/Graphics/SVG/1.1/DTD/svg11.dtd">
<svg xmlns:xlink="http://www.w3.org/1999/xlink" width="712.37125pt" height="423.034375pt" viewBox="0 0 712.37125 423.034375" xmlns="http://www.w3.org/2000/svg" version="1.1">
 <metadata>
  <rdf:RDF xmlns:dc="http://purl.org/dc/elements/1.1/" xmlns:cc="http://creativecommons.org/ns#" xmlns:rdf="http://www.w3.org/1999/02/22-rdf-syntax-ns#">
   <cc:Work>
    <dc:type rdf:resource="http://purl.org/dc/dcmitype/StillImage"/>
    <dc:date>2025-06-26T08:50:18.341185</dc:date>
    <dc:format>image/svg+xml</dc:format>
    <dc:creator>
     <cc:Agent>
      <dc:title>Matplotlib v3.10.0, https://matplotlib.org/</dc:title>
     </cc:Agent>
    </dc:creator>
   </cc:Work>
  </rdf:RDF>
 </metadata>
 <defs>
  <style type="text/css">*{stroke-linejoin: round; stroke-linecap: butt}</style>
 </defs>
 <g id="figure_1">
  <g id="patch_1">
   <path d="M 0 423.034375 
L 712.37125 423.034375 
L 712.37125 0 
L 0 0 
z
" style="fill: #ffffff"/>
  </g>
  <g id="axes_1">
   <g id="patch_2">
    <path d="M 43.78125 385.478125 
L 705.17125 385.478125 
L 705.17125 22.318125 
L 43.78125 22.318125 
z
" style="fill: #ffffff"/>
   </g>
   <g id="matplotlib.axis_1">
    <g id="xtick_1">
     <g id="line2d_1">
      <defs>
       <path id="mf1628365a7" d="M 0 0 
L 0 3.5 
" style="stroke: #000000; stroke-width: 0.8"/>
      </defs>
      <g>
       <use xlink:href="#mf1628365a7" x="67.771062" y="385.478125" style="stroke: #000000; stroke-width: 0.8"/>
      </g>
     </g>
     <g id="text_1">
      <!-- 0 -->
      <g transform="translate(64.589812 400.076562) scale(0.1 -0.1)">
       <defs>
        <path id="DejaVuSans-30" d="M 2034 4250 
Q 1547 4250 1301 3770 
Q 1056 3291 1056 2328 
Q 1056 1369 1301 889 
Q 1547 409 2034 409 
Q 2525 409 2770 889 
Q 3016 1369 3016 2328 
Q 3016 3291 2770 3770 
Q 2525 4250 2034 4250 
z
M 2034 4750 
Q 2819 4750 3233 4129 
Q 3647 3509 3647 2328 
Q 3647 1150 3233 529 
Q 2819 -91 2034 -91 
Q 1250 -91 836 529 
Q 422 1150 422 2328 
Q 422 3509 836 4129 
Q 1250 4750 2034 4750 
z
" transform="scale(0.015625)"/>
       </defs>
       <use xlink:href="#DejaVuSans-30"/>
      </g>
     </g>
    </g>
    <g id="xtick_2">
     <g id="line2d_2">
      <g>
       <use xlink:href="#mf1628365a7" x="189.238463" y="385.478125" style="stroke: #000000; stroke-width: 0.8"/>
      </g>
     </g>
     <g id="text_2">
      <!-- 20 -->
      <g transform="translate(182.875963 400.076562) scale(0.1 -0.1)">
       <defs>
        <path id="DejaVuSans-32" d="M 1228 531 
L 3431 531 
L 3431 0 
L 469 0 
L 469 531 
Q 828 903 1448 1529 
Q 2069 2156 2228 2338 
Q 2531 2678 2651 2914 
Q 2772 3150 2772 3378 
Q 2772 3750 2511 3984 
Q 2250 4219 1831 4219 
Q 1534 4219 1204 4116 
Q 875 4013 500 3803 
L 500 4441 
Q 881 4594 1212 4672 
Q 1544 4750 1819 4750 
Q 2544 4750 2975 4387 
Q 3406 4025 3406 3419 
Q 3406 3131 3298 2873 
Q 3191 2616 2906 2266 
Q 2828 2175 2409 1742 
Q 1991 1309 1228 531 
z
" transform="scale(0.015625)"/>
       </defs>
       <use xlink:href="#DejaVuSans-32"/>
       <use xlink:href="#DejaVuSans-30" transform="translate(63.623047 0)"/>
      </g>
     </g>
    </g>
    <g id="xtick_3">
     <g id="line2d_3">
      <g>
       <use xlink:href="#mf1628365a7" x="310.705864" y="385.478125" style="stroke: #000000; stroke-width: 0.8"/>
      </g>
     </g>
     <g id="text_3">
      <!-- 40 -->
      <g transform="translate(304.343364 400.076562) scale(0.1 -0.1)">
       <defs>
        <path id="DejaVuSans-34" d="M 2419 4116 
L 825 1625 
L 2419 1625 
L 2419 4116 
z
M 2253 4666 
L 3047 4666 
L 3047 1625 
L 3713 1625 
L 3713 1100 
L 3047 1100 
L 3047 0 
L 2419 0 
L 2419 1100 
L 313 1100 
L 313 1709 
L 2253 4666 
z
" transform="scale(0.015625)"/>
       </defs>
       <use xlink:href="#DejaVuSans-34"/>
       <use xlink:href="#DejaVuSans-30" transform="translate(63.623047 0)"/>
      </g>
     </g>
    </g>
    <g id="xtick_4">
     <g id="line2d_4">
      <g>
       <use xlink:href="#mf1628365a7" x="432.173266" y="385.478125" style="stroke: #000000; stroke-width: 0.8"/>
      </g>
     </g>
     <g id="text_4">
      <!-- 60 -->
      <g transform="translate(425.810766 400.076562) scale(0.1 -0.1)">
       <defs>
        <path id="DejaVuSans-36" d="M 2113 2584 
Q 1688 2584 1439 2293 
Q 1191 2003 1191 1497 
Q 1191 994 1439 701 
Q 1688 409 2113 409 
Q 2538 409 2786 701 
Q 3034 994 3034 1497 
Q 3034 2003 2786 2293 
Q 2538 2584 2113 2584 
z
M 3366 4563 
L 3366 3988 
Q 3128 4100 2886 4159 
Q 2644 4219 2406 4219 
Q 1781 4219 1451 3797 
Q 1122 3375 1075 2522 
Q 1259 2794 1537 2939 
Q 1816 3084 2150 3084 
Q 2853 3084 3261 2657 
Q 3669 2231 3669 1497 
Q 3669 778 3244 343 
Q 2819 -91 2113 -91 
Q 1303 -91 875 529 
Q 447 1150 447 2328 
Q 447 3434 972 4092 
Q 1497 4750 2381 4750 
Q 2619 4750 2861 4703 
Q 3103 4656 3366 4563 
z
" transform="scale(0.015625)"/>
       </defs>
       <use xlink:href="#DejaVuSans-36"/>
       <use xlink:href="#DejaVuSans-30" transform="translate(63.623047 0)"/>
      </g>
     </g>
    </g>
    <g id="xtick_5">
     <g id="line2d_5">
      <g>
       <use xlink:href="#mf1628365a7" x="553.640667" y="385.478125" style="stroke: #000000; stroke-width: 0.8"/>
      </g>
     </g>
     <g id="text_5">
      <!-- 80 -->
      <g transform="translate(547.278167 400.076562) scale(0.1 -0.1)">
       <defs>
        <path id="DejaVuSans-38" d="M 2034 2216 
Q 1584 2216 1326 1975 
Q 1069 1734 1069 1313 
Q 1069 891 1326 650 
Q 1584 409 2034 409 
Q 2484 409 2743 651 
Q 3003 894 3003 1313 
Q 3003 1734 2745 1975 
Q 2488 2216 2034 2216 
z
M 1403 2484 
Q 997 2584 770 2862 
Q 544 3141 544 3541 
Q 544 4100 942 4425 
Q 1341 4750 2034 4750 
Q 2731 4750 3128 4425 
Q 3525 4100 3525 3541 
Q 3525 3141 3298 2862 
Q 3072 2584 2669 2484 
Q 3125 2378 3379 2068 
Q 3634 1759 3634 1313 
Q 3634 634 3220 271 
Q 2806 -91 2034 -91 
Q 1263 -91 848 271 
Q 434 634 434 1313 
Q 434 1759 690 2068 
Q 947 2378 1403 2484 
z
M 1172 3481 
Q 1172 3119 1398 2916 
Q 1625 2713 2034 2713 
Q 2441 2713 2670 2916 
Q 2900 3119 2900 3481 
Q 2900 3844 2670 4047 
Q 2441 4250 2034 4250 
Q 1625 4250 1398 4047 
Q 1172 3844 1172 3481 
z
" transform="scale(0.015625)"/>
       </defs>
       <use xlink:href="#DejaVuSans-38"/>
       <use xlink:href="#DejaVuSans-30" transform="translate(63.623047 0)"/>
      </g>
     </g>
    </g>
    <g id="xtick_6">
     <g id="line2d_6">
      <g>
       <use xlink:href="#mf1628365a7" x="675.108068" y="385.478125" style="stroke: #000000; stroke-width: 0.8"/>
      </g>
     </g>
     <g id="text_6">
      <!-- 100 -->
      <g transform="translate(665.564318 400.076562) scale(0.1 -0.1)">
       <defs>
        <path id="DejaVuSans-31" d="M 794 531 
L 1825 531 
L 1825 4091 
L 703 3866 
L 703 4441 
L 1819 4666 
L 2450 4666 
L 2450 531 
L 3481 531 
L 3481 0 
L 794 0 
L 794 531 
z
" transform="scale(0.015625)"/>
       </defs>
       <use xlink:href="#DejaVuSans-31"/>
       <use xlink:href="#DejaVuSans-30" transform="translate(63.623047 0)"/>
       <use xlink:href="#DejaVuSans-30" transform="translate(127.246094 0)"/>
      </g>
     </g>
    </g>
    <g id="text_7">
     <!-- Epoch -->
     <g transform="translate(359.165313 413.754687) scale(0.1 -0.1)">
      <defs>
       <path id="DejaVuSans-45" d="M 628 4666 
L 3578 4666 
L 3578 4134 
L 1259 4134 
L 1259 2753 
L 3481 2753 
L 3481 2222 
L 1259 2222 
L 1259 531 
L 3634 531 
L 3634 0 
L 628 0 
L 628 4666 
z
" transform="scale(0.015625)"/>
       <path id="DejaVuSans-70" d="M 1159 525 
L 1159 -1331 
L 581 -1331 
L 581 3500 
L 1159 3500 
L 1159 2969 
Q 1341 3281 1617 3432 
Q 1894 3584 2278 3584 
Q 2916 3584 3314 3078 
Q 3713 2572 3713 1747 
Q 3713 922 3314 415 
Q 2916 -91 2278 -91 
Q 1894 -91 1617 61 
Q 1341 213 1159 525 
z
M 3116 1747 
Q 3116 2381 2855 2742 
Q 2594 3103 2138 3103 
Q 1681 3103 1420 2742 
Q 1159 2381 1159 1747 
Q 1159 1113 1420 752 
Q 1681 391 2138 391 
Q 2594 391 2855 752 
Q 3116 1113 3116 1747 
z
" transform="scale(0.015625)"/>
       <path id="DejaVuSans-6f" d="M 1959 3097 
Q 1497 3097 1228 2736 
Q 959 2375 959 1747 
Q 959 1119 1226 758 
Q 1494 397 1959 397 
Q 2419 397 2687 759 
Q 2956 1122 2956 1747 
Q 2956 2369 2687 2733 
Q 2419 3097 1959 3097 
z
M 1959 3584 
Q 2709 3584 3137 3096 
Q 3566 2609 3566 1747 
Q 3566 888 3137 398 
Q 2709 -91 1959 -91 
Q 1206 -91 779 398 
Q 353 888 353 1747 
Q 353 2609 779 3096 
Q 1206 3584 1959 3584 
z
" transform="scale(0.015625)"/>
       <path id="DejaVuSans-63" d="M 3122 3366 
L 3122 2828 
Q 2878 2963 2633 3030 
Q 2388 3097 2138 3097 
Q 1578 3097 1268 2742 
Q 959 2388 959 1747 
Q 959 1106 1268 751 
Q 1578 397 2138 397 
Q 2388 397 2633 464 
Q 2878 531 3122 666 
L 3122 134 
Q 2881 22 2623 -34 
Q 2366 -91 2075 -91 
Q 1284 -91 818 406 
Q 353 903 353 1747 
Q 353 2603 823 3093 
Q 1294 3584 2113 3584 
Q 2378 3584 2631 3529 
Q 2884 3475 3122 3366 
z
" transform="scale(0.015625)"/>
       <path id="DejaVuSans-68" d="M 3513 2113 
L 3513 0 
L 2938 0 
L 2938 2094 
Q 2938 2591 2744 2837 
Q 2550 3084 2163 3084 
Q 1697 3084 1428 2787 
Q 1159 2491 1159 1978 
L 1159 0 
L 581 0 
L 581 4863 
L 1159 4863 
L 1159 2956 
Q 1366 3272 1645 3428 
Q 1925 3584 2291 3584 
Q 2894 3584 3203 3211 
Q 3513 2838 3513 2113 
z
" transform="scale(0.015625)"/>
      </defs>
      <use xlink:href="#DejaVuSans-45"/>
      <use xlink:href="#DejaVuSans-70" transform="translate(63.183594 0)"/>
      <use xlink:href="#DejaVuSans-6f" transform="translate(126.660156 0)"/>
      <use xlink:href="#DejaVuSans-63" transform="translate(187.841797 0)"/>
      <use xlink:href="#DejaVuSans-68" transform="translate(242.822266 0)"/>
     </g>
    </g>
   </g>
   <g id="matplotlib.axis_2">
    <g id="ytick_1">
     <g id="line2d_7">
      <defs>
       <path id="maf7abd70ae" d="M 0 0 
L -3.5 0 
" style="stroke: #000000; stroke-width: 0.8"/>
      </defs>
      <g>
       <use xlink:href="#maf7abd70ae" x="43.78125" y="367.714478" style="stroke: #000000; stroke-width: 0.8"/>
      </g>
     </g>
     <g id="text_8">
      <!-- 1.2 -->
      <g transform="translate(20.878125 371.513697) scale(0.1 -0.1)">
       <defs>
        <path id="DejaVuSans-2e" d="M 684 794 
L 1344 794 
L 1344 0 
L 684 0 
L 684 794 
z
" transform="scale(0.015625)"/>
       </defs>
       <use xlink:href="#DejaVuSans-31"/>
       <use xlink:href="#DejaVuSans-2e" transform="translate(63.623047 0)"/>
       <use xlink:href="#DejaVuSans-32" transform="translate(95.410156 0)"/>
      </g>
     </g>
    </g>
    <g id="ytick_2">
     <g id="line2d_8">
      <g>
       <use xlink:href="#maf7abd70ae" x="43.78125" y="316.921328" style="stroke: #000000; stroke-width: 0.8"/>
      </g>
     </g>
     <g id="text_9">
      <!-- 1.3 -->
      <g transform="translate(20.878125 320.720546) scale(0.1 -0.1)">
       <defs>
        <path id="DejaVuSans-33" d="M 2597 2516 
Q 3050 2419 3304 2112 
Q 3559 1806 3559 1356 
Q 3559 666 3084 287 
Q 2609 -91 1734 -91 
Q 1441 -91 1130 -33 
Q 819 25 488 141 
L 488 750 
Q 750 597 1062 519 
Q 1375 441 1716 441 
Q 2309 441 2620 675 
Q 2931 909 2931 1356 
Q 2931 1769 2642 2001 
Q 2353 2234 1838 2234 
L 1294 2234 
L 1294 2753 
L 1863 2753 
Q 2328 2753 2575 2939 
Q 2822 3125 2822 3475 
Q 2822 3834 2567 4026 
Q 2313 4219 1838 4219 
Q 1578 4219 1281 4162 
Q 984 4106 628 3988 
L 628 4550 
Q 988 4650 1302 4700 
Q 1616 4750 1894 4750 
Q 2613 4750 3031 4423 
Q 3450 4097 3450 3541 
Q 3450 3153 3228 2886 
Q 3006 2619 2597 2516 
z
" transform="scale(0.015625)"/>
       </defs>
       <use xlink:href="#DejaVuSans-31"/>
       <use xlink:href="#DejaVuSans-2e" transform="translate(63.623047 0)"/>
       <use xlink:href="#DejaVuSans-33" transform="translate(95.410156 0)"/>
      </g>
     </g>
    </g>
    <g id="ytick_3">
     <g id="line2d_9">
      <g>
       <use xlink:href="#maf7abd70ae" x="43.78125" y="266.128177" style="stroke: #000000; stroke-width: 0.8"/>
      </g>
     </g>
     <g id="text_10">
      <!-- 1.4 -->
      <g transform="translate(20.878125 269.927396) scale(0.1 -0.1)">
       <use xlink:href="#DejaVuSans-31"/>
       <use xlink:href="#DejaVuSans-2e" transform="translate(63.623047 0)"/>
       <use xlink:href="#DejaVuSans-34" transform="translate(95.410156 0)"/>
      </g>
     </g>
    </g>
    <g id="ytick_4">
     <g id="line2d_10">
      <g>
       <use xlink:href="#maf7abd70ae" x="43.78125" y="215.335026" style="stroke: #000000; stroke-width: 0.8"/>
      </g>
     </g>
     <g id="text_11">
      <!-- 1.5 -->
      <g transform="translate(20.878125 219.134245) scale(0.1 -0.1)">
       <defs>
        <path id="DejaVuSans-35" d="M 691 4666 
L 3169 4666 
L 3169 4134 
L 1269 4134 
L 1269 2991 
Q 1406 3038 1543 3061 
Q 1681 3084 1819 3084 
Q 2600 3084 3056 2656 
Q 3513 2228 3513 1497 
Q 3513 744 3044 326 
Q 2575 -91 1722 -91 
Q 1428 -91 1123 -41 
Q 819 9 494 109 
L 494 744 
Q 775 591 1075 516 
Q 1375 441 1709 441 
Q 2250 441 2565 725 
Q 2881 1009 2881 1497 
Q 2881 1984 2565 2268 
Q 2250 2553 1709 2553 
Q 1456 2553 1204 2497 
Q 953 2441 691 2322 
L 691 4666 
z
" transform="scale(0.015625)"/>
       </defs>
       <use xlink:href="#DejaVuSans-31"/>
       <use xlink:href="#DejaVuSans-2e" transform="translate(63.623047 0)"/>
       <use xlink:href="#DejaVuSans-35" transform="translate(95.410156 0)"/>
      </g>
     </g>
    </g>
    <g id="ytick_5">
     <g id="line2d_11">
      <g>
       <use xlink:href="#maf7abd70ae" x="43.78125" y="164.541875" style="stroke: #000000; stroke-width: 0.8"/>
      </g>
     </g>
     <g id="text_12">
      <!-- 1.6 -->
      <g transform="translate(20.878125 168.341094) scale(0.1 -0.1)">
       <use xlink:href="#DejaVuSans-31"/>
       <use xlink:href="#DejaVuSans-2e" transform="translate(63.623047 0)"/>
       <use xlink:href="#DejaVuSans-36" transform="translate(95.410156 0)"/>
      </g>
     </g>
    </g>
    <g id="ytick_6">
     <g id="line2d_12">
      <g>
       <use xlink:href="#maf7abd70ae" x="43.78125" y="113.748725" style="stroke: #000000; stroke-width: 0.8"/>
      </g>
     </g>
     <g id="text_13">
      <!-- 1.7 -->
      <g transform="translate(20.878125 117.547943) scale(0.1 -0.1)">
       <defs>
        <path id="DejaVuSans-37" d="M 525 4666 
L 3525 4666 
L 3525 4397 
L 1831 0 
L 1172 0 
L 2766 4134 
L 525 4134 
L 525 4666 
z
" transform="scale(0.015625)"/>
       </defs>
       <use xlink:href="#DejaVuSans-31"/>
       <use xlink:href="#DejaVuSans-2e" transform="translate(63.623047 0)"/>
       <use xlink:href="#DejaVuSans-37" transform="translate(95.410156 0)"/>
      </g>
     </g>
    </g>
    <g id="ytick_7">
     <g id="line2d_13">
      <g>
       <use xlink:href="#maf7abd70ae" x="43.78125" y="62.955574" style="stroke: #000000; stroke-width: 0.8"/>
      </g>
     </g>
     <g id="text_14">
      <!-- 1.8 -->
      <g transform="translate(20.878125 66.754793) scale(0.1 -0.1)">
       <use xlink:href="#DejaVuSans-31"/>
       <use xlink:href="#DejaVuSans-2e" transform="translate(63.623047 0)"/>
       <use xlink:href="#DejaVuSans-38" transform="translate(95.410156 0)"/>
      </g>
     </g>
    </g>
    <g id="text_15">
     <!-- Train Loss -->
     <g transform="translate(14.798438 228.448125) rotate(-90) scale(0.1 -0.1)">
      <defs>
       <path id="DejaVuSans-54" d="M -19 4666 
L 3928 4666 
L 3928 4134 
L 2272 4134 
L 2272 0 
L 1638 0 
L 1638 4134 
L -19 4134 
L -19 4666 
z
" transform="scale(0.015625)"/>
       <path id="DejaVuSans-72" d="M 2631 2963 
Q 2534 3019 2420 3045 
Q 2306 3072 2169 3072 
Q 1681 3072 1420 2755 
Q 1159 2438 1159 1844 
L 1159 0 
L 581 0 
L 581 3500 
L 1159 3500 
L 1159 2956 
Q 1341 3275 1631 3429 
Q 1922 3584 2338 3584 
Q 2397 3584 2469 3576 
Q 2541 3569 2628 3553 
L 2631 2963 
z
" transform="scale(0.015625)"/>
       <path id="DejaVuSans-61" d="M 2194 1759 
Q 1497 1759 1228 1600 
Q 959 1441 959 1056 
Q 959 750 1161 570 
Q 1363 391 1709 391 
Q 2188 391 2477 730 
Q 2766 1069 2766 1631 
L 2766 1759 
L 2194 1759 
z
M 3341 1997 
L 3341 0 
L 2766 0 
L 2766 531 
Q 2569 213 2275 61 
Q 1981 -91 1556 -91 
Q 1019 -91 701 211 
Q 384 513 384 1019 
Q 384 1609 779 1909 
Q 1175 2209 1959 2209 
L 2766 2209 
L 2766 2266 
Q 2766 2663 2505 2880 
Q 2244 3097 1772 3097 
Q 1472 3097 1187 3025 
Q 903 2953 641 2809 
L 641 3341 
Q 956 3463 1253 3523 
Q 1550 3584 1831 3584 
Q 2591 3584 2966 3190 
Q 3341 2797 3341 1997 
z
" transform="scale(0.015625)"/>
       <path id="DejaVuSans-69" d="M 603 3500 
L 1178 3500 
L 1178 0 
L 603 0 
L 603 3500 
z
M 603 4863 
L 1178 4863 
L 1178 4134 
L 603 4134 
L 603 4863 
z
" transform="scale(0.015625)"/>
       <path id="DejaVuSans-6e" d="M 3513 2113 
L 3513 0 
L 2938 0 
L 2938 2094 
Q 2938 2591 2744 2837 
Q 2550 3084 2163 3084 
Q 1697 3084 1428 2787 
Q 1159 2491 1159 1978 
L 1159 0 
L 581 0 
L 581 3500 
L 1159 3500 
L 1159 2956 
Q 1366 3272 1645 3428 
Q 1925 3584 2291 3584 
Q 2894 3584 3203 3211 
Q 3513 2838 3513 2113 
z
" transform="scale(0.015625)"/>
       <path id="DejaVuSans-20" transform="scale(0.015625)"/>
       <path id="DejaVuSans-4c" d="M 628 4666 
L 1259 4666 
L 1259 531 
L 3531 531 
L 3531 0 
L 628 0 
L 628 4666 
z
" transform="scale(0.015625)"/>
       <path id="DejaVuSans-73" d="M 2834 3397 
L 2834 2853 
Q 2591 2978 2328 3040 
Q 2066 3103 1784 3103 
Q 1356 3103 1142 2972 
Q 928 2841 928 2578 
Q 928 2378 1081 2264 
Q 1234 2150 1697 2047 
L 1894 2003 
Q 2506 1872 2764 1633 
Q 3022 1394 3022 966 
Q 3022 478 2636 193 
Q 2250 -91 1575 -91 
Q 1294 -91 989 -36 
Q 684 19 347 128 
L 347 722 
Q 666 556 975 473 
Q 1284 391 1588 391 
Q 1994 391 2212 530 
Q 2431 669 2431 922 
Q 2431 1156 2273 1281 
Q 2116 1406 1581 1522 
L 1381 1569 
Q 847 1681 609 1914 
Q 372 2147 372 2553 
Q 372 3047 722 3315 
Q 1072 3584 1716 3584 
Q 2034 3584 2315 3537 
Q 2597 3491 2834 3397 
z
" transform="scale(0.015625)"/>
      </defs>
      <use xlink:href="#DejaVuSans-54"/>
      <use xlink:href="#DejaVuSans-72" transform="translate(46.333984 0)"/>
      <use xlink:href="#DejaVuSans-61" transform="translate(87.447266 0)"/>
      <use xlink:href="#DejaVuSans-69" transform="translate(148.726562 0)"/>
      <use xlink:href="#DejaVuSans-6e" transform="translate(176.509766 0)"/>
      <use xlink:href="#DejaVuSans-20" transform="translate(239.888672 0)"/>
      <use xlink:href="#DejaVuSans-4c" transform="translate(271.675781 0)"/>
      <use xlink:href="#DejaVuSans-6f" transform="translate(325.638672 0)"/>
      <use xlink:href="#DejaVuSans-73" transform="translate(386.820312 0)"/>
      <use xlink:href="#DejaVuSans-73" transform="translate(438.919922 0)"/>
     </g>
    </g>
   </g>
   <g id="line2d_14">
    <path d="M 73.844432 172.787601 
L 79.917802 137.59482 
L 85.991172 239.093809 
L 92.064542 150.797284 
L 98.137912 245.127127 
L 104.211282 278.889217 
L 110.284652 272.525929 
L 116.358022 245.699087 
L 122.431392 280.59329 
L 128.504762 314.021267 
L 134.578132 299.546864 
L 140.651503 266.479146 
L 146.724873 213.965099 
L 152.798243 284.459521 
L 158.871613 356.033836 
L 164.944983 336.392388 
L 171.018353 202.767927 
L 177.091723 272.892757 
L 183.165093 307.500679 
L 189.238463 286.96881 
L 195.311833 203.273773 
L 201.385203 211.150295 
L 207.458573 252.875023 
L 213.531943 259.269402 
L 219.605313 292.542733 
L 225.678683 228.388112 
L 231.752053 227.542871 
L 237.825424 207.013937 
L 243.898794 196.278151 
L 249.972164 185.382478 
L 256.045534 244.130306 
L 262.118904 236.51723 
L 268.192274 214.855061 
L 274.265644 207.390891 
L 280.339014 231.125067 
L 286.412384 195.493116 
L 292.485754 146.171011 
L 298.559124 167.354421 
L 304.632494 188.897128 
L 310.705864 166.651826 
L 316.779234 201.859386 
L 322.852604 218.37512 
L 328.925975 211.688121 
L 334.999345 235.524825 
L 341.072715 223.067728 
L 347.146085 247.695413 
L 353.219455 230.374153 
L 359.292825 235.993695 
L 365.366195 251.512812 
L 371.439565 240.942155 
L 377.512935 249.277847 
L 383.586305 256.791794 
L 389.659675 252.739826 
L 395.733045 259.307591 
L 401.806415 271.39435 
L 407.879785 262.934522 
L 413.953155 261.85307 
L 420.026525 253.605995 
L 426.099896 249.392149 
L 432.173266 258.891047 
L 438.246636 252.542409 
L 444.320006 95.367017 
L 450.393376 197.788606 
L 456.466746 174.836951 
L 462.540116 188.043038 
L 468.613486 207.072138 
L 474.686856 180.209519 
L 480.760226 221.140663 
L 486.833596 237.687758 
L 492.906966 234.041193 
L 498.980336 211.909302 
L 505.053706 212.671572 
L 511.127076 237.168314 
L 517.200447 240.179916 
L 523.273817 249.190333 
L 529.347187 225.308682 
L 535.420557 231.725406 
L 541.493927 240.888627 
L 547.567297 254.303997 
L 553.640667 261.768572 
L 559.714037 262.928053 
L 565.787407 255.042007 
L 571.860777 257.904802 
L 577.934147 242.825205 
L 584.007517 238.781803 
L 590.080887 251.773228 
L 596.154257 247.659311 
L 602.227627 249.17575 
L 608.300997 237.554946 
L 614.374368 244.617859 
L 620.447738 247.529154 
L 626.521108 233.847788 
L 632.594478 238.586988 
L 638.667848 265.096241 
L 644.741218 255.868613 
L 650.814588 218.411401 
L 656.887958 222.821063 
L 662.961328 221.259056 
L 669.034698 231.79885 
L 675.108068 195.70063 
" clip-path="url(#p44098e61b5)" style="fill: none; stroke: #1f77b4; stroke-width: 1.5; stroke-linecap: square"/>
   </g>
   <g id="line2d_15">
    <path d="M 73.844432 100.277542 
L 79.917802 174.579802 
L 85.991172 205.046109 
L 92.064542 190.090792 
L 98.137912 180.432228 
L 104.211282 102.135779 
L 110.284652 121.990429 
L 116.358022 228.941773 
L 122.431392 244.37656 
L 128.504762 258.759188 
L 134.578132 284.65576 
L 140.651503 317.310943 
L 146.724873 315.177485 
L 152.798243 237.620309 
L 158.871613 305.214553 
L 164.944983 279.228495 
L 171.018353 339.700279 
L 177.091723 314.699243 
L 183.165093 306.827638 
L 189.238463 260.685409 
L 195.311833 303.111702 
L 201.385203 289.676337 
L 207.458573 248.184573 
L 213.531943 264.663937 
L 219.605313 289.672038 
L 225.678683 307.476241 
L 231.752053 306.0287 
L 237.825424 313.678006 
L 243.898794 322.615601 
L 249.972164 322.752111 
L 256.045534 303.518122 
L 262.118904 300.846156 
L 268.192274 317.716099 
L 274.265644 312.055664 
L 280.339014 299.889202 
L 286.412384 286.261967 
L 292.485754 286.172868 
L 298.559124 315.789267 
L 304.632494 305.641498 
L 310.705864 224.670607 
L 316.779234 296.413404 
L 322.852604 318.721188 
L 328.925975 325.352235 
L 334.999345 323.676175 
L 341.072715 322.762677 
L 347.146085 314.111301 
L 353.219455 303.582954 
L 359.292825 318.008343 
L 365.366195 305.727471 
L 371.439565 303.148301 
L 377.512935 325.027253 
L 383.586305 320.300827 
L 389.659675 322.440846 
L 395.733045 312.971194 
L 401.806415 321.688809 
L 407.879785 326.155027 
L 413.953155 321.539685 
L 420.026525 327.337959 
L 426.099896 329.309182 
L 432.173266 329.593106 
L 438.246636 314.158681 
L 444.320006 286.54268 
L 450.393376 289.404518 
L 456.466746 287.229349 
L 462.540116 265.736851 
L 468.613486 232.073256 
L 474.686856 228.092918 
L 480.760226 294.502991 
L 486.833596 288.077829 
L 492.906966 302.815857 
L 498.980336 278.393538 
L 505.053706 273.371961 
L 511.127076 237.046861 
L 517.200447 288.931539 
L 523.273817 297.870251 
L 529.347187 288.447034 
L 535.420557 284.405129 
L 541.493927 290.108547 
L 547.567297 279.801807 
L 553.640667 287.016477 
L 559.714037 255.394578 
L 565.787407 265.958503 
L 571.860777 238.411975 
L 577.934147 190.357461 
L 584.007517 191.74531 
L 590.080887 136.528893 
L 596.154257 102.240185 
L 602.227627 97.757081 
L 608.300997 80.56313 
L 614.374368 139.431198 
L 620.447738 167.173471 
L 626.521108 261.879775 
L 632.594478 279.522326 
L 638.667848 280.774973 
L 644.741218 275.653184 
L 650.814588 275.424882 
L 656.887958 239.819657 
L 662.961328 197.154952 
L 669.034698 225.863212 
L 675.108068 257.409425 
" clip-path="url(#p44098e61b5)" style="fill: none; stroke: #ff7f0e; stroke-width: 1.5; stroke-linecap: square"/>
   </g>
   <g id="line2d_16">
    <path d="M 73.844432 100.928704 
L 79.917802 85.583833 
L 85.991172 88.40758 
L 92.064542 86.176955 
L 98.137912 87.446751 
L 104.211282 85.904497 
L 110.284652 85.86978 
L 116.358022 84.52455 
L 122.431392 87.595985 
L 128.504762 88.136498 
L 134.578132 85.588602 
L 140.651503 84.493752 
L 146.724873 85.517987 
L 152.798243 86.285531 
L 158.871613 87.34191 
L 164.944983 88.255078 
L 171.018353 85.470236 
L 177.091723 86.444951 
L 183.165093 86.938143 
L 189.238463 86.461455 
L 195.311833 88.040701 
L 201.385203 88.00116 
L 207.458573 88.2954 
L 213.531943 87.359435 
L 219.605313 87.85684 
L 225.678683 85.677246 
L 231.752053 87.304661 
L 237.825424 86.883627 
L 243.898794 85.206226 
L 249.972164 88.420558 
L 256.045534 86.480826 
L 262.118904 85.754232 
L 268.192274 88.463858 
L 274.265644 85.882027 
L 280.339014 88.173537 
L 286.412384 86.27375 
L 292.485754 85.635792 
L 298.559124 87.092415 
L 304.632494 86.585936 
L 310.705864 87.38305 
L 316.779234 85.420256 
L 322.852604 86.790162 
L 328.925975 86.383911 
L 334.999345 88.503967 
L 341.072715 85.666865 
L 347.146085 88.843553 
L 353.219455 87.151414 
L 359.292825 87.649968 
L 365.366195 89.132772 
L 371.439565 85.387825 
L 377.512935 85.660306 
L 383.586305 86.753813 
L 389.659675 87.507714 
L 395.733045 85.937528 
L 401.806415 88.841112 
L 407.879785 88.366991 
L 413.953155 87.547704 
L 420.026525 87.154373 
L 426.099896 87.636009 
L 432.173266 86.038258 
L 438.246636 86.926116 
L 444.320006 86.723036 
L 450.393376 87.985641 
L 456.466746 87.230554 
L 462.540116 86.39935 
L 468.613486 87.216134 
L 474.686856 87.275361 
L 480.760226 84.701707 
L 486.833596 87.737435 
L 492.906966 87.797061 
L 498.980336 83.282937 
L 505.053706 86.958533 
L 511.127076 86.544997 
L 517.200447 84.353506 
L 523.273817 86.582706 
L 529.347187 87.261442 
L 535.420557 88.055612 
L 541.493927 87.210254 
L 547.567297 87.562789 
L 553.640667 87.971553 
L 559.714037 87.569427 
L 565.787407 88.014197 
L 571.860777 85.285102 
L 577.934147 86.639823 
L 584.007517 85.201053 
L 590.080887 84.235574 
L 596.154257 88.154914 
L 602.227627 88.130213 
L 608.300997 88.566506 
L 614.374368 87.642629 
L 620.447738 85.795579 
L 626.521108 85.834687 
L 632.594478 86.239787 
L 638.667848 87.968475 
L 644.741218 85.621339 
L 650.814588 87.206531 
L 656.887958 87.168433 
L 662.961328 88.169275 
L 669.034698 86.37928 
L 675.108068 83.936624 
" clip-path="url(#p44098e61b5)" style="fill: none; stroke: #2ca02c; stroke-width: 1.5; stroke-linecap: square"/>
   </g>
   <g id="line2d_17">
    <path d="M 73.844432 216.280852 
L 79.917802 237.169727 
L 85.991172 162.543168 
L 92.064542 106.917268 
L 98.137912 127.526025 
L 104.211282 119.677918 
L 110.284652 114.516295 
L 116.358022 114.439024 
L 122.431392 115.182404 
L 128.504762 118.099434 
L 134.578132 117.972752 
L 140.651503 118.048422 
L 146.724873 126.534505 
L 152.798243 130.114874 
L 158.871613 124.649103 
L 164.944983 115.219783 
L 171.018353 86.903268 
L 177.091723 85.710855 
L 183.165093 87.85901 
L 189.238463 87.988157 
L 195.311833 84.064899 
L 201.385203 86.653662 
L 207.458573 87.225389 
L 213.531943 88.27311 
L 219.605313 85.712751 
L 225.678683 86.757523 
L 231.752053 86.254085 
L 237.825424 84.619987 
L 243.898794 86.091995 
L 249.972164 89.822353 
L 256.045534 86.689507 
L 262.118904 87.206018 
L 268.192274 87.095366 
L 274.265644 89.247159 
L 280.339014 87.302968 
L 286.412384 82.115834 
L 292.485754 87.775939 
L 298.559124 87.161706 
L 304.632494 87.594686 
L 310.705864 86.767203 
L 316.779234 87.775252 
L 322.852604 87.109471 
L 328.925975 88.474891 
L 334.999345 88.256576 
L 341.072715 85.670082 
L 347.146085 86.335668 
L 353.219455 87.128595 
L 359.292825 86.424261 
L 365.366195 84.183231 
L 371.439565 85.982957 
L 377.512935 88.099907 
L 383.586305 87.996406 
L 389.659675 86.558242 
L 395.733045 85.96606 
L 401.806415 83.914845 
L 407.879785 84.887094 
L 413.953155 84.984338 
L 420.026525 88.322306 
L 426.099896 85.884023 
L 432.173266 85.413248 
L 438.246636 89.269626 
L 444.320006 85.937529 
L 450.393376 86.065374 
L 456.466746 87.003905 
L 462.540116 86.204312 
L 468.613486 86.358818 
L 474.686856 88.790941 
L 480.760226 87.457192 
L 486.833596 86.708463 
L 492.906966 86.326597 
L 498.980336 88.462411 
L 505.053706 87.100015 
L 511.127076 87.729883 
L 517.200447 86.093154 
L 523.273817 87.049025 
L 529.347187 88.119793 
L 535.420557 87.707926 
L 541.493927 88.035473 
L 547.567297 86.739609 
L 553.640667 86.893368 
L 559.714037 87.379714 
L 565.787407 87.648106 
L 571.860777 86.419021 
L 577.934147 87.307359 
L 584.007517 85.958017 
L 590.080887 88.004144 
L 596.154257 87.35199 
L 602.227627 87.429277 
L 608.300997 84.569457 
L 614.374368 88.606113 
L 620.447738 86.100861 
L 626.521108 86.304598 
L 632.594478 87.990006 
L 638.667848 85.34732 
L 644.741218 86.581607 
L 650.814588 88.180374 
L 656.887958 89.518107 
L 662.961328 86.988729 
L 669.034698 87.861566 
L 675.108068 86.518654 
" clip-path="url(#p44098e61b5)" style="fill: none; stroke: #d62728; stroke-width: 1.5; stroke-linecap: square"/>
   </g>
   <g id="line2d_18">
    <path d="M 73.844432 194.982884 
L 79.917802 205.424917 
L 85.991172 163.757781 
L 92.064542 161.656412 
L 98.137912 210.203355 
L 104.211282 257.921474 
L 110.284652 248.083512 
L 116.358022 305.328922 
L 122.431392 322.834919 
L 128.504762 344.170492 
L 134.578132 340.81496 
L 140.651503 368.970852 
L 146.724873 351.47838 
L 152.798243 337.892971 
L 158.871613 340.348715 
L 164.944983 309.236876 
L 171.018353 310.337539 
L 177.091723 246.523823 
L 183.165093 286.240978 
L 189.238463 308.281505 
L 195.311833 344.250171 
L 201.385203 328.879625 
L 207.458573 287.988154 
L 213.531943 38.825398 
L 219.605313 130.171187 
L 225.678683 174.325319 
L 231.752053 193.856425 
L 237.825424 168.678405 
L 243.898794 190.113151 
L 249.972164 205.214115 
L 256.045534 229.037025 
L 262.118904 194.640685 
L 268.192274 222.621279 
L 274.265644 211.27687 
L 280.339014 209.107648 
L 286.412384 241.689454 
L 292.485754 259.150743 
L 298.559124 248.286778 
L 304.632494 272.488902 
L 310.705864 268.956 
L 316.779234 261.374139 
L 322.852604 270.251911 
L 328.925975 278.689819 
L 334.999345 263.829471 
L 341.072715 268.462221 
L 347.146085 248.781009 
L 353.219455 246.223026 
L 359.292825 212.590714 
L 365.366195 222.595425 
L 371.439565 221.265459 
L 377.512935 225.722954 
L 383.586305 233.362481 
L 389.659675 229.662231 
L 395.733045 238.616438 
L 401.806415 240.951416 
L 407.879785 234.204692 
L 413.953155 262.84039 
L 420.026525 279.045915 
L 426.099896 267.647309 
L 432.173266 243.321047 
L 438.246636 242.414487 
L 444.320006 247.73494 
L 450.393376 242.274442 
L 456.466746 248.131129 
L 462.540116 248.377276 
L 468.613486 253.581892 
L 474.686856 246.25934 
L 480.760226 241.458017 
L 486.833596 261.061698 
L 492.906966 251.05019 
L 498.980336 263.01298 
L 505.053706 250.888842 
L 511.127076 264.554911 
L 517.200447 249.485475 
L 523.273817 244.475008 
L 529.347187 234.221671 
L 535.420557 239.632352 
L 541.493927 223.046389 
L 547.567297 222.833509 
L 553.640667 205.380257 
L 559.714037 228.569401 
L 565.787407 239.617058 
L 571.860777 235.548448 
L 577.934147 238.303352 
L 584.007517 242.532787 
L 590.080887 222.678951 
L 596.154257 225.608863 
L 602.227627 228.020718 
L 608.300997 236.27452 
L 614.374368 231.021843 
L 620.447738 228.435677 
L 626.521108 231.038898 
L 632.594478 233.330695 
L 638.667848 231.209138 
L 644.741218 230.049332 
L 650.814588 207.521204 
L 656.887958 214.995544 
L 662.961328 247.582907 
L 669.034698 223.152584 
L 675.108068 229.345557 
" clip-path="url(#p44098e61b5)" style="fill: none; stroke: #9467bd; stroke-width: 1.5; stroke-linecap: square"/>
   </g>
   <g id="patch_3">
    <path d="M 43.78125 385.478125 
L 43.78125 22.318125 
" style="fill: none; stroke: #000000; stroke-width: 0.8; stroke-linejoin: miter; stroke-linecap: square"/>
   </g>
   <g id="patch_4">
    <path d="M 705.17125 385.478125 
L 705.17125 22.318125 
" style="fill: none; stroke: #000000; stroke-width: 0.8; stroke-linejoin: miter; stroke-linecap: square"/>
   </g>
   <g id="patch_5">
    <path d="M 43.78125 385.478125 
L 705.17125 385.478125 
" style="fill: none; stroke: #000000; stroke-width: 0.8; stroke-linejoin: miter; stroke-linecap: square"/>
   </g>
   <g id="patch_6">
    <path d="M 43.78125 22.318125 
L 705.17125 22.318125 
" style="fill: none; stroke: #000000; stroke-width: 0.8; stroke-linejoin: miter; stroke-linecap: square"/>
   </g>
   <g id="text_16">
    <!-- Combined Train Loss -->
    <g transform="translate(312.624688 16.318125) scale(0.12 -0.12)">
     <defs>
      <path id="DejaVuSans-43" d="M 4122 4306 
L 4122 3641 
Q 3803 3938 3442 4084 
Q 3081 4231 2675 4231 
Q 1875 4231 1450 3742 
Q 1025 3253 1025 2328 
Q 1025 1406 1450 917 
Q 1875 428 2675 428 
Q 3081 428 3442 575 
Q 3803 722 4122 1019 
L 4122 359 
Q 3791 134 3420 21 
Q 3050 -91 2638 -91 
Q 1578 -91 968 557 
Q 359 1206 359 2328 
Q 359 3453 968 4101 
Q 1578 4750 2638 4750 
Q 3056 4750 3426 4639 
Q 3797 4528 4122 4306 
z
" transform="scale(0.015625)"/>
      <path id="DejaVuSans-6d" d="M 3328 2828 
Q 3544 3216 3844 3400 
Q 4144 3584 4550 3584 
Q 5097 3584 5394 3201 
Q 5691 2819 5691 2113 
L 5691 0 
L 5113 0 
L 5113 2094 
Q 5113 2597 4934 2840 
Q 4756 3084 4391 3084 
Q 3944 3084 3684 2787 
Q 3425 2491 3425 1978 
L 3425 0 
L 2847 0 
L 2847 2094 
Q 2847 2600 2669 2842 
Q 2491 3084 2119 3084 
Q 1678 3084 1418 2786 
Q 1159 2488 1159 1978 
L 1159 0 
L 581 0 
L 581 3500 
L 1159 3500 
L 1159 2956 
Q 1356 3278 1631 3431 
Q 1906 3584 2284 3584 
Q 2666 3584 2933 3390 
Q 3200 3197 3328 2828 
z
" transform="scale(0.015625)"/>
      <path id="DejaVuSans-62" d="M 3116 1747 
Q 3116 2381 2855 2742 
Q 2594 3103 2138 3103 
Q 1681 3103 1420 2742 
Q 1159 2381 1159 1747 
Q 1159 1113 1420 752 
Q 1681 391 2138 391 
Q 2594 391 2855 752 
Q 3116 1113 3116 1747 
z
M 1159 2969 
Q 1341 3281 1617 3432 
Q 1894 3584 2278 3584 
Q 2916 3584 3314 3078 
Q 3713 2572 3713 1747 
Q 3713 922 3314 415 
Q 2916 -91 2278 -91 
Q 1894 -91 1617 61 
Q 1341 213 1159 525 
L 1159 0 
L 581 0 
L 581 4863 
L 1159 4863 
L 1159 2969 
z
" transform="scale(0.015625)"/>
      <path id="DejaVuSans-65" d="M 3597 1894 
L 3597 1613 
L 953 1613 
Q 991 1019 1311 708 
Q 1631 397 2203 397 
Q 2534 397 2845 478 
Q 3156 559 3463 722 
L 3463 178 
Q 3153 47 2828 -22 
Q 2503 -91 2169 -91 
Q 1331 -91 842 396 
Q 353 884 353 1716 
Q 353 2575 817 3079 
Q 1281 3584 2069 3584 
Q 2775 3584 3186 3129 
Q 3597 2675 3597 1894 
z
M 3022 2063 
Q 3016 2534 2758 2815 
Q 2500 3097 2075 3097 
Q 1594 3097 1305 2825 
Q 1016 2553 972 2059 
L 3022 2063 
z
" transform="scale(0.015625)"/>
      <path id="DejaVuSans-64" d="M 2906 2969 
L 2906 4863 
L 3481 4863 
L 3481 0 
L 2906 0 
L 2906 525 
Q 2725 213 2448 61 
Q 2172 -91 1784 -91 
Q 1150 -91 751 415 
Q 353 922 353 1747 
Q 353 2572 751 3078 
Q 1150 3584 1784 3584 
Q 2172 3584 2448 3432 
Q 2725 3281 2906 2969 
z
M 947 1747 
Q 947 1113 1208 752 
Q 1469 391 1925 391 
Q 2381 391 2643 752 
Q 2906 1113 2906 1747 
Q 2906 2381 2643 2742 
Q 2381 3103 1925 3103 
Q 1469 3103 1208 2742 
Q 947 2381 947 1747 
z
" transform="scale(0.015625)"/>
     </defs>
     <use xlink:href="#DejaVuSans-43"/>
     <use xlink:href="#DejaVuSans-6f" transform="translate(69.824219 0)"/>
     <use xlink:href="#DejaVuSans-6d" transform="translate(131.005859 0)"/>
     <use xlink:href="#DejaVuSans-62" transform="translate(228.417969 0)"/>
     <use xlink:href="#DejaVuSans-69" transform="translate(291.894531 0)"/>
     <use xlink:href="#DejaVuSans-6e" transform="translate(319.677734 0)"/>
     <use xlink:href="#DejaVuSans-65" transform="translate(383.056641 0)"/>
     <use xlink:href="#DejaVuSans-64" transform="translate(444.580078 0)"/>
     <use xlink:href="#DejaVuSans-20" transform="translate(508.056641 0)"/>
     <use xlink:href="#DejaVuSans-54" transform="translate(539.84375 0)"/>
     <use xlink:href="#DejaVuSans-72" transform="translate(586.177734 0)"/>
     <use xlink:href="#DejaVuSans-61" transform="translate(627.291016 0)"/>
     <use xlink:href="#DejaVuSans-69" transform="translate(688.570312 0)"/>
     <use xlink:href="#DejaVuSans-6e" transform="translate(716.353516 0)"/>
     <use xlink:href="#DejaVuSans-20" transform="translate(779.732422 0)"/>
     <use xlink:href="#DejaVuSans-4c" transform="translate(811.519531 0)"/>
     <use xlink:href="#DejaVuSans-6f" transform="translate(865.482422 0)"/>
     <use xlink:href="#DejaVuSans-73" transform="translate(926.664062 0)"/>
     <use xlink:href="#DejaVuSans-73" transform="translate(978.763672 0)"/>
    </g>
   </g>
   <g id="legend_1">
    <g id="patch_7">
     <path d="M 50.78125 380.478125 
L 112.95625 380.478125 
Q 114.95625 380.478125 114.95625 378.478125 
L 114.95625 306.0875 
Q 114.95625 304.0875 112.95625 304.0875 
L 50.78125 304.0875 
Q 48.78125 304.0875 48.78125 306.0875 
L 48.78125 378.478125 
Q 48.78125 380.478125 50.78125 380.478125 
z
" style="fill: #ffffff; opacity: 0.8; stroke: #cccccc; stroke-linejoin: miter"/>
    </g>
    <g id="line2d_19">
     <path d="M 52.78125 312.185937 
L 62.78125 312.185937 
L 72.78125 312.185937 
" style="fill: none; stroke: #1f77b4; stroke-width: 1.5; stroke-linecap: square"/>
    </g>
    <g id="text_17">
     <!-- Fold 1 -->
     <g transform="translate(80.78125 315.685937) scale(0.1 -0.1)">
      <defs>
       <path id="DejaVuSans-46" d="M 628 4666 
L 3309 4666 
L 3309 4134 
L 1259 4134 
L 1259 2759 
L 3109 2759 
L 3109 2228 
L 1259 2228 
L 1259 0 
L 628 0 
L 628 4666 
z
" transform="scale(0.015625)"/>
       <path id="DejaVuSans-6c" d="M 603 4863 
L 1178 4863 
L 1178 0 
L 603 0 
L 603 4863 
z
" transform="scale(0.015625)"/>
      </defs>
      <use xlink:href="#DejaVuSans-46"/>
      <use xlink:href="#DejaVuSans-6f" transform="translate(53.894531 0)"/>
      <use xlink:href="#DejaVuSans-6c" transform="translate(115.076172 0)"/>
      <use xlink:href="#DejaVuSans-64" transform="translate(142.859375 0)"/>
      <use xlink:href="#DejaVuSans-20" transform="translate(206.335938 0)"/>
      <use xlink:href="#DejaVuSans-31" transform="translate(238.123047 0)"/>
     </g>
    </g>
    <g id="line2d_20">
     <path d="M 52.78125 326.864062 
L 62.78125 326.864062 
L 72.78125 326.864062 
" style="fill: none; stroke: #ff7f0e; stroke-width: 1.5; stroke-linecap: square"/>
    </g>
    <g id="text_18">
     <!-- Fold 2 -->
     <g transform="translate(80.78125 330.364062) scale(0.1 -0.1)">
      <use xlink:href="#DejaVuSans-46"/>
      <use xlink:href="#DejaVuSans-6f" transform="translate(53.894531 0)"/>
      <use xlink:href="#DejaVuSans-6c" transform="translate(115.076172 0)"/>
      <use xlink:href="#DejaVuSans-64" transform="translate(142.859375 0)"/>
      <use xlink:href="#DejaVuSans-20" transform="translate(206.335938 0)"/>
      <use xlink:href="#DejaVuSans-32" transform="translate(238.123047 0)"/>
     </g>
    </g>
    <g id="line2d_21">
     <path d="M 52.78125 341.542187 
L 62.78125 341.542187 
L 72.78125 341.542187 
" style="fill: none; stroke: #2ca02c; stroke-width: 1.5; stroke-linecap: square"/>
    </g>
    <g id="text_19">
     <!-- Fold 3 -->
     <g transform="translate(80.78125 345.042187) scale(0.1 -0.1)">
      <use xlink:href="#DejaVuSans-46"/>
      <use xlink:href="#DejaVuSans-6f" transform="translate(53.894531 0)"/>
      <use xlink:href="#DejaVuSans-6c" transform="translate(115.076172 0)"/>
      <use xlink:href="#DejaVuSans-64" transform="translate(142.859375 0)"/>
      <use xlink:href="#DejaVuSans-20" transform="translate(206.335938 0)"/>
      <use xlink:href="#DejaVuSans-33" transform="translate(238.123047 0)"/>
     </g>
    </g>
    <g id="line2d_22">
     <path d="M 52.78125 356.220312 
L 62.78125 356.220312 
L 72.78125 356.220312 
" style="fill: none; stroke: #d62728; stroke-width: 1.5; stroke-linecap: square"/>
    </g>
    <g id="text_20">
     <!-- Fold 4 -->
     <g transform="translate(80.78125 359.720312) scale(0.1 -0.1)">
      <use xlink:href="#DejaVuSans-46"/>
      <use xlink:href="#DejaVuSans-6f" transform="translate(53.894531 0)"/>
      <use xlink:href="#DejaVuSans-6c" transform="translate(115.076172 0)"/>
      <use xlink:href="#DejaVuSans-64" transform="translate(142.859375 0)"/>
      <use xlink:href="#DejaVuSans-20" transform="translate(206.335938 0)"/>
      <use xlink:href="#DejaVuSans-34" transform="translate(238.123047 0)"/>
     </g>
    </g>
    <g id="line2d_23">
     <path d="M 52.78125 370.898437 
L 62.78125 370.898437 
L 72.78125 370.898437 
" style="fill: none; stroke: #9467bd; stroke-width: 1.5; stroke-linecap: square"/>
    </g>
    <g id="text_21">
     <!-- Fold 5 -->
     <g transform="translate(80.78125 374.398437) scale(0.1 -0.1)">
      <use xlink:href="#DejaVuSans-46"/>
      <use xlink:href="#DejaVuSans-6f" transform="translate(53.894531 0)"/>
      <use xlink:href="#DejaVuSans-6c" transform="translate(115.076172 0)"/>
      <use xlink:href="#DejaVuSans-64" transform="translate(142.859375 0)"/>
      <use xlink:href="#DejaVuSans-20" transform="translate(206.335938 0)"/>
      <use xlink:href="#DejaVuSans-35" transform="translate(238.123047 0)"/>
     </g>
    </g>
   </g>
  </g>
 </g>
 <defs>
  <clipPath id="p44098e61b5">
   <rect x="43.78125" y="22.318125" width="661.39" height="363.16"/>
  </clipPath>
 </defs>
</svg>
