<?xml version="1.0" encoding="utf-8" standalone="no"?>
<!DOCTYPE svg PUBLIC "-//W3C//DTD SVG 1.1//EN"
  "http://www.w3.org/Graphics/SVG/1.1/DTD/svg11.dtd">
<svg xmlns:xlink="http://www.w3.org/1999/xlink" width="712.61375pt" height="423.034375pt" viewBox="0 0 712.61375 423.034375" xmlns="http://www.w3.org/2000/svg" version="1.1">
 <metadata>
  <rdf:RDF xmlns:dc="http://purl.org/dc/elements/1.1/" xmlns:cc="http://creativecommons.org/ns#" xmlns:rdf="http://www.w3.org/1999/02/22-rdf-syntax-ns#">
   <cc:Work>
    <dc:type rdf:resource="http://purl.org/dc/dcmitype/StillImage"/>
    <dc:date>2025-06-27T16:26:15.736946</dc:date>
    <dc:format>image/svg+xml</dc:format>
    <dc:creator>
     <cc:Agent>
      <dc:title>Matplotlib v3.10.0, https://matplotlib.org/</dc:title>
     </cc:Agent>
    </dc:creator>
   </cc:Work>
  </rdf:RDF>
 </metadata>
 <defs>
  <style type="text/css">*{stroke-linejoin: round; stroke-linecap: butt}</style>
 </defs>
 <g id="figure_1">
  <g id="patch_1">
   <path d="M 0 423.034375 
L 712.61375 423.034375 
L 712.61375 0 
L 0 0 
z
" style="fill: #ffffff"/>
  </g>
  <g id="axes_1">
   <g id="patch_2">
    <path d="M 50.14375 385.478125 
L 705.41375 385.478125 
L 705.41375 22.318125 
L 50.14375 22.318125 
z
" style="fill: #ffffff"/>
   </g>
   <g id="matplotlib.axis_1">
    <g id="xtick_1">
     <g id="line2d_1">
      <defs>
       <path id="mad0ad491c6" d="M 0 0 
L 0 3.5 
" style="stroke: #000000; stroke-width: 0.8"/>
      </defs>
      <g>
       <use xlink:href="#mad0ad491c6" x="73.911578" y="385.478125" style="stroke: #000000; stroke-width: 0.8"/>
      </g>
     </g>
     <g id="text_1">
      <!-- 0 -->
      <g transform="translate(70.730328 400.076562) scale(0.1 -0.1)">
       <defs>
        <path id="DejaVuSans-30" d="M 2034 4250 
Q 1547 4250 1301 3770 
Q 1056 3291 1056 2328 
Q 1056 1369 1301 889 
Q 1547 409 2034 409 
Q 2525 409 2770 889 
Q 3016 1369 3016 2328 
Q 3016 3291 2770 3770 
Q 2525 4250 2034 4250 
z
M 2034 4750 
Q 2819 4750 3233 4129 
Q 3647 3509 3647 2328 
Q 3647 1150 3233 529 
Q 2819 -91 2034 -91 
Q 1250 -91 836 529 
Q 422 1150 422 2328 
Q 422 3509 836 4129 
Q 1250 4750 2034 4750 
z
" transform="scale(0.015625)"/>
       </defs>
       <use xlink:href="#DejaVuSans-30"/>
      </g>
     </g>
    </g>
    <g id="xtick_2">
     <g id="line2d_2">
      <g>
       <use xlink:href="#mad0ad491c6" x="194.255013" y="385.478125" style="stroke: #000000; stroke-width: 0.8"/>
      </g>
     </g>
     <g id="text_2">
      <!-- 20 -->
      <g transform="translate(187.892513 400.076562) scale(0.1 -0.1)">
       <defs>
        <path id="DejaVuSans-32" d="M 1228 531 
L 3431 531 
L 3431 0 
L 469 0 
L 469 531 
Q 828 903 1448 1529 
Q 2069 2156 2228 2338 
Q 2531 2678 2651 2914 
Q 2772 3150 2772 3378 
Q 2772 3750 2511 3984 
Q 2250 4219 1831 4219 
Q 1534 4219 1204 4116 
Q 875 4013 500 3803 
L 500 4441 
Q 881 4594 1212 4672 
Q 1544 4750 1819 4750 
Q 2544 4750 2975 4387 
Q 3406 4025 3406 3419 
Q 3406 3131 3298 2873 
Q 3191 2616 2906 2266 
Q 2828 2175 2409 1742 
Q 1991 1309 1228 531 
z
" transform="scale(0.015625)"/>
       </defs>
       <use xlink:href="#DejaVuSans-32"/>
       <use xlink:href="#DejaVuSans-30" transform="translate(63.623047 0)"/>
      </g>
     </g>
    </g>
    <g id="xtick_3">
     <g id="line2d_3">
      <g>
       <use xlink:href="#mad0ad491c6" x="314.598447" y="385.478125" style="stroke: #000000; stroke-width: 0.8"/>
      </g>
     </g>
     <g id="text_3">
      <!-- 40 -->
      <g transform="translate(308.235947 400.076562) scale(0.1 -0.1)">
       <defs>
        <path id="DejaVuSans-34" d="M 2419 4116 
L 825 1625 
L 2419 1625 
L 2419 4116 
z
M 2253 4666 
L 3047 4666 
L 3047 1625 
L 3713 1625 
L 3713 1100 
L 3047 1100 
L 3047 0 
L 2419 0 
L 2419 1100 
L 313 1100 
L 313 1709 
L 2253 4666 
z
" transform="scale(0.015625)"/>
       </defs>
       <use xlink:href="#DejaVuSans-34"/>
       <use xlink:href="#DejaVuSans-30" transform="translate(63.623047 0)"/>
      </g>
     </g>
    </g>
    <g id="xtick_4">
     <g id="line2d_4">
      <g>
       <use xlink:href="#mad0ad491c6" x="434.941881" y="385.478125" style="stroke: #000000; stroke-width: 0.8"/>
      </g>
     </g>
     <g id="text_4">
      <!-- 60 -->
      <g transform="translate(428.579381 400.076562) scale(0.1 -0.1)">
       <defs>
        <path id="DejaVuSans-36" d="M 2113 2584 
Q 1688 2584 1439 2293 
Q 1191 2003 1191 1497 
Q 1191 994 1439 701 
Q 1688 409 2113 409 
Q 2538 409 2786 701 
Q 3034 994 3034 1497 
Q 3034 2003 2786 2293 
Q 2538 2584 2113 2584 
z
M 3366 4563 
L 3366 3988 
Q 3128 4100 2886 4159 
Q 2644 4219 2406 4219 
Q 1781 4219 1451 3797 
Q 1122 3375 1075 2522 
Q 1259 2794 1537 2939 
Q 1816 3084 2150 3084 
Q 2853 3084 3261 2657 
Q 3669 2231 3669 1497 
Q 3669 778 3244 343 
Q 2819 -91 2113 -91 
Q 1303 -91 875 529 
Q 447 1150 447 2328 
Q 447 3434 972 4092 
Q 1497 4750 2381 4750 
Q 2619 4750 2861 4703 
Q 3103 4656 3366 4563 
z
" transform="scale(0.015625)"/>
       </defs>
       <use xlink:href="#DejaVuSans-36"/>
       <use xlink:href="#DejaVuSans-30" transform="translate(63.623047 0)"/>
      </g>
     </g>
    </g>
    <g id="xtick_5">
     <g id="line2d_5">
      <g>
       <use xlink:href="#mad0ad491c6" x="555.285316" y="385.478125" style="stroke: #000000; stroke-width: 0.8"/>
      </g>
     </g>
     <g id="text_5">
      <!-- 80 -->
      <g transform="translate(548.922816 400.076562) scale(0.1 -0.1)">
       <defs>
        <path id="DejaVuSans-38" d="M 2034 2216 
Q 1584 2216 1326 1975 
Q 1069 1734 1069 1313 
Q 1069 891 1326 650 
Q 1584 409 2034 409 
Q 2484 409 2743 651 
Q 3003 894 3003 1313 
Q 3003 1734 2745 1975 
Q 2488 2216 2034 2216 
z
M 1403 2484 
Q 997 2584 770 2862 
Q 544 3141 544 3541 
Q 544 4100 942 4425 
Q 1341 4750 2034 4750 
Q 2731 4750 3128 4425 
Q 3525 4100 3525 3541 
Q 3525 3141 3298 2862 
Q 3072 2584 2669 2484 
Q 3125 2378 3379 2068 
Q 3634 1759 3634 1313 
Q 3634 634 3220 271 
Q 2806 -91 2034 -91 
Q 1263 -91 848 271 
Q 434 634 434 1313 
Q 434 1759 690 2068 
Q 947 2378 1403 2484 
z
M 1172 3481 
Q 1172 3119 1398 2916 
Q 1625 2713 2034 2713 
Q 2441 2713 2670 2916 
Q 2900 3119 2900 3481 
Q 2900 3844 2670 4047 
Q 2441 4250 2034 4250 
Q 1625 4250 1398 4047 
Q 1172 3844 1172 3481 
z
" transform="scale(0.015625)"/>
       </defs>
       <use xlink:href="#DejaVuSans-38"/>
       <use xlink:href="#DejaVuSans-30" transform="translate(63.623047 0)"/>
      </g>
     </g>
    </g>
    <g id="xtick_6">
     <g id="line2d_6">
      <g>
       <use xlink:href="#mad0ad491c6" x="675.62875" y="385.478125" style="stroke: #000000; stroke-width: 0.8"/>
      </g>
     </g>
     <g id="text_6">
      <!-- 100 -->
      <g transform="translate(666.085 400.076562) scale(0.1 -0.1)">
       <defs>
        <path id="DejaVuSans-31" d="M 794 531 
L 1825 531 
L 1825 4091 
L 703 3866 
L 703 4441 
L 1819 4666 
L 2450 4666 
L 2450 531 
L 3481 531 
L 3481 0 
L 794 0 
L 794 531 
z
" transform="scale(0.015625)"/>
       </defs>
       <use xlink:href="#DejaVuSans-31"/>
       <use xlink:href="#DejaVuSans-30" transform="translate(63.623047 0)"/>
       <use xlink:href="#DejaVuSans-30" transform="translate(127.246094 0)"/>
      </g>
     </g>
    </g>
    <g id="text_7">
     <!-- Epoch -->
     <g transform="translate(362.467813 413.754687) scale(0.1 -0.1)">
      <defs>
       <path id="DejaVuSans-45" d="M 628 4666 
L 3578 4666 
L 3578 4134 
L 1259 4134 
L 1259 2753 
L 3481 2753 
L 3481 2222 
L 1259 2222 
L 1259 531 
L 3634 531 
L 3634 0 
L 628 0 
L 628 4666 
z
" transform="scale(0.015625)"/>
       <path id="DejaVuSans-70" d="M 1159 525 
L 1159 -1331 
L 581 -1331 
L 581 3500 
L 1159 3500 
L 1159 2969 
Q 1341 3281 1617 3432 
Q 1894 3584 2278 3584 
Q 2916 3584 3314 3078 
Q 3713 2572 3713 1747 
Q 3713 922 3314 415 
Q 2916 -91 2278 -91 
Q 1894 -91 1617 61 
Q 1341 213 1159 525 
z
M 3116 1747 
Q 3116 2381 2855 2742 
Q 2594 3103 2138 3103 
Q 1681 3103 1420 2742 
Q 1159 2381 1159 1747 
Q 1159 1113 1420 752 
Q 1681 391 2138 391 
Q 2594 391 2855 752 
Q 3116 1113 3116 1747 
z
" transform="scale(0.015625)"/>
       <path id="DejaVuSans-6f" d="M 1959 3097 
Q 1497 3097 1228 2736 
Q 959 2375 959 1747 
Q 959 1119 1226 758 
Q 1494 397 1959 397 
Q 2419 397 2687 759 
Q 2956 1122 2956 1747 
Q 2956 2369 2687 2733 
Q 2419 3097 1959 3097 
z
M 1959 3584 
Q 2709 3584 3137 3096 
Q 3566 2609 3566 1747 
Q 3566 888 3137 398 
Q 2709 -91 1959 -91 
Q 1206 -91 779 398 
Q 353 888 353 1747 
Q 353 2609 779 3096 
Q 1206 3584 1959 3584 
z
" transform="scale(0.015625)"/>
       <path id="DejaVuSans-63" d="M 3122 3366 
L 3122 2828 
Q 2878 2963 2633 3030 
Q 2388 3097 2138 3097 
Q 1578 3097 1268 2742 
Q 959 2388 959 1747 
Q 959 1106 1268 751 
Q 1578 397 2138 397 
Q 2388 397 2633 464 
Q 2878 531 3122 666 
L 3122 134 
Q 2881 22 2623 -34 
Q 2366 -91 2075 -91 
Q 1284 -91 818 406 
Q 353 903 353 1747 
Q 353 2603 823 3093 
Q 1294 3584 2113 3584 
Q 2378 3584 2631 3529 
Q 2884 3475 3122 3366 
z
" transform="scale(0.015625)"/>
       <path id="DejaVuSans-68" d="M 3513 2113 
L 3513 0 
L 2938 0 
L 2938 2094 
Q 2938 2591 2744 2837 
Q 2550 3084 2163 3084 
Q 1697 3084 1428 2787 
Q 1159 2491 1159 1978 
L 1159 0 
L 581 0 
L 581 4863 
L 1159 4863 
L 1159 2956 
Q 1366 3272 1645 3428 
Q 1925 3584 2291 3584 
Q 2894 3584 3203 3211 
Q 3513 2838 3513 2113 
z
" transform="scale(0.015625)"/>
      </defs>
      <use xlink:href="#DejaVuSans-45"/>
      <use xlink:href="#DejaVuSans-70" transform="translate(63.183594 0)"/>
      <use xlink:href="#DejaVuSans-6f" transform="translate(126.660156 0)"/>
      <use xlink:href="#DejaVuSans-63" transform="translate(187.841797 0)"/>
      <use xlink:href="#DejaVuSans-68" transform="translate(242.822266 0)"/>
     </g>
    </g>
   </g>
   <g id="matplotlib.axis_2">
    <g id="ytick_1">
     <g id="line2d_7">
      <defs>
       <path id="m88011f79f2" d="M 0 0 
L -3.5 0 
" style="stroke: #000000; stroke-width: 0.8"/>
      </defs>
      <g>
       <use xlink:href="#m88011f79f2" x="50.14375" y="355.05758" style="stroke: #000000; stroke-width: 0.8"/>
      </g>
     </g>
     <g id="text_8">
      <!-- 0.20 -->
      <g transform="translate(20.878125 358.856798) scale(0.1 -0.1)">
       <defs>
        <path id="DejaVuSans-2e" d="M 684 794 
L 1344 794 
L 1344 0 
L 684 0 
L 684 794 
z
" transform="scale(0.015625)"/>
       </defs>
       <use xlink:href="#DejaVuSans-30"/>
       <use xlink:href="#DejaVuSans-2e" transform="translate(63.623047 0)"/>
       <use xlink:href="#DejaVuSans-32" transform="translate(95.410156 0)"/>
       <use xlink:href="#DejaVuSans-30" transform="translate(159.033203 0)"/>
      </g>
     </g>
    </g>
    <g id="ytick_2">
     <g id="line2d_8">
      <g>
       <use xlink:href="#m88011f79f2" x="50.14375" y="282.897216" style="stroke: #000000; stroke-width: 0.8"/>
      </g>
     </g>
     <g id="text_9">
      <!-- 0.25 -->
      <g transform="translate(20.878125 286.696435) scale(0.1 -0.1)">
       <defs>
        <path id="DejaVuSans-35" d="M 691 4666 
L 3169 4666 
L 3169 4134 
L 1269 4134 
L 1269 2991 
Q 1406 3038 1543 3061 
Q 1681 3084 1819 3084 
Q 2600 3084 3056 2656 
Q 3513 2228 3513 1497 
Q 3513 744 3044 326 
Q 2575 -91 1722 -91 
Q 1428 -91 1123 -41 
Q 819 9 494 109 
L 494 744 
Q 775 591 1075 516 
Q 1375 441 1709 441 
Q 2250 441 2565 725 
Q 2881 1009 2881 1497 
Q 2881 1984 2565 2268 
Q 2250 2553 1709 2553 
Q 1456 2553 1204 2497 
Q 953 2441 691 2322 
L 691 4666 
z
" transform="scale(0.015625)"/>
       </defs>
       <use xlink:href="#DejaVuSans-30"/>
       <use xlink:href="#DejaVuSans-2e" transform="translate(63.623047 0)"/>
       <use xlink:href="#DejaVuSans-32" transform="translate(95.410156 0)"/>
       <use xlink:href="#DejaVuSans-35" transform="translate(159.033203 0)"/>
      </g>
     </g>
    </g>
    <g id="ytick_3">
     <g id="line2d_9">
      <g>
       <use xlink:href="#m88011f79f2" x="50.14375" y="210.736852" style="stroke: #000000; stroke-width: 0.8"/>
      </g>
     </g>
     <g id="text_10">
      <!-- 0.30 -->
      <g transform="translate(20.878125 214.536071) scale(0.1 -0.1)">
       <defs>
        <path id="DejaVuSans-33" d="M 2597 2516 
Q 3050 2419 3304 2112 
Q 3559 1806 3559 1356 
Q 3559 666 3084 287 
Q 2609 -91 1734 -91 
Q 1441 -91 1130 -33 
Q 819 25 488 141 
L 488 750 
Q 750 597 1062 519 
Q 1375 441 1716 441 
Q 2309 441 2620 675 
Q 2931 909 2931 1356 
Q 2931 1769 2642 2001 
Q 2353 2234 1838 2234 
L 1294 2234 
L 1294 2753 
L 1863 2753 
Q 2328 2753 2575 2939 
Q 2822 3125 2822 3475 
Q 2822 3834 2567 4026 
Q 2313 4219 1838 4219 
Q 1578 4219 1281 4162 
Q 984 4106 628 3988 
L 628 4550 
Q 988 4650 1302 4700 
Q 1616 4750 1894 4750 
Q 2613 4750 3031 4423 
Q 3450 4097 3450 3541 
Q 3450 3153 3228 2886 
Q 3006 2619 2597 2516 
z
" transform="scale(0.015625)"/>
       </defs>
       <use xlink:href="#DejaVuSans-30"/>
       <use xlink:href="#DejaVuSans-2e" transform="translate(63.623047 0)"/>
       <use xlink:href="#DejaVuSans-33" transform="translate(95.410156 0)"/>
       <use xlink:href="#DejaVuSans-30" transform="translate(159.033203 0)"/>
      </g>
     </g>
    </g>
    <g id="ytick_4">
     <g id="line2d_10">
      <g>
       <use xlink:href="#m88011f79f2" x="50.14375" y="138.576489" style="stroke: #000000; stroke-width: 0.8"/>
      </g>
     </g>
     <g id="text_11">
      <!-- 0.35 -->
      <g transform="translate(20.878125 142.375707) scale(0.1 -0.1)">
       <use xlink:href="#DejaVuSans-30"/>
       <use xlink:href="#DejaVuSans-2e" transform="translate(63.623047 0)"/>
       <use xlink:href="#DejaVuSans-33" transform="translate(95.410156 0)"/>
       <use xlink:href="#DejaVuSans-35" transform="translate(159.033203 0)"/>
      </g>
     </g>
    </g>
    <g id="ytick_5">
     <g id="line2d_11">
      <g>
       <use xlink:href="#m88011f79f2" x="50.14375" y="66.416125" style="stroke: #000000; stroke-width: 0.8"/>
      </g>
     </g>
     <g id="text_12">
      <!-- 0.40 -->
      <g transform="translate(20.878125 70.215344) scale(0.1 -0.1)">
       <use xlink:href="#DejaVuSans-30"/>
       <use xlink:href="#DejaVuSans-2e" transform="translate(63.623047 0)"/>
       <use xlink:href="#DejaVuSans-34" transform="translate(95.410156 0)"/>
       <use xlink:href="#DejaVuSans-30" transform="translate(159.033203 0)"/>
      </g>
     </g>
    </g>
    <g id="text_13">
     <!-- Train Accuracy -->
     <g transform="translate(14.798438 240.309062) rotate(-90) scale(0.1 -0.1)">
      <defs>
       <path id="DejaVuSans-54" d="M -19 4666 
L 3928 4666 
L 3928 4134 
L 2272 4134 
L 2272 0 
L 1638 0 
L 1638 4134 
L -19 4134 
L -19 4666 
z
" transform="scale(0.015625)"/>
       <path id="DejaVuSans-72" d="M 2631 2963 
Q 2534 3019 2420 3045 
Q 2306 3072 2169 3072 
Q 1681 3072 1420 2755 
Q 1159 2438 1159 1844 
L 1159 0 
L 581 0 
L 581 3500 
L 1159 3500 
L 1159 2956 
Q 1341 3275 1631 3429 
Q 1922 3584 2338 3584 
Q 2397 3584 2469 3576 
Q 2541 3569 2628 3553 
L 2631 2963 
z
" transform="scale(0.015625)"/>
       <path id="DejaVuSans-61" d="M 2194 1759 
Q 1497 1759 1228 1600 
Q 959 1441 959 1056 
Q 959 750 1161 570 
Q 1363 391 1709 391 
Q 2188 391 2477 730 
Q 2766 1069 2766 1631 
L 2766 1759 
L 2194 1759 
z
M 3341 1997 
L 3341 0 
L 2766 0 
L 2766 531 
Q 2569 213 2275 61 
Q 1981 -91 1556 -91 
Q 1019 -91 701 211 
Q 384 513 384 1019 
Q 384 1609 779 1909 
Q 1175 2209 1959 2209 
L 2766 2209 
L 2766 2266 
Q 2766 2663 2505 2880 
Q 2244 3097 1772 3097 
Q 1472 3097 1187 3025 
Q 903 2953 641 2809 
L 641 3341 
Q 956 3463 1253 3523 
Q 1550 3584 1831 3584 
Q 2591 3584 2966 3190 
Q 3341 2797 3341 1997 
z
" transform="scale(0.015625)"/>
       <path id="DejaVuSans-69" d="M 603 3500 
L 1178 3500 
L 1178 0 
L 603 0 
L 603 3500 
z
M 603 4863 
L 1178 4863 
L 1178 4134 
L 603 4134 
L 603 4863 
z
" transform="scale(0.015625)"/>
       <path id="DejaVuSans-6e" d="M 3513 2113 
L 3513 0 
L 2938 0 
L 2938 2094 
Q 2938 2591 2744 2837 
Q 2550 3084 2163 3084 
Q 1697 3084 1428 2787 
Q 1159 2491 1159 1978 
L 1159 0 
L 581 0 
L 581 3500 
L 1159 3500 
L 1159 2956 
Q 1366 3272 1645 3428 
Q 1925 3584 2291 3584 
Q 2894 3584 3203 3211 
Q 3513 2838 3513 2113 
z
" transform="scale(0.015625)"/>
       <path id="DejaVuSans-20" transform="scale(0.015625)"/>
       <path id="DejaVuSans-41" d="M 2188 4044 
L 1331 1722 
L 3047 1722 
L 2188 4044 
z
M 1831 4666 
L 2547 4666 
L 4325 0 
L 3669 0 
L 3244 1197 
L 1141 1197 
L 716 0 
L 50 0 
L 1831 4666 
z
" transform="scale(0.015625)"/>
       <path id="DejaVuSans-75" d="M 544 1381 
L 544 3500 
L 1119 3500 
L 1119 1403 
Q 1119 906 1312 657 
Q 1506 409 1894 409 
Q 2359 409 2629 706 
Q 2900 1003 2900 1516 
L 2900 3500 
L 3475 3500 
L 3475 0 
L 2900 0 
L 2900 538 
Q 2691 219 2414 64 
Q 2138 -91 1772 -91 
Q 1169 -91 856 284 
Q 544 659 544 1381 
z
M 1991 3584 
L 1991 3584 
z
" transform="scale(0.015625)"/>
       <path id="DejaVuSans-79" d="M 2059 -325 
Q 1816 -950 1584 -1140 
Q 1353 -1331 966 -1331 
L 506 -1331 
L 506 -850 
L 844 -850 
Q 1081 -850 1212 -737 
Q 1344 -625 1503 -206 
L 1606 56 
L 191 3500 
L 800 3500 
L 1894 763 
L 2988 3500 
L 3597 3500 
L 2059 -325 
z
" transform="scale(0.015625)"/>
      </defs>
      <use xlink:href="#DejaVuSans-54"/>
      <use xlink:href="#DejaVuSans-72" transform="translate(46.333984 0)"/>
      <use xlink:href="#DejaVuSans-61" transform="translate(87.447266 0)"/>
      <use xlink:href="#DejaVuSans-69" transform="translate(148.726562 0)"/>
      <use xlink:href="#DejaVuSans-6e" transform="translate(176.509766 0)"/>
      <use xlink:href="#DejaVuSans-20" transform="translate(239.888672 0)"/>
      <use xlink:href="#DejaVuSans-41" transform="translate(271.675781 0)"/>
      <use xlink:href="#DejaVuSans-63" transform="translate(338.333984 0)"/>
      <use xlink:href="#DejaVuSans-63" transform="translate(393.314453 0)"/>
      <use xlink:href="#DejaVuSans-75" transform="translate(448.294922 0)"/>
      <use xlink:href="#DejaVuSans-72" transform="translate(511.673828 0)"/>
      <use xlink:href="#DejaVuSans-61" transform="translate(552.787109 0)"/>
      <use xlink:href="#DejaVuSans-63" transform="translate(614.066406 0)"/>
      <use xlink:href="#DejaVuSans-79" transform="translate(669.046875 0)"/>
     </g>
    </g>
   </g>
   <g id="line2d_12">
    <path d="M 79.92875 280.539034 
L 85.945922 107.21267 
L 91.963093 288.79267 
L 97.980265 301.76267 
L 103.997437 285.255398 
L 110.014609 242.808125 
L 116.03178 368.970852 
L 122.048952 348.926307 
L 128.066124 341.851761 
L 134.083295 291.150852 
L 140.100467 317.090852 
L 146.117639 347.747216 
L 152.134811 322.986307 
L 158.151982 340.67267 
L 164.169154 331.239943 
L 170.186326 343.030852 
L 176.203497 300.58358 
L 182.220669 313.55358 
L 188.237841 308.837216 
L 194.255013 325.344489 
L 200.272184 321.807216 
L 206.289356 312.374489 
L 212.306528 317.090852 
L 218.323699 332.419034 
L 224.340871 306.479034 
L 230.358043 314.73267 
L 236.375215 298.225398 
L 242.392386 304.120852 
L 248.409558 332.419034 
L 254.42673 322.986307 
L 260.443902 334.777216 
L 266.461073 325.344489 
L 272.478245 333.598125 
L 278.495417 325.344489 
L 284.512588 291.150852 
L 290.52976 310.016307 
L 296.546932 305.299943 
L 302.564104 289.971761 
L 308.581275 314.73267 
L 314.598447 324.165398 
L 320.615619 315.911761 
L 326.63279 286.434489 
L 332.649962 327.70267 
L 338.667134 321.807216 
L 344.684306 317.090852 
L 350.701477 288.79267 
L 356.718649 341.851761 
L 362.735821 338.314489 
L 368.752992 319.449034 
L 374.770164 333.598125 
L 380.787336 314.73267 
L 386.804508 324.165398 
L 392.821679 319.449034 
L 398.838851 331.239943 
L 404.856023 304.120852 
L 410.873194 314.73267 
L 416.890366 289.971761 
L 422.907538 313.55358 
L 428.92471 318.269943 
L 434.941881 306.479034 
L 440.959053 337.135398 
L 446.976225 294.688125 
L 452.993396 318.269943 
L 459.010568 322.986307 
L 465.02774 308.837216 
L 471.044912 326.52358 
L 477.062083 282.897216 
L 483.079255 318.269943 
L 489.096427 315.911761 
L 495.113598 318.269943 
L 501.13077 319.449034 
L 507.147942 292.329943 
L 513.165114 333.598125 
L 519.182285 312.374489 
L 525.199457 311.195398 
L 531.216629 337.135398 
L 537.233801 305.299943 
L 543.250972 318.269943 
L 549.268144 326.52358 
L 555.285316 330.060852 
L 561.302487 294.688125 
L 567.319659 325.344489 
L 573.336831 280.539034 
L 579.354003 343.030852 
L 585.371174 297.046307 
L 591.388346 311.195398 
L 597.405518 299.404489 
L 603.422689 308.837216 
L 609.439861 291.150852 
L 615.457033 299.404489 
L 621.474205 319.449034 
L 627.491376 295.867216 
L 633.508548 319.449034 
L 639.52572 334.777216 
L 645.542891 292.329943 
L 651.560063 319.449034 
L 657.577235 304.120852 
L 663.594407 315.911761 
L 669.611578 297.046307 
L 675.62875 289.971761 
" clip-path="url(#p93c1518a32)" style="fill: none; stroke: #1f77b4; stroke-width: 1.5; stroke-linecap: square"/>
   </g>
   <g id="line2d_13">
    <path d="M 79.92875 299.404489 
L 85.945922 299.404489 
L 91.963093 320.628125 
L 97.980265 297.046307 
L 103.997437 305.299943 
L 110.014609 289.971761 
L 116.03178 291.150852 
L 122.048952 328.881761 
L 128.066124 312.374489 
L 134.083295 291.150852 
L 140.100467 285.255398 
L 146.117639 284.076307 
L 152.134811 300.58358 
L 158.151982 307.658125 
L 164.169154 278.180852 
L 170.186326 306.479034 
L 176.203497 311.195398 
L 182.220669 273.464489 
L 188.237841 327.70267 
L 194.255013 280.539034 
L 200.272184 304.120852 
L 206.289356 286.434489 
L 212.306528 307.658125 
L 218.323699 293.509034 
L 224.340871 294.688125 
L 230.358043 302.941761 
L 236.375215 285.255398 
L 242.392386 317.090852 
L 248.409558 289.971761 
L 254.42673 274.64358 
L 260.443902 278.180852 
L 266.461073 322.986307 
L 272.478245 286.434489 
L 278.495417 294.688125 
L 284.512588 284.076307 
L 290.52976 307.658125 
L 296.546932 295.867216 
L 302.564104 310.016307 
L 308.581275 307.658125 
L 314.598447 281.718125 
L 320.615619 310.016307 
L 326.63279 335.956307 
L 332.649962 280.539034 
L 338.667134 302.941761 
L 344.684306 287.61358 
L 350.701477 277.001761 
L 356.718649 275.82267 
L 362.735821 288.79267 
L 368.752992 321.807216 
L 374.770164 292.329943 
L 380.787336 292.329943 
L 386.804508 306.479034 
L 392.821679 289.971761 
L 398.838851 292.329943 
L 404.856023 307.658125 
L 410.873194 278.180852 
L 416.890366 286.434489 
L 422.907538 322.986307 
L 428.92471 294.688125 
L 434.941881 318.269943 
L 440.959053 291.150852 
L 446.976225 298.225398 
L 452.993396 306.479034 
L 459.010568 310.016307 
L 465.02774 295.867216 
L 471.044912 294.688125 
L 477.062083 308.837216 
L 483.079255 299.404489 
L 489.096427 302.941761 
L 495.113598 267.569034 
L 501.13077 312.374489 
L 507.147942 274.64358 
L 513.165114 291.150852 
L 519.182285 308.837216 
L 525.199457 289.971761 
L 531.216629 321.807216 
L 537.233801 294.688125 
L 543.250972 293.509034 
L 549.268144 297.046307 
L 555.285316 286.434489 
L 561.302487 284.076307 
L 567.319659 298.225398 
L 573.336831 300.58358 
L 579.354003 311.195398 
L 585.371174 318.269943 
L 591.388346 317.090852 
L 597.405518 265.210852 
L 603.422689 292.329943 
L 609.439861 295.867216 
L 615.457033 294.688125 
L 621.474205 294.688125 
L 627.491376 315.911761 
L 633.508548 281.718125 
L 639.52572 318.269943 
L 645.542891 285.255398 
L 651.560063 285.255398 
L 657.577235 285.255398 
L 663.594407 295.867216 
L 669.611578 292.329943 
L 675.62875 311.195398 
" clip-path="url(#p93c1518a32)" style="fill: none; stroke: #ff7f0e; stroke-width: 1.5; stroke-linecap: square"/>
   </g>
   <g id="line2d_14">
    <path d="M 79.92875 236.91267 
L 85.945922 63.586307 
L 91.963093 338.314489 
L 97.980265 317.090852 
L 103.997437 346.568125 
L 110.014609 331.239943 
L 116.03178 344.209943 
L 122.048952 324.165398 
L 128.066124 325.344489 
L 134.083295 319.449034 
L 140.100467 307.658125 
L 146.117639 322.986307 
L 152.134811 340.67267 
L 158.151982 335.956307 
L 164.169154 318.269943 
L 170.186326 345.389034 
L 176.203497 354.821761 
L 182.220669 348.926307 
L 188.237841 333.598125 
L 194.255013 331.239943 
L 200.272184 328.881761 
L 206.289356 320.628125 
L 212.306528 324.165398 
L 218.323699 331.239943 
L 224.340871 320.628125 
L 230.358043 328.881761 
L 236.375215 295.867216 
L 242.392386 312.374489 
L 248.409558 328.881761 
L 254.42673 295.867216 
L 260.443902 319.449034 
L 266.461073 313.55358 
L 272.478245 281.718125 
L 278.495417 315.911761 
L 284.512588 308.837216 
L 290.52976 312.374489 
L 296.546932 327.70267 
L 302.564104 298.225398 
L 308.581275 313.55358 
L 314.598447 272.285398 
L 320.615619 299.404489 
L 326.63279 306.479034 
L 332.649962 305.299943 
L 338.667134 301.76267 
L 344.684306 315.911761 
L 350.701477 322.986307 
L 356.718649 319.449034 
L 362.735821 300.58358 
L 368.752992 305.299943 
L 374.770164 308.837216 
L 380.787336 301.76267 
L 386.804508 315.911761 
L 392.821679 300.58358 
L 398.838851 298.225398 
L 404.856023 357.179943 
L 410.873194 326.52358 
L 416.890366 312.374489 
L 422.907538 275.82267 
L 428.92471 324.165398 
L 434.941881 326.52358 
L 440.959053 325.344489 
L 446.976225 307.658125 
L 452.993396 328.881761 
L 459.010568 311.195398 
L 465.02774 307.658125 
L 471.044912 311.195398 
L 477.062083 308.837216 
L 483.079255 307.658125 
L 489.096427 324.165398 
L 495.113598 326.52358 
L 501.13077 325.344489 
L 507.147942 291.150852 
L 513.165114 281.718125 
L 519.182285 322.986307 
L 525.199457 310.016307 
L 531.216629 326.52358 
L 537.233801 300.58358 
L 543.250972 289.971761 
L 549.268144 273.464489 
L 555.285316 322.986307 
L 561.302487 322.986307 
L 567.319659 313.55358 
L 573.336831 345.389034 
L 579.354003 334.777216 
L 585.371174 308.837216 
L 591.388346 310.016307 
L 597.405518 306.479034 
L 603.422689 295.867216 
L 609.439861 294.688125 
L 615.457033 308.837216 
L 621.474205 291.150852 
L 627.491376 304.120852 
L 633.508548 341.851761 
L 639.52572 304.120852 
L 645.542891 314.73267 
L 651.560063 265.210852 
L 657.577235 334.777216 
L 663.594407 311.195398 
L 669.611578 326.52358 
L 675.62875 302.941761 
" clip-path="url(#p93c1518a32)" style="fill: none; stroke: #2ca02c; stroke-width: 1.5; stroke-linecap: square"/>
   </g>
   <g id="line2d_15">
    <path d="M 79.92875 281.718125 
L 85.945922 284.076307 
L 91.963093 310.016307 
L 97.980265 279.359943 
L 103.997437 271.106307 
L 110.014609 287.61358 
L 116.03178 302.941761 
L 122.048952 278.180852 
L 128.066124 301.76267 
L 134.083295 311.195398 
L 140.100467 284.076307 
L 146.117639 278.180852 
L 152.134811 287.61358 
L 158.151982 287.61358 
L 164.169154 312.374489 
L 170.186326 292.329943 
L 176.203497 306.479034 
L 182.220669 280.539034 
L 188.237841 317.090852 
L 194.255013 313.55358 
L 200.272184 299.404489 
L 206.289356 271.106307 
L 212.306528 306.479034 
L 218.323699 304.120852 
L 224.340871 318.269943 
L 230.358043 281.718125 
L 236.375215 291.150852 
L 242.392386 288.79267 
L 248.409558 295.867216 
L 254.42673 307.658125 
L 260.443902 289.971761 
L 266.461073 292.329943 
L 272.478245 320.628125 
L 278.495417 297.046307 
L 284.512588 285.255398 
L 290.52976 286.434489 
L 296.546932 288.79267 
L 302.564104 304.120852 
L 308.581275 301.76267 
L 314.598447 278.180852 
L 320.615619 300.58358 
L 326.63279 298.225398 
L 332.649962 299.404489 
L 338.667134 280.539034 
L 344.684306 294.688125 
L 350.701477 294.688125 
L 356.718649 306.479034 
L 362.735821 292.329943 
L 368.752992 301.76267 
L 374.770164 284.076307 
L 380.787336 307.658125 
L 386.804508 286.434489 
L 392.821679 295.867216 
L 398.838851 306.479034 
L 404.856023 333.598125 
L 410.873194 328.881761 
L 416.890366 300.58358 
L 422.907538 301.76267 
L 428.92471 334.777216 
L 434.941881 346.568125 
L 440.959053 306.479034 
L 446.976225 304.120852 
L 452.993396 317.090852 
L 459.010568 300.58358 
L 465.02774 295.867216 
L 471.044912 294.688125 
L 477.062083 312.374489 
L 483.079255 321.807216 
L 489.096427 346.568125 
L 495.113598 306.479034 
L 501.13077 297.046307 
L 507.147942 302.941761 
L 513.165114 306.479034 
L 519.182285 315.911761 
L 525.199457 307.658125 
L 531.216629 321.807216 
L 537.233801 307.658125 
L 543.250972 321.807216 
L 549.268144 305.299943 
L 555.285316 313.55358 
L 561.302487 299.404489 
L 567.319659 318.269943 
L 573.336831 291.150852 
L 579.354003 299.404489 
L 585.371174 280.539034 
L 591.388346 326.52358 
L 597.405518 307.658125 
L 603.422689 319.449034 
L 609.439861 331.239943 
L 615.457033 304.120852 
L 621.474205 307.658125 
L 627.491376 332.419034 
L 633.508548 328.881761 
L 639.52572 312.374489 
L 645.542891 319.449034 
L 651.560063 325.344489 
L 657.577235 300.58358 
L 663.594407 298.225398 
L 669.611578 320.628125 
L 675.62875 330.060852 
" clip-path="url(#p93c1518a32)" style="fill: none; stroke: #d62728; stroke-width: 1.5; stroke-linecap: square"/>
   </g>
   <g id="line2d_16">
    <path d="M 79.92875 144.94358 
L 85.945922 117.824489 
L 91.963093 205.077216 
L 97.980265 288.79267 
L 103.997437 300.58358 
L 110.014609 294.688125 
L 116.03178 294.688125 
L 122.048952 288.79267 
L 128.066124 299.404489 
L 134.083295 307.658125 
L 140.100467 289.971761 
L 146.117639 294.688125 
L 152.134811 235.73358 
L 158.151982 136.689943 
L 164.169154 89.526307 
L 170.186326 119.00358 
L 176.203497 214.509943 
L 182.220669 182.674489 
L 188.237841 234.554489 
L 194.255013 150.839034 
L 200.272184 157.91358 
L 206.289356 192.107216 
L 212.306528 189.749034 
L 218.323699 161.450852 
L 224.340871 198.00267 
L 230.358043 162.629943 
L 236.375215 206.256307 
L 242.392386 213.330852 
L 248.409558 246.345398 
L 254.42673 262.85267 
L 260.443902 229.838125 
L 266.461073 153.197216 
L 272.478245 180.316307 
L 278.495417 174.420852 
L 284.512588 192.107216 
L 290.52976 143.764489 
L 296.546932 141.406307 
L 302.564104 163.809034 
L 308.581275 134.331761 
L 314.598447 142.585398 
L 320.615619 168.525398 
L 326.63279 247.524489 
L 332.649962 157.91358 
L 338.667134 150.839034 
L 344.684306 114.287216 
L 350.701477 103.675398 
L 356.718649 266.389943 
L 362.735821 203.898125 
L 368.752992 156.734489 
L 374.770164 75.377216 
L 380.787336 60.049034 
L 386.804508 56.511761 
L 392.821679 52.974489 
L 398.838851 62.407216 
L 404.856023 69.481761 
L 410.873194 58.869943 
L 416.890366 58.869943 
L 422.907538 245.166307 
L 428.92471 266.389943 
L 434.941881 251.061761 
L 440.959053 144.94358 
L 446.976225 152.018125 
L 452.993396 68.30267 
L 459.010568 56.511761 
L 465.02774 43.541761 
L 471.044912 60.049034 
L 477.062083 48.258125 
L 483.079255 78.914489 
L 489.096427 62.407216 
L 495.113598 71.839943 
L 501.13077 78.914489 
L 507.147942 70.660852 
L 513.165114 95.421761 
L 519.182285 56.511761 
L 525.199457 64.765398 
L 531.216629 61.228125 
L 537.233801 78.914489 
L 543.250972 88.347216 
L 549.268144 71.839943 
L 555.285316 67.12358 
L 561.302487 54.15358 
L 567.319659 47.079034 
L 573.336831 56.511761 
L 579.354003 61.228125 
L 585.371174 103.675398 
L 591.388346 38.825398 
L 597.405518 52.974489 
L 603.422689 73.019034 
L 609.439861 103.675398 
L 615.457033 58.869943 
L 621.474205 45.899943 
L 627.491376 88.347216 
L 633.508548 94.24267 
L 639.52572 48.258125 
L 645.542891 63.586307 
L 651.560063 64.765398 
L 657.577235 67.12358 
L 663.594407 71.839943 
L 669.611578 50.616307 
L 675.62875 117.824489 
" clip-path="url(#p93c1518a32)" style="fill: none; stroke: #9467bd; stroke-width: 1.5; stroke-linecap: square"/>
   </g>
   <g id="patch_3">
    <path d="M 50.14375 385.478125 
L 50.14375 22.318125 
" style="fill: none; stroke: #000000; stroke-width: 0.8; stroke-linejoin: miter; stroke-linecap: square"/>
   </g>
   <g id="patch_4">
    <path d="M 705.41375 385.478125 
L 705.41375 22.318125 
" style="fill: none; stroke: #000000; stroke-width: 0.8; stroke-linejoin: miter; stroke-linecap: square"/>
   </g>
   <g id="patch_5">
    <path d="M 50.14375 385.478125 
L 705.41375 385.478125 
" style="fill: none; stroke: #000000; stroke-width: 0.8; stroke-linejoin: miter; stroke-linecap: square"/>
   </g>
   <g id="patch_6">
    <path d="M 50.14375 22.318125 
L 705.41375 22.318125 
" style="fill: none; stroke: #000000; stroke-width: 0.8; stroke-linejoin: miter; stroke-linecap: square"/>
   </g>
   <g id="text_14">
    <!-- Combined Train Accuracy -->
    <g transform="translate(301.694063 16.318125) scale(0.12 -0.12)">
     <defs>
      <path id="DejaVuSans-43" d="M 4122 4306 
L 4122 3641 
Q 3803 3938 3442 4084 
Q 3081 4231 2675 4231 
Q 1875 4231 1450 3742 
Q 1025 3253 1025 2328 
Q 1025 1406 1450 917 
Q 1875 428 2675 428 
Q 3081 428 3442 575 
Q 3803 722 4122 1019 
L 4122 359 
Q 3791 134 3420 21 
Q 3050 -91 2638 -91 
Q 1578 -91 968 557 
Q 359 1206 359 2328 
Q 359 3453 968 4101 
Q 1578 4750 2638 4750 
Q 3056 4750 3426 4639 
Q 3797 4528 4122 4306 
z
" transform="scale(0.015625)"/>
      <path id="DejaVuSans-6d" d="M 3328 2828 
Q 3544 3216 3844 3400 
Q 4144 3584 4550 3584 
Q 5097 3584 5394 3201 
Q 5691 2819 5691 2113 
L 5691 0 
L 5113 0 
L 5113 2094 
Q 5113 2597 4934 2840 
Q 4756 3084 4391 3084 
Q 3944 3084 3684 2787 
Q 3425 2491 3425 1978 
L 3425 0 
L 2847 0 
L 2847 2094 
Q 2847 2600 2669 2842 
Q 2491 3084 2119 3084 
Q 1678 3084 1418 2786 
Q 1159 2488 1159 1978 
L 1159 0 
L 581 0 
L 581 3500 
L 1159 3500 
L 1159 2956 
Q 1356 3278 1631 3431 
Q 1906 3584 2284 3584 
Q 2666 3584 2933 3390 
Q 3200 3197 3328 2828 
z
" transform="scale(0.015625)"/>
      <path id="DejaVuSans-62" d="M 3116 1747 
Q 3116 2381 2855 2742 
Q 2594 3103 2138 3103 
Q 1681 3103 1420 2742 
Q 1159 2381 1159 1747 
Q 1159 1113 1420 752 
Q 1681 391 2138 391 
Q 2594 391 2855 752 
Q 3116 1113 3116 1747 
z
M 1159 2969 
Q 1341 3281 1617 3432 
Q 1894 3584 2278 3584 
Q 2916 3584 3314 3078 
Q 3713 2572 3713 1747 
Q 3713 922 3314 415 
Q 2916 -91 2278 -91 
Q 1894 -91 1617 61 
Q 1341 213 1159 525 
L 1159 0 
L 581 0 
L 581 4863 
L 1159 4863 
L 1159 2969 
z
" transform="scale(0.015625)"/>
      <path id="DejaVuSans-65" d="M 3597 1894 
L 3597 1613 
L 953 1613 
Q 991 1019 1311 708 
Q 1631 397 2203 397 
Q 2534 397 2845 478 
Q 3156 559 3463 722 
L 3463 178 
Q 3153 47 2828 -22 
Q 2503 -91 2169 -91 
Q 1331 -91 842 396 
Q 353 884 353 1716 
Q 353 2575 817 3079 
Q 1281 3584 2069 3584 
Q 2775 3584 3186 3129 
Q 3597 2675 3597 1894 
z
M 3022 2063 
Q 3016 2534 2758 2815 
Q 2500 3097 2075 3097 
Q 1594 3097 1305 2825 
Q 1016 2553 972 2059 
L 3022 2063 
z
" transform="scale(0.015625)"/>
      <path id="DejaVuSans-64" d="M 2906 2969 
L 2906 4863 
L 3481 4863 
L 3481 0 
L 2906 0 
L 2906 525 
Q 2725 213 2448 61 
Q 2172 -91 1784 -91 
Q 1150 -91 751 415 
Q 353 922 353 1747 
Q 353 2572 751 3078 
Q 1150 3584 1784 3584 
Q 2172 3584 2448 3432 
Q 2725 3281 2906 2969 
z
M 947 1747 
Q 947 1113 1208 752 
Q 1469 391 1925 391 
Q 2381 391 2643 752 
Q 2906 1113 2906 1747 
Q 2906 2381 2643 2742 
Q 2381 3103 1925 3103 
Q 1469 3103 1208 2742 
Q 947 2381 947 1747 
z
" transform="scale(0.015625)"/>
     </defs>
     <use xlink:href="#DejaVuSans-43"/>
     <use xlink:href="#DejaVuSans-6f" transform="translate(69.824219 0)"/>
     <use xlink:href="#DejaVuSans-6d" transform="translate(131.005859 0)"/>
     <use xlink:href="#DejaVuSans-62" transform="translate(228.417969 0)"/>
     <use xlink:href="#DejaVuSans-69" transform="translate(291.894531 0)"/>
     <use xlink:href="#DejaVuSans-6e" transform="translate(319.677734 0)"/>
     <use xlink:href="#DejaVuSans-65" transform="translate(383.056641 0)"/>
     <use xlink:href="#DejaVuSans-64" transform="translate(444.580078 0)"/>
     <use xlink:href="#DejaVuSans-20" transform="translate(508.056641 0)"/>
     <use xlink:href="#DejaVuSans-54" transform="translate(539.84375 0)"/>
     <use xlink:href="#DejaVuSans-72" transform="translate(586.177734 0)"/>
     <use xlink:href="#DejaVuSans-61" transform="translate(627.291016 0)"/>
     <use xlink:href="#DejaVuSans-69" transform="translate(688.570312 0)"/>
     <use xlink:href="#DejaVuSans-6e" transform="translate(716.353516 0)"/>
     <use xlink:href="#DejaVuSans-20" transform="translate(779.732422 0)"/>
     <use xlink:href="#DejaVuSans-41" transform="translate(811.519531 0)"/>
     <use xlink:href="#DejaVuSans-63" transform="translate(878.177734 0)"/>
     <use xlink:href="#DejaVuSans-63" transform="translate(933.158203 0)"/>
     <use xlink:href="#DejaVuSans-75" transform="translate(988.138672 0)"/>
     <use xlink:href="#DejaVuSans-72" transform="translate(1051.517578 0)"/>
     <use xlink:href="#DejaVuSans-61" transform="translate(1092.630859 0)"/>
     <use xlink:href="#DejaVuSans-63" transform="translate(1153.910156 0)"/>
     <use xlink:href="#DejaVuSans-79" transform="translate(1208.890625 0)"/>
    </g>
   </g>
   <g id="legend_1">
    <g id="patch_7">
     <path d="M 636.23875 242.093437 
L 698.41375 242.093437 
Q 700.41375 242.093437 700.41375 240.093437 
L 700.41375 167.702812 
Q 700.41375 165.702812 698.41375 165.702812 
L 636.23875 165.702812 
Q 634.23875 165.702812 634.23875 167.702812 
L 634.23875 240.093437 
Q 634.23875 242.093437 636.23875 242.093437 
z
" style="fill: #ffffff; opacity: 0.8; stroke: #cccccc; stroke-linejoin: miter"/>
    </g>
    <g id="line2d_17">
     <path d="M 638.23875 173.80125 
L 648.23875 173.80125 
L 658.23875 173.80125 
" style="fill: none; stroke: #1f77b4; stroke-width: 1.5; stroke-linecap: square"/>
    </g>
    <g id="text_15">
     <!-- Fold 1 -->
     <g transform="translate(666.23875 177.30125) scale(0.1 -0.1)">
      <defs>
       <path id="DejaVuSans-46" d="M 628 4666 
L 3309 4666 
L 3309 4134 
L 1259 4134 
L 1259 2759 
L 3109 2759 
L 3109 2228 
L 1259 2228 
L 1259 0 
L 628 0 
L 628 4666 
z
" transform="scale(0.015625)"/>
       <path id="DejaVuSans-6c" d="M 603 4863 
L 1178 4863 
L 1178 0 
L 603 0 
L 603 4863 
z
" transform="scale(0.015625)"/>
      </defs>
      <use xlink:href="#DejaVuSans-46"/>
      <use xlink:href="#DejaVuSans-6f" transform="translate(53.894531 0)"/>
      <use xlink:href="#DejaVuSans-6c" transform="translate(115.076172 0)"/>
      <use xlink:href="#DejaVuSans-64" transform="translate(142.859375 0)"/>
      <use xlink:href="#DejaVuSans-20" transform="translate(206.335938 0)"/>
      <use xlink:href="#DejaVuSans-31" transform="translate(238.123047 0)"/>
     </g>
    </g>
    <g id="line2d_18">
     <path d="M 638.23875 188.479375 
L 648.23875 188.479375 
L 658.23875 188.479375 
" style="fill: none; stroke: #ff7f0e; stroke-width: 1.5; stroke-linecap: square"/>
    </g>
    <g id="text_16">
     <!-- Fold 2 -->
     <g transform="translate(666.23875 191.979375) scale(0.1 -0.1)">
      <use xlink:href="#DejaVuSans-46"/>
      <use xlink:href="#DejaVuSans-6f" transform="translate(53.894531 0)"/>
      <use xlink:href="#DejaVuSans-6c" transform="translate(115.076172 0)"/>
      <use xlink:href="#DejaVuSans-64" transform="translate(142.859375 0)"/>
      <use xlink:href="#DejaVuSans-20" transform="translate(206.335938 0)"/>
      <use xlink:href="#DejaVuSans-32" transform="translate(238.123047 0)"/>
     </g>
    </g>
    <g id="line2d_19">
     <path d="M 638.23875 203.1575 
L 648.23875 203.1575 
L 658.23875 203.1575 
" style="fill: none; stroke: #2ca02c; stroke-width: 1.5; stroke-linecap: square"/>
    </g>
    <g id="text_17">
     <!-- Fold 3 -->
     <g transform="translate(666.23875 206.6575) scale(0.1 -0.1)">
      <use xlink:href="#DejaVuSans-46"/>
      <use xlink:href="#DejaVuSans-6f" transform="translate(53.894531 0)"/>
      <use xlink:href="#DejaVuSans-6c" transform="translate(115.076172 0)"/>
      <use xlink:href="#DejaVuSans-64" transform="translate(142.859375 0)"/>
      <use xlink:href="#DejaVuSans-20" transform="translate(206.335938 0)"/>
      <use xlink:href="#DejaVuSans-33" transform="translate(238.123047 0)"/>
     </g>
    </g>
    <g id="line2d_20">
     <path d="M 638.23875 217.835625 
L 648.23875 217.835625 
L 658.23875 217.835625 
" style="fill: none; stroke: #d62728; stroke-width: 1.5; stroke-linecap: square"/>
    </g>
    <g id="text_18">
     <!-- Fold 4 -->
     <g transform="translate(666.23875 221.335625) scale(0.1 -0.1)">
      <use xlink:href="#DejaVuSans-46"/>
      <use xlink:href="#DejaVuSans-6f" transform="translate(53.894531 0)"/>
      <use xlink:href="#DejaVuSans-6c" transform="translate(115.076172 0)"/>
      <use xlink:href="#DejaVuSans-64" transform="translate(142.859375 0)"/>
      <use xlink:href="#DejaVuSans-20" transform="translate(206.335938 0)"/>
      <use xlink:href="#DejaVuSans-34" transform="translate(238.123047 0)"/>
     </g>
    </g>
    <g id="line2d_21">
     <path d="M 638.23875 232.51375 
L 648.23875 232.51375 
L 658.23875 232.51375 
" style="fill: none; stroke: #9467bd; stroke-width: 1.5; stroke-linecap: square"/>
    </g>
    <g id="text_19">
     <!-- Fold 5 -->
     <g transform="translate(666.23875 236.01375) scale(0.1 -0.1)">
      <use xlink:href="#DejaVuSans-46"/>
      <use xlink:href="#DejaVuSans-6f" transform="translate(53.894531 0)"/>
      <use xlink:href="#DejaVuSans-6c" transform="translate(115.076172 0)"/>
      <use xlink:href="#DejaVuSans-64" transform="translate(142.859375 0)"/>
      <use xlink:href="#DejaVuSans-20" transform="translate(206.335938 0)"/>
      <use xlink:href="#DejaVuSans-35" transform="translate(238.123047 0)"/>
     </g>
    </g>
   </g>
  </g>
 </g>
 <defs>
  <clipPath id="p93c1518a32">
   <rect x="50.14375" y="22.318125" width="655.27" height="363.16"/>
  </clipPath>
 </defs>
</svg>
