<?xml version="1.0" encoding="utf-8" standalone="no"?>
<!DOCTYPE svg PUBLIC "-//W3C//DTD SVG 1.1//EN"
  "http://www.w3.org/Graphics/SVG/1.1/DTD/svg11.dtd">
<svg xmlns:xlink="http://www.w3.org/1999/xlink" width="712.37125pt" height="423.034375pt" viewBox="0 0 712.37125 423.034375" xmlns="http://www.w3.org/2000/svg" version="1.1">
 <metadata>
  <rdf:RDF xmlns:dc="http://purl.org/dc/elements/1.1/" xmlns:cc="http://creativecommons.org/ns#" xmlns:rdf="http://www.w3.org/1999/02/22-rdf-syntax-ns#">
   <cc:Work>
    <dc:type rdf:resource="http://purl.org/dc/dcmitype/StillImage"/>
    <dc:date>2025-06-27T22:54:55.411963</dc:date>
    <dc:format>image/svg+xml</dc:format>
    <dc:creator>
     <cc:Agent>
      <dc:title>Matplotlib v3.10.0, https://matplotlib.org/</dc:title>
     </cc:Agent>
    </dc:creator>
   </cc:Work>
  </rdf:RDF>
 </metadata>
 <defs>
  <style type="text/css">*{stroke-linejoin: round; stroke-linecap: butt}</style>
 </defs>
 <g id="figure_1">
  <g id="patch_1">
   <path d="M 0 423.034375 
L 712.37125 423.034375 
L 712.37125 0 
L 0 0 
z
" style="fill: #ffffff"/>
  </g>
  <g id="axes_1">
   <g id="patch_2">
    <path d="M 43.78125 385.478125 
L 705.17125 385.478125 
L 705.17125 22.318125 
L 43.78125 22.318125 
z
" style="fill: #ffffff"/>
   </g>
   <g id="matplotlib.axis_1">
    <g id="xtick_1">
     <g id="line2d_1">
      <defs>
       <path id="m364425fc91" d="M 0 0 
L 0 3.5 
" style="stroke: #000000; stroke-width: 0.8"/>
      </defs>
      <g>
       <use xlink:href="#m364425fc91" x="67.771062" y="385.478125" style="stroke: #000000; stroke-width: 0.8"/>
      </g>
     </g>
     <g id="text_1">
      <!-- 0 -->
      <g transform="translate(64.589812 400.076562) scale(0.1 -0.1)">
       <defs>
        <path id="DejaVuSans-30" d="M 2034 4250 
Q 1547 4250 1301 3770 
Q 1056 3291 1056 2328 
Q 1056 1369 1301 889 
Q 1547 409 2034 409 
Q 2525 409 2770 889 
Q 3016 1369 3016 2328 
Q 3016 3291 2770 3770 
Q 2525 4250 2034 4250 
z
M 2034 4750 
Q 2819 4750 3233 4129 
Q 3647 3509 3647 2328 
Q 3647 1150 3233 529 
Q 2819 -91 2034 -91 
Q 1250 -91 836 529 
Q 422 1150 422 2328 
Q 422 3509 836 4129 
Q 1250 4750 2034 4750 
z
" transform="scale(0.015625)"/>
       </defs>
       <use xlink:href="#DejaVuSans-30"/>
      </g>
     </g>
    </g>
    <g id="xtick_2">
     <g id="line2d_2">
      <g>
       <use xlink:href="#m364425fc91" x="189.238463" y="385.478125" style="stroke: #000000; stroke-width: 0.8"/>
      </g>
     </g>
     <g id="text_2">
      <!-- 20 -->
      <g transform="translate(182.875963 400.076562) scale(0.1 -0.1)">
       <defs>
        <path id="DejaVuSans-32" d="M 1228 531 
L 3431 531 
L 3431 0 
L 469 0 
L 469 531 
Q 828 903 1448 1529 
Q 2069 2156 2228 2338 
Q 2531 2678 2651 2914 
Q 2772 3150 2772 3378 
Q 2772 3750 2511 3984 
Q 2250 4219 1831 4219 
Q 1534 4219 1204 4116 
Q 875 4013 500 3803 
L 500 4441 
Q 881 4594 1212 4672 
Q 1544 4750 1819 4750 
Q 2544 4750 2975 4387 
Q 3406 4025 3406 3419 
Q 3406 3131 3298 2873 
Q 3191 2616 2906 2266 
Q 2828 2175 2409 1742 
Q 1991 1309 1228 531 
z
" transform="scale(0.015625)"/>
       </defs>
       <use xlink:href="#DejaVuSans-32"/>
       <use xlink:href="#DejaVuSans-30" transform="translate(63.623047 0)"/>
      </g>
     </g>
    </g>
    <g id="xtick_3">
     <g id="line2d_3">
      <g>
       <use xlink:href="#m364425fc91" x="310.705864" y="385.478125" style="stroke: #000000; stroke-width: 0.8"/>
      </g>
     </g>
     <g id="text_3">
      <!-- 40 -->
      <g transform="translate(304.343364 400.076562) scale(0.1 -0.1)">
       <defs>
        <path id="DejaVuSans-34" d="M 2419 4116 
L 825 1625 
L 2419 1625 
L 2419 4116 
z
M 2253 4666 
L 3047 4666 
L 3047 1625 
L 3713 1625 
L 3713 1100 
L 3047 1100 
L 3047 0 
L 2419 0 
L 2419 1100 
L 313 1100 
L 313 1709 
L 2253 4666 
z
" transform="scale(0.015625)"/>
       </defs>
       <use xlink:href="#DejaVuSans-34"/>
       <use xlink:href="#DejaVuSans-30" transform="translate(63.623047 0)"/>
      </g>
     </g>
    </g>
    <g id="xtick_4">
     <g id="line2d_4">
      <g>
       <use xlink:href="#m364425fc91" x="432.173266" y="385.478125" style="stroke: #000000; stroke-width: 0.8"/>
      </g>
     </g>
     <g id="text_4">
      <!-- 60 -->
      <g transform="translate(425.810766 400.076562) scale(0.1 -0.1)">
       <defs>
        <path id="DejaVuSans-36" d="M 2113 2584 
Q 1688 2584 1439 2293 
Q 1191 2003 1191 1497 
Q 1191 994 1439 701 
Q 1688 409 2113 409 
Q 2538 409 2786 701 
Q 3034 994 3034 1497 
Q 3034 2003 2786 2293 
Q 2538 2584 2113 2584 
z
M 3366 4563 
L 3366 3988 
Q 3128 4100 2886 4159 
Q 2644 4219 2406 4219 
Q 1781 4219 1451 3797 
Q 1122 3375 1075 2522 
Q 1259 2794 1537 2939 
Q 1816 3084 2150 3084 
Q 2853 3084 3261 2657 
Q 3669 2231 3669 1497 
Q 3669 778 3244 343 
Q 2819 -91 2113 -91 
Q 1303 -91 875 529 
Q 447 1150 447 2328 
Q 447 3434 972 4092 
Q 1497 4750 2381 4750 
Q 2619 4750 2861 4703 
Q 3103 4656 3366 4563 
z
" transform="scale(0.015625)"/>
       </defs>
       <use xlink:href="#DejaVuSans-36"/>
       <use xlink:href="#DejaVuSans-30" transform="translate(63.623047 0)"/>
      </g>
     </g>
    </g>
    <g id="xtick_5">
     <g id="line2d_5">
      <g>
       <use xlink:href="#m364425fc91" x="553.640667" y="385.478125" style="stroke: #000000; stroke-width: 0.8"/>
      </g>
     </g>
     <g id="text_5">
      <!-- 80 -->
      <g transform="translate(547.278167 400.076562) scale(0.1 -0.1)">
       <defs>
        <path id="DejaVuSans-38" d="M 2034 2216 
Q 1584 2216 1326 1975 
Q 1069 1734 1069 1313 
Q 1069 891 1326 650 
Q 1584 409 2034 409 
Q 2484 409 2743 651 
Q 3003 894 3003 1313 
Q 3003 1734 2745 1975 
Q 2488 2216 2034 2216 
z
M 1403 2484 
Q 997 2584 770 2862 
Q 544 3141 544 3541 
Q 544 4100 942 4425 
Q 1341 4750 2034 4750 
Q 2731 4750 3128 4425 
Q 3525 4100 3525 3541 
Q 3525 3141 3298 2862 
Q 3072 2584 2669 2484 
Q 3125 2378 3379 2068 
Q 3634 1759 3634 1313 
Q 3634 634 3220 271 
Q 2806 -91 2034 -91 
Q 1263 -91 848 271 
Q 434 634 434 1313 
Q 434 1759 690 2068 
Q 947 2378 1403 2484 
z
M 1172 3481 
Q 1172 3119 1398 2916 
Q 1625 2713 2034 2713 
Q 2441 2713 2670 2916 
Q 2900 3119 2900 3481 
Q 2900 3844 2670 4047 
Q 2441 4250 2034 4250 
Q 1625 4250 1398 4047 
Q 1172 3844 1172 3481 
z
" transform="scale(0.015625)"/>
       </defs>
       <use xlink:href="#DejaVuSans-38"/>
       <use xlink:href="#DejaVuSans-30" transform="translate(63.623047 0)"/>
      </g>
     </g>
    </g>
    <g id="xtick_6">
     <g id="line2d_6">
      <g>
       <use xlink:href="#m364425fc91" x="675.108068" y="385.478125" style="stroke: #000000; stroke-width: 0.8"/>
      </g>
     </g>
     <g id="text_6">
      <!-- 100 -->
      <g transform="translate(665.564318 400.076562) scale(0.1 -0.1)">
       <defs>
        <path id="DejaVuSans-31" d="M 794 531 
L 1825 531 
L 1825 4091 
L 703 3866 
L 703 4441 
L 1819 4666 
L 2450 4666 
L 2450 531 
L 3481 531 
L 3481 0 
L 794 0 
L 794 531 
z
" transform="scale(0.015625)"/>
       </defs>
       <use xlink:href="#DejaVuSans-31"/>
       <use xlink:href="#DejaVuSans-30" transform="translate(63.623047 0)"/>
       <use xlink:href="#DejaVuSans-30" transform="translate(127.246094 0)"/>
      </g>
     </g>
    </g>
    <g id="text_7">
     <!-- Epoch -->
     <g transform="translate(359.165313 413.754687) scale(0.1 -0.1)">
      <defs>
       <path id="DejaVuSans-45" d="M 628 4666 
L 3578 4666 
L 3578 4134 
L 1259 4134 
L 1259 2753 
L 3481 2753 
L 3481 2222 
L 1259 2222 
L 1259 531 
L 3634 531 
L 3634 0 
L 628 0 
L 628 4666 
z
" transform="scale(0.015625)"/>
       <path id="DejaVuSans-70" d="M 1159 525 
L 1159 -1331 
L 581 -1331 
L 581 3500 
L 1159 3500 
L 1159 2969 
Q 1341 3281 1617 3432 
Q 1894 3584 2278 3584 
Q 2916 3584 3314 3078 
Q 3713 2572 3713 1747 
Q 3713 922 3314 415 
Q 2916 -91 2278 -91 
Q 1894 -91 1617 61 
Q 1341 213 1159 525 
z
M 3116 1747 
Q 3116 2381 2855 2742 
Q 2594 3103 2138 3103 
Q 1681 3103 1420 2742 
Q 1159 2381 1159 1747 
Q 1159 1113 1420 752 
Q 1681 391 2138 391 
Q 2594 391 2855 752 
Q 3116 1113 3116 1747 
z
" transform="scale(0.015625)"/>
       <path id="DejaVuSans-6f" d="M 1959 3097 
Q 1497 3097 1228 2736 
Q 959 2375 959 1747 
Q 959 1119 1226 758 
Q 1494 397 1959 397 
Q 2419 397 2687 759 
Q 2956 1122 2956 1747 
Q 2956 2369 2687 2733 
Q 2419 3097 1959 3097 
z
M 1959 3584 
Q 2709 3584 3137 3096 
Q 3566 2609 3566 1747 
Q 3566 888 3137 398 
Q 2709 -91 1959 -91 
Q 1206 -91 779 398 
Q 353 888 353 1747 
Q 353 2609 779 3096 
Q 1206 3584 1959 3584 
z
" transform="scale(0.015625)"/>
       <path id="DejaVuSans-63" d="M 3122 3366 
L 3122 2828 
Q 2878 2963 2633 3030 
Q 2388 3097 2138 3097 
Q 1578 3097 1268 2742 
Q 959 2388 959 1747 
Q 959 1106 1268 751 
Q 1578 397 2138 397 
Q 2388 397 2633 464 
Q 2878 531 3122 666 
L 3122 134 
Q 2881 22 2623 -34 
Q 2366 -91 2075 -91 
Q 1284 -91 818 406 
Q 353 903 353 1747 
Q 353 2603 823 3093 
Q 1294 3584 2113 3584 
Q 2378 3584 2631 3529 
Q 2884 3475 3122 3366 
z
" transform="scale(0.015625)"/>
       <path id="DejaVuSans-68" d="M 3513 2113 
L 3513 0 
L 2938 0 
L 2938 2094 
Q 2938 2591 2744 2837 
Q 2550 3084 2163 3084 
Q 1697 3084 1428 2787 
Q 1159 2491 1159 1978 
L 1159 0 
L 581 0 
L 581 4863 
L 1159 4863 
L 1159 2956 
Q 1366 3272 1645 3428 
Q 1925 3584 2291 3584 
Q 2894 3584 3203 3211 
Q 3513 2838 3513 2113 
z
" transform="scale(0.015625)"/>
      </defs>
      <use xlink:href="#DejaVuSans-45"/>
      <use xlink:href="#DejaVuSans-70" transform="translate(63.183594 0)"/>
      <use xlink:href="#DejaVuSans-6f" transform="translate(126.660156 0)"/>
      <use xlink:href="#DejaVuSans-63" transform="translate(187.841797 0)"/>
      <use xlink:href="#DejaVuSans-68" transform="translate(242.822266 0)"/>
     </g>
    </g>
   </g>
   <g id="matplotlib.axis_2">
    <g id="ytick_1">
     <g id="line2d_7">
      <defs>
       <path id="mcda3b94adf" d="M 0 0 
L -3.5 0 
" style="stroke: #000000; stroke-width: 0.8"/>
      </defs>
      <g>
       <use xlink:href="#mcda3b94adf" x="43.78125" y="343.703062" style="stroke: #000000; stroke-width: 0.8"/>
      </g>
     </g>
     <g id="text_8">
      <!-- 0.8 -->
      <g transform="translate(20.878125 347.50228) scale(0.1 -0.1)">
       <defs>
        <path id="DejaVuSans-2e" d="M 684 794 
L 1344 794 
L 1344 0 
L 684 0 
L 684 794 
z
" transform="scale(0.015625)"/>
       </defs>
       <use xlink:href="#DejaVuSans-30"/>
       <use xlink:href="#DejaVuSans-2e" transform="translate(63.623047 0)"/>
       <use xlink:href="#DejaVuSans-38" transform="translate(95.410156 0)"/>
      </g>
     </g>
    </g>
    <g id="ytick_2">
     <g id="line2d_8">
      <g>
       <use xlink:href="#mcda3b94adf" x="43.78125" y="283.920466" style="stroke: #000000; stroke-width: 0.8"/>
      </g>
     </g>
     <g id="text_9">
      <!-- 1.0 -->
      <g transform="translate(20.878125 287.719685) scale(0.1 -0.1)">
       <use xlink:href="#DejaVuSans-31"/>
       <use xlink:href="#DejaVuSans-2e" transform="translate(63.623047 0)"/>
       <use xlink:href="#DejaVuSans-30" transform="translate(95.410156 0)"/>
      </g>
     </g>
    </g>
    <g id="ytick_3">
     <g id="line2d_9">
      <g>
       <use xlink:href="#mcda3b94adf" x="43.78125" y="224.13787" style="stroke: #000000; stroke-width: 0.8"/>
      </g>
     </g>
     <g id="text_10">
      <!-- 1.2 -->
      <g transform="translate(20.878125 227.937089) scale(0.1 -0.1)">
       <use xlink:href="#DejaVuSans-31"/>
       <use xlink:href="#DejaVuSans-2e" transform="translate(63.623047 0)"/>
       <use xlink:href="#DejaVuSans-32" transform="translate(95.410156 0)"/>
      </g>
     </g>
    </g>
    <g id="ytick_4">
     <g id="line2d_10">
      <g>
       <use xlink:href="#mcda3b94adf" x="43.78125" y="164.355274" style="stroke: #000000; stroke-width: 0.8"/>
      </g>
     </g>
     <g id="text_11">
      <!-- 1.4 -->
      <g transform="translate(20.878125 168.154493) scale(0.1 -0.1)">
       <use xlink:href="#DejaVuSans-31"/>
       <use xlink:href="#DejaVuSans-2e" transform="translate(63.623047 0)"/>
       <use xlink:href="#DejaVuSans-34" transform="translate(95.410156 0)"/>
      </g>
     </g>
    </g>
    <g id="ytick_5">
     <g id="line2d_11">
      <g>
       <use xlink:href="#mcda3b94adf" x="43.78125" y="104.572678" style="stroke: #000000; stroke-width: 0.8"/>
      </g>
     </g>
     <g id="text_12">
      <!-- 1.6 -->
      <g transform="translate(20.878125 108.371897) scale(0.1 -0.1)">
       <use xlink:href="#DejaVuSans-31"/>
       <use xlink:href="#DejaVuSans-2e" transform="translate(63.623047 0)"/>
       <use xlink:href="#DejaVuSans-36" transform="translate(95.410156 0)"/>
      </g>
     </g>
    </g>
    <g id="ytick_6">
     <g id="line2d_12">
      <g>
       <use xlink:href="#mcda3b94adf" x="43.78125" y="44.790083" style="stroke: #000000; stroke-width: 0.8"/>
      </g>
     </g>
     <g id="text_13">
      <!-- 1.8 -->
      <g transform="translate(20.878125 48.589301) scale(0.1 -0.1)">
       <use xlink:href="#DejaVuSans-31"/>
       <use xlink:href="#DejaVuSans-2e" transform="translate(63.623047 0)"/>
       <use xlink:href="#DejaVuSans-38" transform="translate(95.410156 0)"/>
      </g>
     </g>
    </g>
    <g id="text_14">
     <!-- Train Loss -->
     <g transform="translate(14.798438 228.448125) rotate(-90) scale(0.1 -0.1)">
      <defs>
       <path id="DejaVuSans-54" d="M -19 4666 
L 3928 4666 
L 3928 4134 
L 2272 4134 
L 2272 0 
L 1638 0 
L 1638 4134 
L -19 4134 
L -19 4666 
z
" transform="scale(0.015625)"/>
       <path id="DejaVuSans-72" d="M 2631 2963 
Q 2534 3019 2420 3045 
Q 2306 3072 2169 3072 
Q 1681 3072 1420 2755 
Q 1159 2438 1159 1844 
L 1159 0 
L 581 0 
L 581 3500 
L 1159 3500 
L 1159 2956 
Q 1341 3275 1631 3429 
Q 1922 3584 2338 3584 
Q 2397 3584 2469 3576 
Q 2541 3569 2628 3553 
L 2631 2963 
z
" transform="scale(0.015625)"/>
       <path id="DejaVuSans-61" d="M 2194 1759 
Q 1497 1759 1228 1600 
Q 959 1441 959 1056 
Q 959 750 1161 570 
Q 1363 391 1709 391 
Q 2188 391 2477 730 
Q 2766 1069 2766 1631 
L 2766 1759 
L 2194 1759 
z
M 3341 1997 
L 3341 0 
L 2766 0 
L 2766 531 
Q 2569 213 2275 61 
Q 1981 -91 1556 -91 
Q 1019 -91 701 211 
Q 384 513 384 1019 
Q 384 1609 779 1909 
Q 1175 2209 1959 2209 
L 2766 2209 
L 2766 2266 
Q 2766 2663 2505 2880 
Q 2244 3097 1772 3097 
Q 1472 3097 1187 3025 
Q 903 2953 641 2809 
L 641 3341 
Q 956 3463 1253 3523 
Q 1550 3584 1831 3584 
Q 2591 3584 2966 3190 
Q 3341 2797 3341 1997 
z
" transform="scale(0.015625)"/>
       <path id="DejaVuSans-69" d="M 603 3500 
L 1178 3500 
L 1178 0 
L 603 0 
L 603 3500 
z
M 603 4863 
L 1178 4863 
L 1178 4134 
L 603 4134 
L 603 4863 
z
" transform="scale(0.015625)"/>
       <path id="DejaVuSans-6e" d="M 3513 2113 
L 3513 0 
L 2938 0 
L 2938 2094 
Q 2938 2591 2744 2837 
Q 2550 3084 2163 3084 
Q 1697 3084 1428 2787 
Q 1159 2491 1159 1978 
L 1159 0 
L 581 0 
L 581 3500 
L 1159 3500 
L 1159 2956 
Q 1366 3272 1645 3428 
Q 1925 3584 2291 3584 
Q 2894 3584 3203 3211 
Q 3513 2838 3513 2113 
z
" transform="scale(0.015625)"/>
       <path id="DejaVuSans-20" transform="scale(0.015625)"/>
       <path id="DejaVuSans-4c" d="M 628 4666 
L 1259 4666 
L 1259 531 
L 3531 531 
L 3531 0 
L 628 0 
L 628 4666 
z
" transform="scale(0.015625)"/>
       <path id="DejaVuSans-73" d="M 2834 3397 
L 2834 2853 
Q 2591 2978 2328 3040 
Q 2066 3103 1784 3103 
Q 1356 3103 1142 2972 
Q 928 2841 928 2578 
Q 928 2378 1081 2264 
Q 1234 2150 1697 2047 
L 1894 2003 
Q 2506 1872 2764 1633 
Q 3022 1394 3022 966 
Q 3022 478 2636 193 
Q 2250 -91 1575 -91 
Q 1294 -91 989 -36 
Q 684 19 347 128 
L 347 722 
Q 666 556 975 473 
Q 1284 391 1588 391 
Q 1994 391 2212 530 
Q 2431 669 2431 922 
Q 2431 1156 2273 1281 
Q 2116 1406 1581 1522 
L 1381 1569 
Q 847 1681 609 1914 
Q 372 2147 372 2553 
Q 372 3047 722 3315 
Q 1072 3584 1716 3584 
Q 2034 3584 2315 3537 
Q 2597 3491 2834 3397 
z
" transform="scale(0.015625)"/>
      </defs>
      <use xlink:href="#DejaVuSans-54"/>
      <use xlink:href="#DejaVuSans-72" transform="translate(46.333984 0)"/>
      <use xlink:href="#DejaVuSans-61" transform="translate(87.447266 0)"/>
      <use xlink:href="#DejaVuSans-69" transform="translate(148.726562 0)"/>
      <use xlink:href="#DejaVuSans-6e" transform="translate(176.509766 0)"/>
      <use xlink:href="#DejaVuSans-20" transform="translate(239.888672 0)"/>
      <use xlink:href="#DejaVuSans-4c" transform="translate(271.675781 0)"/>
      <use xlink:href="#DejaVuSans-6f" transform="translate(325.638672 0)"/>
      <use xlink:href="#DejaVuSans-73" transform="translate(386.820312 0)"/>
      <use xlink:href="#DejaVuSans-73" transform="translate(438.919922 0)"/>
     </g>
    </g>
   </g>
   <g id="line2d_13">
    <path d="M 73.844432 38.825398 
L 79.917802 41.534353 
L 85.991172 43.573385 
L 92.064542 47.031408 
L 98.137912 49.467183 
L 104.211282 54.620266 
L 110.284652 65.593464 
L 116.358022 84.615227 
L 122.431392 103.372451 
L 128.504762 124.402009 
L 134.578132 144.688381 
L 140.651503 158.470717 
L 146.724873 172.011367 
L 152.798243 185.902656 
L 158.871613 190.600848 
L 164.944983 196.75944 
L 171.018353 205.816231 
L 177.091723 211.779674 
L 183.165093 218.935329 
L 189.238463 220.986776 
L 195.311833 228.639834 
L 201.385203 231.941735 
L 207.458573 234.981227 
L 213.531943 237.765187 
L 219.605313 240.054811 
L 225.678683 244.922489 
L 231.752053 251.028014 
L 237.825424 256.648514 
L 243.898794 262.58536 
L 249.972164 264.822638 
L 256.045534 271.19443 
L 262.118904 273.802427 
L 268.192274 277.515661 
L 274.265644 279.777142 
L 280.339014 286.561119 
L 286.412384 288.830588 
L 292.485754 293.581868 
L 298.559124 289.590233 
L 304.632494 294.875373 
L 310.705864 299.795581 
L 316.779234 300.94853 
L 322.852604 302.551656 
L 328.925975 303.406877 
L 334.999345 303.605227 
L 341.072715 308.974762 
L 347.146085 307.137872 
L 353.219455 311.559429 
L 359.292825 312.522737 
L 365.366195 313.818987 
L 371.439565 316.142063 
L 377.512935 315.940462 
L 383.586305 315.080093 
L 389.659675 314.600022 
L 395.733045 316.280309 
L 401.806415 322.509659 
L 407.879785 322.900086 
L 413.953155 320.08428 
L 420.026525 326.72879 
L 426.099896 327.572262 
L 432.173266 323.921309 
L 438.246636 323.607624 
L 444.320006 325.208148 
L 450.393376 327.682378 
L 456.466746 322.870707 
L 462.540116 325.339124 
L 468.613486 332.015499 
L 474.686856 326.932062 
L 480.760226 329.713776 
L 486.833596 331.017982 
L 492.906966 332.475111 
L 498.980336 333.050044 
L 505.053706 334.096041 
L 511.127076 335.333103 
L 517.200447 334.92377 
L 523.273817 334.380615 
L 529.347187 333.015949 
L 535.420557 336.405519 
L 541.493927 339.496924 
L 547.567297 340.879879 
L 553.640667 341.723146 
L 559.714037 341.157488 
L 565.787407 336.97589 
L 571.860777 341.580937 
L 577.934147 339.20726 
L 584.007517 338.631123 
L 590.080887 344.191865 
L 596.154257 343.006996 
L 602.227627 344.163076 
L 608.300997 345.852222 
L 614.374368 342.43136 
L 620.447738 345.177586 
L 626.521108 346.606232 
L 632.594478 347.368921 
L 638.667848 349.303159 
L 644.741218 351.994569 
L 650.814588 346.143143 
L 656.887958 346.903927 
L 662.961328 347.649416 
L 669.034698 348.121928 
L 675.108068 347.817656 
" clip-path="url(#p185b46fc7f)" style="fill: none; stroke: #1f77b4; stroke-width: 1.5; stroke-linecap: square"/>
   </g>
   <g id="line2d_14">
    <path d="M 73.844432 48.737986 
L 79.917802 50.048581 
L 85.991172 51.72912 
L 92.064542 53.09997 
L 98.137912 55.680764 
L 104.211282 59.425976 
L 110.284652 66.908649 
L 116.358022 85.882342 
L 122.431392 115.642295 
L 128.504762 136.578748 
L 134.578132 151.164786 
L 140.651503 161.215114 
L 146.724873 168.05413 
L 152.798243 175.257375 
L 158.871613 180.119574 
L 164.944983 185.473395 
L 171.018353 189.435804 
L 177.091723 193.570375 
L 183.165093 195.356598 
L 189.238463 201.193134 
L 195.311833 203.63971 
L 201.385203 208.750338 
L 207.458573 209.573237 
L 213.531943 214.464983 
L 219.605313 220.067357 
L 225.678683 224.904168 
L 231.752053 229.954714 
L 237.825424 232.573897 
L 243.898794 234.396351 
L 249.972164 241.906814 
L 256.045534 244.785958 
L 262.118904 247.873932 
L 268.192274 253.910564 
L 274.265644 257.763407 
L 280.339014 257.325883 
L 286.412384 265.914422 
L 292.485754 267.572142 
L 298.559124 267.483114 
L 304.632494 269.790848 
L 310.705864 274.214739 
L 316.779234 277.480693 
L 322.852604 279.913015 
L 328.925975 284.334131 
L 334.999345 283.422707 
L 341.072715 283.396907 
L 347.146085 288.365372 
L 353.219455 291.683425 
L 359.292825 293.213556 
L 365.366195 292.777203 
L 371.439565 295.990693 
L 377.512935 296.550522 
L 383.586305 297.977311 
L 389.659675 298.416756 
L 395.733045 299.594311 
L 401.806415 302.93432 
L 407.879785 302.509727 
L 413.953155 305.891013 
L 420.026525 309.428555 
L 426.099896 306.15218 
L 432.173266 306.340425 
L 438.246636 308.537618 
L 444.320006 307.700794 
L 450.393376 312.259396 
L 456.466746 313.137553 
L 462.540116 313.747117 
L 468.613486 315.817484 
L 474.686856 313.42184 
L 480.760226 314.569659 
L 486.833596 317.270821 
L 492.906966 316.424207 
L 498.980336 318.037135 
L 505.053706 320.064257 
L 511.127076 317.696906 
L 517.200447 317.709733 
L 523.273817 323.893859 
L 529.347187 325.126026 
L 535.420557 324.614341 
L 541.493927 324.077407 
L 547.567297 323.680697 
L 553.640667 324.317443 
L 559.714037 327.52315 
L 565.787407 327.686489 
L 571.860777 329.027476 
L 577.934147 332.435195 
L 584.007517 333.598953 
L 590.080887 333.562195 
L 596.154257 336.492822 
L 602.227627 332.003039 
L 608.300997 334.794802 
L 614.374368 333.794115 
L 620.447738 336.92872 
L 626.521108 337.787613 
L 632.594478 338.275714 
L 638.667848 341.756142 
L 644.741218 339.305779 
L 650.814588 340.564835 
L 656.887958 338.953826 
L 662.961328 340.062795 
L 669.034698 340.642888 
L 675.108068 342.921402 
" clip-path="url(#p185b46fc7f)" style="fill: none; stroke: #ff7f0e; stroke-width: 1.5; stroke-linecap: square"/>
   </g>
   <g id="line2d_15">
    <path d="M 73.844432 42.841167 
L 79.917802 45.286201 
L 85.991172 48.094715 
L 92.064542 51.179826 
L 98.137912 53.558875 
L 104.211282 57.342563 
L 110.284652 65.583039 
L 116.358022 79.806871 
L 122.431392 100.414391 
L 128.504762 120.447283 
L 134.578132 140.530683 
L 140.651503 155.096652 
L 146.724873 171.718066 
L 152.798243 183.492973 
L 158.871613 196.051363 
L 164.944983 206.929102 
L 171.018353 214.476307 
L 177.091723 218.62142 
L 183.165093 225.487777 
L 189.238463 231.284341 
L 195.311833 235.636761 
L 201.385203 240.56866 
L 207.458573 247.158496 
L 213.531943 251.516938 
L 219.605313 252.536514 
L 225.678683 256.630653 
L 231.752053 260.341947 
L 237.825424 264.379591 
L 243.898794 264.546338 
L 249.972164 270.554541 
L 256.045534 274.388291 
L 262.118904 273.563168 
L 268.192274 282.539309 
L 274.265644 285.8451 
L 280.339014 286.322335 
L 286.412384 288.130666 
L 292.485754 289.111751 
L 298.559124 294.325001 
L 304.632494 298.14778 
L 310.705864 297.040058 
L 316.779234 298.451055 
L 322.852604 300.407142 
L 328.925975 302.148506 
L 334.999345 303.694988 
L 341.072715 310.469108 
L 347.146085 311.319117 
L 353.219455 309.912576 
L 359.292825 310.685188 
L 365.366195 313.406713 
L 371.439565 314.878667 
L 377.512935 316.888891 
L 383.586305 320.531976 
L 389.659675 318.700844 
L 395.733045 320.535298 
L 401.806415 322.355996 
L 407.879785 320.152241 
L 413.953155 326.956636 
L 420.026525 331.198227 
L 426.099896 331.322992 
L 432.173266 332.785378 
L 438.246636 330.48167 
L 444.320006 335.411934 
L 450.393376 331.691079 
L 456.466746 332.285921 
L 462.540116 337.686477 
L 468.613486 338.566173 
L 474.686856 339.029568 
L 480.760226 342.469343 
L 486.833596 339.632058 
L 492.906966 337.966561 
L 498.980336 342.083552 
L 505.053706 340.883757 
L 511.127076 342.832143 
L 517.200447 345.723302 
L 523.273817 344.697234 
L 529.347187 345.08565 
L 535.420557 345.632918 
L 541.493927 347.513219 
L 547.567297 347.852145 
L 553.640667 354.844697 
L 559.714037 344.451531 
L 565.787407 344.487088 
L 571.860777 334.751304 
L 577.934147 347.565894 
L 584.007517 352.859372 
L 590.080887 350.060747 
L 596.154257 352.610188 
L 602.227627 353.920005 
L 608.300997 356.15961 
L 614.374368 353.468994 
L 620.447738 357.606011 
L 626.521108 359.737181 
L 632.594478 351.858841 
L 638.667848 358.382194 
L 644.741218 359.458554 
L 650.814588 363.669636 
L 656.887958 361.840872 
L 662.961328 356.501124 
L 669.034698 360.413507 
L 675.108068 360.481747 
" clip-path="url(#p185b46fc7f)" style="fill: none; stroke: #2ca02c; stroke-width: 1.5; stroke-linecap: square"/>
   </g>
   <g id="line2d_16">
    <path d="M 73.844432 43.723932 
L 79.917802 45.359783 
L 85.991172 47.341494 
L 92.064542 49.46167 
L 98.137912 52.448149 
L 104.211282 57.32647 
L 110.284652 65.307277 
L 116.358022 80.407683 
L 122.431392 105.611515 
L 128.504762 130.140346 
L 134.578132 152.330509 
L 140.651503 169.825649 
L 146.724873 187.670843 
L 152.798243 199.971093 
L 158.871613 215.863063 
L 164.944983 227.29835 
L 171.018353 235.445953 
L 177.091723 244.683876 
L 183.165093 253.374775 
L 189.238463 256.688351 
L 195.311833 260.600606 
L 201.385203 268.196604 
L 207.458573 270.982817 
L 213.531943 274.068682 
L 219.605313 278.642639 
L 225.678683 280.388627 
L 231.752053 283.70807 
L 237.825424 284.685793 
L 243.898794 287.245124 
L 249.972164 291.136969 
L 256.045534 295.064321 
L 262.118904 294.773924 
L 268.192274 296.749143 
L 274.265644 297.206499 
L 280.339014 298.763797 
L 286.412384 301.343426 
L 292.485754 304.223063 
L 298.559124 307.828207 
L 304.632494 306.358146 
L 310.705864 310.272273 
L 316.779234 310.677152 
L 322.852604 312.486249 
L 328.925975 311.005393 
L 334.999345 313.144849 
L 341.072715 315.222844 
L 347.146085 313.37191 
L 353.219455 316.388968 
L 359.292825 318.770892 
L 365.366195 319.521382 
L 371.439565 318.765897 
L 377.512935 323.692044 
L 383.586305 320.506524 
L 389.659675 328.050745 
L 395.733045 323.493863 
L 401.806415 324.547732 
L 407.879785 326.418297 
L 413.953155 327.815869 
L 420.026525 326.792971 
L 426.099896 329.750897 
L 432.173266 328.385111 
L 438.246636 331.022824 
L 444.320006 332.746524 
L 450.393376 333.825194 
L 456.466746 334.743796 
L 462.540116 334.147154 
L 468.613486 334.8333 
L 474.686856 335.798657 
L 480.760226 331.221613 
L 486.833596 338.221375 
L 492.906966 337.575532 
L 498.980336 337.387365 
L 505.053706 341.062044 
L 511.127076 340.951125 
L 517.200447 340.612957 
L 523.273817 343.888667 
L 529.347187 345.013522 
L 535.420557 344.347633 
L 541.493927 345.279595 
L 547.567297 346.385954 
L 553.640667 344.412257 
L 559.714037 350.298649 
L 565.787407 350.338201 
L 571.860777 352.564609 
L 577.934147 351.793885 
L 584.007517 354.5354 
L 590.080887 352.320382 
L 596.154257 353.091932 
L 602.227627 355.574862 
L 608.300997 357.935811 
L 614.374368 351.44393 
L 620.447738 361.251817 
L 626.521108 360.521415 
L 632.594478 361.619176 
L 638.667848 361.878042 
L 644.741218 366.283744 
L 650.814588 365.421367 
L 656.887958 366.107275 
L 662.961328 367.503246 
L 669.034698 368.970852 
L 675.108068 365.263199 
" clip-path="url(#p185b46fc7f)" style="fill: none; stroke: #d62728; stroke-width: 1.5; stroke-linecap: square"/>
   </g>
   <g id="line2d_17">
    <path d="M 73.844432 52.048031 
L 79.917802 53.083315 
L 85.991172 54.674622 
L 92.064542 56.43037 
L 98.137912 59.454706 
L 104.211282 69.733445 
L 110.284652 89.633541 
L 116.358022 113.320244 
L 122.431392 130.349343 
L 128.504762 144.814027 
L 134.578132 158.191012 
L 140.651503 166.579913 
L 146.724873 172.41014 
L 152.798243 181.79821 
L 158.871613 184.275395 
L 164.944983 189.858963 
L 171.018353 195.287199 
L 177.091723 203.821575 
L 183.165093 210.565873 
L 189.238463 214.372299 
L 195.311833 221.297272 
L 201.385203 225.222707 
L 207.458573 227.715165 
L 213.531943 235.111049 
L 219.605313 238.203417 
L 225.678683 239.883524 
L 231.752053 243.164141 
L 237.825424 244.837561 
L 243.898794 248.87616 
L 249.972164 249.677427 
L 256.045534 253.173166 
L 262.118904 255.328801 
L 268.192274 256.648415 
L 274.265644 258.004813 
L 280.339014 261.305849 
L 286.412384 263.401631 
L 292.485754 264.716562 
L 298.559124 267.714868 
L 304.632494 268.862002 
L 310.705864 273.527282 
L 316.779234 274.057154 
L 322.852604 275.289326 
L 328.925975 274.872285 
L 334.999345 278.895472 
L 341.072715 281.957762 
L 347.146085 278.698179 
L 353.219455 284.666958 
L 359.292825 287.99965 
L 365.366195 290.820296 
L 371.439565 284.120559 
L 377.512935 289.574332 
L 383.586305 293.673778 
L 389.659675 292.663059 
L 395.733045 294.478904 
L 401.806415 295.997758 
L 407.879785 295.729164 
L 413.953155 296.530417 
L 420.026525 299.736552 
L 426.099896 303.898656 
L 432.173266 301.903948 
L 438.246636 300.550463 
L 444.320006 303.679414 
L 450.393376 304.88717 
L 456.466746 301.880866 
L 462.540116 308.658277 
L 468.613486 307.833246 
L 474.686856 310.308656 
L 480.760226 313.687421 
L 486.833596 311.820032 
L 492.906966 315.106901 
L 498.980336 315.832872 
L 505.053706 319.202442 
L 511.127076 322.742705 
L 517.200447 319.873267 
L 523.273817 325.670083 
L 529.347187 322.172551 
L 535.420557 320.678053 
L 541.493927 322.098194 
L 547.567297 325.715985 
L 553.640667 325.912129 
L 559.714037 328.835666 
L 565.787407 330.907764 
L 571.860777 329.820784 
L 577.934147 328.075042 
L 584.007517 334.156891 
L 590.080887 334.882112 
L 596.154257 335.686193 
L 602.227627 333.675662 
L 608.300997 334.779822 
L 614.374368 333.049389 
L 620.447738 338.836705 
L 626.521108 339.247167 
L 632.594478 338.836908 
L 638.667848 336.487972 
L 644.741218 336.635238 
L 650.814588 337.942456 
L 656.887958 342.096822 
L 662.961328 339.693555 
L 669.034698 344.412326 
L 675.108068 341.603388 
" clip-path="url(#p185b46fc7f)" style="fill: none; stroke: #9467bd; stroke-width: 1.5; stroke-linecap: square"/>
   </g>
   <g id="patch_3">
    <path d="M 43.78125 385.478125 
L 43.78125 22.318125 
" style="fill: none; stroke: #000000; stroke-width: 0.8; stroke-linejoin: miter; stroke-linecap: square"/>
   </g>
   <g id="patch_4">
    <path d="M 705.17125 385.478125 
L 705.17125 22.318125 
" style="fill: none; stroke: #000000; stroke-width: 0.8; stroke-linejoin: miter; stroke-linecap: square"/>
   </g>
   <g id="patch_5">
    <path d="M 43.78125 385.478125 
L 705.17125 385.478125 
" style="fill: none; stroke: #000000; stroke-width: 0.8; stroke-linejoin: miter; stroke-linecap: square"/>
   </g>
   <g id="patch_6">
    <path d="M 43.78125 22.318125 
L 705.17125 22.318125 
" style="fill: none; stroke: #000000; stroke-width: 0.8; stroke-linejoin: miter; stroke-linecap: square"/>
   </g>
   <g id="text_15">
    <!-- Combined Train Loss -->
    <g transform="translate(312.624688 16.318125) scale(0.12 -0.12)">
     <defs>
      <path id="DejaVuSans-43" d="M 4122 4306 
L 4122 3641 
Q 3803 3938 3442 4084 
Q 3081 4231 2675 4231 
Q 1875 4231 1450 3742 
Q 1025 3253 1025 2328 
Q 1025 1406 1450 917 
Q 1875 428 2675 428 
Q 3081 428 3442 575 
Q 3803 722 4122 1019 
L 4122 359 
Q 3791 134 3420 21 
Q 3050 -91 2638 -91 
Q 1578 -91 968 557 
Q 359 1206 359 2328 
Q 359 3453 968 4101 
Q 1578 4750 2638 4750 
Q 3056 4750 3426 4639 
Q 3797 4528 4122 4306 
z
" transform="scale(0.015625)"/>
      <path id="DejaVuSans-6d" d="M 3328 2828 
Q 3544 3216 3844 3400 
Q 4144 3584 4550 3584 
Q 5097 3584 5394 3201 
Q 5691 2819 5691 2113 
L 5691 0 
L 5113 0 
L 5113 2094 
Q 5113 2597 4934 2840 
Q 4756 3084 4391 3084 
Q 3944 3084 3684 2787 
Q 3425 2491 3425 1978 
L 3425 0 
L 2847 0 
L 2847 2094 
Q 2847 2600 2669 2842 
Q 2491 3084 2119 3084 
Q 1678 3084 1418 2786 
Q 1159 2488 1159 1978 
L 1159 0 
L 581 0 
L 581 3500 
L 1159 3500 
L 1159 2956 
Q 1356 3278 1631 3431 
Q 1906 3584 2284 3584 
Q 2666 3584 2933 3390 
Q 3200 3197 3328 2828 
z
" transform="scale(0.015625)"/>
      <path id="DejaVuSans-62" d="M 3116 1747 
Q 3116 2381 2855 2742 
Q 2594 3103 2138 3103 
Q 1681 3103 1420 2742 
Q 1159 2381 1159 1747 
Q 1159 1113 1420 752 
Q 1681 391 2138 391 
Q 2594 391 2855 752 
Q 3116 1113 3116 1747 
z
M 1159 2969 
Q 1341 3281 1617 3432 
Q 1894 3584 2278 3584 
Q 2916 3584 3314 3078 
Q 3713 2572 3713 1747 
Q 3713 922 3314 415 
Q 2916 -91 2278 -91 
Q 1894 -91 1617 61 
Q 1341 213 1159 525 
L 1159 0 
L 581 0 
L 581 4863 
L 1159 4863 
L 1159 2969 
z
" transform="scale(0.015625)"/>
      <path id="DejaVuSans-65" d="M 3597 1894 
L 3597 1613 
L 953 1613 
Q 991 1019 1311 708 
Q 1631 397 2203 397 
Q 2534 397 2845 478 
Q 3156 559 3463 722 
L 3463 178 
Q 3153 47 2828 -22 
Q 2503 -91 2169 -91 
Q 1331 -91 842 396 
Q 353 884 353 1716 
Q 353 2575 817 3079 
Q 1281 3584 2069 3584 
Q 2775 3584 3186 3129 
Q 3597 2675 3597 1894 
z
M 3022 2063 
Q 3016 2534 2758 2815 
Q 2500 3097 2075 3097 
Q 1594 3097 1305 2825 
Q 1016 2553 972 2059 
L 3022 2063 
z
" transform="scale(0.015625)"/>
      <path id="DejaVuSans-64" d="M 2906 2969 
L 2906 4863 
L 3481 4863 
L 3481 0 
L 2906 0 
L 2906 525 
Q 2725 213 2448 61 
Q 2172 -91 1784 -91 
Q 1150 -91 751 415 
Q 353 922 353 1747 
Q 353 2572 751 3078 
Q 1150 3584 1784 3584 
Q 2172 3584 2448 3432 
Q 2725 3281 2906 2969 
z
M 947 1747 
Q 947 1113 1208 752 
Q 1469 391 1925 391 
Q 2381 391 2643 752 
Q 2906 1113 2906 1747 
Q 2906 2381 2643 2742 
Q 2381 3103 1925 3103 
Q 1469 3103 1208 2742 
Q 947 2381 947 1747 
z
" transform="scale(0.015625)"/>
     </defs>
     <use xlink:href="#DejaVuSans-43"/>
     <use xlink:href="#DejaVuSans-6f" transform="translate(69.824219 0)"/>
     <use xlink:href="#DejaVuSans-6d" transform="translate(131.005859 0)"/>
     <use xlink:href="#DejaVuSans-62" transform="translate(228.417969 0)"/>
     <use xlink:href="#DejaVuSans-69" transform="translate(291.894531 0)"/>
     <use xlink:href="#DejaVuSans-6e" transform="translate(319.677734 0)"/>
     <use xlink:href="#DejaVuSans-65" transform="translate(383.056641 0)"/>
     <use xlink:href="#DejaVuSans-64" transform="translate(444.580078 0)"/>
     <use xlink:href="#DejaVuSans-20" transform="translate(508.056641 0)"/>
     <use xlink:href="#DejaVuSans-54" transform="translate(539.84375 0)"/>
     <use xlink:href="#DejaVuSans-72" transform="translate(586.177734 0)"/>
     <use xlink:href="#DejaVuSans-61" transform="translate(627.291016 0)"/>
     <use xlink:href="#DejaVuSans-69" transform="translate(688.570312 0)"/>
     <use xlink:href="#DejaVuSans-6e" transform="translate(716.353516 0)"/>
     <use xlink:href="#DejaVuSans-20" transform="translate(779.732422 0)"/>
     <use xlink:href="#DejaVuSans-4c" transform="translate(811.519531 0)"/>
     <use xlink:href="#DejaVuSans-6f" transform="translate(865.482422 0)"/>
     <use xlink:href="#DejaVuSans-73" transform="translate(926.664062 0)"/>
     <use xlink:href="#DejaVuSans-73" transform="translate(978.763672 0)"/>
    </g>
   </g>
   <g id="legend_1">
    <g id="patch_7">
     <path d="M 635.99625 103.70875 
L 698.17125 103.70875 
Q 700.17125 103.70875 700.17125 101.70875 
L 700.17125 29.318125 
Q 700.17125 27.318125 698.17125 27.318125 
L 635.99625 27.318125 
Q 633.99625 27.318125 633.99625 29.318125 
L 633.99625 101.70875 
Q 633.99625 103.70875 635.99625 103.70875 
z
" style="fill: #ffffff; opacity: 0.8; stroke: #cccccc; stroke-linejoin: miter"/>
    </g>
    <g id="line2d_18">
     <path d="M 637.99625 35.416562 
L 647.99625 35.416562 
L 657.99625 35.416562 
" style="fill: none; stroke: #1f77b4; stroke-width: 1.5; stroke-linecap: square"/>
    </g>
    <g id="text_16">
     <!-- Fold 1 -->
     <g transform="translate(665.99625 38.916562) scale(0.1 -0.1)">
      <defs>
       <path id="DejaVuSans-46" d="M 628 4666 
L 3309 4666 
L 3309 4134 
L 1259 4134 
L 1259 2759 
L 3109 2759 
L 3109 2228 
L 1259 2228 
L 1259 0 
L 628 0 
L 628 4666 
z
" transform="scale(0.015625)"/>
       <path id="DejaVuSans-6c" d="M 603 4863 
L 1178 4863 
L 1178 0 
L 603 0 
L 603 4863 
z
" transform="scale(0.015625)"/>
      </defs>
      <use xlink:href="#DejaVuSans-46"/>
      <use xlink:href="#DejaVuSans-6f" transform="translate(53.894531 0)"/>
      <use xlink:href="#DejaVuSans-6c" transform="translate(115.076172 0)"/>
      <use xlink:href="#DejaVuSans-64" transform="translate(142.859375 0)"/>
      <use xlink:href="#DejaVuSans-20" transform="translate(206.335938 0)"/>
      <use xlink:href="#DejaVuSans-31" transform="translate(238.123047 0)"/>
     </g>
    </g>
    <g id="line2d_19">
     <path d="M 637.99625 50.094688 
L 647.99625 50.094688 
L 657.99625 50.094688 
" style="fill: none; stroke: #ff7f0e; stroke-width: 1.5; stroke-linecap: square"/>
    </g>
    <g id="text_17">
     <!-- Fold 2 -->
     <g transform="translate(665.99625 53.594688) scale(0.1 -0.1)">
      <use xlink:href="#DejaVuSans-46"/>
      <use xlink:href="#DejaVuSans-6f" transform="translate(53.894531 0)"/>
      <use xlink:href="#DejaVuSans-6c" transform="translate(115.076172 0)"/>
      <use xlink:href="#DejaVuSans-64" transform="translate(142.859375 0)"/>
      <use xlink:href="#DejaVuSans-20" transform="translate(206.335938 0)"/>
      <use xlink:href="#DejaVuSans-32" transform="translate(238.123047 0)"/>
     </g>
    </g>
    <g id="line2d_20">
     <path d="M 637.99625 64.772812 
L 647.99625 64.772812 
L 657.99625 64.772812 
" style="fill: none; stroke: #2ca02c; stroke-width: 1.5; stroke-linecap: square"/>
    </g>
    <g id="text_18">
     <!-- Fold 3 -->
     <g transform="translate(665.99625 68.272812) scale(0.1 -0.1)">
      <defs>
       <path id="DejaVuSans-33" d="M 2597 2516 
Q 3050 2419 3304 2112 
Q 3559 1806 3559 1356 
Q 3559 666 3084 287 
Q 2609 -91 1734 -91 
Q 1441 -91 1130 -33 
Q 819 25 488 141 
L 488 750 
Q 750 597 1062 519 
Q 1375 441 1716 441 
Q 2309 441 2620 675 
Q 2931 909 2931 1356 
Q 2931 1769 2642 2001 
Q 2353 2234 1838 2234 
L 1294 2234 
L 1294 2753 
L 1863 2753 
Q 2328 2753 2575 2939 
Q 2822 3125 2822 3475 
Q 2822 3834 2567 4026 
Q 2313 4219 1838 4219 
Q 1578 4219 1281 4162 
Q 984 4106 628 3988 
L 628 4550 
Q 988 4650 1302 4700 
Q 1616 4750 1894 4750 
Q 2613 4750 3031 4423 
Q 3450 4097 3450 3541 
Q 3450 3153 3228 2886 
Q 3006 2619 2597 2516 
z
" transform="scale(0.015625)"/>
      </defs>
      <use xlink:href="#DejaVuSans-46"/>
      <use xlink:href="#DejaVuSans-6f" transform="translate(53.894531 0)"/>
      <use xlink:href="#DejaVuSans-6c" transform="translate(115.076172 0)"/>
      <use xlink:href="#DejaVuSans-64" transform="translate(142.859375 0)"/>
      <use xlink:href="#DejaVuSans-20" transform="translate(206.335938 0)"/>
      <use xlink:href="#DejaVuSans-33" transform="translate(238.123047 0)"/>
     </g>
    </g>
    <g id="line2d_21">
     <path d="M 637.99625 79.450938 
L 647.99625 79.450938 
L 657.99625 79.450938 
" style="fill: none; stroke: #d62728; stroke-width: 1.5; stroke-linecap: square"/>
    </g>
    <g id="text_19">
     <!-- Fold 4 -->
     <g transform="translate(665.99625 82.950938) scale(0.1 -0.1)">
      <use xlink:href="#DejaVuSans-46"/>
      <use xlink:href="#DejaVuSans-6f" transform="translate(53.894531 0)"/>
      <use xlink:href="#DejaVuSans-6c" transform="translate(115.076172 0)"/>
      <use xlink:href="#DejaVuSans-64" transform="translate(142.859375 0)"/>
      <use xlink:href="#DejaVuSans-20" transform="translate(206.335938 0)"/>
      <use xlink:href="#DejaVuSans-34" transform="translate(238.123047 0)"/>
     </g>
    </g>
    <g id="line2d_22">
     <path d="M 637.99625 94.129063 
L 647.99625 94.129063 
L 657.99625 94.129063 
" style="fill: none; stroke: #9467bd; stroke-width: 1.5; stroke-linecap: square"/>
    </g>
    <g id="text_20">
     <!-- Fold 5 -->
     <g transform="translate(665.99625 97.629063) scale(0.1 -0.1)">
      <defs>
       <path id="DejaVuSans-35" d="M 691 4666 
L 3169 4666 
L 3169 4134 
L 1269 4134 
L 1269 2991 
Q 1406 3038 1543 3061 
Q 1681 3084 1819 3084 
Q 2600 3084 3056 2656 
Q 3513 2228 3513 1497 
Q 3513 744 3044 326 
Q 2575 -91 1722 -91 
Q 1428 -91 1123 -41 
Q 819 9 494 109 
L 494 744 
Q 775 591 1075 516 
Q 1375 441 1709 441 
Q 2250 441 2565 725 
Q 2881 1009 2881 1497 
Q 2881 1984 2565 2268 
Q 2250 2553 1709 2553 
Q 1456 2553 1204 2497 
Q 953 2441 691 2322 
L 691 4666 
z
" transform="scale(0.015625)"/>
      </defs>
      <use xlink:href="#DejaVuSans-46"/>
      <use xlink:href="#DejaVuSans-6f" transform="translate(53.894531 0)"/>
      <use xlink:href="#DejaVuSans-6c" transform="translate(115.076172 0)"/>
      <use xlink:href="#DejaVuSans-64" transform="translate(142.859375 0)"/>
      <use xlink:href="#DejaVuSans-20" transform="translate(206.335938 0)"/>
      <use xlink:href="#DejaVuSans-35" transform="translate(238.123047 0)"/>
     </g>
    </g>
   </g>
  </g>
 </g>
 <defs>
  <clipPath id="p185b46fc7f">
   <rect x="43.78125" y="22.318125" width="661.39" height="363.16"/>
  </clipPath>
 </defs>
</svg>
