<?xml version="1.0" encoding="utf-8" standalone="no"?>
<!DOCTYPE svg PUBLIC "-//W3C//DTD SVG 1.1//EN"
  "http://www.w3.org/Graphics/SVG/1.1/DTD/svg11.dtd">
<svg xmlns:xlink="http://www.w3.org/1999/xlink" width="712.46125pt" height="423.034375pt" viewBox="0 0 712.46125 423.034375" xmlns="http://www.w3.org/2000/svg" version="1.1">
 <metadata>
  <rdf:RDF xmlns:dc="http://purl.org/dc/elements/1.1/" xmlns:cc="http://creativecommons.org/ns#" xmlns:rdf="http://www.w3.org/1999/02/22-rdf-syntax-ns#">
   <cc:Work>
    <dc:type rdf:resource="http://purl.org/dc/dcmitype/StillImage"/>
    <dc:date>2025-06-26T16:57:29.387209</dc:date>
    <dc:format>image/svg+xml</dc:format>
    <dc:creator>
     <cc:Agent>
      <dc:title>Matplotlib v3.10.0, https://matplotlib.org/</dc:title>
     </cc:Agent>
    </dc:creator>
   </cc:Work>
  </rdf:RDF>
 </metadata>
 <defs>
  <style type="text/css">*{stroke-linejoin: round; stroke-linecap: butt}</style>
 </defs>
 <g id="figure_1">
  <g id="patch_1">
   <path d="M 0 423.034375 
L 712.46125 423.034375 
L 712.46125 0 
L 0 0 
z
" style="fill: #ffffff"/>
  </g>
  <g id="axes_1">
   <g id="patch_2">
    <path d="M 43.78125 385.478125 
L 705.26125 385.478125 
L 705.26125 22.318125 
L 43.78125 22.318125 
z
" style="fill: #ffffff"/>
   </g>
   <g id="matplotlib.axis_1">
    <g id="xtick_1">
     <g id="line2d_1">
      <defs>
       <path id="m9b2ec6393c" d="M 0 0 
L 0 3.5 
" style="stroke: #000000; stroke-width: 0.8"/>
      </defs>
      <g>
       <use xlink:href="#m9b2ec6393c" x="67.774326" y="385.478125" style="stroke: #000000; stroke-width: 0.8"/>
      </g>
     </g>
     <g id="text_1">
      <!-- 0 -->
      <g transform="translate(64.593076 400.076562) scale(0.1 -0.1)">
       <defs>
        <path id="DejaVuSans-30" d="M 2034 4250 
Q 1547 4250 1301 3770 
Q 1056 3291 1056 2328 
Q 1056 1369 1301 889 
Q 1547 409 2034 409 
Q 2525 409 2770 889 
Q 3016 1369 3016 2328 
Q 3016 3291 2770 3770 
Q 2525 4250 2034 4250 
z
M 2034 4750 
Q 2819 4750 3233 4129 
Q 3647 3509 3647 2328 
Q 3647 1150 3233 529 
Q 2819 -91 2034 -91 
Q 1250 -91 836 529 
Q 422 1150 422 2328 
Q 422 3509 836 4129 
Q 1250 4750 2034 4750 
z
" transform="scale(0.015625)"/>
       </defs>
       <use xlink:href="#DejaVuSans-30"/>
      </g>
     </g>
    </g>
    <g id="xtick_2">
     <g id="line2d_2">
      <g>
       <use xlink:href="#m9b2ec6393c" x="189.258256" y="385.478125" style="stroke: #000000; stroke-width: 0.8"/>
      </g>
     </g>
     <g id="text_2">
      <!-- 20 -->
      <g transform="translate(182.895756 400.076562) scale(0.1 -0.1)">
       <defs>
        <path id="DejaVuSans-32" d="M 1228 531 
L 3431 531 
L 3431 0 
L 469 0 
L 469 531 
Q 828 903 1448 1529 
Q 2069 2156 2228 2338 
Q 2531 2678 2651 2914 
Q 2772 3150 2772 3378 
Q 2772 3750 2511 3984 
Q 2250 4219 1831 4219 
Q 1534 4219 1204 4116 
Q 875 4013 500 3803 
L 500 4441 
Q 881 4594 1212 4672 
Q 1544 4750 1819 4750 
Q 2544 4750 2975 4387 
Q 3406 4025 3406 3419 
Q 3406 3131 3298 2873 
Q 3191 2616 2906 2266 
Q 2828 2175 2409 1742 
Q 1991 1309 1228 531 
z
" transform="scale(0.015625)"/>
       </defs>
       <use xlink:href="#DejaVuSans-32"/>
       <use xlink:href="#DejaVuSans-30" transform="translate(63.623047 0)"/>
      </g>
     </g>
    </g>
    <g id="xtick_3">
     <g id="line2d_3">
      <g>
       <use xlink:href="#m9b2ec6393c" x="310.742187" y="385.478125" style="stroke: #000000; stroke-width: 0.8"/>
      </g>
     </g>
     <g id="text_3">
      <!-- 40 -->
      <g transform="translate(304.379687 400.076562) scale(0.1 -0.1)">
       <defs>
        <path id="DejaVuSans-34" d="M 2419 4116 
L 825 1625 
L 2419 1625 
L 2419 4116 
z
M 2253 4666 
L 3047 4666 
L 3047 1625 
L 3713 1625 
L 3713 1100 
L 3047 1100 
L 3047 0 
L 2419 0 
L 2419 1100 
L 313 1100 
L 313 1709 
L 2253 4666 
z
" transform="scale(0.015625)"/>
       </defs>
       <use xlink:href="#DejaVuSans-34"/>
       <use xlink:href="#DejaVuSans-30" transform="translate(63.623047 0)"/>
      </g>
     </g>
    </g>
    <g id="xtick_4">
     <g id="line2d_4">
      <g>
       <use xlink:href="#m9b2ec6393c" x="432.226117" y="385.478125" style="stroke: #000000; stroke-width: 0.8"/>
      </g>
     </g>
     <g id="text_4">
      <!-- 60 -->
      <g transform="translate(425.863617 400.076562) scale(0.1 -0.1)">
       <defs>
        <path id="DejaVuSans-36" d="M 2113 2584 
Q 1688 2584 1439 2293 
Q 1191 2003 1191 1497 
Q 1191 994 1439 701 
Q 1688 409 2113 409 
Q 2538 409 2786 701 
Q 3034 994 3034 1497 
Q 3034 2003 2786 2293 
Q 2538 2584 2113 2584 
z
M 3366 4563 
L 3366 3988 
Q 3128 4100 2886 4159 
Q 2644 4219 2406 4219 
Q 1781 4219 1451 3797 
Q 1122 3375 1075 2522 
Q 1259 2794 1537 2939 
Q 1816 3084 2150 3084 
Q 2853 3084 3261 2657 
Q 3669 2231 3669 1497 
Q 3669 778 3244 343 
Q 2819 -91 2113 -91 
Q 1303 -91 875 529 
Q 447 1150 447 2328 
Q 447 3434 972 4092 
Q 1497 4750 2381 4750 
Q 2619 4750 2861 4703 
Q 3103 4656 3366 4563 
z
" transform="scale(0.015625)"/>
       </defs>
       <use xlink:href="#DejaVuSans-36"/>
       <use xlink:href="#DejaVuSans-30" transform="translate(63.623047 0)"/>
      </g>
     </g>
    </g>
    <g id="xtick_5">
     <g id="line2d_5">
      <g>
       <use xlink:href="#m9b2ec6393c" x="553.710047" y="385.478125" style="stroke: #000000; stroke-width: 0.8"/>
      </g>
     </g>
     <g id="text_5">
      <!-- 80 -->
      <g transform="translate(547.347547 400.076562) scale(0.1 -0.1)">
       <defs>
        <path id="DejaVuSans-38" d="M 2034 2216 
Q 1584 2216 1326 1975 
Q 1069 1734 1069 1313 
Q 1069 891 1326 650 
Q 1584 409 2034 409 
Q 2484 409 2743 651 
Q 3003 894 3003 1313 
Q 3003 1734 2745 1975 
Q 2488 2216 2034 2216 
z
M 1403 2484 
Q 997 2584 770 2862 
Q 544 3141 544 3541 
Q 544 4100 942 4425 
Q 1341 4750 2034 4750 
Q 2731 4750 3128 4425 
Q 3525 4100 3525 3541 
Q 3525 3141 3298 2862 
Q 3072 2584 2669 2484 
Q 3125 2378 3379 2068 
Q 3634 1759 3634 1313 
Q 3634 634 3220 271 
Q 2806 -91 2034 -91 
Q 1263 -91 848 271 
Q 434 634 434 1313 
Q 434 1759 690 2068 
Q 947 2378 1403 2484 
z
M 1172 3481 
Q 1172 3119 1398 2916 
Q 1625 2713 2034 2713 
Q 2441 2713 2670 2916 
Q 2900 3119 2900 3481 
Q 2900 3844 2670 4047 
Q 2441 4250 2034 4250 
Q 1625 4250 1398 4047 
Q 1172 3844 1172 3481 
z
" transform="scale(0.015625)"/>
       </defs>
       <use xlink:href="#DejaVuSans-38"/>
       <use xlink:href="#DejaVuSans-30" transform="translate(63.623047 0)"/>
      </g>
     </g>
    </g>
    <g id="xtick_6">
     <g id="line2d_6">
      <g>
       <use xlink:href="#m9b2ec6393c" x="675.193977" y="385.478125" style="stroke: #000000; stroke-width: 0.8"/>
      </g>
     </g>
     <g id="text_6">
      <!-- 100 -->
      <g transform="translate(665.650227 400.076562) scale(0.1 -0.1)">
       <defs>
        <path id="DejaVuSans-31" d="M 794 531 
L 1825 531 
L 1825 4091 
L 703 3866 
L 703 4441 
L 1819 4666 
L 2450 4666 
L 2450 531 
L 3481 531 
L 3481 0 
L 794 0 
L 794 531 
z
" transform="scale(0.015625)"/>
       </defs>
       <use xlink:href="#DejaVuSans-31"/>
       <use xlink:href="#DejaVuSans-30" transform="translate(63.623047 0)"/>
       <use xlink:href="#DejaVuSans-30" transform="translate(127.246094 0)"/>
      </g>
     </g>
    </g>
    <g id="text_7">
     <!-- Epoch -->
     <g transform="translate(359.210312 413.754687) scale(0.1 -0.1)">
      <defs>
       <path id="DejaVuSans-45" d="M 628 4666 
L 3578 4666 
L 3578 4134 
L 1259 4134 
L 1259 2753 
L 3481 2753 
L 3481 2222 
L 1259 2222 
L 1259 531 
L 3634 531 
L 3634 0 
L 628 0 
L 628 4666 
z
" transform="scale(0.015625)"/>
       <path id="DejaVuSans-70" d="M 1159 525 
L 1159 -1331 
L 581 -1331 
L 581 3500 
L 1159 3500 
L 1159 2969 
Q 1341 3281 1617 3432 
Q 1894 3584 2278 3584 
Q 2916 3584 3314 3078 
Q 3713 2572 3713 1747 
Q 3713 922 3314 415 
Q 2916 -91 2278 -91 
Q 1894 -91 1617 61 
Q 1341 213 1159 525 
z
M 3116 1747 
Q 3116 2381 2855 2742 
Q 2594 3103 2138 3103 
Q 1681 3103 1420 2742 
Q 1159 2381 1159 1747 
Q 1159 1113 1420 752 
Q 1681 391 2138 391 
Q 2594 391 2855 752 
Q 3116 1113 3116 1747 
z
" transform="scale(0.015625)"/>
       <path id="DejaVuSans-6f" d="M 1959 3097 
Q 1497 3097 1228 2736 
Q 959 2375 959 1747 
Q 959 1119 1226 758 
Q 1494 397 1959 397 
Q 2419 397 2687 759 
Q 2956 1122 2956 1747 
Q 2956 2369 2687 2733 
Q 2419 3097 1959 3097 
z
M 1959 3584 
Q 2709 3584 3137 3096 
Q 3566 2609 3566 1747 
Q 3566 888 3137 398 
Q 2709 -91 1959 -91 
Q 1206 -91 779 398 
Q 353 888 353 1747 
Q 353 2609 779 3096 
Q 1206 3584 1959 3584 
z
" transform="scale(0.015625)"/>
       <path id="DejaVuSans-63" d="M 3122 3366 
L 3122 2828 
Q 2878 2963 2633 3030 
Q 2388 3097 2138 3097 
Q 1578 3097 1268 2742 
Q 959 2388 959 1747 
Q 959 1106 1268 751 
Q 1578 397 2138 397 
Q 2388 397 2633 464 
Q 2878 531 3122 666 
L 3122 134 
Q 2881 22 2623 -34 
Q 2366 -91 2075 -91 
Q 1284 -91 818 406 
Q 353 903 353 1747 
Q 353 2603 823 3093 
Q 1294 3584 2113 3584 
Q 2378 3584 2631 3529 
Q 2884 3475 3122 3366 
z
" transform="scale(0.015625)"/>
       <path id="DejaVuSans-68" d="M 3513 2113 
L 3513 0 
L 2938 0 
L 2938 2094 
Q 2938 2591 2744 2837 
Q 2550 3084 2163 3084 
Q 1697 3084 1428 2787 
Q 1159 2491 1159 1978 
L 1159 0 
L 581 0 
L 581 4863 
L 1159 4863 
L 1159 2956 
Q 1366 3272 1645 3428 
Q 1925 3584 2291 3584 
Q 2894 3584 3203 3211 
Q 3513 2838 3513 2113 
z
" transform="scale(0.015625)"/>
      </defs>
      <use xlink:href="#DejaVuSans-45"/>
      <use xlink:href="#DejaVuSans-70" transform="translate(63.183594 0)"/>
      <use xlink:href="#DejaVuSans-6f" transform="translate(126.660156 0)"/>
      <use xlink:href="#DejaVuSans-63" transform="translate(187.841797 0)"/>
      <use xlink:href="#DejaVuSans-68" transform="translate(242.822266 0)"/>
     </g>
    </g>
   </g>
   <g id="matplotlib.axis_2">
    <g id="ytick_1">
     <g id="line2d_7">
      <defs>
       <path id="m303d882f13" d="M 0 0 
L -3.5 0 
" style="stroke: #000000; stroke-width: 0.8"/>
      </defs>
      <g>
       <use xlink:href="#m303d882f13" x="43.78125" y="379.085058" style="stroke: #000000; stroke-width: 0.8"/>
      </g>
     </g>
     <g id="text_8">
      <!-- 0.2 -->
      <g transform="translate(20.878125 382.884277) scale(0.1 -0.1)">
       <defs>
        <path id="DejaVuSans-2e" d="M 684 794 
L 1344 794 
L 1344 0 
L 684 0 
L 684 794 
z
" transform="scale(0.015625)"/>
       </defs>
       <use xlink:href="#DejaVuSans-30"/>
       <use xlink:href="#DejaVuSans-2e" transform="translate(63.623047 0)"/>
       <use xlink:href="#DejaVuSans-32" transform="translate(95.410156 0)"/>
      </g>
     </g>
    </g>
    <g id="ytick_2">
     <g id="line2d_8">
      <g>
       <use xlink:href="#m303d882f13" x="43.78125" y="322.979728" style="stroke: #000000; stroke-width: 0.8"/>
      </g>
     </g>
     <g id="text_9">
      <!-- 0.4 -->
      <g transform="translate(20.878125 326.778946) scale(0.1 -0.1)">
       <use xlink:href="#DejaVuSans-30"/>
       <use xlink:href="#DejaVuSans-2e" transform="translate(63.623047 0)"/>
       <use xlink:href="#DejaVuSans-34" transform="translate(95.410156 0)"/>
      </g>
     </g>
    </g>
    <g id="ytick_3">
     <g id="line2d_9">
      <g>
       <use xlink:href="#m303d882f13" x="43.78125" y="266.874397" style="stroke: #000000; stroke-width: 0.8"/>
      </g>
     </g>
     <g id="text_10">
      <!-- 0.6 -->
      <g transform="translate(20.878125 270.673616) scale(0.1 -0.1)">
       <use xlink:href="#DejaVuSans-30"/>
       <use xlink:href="#DejaVuSans-2e" transform="translate(63.623047 0)"/>
       <use xlink:href="#DejaVuSans-36" transform="translate(95.410156 0)"/>
      </g>
     </g>
    </g>
    <g id="ytick_4">
     <g id="line2d_10">
      <g>
       <use xlink:href="#m303d882f13" x="43.78125" y="210.769067" style="stroke: #000000; stroke-width: 0.8"/>
      </g>
     </g>
     <g id="text_11">
      <!-- 0.8 -->
      <g transform="translate(20.878125 214.568286) scale(0.1 -0.1)">
       <use xlink:href="#DejaVuSans-30"/>
       <use xlink:href="#DejaVuSans-2e" transform="translate(63.623047 0)"/>
       <use xlink:href="#DejaVuSans-38" transform="translate(95.410156 0)"/>
      </g>
     </g>
    </g>
    <g id="ytick_5">
     <g id="line2d_11">
      <g>
       <use xlink:href="#m303d882f13" x="43.78125" y="154.663737" style="stroke: #000000; stroke-width: 0.8"/>
      </g>
     </g>
     <g id="text_12">
      <!-- 1.0 -->
      <g transform="translate(20.878125 158.462956) scale(0.1 -0.1)">
       <use xlink:href="#DejaVuSans-31"/>
       <use xlink:href="#DejaVuSans-2e" transform="translate(63.623047 0)"/>
       <use xlink:href="#DejaVuSans-30" transform="translate(95.410156 0)"/>
      </g>
     </g>
    </g>
    <g id="ytick_6">
     <g id="line2d_12">
      <g>
       <use xlink:href="#m303d882f13" x="43.78125" y="98.558407" style="stroke: #000000; stroke-width: 0.8"/>
      </g>
     </g>
     <g id="text_13">
      <!-- 1.2 -->
      <g transform="translate(20.878125 102.357625) scale(0.1 -0.1)">
       <use xlink:href="#DejaVuSans-31"/>
       <use xlink:href="#DejaVuSans-2e" transform="translate(63.623047 0)"/>
       <use xlink:href="#DejaVuSans-32" transform="translate(95.410156 0)"/>
      </g>
     </g>
    </g>
    <g id="ytick_7">
     <g id="line2d_13">
      <g>
       <use xlink:href="#m303d882f13" x="43.78125" y="42.453076" style="stroke: #000000; stroke-width: 0.8"/>
      </g>
     </g>
     <g id="text_14">
      <!-- 1.4 -->
      <g transform="translate(20.878125 46.252295) scale(0.1 -0.1)">
       <use xlink:href="#DejaVuSans-31"/>
       <use xlink:href="#DejaVuSans-2e" transform="translate(63.623047 0)"/>
       <use xlink:href="#DejaVuSans-34" transform="translate(95.410156 0)"/>
      </g>
     </g>
    </g>
    <g id="text_15">
     <!-- Train Loss -->
     <g transform="translate(14.798438 228.448125) rotate(-90) scale(0.1 -0.1)">
      <defs>
       <path id="DejaVuSans-54" d="M -19 4666 
L 3928 4666 
L 3928 4134 
L 2272 4134 
L 2272 0 
L 1638 0 
L 1638 4134 
L -19 4134 
L -19 4666 
z
" transform="scale(0.015625)"/>
       <path id="DejaVuSans-72" d="M 2631 2963 
Q 2534 3019 2420 3045 
Q 2306 3072 2169 3072 
Q 1681 3072 1420 2755 
Q 1159 2438 1159 1844 
L 1159 0 
L 581 0 
L 581 3500 
L 1159 3500 
L 1159 2956 
Q 1341 3275 1631 3429 
Q 1922 3584 2338 3584 
Q 2397 3584 2469 3576 
Q 2541 3569 2628 3553 
L 2631 2963 
z
" transform="scale(0.015625)"/>
       <path id="DejaVuSans-61" d="M 2194 1759 
Q 1497 1759 1228 1600 
Q 959 1441 959 1056 
Q 959 750 1161 570 
Q 1363 391 1709 391 
Q 2188 391 2477 730 
Q 2766 1069 2766 1631 
L 2766 1759 
L 2194 1759 
z
M 3341 1997 
L 3341 0 
L 2766 0 
L 2766 531 
Q 2569 213 2275 61 
Q 1981 -91 1556 -91 
Q 1019 -91 701 211 
Q 384 513 384 1019 
Q 384 1609 779 1909 
Q 1175 2209 1959 2209 
L 2766 2209 
L 2766 2266 
Q 2766 2663 2505 2880 
Q 2244 3097 1772 3097 
Q 1472 3097 1187 3025 
Q 903 2953 641 2809 
L 641 3341 
Q 956 3463 1253 3523 
Q 1550 3584 1831 3584 
Q 2591 3584 2966 3190 
Q 3341 2797 3341 1997 
z
" transform="scale(0.015625)"/>
       <path id="DejaVuSans-69" d="M 603 3500 
L 1178 3500 
L 1178 0 
L 603 0 
L 603 3500 
z
M 603 4863 
L 1178 4863 
L 1178 4134 
L 603 4134 
L 603 4863 
z
" transform="scale(0.015625)"/>
       <path id="DejaVuSans-6e" d="M 3513 2113 
L 3513 0 
L 2938 0 
L 2938 2094 
Q 2938 2591 2744 2837 
Q 2550 3084 2163 3084 
Q 1697 3084 1428 2787 
Q 1159 2491 1159 1978 
L 1159 0 
L 581 0 
L 581 3500 
L 1159 3500 
L 1159 2956 
Q 1366 3272 1645 3428 
Q 1925 3584 2291 3584 
Q 2894 3584 3203 3211 
Q 3513 2838 3513 2113 
z
" transform="scale(0.015625)"/>
       <path id="DejaVuSans-20" transform="scale(0.015625)"/>
       <path id="DejaVuSans-4c" d="M 628 4666 
L 1259 4666 
L 1259 531 
L 3531 531 
L 3531 0 
L 628 0 
L 628 4666 
z
" transform="scale(0.015625)"/>
       <path id="DejaVuSans-73" d="M 2834 3397 
L 2834 2853 
Q 2591 2978 2328 3040 
Q 2066 3103 1784 3103 
Q 1356 3103 1142 2972 
Q 928 2841 928 2578 
Q 928 2378 1081 2264 
Q 1234 2150 1697 2047 
L 1894 2003 
Q 2506 1872 2764 1633 
Q 3022 1394 3022 966 
Q 3022 478 2636 193 
Q 2250 -91 1575 -91 
Q 1294 -91 989 -36 
Q 684 19 347 128 
L 347 722 
Q 666 556 975 473 
Q 1284 391 1588 391 
Q 1994 391 2212 530 
Q 2431 669 2431 922 
Q 2431 1156 2273 1281 
Q 2116 1406 1581 1522 
L 1381 1569 
Q 847 1681 609 1914 
Q 372 2147 372 2553 
Q 372 3047 722 3315 
Q 1072 3584 1716 3584 
Q 2034 3584 2315 3537 
Q 2597 3491 2834 3397 
z
" transform="scale(0.015625)"/>
      </defs>
      <use xlink:href="#DejaVuSans-54"/>
      <use xlink:href="#DejaVuSans-72" transform="translate(46.333984 0)"/>
      <use xlink:href="#DejaVuSans-61" transform="translate(87.447266 0)"/>
      <use xlink:href="#DejaVuSans-69" transform="translate(148.726562 0)"/>
      <use xlink:href="#DejaVuSans-6e" transform="translate(176.509766 0)"/>
      <use xlink:href="#DejaVuSans-20" transform="translate(239.888672 0)"/>
      <use xlink:href="#DejaVuSans-4c" transform="translate(271.675781 0)"/>
      <use xlink:href="#DejaVuSans-6f" transform="translate(325.638672 0)"/>
      <use xlink:href="#DejaVuSans-73" transform="translate(386.820312 0)"/>
      <use xlink:href="#DejaVuSans-73" transform="translate(438.919922 0)"/>
     </g>
    </g>
   </g>
   <g id="line2d_14">
    <path d="M 73.848523 39.951387 
L 79.922719 41.727667 
L 85.996916 45.419214 
L 92.071112 63.485347 
L 98.145309 115.06118 
L 104.219505 157.198329 
L 110.293702 181.345653 
L 116.367898 205.139306 
L 122.442095 227.33457 
L 128.516291 248.695807 
L 134.590488 264.756144 
L 140.664684 281.983462 
L 146.738881 286.250641 
L 152.813077 292.525183 
L 158.887274 299.154229 
L 164.96147 302.511347 
L 171.035667 304.091776 
L 177.109863 307.821477 
L 183.18406 310.180931 
L 189.258256 313.362052 
L 195.332453 316.369004 
L 201.406649 316.181283 
L 207.480846 315.868619 
L 213.555042 320.124916 
L 219.629239 322.415845 
L 225.703435 320.813146 
L 231.777632 321.689591 
L 237.851829 325.106236 
L 243.926025 325.726204 
L 250.000222 324.908009 
L 256.074418 324.636851 
L 262.148615 328.284784 
L 268.222811 327.346336 
L 274.297008 329.961706 
L 280.371204 334.202792 
L 286.445401 337.961764 
L 292.519597 338.636481 
L 298.593794 342.946443 
L 304.66799 343.763552 
L 310.742187 344.326943 
L 316.816383 347.267909 
L 322.89058 348.457121 
L 328.964776 347.544177 
L 335.038973 349.226085 
L 341.113169 353.119457 
L 347.187366 353.451933 
L 353.261562 354.265264 
L 359.335759 351.445081 
L 365.409955 353.169716 
L 371.484152 353.299289 
L 377.558348 353.481226 
L 383.632545 354.099455 
L 389.706741 355.274524 
L 395.780938 354.989047 
L 401.855134 356.169359 
L 407.929331 357.686249 
L 414.003527 355.342919 
L 420.077724 357.400018 
L 426.15192 354.513998 
L 432.226117 355.957784 
L 438.300313 359.664427 
L 444.37451 357.992277 
L 450.448706 357.148932 
L 456.522903 357.900699 
L 462.597099 357.586412 
L 468.671296 357.419058 
L 474.745492 359.398302 
L 480.819689 358.249816 
L 486.893885 357.111844 
L 492.968082 362.528325 
L 499.042278 356.926803 
L 505.116475 361.128518 
L 511.190671 357.740299 
L 517.264868 359.709516 
L 523.339065 360.311441 
L 529.413261 359.447434 
L 535.487458 357.875191 
L 541.561654 360.885443 
L 547.635851 357.743758 
L 553.710047 363.701803 
L 559.784244 361.742804 
L 565.85844 361.522002 
L 571.932637 360.640493 
L 578.006833 361.094997 
L 584.08103 360.590857 
L 590.155226 361.713571 
L 596.229423 362.964619 
L 602.303619 364.857548 
L 608.377816 363.346802 
L 614.452012 360.091686 
L 620.526209 363.602738 
L 626.600405 361.968747 
L 632.674602 362.951875 
L 638.748798 363.214379 
L 644.822995 366.137981 
L 650.897191 364.626168 
L 656.971388 363.048632 
L 663.045584 366.159138 
L 669.119781 365.291565 
L 675.193977 365.85965 
" clip-path="url(#p23e7317cb7)" style="fill: none; stroke: #1f77b4; stroke-width: 1.5; stroke-linecap: square"/>
   </g>
   <g id="line2d_15">
    <path d="M 73.848523 47.039731 
L 79.922719 48.482298 
L 85.996916 56.056281 
L 92.071112 93.151738 
L 98.145309 142.153676 
L 104.219505 171.876264 
L 110.293702 191.13413 
L 116.367898 204.348507 
L 122.442095 211.11541 
L 128.516291 223.271342 
L 134.590488 241.678014 
L 140.664684 259.940326 
L 146.738881 276.291125 
L 152.813077 284.568361 
L 158.887274 291.929162 
L 164.96147 296.360818 
L 171.035667 300.015006 
L 177.109863 302.787615 
L 183.18406 305.449002 
L 189.258256 309.367299 
L 195.332453 308.985389 
L 201.406649 314.697373 
L 207.480846 315.8494 
L 213.555042 316.733106 
L 219.629239 319.619319 
L 225.703435 319.192594 
L 231.777632 321.936369 
L 237.851829 320.367527 
L 243.926025 325.447341 
L 250.000222 326.734435 
L 256.074418 325.97553 
L 262.148615 328.139617 
L 268.222811 327.742653 
L 274.297008 329.516695 
L 280.371204 329.72169 
L 286.445401 332.096937 
L 292.519597 331.910313 
L 298.593794 332.665605 
L 304.66799 333.176286 
L 310.742187 335.507546 
L 316.816383 335.549038 
L 322.89058 336.112537 
L 328.964776 336.348436 
L 335.038973 337.142508 
L 341.113169 336.919183 
L 347.187366 338.832834 
L 353.261562 340.510087 
L 359.335759 342.963419 
L 365.409955 344.206926 
L 371.484152 344.816649 
L 377.558348 344.569547 
L 383.632545 343.973127 
L 389.706741 343.466037 
L 395.780938 343.993803 
L 401.855134 346.749648 
L 407.929331 346.655901 
L 414.003527 348.392892 
L 420.077724 348.134761 
L 426.15192 346.506967 
L 432.226117 349.087355 
L 438.300313 347.759477 
L 444.37451 347.735514 
L 450.448706 348.124305 
L 456.522903 350.410922 
L 462.597099 350.410968 
L 468.671296 350.366862 
L 474.745492 350.658569 
L 480.819689 350.913275 
L 486.893885 351.363355 
L 492.968082 353.93024 
L 499.042278 332.986594 
L 505.116475 349.819612 
L 511.190671 353.36101 
L 517.264868 353.259819 
L 523.339065 354.726162 
L 529.413261 353.963378 
L 535.487458 352.36957 
L 541.561654 353.275533 
L 547.635851 353.718241 
L 553.710047 352.85535 
L 559.784244 355.081843 
L 565.85844 356.269489 
L 571.932637 356.902835 
L 578.006833 357.849831 
L 584.08103 357.820534 
L 590.155226 355.508214 
L 596.229423 354.624391 
L 602.303619 358.766542 
L 608.377816 356.727925 
L 614.452012 356.948478 
L 620.526209 354.567093 
L 626.600405 356.563899 
L 632.674602 359.544509 
L 638.748798 359.187169 
L 644.822995 357.839166 
L 650.897191 358.532684 
L 656.971388 357.016485 
L 663.045584 355.886228 
L 669.119781 357.618252 
L 675.193977 355.121539 
" clip-path="url(#p23e7317cb7)" style="fill: none; stroke: #ff7f0e; stroke-width: 1.5; stroke-linecap: square"/>
   </g>
   <g id="line2d_16">
    <path d="M 73.848523 38.825398 
L 79.922719 40.199712 
L 85.996916 42.398773 
L 92.071112 47.899389 
L 98.145309 71.143684 
L 104.219505 99.420141 
L 110.293702 128.536336 
L 116.367898 152.817204 
L 122.442095 173.739822 
L 128.516291 193.903958 
L 134.590488 218.060787 
L 140.664684 236.486991 
L 146.738881 251.175379 
L 152.813077 265.557511 
L 158.887274 278.500402 
L 164.96147 284.22955 
L 171.035667 295.474672 
L 177.109863 299.089653 
L 183.18406 301.712036 
L 189.258256 309.290113 
L 195.332453 309.052681 
L 201.406649 310.375066 
L 207.480846 313.854086 
L 213.555042 314.640133 
L 219.629239 317.846995 
L 225.703435 316.192483 
L 231.777632 321.057317 
L 237.851829 319.252326 
L 243.926025 322.749564 
L 250.000222 322.821781 
L 256.074418 324.611244 
L 262.148615 325.790651 
L 268.222811 325.16804 
L 274.297008 326.089661 
L 280.371204 327.608996 
L 286.445401 327.902975 
L 292.519597 327.494003 
L 298.593794 325.840881 
L 304.66799 327.717747 
L 310.742187 329.923204 
L 316.816383 329.830819 
L 322.89058 328.566991 
L 328.964776 331.474806 
L 335.038973 331.175738 
L 341.113169 331.515392 
L 347.187366 331.525492 
L 353.261562 331.249279 
L 359.335759 331.927356 
L 365.409955 333.083949 
L 371.484152 332.470955 
L 377.558348 334.06849 
L 383.632545 331.469207 
L 389.706741 332.495414 
L 395.780938 332.988427 
L 401.855134 334.220161 
L 407.929331 332.733491 
L 414.003527 334.873611 
L 420.077724 335.497035 
L 426.15192 334.104854 
L 432.226117 334.690763 
L 438.300313 334.158419 
L 444.37451 335.283814 
L 450.448706 335.381883 
L 456.522903 336.725351 
L 462.597099 334.626961 
L 468.671296 335.714596 
L 474.745492 335.462396 
L 480.819689 339.603749 
L 486.893885 342.162735 
L 492.968082 346.341415 
L 499.042278 351.226491 
L 505.116475 352.316075 
L 511.190671 352.696247 
L 517.264868 354.228562 
L 523.339065 357.217218 
L 529.413261 356.210336 
L 535.487458 360.035292 
L 541.561654 359.805964 
L 547.635851 362.198938 
L 553.710047 361.660762 
L 559.784244 361.65126 
L 565.85844 362.285671 
L 571.932637 362.058537 
L 578.006833 362.934567 
L 584.08103 363.291228 
L 590.155226 363.500342 
L 596.229423 366.252099 
L 602.303619 364.605246 
L 608.377816 364.127006 
L 614.452012 366.705131 
L 620.526209 365.435167 
L 626.600405 367.286201 
L 632.674602 367.637654 
L 638.748798 363.969232 
L 644.822995 365.407968 
L 650.897191 367.23687 
L 656.971388 365.635386 
L 663.045584 368.970852 
L 669.119781 367.174935 
L 675.193977 367.013489 
" clip-path="url(#p23e7317cb7)" style="fill: none; stroke: #2ca02c; stroke-width: 1.5; stroke-linecap: square"/>
   </g>
   <g id="line2d_17">
    <path d="M 73.848523 42.16752 
L 79.922719 44.02418 
L 85.996916 49.322146 
L 92.071112 71.721326 
L 98.145309 118.999294 
L 104.219505 160.128857 
L 110.293702 191.907024 
L 116.367898 223.877832 
L 122.442095 254.420114 
L 128.516291 274.092012 
L 134.590488 287.584007 
L 140.664684 295.120274 
L 146.738881 301.375768 
L 152.813077 306.257739 
L 158.887274 310.441572 
L 164.96147 312.268774 
L 171.035667 313.834852 
L 177.109863 319.542061 
L 183.18406 318.979905 
L 189.258256 320.235192 
L 195.332453 320.489466 
L 201.406649 323.166134 
L 207.480846 323.814204 
L 213.555042 324.432781 
L 219.629239 325.323952 
L 225.703435 326.892166 
L 231.777632 328.029885 
L 237.851829 328.798129 
L 243.926025 329.197731 
L 250.000222 330.512096 
L 256.074418 330.609015 
L 262.148615 329.564863 
L 268.222811 329.756817 
L 274.297008 331.140942 
L 280.371204 331.468741 
L 286.445401 332.083209 
L 292.519597 333.391162 
L 298.593794 332.829993 
L 304.66799 334.333695 
L 310.742187 333.990252 
L 316.816383 333.958224 
L 322.89058 333.940709 
L 328.964776 334.900355 
L 335.038973 334.344536 
L 341.113169 335.21915 
L 347.187366 334.245013 
L 353.261562 335.136525 
L 359.335759 334.930738 
L 365.409955 335.445569 
L 371.484152 335.601953 
L 377.558348 335.699711 
L 383.632545 336.54305 
L 389.706741 335.117169 
L 395.780938 335.678893 
L 401.855134 335.716042 
L 407.929331 336.647709 
L 414.003527 336.598346 
L 420.077724 335.596612 
L 426.15192 337.50483 
L 432.226117 336.882474 
L 438.300313 336.432336 
L 444.37451 338.026636 
L 450.448706 337.996211 
L 456.522903 337.891656 
L 462.597099 338.439456 
L 468.671296 336.013424 
L 474.745492 338.638244 
L 480.819689 338.725557 
L 486.893885 339.417026 
L 492.968082 339.473623 
L 499.042278 339.896297 
L 505.116475 340.775772 
L 511.190671 340.623581 
L 517.264868 340.650816 
L 523.339065 341.714867 
L 529.413261 339.852587 
L 535.487458 341.669249 
L 541.561654 340.700385 
L 547.635851 343.621619 
L 553.710047 341.920372 
L 559.784244 344.7822 
L 565.85844 344.77191 
L 571.932637 345.858948 
L 578.006833 346.220514 
L 584.08103 348.108347 
L 590.155226 348.531717 
L 596.229423 349.840839 
L 602.303619 348.718265 
L 608.377816 349.385731 
L 614.452012 349.463106 
L 620.526209 348.643766 
L 626.600405 352.444705 
L 632.674602 352.544483 
L 638.748798 350.962716 
L 644.822995 352.226044 
L 650.897191 353.529212 
L 656.971388 353.88052 
L 663.045584 354.205045 
L 669.119781 355.479243 
L 675.193977 354.626728 
" clip-path="url(#p23e7317cb7)" style="fill: none; stroke: #d62728; stroke-width: 1.5; stroke-linecap: square"/>
   </g>
   <g id="line2d_18">
    <path d="M 73.848523 44.97582 
L 79.922719 46.314884 
L 85.996916 49.311851 
L 92.071112 67.490862 
L 98.145309 110.990312 
L 104.219505 159.912768 
L 110.293702 203.220509 
L 116.367898 237.243452 
L 122.442095 256.837285 
L 128.516291 271.990883 
L 134.590488 278.607521 
L 140.664684 284.861563 
L 146.738881 291.257784 
L 152.813077 295.701522 
L 158.887274 299.716007 
L 164.96147 305.811805 
L 171.035667 305.100755 
L 177.109863 311.423439 
L 183.18406 313.085248 
L 189.258256 312.97087 
L 195.332453 313.667109 
L 201.406649 317.786747 
L 207.480846 319.455693 
L 213.555042 319.635188 
L 219.629239 321.640023 
L 225.703435 324.072364 
L 231.777632 323.163145 
L 237.851829 325.100978 
L 243.926025 325.560153 
L 250.000222 326.640137 
L 256.074418 326.319576 
L 262.148615 328.36229 
L 268.222811 328.943629 
L 274.297008 328.70037 
L 280.371204 330.094547 
L 286.445401 329.411387 
L 292.519597 330.176669 
L 298.593794 329.063787 
L 304.66799 330.184897 
L 310.742187 330.735465 
L 316.816383 330.79402 
L 322.89058 332.526577 
L 328.964776 332.289823 
L 335.038973 332.363263 
L 341.113169 334.307277 
L 347.187366 332.318001 
L 353.261562 333.41074 
L 359.335759 333.88576 
L 365.409955 332.58518 
L 371.484152 333.615079 
L 377.558348 333.959076 
L 383.632545 333.760474 
L 389.706741 333.549704 
L 395.780938 336.037935 
L 401.855134 334.940293 
L 407.929331 335.241339 
L 414.003527 336.8162 
L 420.077724 334.83099 
L 426.15192 335.563224 
L 432.226117 334.668506 
L 438.300313 335.878489 
L 444.37451 335.813281 
L 450.448706 335.875934 
L 456.522903 335.453157 
L 462.597099 336.764842 
L 468.671296 336.272367 
L 474.745492 335.86943 
L 480.819689 336.584401 
L 486.893885 336.904707 
L 492.968082 336.391293 
L 499.042278 337.065949 
L 505.116475 337.296766 
L 511.190671 336.453633 
L 517.264868 337.307417 
L 523.339065 337.329529 
L 529.413261 336.570797 
L 535.487458 337.185479 
L 541.561654 337.468686 
L 547.635851 337.091018 
L 553.710047 336.756674 
L 559.784244 337.516372 
L 565.85844 336.988821 
L 571.932637 337.82597 
L 578.006833 337.449081 
L 584.08103 337.380354 
L 590.155226 337.370064 
L 596.229423 338.319624 
L 602.303619 337.99138 
L 608.377816 338.02544 
L 614.452012 337.50944 
L 620.526209 337.709112 
L 626.600405 338.854268 
L 632.674602 338.87023 
L 638.748798 338.461906 
L 644.822995 337.597083 
L 650.897191 339.012874 
L 656.971388 337.428604 
L 663.045584 338.966046 
L 669.119781 337.891794 
L 675.193977 338.564509 
" clip-path="url(#p23e7317cb7)" style="fill: none; stroke: #9467bd; stroke-width: 1.5; stroke-linecap: square"/>
   </g>
   <g id="patch_3">
    <path d="M 43.78125 385.478125 
L 43.78125 22.318125 
" style="fill: none; stroke: #000000; stroke-width: 0.8; stroke-linejoin: miter; stroke-linecap: square"/>
   </g>
   <g id="patch_4">
    <path d="M 705.26125 385.478125 
L 705.26125 22.318125 
" style="fill: none; stroke: #000000; stroke-width: 0.8; stroke-linejoin: miter; stroke-linecap: square"/>
   </g>
   <g id="patch_5">
    <path d="M 43.78125 385.478125 
L 705.26125 385.478125 
" style="fill: none; stroke: #000000; stroke-width: 0.8; stroke-linejoin: miter; stroke-linecap: square"/>
   </g>
   <g id="patch_6">
    <path d="M 43.78125 22.318125 
L 705.26125 22.318125 
" style="fill: none; stroke: #000000; stroke-width: 0.8; stroke-linejoin: miter; stroke-linecap: square"/>
   </g>
   <g id="text_16">
    <!-- Combined Train Loss -->
    <g transform="translate(312.669688 16.318125) scale(0.12 -0.12)">
     <defs>
      <path id="DejaVuSans-43" d="M 4122 4306 
L 4122 3641 
Q 3803 3938 3442 4084 
Q 3081 4231 2675 4231 
Q 1875 4231 1450 3742 
Q 1025 3253 1025 2328 
Q 1025 1406 1450 917 
Q 1875 428 2675 428 
Q 3081 428 3442 575 
Q 3803 722 4122 1019 
L 4122 359 
Q 3791 134 3420 21 
Q 3050 -91 2638 -91 
Q 1578 -91 968 557 
Q 359 1206 359 2328 
Q 359 3453 968 4101 
Q 1578 4750 2638 4750 
Q 3056 4750 3426 4639 
Q 3797 4528 4122 4306 
z
" transform="scale(0.015625)"/>
      <path id="DejaVuSans-6d" d="M 3328 2828 
Q 3544 3216 3844 3400 
Q 4144 3584 4550 3584 
Q 5097 3584 5394 3201 
Q 5691 2819 5691 2113 
L 5691 0 
L 5113 0 
L 5113 2094 
Q 5113 2597 4934 2840 
Q 4756 3084 4391 3084 
Q 3944 3084 3684 2787 
Q 3425 2491 3425 1978 
L 3425 0 
L 2847 0 
L 2847 2094 
Q 2847 2600 2669 2842 
Q 2491 3084 2119 3084 
Q 1678 3084 1418 2786 
Q 1159 2488 1159 1978 
L 1159 0 
L 581 0 
L 581 3500 
L 1159 3500 
L 1159 2956 
Q 1356 3278 1631 3431 
Q 1906 3584 2284 3584 
Q 2666 3584 2933 3390 
Q 3200 3197 3328 2828 
z
" transform="scale(0.015625)"/>
      <path id="DejaVuSans-62" d="M 3116 1747 
Q 3116 2381 2855 2742 
Q 2594 3103 2138 3103 
Q 1681 3103 1420 2742 
Q 1159 2381 1159 1747 
Q 1159 1113 1420 752 
Q 1681 391 2138 391 
Q 2594 391 2855 752 
Q 3116 1113 3116 1747 
z
M 1159 2969 
Q 1341 3281 1617 3432 
Q 1894 3584 2278 3584 
Q 2916 3584 3314 3078 
Q 3713 2572 3713 1747 
Q 3713 922 3314 415 
Q 2916 -91 2278 -91 
Q 1894 -91 1617 61 
Q 1341 213 1159 525 
L 1159 0 
L 581 0 
L 581 4863 
L 1159 4863 
L 1159 2969 
z
" transform="scale(0.015625)"/>
      <path id="DejaVuSans-65" d="M 3597 1894 
L 3597 1613 
L 953 1613 
Q 991 1019 1311 708 
Q 1631 397 2203 397 
Q 2534 397 2845 478 
Q 3156 559 3463 722 
L 3463 178 
Q 3153 47 2828 -22 
Q 2503 -91 2169 -91 
Q 1331 -91 842 396 
Q 353 884 353 1716 
Q 353 2575 817 3079 
Q 1281 3584 2069 3584 
Q 2775 3584 3186 3129 
Q 3597 2675 3597 1894 
z
M 3022 2063 
Q 3016 2534 2758 2815 
Q 2500 3097 2075 3097 
Q 1594 3097 1305 2825 
Q 1016 2553 972 2059 
L 3022 2063 
z
" transform="scale(0.015625)"/>
      <path id="DejaVuSans-64" d="M 2906 2969 
L 2906 4863 
L 3481 4863 
L 3481 0 
L 2906 0 
L 2906 525 
Q 2725 213 2448 61 
Q 2172 -91 1784 -91 
Q 1150 -91 751 415 
Q 353 922 353 1747 
Q 353 2572 751 3078 
Q 1150 3584 1784 3584 
Q 2172 3584 2448 3432 
Q 2725 3281 2906 2969 
z
M 947 1747 
Q 947 1113 1208 752 
Q 1469 391 1925 391 
Q 2381 391 2643 752 
Q 2906 1113 2906 1747 
Q 2906 2381 2643 2742 
Q 2381 3103 1925 3103 
Q 1469 3103 1208 2742 
Q 947 2381 947 1747 
z
" transform="scale(0.015625)"/>
     </defs>
     <use xlink:href="#DejaVuSans-43"/>
     <use xlink:href="#DejaVuSans-6f" transform="translate(69.824219 0)"/>
     <use xlink:href="#DejaVuSans-6d" transform="translate(131.005859 0)"/>
     <use xlink:href="#DejaVuSans-62" transform="translate(228.417969 0)"/>
     <use xlink:href="#DejaVuSans-69" transform="translate(291.894531 0)"/>
     <use xlink:href="#DejaVuSans-6e" transform="translate(319.677734 0)"/>
     <use xlink:href="#DejaVuSans-65" transform="translate(383.056641 0)"/>
     <use xlink:href="#DejaVuSans-64" transform="translate(444.580078 0)"/>
     <use xlink:href="#DejaVuSans-20" transform="translate(508.056641 0)"/>
     <use xlink:href="#DejaVuSans-54" transform="translate(539.84375 0)"/>
     <use xlink:href="#DejaVuSans-72" transform="translate(586.177734 0)"/>
     <use xlink:href="#DejaVuSans-61" transform="translate(627.291016 0)"/>
     <use xlink:href="#DejaVuSans-69" transform="translate(688.570312 0)"/>
     <use xlink:href="#DejaVuSans-6e" transform="translate(716.353516 0)"/>
     <use xlink:href="#DejaVuSans-20" transform="translate(779.732422 0)"/>
     <use xlink:href="#DejaVuSans-4c" transform="translate(811.519531 0)"/>
     <use xlink:href="#DejaVuSans-6f" transform="translate(865.482422 0)"/>
     <use xlink:href="#DejaVuSans-73" transform="translate(926.664062 0)"/>
     <use xlink:href="#DejaVuSans-73" transform="translate(978.763672 0)"/>
    </g>
   </g>
   <g id="legend_1">
    <g id="patch_7">
     <path d="M 636.08625 103.70875 
L 698.26125 103.70875 
Q 700.26125 103.70875 700.26125 101.70875 
L 700.26125 29.318125 
Q 700.26125 27.318125 698.26125 27.318125 
L 636.08625 27.318125 
Q 634.08625 27.318125 634.08625 29.318125 
L 634.08625 101.70875 
Q 634.08625 103.70875 636.08625 103.70875 
z
" style="fill: #ffffff; opacity: 0.8; stroke: #cccccc; stroke-linejoin: miter"/>
    </g>
    <g id="line2d_19">
     <path d="M 638.08625 35.416562 
L 648.08625 35.416562 
L 658.08625 35.416562 
" style="fill: none; stroke: #1f77b4; stroke-width: 1.5; stroke-linecap: square"/>
    </g>
    <g id="text_17">
     <!-- Fold 1 -->
     <g transform="translate(666.08625 38.916562) scale(0.1 -0.1)">
      <defs>
       <path id="DejaVuSans-46" d="M 628 4666 
L 3309 4666 
L 3309 4134 
L 1259 4134 
L 1259 2759 
L 3109 2759 
L 3109 2228 
L 1259 2228 
L 1259 0 
L 628 0 
L 628 4666 
z
" transform="scale(0.015625)"/>
       <path id="DejaVuSans-6c" d="M 603 4863 
L 1178 4863 
L 1178 0 
L 603 0 
L 603 4863 
z
" transform="scale(0.015625)"/>
      </defs>
      <use xlink:href="#DejaVuSans-46"/>
      <use xlink:href="#DejaVuSans-6f" transform="translate(53.894531 0)"/>
      <use xlink:href="#DejaVuSans-6c" transform="translate(115.076172 0)"/>
      <use xlink:href="#DejaVuSans-64" transform="translate(142.859375 0)"/>
      <use xlink:href="#DejaVuSans-20" transform="translate(206.335938 0)"/>
      <use xlink:href="#DejaVuSans-31" transform="translate(238.123047 0)"/>
     </g>
    </g>
    <g id="line2d_20">
     <path d="M 638.08625 50.094688 
L 648.08625 50.094688 
L 658.08625 50.094688 
" style="fill: none; stroke: #ff7f0e; stroke-width: 1.5; stroke-linecap: square"/>
    </g>
    <g id="text_18">
     <!-- Fold 2 -->
     <g transform="translate(666.08625 53.594688) scale(0.1 -0.1)">
      <use xlink:href="#DejaVuSans-46"/>
      <use xlink:href="#DejaVuSans-6f" transform="translate(53.894531 0)"/>
      <use xlink:href="#DejaVuSans-6c" transform="translate(115.076172 0)"/>
      <use xlink:href="#DejaVuSans-64" transform="translate(142.859375 0)"/>
      <use xlink:href="#DejaVuSans-20" transform="translate(206.335938 0)"/>
      <use xlink:href="#DejaVuSans-32" transform="translate(238.123047 0)"/>
     </g>
    </g>
    <g id="line2d_21">
     <path d="M 638.08625 64.772812 
L 648.08625 64.772812 
L 658.08625 64.772812 
" style="fill: none; stroke: #2ca02c; stroke-width: 1.5; stroke-linecap: square"/>
    </g>
    <g id="text_19">
     <!-- Fold 3 -->
     <g transform="translate(666.08625 68.272812) scale(0.1 -0.1)">
      <defs>
       <path id="DejaVuSans-33" d="M 2597 2516 
Q 3050 2419 3304 2112 
Q 3559 1806 3559 1356 
Q 3559 666 3084 287 
Q 2609 -91 1734 -91 
Q 1441 -91 1130 -33 
Q 819 25 488 141 
L 488 750 
Q 750 597 1062 519 
Q 1375 441 1716 441 
Q 2309 441 2620 675 
Q 2931 909 2931 1356 
Q 2931 1769 2642 2001 
Q 2353 2234 1838 2234 
L 1294 2234 
L 1294 2753 
L 1863 2753 
Q 2328 2753 2575 2939 
Q 2822 3125 2822 3475 
Q 2822 3834 2567 4026 
Q 2313 4219 1838 4219 
Q 1578 4219 1281 4162 
Q 984 4106 628 3988 
L 628 4550 
Q 988 4650 1302 4700 
Q 1616 4750 1894 4750 
Q 2613 4750 3031 4423 
Q 3450 4097 3450 3541 
Q 3450 3153 3228 2886 
Q 3006 2619 2597 2516 
z
" transform="scale(0.015625)"/>
      </defs>
      <use xlink:href="#DejaVuSans-46"/>
      <use xlink:href="#DejaVuSans-6f" transform="translate(53.894531 0)"/>
      <use xlink:href="#DejaVuSans-6c" transform="translate(115.076172 0)"/>
      <use xlink:href="#DejaVuSans-64" transform="translate(142.859375 0)"/>
      <use xlink:href="#DejaVuSans-20" transform="translate(206.335938 0)"/>
      <use xlink:href="#DejaVuSans-33" transform="translate(238.123047 0)"/>
     </g>
    </g>
    <g id="line2d_22">
     <path d="M 638.08625 79.450938 
L 648.08625 79.450938 
L 658.08625 79.450938 
" style="fill: none; stroke: #d62728; stroke-width: 1.5; stroke-linecap: square"/>
    </g>
    <g id="text_20">
     <!-- Fold 4 -->
     <g transform="translate(666.08625 82.950938) scale(0.1 -0.1)">
      <use xlink:href="#DejaVuSans-46"/>
      <use xlink:href="#DejaVuSans-6f" transform="translate(53.894531 0)"/>
      <use xlink:href="#DejaVuSans-6c" transform="translate(115.076172 0)"/>
      <use xlink:href="#DejaVuSans-64" transform="translate(142.859375 0)"/>
      <use xlink:href="#DejaVuSans-20" transform="translate(206.335938 0)"/>
      <use xlink:href="#DejaVuSans-34" transform="translate(238.123047 0)"/>
     </g>
    </g>
    <g id="line2d_23">
     <path d="M 638.08625 94.129063 
L 648.08625 94.129063 
L 658.08625 94.129063 
" style="fill: none; stroke: #9467bd; stroke-width: 1.5; stroke-linecap: square"/>
    </g>
    <g id="text_21">
     <!-- Fold 5 -->
     <g transform="translate(666.08625 97.629063) scale(0.1 -0.1)">
      <defs>
       <path id="DejaVuSans-35" d="M 691 4666 
L 3169 4666 
L 3169 4134 
L 1269 4134 
L 1269 2991 
Q 1406 3038 1543 3061 
Q 1681 3084 1819 3084 
Q 2600 3084 3056 2656 
Q 3513 2228 3513 1497 
Q 3513 744 3044 326 
Q 2575 -91 1722 -91 
Q 1428 -91 1123 -41 
Q 819 9 494 109 
L 494 744 
Q 775 591 1075 516 
Q 1375 441 1709 441 
Q 2250 441 2565 725 
Q 2881 1009 2881 1497 
Q 2881 1984 2565 2268 
Q 2250 2553 1709 2553 
Q 1456 2553 1204 2497 
Q 953 2441 691 2322 
L 691 4666 
z
" transform="scale(0.015625)"/>
      </defs>
      <use xlink:href="#DejaVuSans-46"/>
      <use xlink:href="#DejaVuSans-6f" transform="translate(53.894531 0)"/>
      <use xlink:href="#DejaVuSans-6c" transform="translate(115.076172 0)"/>
      <use xlink:href="#DejaVuSans-64" transform="translate(142.859375 0)"/>
      <use xlink:href="#DejaVuSans-20" transform="translate(206.335938 0)"/>
      <use xlink:href="#DejaVuSans-35" transform="translate(238.123047 0)"/>
     </g>
    </g>
   </g>
  </g>
 </g>
 <defs>
  <clipPath id="p23e7317cb7">
   <rect x="43.78125" y="22.318125" width="661.48" height="363.16"/>
  </clipPath>
 </defs>
</svg>
