<?xml version="1.0" encoding="utf-8" standalone="no"?>
<!DOCTYPE svg PUBLIC "-//W3C//DTD SVG 1.1//EN"
  "http://www.w3.org/Graphics/SVG/1.1/DTD/svg11.dtd">
<svg xmlns:xlink="http://www.w3.org/1999/xlink" width="712.37125pt" height="423.034375pt" viewBox="0 0 712.37125 423.034375" xmlns="http://www.w3.org/2000/svg" version="1.1">
 <metadata>
  <rdf:RDF xmlns:dc="http://purl.org/dc/elements/1.1/" xmlns:cc="http://creativecommons.org/ns#" xmlns:rdf="http://www.w3.org/1999/02/22-rdf-syntax-ns#">
   <cc:Work>
    <dc:type rdf:resource="http://purl.org/dc/dcmitype/StillImage"/>
    <dc:date>2025-06-27T15:51:42.265325</dc:date>
    <dc:format>image/svg+xml</dc:format>
    <dc:creator>
     <cc:Agent>
      <dc:title>Matplotlib v3.10.0, https://matplotlib.org/</dc:title>
     </cc:Agent>
    </dc:creator>
   </cc:Work>
  </rdf:RDF>
 </metadata>
 <defs>
  <style type="text/css">*{stroke-linejoin: round; stroke-linecap: butt}</style>
 </defs>
 <g id="figure_1">
  <g id="patch_1">
   <path d="M 0 423.034375 
L 712.37125 423.034375 
L 712.37125 0 
L 0 0 
z
" style="fill: #ffffff"/>
  </g>
  <g id="axes_1">
   <g id="patch_2">
    <path d="M 43.78125 385.478125 
L 705.17125 385.478125 
L 705.17125 22.318125 
L 43.78125 22.318125 
z
" style="fill: #ffffff"/>
   </g>
   <g id="matplotlib.axis_1">
    <g id="xtick_1">
     <g id="line2d_1">
      <defs>
       <path id="m774e2dd5de" d="M 0 0 
L 0 3.5 
" style="stroke: #000000; stroke-width: 0.8"/>
      </defs>
      <g>
       <use xlink:href="#m774e2dd5de" x="67.771062" y="385.478125" style="stroke: #000000; stroke-width: 0.8"/>
      </g>
     </g>
     <g id="text_1">
      <!-- 0 -->
      <g transform="translate(64.589812 400.076562) scale(0.1 -0.1)">
       <defs>
        <path id="DejaVuSans-30" d="M 2034 4250 
Q 1547 4250 1301 3770 
Q 1056 3291 1056 2328 
Q 1056 1369 1301 889 
Q 1547 409 2034 409 
Q 2525 409 2770 889 
Q 3016 1369 3016 2328 
Q 3016 3291 2770 3770 
Q 2525 4250 2034 4250 
z
M 2034 4750 
Q 2819 4750 3233 4129 
Q 3647 3509 3647 2328 
Q 3647 1150 3233 529 
Q 2819 -91 2034 -91 
Q 1250 -91 836 529 
Q 422 1150 422 2328 
Q 422 3509 836 4129 
Q 1250 4750 2034 4750 
z
" transform="scale(0.015625)"/>
       </defs>
       <use xlink:href="#DejaVuSans-30"/>
      </g>
     </g>
    </g>
    <g id="xtick_2">
     <g id="line2d_2">
      <g>
       <use xlink:href="#m774e2dd5de" x="189.238463" y="385.478125" style="stroke: #000000; stroke-width: 0.8"/>
      </g>
     </g>
     <g id="text_2">
      <!-- 20 -->
      <g transform="translate(182.875963 400.076562) scale(0.1 -0.1)">
       <defs>
        <path id="DejaVuSans-32" d="M 1228 531 
L 3431 531 
L 3431 0 
L 469 0 
L 469 531 
Q 828 903 1448 1529 
Q 2069 2156 2228 2338 
Q 2531 2678 2651 2914 
Q 2772 3150 2772 3378 
Q 2772 3750 2511 3984 
Q 2250 4219 1831 4219 
Q 1534 4219 1204 4116 
Q 875 4013 500 3803 
L 500 4441 
Q 881 4594 1212 4672 
Q 1544 4750 1819 4750 
Q 2544 4750 2975 4387 
Q 3406 4025 3406 3419 
Q 3406 3131 3298 2873 
Q 3191 2616 2906 2266 
Q 2828 2175 2409 1742 
Q 1991 1309 1228 531 
z
" transform="scale(0.015625)"/>
       </defs>
       <use xlink:href="#DejaVuSans-32"/>
       <use xlink:href="#DejaVuSans-30" transform="translate(63.623047 0)"/>
      </g>
     </g>
    </g>
    <g id="xtick_3">
     <g id="line2d_3">
      <g>
       <use xlink:href="#m774e2dd5de" x="310.705864" y="385.478125" style="stroke: #000000; stroke-width: 0.8"/>
      </g>
     </g>
     <g id="text_3">
      <!-- 40 -->
      <g transform="translate(304.343364 400.076562) scale(0.1 -0.1)">
       <defs>
        <path id="DejaVuSans-34" d="M 2419 4116 
L 825 1625 
L 2419 1625 
L 2419 4116 
z
M 2253 4666 
L 3047 4666 
L 3047 1625 
L 3713 1625 
L 3713 1100 
L 3047 1100 
L 3047 0 
L 2419 0 
L 2419 1100 
L 313 1100 
L 313 1709 
L 2253 4666 
z
" transform="scale(0.015625)"/>
       </defs>
       <use xlink:href="#DejaVuSans-34"/>
       <use xlink:href="#DejaVuSans-30" transform="translate(63.623047 0)"/>
      </g>
     </g>
    </g>
    <g id="xtick_4">
     <g id="line2d_4">
      <g>
       <use xlink:href="#m774e2dd5de" x="432.173266" y="385.478125" style="stroke: #000000; stroke-width: 0.8"/>
      </g>
     </g>
     <g id="text_4">
      <!-- 60 -->
      <g transform="translate(425.810766 400.076562) scale(0.1 -0.1)">
       <defs>
        <path id="DejaVuSans-36" d="M 2113 2584 
Q 1688 2584 1439 2293 
Q 1191 2003 1191 1497 
Q 1191 994 1439 701 
Q 1688 409 2113 409 
Q 2538 409 2786 701 
Q 3034 994 3034 1497 
Q 3034 2003 2786 2293 
Q 2538 2584 2113 2584 
z
M 3366 4563 
L 3366 3988 
Q 3128 4100 2886 4159 
Q 2644 4219 2406 4219 
Q 1781 4219 1451 3797 
Q 1122 3375 1075 2522 
Q 1259 2794 1537 2939 
Q 1816 3084 2150 3084 
Q 2853 3084 3261 2657 
Q 3669 2231 3669 1497 
Q 3669 778 3244 343 
Q 2819 -91 2113 -91 
Q 1303 -91 875 529 
Q 447 1150 447 2328 
Q 447 3434 972 4092 
Q 1497 4750 2381 4750 
Q 2619 4750 2861 4703 
Q 3103 4656 3366 4563 
z
" transform="scale(0.015625)"/>
       </defs>
       <use xlink:href="#DejaVuSans-36"/>
       <use xlink:href="#DejaVuSans-30" transform="translate(63.623047 0)"/>
      </g>
     </g>
    </g>
    <g id="xtick_5">
     <g id="line2d_5">
      <g>
       <use xlink:href="#m774e2dd5de" x="553.640667" y="385.478125" style="stroke: #000000; stroke-width: 0.8"/>
      </g>
     </g>
     <g id="text_5">
      <!-- 80 -->
      <g transform="translate(547.278167 400.076562) scale(0.1 -0.1)">
       <defs>
        <path id="DejaVuSans-38" d="M 2034 2216 
Q 1584 2216 1326 1975 
Q 1069 1734 1069 1313 
Q 1069 891 1326 650 
Q 1584 409 2034 409 
Q 2484 409 2743 651 
Q 3003 894 3003 1313 
Q 3003 1734 2745 1975 
Q 2488 2216 2034 2216 
z
M 1403 2484 
Q 997 2584 770 2862 
Q 544 3141 544 3541 
Q 544 4100 942 4425 
Q 1341 4750 2034 4750 
Q 2731 4750 3128 4425 
Q 3525 4100 3525 3541 
Q 3525 3141 3298 2862 
Q 3072 2584 2669 2484 
Q 3125 2378 3379 2068 
Q 3634 1759 3634 1313 
Q 3634 634 3220 271 
Q 2806 -91 2034 -91 
Q 1263 -91 848 271 
Q 434 634 434 1313 
Q 434 1759 690 2068 
Q 947 2378 1403 2484 
z
M 1172 3481 
Q 1172 3119 1398 2916 
Q 1625 2713 2034 2713 
Q 2441 2713 2670 2916 
Q 2900 3119 2900 3481 
Q 2900 3844 2670 4047 
Q 2441 4250 2034 4250 
Q 1625 4250 1398 4047 
Q 1172 3844 1172 3481 
z
" transform="scale(0.015625)"/>
       </defs>
       <use xlink:href="#DejaVuSans-38"/>
       <use xlink:href="#DejaVuSans-30" transform="translate(63.623047 0)"/>
      </g>
     </g>
    </g>
    <g id="xtick_6">
     <g id="line2d_6">
      <g>
       <use xlink:href="#m774e2dd5de" x="675.108068" y="385.478125" style="stroke: #000000; stroke-width: 0.8"/>
      </g>
     </g>
     <g id="text_6">
      <!-- 100 -->
      <g transform="translate(665.564318 400.076562) scale(0.1 -0.1)">
       <defs>
        <path id="DejaVuSans-31" d="M 794 531 
L 1825 531 
L 1825 4091 
L 703 3866 
L 703 4441 
L 1819 4666 
L 2450 4666 
L 2450 531 
L 3481 531 
L 3481 0 
L 794 0 
L 794 531 
z
" transform="scale(0.015625)"/>
       </defs>
       <use xlink:href="#DejaVuSans-31"/>
       <use xlink:href="#DejaVuSans-30" transform="translate(63.623047 0)"/>
       <use xlink:href="#DejaVuSans-30" transform="translate(127.246094 0)"/>
      </g>
     </g>
    </g>
    <g id="text_7">
     <!-- Epoch -->
     <g transform="translate(359.165313 413.754687) scale(0.1 -0.1)">
      <defs>
       <path id="DejaVuSans-45" d="M 628 4666 
L 3578 4666 
L 3578 4134 
L 1259 4134 
L 1259 2753 
L 3481 2753 
L 3481 2222 
L 1259 2222 
L 1259 531 
L 3634 531 
L 3634 0 
L 628 0 
L 628 4666 
z
" transform="scale(0.015625)"/>
       <path id="DejaVuSans-70" d="M 1159 525 
L 1159 -1331 
L 581 -1331 
L 581 3500 
L 1159 3500 
L 1159 2969 
Q 1341 3281 1617 3432 
Q 1894 3584 2278 3584 
Q 2916 3584 3314 3078 
Q 3713 2572 3713 1747 
Q 3713 922 3314 415 
Q 2916 -91 2278 -91 
Q 1894 -91 1617 61 
Q 1341 213 1159 525 
z
M 3116 1747 
Q 3116 2381 2855 2742 
Q 2594 3103 2138 3103 
Q 1681 3103 1420 2742 
Q 1159 2381 1159 1747 
Q 1159 1113 1420 752 
Q 1681 391 2138 391 
Q 2594 391 2855 752 
Q 3116 1113 3116 1747 
z
" transform="scale(0.015625)"/>
       <path id="DejaVuSans-6f" d="M 1959 3097 
Q 1497 3097 1228 2736 
Q 959 2375 959 1747 
Q 959 1119 1226 758 
Q 1494 397 1959 397 
Q 2419 397 2687 759 
Q 2956 1122 2956 1747 
Q 2956 2369 2687 2733 
Q 2419 3097 1959 3097 
z
M 1959 3584 
Q 2709 3584 3137 3096 
Q 3566 2609 3566 1747 
Q 3566 888 3137 398 
Q 2709 -91 1959 -91 
Q 1206 -91 779 398 
Q 353 888 353 1747 
Q 353 2609 779 3096 
Q 1206 3584 1959 3584 
z
" transform="scale(0.015625)"/>
       <path id="DejaVuSans-63" d="M 3122 3366 
L 3122 2828 
Q 2878 2963 2633 3030 
Q 2388 3097 2138 3097 
Q 1578 3097 1268 2742 
Q 959 2388 959 1747 
Q 959 1106 1268 751 
Q 1578 397 2138 397 
Q 2388 397 2633 464 
Q 2878 531 3122 666 
L 3122 134 
Q 2881 22 2623 -34 
Q 2366 -91 2075 -91 
Q 1284 -91 818 406 
Q 353 903 353 1747 
Q 353 2603 823 3093 
Q 1294 3584 2113 3584 
Q 2378 3584 2631 3529 
Q 2884 3475 3122 3366 
z
" transform="scale(0.015625)"/>
       <path id="DejaVuSans-68" d="M 3513 2113 
L 3513 0 
L 2938 0 
L 2938 2094 
Q 2938 2591 2744 2837 
Q 2550 3084 2163 3084 
Q 1697 3084 1428 2787 
Q 1159 2491 1159 1978 
L 1159 0 
L 581 0 
L 581 4863 
L 1159 4863 
L 1159 2956 
Q 1366 3272 1645 3428 
Q 1925 3584 2291 3584 
Q 2894 3584 3203 3211 
Q 3513 2838 3513 2113 
z
" transform="scale(0.015625)"/>
      </defs>
      <use xlink:href="#DejaVuSans-45"/>
      <use xlink:href="#DejaVuSans-70" transform="translate(63.183594 0)"/>
      <use xlink:href="#DejaVuSans-6f" transform="translate(126.660156 0)"/>
      <use xlink:href="#DejaVuSans-63" transform="translate(187.841797 0)"/>
      <use xlink:href="#DejaVuSans-68" transform="translate(242.822266 0)"/>
     </g>
    </g>
   </g>
   <g id="matplotlib.axis_2">
    <g id="ytick_1">
     <g id="line2d_7">
      <defs>
       <path id="m23e294a19e" d="M 0 0 
L -3.5 0 
" style="stroke: #000000; stroke-width: 0.8"/>
      </defs>
      <g>
       <use xlink:href="#m23e294a19e" x="43.78125" y="351.710652" style="stroke: #000000; stroke-width: 0.8"/>
      </g>
     </g>
     <g id="text_8">
      <!-- 1.2 -->
      <g transform="translate(20.878125 355.509871) scale(0.1 -0.1)">
       <defs>
        <path id="DejaVuSans-2e" d="M 684 794 
L 1344 794 
L 1344 0 
L 684 0 
L 684 794 
z
" transform="scale(0.015625)"/>
       </defs>
       <use xlink:href="#DejaVuSans-31"/>
       <use xlink:href="#DejaVuSans-2e" transform="translate(63.623047 0)"/>
       <use xlink:href="#DejaVuSans-32" transform="translate(95.410156 0)"/>
      </g>
     </g>
    </g>
    <g id="ytick_2">
     <g id="line2d_8">
      <g>
       <use xlink:href="#m23e294a19e" x="43.78125" y="299.752032" style="stroke: #000000; stroke-width: 0.8"/>
      </g>
     </g>
     <g id="text_9">
      <!-- 1.3 -->
      <g transform="translate(20.878125 303.551251) scale(0.1 -0.1)">
       <defs>
        <path id="DejaVuSans-33" d="M 2597 2516 
Q 3050 2419 3304 2112 
Q 3559 1806 3559 1356 
Q 3559 666 3084 287 
Q 2609 -91 1734 -91 
Q 1441 -91 1130 -33 
Q 819 25 488 141 
L 488 750 
Q 750 597 1062 519 
Q 1375 441 1716 441 
Q 2309 441 2620 675 
Q 2931 909 2931 1356 
Q 2931 1769 2642 2001 
Q 2353 2234 1838 2234 
L 1294 2234 
L 1294 2753 
L 1863 2753 
Q 2328 2753 2575 2939 
Q 2822 3125 2822 3475 
Q 2822 3834 2567 4026 
Q 2313 4219 1838 4219 
Q 1578 4219 1281 4162 
Q 984 4106 628 3988 
L 628 4550 
Q 988 4650 1302 4700 
Q 1616 4750 1894 4750 
Q 2613 4750 3031 4423 
Q 3450 4097 3450 3541 
Q 3450 3153 3228 2886 
Q 3006 2619 2597 2516 
z
" transform="scale(0.015625)"/>
       </defs>
       <use xlink:href="#DejaVuSans-31"/>
       <use xlink:href="#DejaVuSans-2e" transform="translate(63.623047 0)"/>
       <use xlink:href="#DejaVuSans-33" transform="translate(95.410156 0)"/>
      </g>
     </g>
    </g>
    <g id="ytick_3">
     <g id="line2d_9">
      <g>
       <use xlink:href="#m23e294a19e" x="43.78125" y="247.793411" style="stroke: #000000; stroke-width: 0.8"/>
      </g>
     </g>
     <g id="text_10">
      <!-- 1.4 -->
      <g transform="translate(20.878125 251.59263) scale(0.1 -0.1)">
       <use xlink:href="#DejaVuSans-31"/>
       <use xlink:href="#DejaVuSans-2e" transform="translate(63.623047 0)"/>
       <use xlink:href="#DejaVuSans-34" transform="translate(95.410156 0)"/>
      </g>
     </g>
    </g>
    <g id="ytick_4">
     <g id="line2d_10">
      <g>
       <use xlink:href="#m23e294a19e" x="43.78125" y="195.834791" style="stroke: #000000; stroke-width: 0.8"/>
      </g>
     </g>
     <g id="text_11">
      <!-- 1.5 -->
      <g transform="translate(20.878125 199.63401) scale(0.1 -0.1)">
       <defs>
        <path id="DejaVuSans-35" d="M 691 4666 
L 3169 4666 
L 3169 4134 
L 1269 4134 
L 1269 2991 
Q 1406 3038 1543 3061 
Q 1681 3084 1819 3084 
Q 2600 3084 3056 2656 
Q 3513 2228 3513 1497 
Q 3513 744 3044 326 
Q 2575 -91 1722 -91 
Q 1428 -91 1123 -41 
Q 819 9 494 109 
L 494 744 
Q 775 591 1075 516 
Q 1375 441 1709 441 
Q 2250 441 2565 725 
Q 2881 1009 2881 1497 
Q 2881 1984 2565 2268 
Q 2250 2553 1709 2553 
Q 1456 2553 1204 2497 
Q 953 2441 691 2322 
L 691 4666 
z
" transform="scale(0.015625)"/>
       </defs>
       <use xlink:href="#DejaVuSans-31"/>
       <use xlink:href="#DejaVuSans-2e" transform="translate(63.623047 0)"/>
       <use xlink:href="#DejaVuSans-35" transform="translate(95.410156 0)"/>
      </g>
     </g>
    </g>
    <g id="ytick_5">
     <g id="line2d_11">
      <g>
       <use xlink:href="#m23e294a19e" x="43.78125" y="143.876171" style="stroke: #000000; stroke-width: 0.8"/>
      </g>
     </g>
     <g id="text_12">
      <!-- 1.6 -->
      <g transform="translate(20.878125 147.675389) scale(0.1 -0.1)">
       <use xlink:href="#DejaVuSans-31"/>
       <use xlink:href="#DejaVuSans-2e" transform="translate(63.623047 0)"/>
       <use xlink:href="#DejaVuSans-36" transform="translate(95.410156 0)"/>
      </g>
     </g>
    </g>
    <g id="ytick_6">
     <g id="line2d_12">
      <g>
       <use xlink:href="#m23e294a19e" x="43.78125" y="91.91755" style="stroke: #000000; stroke-width: 0.8"/>
      </g>
     </g>
     <g id="text_13">
      <!-- 1.7 -->
      <g transform="translate(20.878125 95.716769) scale(0.1 -0.1)">
       <defs>
        <path id="DejaVuSans-37" d="M 525 4666 
L 3525 4666 
L 3525 4397 
L 1831 0 
L 1172 0 
L 2766 4134 
L 525 4134 
L 525 4666 
z
" transform="scale(0.015625)"/>
       </defs>
       <use xlink:href="#DejaVuSans-31"/>
       <use xlink:href="#DejaVuSans-2e" transform="translate(63.623047 0)"/>
       <use xlink:href="#DejaVuSans-37" transform="translate(95.410156 0)"/>
      </g>
     </g>
    </g>
    <g id="ytick_7">
     <g id="line2d_13">
      <g>
       <use xlink:href="#m23e294a19e" x="43.78125" y="39.95893" style="stroke: #000000; stroke-width: 0.8"/>
      </g>
     </g>
     <g id="text_14">
      <!-- 1.8 -->
      <g transform="translate(20.878125 43.758148) scale(0.1 -0.1)">
       <use xlink:href="#DejaVuSans-31"/>
       <use xlink:href="#DejaVuSans-2e" transform="translate(63.623047 0)"/>
       <use xlink:href="#DejaVuSans-38" transform="translate(95.410156 0)"/>
      </g>
     </g>
    </g>
    <g id="text_15">
     <!-- Train Loss -->
     <g transform="translate(14.798438 228.448125) rotate(-90) scale(0.1 -0.1)">
      <defs>
       <path id="DejaVuSans-54" d="M -19 4666 
L 3928 4666 
L 3928 4134 
L 2272 4134 
L 2272 0 
L 1638 0 
L 1638 4134 
L -19 4134 
L -19 4666 
z
" transform="scale(0.015625)"/>
       <path id="DejaVuSans-72" d="M 2631 2963 
Q 2534 3019 2420 3045 
Q 2306 3072 2169 3072 
Q 1681 3072 1420 2755 
Q 1159 2438 1159 1844 
L 1159 0 
L 581 0 
L 581 3500 
L 1159 3500 
L 1159 2956 
Q 1341 3275 1631 3429 
Q 1922 3584 2338 3584 
Q 2397 3584 2469 3576 
Q 2541 3569 2628 3553 
L 2631 2963 
z
" transform="scale(0.015625)"/>
       <path id="DejaVuSans-61" d="M 2194 1759 
Q 1497 1759 1228 1600 
Q 959 1441 959 1056 
Q 959 750 1161 570 
Q 1363 391 1709 391 
Q 2188 391 2477 730 
Q 2766 1069 2766 1631 
L 2766 1759 
L 2194 1759 
z
M 3341 1997 
L 3341 0 
L 2766 0 
L 2766 531 
Q 2569 213 2275 61 
Q 1981 -91 1556 -91 
Q 1019 -91 701 211 
Q 384 513 384 1019 
Q 384 1609 779 1909 
Q 1175 2209 1959 2209 
L 2766 2209 
L 2766 2266 
Q 2766 2663 2505 2880 
Q 2244 3097 1772 3097 
Q 1472 3097 1187 3025 
Q 903 2953 641 2809 
L 641 3341 
Q 956 3463 1253 3523 
Q 1550 3584 1831 3584 
Q 2591 3584 2966 3190 
Q 3341 2797 3341 1997 
z
" transform="scale(0.015625)"/>
       <path id="DejaVuSans-69" d="M 603 3500 
L 1178 3500 
L 1178 0 
L 603 0 
L 603 3500 
z
M 603 4863 
L 1178 4863 
L 1178 4134 
L 603 4134 
L 603 4863 
z
" transform="scale(0.015625)"/>
       <path id="DejaVuSans-6e" d="M 3513 2113 
L 3513 0 
L 2938 0 
L 2938 2094 
Q 2938 2591 2744 2837 
Q 2550 3084 2163 3084 
Q 1697 3084 1428 2787 
Q 1159 2491 1159 1978 
L 1159 0 
L 581 0 
L 581 3500 
L 1159 3500 
L 1159 2956 
Q 1366 3272 1645 3428 
Q 1925 3584 2291 3584 
Q 2894 3584 3203 3211 
Q 3513 2838 3513 2113 
z
" transform="scale(0.015625)"/>
       <path id="DejaVuSans-20" transform="scale(0.015625)"/>
       <path id="DejaVuSans-4c" d="M 628 4666 
L 1259 4666 
L 1259 531 
L 3531 531 
L 3531 0 
L 628 0 
L 628 4666 
z
" transform="scale(0.015625)"/>
       <path id="DejaVuSans-73" d="M 2834 3397 
L 2834 2853 
Q 2591 2978 2328 3040 
Q 2066 3103 1784 3103 
Q 1356 3103 1142 2972 
Q 928 2841 928 2578 
Q 928 2378 1081 2264 
Q 1234 2150 1697 2047 
L 1894 2003 
Q 2506 1872 2764 1633 
Q 3022 1394 3022 966 
Q 3022 478 2636 193 
Q 2250 -91 1575 -91 
Q 1294 -91 989 -36 
Q 684 19 347 128 
L 347 722 
Q 666 556 975 473 
Q 1284 391 1588 391 
Q 1994 391 2212 530 
Q 2431 669 2431 922 
Q 2431 1156 2273 1281 
Q 2116 1406 1581 1522 
L 1381 1569 
Q 847 1681 609 1914 
Q 372 2147 372 2553 
Q 372 3047 722 3315 
Q 1072 3584 1716 3584 
Q 2034 3584 2315 3537 
Q 2597 3491 2834 3397 
z
" transform="scale(0.015625)"/>
      </defs>
      <use xlink:href="#DejaVuSans-54"/>
      <use xlink:href="#DejaVuSans-72" transform="translate(46.333984 0)"/>
      <use xlink:href="#DejaVuSans-61" transform="translate(87.447266 0)"/>
      <use xlink:href="#DejaVuSans-69" transform="translate(148.726562 0)"/>
      <use xlink:href="#DejaVuSans-6e" transform="translate(176.509766 0)"/>
      <use xlink:href="#DejaVuSans-20" transform="translate(239.888672 0)"/>
      <use xlink:href="#DejaVuSans-4c" transform="translate(271.675781 0)"/>
      <use xlink:href="#DejaVuSans-6f" transform="translate(325.638672 0)"/>
      <use xlink:href="#DejaVuSans-73" transform="translate(386.820312 0)"/>
      <use xlink:href="#DejaVuSans-73" transform="translate(438.919922 0)"/>
     </g>
    </g>
   </g>
   <g id="line2d_14">
    <path d="M 73.844432 172.551735 
L 79.917802 252.16349 
L 85.991172 268.836348 
L 92.064542 267.854181 
L 98.137912 309.045032 
L 104.211282 317.163761 
L 110.284652 334.360355 
L 116.358022 300.070078 
L 122.431392 291.094129 
L 128.504762 303.106191 
L 134.578132 280.315691 
L 140.651503 298.985745 
L 146.724873 335.402132 
L 152.798243 341.30774 
L 158.871613 322.55601 
L 164.944983 252.141372 
L 171.018353 248.610702 
L 177.091723 255.847475 
L 183.165093 262.478814 
L 189.238463 284.754342 
L 195.311833 282.758238 
L 201.385203 294.338206 
L 207.458573 303.620281 
L 213.531943 308.640942 
L 219.605313 315.396344 
L 225.678683 262.845158 
L 231.752053 233.41966 
L 237.825424 199.077302 
L 243.898794 265.35482 
L 249.972164 301.022602 
L 256.045534 335.969087 
L 262.118904 368.970852 
L 268.192274 312.092846 
L 274.265644 207.613431 
L 280.339014 192.198663 
L 286.412384 255.810623 
L 292.485754 245.814725 
L 298.559124 278.116523 
L 304.632494 274.720634 
L 310.705864 279.567941 
L 316.779234 299.241382 
L 322.852604 265.595779 
L 328.925975 263.730122 
L 334.999345 239.386167 
L 341.072715 241.518093 
L 347.146085 271.638273 
L 353.219455 274.089148 
L 359.292825 185.843444 
L 365.366195 173.506067 
L 371.439565 178.883247 
L 377.512935 195.673406 
L 383.586305 217.223333 
L 389.659675 187.620632 
L 395.733045 173.386133 
L 401.806415 239.445731 
L 407.879785 255.073593 
L 413.953155 223.648945 
L 420.026525 150.737536 
L 426.099896 165.707666 
L 432.173266 171.729312 
L 438.246636 187.451643 
L 444.320006 186.269635 
L 450.393376 220.740764 
L 456.466746 227.593418 
L 462.540116 218.473965 
L 468.613486 242.636966 
L 474.686856 212.752917 
L 480.760226 241.338254 
L 486.833596 225.198842 
L 492.906966 209.075893 
L 498.980336 201.203044 
L 505.053706 218.023609 
L 511.127076 264.637906 
L 517.200447 261.333765 
L 523.273817 285.559106 
L 529.347187 281.055926 
L 535.420557 284.701176 
L 541.493927 211.855892 
L 547.567297 204.822489 
L 553.640667 248.523092 
L 559.714037 257.45907 
L 565.787407 216.542209 
L 571.860777 244.317852 
L 577.934147 268.41011 
L 584.007517 198.700486 
L 590.080887 203.022117 
L 596.154257 259.838631 
L 602.227627 246.341603 
L 608.300997 198.945295 
L 614.374368 215.438913 
L 620.447738 208.891665 
L 626.521108 190.877859 
L 632.594478 240.352074 
L 638.667848 222.429372 
L 644.741218 157.219661 
L 650.814588 108.942817 
L 656.887958 161.651306 
L 662.961328 200.911231 
L 669.034698 169.534909 
L 675.108068 184.758357 
" clip-path="url(#p54504cf0df)" style="fill: none; stroke: #1f77b4; stroke-width: 1.5; stroke-linecap: square"/>
   </g>
   <g id="line2d_15">
    <path d="M 73.844432 107.280539 
L 79.917802 150.561557 
L 85.991172 167.13201 
L 92.064542 185.988804 
L 98.137912 149.379305 
L 104.211282 97.277953 
L 110.284652 61.332462 
L 116.358022 79.336387 
L 122.431392 135.786975 
L 128.504762 136.05998 
L 134.578132 168.04303 
L 140.651503 136.608013 
L 146.724873 149.586562 
L 152.798243 182.613881 
L 158.871613 168.133772 
L 164.944983 205.518538 
L 171.018353 192.410503 
L 177.091723 143.483438 
L 183.165093 61.932042 
L 189.238463 69.582472 
L 195.311833 113.209811 
L 201.385203 176.050457 
L 207.458573 164.436666 
L 213.531943 83.00164 
L 219.605313 87.422648 
L 225.678683 115.975505 
L 231.752053 85.166939 
L 237.825424 63.31905 
L 243.898794 61.566012 
L 249.972164 60.965236 
L 256.045534 59.732779 
L 262.118904 62.201205 
L 268.192274 64.900614 
L 274.265644 59.58195 
L 280.339014 61.597675 
L 286.412384 62.4982 
L 292.485754 60.448347 
L 298.559124 58.470823 
L 304.632494 61.451818 
L 310.705864 61.163828 
L 316.779234 64.552015 
L 322.852604 61.528848 
L 328.925975 59.093682 
L 334.999345 62.840121 
L 341.072715 61.975142 
L 347.146085 62.973359 
L 353.219455 63.17626 
L 359.292825 61.936386 
L 365.366195 61.017229 
L 371.439565 62.467975 
L 377.512935 61.198415 
L 383.586305 57.827071 
L 389.659675 60.160814 
L 395.733045 63.163408 
L 401.806415 62.914448 
L 407.879785 61.586943 
L 413.953155 59.348072 
L 420.026525 60.890793 
L 426.099896 62.978915 
L 432.173266 64.68352 
L 438.246636 63.277224 
L 444.320006 62.23785 
L 450.393376 60.214197 
L 456.466746 63.739463 
L 462.540116 63.502461 
L 468.613486 60.305944 
L 474.686856 61.473849 
L 480.760226 59.906032 
L 486.833596 61.10621 
L 492.906966 62.011849 
L 498.980336 61.668281 
L 505.053706 60.61593 
L 511.127076 60.503444 
L 517.200447 60.274765 
L 523.273817 61.018707 
L 529.347187 61.962705 
L 535.420557 62.497427 
L 541.493927 61.570149 
L 547.567297 60.44525 
L 553.640667 60.781816 
L 559.714037 61.205691 
L 565.787407 61.246722 
L 571.860777 64.50297 
L 577.934147 60.69314 
L 584.007517 62.091613 
L 590.080887 60.437849 
L 596.154257 56.658866 
L 602.227627 61.94796 
L 608.300997 62.021576 
L 614.374368 64.650172 
L 620.447738 60.684255 
L 626.521108 60.974224 
L 632.594478 60.901917 
L 638.667848 59.391207 
L 644.741218 63.430451 
L 650.814588 61.870033 
L 656.887958 60.494274 
L 662.961328 61.116759 
L 669.034698 62.422718 
L 675.108068 60.350183 
" clip-path="url(#p54504cf0df)" style="fill: none; stroke: #ff7f0e; stroke-width: 1.5; stroke-linecap: square"/>
   </g>
   <g id="line2d_16">
    <path d="M 73.844432 57.76216 
L 79.917802 62.144684 
L 85.991172 60.857862 
L 92.064542 64.001847 
L 98.137912 62.425501 
L 104.211282 62.632662 
L 110.284652 64.644252 
L 116.358022 60.530879 
L 122.431392 64.962621 
L 128.504762 59.983455 
L 134.578132 60.017724 
L 140.651503 61.202516 
L 146.724873 59.685736 
L 152.798243 61.457687 
L 158.871613 63.572646 
L 164.944983 62.904619 
L 171.018353 61.986635 
L 177.091723 59.799212 
L 183.165093 60.652782 
L 189.238463 59.359081 
L 195.311833 60.120738 
L 201.385203 62.880675 
L 207.458573 60.533561 
L 213.531943 61.264021 
L 219.605313 63.50971 
L 225.678683 60.348966 
L 231.752053 62.927167 
L 237.825424 60.482674 
L 243.898794 61.955485 
L 249.972164 60.952525 
L 256.045534 61.557897 
L 262.118904 60.90255 
L 268.192274 58.382823 
L 274.265644 60.645104 
L 280.339014 61.098485 
L 286.412384 61.897727 
L 292.485754 61.538997 
L 298.559124 60.755336 
L 304.632494 60.093783 
L 310.705864 57.510016 
L 316.779234 63.981081 
L 322.852604 57.544369 
L 328.925975 59.984302 
L 334.999345 60.877794 
L 341.072715 61.752894 
L 347.146085 61.096728 
L 353.219455 58.555116 
L 359.292825 61.802564 
L 365.366195 59.859978 
L 371.439565 62.690496 
L 377.512935 60.75441 
L 383.586305 61.370155 
L 389.659675 62.422523 
L 395.733045 62.162396 
L 401.806415 60.428434 
L 407.879785 60.878651 
L 413.953155 60.424651 
L 420.026525 62.785882 
L 426.099896 64.120149 
L 432.173266 60.947562 
L 438.246636 60.622186 
L 444.320006 60.327361 
L 450.393376 59.299736 
L 456.466746 62.824284 
L 462.540116 61.440628 
L 468.613486 63.78907 
L 474.686856 61.490754 
L 480.760226 62.012021 
L 486.833596 62.81346 
L 492.906966 64.366159 
L 498.980336 61.914602 
L 505.053706 62.432381 
L 511.127076 62.423931 
L 517.200447 59.798834 
L 523.273817 61.423386 
L 529.347187 60.341293 
L 535.420557 60.88103 
L 541.493927 59.080027 
L 547.567297 62.164331 
L 553.640667 64.499605 
L 559.714037 63.267338 
L 565.787407 63.174007 
L 571.860777 58.8223 
L 577.934147 62.464529 
L 584.007517 63.930129 
L 590.080887 61.731712 
L 596.154257 59.203926 
L 602.227627 61.494545 
L 608.300997 62.955393 
L 614.374368 61.426827 
L 620.447738 60.69042 
L 626.521108 60.039693 
L 632.594478 61.180236 
L 638.667848 61.666946 
L 644.741218 62.945636 
L 650.814588 62.342253 
L 656.887958 61.357075 
L 662.961328 62.846065 
L 669.034698 62.418557 
L 675.108068 59.721027 
" clip-path="url(#p54504cf0df)" style="fill: none; stroke: #2ca02c; stroke-width: 1.5; stroke-linecap: square"/>
   </g>
   <g id="line2d_17">
    <path d="M 73.844432 84.596076 
L 79.917802 183.613978 
L 85.991172 133.568084 
L 92.064542 138.924832 
L 98.137912 120.373755 
L 104.211282 38.825398 
L 110.284652 50.822163 
L 116.358022 44.99045 
L 122.431392 49.250135 
L 128.504762 45.159833 
L 134.578132 52.051105 
L 140.651503 50.235396 
L 146.724873 50.353801 
L 152.798243 49.483519 
L 158.871613 51.512899 
L 164.944983 49.650439 
L 171.018353 49.726256 
L 177.091723 51.694103 
L 183.165093 47.654275 
L 189.238463 50.626666 
L 195.311833 45.736749 
L 201.385203 49.491574 
L 207.458573 53.605566 
L 213.531943 51.914698 
L 219.605313 52.896323 
L 225.678683 51.595878 
L 231.752053 45.312757 
L 237.825424 52.455738 
L 243.898794 48.569408 
L 249.972164 51.464169 
L 256.045534 47.794475 
L 262.118904 51.709242 
L 268.192274 54.718131 
L 274.265644 47.815642 
L 280.339014 50.037003 
L 286.412384 54.339054 
L 292.485754 53.320108 
L 298.559124 46.224121 
L 304.632494 48.6454 
L 310.705864 51.026306 
L 316.779234 53.003271 
L 322.852604 49.801059 
L 328.925975 48.468425 
L 334.999345 52.779015 
L 341.072715 53.074035 
L 347.146085 53.932554 
L 353.219455 51.081085 
L 359.292825 39.679225 
L 365.366195 48.160655 
L 371.439565 48.751015 
L 377.512935 45.162562 
L 383.586305 50.236964 
L 389.659675 54.805331 
L 395.733045 48.007428 
L 401.806415 50.295681 
L 407.879785 47.747011 
L 413.953155 51.978443 
L 420.026525 47.176891 
L 426.099896 49.179574 
L 432.173266 51.521913 
L 438.246636 48.032752 
L 444.320006 49.707866 
L 450.393376 52.195059 
L 456.466746 50.596705 
L 462.540116 49.529374 
L 468.613486 52.402887 
L 474.686856 46.191988 
L 480.760226 46.973386 
L 486.833596 45.297419 
L 492.906966 52.546707 
L 498.980336 52.157027 
L 505.053706 51.259077 
L 511.127076 49.127026 
L 517.200447 51.348476 
L 523.273817 52.242804 
L 529.347187 47.114546 
L 535.420557 51.478486 
L 541.493927 52.638032 
L 547.567297 49.604639 
L 553.640667 52.958561 
L 559.714037 48.17076 
L 565.787407 46.374166 
L 571.860777 53.734981 
L 577.934147 48.397474 
L 584.007517 47.490499 
L 590.080887 49.572653 
L 596.154257 49.464283 
L 602.227627 51.998883 
L 608.300997 49.433684 
L 614.374368 49.703335 
L 620.447738 52.640297 
L 626.521108 44.924281 
L 632.594478 49.613097 
L 638.667848 48.170458 
L 644.741218 51.179886 
L 650.814588 51.631279 
L 656.887958 47.050221 
L 662.961328 50.690227 
L 669.034698 53.436946 
L 675.108068 48.655989 
" clip-path="url(#p54504cf0df)" style="fill: none; stroke: #d62728; stroke-width: 1.5; stroke-linecap: square"/>
   </g>
   <g id="line2d_18">
    <path d="M 73.844432 122.387506 
L 79.917802 65.235552 
L 85.991172 63.18264 
L 92.064542 62.426493 
L 98.137912 59.86653 
L 104.211282 60.266362 
L 110.284652 60.433808 
L 116.358022 62.057682 
L 122.431392 60.485972 
L 128.504762 61.133737 
L 134.578132 64.009699 
L 140.651503 60.704459 
L 146.724873 59.793852 
L 152.798243 62.279485 
L 158.871613 60.986437 
L 164.944983 62.969276 
L 171.018353 61.453151 
L 177.091723 65.541685 
L 183.165093 62.995343 
L 189.238463 61.992794 
L 195.311833 61.332076 
L 201.385203 61.666669 
L 207.458573 61.287737 
L 213.531943 59.920556 
L 219.605313 60.699386 
L 225.678683 61.792442 
L 231.752053 60.44647 
L 237.825424 63.591566 
L 243.898794 61.340682 
L 249.972164 59.409464 
L 256.045534 60.823466 
L 262.118904 60.831781 
L 268.192274 63.433751 
L 274.265644 62.402779 
L 280.339014 62.072474 
L 286.412384 59.356427 
L 292.485754 61.324469 
L 298.559124 63.451872 
L 304.632494 61.897672 
L 310.705864 61.196892 
L 316.779234 64.876728 
L 322.852604 62.858573 
L 328.925975 61.399067 
L 334.999345 60.618684 
L 341.072715 58.829419 
L 347.146085 62.93514 
L 353.219455 62.199672 
L 359.292825 62.77033 
L 365.366195 61.617809 
L 371.439565 62.7548 
L 377.512935 61.427177 
L 383.586305 59.700489 
L 389.659675 60.319904 
L 395.733045 63.35885 
L 401.806415 62.802376 
L 407.879785 62.907038 
L 413.953155 62.455508 
L 420.026525 62.671351 
L 426.099896 61.10971 
L 432.173266 63.220875 
L 438.246636 59.862983 
L 444.320006 62.558229 
L 450.393376 62.363619 
L 456.466746 60.323821 
L 462.540116 62.437473 
L 468.613486 62.09564 
L 474.686856 62.037446 
L 480.760226 60.885549 
L 486.833596 61.517222 
L 492.906966 62.622242 
L 498.980336 62.707966 
L 505.053706 64.106813 
L 511.127076 59.844991 
L 517.200447 62.879833 
L 523.273817 61.343615 
L 529.347187 63.144833 
L 535.420557 62.831934 
L 541.493927 61.797136 
L 547.567297 61.68585 
L 553.640667 57.772164 
L 559.714037 59.903956 
L 565.787407 61.396974 
L 571.860777 58.37432 
L 577.934147 64.776089 
L 584.007517 59.859511 
L 590.080887 62.720692 
L 596.154257 62.294139 
L 602.227627 62.002798 
L 608.300997 62.251444 
L 614.374368 60.594172 
L 620.447738 60.602683 
L 626.521108 62.439108 
L 632.594478 62.260531 
L 638.667848 62.683175 
L 644.741218 61.610518 
L 650.814588 64.563522 
L 656.887958 59.748196 
L 662.961328 60.506598 
L 669.034698 62.981655 
L 675.108068 61.707705 
" clip-path="url(#p54504cf0df)" style="fill: none; stroke: #9467bd; stroke-width: 1.5; stroke-linecap: square"/>
   </g>
   <g id="patch_3">
    <path d="M 43.78125 385.478125 
L 43.78125 22.318125 
" style="fill: none; stroke: #000000; stroke-width: 0.8; stroke-linejoin: miter; stroke-linecap: square"/>
   </g>
   <g id="patch_4">
    <path d="M 705.17125 385.478125 
L 705.17125 22.318125 
" style="fill: none; stroke: #000000; stroke-width: 0.8; stroke-linejoin: miter; stroke-linecap: square"/>
   </g>
   <g id="patch_5">
    <path d="M 43.78125 385.478125 
L 705.17125 385.478125 
" style="fill: none; stroke: #000000; stroke-width: 0.8; stroke-linejoin: miter; stroke-linecap: square"/>
   </g>
   <g id="patch_6">
    <path d="M 43.78125 22.318125 
L 705.17125 22.318125 
" style="fill: none; stroke: #000000; stroke-width: 0.8; stroke-linejoin: miter; stroke-linecap: square"/>
   </g>
   <g id="text_16">
    <!-- Combined Train Loss -->
    <g transform="translate(312.624688 16.318125) scale(0.12 -0.12)">
     <defs>
      <path id="DejaVuSans-43" d="M 4122 4306 
L 4122 3641 
Q 3803 3938 3442 4084 
Q 3081 4231 2675 4231 
Q 1875 4231 1450 3742 
Q 1025 3253 1025 2328 
Q 1025 1406 1450 917 
Q 1875 428 2675 428 
Q 3081 428 3442 575 
Q 3803 722 4122 1019 
L 4122 359 
Q 3791 134 3420 21 
Q 3050 -91 2638 -91 
Q 1578 -91 968 557 
Q 359 1206 359 2328 
Q 359 3453 968 4101 
Q 1578 4750 2638 4750 
Q 3056 4750 3426 4639 
Q 3797 4528 4122 4306 
z
" transform="scale(0.015625)"/>
      <path id="DejaVuSans-6d" d="M 3328 2828 
Q 3544 3216 3844 3400 
Q 4144 3584 4550 3584 
Q 5097 3584 5394 3201 
Q 5691 2819 5691 2113 
L 5691 0 
L 5113 0 
L 5113 2094 
Q 5113 2597 4934 2840 
Q 4756 3084 4391 3084 
Q 3944 3084 3684 2787 
Q 3425 2491 3425 1978 
L 3425 0 
L 2847 0 
L 2847 2094 
Q 2847 2600 2669 2842 
Q 2491 3084 2119 3084 
Q 1678 3084 1418 2786 
Q 1159 2488 1159 1978 
L 1159 0 
L 581 0 
L 581 3500 
L 1159 3500 
L 1159 2956 
Q 1356 3278 1631 3431 
Q 1906 3584 2284 3584 
Q 2666 3584 2933 3390 
Q 3200 3197 3328 2828 
z
" transform="scale(0.015625)"/>
      <path id="DejaVuSans-62" d="M 3116 1747 
Q 3116 2381 2855 2742 
Q 2594 3103 2138 3103 
Q 1681 3103 1420 2742 
Q 1159 2381 1159 1747 
Q 1159 1113 1420 752 
Q 1681 391 2138 391 
Q 2594 391 2855 752 
Q 3116 1113 3116 1747 
z
M 1159 2969 
Q 1341 3281 1617 3432 
Q 1894 3584 2278 3584 
Q 2916 3584 3314 3078 
Q 3713 2572 3713 1747 
Q 3713 922 3314 415 
Q 2916 -91 2278 -91 
Q 1894 -91 1617 61 
Q 1341 213 1159 525 
L 1159 0 
L 581 0 
L 581 4863 
L 1159 4863 
L 1159 2969 
z
" transform="scale(0.015625)"/>
      <path id="DejaVuSans-65" d="M 3597 1894 
L 3597 1613 
L 953 1613 
Q 991 1019 1311 708 
Q 1631 397 2203 397 
Q 2534 397 2845 478 
Q 3156 559 3463 722 
L 3463 178 
Q 3153 47 2828 -22 
Q 2503 -91 2169 -91 
Q 1331 -91 842 396 
Q 353 884 353 1716 
Q 353 2575 817 3079 
Q 1281 3584 2069 3584 
Q 2775 3584 3186 3129 
Q 3597 2675 3597 1894 
z
M 3022 2063 
Q 3016 2534 2758 2815 
Q 2500 3097 2075 3097 
Q 1594 3097 1305 2825 
Q 1016 2553 972 2059 
L 3022 2063 
z
" transform="scale(0.015625)"/>
      <path id="DejaVuSans-64" d="M 2906 2969 
L 2906 4863 
L 3481 4863 
L 3481 0 
L 2906 0 
L 2906 525 
Q 2725 213 2448 61 
Q 2172 -91 1784 -91 
Q 1150 -91 751 415 
Q 353 922 353 1747 
Q 353 2572 751 3078 
Q 1150 3584 1784 3584 
Q 2172 3584 2448 3432 
Q 2725 3281 2906 2969 
z
M 947 1747 
Q 947 1113 1208 752 
Q 1469 391 1925 391 
Q 2381 391 2643 752 
Q 2906 1113 2906 1747 
Q 2906 2381 2643 2742 
Q 2381 3103 1925 3103 
Q 1469 3103 1208 2742 
Q 947 2381 947 1747 
z
" transform="scale(0.015625)"/>
     </defs>
     <use xlink:href="#DejaVuSans-43"/>
     <use xlink:href="#DejaVuSans-6f" transform="translate(69.824219 0)"/>
     <use xlink:href="#DejaVuSans-6d" transform="translate(131.005859 0)"/>
     <use xlink:href="#DejaVuSans-62" transform="translate(228.417969 0)"/>
     <use xlink:href="#DejaVuSans-69" transform="translate(291.894531 0)"/>
     <use xlink:href="#DejaVuSans-6e" transform="translate(319.677734 0)"/>
     <use xlink:href="#DejaVuSans-65" transform="translate(383.056641 0)"/>
     <use xlink:href="#DejaVuSans-64" transform="translate(444.580078 0)"/>
     <use xlink:href="#DejaVuSans-20" transform="translate(508.056641 0)"/>
     <use xlink:href="#DejaVuSans-54" transform="translate(539.84375 0)"/>
     <use xlink:href="#DejaVuSans-72" transform="translate(586.177734 0)"/>
     <use xlink:href="#DejaVuSans-61" transform="translate(627.291016 0)"/>
     <use xlink:href="#DejaVuSans-69" transform="translate(688.570312 0)"/>
     <use xlink:href="#DejaVuSans-6e" transform="translate(716.353516 0)"/>
     <use xlink:href="#DejaVuSans-20" transform="translate(779.732422 0)"/>
     <use xlink:href="#DejaVuSans-4c" transform="translate(811.519531 0)"/>
     <use xlink:href="#DejaVuSans-6f" transform="translate(865.482422 0)"/>
     <use xlink:href="#DejaVuSans-73" transform="translate(926.664062 0)"/>
     <use xlink:href="#DejaVuSans-73" transform="translate(978.763672 0)"/>
    </g>
   </g>
   <g id="legend_1">
    <g id="patch_7">
     <path d="M 635.99625 380.478125 
L 698.17125 380.478125 
Q 700.17125 380.478125 700.17125 378.478125 
L 700.17125 306.0875 
Q 700.17125 304.0875 698.17125 304.0875 
L 635.99625 304.0875 
Q 633.99625 304.0875 633.99625 306.0875 
L 633.99625 378.478125 
Q 633.99625 380.478125 635.99625 380.478125 
z
" style="fill: #ffffff; opacity: 0.8; stroke: #cccccc; stroke-linejoin: miter"/>
    </g>
    <g id="line2d_19">
     <path d="M 637.99625 312.185937 
L 647.99625 312.185937 
L 657.99625 312.185937 
" style="fill: none; stroke: #1f77b4; stroke-width: 1.5; stroke-linecap: square"/>
    </g>
    <g id="text_17">
     <!-- Fold 1 -->
     <g transform="translate(665.99625 315.685937) scale(0.1 -0.1)">
      <defs>
       <path id="DejaVuSans-46" d="M 628 4666 
L 3309 4666 
L 3309 4134 
L 1259 4134 
L 1259 2759 
L 3109 2759 
L 3109 2228 
L 1259 2228 
L 1259 0 
L 628 0 
L 628 4666 
z
" transform="scale(0.015625)"/>
       <path id="DejaVuSans-6c" d="M 603 4863 
L 1178 4863 
L 1178 0 
L 603 0 
L 603 4863 
z
" transform="scale(0.015625)"/>
      </defs>
      <use xlink:href="#DejaVuSans-46"/>
      <use xlink:href="#DejaVuSans-6f" transform="translate(53.894531 0)"/>
      <use xlink:href="#DejaVuSans-6c" transform="translate(115.076172 0)"/>
      <use xlink:href="#DejaVuSans-64" transform="translate(142.859375 0)"/>
      <use xlink:href="#DejaVuSans-20" transform="translate(206.335938 0)"/>
      <use xlink:href="#DejaVuSans-31" transform="translate(238.123047 0)"/>
     </g>
    </g>
    <g id="line2d_20">
     <path d="M 637.99625 326.864062 
L 647.99625 326.864062 
L 657.99625 326.864062 
" style="fill: none; stroke: #ff7f0e; stroke-width: 1.5; stroke-linecap: square"/>
    </g>
    <g id="text_18">
     <!-- Fold 2 -->
     <g transform="translate(665.99625 330.364062) scale(0.1 -0.1)">
      <use xlink:href="#DejaVuSans-46"/>
      <use xlink:href="#DejaVuSans-6f" transform="translate(53.894531 0)"/>
      <use xlink:href="#DejaVuSans-6c" transform="translate(115.076172 0)"/>
      <use xlink:href="#DejaVuSans-64" transform="translate(142.859375 0)"/>
      <use xlink:href="#DejaVuSans-20" transform="translate(206.335938 0)"/>
      <use xlink:href="#DejaVuSans-32" transform="translate(238.123047 0)"/>
     </g>
    </g>
    <g id="line2d_21">
     <path d="M 637.99625 341.542187 
L 647.99625 341.542187 
L 657.99625 341.542187 
" style="fill: none; stroke: #2ca02c; stroke-width: 1.5; stroke-linecap: square"/>
    </g>
    <g id="text_19">
     <!-- Fold 3 -->
     <g transform="translate(665.99625 345.042187) scale(0.1 -0.1)">
      <use xlink:href="#DejaVuSans-46"/>
      <use xlink:href="#DejaVuSans-6f" transform="translate(53.894531 0)"/>
      <use xlink:href="#DejaVuSans-6c" transform="translate(115.076172 0)"/>
      <use xlink:href="#DejaVuSans-64" transform="translate(142.859375 0)"/>
      <use xlink:href="#DejaVuSans-20" transform="translate(206.335938 0)"/>
      <use xlink:href="#DejaVuSans-33" transform="translate(238.123047 0)"/>
     </g>
    </g>
    <g id="line2d_22">
     <path d="M 637.99625 356.220312 
L 647.99625 356.220312 
L 657.99625 356.220312 
" style="fill: none; stroke: #d62728; stroke-width: 1.5; stroke-linecap: square"/>
    </g>
    <g id="text_20">
     <!-- Fold 4 -->
     <g transform="translate(665.99625 359.720312) scale(0.1 -0.1)">
      <use xlink:href="#DejaVuSans-46"/>
      <use xlink:href="#DejaVuSans-6f" transform="translate(53.894531 0)"/>
      <use xlink:href="#DejaVuSans-6c" transform="translate(115.076172 0)"/>
      <use xlink:href="#DejaVuSans-64" transform="translate(142.859375 0)"/>
      <use xlink:href="#DejaVuSans-20" transform="translate(206.335938 0)"/>
      <use xlink:href="#DejaVuSans-34" transform="translate(238.123047 0)"/>
     </g>
    </g>
    <g id="line2d_23">
     <path d="M 637.99625 370.898437 
L 647.99625 370.898437 
L 657.99625 370.898437 
" style="fill: none; stroke: #9467bd; stroke-width: 1.5; stroke-linecap: square"/>
    </g>
    <g id="text_21">
     <!-- Fold 5 -->
     <g transform="translate(665.99625 374.398437) scale(0.1 -0.1)">
      <use xlink:href="#DejaVuSans-46"/>
      <use xlink:href="#DejaVuSans-6f" transform="translate(53.894531 0)"/>
      <use xlink:href="#DejaVuSans-6c" transform="translate(115.076172 0)"/>
      <use xlink:href="#DejaVuSans-64" transform="translate(142.859375 0)"/>
      <use xlink:href="#DejaVuSans-20" transform="translate(206.335938 0)"/>
      <use xlink:href="#DejaVuSans-35" transform="translate(238.123047 0)"/>
     </g>
    </g>
   </g>
  </g>
 </g>
 <defs>
  <clipPath id="p54504cf0df">
   <rect x="43.78125" y="22.318125" width="661.39" height="363.16"/>
  </clipPath>
 </defs>
</svg>
