<?xml version="1.0" encoding="utf-8" standalone="no"?>
<!DOCTYPE svg PUBLIC "-//W3C//DTD SVG 1.1//EN"
  "http://www.w3.org/Graphics/SVG/1.1/DTD/svg11.dtd">
<svg xmlns:xlink="http://www.w3.org/1999/xlink" width="712.37125pt" height="423.034375pt" viewBox="0 0 712.37125 423.034375" xmlns="http://www.w3.org/2000/svg" version="1.1">
 <metadata>
  <rdf:RDF xmlns:dc="http://purl.org/dc/elements/1.1/" xmlns:cc="http://creativecommons.org/ns#" xmlns:rdf="http://www.w3.org/1999/02/22-rdf-syntax-ns#">
   <cc:Work>
    <dc:type rdf:resource="http://purl.org/dc/dcmitype/StillImage"/>
    <dc:date>2025-06-26T17:24:04.018844</dc:date>
    <dc:format>image/svg+xml</dc:format>
    <dc:creator>
     <cc:Agent>
      <dc:title>Matplotlib v3.10.0, https://matplotlib.org/</dc:title>
     </cc:Agent>
    </dc:creator>
   </cc:Work>
  </rdf:RDF>
 </metadata>
 <defs>
  <style type="text/css">*{stroke-linejoin: round; stroke-linecap: butt}</style>
 </defs>
 <g id="figure_1">
  <g id="patch_1">
   <path d="M 0 423.034375 
L 712.37125 423.034375 
L 712.37125 0 
L 0 0 
z
" style="fill: #ffffff"/>
  </g>
  <g id="axes_1">
   <g id="patch_2">
    <path d="M 43.78125 385.478125 
L 705.17125 385.478125 
L 705.17125 22.318125 
L 43.78125 22.318125 
z
" style="fill: #ffffff"/>
   </g>
   <g id="matplotlib.axis_1">
    <g id="xtick_1">
     <g id="line2d_1">
      <defs>
       <path id="mb6c7072d73" d="M 0 0 
L 0 3.5 
" style="stroke: #000000; stroke-width: 0.8"/>
      </defs>
      <g>
       <use xlink:href="#mb6c7072d73" x="67.771062" y="385.478125" style="stroke: #000000; stroke-width: 0.8"/>
      </g>
     </g>
     <g id="text_1">
      <!-- 0 -->
      <g transform="translate(64.589812 400.076562) scale(0.1 -0.1)">
       <defs>
        <path id="DejaVuSans-30" d="M 2034 4250 
Q 1547 4250 1301 3770 
Q 1056 3291 1056 2328 
Q 1056 1369 1301 889 
Q 1547 409 2034 409 
Q 2525 409 2770 889 
Q 3016 1369 3016 2328 
Q 3016 3291 2770 3770 
Q 2525 4250 2034 4250 
z
M 2034 4750 
Q 2819 4750 3233 4129 
Q 3647 3509 3647 2328 
Q 3647 1150 3233 529 
Q 2819 -91 2034 -91 
Q 1250 -91 836 529 
Q 422 1150 422 2328 
Q 422 3509 836 4129 
Q 1250 4750 2034 4750 
z
" transform="scale(0.015625)"/>
       </defs>
       <use xlink:href="#DejaVuSans-30"/>
      </g>
     </g>
    </g>
    <g id="xtick_2">
     <g id="line2d_2">
      <g>
       <use xlink:href="#mb6c7072d73" x="189.238463" y="385.478125" style="stroke: #000000; stroke-width: 0.8"/>
      </g>
     </g>
     <g id="text_2">
      <!-- 20 -->
      <g transform="translate(182.875963 400.076562) scale(0.1 -0.1)">
       <defs>
        <path id="DejaVuSans-32" d="M 1228 531 
L 3431 531 
L 3431 0 
L 469 0 
L 469 531 
Q 828 903 1448 1529 
Q 2069 2156 2228 2338 
Q 2531 2678 2651 2914 
Q 2772 3150 2772 3378 
Q 2772 3750 2511 3984 
Q 2250 4219 1831 4219 
Q 1534 4219 1204 4116 
Q 875 4013 500 3803 
L 500 4441 
Q 881 4594 1212 4672 
Q 1544 4750 1819 4750 
Q 2544 4750 2975 4387 
Q 3406 4025 3406 3419 
Q 3406 3131 3298 2873 
Q 3191 2616 2906 2266 
Q 2828 2175 2409 1742 
Q 1991 1309 1228 531 
z
" transform="scale(0.015625)"/>
       </defs>
       <use xlink:href="#DejaVuSans-32"/>
       <use xlink:href="#DejaVuSans-30" transform="translate(63.623047 0)"/>
      </g>
     </g>
    </g>
    <g id="xtick_3">
     <g id="line2d_3">
      <g>
       <use xlink:href="#mb6c7072d73" x="310.705864" y="385.478125" style="stroke: #000000; stroke-width: 0.8"/>
      </g>
     </g>
     <g id="text_3">
      <!-- 40 -->
      <g transform="translate(304.343364 400.076562) scale(0.1 -0.1)">
       <defs>
        <path id="DejaVuSans-34" d="M 2419 4116 
L 825 1625 
L 2419 1625 
L 2419 4116 
z
M 2253 4666 
L 3047 4666 
L 3047 1625 
L 3713 1625 
L 3713 1100 
L 3047 1100 
L 3047 0 
L 2419 0 
L 2419 1100 
L 313 1100 
L 313 1709 
L 2253 4666 
z
" transform="scale(0.015625)"/>
       </defs>
       <use xlink:href="#DejaVuSans-34"/>
       <use xlink:href="#DejaVuSans-30" transform="translate(63.623047 0)"/>
      </g>
     </g>
    </g>
    <g id="xtick_4">
     <g id="line2d_4">
      <g>
       <use xlink:href="#mb6c7072d73" x="432.173266" y="385.478125" style="stroke: #000000; stroke-width: 0.8"/>
      </g>
     </g>
     <g id="text_4">
      <!-- 60 -->
      <g transform="translate(425.810766 400.076562) scale(0.1 -0.1)">
       <defs>
        <path id="DejaVuSans-36" d="M 2113 2584 
Q 1688 2584 1439 2293 
Q 1191 2003 1191 1497 
Q 1191 994 1439 701 
Q 1688 409 2113 409 
Q 2538 409 2786 701 
Q 3034 994 3034 1497 
Q 3034 2003 2786 2293 
Q 2538 2584 2113 2584 
z
M 3366 4563 
L 3366 3988 
Q 3128 4100 2886 4159 
Q 2644 4219 2406 4219 
Q 1781 4219 1451 3797 
Q 1122 3375 1075 2522 
Q 1259 2794 1537 2939 
Q 1816 3084 2150 3084 
Q 2853 3084 3261 2657 
Q 3669 2231 3669 1497 
Q 3669 778 3244 343 
Q 2819 -91 2113 -91 
Q 1303 -91 875 529 
Q 447 1150 447 2328 
Q 447 3434 972 4092 
Q 1497 4750 2381 4750 
Q 2619 4750 2861 4703 
Q 3103 4656 3366 4563 
z
" transform="scale(0.015625)"/>
       </defs>
       <use xlink:href="#DejaVuSans-36"/>
       <use xlink:href="#DejaVuSans-30" transform="translate(63.623047 0)"/>
      </g>
     </g>
    </g>
    <g id="xtick_5">
     <g id="line2d_5">
      <g>
       <use xlink:href="#mb6c7072d73" x="553.640667" y="385.478125" style="stroke: #000000; stroke-width: 0.8"/>
      </g>
     </g>
     <g id="text_5">
      <!-- 80 -->
      <g transform="translate(547.278167 400.076562) scale(0.1 -0.1)">
       <defs>
        <path id="DejaVuSans-38" d="M 2034 2216 
Q 1584 2216 1326 1975 
Q 1069 1734 1069 1313 
Q 1069 891 1326 650 
Q 1584 409 2034 409 
Q 2484 409 2743 651 
Q 3003 894 3003 1313 
Q 3003 1734 2745 1975 
Q 2488 2216 2034 2216 
z
M 1403 2484 
Q 997 2584 770 2862 
Q 544 3141 544 3541 
Q 544 4100 942 4425 
Q 1341 4750 2034 4750 
Q 2731 4750 3128 4425 
Q 3525 4100 3525 3541 
Q 3525 3141 3298 2862 
Q 3072 2584 2669 2484 
Q 3125 2378 3379 2068 
Q 3634 1759 3634 1313 
Q 3634 634 3220 271 
Q 2806 -91 2034 -91 
Q 1263 -91 848 271 
Q 434 634 434 1313 
Q 434 1759 690 2068 
Q 947 2378 1403 2484 
z
M 1172 3481 
Q 1172 3119 1398 2916 
Q 1625 2713 2034 2713 
Q 2441 2713 2670 2916 
Q 2900 3119 2900 3481 
Q 2900 3844 2670 4047 
Q 2441 4250 2034 4250 
Q 1625 4250 1398 4047 
Q 1172 3844 1172 3481 
z
" transform="scale(0.015625)"/>
       </defs>
       <use xlink:href="#DejaVuSans-38"/>
       <use xlink:href="#DejaVuSans-30" transform="translate(63.623047 0)"/>
      </g>
     </g>
    </g>
    <g id="xtick_6">
     <g id="line2d_6">
      <g>
       <use xlink:href="#mb6c7072d73" x="675.108068" y="385.478125" style="stroke: #000000; stroke-width: 0.8"/>
      </g>
     </g>
     <g id="text_6">
      <!-- 100 -->
      <g transform="translate(665.564318 400.076562) scale(0.1 -0.1)">
       <defs>
        <path id="DejaVuSans-31" d="M 794 531 
L 1825 531 
L 1825 4091 
L 703 3866 
L 703 4441 
L 1819 4666 
L 2450 4666 
L 2450 531 
L 3481 531 
L 3481 0 
L 794 0 
L 794 531 
z
" transform="scale(0.015625)"/>
       </defs>
       <use xlink:href="#DejaVuSans-31"/>
       <use xlink:href="#DejaVuSans-30" transform="translate(63.623047 0)"/>
       <use xlink:href="#DejaVuSans-30" transform="translate(127.246094 0)"/>
      </g>
     </g>
    </g>
    <g id="text_7">
     <!-- Epoch -->
     <g transform="translate(359.165313 413.754687) scale(0.1 -0.1)">
      <defs>
       <path id="DejaVuSans-45" d="M 628 4666 
L 3578 4666 
L 3578 4134 
L 1259 4134 
L 1259 2753 
L 3481 2753 
L 3481 2222 
L 1259 2222 
L 1259 531 
L 3634 531 
L 3634 0 
L 628 0 
L 628 4666 
z
" transform="scale(0.015625)"/>
       <path id="DejaVuSans-70" d="M 1159 525 
L 1159 -1331 
L 581 -1331 
L 581 3500 
L 1159 3500 
L 1159 2969 
Q 1341 3281 1617 3432 
Q 1894 3584 2278 3584 
Q 2916 3584 3314 3078 
Q 3713 2572 3713 1747 
Q 3713 922 3314 415 
Q 2916 -91 2278 -91 
Q 1894 -91 1617 61 
Q 1341 213 1159 525 
z
M 3116 1747 
Q 3116 2381 2855 2742 
Q 2594 3103 2138 3103 
Q 1681 3103 1420 2742 
Q 1159 2381 1159 1747 
Q 1159 1113 1420 752 
Q 1681 391 2138 391 
Q 2594 391 2855 752 
Q 3116 1113 3116 1747 
z
" transform="scale(0.015625)"/>
       <path id="DejaVuSans-6f" d="M 1959 3097 
Q 1497 3097 1228 2736 
Q 959 2375 959 1747 
Q 959 1119 1226 758 
Q 1494 397 1959 397 
Q 2419 397 2687 759 
Q 2956 1122 2956 1747 
Q 2956 2369 2687 2733 
Q 2419 3097 1959 3097 
z
M 1959 3584 
Q 2709 3584 3137 3096 
Q 3566 2609 3566 1747 
Q 3566 888 3137 398 
Q 2709 -91 1959 -91 
Q 1206 -91 779 398 
Q 353 888 353 1747 
Q 353 2609 779 3096 
Q 1206 3584 1959 3584 
z
" transform="scale(0.015625)"/>
       <path id="DejaVuSans-63" d="M 3122 3366 
L 3122 2828 
Q 2878 2963 2633 3030 
Q 2388 3097 2138 3097 
Q 1578 3097 1268 2742 
Q 959 2388 959 1747 
Q 959 1106 1268 751 
Q 1578 397 2138 397 
Q 2388 397 2633 464 
Q 2878 531 3122 666 
L 3122 134 
Q 2881 22 2623 -34 
Q 2366 -91 2075 -91 
Q 1284 -91 818 406 
Q 353 903 353 1747 
Q 353 2603 823 3093 
Q 1294 3584 2113 3584 
Q 2378 3584 2631 3529 
Q 2884 3475 3122 3366 
z
" transform="scale(0.015625)"/>
       <path id="DejaVuSans-68" d="M 3513 2113 
L 3513 0 
L 2938 0 
L 2938 2094 
Q 2938 2591 2744 2837 
Q 2550 3084 2163 3084 
Q 1697 3084 1428 2787 
Q 1159 2491 1159 1978 
L 1159 0 
L 581 0 
L 581 4863 
L 1159 4863 
L 1159 2956 
Q 1366 3272 1645 3428 
Q 1925 3584 2291 3584 
Q 2894 3584 3203 3211 
Q 3513 2838 3513 2113 
z
" transform="scale(0.015625)"/>
      </defs>
      <use xlink:href="#DejaVuSans-45"/>
      <use xlink:href="#DejaVuSans-70" transform="translate(63.183594 0)"/>
      <use xlink:href="#DejaVuSans-6f" transform="translate(126.660156 0)"/>
      <use xlink:href="#DejaVuSans-63" transform="translate(187.841797 0)"/>
      <use xlink:href="#DejaVuSans-68" transform="translate(242.822266 0)"/>
     </g>
    </g>
   </g>
   <g id="matplotlib.axis_2">
    <g id="ytick_1">
     <g id="line2d_7">
      <defs>
       <path id="m6ea7707e24" d="M 0 0 
L -3.5 0 
" style="stroke: #000000; stroke-width: 0.8"/>
      </defs>
      <g>
       <use xlink:href="#m6ea7707e24" x="43.78125" y="382.132569" style="stroke: #000000; stroke-width: 0.8"/>
      </g>
     </g>
     <g id="text_8">
      <!-- 0.3 -->
      <g transform="translate(20.878125 385.931788) scale(0.1 -0.1)">
       <defs>
        <path id="DejaVuSans-2e" d="M 684 794 
L 1344 794 
L 1344 0 
L 684 0 
L 684 794 
z
" transform="scale(0.015625)"/>
        <path id="DejaVuSans-33" d="M 2597 2516 
Q 3050 2419 3304 2112 
Q 3559 1806 3559 1356 
Q 3559 666 3084 287 
Q 2609 -91 1734 -91 
Q 1441 -91 1130 -33 
Q 819 25 488 141 
L 488 750 
Q 750 597 1062 519 
Q 1375 441 1716 441 
Q 2309 441 2620 675 
Q 2931 909 2931 1356 
Q 2931 1769 2642 2001 
Q 2353 2234 1838 2234 
L 1294 2234 
L 1294 2753 
L 1863 2753 
Q 2328 2753 2575 2939 
Q 2822 3125 2822 3475 
Q 2822 3834 2567 4026 
Q 2313 4219 1838 4219 
Q 1578 4219 1281 4162 
Q 984 4106 628 3988 
L 628 4550 
Q 988 4650 1302 4700 
Q 1616 4750 1894 4750 
Q 2613 4750 3031 4423 
Q 3450 4097 3450 3541 
Q 3450 3153 3228 2886 
Q 3006 2619 2597 2516 
z
" transform="scale(0.015625)"/>
       </defs>
       <use xlink:href="#DejaVuSans-30"/>
       <use xlink:href="#DejaVuSans-2e" transform="translate(63.623047 0)"/>
       <use xlink:href="#DejaVuSans-33" transform="translate(95.410156 0)"/>
      </g>
     </g>
    </g>
    <g id="ytick_2">
     <g id="line2d_8">
      <g>
       <use xlink:href="#m6ea7707e24" x="43.78125" y="339.499288" style="stroke: #000000; stroke-width: 0.8"/>
      </g>
     </g>
     <g id="text_9">
      <!-- 0.4 -->
      <g transform="translate(20.878125 343.298507) scale(0.1 -0.1)">
       <use xlink:href="#DejaVuSans-30"/>
       <use xlink:href="#DejaVuSans-2e" transform="translate(63.623047 0)"/>
       <use xlink:href="#DejaVuSans-34" transform="translate(95.410156 0)"/>
      </g>
     </g>
    </g>
    <g id="ytick_3">
     <g id="line2d_9">
      <g>
       <use xlink:href="#m6ea7707e24" x="43.78125" y="296.866007" style="stroke: #000000; stroke-width: 0.8"/>
      </g>
     </g>
     <g id="text_10">
      <!-- 0.5 -->
      <g transform="translate(20.878125 300.665226) scale(0.1 -0.1)">
       <defs>
        <path id="DejaVuSans-35" d="M 691 4666 
L 3169 4666 
L 3169 4134 
L 1269 4134 
L 1269 2991 
Q 1406 3038 1543 3061 
Q 1681 3084 1819 3084 
Q 2600 3084 3056 2656 
Q 3513 2228 3513 1497 
Q 3513 744 3044 326 
Q 2575 -91 1722 -91 
Q 1428 -91 1123 -41 
Q 819 9 494 109 
L 494 744 
Q 775 591 1075 516 
Q 1375 441 1709 441 
Q 2250 441 2565 725 
Q 2881 1009 2881 1497 
Q 2881 1984 2565 2268 
Q 2250 2553 1709 2553 
Q 1456 2553 1204 2497 
Q 953 2441 691 2322 
L 691 4666 
z
" transform="scale(0.015625)"/>
       </defs>
       <use xlink:href="#DejaVuSans-30"/>
       <use xlink:href="#DejaVuSans-2e" transform="translate(63.623047 0)"/>
       <use xlink:href="#DejaVuSans-35" transform="translate(95.410156 0)"/>
      </g>
     </g>
    </g>
    <g id="ytick_4">
     <g id="line2d_10">
      <g>
       <use xlink:href="#m6ea7707e24" x="43.78125" y="254.232726" style="stroke: #000000; stroke-width: 0.8"/>
      </g>
     </g>
     <g id="text_11">
      <!-- 0.6 -->
      <g transform="translate(20.878125 258.031945) scale(0.1 -0.1)">
       <use xlink:href="#DejaVuSans-30"/>
       <use xlink:href="#DejaVuSans-2e" transform="translate(63.623047 0)"/>
       <use xlink:href="#DejaVuSans-36" transform="translate(95.410156 0)"/>
      </g>
     </g>
    </g>
    <g id="ytick_5">
     <g id="line2d_11">
      <g>
       <use xlink:href="#m6ea7707e24" x="43.78125" y="211.599445" style="stroke: #000000; stroke-width: 0.8"/>
      </g>
     </g>
     <g id="text_12">
      <!-- 0.7 -->
      <g transform="translate(20.878125 215.398664) scale(0.1 -0.1)">
       <defs>
        <path id="DejaVuSans-37" d="M 525 4666 
L 3525 4666 
L 3525 4397 
L 1831 0 
L 1172 0 
L 2766 4134 
L 525 4134 
L 525 4666 
z
" transform="scale(0.015625)"/>
       </defs>
       <use xlink:href="#DejaVuSans-30"/>
       <use xlink:href="#DejaVuSans-2e" transform="translate(63.623047 0)"/>
       <use xlink:href="#DejaVuSans-37" transform="translate(95.410156 0)"/>
      </g>
     </g>
    </g>
    <g id="ytick_6">
     <g id="line2d_12">
      <g>
       <use xlink:href="#m6ea7707e24" x="43.78125" y="168.966164" style="stroke: #000000; stroke-width: 0.8"/>
      </g>
     </g>
     <g id="text_13">
      <!-- 0.8 -->
      <g transform="translate(20.878125 172.765383) scale(0.1 -0.1)">
       <use xlink:href="#DejaVuSans-30"/>
       <use xlink:href="#DejaVuSans-2e" transform="translate(63.623047 0)"/>
       <use xlink:href="#DejaVuSans-38" transform="translate(95.410156 0)"/>
      </g>
     </g>
    </g>
    <g id="ytick_7">
     <g id="line2d_13">
      <g>
       <use xlink:href="#m6ea7707e24" x="43.78125" y="126.332883" style="stroke: #000000; stroke-width: 0.8"/>
      </g>
     </g>
     <g id="text_14">
      <!-- 0.9 -->
      <g transform="translate(20.878125 130.132101) scale(0.1 -0.1)">
       <defs>
        <path id="DejaVuSans-39" d="M 703 97 
L 703 672 
Q 941 559 1184 500 
Q 1428 441 1663 441 
Q 2288 441 2617 861 
Q 2947 1281 2994 2138 
Q 2813 1869 2534 1725 
Q 2256 1581 1919 1581 
Q 1219 1581 811 2004 
Q 403 2428 403 3163 
Q 403 3881 828 4315 
Q 1253 4750 1959 4750 
Q 2769 4750 3195 4129 
Q 3622 3509 3622 2328 
Q 3622 1225 3098 567 
Q 2575 -91 1691 -91 
Q 1453 -91 1209 -44 
Q 966 3 703 97 
z
M 1959 2075 
Q 2384 2075 2632 2365 
Q 2881 2656 2881 3163 
Q 2881 3666 2632 3958 
Q 2384 4250 1959 4250 
Q 1534 4250 1286 3958 
Q 1038 3666 1038 3163 
Q 1038 2656 1286 2365 
Q 1534 2075 1959 2075 
z
" transform="scale(0.015625)"/>
       </defs>
       <use xlink:href="#DejaVuSans-30"/>
       <use xlink:href="#DejaVuSans-2e" transform="translate(63.623047 0)"/>
       <use xlink:href="#DejaVuSans-39" transform="translate(95.410156 0)"/>
      </g>
     </g>
    </g>
    <g id="ytick_8">
     <g id="line2d_14">
      <g>
       <use xlink:href="#m6ea7707e24" x="43.78125" y="83.699602" style="stroke: #000000; stroke-width: 0.8"/>
      </g>
     </g>
     <g id="text_15">
      <!-- 1.0 -->
      <g transform="translate(20.878125 87.49882) scale(0.1 -0.1)">
       <use xlink:href="#DejaVuSans-31"/>
       <use xlink:href="#DejaVuSans-2e" transform="translate(63.623047 0)"/>
       <use xlink:href="#DejaVuSans-30" transform="translate(95.410156 0)"/>
      </g>
     </g>
    </g>
    <g id="ytick_9">
     <g id="line2d_15">
      <g>
       <use xlink:href="#m6ea7707e24" x="43.78125" y="41.066321" style="stroke: #000000; stroke-width: 0.8"/>
      </g>
     </g>
     <g id="text_16">
      <!-- 1.1 -->
      <g transform="translate(20.878125 44.865539) scale(0.1 -0.1)">
       <use xlink:href="#DejaVuSans-31"/>
       <use xlink:href="#DejaVuSans-2e" transform="translate(63.623047 0)"/>
       <use xlink:href="#DejaVuSans-31" transform="translate(95.410156 0)"/>
      </g>
     </g>
    </g>
    <g id="text_17">
     <!-- Train Loss -->
     <g transform="translate(14.798438 228.448125) rotate(-90) scale(0.1 -0.1)">
      <defs>
       <path id="DejaVuSans-54" d="M -19 4666 
L 3928 4666 
L 3928 4134 
L 2272 4134 
L 2272 0 
L 1638 0 
L 1638 4134 
L -19 4134 
L -19 4666 
z
" transform="scale(0.015625)"/>
       <path id="DejaVuSans-72" d="M 2631 2963 
Q 2534 3019 2420 3045 
Q 2306 3072 2169 3072 
Q 1681 3072 1420 2755 
Q 1159 2438 1159 1844 
L 1159 0 
L 581 0 
L 581 3500 
L 1159 3500 
L 1159 2956 
Q 1341 3275 1631 3429 
Q 1922 3584 2338 3584 
Q 2397 3584 2469 3576 
Q 2541 3569 2628 3553 
L 2631 2963 
z
" transform="scale(0.015625)"/>
       <path id="DejaVuSans-61" d="M 2194 1759 
Q 1497 1759 1228 1600 
Q 959 1441 959 1056 
Q 959 750 1161 570 
Q 1363 391 1709 391 
Q 2188 391 2477 730 
Q 2766 1069 2766 1631 
L 2766 1759 
L 2194 1759 
z
M 3341 1997 
L 3341 0 
L 2766 0 
L 2766 531 
Q 2569 213 2275 61 
Q 1981 -91 1556 -91 
Q 1019 -91 701 211 
Q 384 513 384 1019 
Q 384 1609 779 1909 
Q 1175 2209 1959 2209 
L 2766 2209 
L 2766 2266 
Q 2766 2663 2505 2880 
Q 2244 3097 1772 3097 
Q 1472 3097 1187 3025 
Q 903 2953 641 2809 
L 641 3341 
Q 956 3463 1253 3523 
Q 1550 3584 1831 3584 
Q 2591 3584 2966 3190 
Q 3341 2797 3341 1997 
z
" transform="scale(0.015625)"/>
       <path id="DejaVuSans-69" d="M 603 3500 
L 1178 3500 
L 1178 0 
L 603 0 
L 603 3500 
z
M 603 4863 
L 1178 4863 
L 1178 4134 
L 603 4134 
L 603 4863 
z
" transform="scale(0.015625)"/>
       <path id="DejaVuSans-6e" d="M 3513 2113 
L 3513 0 
L 2938 0 
L 2938 2094 
Q 2938 2591 2744 2837 
Q 2550 3084 2163 3084 
Q 1697 3084 1428 2787 
Q 1159 2491 1159 1978 
L 1159 0 
L 581 0 
L 581 3500 
L 1159 3500 
L 1159 2956 
Q 1366 3272 1645 3428 
Q 1925 3584 2291 3584 
Q 2894 3584 3203 3211 
Q 3513 2838 3513 2113 
z
" transform="scale(0.015625)"/>
       <path id="DejaVuSans-20" transform="scale(0.015625)"/>
       <path id="DejaVuSans-4c" d="M 628 4666 
L 1259 4666 
L 1259 531 
L 3531 531 
L 3531 0 
L 628 0 
L 628 4666 
z
" transform="scale(0.015625)"/>
       <path id="DejaVuSans-73" d="M 2834 3397 
L 2834 2853 
Q 2591 2978 2328 3040 
Q 2066 3103 1784 3103 
Q 1356 3103 1142 2972 
Q 928 2841 928 2578 
Q 928 2378 1081 2264 
Q 1234 2150 1697 2047 
L 1894 2003 
Q 2506 1872 2764 1633 
Q 3022 1394 3022 966 
Q 3022 478 2636 193 
Q 2250 -91 1575 -91 
Q 1294 -91 989 -36 
Q 684 19 347 128 
L 347 722 
Q 666 556 975 473 
Q 1284 391 1588 391 
Q 1994 391 2212 530 
Q 2431 669 2431 922 
Q 2431 1156 2273 1281 
Q 2116 1406 1581 1522 
L 1381 1569 
Q 847 1681 609 1914 
Q 372 2147 372 2553 
Q 372 3047 722 3315 
Q 1072 3584 1716 3584 
Q 2034 3584 2315 3537 
Q 2597 3491 2834 3397 
z
" transform="scale(0.015625)"/>
      </defs>
      <use xlink:href="#DejaVuSans-54"/>
      <use xlink:href="#DejaVuSans-72" transform="translate(46.333984 0)"/>
      <use xlink:href="#DejaVuSans-61" transform="translate(87.447266 0)"/>
      <use xlink:href="#DejaVuSans-69" transform="translate(148.726562 0)"/>
      <use xlink:href="#DejaVuSans-6e" transform="translate(176.509766 0)"/>
      <use xlink:href="#DejaVuSans-20" transform="translate(239.888672 0)"/>
      <use xlink:href="#DejaVuSans-4c" transform="translate(271.675781 0)"/>
      <use xlink:href="#DejaVuSans-6f" transform="translate(325.638672 0)"/>
      <use xlink:href="#DejaVuSans-73" transform="translate(386.820312 0)"/>
      <use xlink:href="#DejaVuSans-73" transform="translate(438.919922 0)"/>
     </g>
    </g>
   </g>
   <g id="line2d_16">
    <path d="M 73.844432 82.614771 
L 79.917802 193.177165 
L 85.991172 202.77762 
L 92.064542 200.250314 
L 98.137912 200.225908 
L 104.211282 199.175969 
L 110.284652 202.215773 
L 116.358022 205.459202 
L 122.431392 204.123556 
L 128.504762 207.271136 
L 134.578132 205.294459 
L 140.651503 203.888857 
L 146.724873 202.140712 
L 152.798243 205.325471 
L 158.871613 203.915308 
L 164.944983 205.132775 
L 171.018353 202.534441 
L 177.091723 203.273596 
L 183.165093 204.438556 
L 189.238463 207.012126 
L 195.311833 203.287725 
L 201.385203 206.054576 
L 207.458573 205.579198 
L 213.531943 205.824819 
L 219.605313 205.451709 
L 225.678683 208.928819 
L 231.752053 203.729103 
L 237.825424 207.567098 
L 243.898794 206.246275 
L 249.972164 205.615709 
L 256.045534 206.720949 
L 262.118904 208.760172 
L 268.192274 204.133199 
L 274.265644 205.51407 
L 280.339014 205.068089 
L 286.412384 206.133105 
L 292.485754 208.489709 
L 298.559124 206.254485 
L 304.632494 206.472686 
L 310.705864 206.671332 
L 316.779234 206.426102 
L 322.852604 205.848521 
L 328.925975 205.190227 
L 334.999345 203.469364 
L 341.072715 205.134979 
L 347.146085 205.594925 
L 353.219455 205.839187 
L 359.292825 206.52295 
L 365.366195 207.053224 
L 371.439565 204.275608 
L 377.512935 205.448108 
L 383.586305 209.938205 
L 389.659675 207.056967 
L 395.733045 199.924127 
L 401.806415 205.559332 
L 407.879785 279.014412 
L 413.953155 353.892113 
L 420.026525 355.909682 
L 426.099896 354.046255 
L 432.173266 352.374387 
L 438.246636 354.181454 
L 444.320006 355.586352 
L 450.393376 358.977302 
L 456.466746 359.581369 
L 462.540116 358.51767 
L 468.613486 359.513588 
L 474.686856 356.887564 
L 480.760226 356.683172 
L 486.833596 357.479656 
L 492.906966 357.591169 
L 498.980336 359.541877 
L 505.053706 285.25035 
L 511.127076 116.870075 
L 517.200447 178.259434 
L 523.273817 182.020901 
L 529.347187 179.933023 
L 535.420557 182.6752 
L 541.493927 183.780532 
L 547.567297 186.129344 
L 553.640667 184.279551 
L 559.714037 178.50426 
L 565.787407 177.461853 
L 571.860777 185.914505 
L 577.934147 184.380146 
L 584.007517 184.605162 
L 590.080887 192.647225 
L 596.154257 248.573311 
L 602.227627 286.875539 
L 608.300997 337.11356 
L 614.374368 352.35509 
L 620.447738 359.961441 
L 626.521108 362.273683 
L 632.594478 362.760788 
L 638.667848 361.530722 
L 644.741218 357.216396 
L 650.814588 362.94732 
L 656.887958 363.471288 
L 662.961328 361.355837 
L 669.034698 361.843451 
L 675.108068 361.390773 
" clip-path="url(#p35fca9a408)" style="fill: none; stroke: #1f77b4; stroke-width: 1.5; stroke-linecap: square"/>
   </g>
   <g id="line2d_17">
    <path d="M 73.844432 108.993372 
L 79.917802 198.108683 
L 85.991172 203.832589 
L 92.064542 205.5847 
L 98.137912 206.850023 
L 104.211282 177.102895 
L 110.284652 92.931765 
L 116.358022 127.415917 
L 122.431392 119.304609 
L 128.504762 127.276789 
L 134.578132 145.154263 
L 140.651503 133.794668 
L 146.724873 119.108503 
L 152.798243 126.404331 
L 158.871613 176.50249 
L 164.944983 277.745288 
L 171.018353 287.046326 
L 177.091723 288.290647 
L 183.165093 307.170875 
L 189.238463 330.122906 
L 195.311833 339.441779 
L 201.385203 335.008943 
L 207.458573 342.413604 
L 213.531943 343.612069 
L 219.605313 346.00711 
L 225.678683 341.785074 
L 231.752053 341.486512 
L 237.825424 344.228645 
L 243.898794 341.752323 
L 249.972164 346.579284 
L 256.045534 343.759115 
L 262.118904 345.095387 
L 268.192274 349.282181 
L 274.265644 345.657616 
L 280.339014 347.784118 
L 286.412384 343.973243 
L 292.485754 345.682757 
L 298.559124 347.39757 
L 304.632494 345.045474 
L 310.705864 345.045067 
L 316.779234 344.889229 
L 322.852604 342.214201 
L 328.925975 343.582394 
L 334.999345 348.47842 
L 341.072715 345.348086 
L 347.146085 346.675752 
L 353.219455 346.969786 
L 359.292825 349.454715 
L 365.366195 348.033828 
L 371.439565 344.784113 
L 377.512935 343.274252 
L 383.586305 348.564136 
L 389.659675 344.325542 
L 395.733045 347.193029 
L 401.806415 346.145893 
L 407.879785 311.162532 
L 413.953155 343.834559 
L 420.026525 360.483913 
L 426.099896 359.344759 
L 432.173266 362.182441 
L 438.246636 360.44301 
L 444.320006 362.503066 
L 450.393376 364.885827 
L 456.466746 362.785979 
L 462.540116 360.767173 
L 468.613486 364.782406 
L 474.686856 361.453208 
L 480.760226 331.925482 
L 486.833596 360.816673 
L 492.906966 363.113693 
L 498.980336 363.217536 
L 505.053706 363.047441 
L 511.127076 362.050727 
L 517.200447 361.554654 
L 523.273817 362.054811 
L 529.347187 364.165691 
L 535.420557 365.608334 
L 541.493927 360.869539 
L 547.567297 363.530464 
L 553.640667 361.308598 
L 559.714037 362.157011 
L 565.787407 363.690533 
L 571.860777 360.416709 
L 577.934147 86.859535 
L 584.007517 172.842782 
L 590.080887 191.430278 
L 596.154257 201.16343 
L 602.227627 201.63089 
L 608.300997 204.057286 
L 614.374368 205.749196 
L 620.447738 207.258092 
L 626.521108 206.489711 
L 632.594478 206.110385 
L 638.667848 207.820197 
L 644.741218 206.731486 
L 650.814588 209.932899 
L 656.887958 207.621541 
L 662.961328 208.002673 
L 669.034698 209.675276 
L 675.108068 208.001805 
" clip-path="url(#p35fca9a408)" style="fill: none; stroke: #ff7f0e; stroke-width: 1.5; stroke-linecap: square"/>
   </g>
   <g id="line2d_18">
    <path d="M 73.844432 77.059507 
L 79.917802 113.700236 
L 85.991172 251.153533 
L 92.064542 107.204965 
L 98.137912 149.525968 
L 104.211282 90.824898 
L 110.284652 152.485685 
L 116.358022 173.674347 
L 122.431392 143.828459 
L 128.504762 149.584368 
L 134.578132 146.590259 
L 140.651503 181.023673 
L 146.724873 309.902875 
L 152.798243 293.377187 
L 158.871613 342.78047 
L 164.944983 350.662303 
L 171.018353 355.87243 
L 177.091723 355.072869 
L 183.165093 357.857386 
L 189.238463 354.909032 
L 195.311833 357.188451 
L 201.385203 357.750626 
L 207.458573 361.268455 
L 213.531943 360.33521 
L 219.605313 362.111219 
L 225.678683 360.614722 
L 231.752053 358.785815 
L 237.825424 361.821068 
L 243.898794 359.811779 
L 249.972164 360.750549 
L 256.045534 360.393824 
L 262.118904 363.361387 
L 268.192274 363.597214 
L 274.265644 361.266772 
L 280.339014 360.14937 
L 286.412384 209.415742 
L 292.485754 196.151032 
L 298.559124 192.945376 
L 304.632494 297.313919 
L 310.705864 320.093891 
L 316.779234 327.786144 
L 322.852604 333.576904 
L 328.925975 328.924565 
L 334.999345 338.84144 
L 341.072715 328.131394 
L 347.146085 346.813983 
L 353.219455 352.142318 
L 359.292825 349.685768 
L 365.366195 357.875861 
L 371.439565 351.265881 
L 377.512935 355.855457 
L 383.586305 358.235742 
L 389.659675 355.569321 
L 395.733045 355.513223 
L 401.806415 358.379179 
L 407.879785 355.383328 
L 413.953155 357.077848 
L 420.026525 357.501177 
L 426.099896 357.648187 
L 432.173266 358.034352 
L 438.246636 356.952804 
L 444.320006 353.979398 
L 450.393376 358.597839 
L 456.466746 357.245361 
L 462.540116 359.563068 
L 468.613486 360.589455 
L 474.686856 358.94558 
L 480.760226 358.611987 
L 486.833596 356.403137 
L 492.906966 358.283059 
L 498.980336 356.564572 
L 505.053706 357.569206 
L 511.127076 355.978807 
L 517.200447 358.17993 
L 523.273817 358.698343 
L 529.347187 358.962156 
L 535.420557 356.163628 
L 541.493927 358.291401 
L 547.567297 358.636143 
L 553.640667 360.334985 
L 559.714037 357.924754 
L 565.787407 360.210524 
L 571.860777 358.487467 
L 577.934147 361.901184 
L 584.007517 357.159394 
L 590.080887 359.912629 
L 596.154257 360.158397 
L 602.227627 358.472554 
L 608.300997 360.626916 
L 614.374368 363.705615 
L 620.447738 359.919517 
L 626.521108 360.313805 
L 632.594478 359.439712 
L 638.667848 362.724616 
L 644.741218 360.783011 
L 650.814588 360.251954 
L 656.887958 360.561017 
L 662.961328 363.003457 
L 669.034698 361.648565 
L 675.108068 358.967518 
" clip-path="url(#p35fca9a408)" style="fill: none; stroke: #2ca02c; stroke-width: 1.5; stroke-linecap: square"/>
   </g>
   <g id="line2d_19">
    <path d="M 73.844432 54.917962 
L 79.917802 151.098761 
L 85.991172 171.94139 
L 92.064542 257.302761 
L 98.137912 291.838939 
L 104.211282 328.510332 
L 110.284652 236.626459 
L 116.358022 158.658957 
L 122.431392 239.242075 
L 128.504762 234.621005 
L 134.578132 330.987911 
L 140.651503 338.903421 
L 146.724873 334.254992 
L 152.798243 337.924201 
L 158.871613 339.675669 
L 164.944983 340.992374 
L 171.018353 340.753961 
L 177.091723 342.300387 
L 183.165093 342.843962 
L 189.238463 341.887684 
L 195.311833 342.949837 
L 201.385203 343.596113 
L 207.458573 342.073671 
L 213.531943 345.357852 
L 219.605313 347.179545 
L 225.678683 341.573983 
L 231.752053 343.468159 
L 237.825424 346.388204 
L 243.898794 342.542692 
L 249.972164 345.477352 
L 256.045534 345.322057 
L 262.118904 345.811202 
L 268.192274 350.239197 
L 274.265644 360.529834 
L 280.339014 361.761989 
L 286.412384 282.328455 
L 292.485754 359.136443 
L 298.559124 360.969691 
L 304.632494 361.600042 
L 310.705864 362.602292 
L 316.779234 360.715834 
L 322.852604 359.646825 
L 328.925975 361.892606 
L 334.999345 363.588773 
L 341.072715 362.718353 
L 347.146085 363.081241 
L 353.219455 361.228672 
L 359.292825 363.353253 
L 365.366195 362.928078 
L 371.439565 362.467791 
L 377.512935 361.707609 
L 383.586305 361.988601 
L 389.659675 362.362251 
L 395.733045 363.702329 
L 401.806415 363.802321 
L 407.879785 362.941862 
L 413.953155 363.355056 
L 420.026525 363.021516 
L 426.099896 365.011289 
L 432.173266 362.604393 
L 438.246636 362.054704 
L 444.320006 363.553761 
L 450.393376 363.135617 
L 456.466746 363.750929 
L 462.540116 362.789326 
L 468.613486 363.906432 
L 474.686856 365.375853 
L 480.760226 362.939033 
L 486.833596 361.087889 
L 492.906966 362.85053 
L 498.980336 362.992176 
L 505.053706 363.666977 
L 511.127076 363.959759 
L 517.200447 363.28609 
L 523.273817 362.863046 
L 529.347187 362.567851 
L 535.420557 364.48654 
L 541.493927 362.596901 
L 547.567297 362.439784 
L 553.640667 364.522745 
L 559.714037 363.974418 
L 565.787407 361.921423 
L 571.860777 363.945003 
L 577.934147 363.585487 
L 584.007517 361.500578 
L 590.080887 364.629588 
L 596.154257 364.616697 
L 602.227627 361.460304 
L 608.300997 364.444838 
L 614.374368 364.169053 
L 620.447738 363.167645 
L 626.521108 363.267716 
L 632.594478 364.503126 
L 638.667848 364.18822 
L 644.741218 363.574484 
L 650.814588 363.990106 
L 656.887958 363.850435 
L 662.961328 363.643596 
L 669.034698 298.197295 
L 675.108068 361.54946 
" clip-path="url(#p35fca9a408)" style="fill: none; stroke: #d62728; stroke-width: 1.5; stroke-linecap: square"/>
   </g>
   <g id="line2d_20">
    <path d="M 73.844432 97.217619 
L 79.917802 216.654271 
L 85.991172 325.734435 
L 92.064542 340.767292 
L 98.137912 336.134072 
L 104.211282 330.358322 
L 110.284652 337.425695 
L 116.358022 334.513546 
L 122.431392 333.842499 
L 128.504762 288.237974 
L 134.578132 316.794143 
L 140.651503 324.170208 
L 146.724873 325.743602 
L 152.798243 329.462133 
L 158.871613 348.477244 
L 164.944983 352.974571 
L 171.018353 350.936739 
L 177.091723 352.686438 
L 183.165093 355.347593 
L 189.238463 353.456758 
L 195.311833 355.666472 
L 201.385203 224.166734 
L 207.458573 244.968024 
L 213.531943 306.789302 
L 219.605313 38.825398 
L 225.678683 170.545221 
L 231.752053 189.636561 
L 237.825424 205.816202 
L 243.898794 268.803292 
L 249.972164 279.154912 
L 256.045534 315.086189 
L 262.118904 320.072213 
L 268.192274 335.809861 
L 274.265644 283.892125 
L 280.339014 323.37278 
L 286.412384 330.587564 
L 292.485754 343.341342 
L 298.559124 346.360736 
L 304.632494 336.161654 
L 310.705864 352.253878 
L 316.779234 360.404368 
L 322.852604 357.611537 
L 328.925975 362.596073 
L 334.999345 361.560359 
L 341.072715 362.733316 
L 347.146085 365.871873 
L 353.219455 312.788215 
L 359.292825 364.439294 
L 365.366195 360.971425 
L 371.439565 362.760942 
L 377.512935 363.893149 
L 383.586305 365.122875 
L 389.659675 362.394235 
L 395.733045 366.092848 
L 401.806415 361.226335 
L 407.879785 366.009577 
L 413.953155 364.717269 
L 420.026525 365.242342 
L 426.099896 366.514333 
L 432.173266 362.856475 
L 438.246636 365.088868 
L 444.320006 367.332941 
L 450.393376 362.701927 
L 456.466746 364.993377 
L 462.540116 366.23814 
L 468.613486 366.769849 
L 474.686856 365.732626 
L 480.760226 363.954312 
L 486.833596 366.360808 
L 492.906966 362.374913 
L 498.980336 364.944475 
L 505.053706 365.244921 
L 511.127076 364.792084 
L 517.200447 367.054444 
L 523.273817 367.304977 
L 529.347187 363.808943 
L 535.420557 367.506655 
L 541.493927 365.976363 
L 547.567297 365.466605 
L 553.640667 366.732486 
L 559.714037 365.725964 
L 565.787407 367.437436 
L 571.860777 365.755176 
L 577.934147 366.167009 
L 584.007517 366.393814 
L 590.080887 368.970852 
L 596.154257 365.235037 
L 602.227627 368.64175 
L 608.300997 364.7606 
L 614.374368 365.347661 
L 620.447738 366.688144 
L 626.521108 366.916699 
L 632.594478 365.576967 
L 638.667848 366.763127 
L 644.741218 367.487681 
L 650.814588 365.282353 
L 656.887958 366.619654 
L 662.961328 366.39407 
L 669.034698 367.141814 
L 675.108068 366.305285 
" clip-path="url(#p35fca9a408)" style="fill: none; stroke: #9467bd; stroke-width: 1.5; stroke-linecap: square"/>
   </g>
   <g id="patch_3">
    <path d="M 43.78125 385.478125 
L 43.78125 22.318125 
" style="fill: none; stroke: #000000; stroke-width: 0.8; stroke-linejoin: miter; stroke-linecap: square"/>
   </g>
   <g id="patch_4">
    <path d="M 705.17125 385.478125 
L 705.17125 22.318125 
" style="fill: none; stroke: #000000; stroke-width: 0.8; stroke-linejoin: miter; stroke-linecap: square"/>
   </g>
   <g id="patch_5">
    <path d="M 43.78125 385.478125 
L 705.17125 385.478125 
" style="fill: none; stroke: #000000; stroke-width: 0.8; stroke-linejoin: miter; stroke-linecap: square"/>
   </g>
   <g id="patch_6">
    <path d="M 43.78125 22.318125 
L 705.17125 22.318125 
" style="fill: none; stroke: #000000; stroke-width: 0.8; stroke-linejoin: miter; stroke-linecap: square"/>
   </g>
   <g id="text_18">
    <!-- Combined Train Loss -->
    <g transform="translate(312.624688 16.318125) scale(0.12 -0.12)">
     <defs>
      <path id="DejaVuSans-43" d="M 4122 4306 
L 4122 3641 
Q 3803 3938 3442 4084 
Q 3081 4231 2675 4231 
Q 1875 4231 1450 3742 
Q 1025 3253 1025 2328 
Q 1025 1406 1450 917 
Q 1875 428 2675 428 
Q 3081 428 3442 575 
Q 3803 722 4122 1019 
L 4122 359 
Q 3791 134 3420 21 
Q 3050 -91 2638 -91 
Q 1578 -91 968 557 
Q 359 1206 359 2328 
Q 359 3453 968 4101 
Q 1578 4750 2638 4750 
Q 3056 4750 3426 4639 
Q 3797 4528 4122 4306 
z
" transform="scale(0.015625)"/>
      <path id="DejaVuSans-6d" d="M 3328 2828 
Q 3544 3216 3844 3400 
Q 4144 3584 4550 3584 
Q 5097 3584 5394 3201 
Q 5691 2819 5691 2113 
L 5691 0 
L 5113 0 
L 5113 2094 
Q 5113 2597 4934 2840 
Q 4756 3084 4391 3084 
Q 3944 3084 3684 2787 
Q 3425 2491 3425 1978 
L 3425 0 
L 2847 0 
L 2847 2094 
Q 2847 2600 2669 2842 
Q 2491 3084 2119 3084 
Q 1678 3084 1418 2786 
Q 1159 2488 1159 1978 
L 1159 0 
L 581 0 
L 581 3500 
L 1159 3500 
L 1159 2956 
Q 1356 3278 1631 3431 
Q 1906 3584 2284 3584 
Q 2666 3584 2933 3390 
Q 3200 3197 3328 2828 
z
" transform="scale(0.015625)"/>
      <path id="DejaVuSans-62" d="M 3116 1747 
Q 3116 2381 2855 2742 
Q 2594 3103 2138 3103 
Q 1681 3103 1420 2742 
Q 1159 2381 1159 1747 
Q 1159 1113 1420 752 
Q 1681 391 2138 391 
Q 2594 391 2855 752 
Q 3116 1113 3116 1747 
z
M 1159 2969 
Q 1341 3281 1617 3432 
Q 1894 3584 2278 3584 
Q 2916 3584 3314 3078 
Q 3713 2572 3713 1747 
Q 3713 922 3314 415 
Q 2916 -91 2278 -91 
Q 1894 -91 1617 61 
Q 1341 213 1159 525 
L 1159 0 
L 581 0 
L 581 4863 
L 1159 4863 
L 1159 2969 
z
" transform="scale(0.015625)"/>
      <path id="DejaVuSans-65" d="M 3597 1894 
L 3597 1613 
L 953 1613 
Q 991 1019 1311 708 
Q 1631 397 2203 397 
Q 2534 397 2845 478 
Q 3156 559 3463 722 
L 3463 178 
Q 3153 47 2828 -22 
Q 2503 -91 2169 -91 
Q 1331 -91 842 396 
Q 353 884 353 1716 
Q 353 2575 817 3079 
Q 1281 3584 2069 3584 
Q 2775 3584 3186 3129 
Q 3597 2675 3597 1894 
z
M 3022 2063 
Q 3016 2534 2758 2815 
Q 2500 3097 2075 3097 
Q 1594 3097 1305 2825 
Q 1016 2553 972 2059 
L 3022 2063 
z
" transform="scale(0.015625)"/>
      <path id="DejaVuSans-64" d="M 2906 2969 
L 2906 4863 
L 3481 4863 
L 3481 0 
L 2906 0 
L 2906 525 
Q 2725 213 2448 61 
Q 2172 -91 1784 -91 
Q 1150 -91 751 415 
Q 353 922 353 1747 
Q 353 2572 751 3078 
Q 1150 3584 1784 3584 
Q 2172 3584 2448 3432 
Q 2725 3281 2906 2969 
z
M 947 1747 
Q 947 1113 1208 752 
Q 1469 391 1925 391 
Q 2381 391 2643 752 
Q 2906 1113 2906 1747 
Q 2906 2381 2643 2742 
Q 2381 3103 1925 3103 
Q 1469 3103 1208 2742 
Q 947 2381 947 1747 
z
" transform="scale(0.015625)"/>
     </defs>
     <use xlink:href="#DejaVuSans-43"/>
     <use xlink:href="#DejaVuSans-6f" transform="translate(69.824219 0)"/>
     <use xlink:href="#DejaVuSans-6d" transform="translate(131.005859 0)"/>
     <use xlink:href="#DejaVuSans-62" transform="translate(228.417969 0)"/>
     <use xlink:href="#DejaVuSans-69" transform="translate(291.894531 0)"/>
     <use xlink:href="#DejaVuSans-6e" transform="translate(319.677734 0)"/>
     <use xlink:href="#DejaVuSans-65" transform="translate(383.056641 0)"/>
     <use xlink:href="#DejaVuSans-64" transform="translate(444.580078 0)"/>
     <use xlink:href="#DejaVuSans-20" transform="translate(508.056641 0)"/>
     <use xlink:href="#DejaVuSans-54" transform="translate(539.84375 0)"/>
     <use xlink:href="#DejaVuSans-72" transform="translate(586.177734 0)"/>
     <use xlink:href="#DejaVuSans-61" transform="translate(627.291016 0)"/>
     <use xlink:href="#DejaVuSans-69" transform="translate(688.570312 0)"/>
     <use xlink:href="#DejaVuSans-6e" transform="translate(716.353516 0)"/>
     <use xlink:href="#DejaVuSans-20" transform="translate(779.732422 0)"/>
     <use xlink:href="#DejaVuSans-4c" transform="translate(811.519531 0)"/>
     <use xlink:href="#DejaVuSans-6f" transform="translate(865.482422 0)"/>
     <use xlink:href="#DejaVuSans-73" transform="translate(926.664062 0)"/>
     <use xlink:href="#DejaVuSans-73" transform="translate(978.763672 0)"/>
    </g>
   </g>
   <g id="legend_1">
    <g id="patch_7">
     <path d="M 635.99625 103.70875 
L 698.17125 103.70875 
Q 700.17125 103.70875 700.17125 101.70875 
L 700.17125 29.318125 
Q 700.17125 27.318125 698.17125 27.318125 
L 635.99625 27.318125 
Q 633.99625 27.318125 633.99625 29.318125 
L 633.99625 101.70875 
Q 633.99625 103.70875 635.99625 103.70875 
z
" style="fill: #ffffff; opacity: 0.8; stroke: #cccccc; stroke-linejoin: miter"/>
    </g>
    <g id="line2d_21">
     <path d="M 637.99625 35.416562 
L 647.99625 35.416562 
L 657.99625 35.416562 
" style="fill: none; stroke: #1f77b4; stroke-width: 1.5; stroke-linecap: square"/>
    </g>
    <g id="text_19">
     <!-- Fold 1 -->
     <g transform="translate(665.99625 38.916562) scale(0.1 -0.1)">
      <defs>
       <path id="DejaVuSans-46" d="M 628 4666 
L 3309 4666 
L 3309 4134 
L 1259 4134 
L 1259 2759 
L 3109 2759 
L 3109 2228 
L 1259 2228 
L 1259 0 
L 628 0 
L 628 4666 
z
" transform="scale(0.015625)"/>
       <path id="DejaVuSans-6c" d="M 603 4863 
L 1178 4863 
L 1178 0 
L 603 0 
L 603 4863 
z
" transform="scale(0.015625)"/>
      </defs>
      <use xlink:href="#DejaVuSans-46"/>
      <use xlink:href="#DejaVuSans-6f" transform="translate(53.894531 0)"/>
      <use xlink:href="#DejaVuSans-6c" transform="translate(115.076172 0)"/>
      <use xlink:href="#DejaVuSans-64" transform="translate(142.859375 0)"/>
      <use xlink:href="#DejaVuSans-20" transform="translate(206.335938 0)"/>
      <use xlink:href="#DejaVuSans-31" transform="translate(238.123047 0)"/>
     </g>
    </g>
    <g id="line2d_22">
     <path d="M 637.99625 50.094688 
L 647.99625 50.094688 
L 657.99625 50.094688 
" style="fill: none; stroke: #ff7f0e; stroke-width: 1.5; stroke-linecap: square"/>
    </g>
    <g id="text_20">
     <!-- Fold 2 -->
     <g transform="translate(665.99625 53.594688) scale(0.1 -0.1)">
      <use xlink:href="#DejaVuSans-46"/>
      <use xlink:href="#DejaVuSans-6f" transform="translate(53.894531 0)"/>
      <use xlink:href="#DejaVuSans-6c" transform="translate(115.076172 0)"/>
      <use xlink:href="#DejaVuSans-64" transform="translate(142.859375 0)"/>
      <use xlink:href="#DejaVuSans-20" transform="translate(206.335938 0)"/>
      <use xlink:href="#DejaVuSans-32" transform="translate(238.123047 0)"/>
     </g>
    </g>
    <g id="line2d_23">
     <path d="M 637.99625 64.772812 
L 647.99625 64.772812 
L 657.99625 64.772812 
" style="fill: none; stroke: #2ca02c; stroke-width: 1.5; stroke-linecap: square"/>
    </g>
    <g id="text_21">
     <!-- Fold 3 -->
     <g transform="translate(665.99625 68.272812) scale(0.1 -0.1)">
      <use xlink:href="#DejaVuSans-46"/>
      <use xlink:href="#DejaVuSans-6f" transform="translate(53.894531 0)"/>
      <use xlink:href="#DejaVuSans-6c" transform="translate(115.076172 0)"/>
      <use xlink:href="#DejaVuSans-64" transform="translate(142.859375 0)"/>
      <use xlink:href="#DejaVuSans-20" transform="translate(206.335938 0)"/>
      <use xlink:href="#DejaVuSans-33" transform="translate(238.123047 0)"/>
     </g>
    </g>
    <g id="line2d_24">
     <path d="M 637.99625 79.450938 
L 647.99625 79.450938 
L 657.99625 79.450938 
" style="fill: none; stroke: #d62728; stroke-width: 1.5; stroke-linecap: square"/>
    </g>
    <g id="text_22">
     <!-- Fold 4 -->
     <g transform="translate(665.99625 82.950938) scale(0.1 -0.1)">
      <use xlink:href="#DejaVuSans-46"/>
      <use xlink:href="#DejaVuSans-6f" transform="translate(53.894531 0)"/>
      <use xlink:href="#DejaVuSans-6c" transform="translate(115.076172 0)"/>
      <use xlink:href="#DejaVuSans-64" transform="translate(142.859375 0)"/>
      <use xlink:href="#DejaVuSans-20" transform="translate(206.335938 0)"/>
      <use xlink:href="#DejaVuSans-34" transform="translate(238.123047 0)"/>
     </g>
    </g>
    <g id="line2d_25">
     <path d="M 637.99625 94.129063 
L 647.99625 94.129063 
L 657.99625 94.129063 
" style="fill: none; stroke: #9467bd; stroke-width: 1.5; stroke-linecap: square"/>
    </g>
    <g id="text_23">
     <!-- Fold 5 -->
     <g transform="translate(665.99625 97.629063) scale(0.1 -0.1)">
      <use xlink:href="#DejaVuSans-46"/>
      <use xlink:href="#DejaVuSans-6f" transform="translate(53.894531 0)"/>
      <use xlink:href="#DejaVuSans-6c" transform="translate(115.076172 0)"/>
      <use xlink:href="#DejaVuSans-64" transform="translate(142.859375 0)"/>
      <use xlink:href="#DejaVuSans-20" transform="translate(206.335938 0)"/>
      <use xlink:href="#DejaVuSans-35" transform="translate(238.123047 0)"/>
     </g>
    </g>
   </g>
  </g>
 </g>
 <defs>
  <clipPath id="p35fca9a408">
   <rect x="43.78125" y="22.318125" width="661.39" height="363.16"/>
  </clipPath>
 </defs>
</svg>
