<?xml version="1.0" encoding="utf-8" standalone="no"?>
<!DOCTYPE svg PUBLIC "-//W3C//DTD SVG 1.1//EN"
  "http://www.w3.org/Graphics/SVG/1.1/DTD/svg11.dtd">
<svg xmlns:xlink="http://www.w3.org/1999/xlink" width="712.37125pt" height="423.034375pt" viewBox="0 0 712.37125 423.034375" xmlns="http://www.w3.org/2000/svg" version="1.1">
 <metadata>
  <rdf:RDF xmlns:dc="http://purl.org/dc/elements/1.1/" xmlns:cc="http://creativecommons.org/ns#" xmlns:rdf="http://www.w3.org/1999/02/22-rdf-syntax-ns#">
   <cc:Work>
    <dc:type rdf:resource="http://purl.org/dc/dcmitype/StillImage"/>
    <dc:date>2025-06-26T16:16:14.721003</dc:date>
    <dc:format>image/svg+xml</dc:format>
    <dc:creator>
     <cc:Agent>
      <dc:title>Matplotlib v3.10.0, https://matplotlib.org/</dc:title>
     </cc:Agent>
    </dc:creator>
   </cc:Work>
  </rdf:RDF>
 </metadata>
 <defs>
  <style type="text/css">*{stroke-linejoin: round; stroke-linecap: butt}</style>
 </defs>
 <g id="figure_1">
  <g id="patch_1">
   <path d="M 0 423.034375 
L 712.37125 423.034375 
L 712.37125 0 
L 0 0 
z
" style="fill: #ffffff"/>
  </g>
  <g id="axes_1">
   <g id="patch_2">
    <path d="M 43.78125 385.478125 
L 705.17125 385.478125 
L 705.17125 22.318125 
L 43.78125 22.318125 
z
" style="fill: #ffffff"/>
   </g>
   <g id="matplotlib.axis_1">
    <g id="xtick_1">
     <g id="line2d_1">
      <defs>
       <path id="ma57969c0b7" d="M 0 0 
L 0 3.5 
" style="stroke: #000000; stroke-width: 0.8"/>
      </defs>
      <g>
       <use xlink:href="#ma57969c0b7" x="67.771062" y="385.478125" style="stroke: #000000; stroke-width: 0.8"/>
      </g>
     </g>
     <g id="text_1">
      <!-- 0 -->
      <g transform="translate(64.589812 400.076562) scale(0.1 -0.1)">
       <defs>
        <path id="DejaVuSans-30" d="M 2034 4250 
Q 1547 4250 1301 3770 
Q 1056 3291 1056 2328 
Q 1056 1369 1301 889 
Q 1547 409 2034 409 
Q 2525 409 2770 889 
Q 3016 1369 3016 2328 
Q 3016 3291 2770 3770 
Q 2525 4250 2034 4250 
z
M 2034 4750 
Q 2819 4750 3233 4129 
Q 3647 3509 3647 2328 
Q 3647 1150 3233 529 
Q 2819 -91 2034 -91 
Q 1250 -91 836 529 
Q 422 1150 422 2328 
Q 422 3509 836 4129 
Q 1250 4750 2034 4750 
z
" transform="scale(0.015625)"/>
       </defs>
       <use xlink:href="#DejaVuSans-30"/>
      </g>
     </g>
    </g>
    <g id="xtick_2">
     <g id="line2d_2">
      <g>
       <use xlink:href="#ma57969c0b7" x="189.238463" y="385.478125" style="stroke: #000000; stroke-width: 0.8"/>
      </g>
     </g>
     <g id="text_2">
      <!-- 20 -->
      <g transform="translate(182.875963 400.076562) scale(0.1 -0.1)">
       <defs>
        <path id="DejaVuSans-32" d="M 1228 531 
L 3431 531 
L 3431 0 
L 469 0 
L 469 531 
Q 828 903 1448 1529 
Q 2069 2156 2228 2338 
Q 2531 2678 2651 2914 
Q 2772 3150 2772 3378 
Q 2772 3750 2511 3984 
Q 2250 4219 1831 4219 
Q 1534 4219 1204 4116 
Q 875 4013 500 3803 
L 500 4441 
Q 881 4594 1212 4672 
Q 1544 4750 1819 4750 
Q 2544 4750 2975 4387 
Q 3406 4025 3406 3419 
Q 3406 3131 3298 2873 
Q 3191 2616 2906 2266 
Q 2828 2175 2409 1742 
Q 1991 1309 1228 531 
z
" transform="scale(0.015625)"/>
       </defs>
       <use xlink:href="#DejaVuSans-32"/>
       <use xlink:href="#DejaVuSans-30" transform="translate(63.623047 0)"/>
      </g>
     </g>
    </g>
    <g id="xtick_3">
     <g id="line2d_3">
      <g>
       <use xlink:href="#ma57969c0b7" x="310.705864" y="385.478125" style="stroke: #000000; stroke-width: 0.8"/>
      </g>
     </g>
     <g id="text_3">
      <!-- 40 -->
      <g transform="translate(304.343364 400.076562) scale(0.1 -0.1)">
       <defs>
        <path id="DejaVuSans-34" d="M 2419 4116 
L 825 1625 
L 2419 1625 
L 2419 4116 
z
M 2253 4666 
L 3047 4666 
L 3047 1625 
L 3713 1625 
L 3713 1100 
L 3047 1100 
L 3047 0 
L 2419 0 
L 2419 1100 
L 313 1100 
L 313 1709 
L 2253 4666 
z
" transform="scale(0.015625)"/>
       </defs>
       <use xlink:href="#DejaVuSans-34"/>
       <use xlink:href="#DejaVuSans-30" transform="translate(63.623047 0)"/>
      </g>
     </g>
    </g>
    <g id="xtick_4">
     <g id="line2d_4">
      <g>
       <use xlink:href="#ma57969c0b7" x="432.173266" y="385.478125" style="stroke: #000000; stroke-width: 0.8"/>
      </g>
     </g>
     <g id="text_4">
      <!-- 60 -->
      <g transform="translate(425.810766 400.076562) scale(0.1 -0.1)">
       <defs>
        <path id="DejaVuSans-36" d="M 2113 2584 
Q 1688 2584 1439 2293 
Q 1191 2003 1191 1497 
Q 1191 994 1439 701 
Q 1688 409 2113 409 
Q 2538 409 2786 701 
Q 3034 994 3034 1497 
Q 3034 2003 2786 2293 
Q 2538 2584 2113 2584 
z
M 3366 4563 
L 3366 3988 
Q 3128 4100 2886 4159 
Q 2644 4219 2406 4219 
Q 1781 4219 1451 3797 
Q 1122 3375 1075 2522 
Q 1259 2794 1537 2939 
Q 1816 3084 2150 3084 
Q 2853 3084 3261 2657 
Q 3669 2231 3669 1497 
Q 3669 778 3244 343 
Q 2819 -91 2113 -91 
Q 1303 -91 875 529 
Q 447 1150 447 2328 
Q 447 3434 972 4092 
Q 1497 4750 2381 4750 
Q 2619 4750 2861 4703 
Q 3103 4656 3366 4563 
z
" transform="scale(0.015625)"/>
       </defs>
       <use xlink:href="#DejaVuSans-36"/>
       <use xlink:href="#DejaVuSans-30" transform="translate(63.623047 0)"/>
      </g>
     </g>
    </g>
    <g id="xtick_5">
     <g id="line2d_5">
      <g>
       <use xlink:href="#ma57969c0b7" x="553.640667" y="385.478125" style="stroke: #000000; stroke-width: 0.8"/>
      </g>
     </g>
     <g id="text_5">
      <!-- 80 -->
      <g transform="translate(547.278167 400.076562) scale(0.1 -0.1)">
       <defs>
        <path id="DejaVuSans-38" d="M 2034 2216 
Q 1584 2216 1326 1975 
Q 1069 1734 1069 1313 
Q 1069 891 1326 650 
Q 1584 409 2034 409 
Q 2484 409 2743 651 
Q 3003 894 3003 1313 
Q 3003 1734 2745 1975 
Q 2488 2216 2034 2216 
z
M 1403 2484 
Q 997 2584 770 2862 
Q 544 3141 544 3541 
Q 544 4100 942 4425 
Q 1341 4750 2034 4750 
Q 2731 4750 3128 4425 
Q 3525 4100 3525 3541 
Q 3525 3141 3298 2862 
Q 3072 2584 2669 2484 
Q 3125 2378 3379 2068 
Q 3634 1759 3634 1313 
Q 3634 634 3220 271 
Q 2806 -91 2034 -91 
Q 1263 -91 848 271 
Q 434 634 434 1313 
Q 434 1759 690 2068 
Q 947 2378 1403 2484 
z
M 1172 3481 
Q 1172 3119 1398 2916 
Q 1625 2713 2034 2713 
Q 2441 2713 2670 2916 
Q 2900 3119 2900 3481 
Q 2900 3844 2670 4047 
Q 2441 4250 2034 4250 
Q 1625 4250 1398 4047 
Q 1172 3844 1172 3481 
z
" transform="scale(0.015625)"/>
       </defs>
       <use xlink:href="#DejaVuSans-38"/>
       <use xlink:href="#DejaVuSans-30" transform="translate(63.623047 0)"/>
      </g>
     </g>
    </g>
    <g id="xtick_6">
     <g id="line2d_6">
      <g>
       <use xlink:href="#ma57969c0b7" x="675.108068" y="385.478125" style="stroke: #000000; stroke-width: 0.8"/>
      </g>
     </g>
     <g id="text_6">
      <!-- 100 -->
      <g transform="translate(665.564318 400.076562) scale(0.1 -0.1)">
       <defs>
        <path id="DejaVuSans-31" d="M 794 531 
L 1825 531 
L 1825 4091 
L 703 3866 
L 703 4441 
L 1819 4666 
L 2450 4666 
L 2450 531 
L 3481 531 
L 3481 0 
L 794 0 
L 794 531 
z
" transform="scale(0.015625)"/>
       </defs>
       <use xlink:href="#DejaVuSans-31"/>
       <use xlink:href="#DejaVuSans-30" transform="translate(63.623047 0)"/>
       <use xlink:href="#DejaVuSans-30" transform="translate(127.246094 0)"/>
      </g>
     </g>
    </g>
    <g id="text_7">
     <!-- Epoch -->
     <g transform="translate(359.165313 413.754687) scale(0.1 -0.1)">
      <defs>
       <path id="DejaVuSans-45" d="M 628 4666 
L 3578 4666 
L 3578 4134 
L 1259 4134 
L 1259 2753 
L 3481 2753 
L 3481 2222 
L 1259 2222 
L 1259 531 
L 3634 531 
L 3634 0 
L 628 0 
L 628 4666 
z
" transform="scale(0.015625)"/>
       <path id="DejaVuSans-70" d="M 1159 525 
L 1159 -1331 
L 581 -1331 
L 581 3500 
L 1159 3500 
L 1159 2969 
Q 1341 3281 1617 3432 
Q 1894 3584 2278 3584 
Q 2916 3584 3314 3078 
Q 3713 2572 3713 1747 
Q 3713 922 3314 415 
Q 2916 -91 2278 -91 
Q 1894 -91 1617 61 
Q 1341 213 1159 525 
z
M 3116 1747 
Q 3116 2381 2855 2742 
Q 2594 3103 2138 3103 
Q 1681 3103 1420 2742 
Q 1159 2381 1159 1747 
Q 1159 1113 1420 752 
Q 1681 391 2138 391 
Q 2594 391 2855 752 
Q 3116 1113 3116 1747 
z
" transform="scale(0.015625)"/>
       <path id="DejaVuSans-6f" d="M 1959 3097 
Q 1497 3097 1228 2736 
Q 959 2375 959 1747 
Q 959 1119 1226 758 
Q 1494 397 1959 397 
Q 2419 397 2687 759 
Q 2956 1122 2956 1747 
Q 2956 2369 2687 2733 
Q 2419 3097 1959 3097 
z
M 1959 3584 
Q 2709 3584 3137 3096 
Q 3566 2609 3566 1747 
Q 3566 888 3137 398 
Q 2709 -91 1959 -91 
Q 1206 -91 779 398 
Q 353 888 353 1747 
Q 353 2609 779 3096 
Q 1206 3584 1959 3584 
z
" transform="scale(0.015625)"/>
       <path id="DejaVuSans-63" d="M 3122 3366 
L 3122 2828 
Q 2878 2963 2633 3030 
Q 2388 3097 2138 3097 
Q 1578 3097 1268 2742 
Q 959 2388 959 1747 
Q 959 1106 1268 751 
Q 1578 397 2138 397 
Q 2388 397 2633 464 
Q 2878 531 3122 666 
L 3122 134 
Q 2881 22 2623 -34 
Q 2366 -91 2075 -91 
Q 1284 -91 818 406 
Q 353 903 353 1747 
Q 353 2603 823 3093 
Q 1294 3584 2113 3584 
Q 2378 3584 2631 3529 
Q 2884 3475 3122 3366 
z
" transform="scale(0.015625)"/>
       <path id="DejaVuSans-68" d="M 3513 2113 
L 3513 0 
L 2938 0 
L 2938 2094 
Q 2938 2591 2744 2837 
Q 2550 3084 2163 3084 
Q 1697 3084 1428 2787 
Q 1159 2491 1159 1978 
L 1159 0 
L 581 0 
L 581 4863 
L 1159 4863 
L 1159 2956 
Q 1366 3272 1645 3428 
Q 1925 3584 2291 3584 
Q 2894 3584 3203 3211 
Q 3513 2838 3513 2113 
z
" transform="scale(0.015625)"/>
      </defs>
      <use xlink:href="#DejaVuSans-45"/>
      <use xlink:href="#DejaVuSans-70" transform="translate(63.183594 0)"/>
      <use xlink:href="#DejaVuSans-6f" transform="translate(126.660156 0)"/>
      <use xlink:href="#DejaVuSans-63" transform="translate(187.841797 0)"/>
      <use xlink:href="#DejaVuSans-68" transform="translate(242.822266 0)"/>
     </g>
    </g>
   </g>
   <g id="matplotlib.axis_2">
    <g id="ytick_1">
     <g id="line2d_7">
      <defs>
       <path id="m2ce927139c" d="M 0 0 
L -3.5 0 
" style="stroke: #000000; stroke-width: 0.8"/>
      </defs>
      <g>
       <use xlink:href="#m2ce927139c" x="43.78125" y="328.203006" style="stroke: #000000; stroke-width: 0.8"/>
      </g>
     </g>
     <g id="text_8">
      <!-- 0.6 -->
      <g transform="translate(20.878125 332.002224) scale(0.1 -0.1)">
       <defs>
        <path id="DejaVuSans-2e" d="M 684 794 
L 1344 794 
L 1344 0 
L 684 0 
L 684 794 
z
" transform="scale(0.015625)"/>
       </defs>
       <use xlink:href="#DejaVuSans-30"/>
       <use xlink:href="#DejaVuSans-2e" transform="translate(63.623047 0)"/>
       <use xlink:href="#DejaVuSans-36" transform="translate(95.410156 0)"/>
      </g>
     </g>
    </g>
    <g id="ytick_2">
     <g id="line2d_8">
      <g>
       <use xlink:href="#m2ce927139c" x="43.78125" y="270.482805" style="stroke: #000000; stroke-width: 0.8"/>
      </g>
     </g>
     <g id="text_9">
      <!-- 0.8 -->
      <g transform="translate(20.878125 274.282024) scale(0.1 -0.1)">
       <use xlink:href="#DejaVuSans-30"/>
       <use xlink:href="#DejaVuSans-2e" transform="translate(63.623047 0)"/>
       <use xlink:href="#DejaVuSans-38" transform="translate(95.410156 0)"/>
      </g>
     </g>
    </g>
    <g id="ytick_3">
     <g id="line2d_9">
      <g>
       <use xlink:href="#m2ce927139c" x="43.78125" y="212.762604" style="stroke: #000000; stroke-width: 0.8"/>
      </g>
     </g>
     <g id="text_10">
      <!-- 1.0 -->
      <g transform="translate(20.878125 216.561823) scale(0.1 -0.1)">
       <use xlink:href="#DejaVuSans-31"/>
       <use xlink:href="#DejaVuSans-2e" transform="translate(63.623047 0)"/>
       <use xlink:href="#DejaVuSans-30" transform="translate(95.410156 0)"/>
      </g>
     </g>
    </g>
    <g id="ytick_4">
     <g id="line2d_10">
      <g>
       <use xlink:href="#m2ce927139c" x="43.78125" y="155.042403" style="stroke: #000000; stroke-width: 0.8"/>
      </g>
     </g>
     <g id="text_11">
      <!-- 1.2 -->
      <g transform="translate(20.878125 158.841622) scale(0.1 -0.1)">
       <use xlink:href="#DejaVuSans-31"/>
       <use xlink:href="#DejaVuSans-2e" transform="translate(63.623047 0)"/>
       <use xlink:href="#DejaVuSans-32" transform="translate(95.410156 0)"/>
      </g>
     </g>
    </g>
    <g id="ytick_5">
     <g id="line2d_11">
      <g>
       <use xlink:href="#m2ce927139c" x="43.78125" y="97.322203" style="stroke: #000000; stroke-width: 0.8"/>
      </g>
     </g>
     <g id="text_12">
      <!-- 1.4 -->
      <g transform="translate(20.878125 101.121421) scale(0.1 -0.1)">
       <use xlink:href="#DejaVuSans-31"/>
       <use xlink:href="#DejaVuSans-2e" transform="translate(63.623047 0)"/>
       <use xlink:href="#DejaVuSans-34" transform="translate(95.410156 0)"/>
      </g>
     </g>
    </g>
    <g id="ytick_6">
     <g id="line2d_12">
      <g>
       <use xlink:href="#m2ce927139c" x="43.78125" y="39.602002" style="stroke: #000000; stroke-width: 0.8"/>
      </g>
     </g>
     <g id="text_13">
      <!-- 1.6 -->
      <g transform="translate(20.878125 43.401221) scale(0.1 -0.1)">
       <use xlink:href="#DejaVuSans-31"/>
       <use xlink:href="#DejaVuSans-2e" transform="translate(63.623047 0)"/>
       <use xlink:href="#DejaVuSans-36" transform="translate(95.410156 0)"/>
      </g>
     </g>
    </g>
    <g id="text_14">
     <!-- Train Loss -->
     <g transform="translate(14.798438 228.448125) rotate(-90) scale(0.1 -0.1)">
      <defs>
       <path id="DejaVuSans-54" d="M -19 4666 
L 3928 4666 
L 3928 4134 
L 2272 4134 
L 2272 0 
L 1638 0 
L 1638 4134 
L -19 4134 
L -19 4666 
z
" transform="scale(0.015625)"/>
       <path id="DejaVuSans-72" d="M 2631 2963 
Q 2534 3019 2420 3045 
Q 2306 3072 2169 3072 
Q 1681 3072 1420 2755 
Q 1159 2438 1159 1844 
L 1159 0 
L 581 0 
L 581 3500 
L 1159 3500 
L 1159 2956 
Q 1341 3275 1631 3429 
Q 1922 3584 2338 3584 
Q 2397 3584 2469 3576 
Q 2541 3569 2628 3553 
L 2631 2963 
z
" transform="scale(0.015625)"/>
       <path id="DejaVuSans-61" d="M 2194 1759 
Q 1497 1759 1228 1600 
Q 959 1441 959 1056 
Q 959 750 1161 570 
Q 1363 391 1709 391 
Q 2188 391 2477 730 
Q 2766 1069 2766 1631 
L 2766 1759 
L 2194 1759 
z
M 3341 1997 
L 3341 0 
L 2766 0 
L 2766 531 
Q 2569 213 2275 61 
Q 1981 -91 1556 -91 
Q 1019 -91 701 211 
Q 384 513 384 1019 
Q 384 1609 779 1909 
Q 1175 2209 1959 2209 
L 2766 2209 
L 2766 2266 
Q 2766 2663 2505 2880 
Q 2244 3097 1772 3097 
Q 1472 3097 1187 3025 
Q 903 2953 641 2809 
L 641 3341 
Q 956 3463 1253 3523 
Q 1550 3584 1831 3584 
Q 2591 3584 2966 3190 
Q 3341 2797 3341 1997 
z
" transform="scale(0.015625)"/>
       <path id="DejaVuSans-69" d="M 603 3500 
L 1178 3500 
L 1178 0 
L 603 0 
L 603 3500 
z
M 603 4863 
L 1178 4863 
L 1178 4134 
L 603 4134 
L 603 4863 
z
" transform="scale(0.015625)"/>
       <path id="DejaVuSans-6e" d="M 3513 2113 
L 3513 0 
L 2938 0 
L 2938 2094 
Q 2938 2591 2744 2837 
Q 2550 3084 2163 3084 
Q 1697 3084 1428 2787 
Q 1159 2491 1159 1978 
L 1159 0 
L 581 0 
L 581 3500 
L 1159 3500 
L 1159 2956 
Q 1366 3272 1645 3428 
Q 1925 3584 2291 3584 
Q 2894 3584 3203 3211 
Q 3513 2838 3513 2113 
z
" transform="scale(0.015625)"/>
       <path id="DejaVuSans-20" transform="scale(0.015625)"/>
       <path id="DejaVuSans-4c" d="M 628 4666 
L 1259 4666 
L 1259 531 
L 3531 531 
L 3531 0 
L 628 0 
L 628 4666 
z
" transform="scale(0.015625)"/>
       <path id="DejaVuSans-73" d="M 2834 3397 
L 2834 2853 
Q 2591 2978 2328 3040 
Q 2066 3103 1784 3103 
Q 1356 3103 1142 2972 
Q 928 2841 928 2578 
Q 928 2378 1081 2264 
Q 1234 2150 1697 2047 
L 1894 2003 
Q 2506 1872 2764 1633 
Q 3022 1394 3022 966 
Q 3022 478 2636 193 
Q 2250 -91 1575 -91 
Q 1294 -91 989 -36 
Q 684 19 347 128 
L 347 722 
Q 666 556 975 473 
Q 1284 391 1588 391 
Q 1994 391 2212 530 
Q 2431 669 2431 922 
Q 2431 1156 2273 1281 
Q 2116 1406 1581 1522 
L 1381 1569 
Q 847 1681 609 1914 
Q 372 2147 372 2553 
Q 372 3047 722 3315 
Q 1072 3584 1716 3584 
Q 2034 3584 2315 3537 
Q 2597 3491 2834 3397 
z
" transform="scale(0.015625)"/>
      </defs>
      <use xlink:href="#DejaVuSans-54"/>
      <use xlink:href="#DejaVuSans-72" transform="translate(46.333984 0)"/>
      <use xlink:href="#DejaVuSans-61" transform="translate(87.447266 0)"/>
      <use xlink:href="#DejaVuSans-69" transform="translate(148.726562 0)"/>
      <use xlink:href="#DejaVuSans-6e" transform="translate(176.509766 0)"/>
      <use xlink:href="#DejaVuSans-20" transform="translate(239.888672 0)"/>
      <use xlink:href="#DejaVuSans-4c" transform="translate(271.675781 0)"/>
      <use xlink:href="#DejaVuSans-6f" transform="translate(325.638672 0)"/>
      <use xlink:href="#DejaVuSans-73" transform="translate(386.820312 0)"/>
      <use xlink:href="#DejaVuSans-73" transform="translate(438.919922 0)"/>
     </g>
    </g>
   </g>
   <g id="line2d_13">
    <path d="M 73.844432 152.880074 
L 79.917802 89.725795 
L 85.991172 92.451266 
L 92.064542 95.931805 
L 98.137912 97.403441 
L 104.211282 97.948292 
L 110.284652 96.026292 
L 116.358022 95.326947 
L 122.431392 99.528185 
L 128.504762 113.340447 
L 134.578132 144.60768 
L 140.651503 157.440819 
L 146.724873 157.998838 
L 152.798243 148.523792 
L 158.871613 99.247213 
L 164.944983 95.576643 
L 171.018353 97.322224 
L 177.091723 95.979825 
L 183.165093 98.233298 
L 189.238463 96.636284 
L 195.311833 97.435339 
L 201.385203 98.515569 
L 207.458573 94.650143 
L 213.531943 92.936511 
L 219.605313 96.122099 
L 225.678683 96.550754 
L 231.752053 94.533158 
L 237.825424 99.142404 
L 243.898794 95.659292 
L 249.972164 96.858179 
L 256.045534 94.999272 
L 262.118904 95.776567 
L 268.192274 96.490123 
L 274.265644 93.984678 
L 280.339014 94.794651 
L 286.412384 97.348137 
L 292.485754 97.986848 
L 298.559124 94.907978 
L 304.632494 95.326905 
L 310.705864 96.263725 
L 316.779234 97.611032 
L 322.852604 96.65986 
L 328.925975 94.419711 
L 334.999345 97.0797 
L 341.072715 95.615586 
L 347.146085 98.622072 
L 353.219455 96.893766 
L 359.292825 98.595288 
L 365.366195 97.728848 
L 371.439565 93.120231 
L 377.512935 99.722688 
L 383.586305 96.596932 
L 389.659675 95.008207 
L 395.733045 108.694193 
L 401.806415 142.68519 
L 407.879785 143.853146 
L 413.953155 138.116594 
L 420.026525 150.904796 
L 426.099896 155.715735 
L 432.173266 142.782438 
L 438.246636 155.06375 
L 444.320006 150.115712 
L 450.393376 156.194106 
L 456.466746 151.153306 
L 462.540116 151.483557 
L 468.613486 152.721439 
L 474.686856 162.12269 
L 480.760226 162.0343 
L 486.833596 156.792801 
L 492.906966 157.794141 
L 498.980336 157.794072 
L 505.053706 159.518401 
L 511.127076 165.556436 
L 517.200447 73.658807 
L 523.273817 136.60224 
L 529.347187 174.066723 
L 535.420557 163.61675 
L 541.493927 198.178245 
L 547.567297 207.027527 
L 553.640667 145.045192 
L 559.714037 94.218019 
L 565.787407 105.639143 
L 571.860777 110.397209 
L 577.934147 112.784504 
L 584.007517 120.025548 
L 590.080887 114.027591 
L 596.154257 114.813144 
L 602.227627 114.720222 
L 608.300997 135.426093 
L 614.374368 137.593985 
L 620.447738 143.82865 
L 626.521108 142.577804 
L 632.594478 137.054398 
L 638.667848 136.974331 
L 644.741218 131.88554 
L 650.814588 157.732673 
L 656.887958 231.75667 
L 662.961328 186.873063 
L 669.034698 220.148457 
L 675.108068 233.92159 
" clip-path="url(#p3cf455070a)" style="fill: none; stroke: #1f77b4; stroke-width: 1.5; stroke-linecap: square"/>
   </g>
   <g id="line2d_14">
    <path d="M 73.844432 198.690678 
L 79.917802 235.179883 
L 85.991172 234.644008 
L 92.064542 245.482967 
L 98.137912 251.414757 
L 104.211282 245.058682 
L 110.284652 245.963675 
L 116.358022 242.407359 
L 122.431392 234.838831 
L 128.504762 233.376232 
L 134.578132 86.240083 
L 140.651503 78.374344 
L 146.724873 76.643931 
L 152.798243 85.008133 
L 158.871613 79.522418 
L 164.944983 88.481571 
L 171.018353 83.902506 
L 177.091723 82.052015 
L 183.165093 92.596051 
L 189.238463 87.34759 
L 195.311833 85.825855 
L 201.385203 92.932268 
L 207.458573 90.22439 
L 213.531943 88.24317 
L 219.605313 92.543524 
L 225.678683 89.827542 
L 231.752053 89.085237 
L 237.825424 92.30311 
L 243.898794 85.386166 
L 249.972164 89.962878 
L 256.045534 90.852613 
L 262.118904 78.570779 
L 268.192274 87.439332 
L 274.265644 89.410167 
L 280.339014 86.377496 
L 286.412384 89.852163 
L 292.485754 90.008329 
L 298.559124 90.484582 
L 304.632494 84.992524 
L 310.705864 87.955074 
L 316.779234 89.812142 
L 322.852604 89.693228 
L 328.925975 89.682337 
L 334.999345 88.222032 
L 341.072715 93.912939 
L 347.146085 89.471011 
L 353.219455 87.207728 
L 359.292825 84.284911 
L 365.366195 86.026355 
L 371.439565 81.759036 
L 377.512935 89.451134 
L 383.586305 84.772691 
L 389.659675 79.635622 
L 395.733045 84.535083 
L 401.806415 90.245867 
L 407.879785 88.21502 
L 413.953155 85.646864 
L 420.026525 89.764131 
L 426.099896 85.935292 
L 432.173266 88.627353 
L 438.246636 88.668123 
L 444.320006 92.666792 
L 450.393376 90.702729 
L 456.466746 94.617264 
L 462.540116 92.859424 
L 468.613486 89.206756 
L 474.686856 85.939952 
L 480.760226 90.108615 
L 486.833596 89.44718 
L 492.906966 89.694222 
L 498.980336 77.910089 
L 505.053706 91.994198 
L 511.127076 89.119249 
L 517.200447 86.277349 
L 523.273817 89.160799 
L 529.347187 89.381266 
L 535.420557 87.241408 
L 541.493927 85.740818 
L 547.567297 85.833253 
L 553.640667 90.666866 
L 559.714037 87.595827 
L 565.787407 86.326846 
L 571.860777 81.722259 
L 577.934147 91.310024 
L 584.007517 90.114967 
L 590.080887 94.141037 
L 596.154257 84.806209 
L 602.227627 90.938903 
L 608.300997 87.594673 
L 614.374368 89.024644 
L 620.447738 79.202601 
L 626.521108 83.085822 
L 632.594478 84.75324 
L 638.667848 90.867197 
L 644.741218 88.007008 
L 650.814588 89.991907 
L 656.887958 85.623755 
L 662.961328 87.43155 
L 669.034698 86.19132 
L 675.108068 86.476418 
" clip-path="url(#p3cf455070a)" style="fill: none; stroke: #ff7f0e; stroke-width: 1.5; stroke-linecap: square"/>
   </g>
   <g id="line2d_15">
    <path d="M 73.844432 210.729889 
L 79.917802 255.443718 
L 85.991172 260.490102 
L 92.064542 259.604649 
L 98.137912 101.410306 
L 104.211282 91.811434 
L 110.284652 92.688802 
L 116.358022 95.80728 
L 122.431392 91.356988 
L 128.504762 93.839578 
L 134.578132 92.308869 
L 140.651503 89.269286 
L 146.724873 91.563206 
L 152.798243 90.012646 
L 158.871613 93.802008 
L 164.944983 90.874096 
L 171.018353 91.290535 
L 177.091723 94.764657 
L 183.165093 96.284724 
L 189.238463 91.449704 
L 195.311833 92.616626 
L 201.385203 93.025181 
L 207.458573 92.933029 
L 213.531943 91.835862 
L 219.605313 95.659169 
L 225.678683 92.458209 
L 231.752053 93.590443 
L 237.825424 91.953434 
L 243.898794 90.479166 
L 249.972164 91.556853 
L 256.045534 92.686849 
L 262.118904 88.215081 
L 268.192274 94.0976 
L 274.265644 91.139408 
L 280.339014 93.178399 
L 286.412384 95.271408 
L 292.485754 94.63325 
L 298.559124 93.76655 
L 304.632494 85.882685 
L 310.705864 87.19398 
L 316.779234 94.031765 
L 322.852604 92.489172 
L 328.925975 92.728512 
L 334.999345 94.661272 
L 341.072715 92.442989 
L 347.146085 95.322923 
L 353.219455 91.757569 
L 359.292825 89.774038 
L 365.366195 91.865675 
L 371.439565 91.294364 
L 377.512935 92.612054 
L 383.586305 92.548874 
L 389.659675 92.645352 
L 395.733045 92.31049 
L 401.806415 94.527661 
L 407.879785 90.075639 
L 413.953155 90.061798 
L 420.026525 92.886521 
L 426.099896 90.428854 
L 432.173266 94.914417 
L 438.246636 96.169225 
L 444.320006 92.802093 
L 450.393376 94.93564 
L 456.466746 92.997756 
L 462.540116 94.890449 
L 468.613486 94.192398 
L 474.686856 92.285006 
L 480.760226 95.453386 
L 486.833596 93.829006 
L 492.906966 92.827742 
L 498.980336 95.902664 
L 505.053706 93.807726 
L 511.127076 93.991875 
L 517.200447 93.307881 
L 523.273817 92.288865 
L 529.347187 92.184426 
L 535.420557 95.692904 
L 541.493927 87.746256 
L 547.567297 91.314086 
L 553.640667 92.612991 
L 559.714037 93.837976 
L 565.787407 92.816362 
L 571.860777 92.958024 
L 577.934147 94.338748 
L 584.007517 95.527728 
L 590.080887 90.999484 
L 596.154257 89.583063 
L 602.227627 94.023107 
L 608.300997 91.082012 
L 614.374368 92.937586 
L 620.447738 91.726974 
L 626.521108 93.250203 
L 632.594478 92.539126 
L 638.667848 93.542426 
L 644.741218 90.725202 
L 650.814588 93.011678 
L 656.887958 92.225953 
L 662.961328 94.569163 
L 669.034698 94.302095 
L 675.108068 91.173989 
" clip-path="url(#p3cf455070a)" style="fill: none; stroke: #2ca02c; stroke-width: 1.5; stroke-linecap: square"/>
   </g>
   <g id="line2d_16">
    <path d="M 73.844432 216.304656 
L 79.917802 229.977232 
L 85.991172 119.328554 
L 92.064542 80.007301 
L 98.137912 92.925116 
L 104.211282 86.632654 
L 110.284652 82.610214 
L 116.358022 92.935042 
L 122.431392 94.098161 
L 128.504762 91.18635 
L 134.578132 96.86081 
L 140.651503 96.547299 
L 146.724873 96.498621 
L 152.798243 98.082841 
L 158.871613 97.034884 
L 164.944983 95.885617 
L 171.018353 96.114933 
L 177.091723 95.389767 
L 183.165093 96.094891 
L 189.238463 96.580054 
L 195.311833 97.215344 
L 201.385203 96.927106 
L 207.458573 96.150519 
L 213.531943 96.962763 
L 219.605313 96.628534 
L 225.678683 96.372082 
L 231.752053 96.399098 
L 237.825424 94.57305 
L 243.898794 95.317512 
L 249.972164 96.402533 
L 256.045534 96.62072 
L 262.118904 97.703934 
L 268.192274 96.312755 
L 274.265644 86.138352 
L 280.339014 179.759996 
L 286.412384 241.392391 
L 292.485754 246.869182 
L 298.559124 249.695598 
L 304.632494 260.021773 
L 310.705864 245.930492 
L 316.779234 248.691566 
L 322.852604 237.492539 
L 328.925975 240.628713 
L 334.999345 253.172041 
L 341.072715 269.033797 
L 347.146085 270.243182 
L 353.219455 264.755535 
L 359.292825 259.400454 
L 365.366195 266.769894 
L 371.439565 254.461509 
L 377.512935 267.179404 
L 383.586305 267.231647 
L 389.659675 264.074676 
L 395.733045 260.088687 
L 401.806415 263.897742 
L 407.879785 272.861491 
L 413.953155 258.976598 
L 420.026525 267.696351 
L 426.099896 270.567685 
L 432.173266 256.72362 
L 438.246636 262.754061 
L 444.320006 268.289406 
L 450.393376 262.28805 
L 456.466746 262.583855 
L 462.540116 259.193216 
L 468.613486 259.546674 
L 474.686856 275.235322 
L 480.760226 260.160123 
L 486.833596 269.163496 
L 492.906966 252.509326 
L 498.980336 268.27968 
L 505.053706 242.47358 
L 511.127076 265.099343 
L 517.200447 271.278762 
L 523.273817 273.532862 
L 529.347187 263.215948 
L 535.420557 275.662753 
L 541.493927 262.318587 
L 547.567297 246.677494 
L 553.640667 275.344499 
L 559.714037 220.061046 
L 565.787407 234.309529 
L 571.860777 238.678116 
L 577.934147 232.145494 
L 584.007517 186.224093 
L 590.080887 245.656882 
L 596.154257 253.877763 
L 602.227627 259.395409 
L 608.300997 251.637633 
L 614.374368 256.595989 
L 620.447738 249.234923 
L 626.521108 251.157781 
L 632.594478 256.187977 
L 638.667848 254.562949 
L 644.741218 250.272402 
L 650.814588 248.171475 
L 656.887958 255.749807 
L 662.961328 256.198975 
L 669.034698 247.094974 
L 675.108068 263.138289 
" clip-path="url(#p3cf455070a)" style="fill: none; stroke: #d62728; stroke-width: 1.5; stroke-linecap: square"/>
   </g>
   <g id="line2d_17">
    <path d="M 73.844432 160.508425 
L 79.917802 232.497059 
L 85.991172 232.623102 
L 92.064542 232.999919 
L 98.137912 38.825398 
L 104.211282 80.969868 
L 110.284652 87.781751 
L 116.358022 83.105419 
L 122.431392 90.67992 
L 128.504762 91.362674 
L 134.578132 131.411868 
L 140.651503 150.741455 
L 146.724873 97.592137 
L 152.798243 96.969232 
L 158.871613 98.150528 
L 164.944983 97.523791 
L 171.018353 95.11529 
L 177.091723 96.900556 
L 183.165093 96.407047 
L 189.238463 94.493169 
L 195.311833 97.420687 
L 201.385203 97.168552 
L 207.458573 96.220017 
L 213.531943 97.187238 
L 219.605313 96.459674 
L 225.678683 97.955494 
L 231.752053 95.374291 
L 237.825424 97.126811 
L 243.898794 150.233727 
L 249.972164 172.444718 
L 256.045534 164.709027 
L 262.118904 157.084403 
L 268.192274 160.159376 
L 274.265644 184.171762 
L 280.339014 182.000631 
L 286.412384 234.660135 
L 292.485754 228.479739 
L 298.559124 244.990683 
L 304.632494 231.814899 
L 310.705864 272.061246 
L 316.779234 345.673609 
L 322.852604 360.293384 
L 328.925975 353.836161 
L 334.999345 344.047891 
L 341.072715 348.276255 
L 347.146085 351.217047 
L 353.219455 346.425702 
L 359.292825 357.017388 
L 365.366195 354.954043 
L 371.439565 342.201875 
L 377.512935 277.408827 
L 383.586305 290.296385 
L 389.659675 283.904939 
L 395.733045 320.704085 
L 401.806415 324.00117 
L 407.879785 331.052357 
L 413.953155 334.953536 
L 420.026525 340.999218 
L 426.099896 297.062491 
L 432.173266 323.702414 
L 438.246636 320.890549 
L 444.320006 339.705099 
L 450.393376 322.306299 
L 456.466746 359.266014 
L 462.540116 354.878111 
L 468.613486 362.117856 
L 474.686856 278.459908 
L 480.760226 304.235542 
L 486.833596 316.437548 
L 492.906966 324.599775 
L 498.980336 327.468394 
L 505.053706 327.020361 
L 511.127076 329.476605 
L 517.200447 334.99121 
L 523.273817 327.507298 
L 529.347187 325.789243 
L 535.420557 319.863357 
L 541.493927 322.460648 
L 547.567297 338.438987 
L 553.640667 334.861066 
L 559.714037 329.891586 
L 565.787407 332.754933 
L 571.860777 329.308556 
L 577.934147 325.565502 
L 584.007517 339.411914 
L 590.080887 324.465564 
L 596.154257 329.741161 
L 602.227627 326.368436 
L 608.300997 325.68891 
L 614.374368 360.755928 
L 620.447738 364.914866 
L 626.521108 355.380571 
L 632.594478 361.09293 
L 638.667848 365.837407 
L 644.741218 360.803683 
L 650.814588 360.62444 
L 656.887958 368.970852 
L 662.961328 365.3791 
L 669.034698 358.709696 
L 675.108068 359.227974 
" clip-path="url(#p3cf455070a)" style="fill: none; stroke: #9467bd; stroke-width: 1.5; stroke-linecap: square"/>
   </g>
   <g id="patch_3">
    <path d="M 43.78125 385.478125 
L 43.78125 22.318125 
" style="fill: none; stroke: #000000; stroke-width: 0.8; stroke-linejoin: miter; stroke-linecap: square"/>
   </g>
   <g id="patch_4">
    <path d="M 705.17125 385.478125 
L 705.17125 22.318125 
" style="fill: none; stroke: #000000; stroke-width: 0.8; stroke-linejoin: miter; stroke-linecap: square"/>
   </g>
   <g id="patch_5">
    <path d="M 43.78125 385.478125 
L 705.17125 385.478125 
" style="fill: none; stroke: #000000; stroke-width: 0.8; stroke-linejoin: miter; stroke-linecap: square"/>
   </g>
   <g id="patch_6">
    <path d="M 43.78125 22.318125 
L 705.17125 22.318125 
" style="fill: none; stroke: #000000; stroke-width: 0.8; stroke-linejoin: miter; stroke-linecap: square"/>
   </g>
   <g id="text_15">
    <!-- Combined Train Loss -->
    <g transform="translate(312.624688 16.318125) scale(0.12 -0.12)">
     <defs>
      <path id="DejaVuSans-43" d="M 4122 4306 
L 4122 3641 
Q 3803 3938 3442 4084 
Q 3081 4231 2675 4231 
Q 1875 4231 1450 3742 
Q 1025 3253 1025 2328 
Q 1025 1406 1450 917 
Q 1875 428 2675 428 
Q 3081 428 3442 575 
Q 3803 722 4122 1019 
L 4122 359 
Q 3791 134 3420 21 
Q 3050 -91 2638 -91 
Q 1578 -91 968 557 
Q 359 1206 359 2328 
Q 359 3453 968 4101 
Q 1578 4750 2638 4750 
Q 3056 4750 3426 4639 
Q 3797 4528 4122 4306 
z
" transform="scale(0.015625)"/>
      <path id="DejaVuSans-6d" d="M 3328 2828 
Q 3544 3216 3844 3400 
Q 4144 3584 4550 3584 
Q 5097 3584 5394 3201 
Q 5691 2819 5691 2113 
L 5691 0 
L 5113 0 
L 5113 2094 
Q 5113 2597 4934 2840 
Q 4756 3084 4391 3084 
Q 3944 3084 3684 2787 
Q 3425 2491 3425 1978 
L 3425 0 
L 2847 0 
L 2847 2094 
Q 2847 2600 2669 2842 
Q 2491 3084 2119 3084 
Q 1678 3084 1418 2786 
Q 1159 2488 1159 1978 
L 1159 0 
L 581 0 
L 581 3500 
L 1159 3500 
L 1159 2956 
Q 1356 3278 1631 3431 
Q 1906 3584 2284 3584 
Q 2666 3584 2933 3390 
Q 3200 3197 3328 2828 
z
" transform="scale(0.015625)"/>
      <path id="DejaVuSans-62" d="M 3116 1747 
Q 3116 2381 2855 2742 
Q 2594 3103 2138 3103 
Q 1681 3103 1420 2742 
Q 1159 2381 1159 1747 
Q 1159 1113 1420 752 
Q 1681 391 2138 391 
Q 2594 391 2855 752 
Q 3116 1113 3116 1747 
z
M 1159 2969 
Q 1341 3281 1617 3432 
Q 1894 3584 2278 3584 
Q 2916 3584 3314 3078 
Q 3713 2572 3713 1747 
Q 3713 922 3314 415 
Q 2916 -91 2278 -91 
Q 1894 -91 1617 61 
Q 1341 213 1159 525 
L 1159 0 
L 581 0 
L 581 4863 
L 1159 4863 
L 1159 2969 
z
" transform="scale(0.015625)"/>
      <path id="DejaVuSans-65" d="M 3597 1894 
L 3597 1613 
L 953 1613 
Q 991 1019 1311 708 
Q 1631 397 2203 397 
Q 2534 397 2845 478 
Q 3156 559 3463 722 
L 3463 178 
Q 3153 47 2828 -22 
Q 2503 -91 2169 -91 
Q 1331 -91 842 396 
Q 353 884 353 1716 
Q 353 2575 817 3079 
Q 1281 3584 2069 3584 
Q 2775 3584 3186 3129 
Q 3597 2675 3597 1894 
z
M 3022 2063 
Q 3016 2534 2758 2815 
Q 2500 3097 2075 3097 
Q 1594 3097 1305 2825 
Q 1016 2553 972 2059 
L 3022 2063 
z
" transform="scale(0.015625)"/>
      <path id="DejaVuSans-64" d="M 2906 2969 
L 2906 4863 
L 3481 4863 
L 3481 0 
L 2906 0 
L 2906 525 
Q 2725 213 2448 61 
Q 2172 -91 1784 -91 
Q 1150 -91 751 415 
Q 353 922 353 1747 
Q 353 2572 751 3078 
Q 1150 3584 1784 3584 
Q 2172 3584 2448 3432 
Q 2725 3281 2906 2969 
z
M 947 1747 
Q 947 1113 1208 752 
Q 1469 391 1925 391 
Q 2381 391 2643 752 
Q 2906 1113 2906 1747 
Q 2906 2381 2643 2742 
Q 2381 3103 1925 3103 
Q 1469 3103 1208 2742 
Q 947 2381 947 1747 
z
" transform="scale(0.015625)"/>
     </defs>
     <use xlink:href="#DejaVuSans-43"/>
     <use xlink:href="#DejaVuSans-6f" transform="translate(69.824219 0)"/>
     <use xlink:href="#DejaVuSans-6d" transform="translate(131.005859 0)"/>
     <use xlink:href="#DejaVuSans-62" transform="translate(228.417969 0)"/>
     <use xlink:href="#DejaVuSans-69" transform="translate(291.894531 0)"/>
     <use xlink:href="#DejaVuSans-6e" transform="translate(319.677734 0)"/>
     <use xlink:href="#DejaVuSans-65" transform="translate(383.056641 0)"/>
     <use xlink:href="#DejaVuSans-64" transform="translate(444.580078 0)"/>
     <use xlink:href="#DejaVuSans-20" transform="translate(508.056641 0)"/>
     <use xlink:href="#DejaVuSans-54" transform="translate(539.84375 0)"/>
     <use xlink:href="#DejaVuSans-72" transform="translate(586.177734 0)"/>
     <use xlink:href="#DejaVuSans-61" transform="translate(627.291016 0)"/>
     <use xlink:href="#DejaVuSans-69" transform="translate(688.570312 0)"/>
     <use xlink:href="#DejaVuSans-6e" transform="translate(716.353516 0)"/>
     <use xlink:href="#DejaVuSans-20" transform="translate(779.732422 0)"/>
     <use xlink:href="#DejaVuSans-4c" transform="translate(811.519531 0)"/>
     <use xlink:href="#DejaVuSans-6f" transform="translate(865.482422 0)"/>
     <use xlink:href="#DejaVuSans-73" transform="translate(926.664062 0)"/>
     <use xlink:href="#DejaVuSans-73" transform="translate(978.763672 0)"/>
    </g>
   </g>
   <g id="legend_1">
    <g id="patch_7">
     <path d="M 50.78125 380.478125 
L 112.95625 380.478125 
Q 114.95625 380.478125 114.95625 378.478125 
L 114.95625 306.0875 
Q 114.95625 304.0875 112.95625 304.0875 
L 50.78125 304.0875 
Q 48.78125 304.0875 48.78125 306.0875 
L 48.78125 378.478125 
Q 48.78125 380.478125 50.78125 380.478125 
z
" style="fill: #ffffff; opacity: 0.8; stroke: #cccccc; stroke-linejoin: miter"/>
    </g>
    <g id="line2d_18">
     <path d="M 52.78125 312.185937 
L 62.78125 312.185937 
L 72.78125 312.185937 
" style="fill: none; stroke: #1f77b4; stroke-width: 1.5; stroke-linecap: square"/>
    </g>
    <g id="text_16">
     <!-- Fold 1 -->
     <g transform="translate(80.78125 315.685937) scale(0.1 -0.1)">
      <defs>
       <path id="DejaVuSans-46" d="M 628 4666 
L 3309 4666 
L 3309 4134 
L 1259 4134 
L 1259 2759 
L 3109 2759 
L 3109 2228 
L 1259 2228 
L 1259 0 
L 628 0 
L 628 4666 
z
" transform="scale(0.015625)"/>
       <path id="DejaVuSans-6c" d="M 603 4863 
L 1178 4863 
L 1178 0 
L 603 0 
L 603 4863 
z
" transform="scale(0.015625)"/>
      </defs>
      <use xlink:href="#DejaVuSans-46"/>
      <use xlink:href="#DejaVuSans-6f" transform="translate(53.894531 0)"/>
      <use xlink:href="#DejaVuSans-6c" transform="translate(115.076172 0)"/>
      <use xlink:href="#DejaVuSans-64" transform="translate(142.859375 0)"/>
      <use xlink:href="#DejaVuSans-20" transform="translate(206.335938 0)"/>
      <use xlink:href="#DejaVuSans-31" transform="translate(238.123047 0)"/>
     </g>
    </g>
    <g id="line2d_19">
     <path d="M 52.78125 326.864062 
L 62.78125 326.864062 
L 72.78125 326.864062 
" style="fill: none; stroke: #ff7f0e; stroke-width: 1.5; stroke-linecap: square"/>
    </g>
    <g id="text_17">
     <!-- Fold 2 -->
     <g transform="translate(80.78125 330.364062) scale(0.1 -0.1)">
      <use xlink:href="#DejaVuSans-46"/>
      <use xlink:href="#DejaVuSans-6f" transform="translate(53.894531 0)"/>
      <use xlink:href="#DejaVuSans-6c" transform="translate(115.076172 0)"/>
      <use xlink:href="#DejaVuSans-64" transform="translate(142.859375 0)"/>
      <use xlink:href="#DejaVuSans-20" transform="translate(206.335938 0)"/>
      <use xlink:href="#DejaVuSans-32" transform="translate(238.123047 0)"/>
     </g>
    </g>
    <g id="line2d_20">
     <path d="M 52.78125 341.542187 
L 62.78125 341.542187 
L 72.78125 341.542187 
" style="fill: none; stroke: #2ca02c; stroke-width: 1.5; stroke-linecap: square"/>
    </g>
    <g id="text_18">
     <!-- Fold 3 -->
     <g transform="translate(80.78125 345.042187) scale(0.1 -0.1)">
      <defs>
       <path id="DejaVuSans-33" d="M 2597 2516 
Q 3050 2419 3304 2112 
Q 3559 1806 3559 1356 
Q 3559 666 3084 287 
Q 2609 -91 1734 -91 
Q 1441 -91 1130 -33 
Q 819 25 488 141 
L 488 750 
Q 750 597 1062 519 
Q 1375 441 1716 441 
Q 2309 441 2620 675 
Q 2931 909 2931 1356 
Q 2931 1769 2642 2001 
Q 2353 2234 1838 2234 
L 1294 2234 
L 1294 2753 
L 1863 2753 
Q 2328 2753 2575 2939 
Q 2822 3125 2822 3475 
Q 2822 3834 2567 4026 
Q 2313 4219 1838 4219 
Q 1578 4219 1281 4162 
Q 984 4106 628 3988 
L 628 4550 
Q 988 4650 1302 4700 
Q 1616 4750 1894 4750 
Q 2613 4750 3031 4423 
Q 3450 4097 3450 3541 
Q 3450 3153 3228 2886 
Q 3006 2619 2597 2516 
z
" transform="scale(0.015625)"/>
      </defs>
      <use xlink:href="#DejaVuSans-46"/>
      <use xlink:href="#DejaVuSans-6f" transform="translate(53.894531 0)"/>
      <use xlink:href="#DejaVuSans-6c" transform="translate(115.076172 0)"/>
      <use xlink:href="#DejaVuSans-64" transform="translate(142.859375 0)"/>
      <use xlink:href="#DejaVuSans-20" transform="translate(206.335938 0)"/>
      <use xlink:href="#DejaVuSans-33" transform="translate(238.123047 0)"/>
     </g>
    </g>
    <g id="line2d_21">
     <path d="M 52.78125 356.220312 
L 62.78125 356.220312 
L 72.78125 356.220312 
" style="fill: none; stroke: #d62728; stroke-width: 1.5; stroke-linecap: square"/>
    </g>
    <g id="text_19">
     <!-- Fold 4 -->
     <g transform="translate(80.78125 359.720312) scale(0.1 -0.1)">
      <use xlink:href="#DejaVuSans-46"/>
      <use xlink:href="#DejaVuSans-6f" transform="translate(53.894531 0)"/>
      <use xlink:href="#DejaVuSans-6c" transform="translate(115.076172 0)"/>
      <use xlink:href="#DejaVuSans-64" transform="translate(142.859375 0)"/>
      <use xlink:href="#DejaVuSans-20" transform="translate(206.335938 0)"/>
      <use xlink:href="#DejaVuSans-34" transform="translate(238.123047 0)"/>
     </g>
    </g>
    <g id="line2d_22">
     <path d="M 52.78125 370.898437 
L 62.78125 370.898437 
L 72.78125 370.898437 
" style="fill: none; stroke: #9467bd; stroke-width: 1.5; stroke-linecap: square"/>
    </g>
    <g id="text_20">
     <!-- Fold 5 -->
     <g transform="translate(80.78125 374.398437) scale(0.1 -0.1)">
      <defs>
       <path id="DejaVuSans-35" d="M 691 4666 
L 3169 4666 
L 3169 4134 
L 1269 4134 
L 1269 2991 
Q 1406 3038 1543 3061 
Q 1681 3084 1819 3084 
Q 2600 3084 3056 2656 
Q 3513 2228 3513 1497 
Q 3513 744 3044 326 
Q 2575 -91 1722 -91 
Q 1428 -91 1123 -41 
Q 819 9 494 109 
L 494 744 
Q 775 591 1075 516 
Q 1375 441 1709 441 
Q 2250 441 2565 725 
Q 2881 1009 2881 1497 
Q 2881 1984 2565 2268 
Q 2250 2553 1709 2553 
Q 1456 2553 1204 2497 
Q 953 2441 691 2322 
L 691 4666 
z
" transform="scale(0.015625)"/>
      </defs>
      <use xlink:href="#DejaVuSans-46"/>
      <use xlink:href="#DejaVuSans-6f" transform="translate(53.894531 0)"/>
      <use xlink:href="#DejaVuSans-6c" transform="translate(115.076172 0)"/>
      <use xlink:href="#DejaVuSans-64" transform="translate(142.859375 0)"/>
      <use xlink:href="#DejaVuSans-20" transform="translate(206.335938 0)"/>
      <use xlink:href="#DejaVuSans-35" transform="translate(238.123047 0)"/>
     </g>
    </g>
   </g>
  </g>
 </g>
 <defs>
  <clipPath id="p3cf455070a">
   <rect x="43.78125" y="22.318125" width="661.39" height="363.16"/>
  </clipPath>
 </defs>
</svg>
