<?xml version="1.0" encoding="utf-8" standalone="no"?>
<!DOCTYPE svg PUBLIC "-//W3C//DTD SVG 1.1//EN"
  "http://www.w3.org/Graphics/SVG/1.1/DTD/svg11.dtd">
<svg xmlns:xlink="http://www.w3.org/1999/xlink" width="712.52375pt" height="423.034375pt" viewBox="0 0 712.52375 423.034375" xmlns="http://www.w3.org/2000/svg" version="1.1">
 <metadata>
  <rdf:RDF xmlns:dc="http://purl.org/dc/elements/1.1/" xmlns:cc="http://creativecommons.org/ns#" xmlns:rdf="http://www.w3.org/1999/02/22-rdf-syntax-ns#">
   <cc:Work>
    <dc:type rdf:resource="http://purl.org/dc/dcmitype/StillImage"/>
    <dc:date>2025-09-10T20:04:05.113061</dc:date>
    <dc:format>image/svg+xml</dc:format>
    <dc:creator>
     <cc:Agent>
      <dc:title>Matplotlib v3.10.3, https://matplotlib.org/</dc:title>
     </cc:Agent>
    </dc:creator>
   </cc:Work>
  </rdf:RDF>
 </metadata>
 <defs>
  <style type="text/css">*{stroke-linejoin: round; stroke-linecap: butt}</style>
 </defs>
 <g id="figure_1">
  <g id="patch_1">
   <path d="M 0 423.034375 
L 712.52375 423.034375 
L 712.52375 0 
L 0 0 
z
" style="fill: #ffffff"/>
  </g>
  <g id="axes_1">
   <g id="patch_2">
    <path d="M 50.14375 385.478125 
L 705.32375 385.478125 
L 705.32375 22.318125 
L 50.14375 22.318125 
z
" style="fill: #ffffff"/>
   </g>
   <g id="matplotlib.axis_1">
    <g id="xtick_1">
     <g id="line2d_1">
      <defs>
       <path id="m9e550bf36e" d="M 0 0 
L 0 3.5 
" style="stroke: #000000; stroke-width: 0.8"/>
      </defs>
      <g>
       <use xlink:href="#m9e550bf36e" x="73.908314" y="385.478125" style="stroke: #000000; stroke-width: 0.8"/>
      </g>
     </g>
     <g id="text_1">
      <!-- 0 -->
      <g transform="translate(70.727064 400.076562) scale(0.1 -0.1)">
       <defs>
        <path id="DejaVuSans-30" d="M 2034 4250 
Q 1547 4250 1301 3770 
Q 1056 3291 1056 2328 
Q 1056 1369 1301 889 
Q 1547 409 2034 409 
Q 2525 409 2770 889 
Q 3016 1369 3016 2328 
Q 3016 3291 2770 3770 
Q 2525 4250 2034 4250 
z
M 2034 4750 
Q 2819 4750 3233 4129 
Q 3647 3509 3647 2328 
Q 3647 1150 3233 529 
Q 2819 -91 2034 -91 
Q 1250 -91 836 529 
Q 422 1150 422 2328 
Q 422 3509 836 4129 
Q 1250 4750 2034 4750 
z
" transform="scale(0.015625)"/>
       </defs>
       <use xlink:href="#DejaVuSans-30"/>
      </g>
     </g>
    </g>
    <g id="xtick_2">
     <g id="line2d_2">
      <g>
       <use xlink:href="#m9e550bf36e" x="194.235219" y="385.478125" style="stroke: #000000; stroke-width: 0.8"/>
      </g>
     </g>
     <g id="text_2">
      <!-- 20 -->
      <g transform="translate(187.872719 400.076562) scale(0.1 -0.1)">
       <defs>
        <path id="DejaVuSans-32" d="M 1228 531 
L 3431 531 
L 3431 0 
L 469 0 
L 469 531 
Q 828 903 1448 1529 
Q 2069 2156 2228 2338 
Q 2531 2678 2651 2914 
Q 2772 3150 2772 3378 
Q 2772 3750 2511 3984 
Q 2250 4219 1831 4219 
Q 1534 4219 1204 4116 
Q 875 4013 500 3803 
L 500 4441 
Q 881 4594 1212 4672 
Q 1544 4750 1819 4750 
Q 2544 4750 2975 4387 
Q 3406 4025 3406 3419 
Q 3406 3131 3298 2873 
Q 3191 2616 2906 2266 
Q 2828 2175 2409 1742 
Q 1991 1309 1228 531 
z
" transform="scale(0.015625)"/>
       </defs>
       <use xlink:href="#DejaVuSans-32"/>
       <use xlink:href="#DejaVuSans-30" transform="translate(63.623047 0)"/>
      </g>
     </g>
    </g>
    <g id="xtick_3">
     <g id="line2d_3">
      <g>
       <use xlink:href="#m9e550bf36e" x="314.562125" y="385.478125" style="stroke: #000000; stroke-width: 0.8"/>
      </g>
     </g>
     <g id="text_3">
      <!-- 40 -->
      <g transform="translate(308.199625 400.076562) scale(0.1 -0.1)">
       <defs>
        <path id="DejaVuSans-34" d="M 2419 4116 
L 825 1625 
L 2419 1625 
L 2419 4116 
z
M 2253 4666 
L 3047 4666 
L 3047 1625 
L 3713 1625 
L 3713 1100 
L 3047 1100 
L 3047 0 
L 2419 0 
L 2419 1100 
L 313 1100 
L 313 1709 
L 2253 4666 
z
" transform="scale(0.015625)"/>
       </defs>
       <use xlink:href="#DejaVuSans-34"/>
       <use xlink:href="#DejaVuSans-30" transform="translate(63.623047 0)"/>
      </g>
     </g>
    </g>
    <g id="xtick_4">
     <g id="line2d_4">
      <g>
       <use xlink:href="#m9e550bf36e" x="434.88903" y="385.478125" style="stroke: #000000; stroke-width: 0.8"/>
      </g>
     </g>
     <g id="text_4">
      <!-- 60 -->
      <g transform="translate(428.52653 400.076562) scale(0.1 -0.1)">
       <defs>
        <path id="DejaVuSans-36" d="M 2113 2584 
Q 1688 2584 1439 2293 
Q 1191 2003 1191 1497 
Q 1191 994 1439 701 
Q 1688 409 2113 409 
Q 2538 409 2786 701 
Q 3034 994 3034 1497 
Q 3034 2003 2786 2293 
Q 2538 2584 2113 2584 
z
M 3366 4563 
L 3366 3988 
Q 3128 4100 2886 4159 
Q 2644 4219 2406 4219 
Q 1781 4219 1451 3797 
Q 1122 3375 1075 2522 
Q 1259 2794 1537 2939 
Q 1816 3084 2150 3084 
Q 2853 3084 3261 2657 
Q 3669 2231 3669 1497 
Q 3669 778 3244 343 
Q 2819 -91 2113 -91 
Q 1303 -91 875 529 
Q 447 1150 447 2328 
Q 447 3434 972 4092 
Q 1497 4750 2381 4750 
Q 2619 4750 2861 4703 
Q 3103 4656 3366 4563 
z
" transform="scale(0.015625)"/>
       </defs>
       <use xlink:href="#DejaVuSans-36"/>
       <use xlink:href="#DejaVuSans-30" transform="translate(63.623047 0)"/>
      </g>
     </g>
    </g>
    <g id="xtick_5">
     <g id="line2d_5">
      <g>
       <use xlink:href="#m9e550bf36e" x="555.215935" y="385.478125" style="stroke: #000000; stroke-width: 0.8"/>
      </g>
     </g>
     <g id="text_5">
      <!-- 80 -->
      <g transform="translate(548.853435 400.076562) scale(0.1 -0.1)">
       <defs>
        <path id="DejaVuSans-38" d="M 2034 2216 
Q 1584 2216 1326 1975 
Q 1069 1734 1069 1313 
Q 1069 891 1326 650 
Q 1584 409 2034 409 
Q 2484 409 2743 651 
Q 3003 894 3003 1313 
Q 3003 1734 2745 1975 
Q 2488 2216 2034 2216 
z
M 1403 2484 
Q 997 2584 770 2862 
Q 544 3141 544 3541 
Q 544 4100 942 4425 
Q 1341 4750 2034 4750 
Q 2731 4750 3128 4425 
Q 3525 4100 3525 3541 
Q 3525 3141 3298 2862 
Q 3072 2584 2669 2484 
Q 3125 2378 3379 2068 
Q 3634 1759 3634 1313 
Q 3634 634 3220 271 
Q 2806 -91 2034 -91 
Q 1263 -91 848 271 
Q 434 634 434 1313 
Q 434 1759 690 2068 
Q 947 2378 1403 2484 
z
M 1172 3481 
Q 1172 3119 1398 2916 
Q 1625 2713 2034 2713 
Q 2441 2713 2670 2916 
Q 2900 3119 2900 3481 
Q 2900 3844 2670 4047 
Q 2441 4250 2034 4250 
Q 1625 4250 1398 4047 
Q 1172 3844 1172 3481 
z
" transform="scale(0.015625)"/>
       </defs>
       <use xlink:href="#DejaVuSans-38"/>
       <use xlink:href="#DejaVuSans-30" transform="translate(63.623047 0)"/>
      </g>
     </g>
    </g>
    <g id="xtick_6">
     <g id="line2d_6">
      <g>
       <use xlink:href="#m9e550bf36e" x="675.542841" y="385.478125" style="stroke: #000000; stroke-width: 0.8"/>
      </g>
     </g>
     <g id="text_6">
      <!-- 100 -->
      <g transform="translate(665.999091 400.076562) scale(0.1 -0.1)">
       <defs>
        <path id="DejaVuSans-31" d="M 794 531 
L 1825 531 
L 1825 4091 
L 703 3866 
L 703 4441 
L 1819 4666 
L 2450 4666 
L 2450 531 
L 3481 531 
L 3481 0 
L 794 0 
L 794 531 
z
" transform="scale(0.015625)"/>
       </defs>
       <use xlink:href="#DejaVuSans-31"/>
       <use xlink:href="#DejaVuSans-30" transform="translate(63.623047 0)"/>
       <use xlink:href="#DejaVuSans-30" transform="translate(127.246094 0)"/>
      </g>
     </g>
    </g>
    <g id="text_7">
     <!-- Epoch -->
     <g transform="translate(362.422813 413.754687) scale(0.1 -0.1)">
      <defs>
       <path id="DejaVuSans-45" d="M 628 4666 
L 3578 4666 
L 3578 4134 
L 1259 4134 
L 1259 2753 
L 3481 2753 
L 3481 2222 
L 1259 2222 
L 1259 531 
L 3634 531 
L 3634 0 
L 628 0 
L 628 4666 
z
" transform="scale(0.015625)"/>
       <path id="DejaVuSans-70" d="M 1159 525 
L 1159 -1331 
L 581 -1331 
L 581 3500 
L 1159 3500 
L 1159 2969 
Q 1341 3281 1617 3432 
Q 1894 3584 2278 3584 
Q 2916 3584 3314 3078 
Q 3713 2572 3713 1747 
Q 3713 922 3314 415 
Q 2916 -91 2278 -91 
Q 1894 -91 1617 61 
Q 1341 213 1159 525 
z
M 3116 1747 
Q 3116 2381 2855 2742 
Q 2594 3103 2138 3103 
Q 1681 3103 1420 2742 
Q 1159 2381 1159 1747 
Q 1159 1113 1420 752 
Q 1681 391 2138 391 
Q 2594 391 2855 752 
Q 3116 1113 3116 1747 
z
" transform="scale(0.015625)"/>
       <path id="DejaVuSans-6f" d="M 1959 3097 
Q 1497 3097 1228 2736 
Q 959 2375 959 1747 
Q 959 1119 1226 758 
Q 1494 397 1959 397 
Q 2419 397 2687 759 
Q 2956 1122 2956 1747 
Q 2956 2369 2687 2733 
Q 2419 3097 1959 3097 
z
M 1959 3584 
Q 2709 3584 3137 3096 
Q 3566 2609 3566 1747 
Q 3566 888 3137 398 
Q 2709 -91 1959 -91 
Q 1206 -91 779 398 
Q 353 888 353 1747 
Q 353 2609 779 3096 
Q 1206 3584 1959 3584 
z
" transform="scale(0.015625)"/>
       <path id="DejaVuSans-63" d="M 3122 3366 
L 3122 2828 
Q 2878 2963 2633 3030 
Q 2388 3097 2138 3097 
Q 1578 3097 1268 2742 
Q 959 2388 959 1747 
Q 959 1106 1268 751 
Q 1578 397 2138 397 
Q 2388 397 2633 464 
Q 2878 531 3122 666 
L 3122 134 
Q 2881 22 2623 -34 
Q 2366 -91 2075 -91 
Q 1284 -91 818 406 
Q 353 903 353 1747 
Q 353 2603 823 3093 
Q 1294 3584 2113 3584 
Q 2378 3584 2631 3529 
Q 2884 3475 3122 3366 
z
" transform="scale(0.015625)"/>
       <path id="DejaVuSans-68" d="M 3513 2113 
L 3513 0 
L 2938 0 
L 2938 2094 
Q 2938 2591 2744 2837 
Q 2550 3084 2163 3084 
Q 1697 3084 1428 2787 
Q 1159 2491 1159 1978 
L 1159 0 
L 581 0 
L 581 4863 
L 1159 4863 
L 1159 2956 
Q 1366 3272 1645 3428 
Q 1925 3584 2291 3584 
Q 2894 3584 3203 3211 
Q 3513 2838 3513 2113 
z
" transform="scale(0.015625)"/>
      </defs>
      <use xlink:href="#DejaVuSans-45"/>
      <use xlink:href="#DejaVuSans-70" transform="translate(63.183594 0)"/>
      <use xlink:href="#DejaVuSans-6f" transform="translate(126.660156 0)"/>
      <use xlink:href="#DejaVuSans-63" transform="translate(187.841797 0)"/>
      <use xlink:href="#DejaVuSans-68" transform="translate(242.822266 0)"/>
     </g>
    </g>
   </g>
   <g id="matplotlib.axis_2">
    <g id="ytick_1">
     <g id="line2d_7">
      <defs>
       <path id="m182d39382a" d="M 0 0 
L -3.5 0 
" style="stroke: #000000; stroke-width: 0.8"/>
      </defs>
      <g>
       <use xlink:href="#m182d39382a" x="50.14375" y="345.140711" style="stroke: #000000; stroke-width: 0.8"/>
      </g>
     </g>
     <g id="text_8">
      <!-- 0.10 -->
      <g transform="translate(20.878125 348.93993) scale(0.1 -0.1)">
       <defs>
        <path id="DejaVuSans-2e" d="M 684 794 
L 1344 794 
L 1344 0 
L 684 0 
L 684 794 
z
" transform="scale(0.015625)"/>
       </defs>
       <use xlink:href="#DejaVuSans-30"/>
       <use xlink:href="#DejaVuSans-2e" transform="translate(63.623047 0)"/>
       <use xlink:href="#DejaVuSans-31" transform="translate(95.410156 0)"/>
       <use xlink:href="#DejaVuSans-30" transform="translate(159.033203 0)"/>
      </g>
     </g>
    </g>
    <g id="ytick_2">
     <g id="line2d_8">
      <g>
       <use xlink:href="#m182d39382a" x="50.14375" y="279.64101" style="stroke: #000000; stroke-width: 0.8"/>
      </g>
     </g>
     <g id="text_9">
      <!-- 0.15 -->
      <g transform="translate(20.878125 283.440229) scale(0.1 -0.1)">
       <defs>
        <path id="DejaVuSans-35" d="M 691 4666 
L 3169 4666 
L 3169 4134 
L 1269 4134 
L 1269 2991 
Q 1406 3038 1543 3061 
Q 1681 3084 1819 3084 
Q 2600 3084 3056 2656 
Q 3513 2228 3513 1497 
Q 3513 744 3044 326 
Q 2575 -91 1722 -91 
Q 1428 -91 1123 -41 
Q 819 9 494 109 
L 494 744 
Q 775 591 1075 516 
Q 1375 441 1709 441 
Q 2250 441 2565 725 
Q 2881 1009 2881 1497 
Q 2881 1984 2565 2268 
Q 2250 2553 1709 2553 
Q 1456 2553 1204 2497 
Q 953 2441 691 2322 
L 691 4666 
z
" transform="scale(0.015625)"/>
       </defs>
       <use xlink:href="#DejaVuSans-30"/>
       <use xlink:href="#DejaVuSans-2e" transform="translate(63.623047 0)"/>
       <use xlink:href="#DejaVuSans-31" transform="translate(95.410156 0)"/>
       <use xlink:href="#DejaVuSans-35" transform="translate(159.033203 0)"/>
      </g>
     </g>
    </g>
    <g id="ytick_3">
     <g id="line2d_9">
      <g>
       <use xlink:href="#m182d39382a" x="50.14375" y="214.14131" style="stroke: #000000; stroke-width: 0.8"/>
      </g>
     </g>
     <g id="text_10">
      <!-- 0.20 -->
      <g transform="translate(20.878125 217.940528) scale(0.1 -0.1)">
       <use xlink:href="#DejaVuSans-30"/>
       <use xlink:href="#DejaVuSans-2e" transform="translate(63.623047 0)"/>
       <use xlink:href="#DejaVuSans-32" transform="translate(95.410156 0)"/>
       <use xlink:href="#DejaVuSans-30" transform="translate(159.033203 0)"/>
      </g>
     </g>
    </g>
    <g id="ytick_4">
     <g id="line2d_10">
      <g>
       <use xlink:href="#m182d39382a" x="50.14375" y="148.641609" style="stroke: #000000; stroke-width: 0.8"/>
      </g>
     </g>
     <g id="text_11">
      <!-- 0.25 -->
      <g transform="translate(20.878125 152.440828) scale(0.1 -0.1)">
       <use xlink:href="#DejaVuSans-30"/>
       <use xlink:href="#DejaVuSans-2e" transform="translate(63.623047 0)"/>
       <use xlink:href="#DejaVuSans-32" transform="translate(95.410156 0)"/>
       <use xlink:href="#DejaVuSans-35" transform="translate(159.033203 0)"/>
      </g>
     </g>
    </g>
    <g id="ytick_5">
     <g id="line2d_11">
      <g>
       <use xlink:href="#m182d39382a" x="50.14375" y="83.141908" style="stroke: #000000; stroke-width: 0.8"/>
      </g>
     </g>
     <g id="text_12">
      <!-- 0.30 -->
      <g transform="translate(20.878125 86.941127) scale(0.1 -0.1)">
       <defs>
        <path id="DejaVuSans-33" d="M 2597 2516 
Q 3050 2419 3304 2112 
Q 3559 1806 3559 1356 
Q 3559 666 3084 287 
Q 2609 -91 1734 -91 
Q 1441 -91 1130 -33 
Q 819 25 488 141 
L 488 750 
Q 750 597 1062 519 
Q 1375 441 1716 441 
Q 2309 441 2620 675 
Q 2931 909 2931 1356 
Q 2931 1769 2642 2001 
Q 2353 2234 1838 2234 
L 1294 2234 
L 1294 2753 
L 1863 2753 
Q 2328 2753 2575 2939 
Q 2822 3125 2822 3475 
Q 2822 3834 2567 4026 
Q 2313 4219 1838 4219 
Q 1578 4219 1281 4162 
Q 984 4106 628 3988 
L 628 4550 
Q 988 4650 1302 4700 
Q 1616 4750 1894 4750 
Q 2613 4750 3031 4423 
Q 3450 4097 3450 3541 
Q 3450 3153 3228 2886 
Q 3006 2619 2597 2516 
z
" transform="scale(0.015625)"/>
       </defs>
       <use xlink:href="#DejaVuSans-30"/>
       <use xlink:href="#DejaVuSans-2e" transform="translate(63.623047 0)"/>
       <use xlink:href="#DejaVuSans-33" transform="translate(95.410156 0)"/>
       <use xlink:href="#DejaVuSans-30" transform="translate(159.033203 0)"/>
      </g>
     </g>
    </g>
    <g id="text_13">
     <!-- Train Loss -->
     <g transform="translate(14.798438 228.448125) rotate(-90) scale(0.1 -0.1)">
      <defs>
       <path id="DejaVuSans-54" d="M -19 4666 
L 3928 4666 
L 3928 4134 
L 2272 4134 
L 2272 0 
L 1638 0 
L 1638 4134 
L -19 4134 
L -19 4666 
z
" transform="scale(0.015625)"/>
       <path id="DejaVuSans-72" d="M 2631 2963 
Q 2534 3019 2420 3045 
Q 2306 3072 2169 3072 
Q 1681 3072 1420 2755 
Q 1159 2438 1159 1844 
L 1159 0 
L 581 0 
L 581 3500 
L 1159 3500 
L 1159 2956 
Q 1341 3275 1631 3429 
Q 1922 3584 2338 3584 
Q 2397 3584 2469 3576 
Q 2541 3569 2628 3553 
L 2631 2963 
z
" transform="scale(0.015625)"/>
       <path id="DejaVuSans-61" d="M 2194 1759 
Q 1497 1759 1228 1600 
Q 959 1441 959 1056 
Q 959 750 1161 570 
Q 1363 391 1709 391 
Q 2188 391 2477 730 
Q 2766 1069 2766 1631 
L 2766 1759 
L 2194 1759 
z
M 3341 1997 
L 3341 0 
L 2766 0 
L 2766 531 
Q 2569 213 2275 61 
Q 1981 -91 1556 -91 
Q 1019 -91 701 211 
Q 384 513 384 1019 
Q 384 1609 779 1909 
Q 1175 2209 1959 2209 
L 2766 2209 
L 2766 2266 
Q 2766 2663 2505 2880 
Q 2244 3097 1772 3097 
Q 1472 3097 1187 3025 
Q 903 2953 641 2809 
L 641 3341 
Q 956 3463 1253 3523 
Q 1550 3584 1831 3584 
Q 2591 3584 2966 3190 
Q 3341 2797 3341 1997 
z
" transform="scale(0.015625)"/>
       <path id="DejaVuSans-69" d="M 603 3500 
L 1178 3500 
L 1178 0 
L 603 0 
L 603 3500 
z
M 603 4863 
L 1178 4863 
L 1178 4134 
L 603 4134 
L 603 4863 
z
" transform="scale(0.015625)"/>
       <path id="DejaVuSans-6e" d="M 3513 2113 
L 3513 0 
L 2938 0 
L 2938 2094 
Q 2938 2591 2744 2837 
Q 2550 3084 2163 3084 
Q 1697 3084 1428 2787 
Q 1159 2491 1159 1978 
L 1159 0 
L 581 0 
L 581 3500 
L 1159 3500 
L 1159 2956 
Q 1366 3272 1645 3428 
Q 1925 3584 2291 3584 
Q 2894 3584 3203 3211 
Q 3513 2838 3513 2113 
z
" transform="scale(0.015625)"/>
       <path id="DejaVuSans-20" transform="scale(0.015625)"/>
       <path id="DejaVuSans-4c" d="M 628 4666 
L 1259 4666 
L 1259 531 
L 3531 531 
L 3531 0 
L 628 0 
L 628 4666 
z
" transform="scale(0.015625)"/>
       <path id="DejaVuSans-73" d="M 2834 3397 
L 2834 2853 
Q 2591 2978 2328 3040 
Q 2066 3103 1784 3103 
Q 1356 3103 1142 2972 
Q 928 2841 928 2578 
Q 928 2378 1081 2264 
Q 1234 2150 1697 2047 
L 1894 2003 
Q 2506 1872 2764 1633 
Q 3022 1394 3022 966 
Q 3022 478 2636 193 
Q 2250 -91 1575 -91 
Q 1294 -91 989 -36 
Q 684 19 347 128 
L 347 722 
Q 666 556 975 473 
Q 1284 391 1588 391 
Q 1994 391 2212 530 
Q 2431 669 2431 922 
Q 2431 1156 2273 1281 
Q 2116 1406 1581 1522 
L 1381 1569 
Q 847 1681 609 1914 
Q 372 2147 372 2553 
Q 372 3047 722 3315 
Q 1072 3584 1716 3584 
Q 2034 3584 2315 3537 
Q 2597 3491 2834 3397 
z
" transform="scale(0.015625)"/>
      </defs>
      <use xlink:href="#DejaVuSans-54"/>
      <use xlink:href="#DejaVuSans-72" transform="translate(46.333984 0)"/>
      <use xlink:href="#DejaVuSans-61" transform="translate(87.447266 0)"/>
      <use xlink:href="#DejaVuSans-69" transform="translate(148.726562 0)"/>
      <use xlink:href="#DejaVuSans-6e" transform="translate(176.509766 0)"/>
      <use xlink:href="#DejaVuSans-20" transform="translate(239.888672 0)"/>
      <use xlink:href="#DejaVuSans-4c" transform="translate(271.675781 0)"/>
      <use xlink:href="#DejaVuSans-6f" transform="translate(325.638672 0)"/>
      <use xlink:href="#DejaVuSans-73" transform="translate(386.820312 0)"/>
      <use xlink:href="#DejaVuSans-73" transform="translate(438.919922 0)"/>
     </g>
    </g>
   </g>
   <g id="line2d_12">
    <path d="M 79.924659 38.825398 
L 85.941004 141.324258 
L 91.95735 134.621293 
L 97.973695 159.945637 
L 103.99004 159.643773 
L 110.006385 182.534681 
L 116.022731 184.255114 
L 122.039076 201.756978 
L 128.055421 225.331784 
L 134.071767 227.29919 
L 140.088112 244.418726 
L 146.104457 238.512682 
L 152.120802 242.667469 
L 158.137148 243.08671 
L 164.153493 251.275941 
L 170.169838 258.908586 
L 176.186183 275.907037 
L 182.202529 227.125282 
L 188.218874 267.241429 
L 194.235219 249.842224 
L 200.251565 273.434462 
L 206.26791 274.353972 
L 212.284255 277.398847 
L 218.3006 284.529055 
L 224.316946 281.039251 
L 230.333291 284.900744 
L 236.349636 291.519068 
L 242.365981 292.860024 
L 248.382327 291.420236 
L 254.398672 295.992663 
L 260.415017 298.619879 
L 266.431362 301.262458 
L 272.447708 306.46516 
L 278.464053 283.550125 
L 284.480398 303.653418 
L 290.496744 293.665398 
L 296.513089 302.314375 
L 302.529434 302.694457 
L 308.545779 304.951273 
L 314.562125 308.734059 
L 320.57847 315.113053 
L 326.594815 299.396421 
L 332.61116 318.355299 
L 338.627506 323.069045 
L 344.643851 321.608623 
L 350.660196 310.916951 
L 356.676542 326.07196 
L 362.692887 330.510292 
L 368.709232 332.153619 
L 374.725577 324.178059 
L 380.741923 330.018728 
L 386.758268 335.963383 
L 392.774613 339.169643 
L 398.790958 336.752731 
L 404.807304 335.612767 
L 410.823649 325.775279 
L 416.839994 345.99668 
L 422.85634 313.481204 
L 428.872685 344.573836 
L 434.88903 345.138093 
L 440.905375 237.323907 
L 446.921721 287.610004 
L 452.938066 292.33754 
L 458.954411 312.332924 
L 464.970756 316.97867 
L 470.987102 314.362639 
L 477.003447 313.578777 
L 483.019792 286.995091 
L 489.036138 304.926384 
L 495.052483 322.537259 
L 501.068828 332.06728 
L 507.085173 332.483437 
L 513.101519 334.762193 
L 519.117864 320.957158 
L 525.134209 338.200093 
L 531.150554 328.229573 
L 537.1669 324.179113 
L 543.183245 333.606935 
L 549.19959 331.31834 
L 555.215935 337.378614 
L 561.232281 335.735716 
L 567.248626 338.146626 
L 573.264971 333.801563 
L 579.281317 331.675066 
L 585.297662 346.055144 
L 591.314007 348.334847 
L 597.330352 348.19513 
L 603.346698 333.04298 
L 609.363043 347.594486 
L 615.379388 345.711994 
L 621.395733 345.771893 
L 627.412079 357.247008 
L 633.428424 357.413966 
L 639.444769 354.158953 
L 645.461115 331.015158 
L 651.47746 357.356117 
L 657.493805 354.480084 
L 663.51015 351.107793 
L 669.526496 344.364089 
L 675.542841 356.129951 
" clip-path="url(#p660bb806a5)" style="fill: none; stroke: #1f77b4; stroke-width: 1.5; stroke-linecap: square"/>
   </g>
   <g id="line2d_13">
    <path d="M 79.924659 63.107136 
L 85.941004 141.712793 
L 91.95735 172.551132 
L 97.973695 188.17144 
L 103.99004 203.481452 
L 110.006385 204.834745 
L 116.022731 206.637144 
L 122.039076 237.141665 
L 128.055421 239.381556 
L 134.071767 238.12077 
L 140.088112 258.817582 
L 146.104457 251.09485 
L 152.120802 262.308635 
L 158.137148 265.771209 
L 164.153493 273.065818 
L 170.169838 277.335522 
L 176.186183 276.004756 
L 182.202529 274.715392 
L 188.218874 273.028007 
L 194.235219 287.762556 
L 200.251565 292.187389 
L 206.26791 289.453065 
L 212.284255 295.76769 
L 218.3006 283.742401 
L 224.316946 282.415559 
L 230.333291 294.393706 
L 236.349636 294.516938 
L 242.365981 289.995967 
L 248.382327 306.286705 
L 254.398672 307.772034 
L 260.415017 305.051217 
L 266.431362 307.135668 
L 272.447708 311.804467 
L 278.464053 226.119667 
L 284.480398 306.936423 
L 290.496744 311.186587 
L 296.513089 314.469289 
L 302.529434 310.055651 
L 308.545779 312.381667 
L 314.562125 312.607264 
L 320.57847 329.984899 
L 326.594815 324.204929 
L 332.61116 327.389687 
L 338.627506 273.515901 
L 344.643851 285.155622 
L 350.660196 269.953734 
L 356.676542 307.607262 
L 362.692887 330.089978 
L 368.709232 315.913781 
L 374.725577 327.554859 
L 380.741923 332.279292 
L 386.758268 312.767429 
L 392.774613 330.753692 
L 398.790958 326.316532 
L 404.807304 342.710044 
L 410.823649 340.800975 
L 416.839994 332.35915 
L 422.85634 338.421357 
L 428.872685 346.743161 
L 434.88903 342.705028 
L 440.905375 341.303822 
L 446.921721 331.445701 
L 452.938066 345.624611 
L 458.954411 344.075216 
L 464.970756 342.866335 
L 470.987102 337.813988 
L 477.003447 352.236123 
L 483.019792 347.68467 
L 489.036138 345.224774 
L 495.052483 352.394599 
L 501.068828 344.484608 
L 507.085173 351.178398 
L 513.101519 350.904439 
L 519.117864 356.937248 
L 525.134209 350.721376 
L 531.150554 358.902399 
L 537.1669 344.503347 
L 543.183245 349.533265 
L 549.19959 350.997219 
L 555.215935 341.784991 
L 561.232281 299.701428 
L 567.248626 342.214255 
L 573.264971 357.529117 
L 579.281317 366.107 
L 585.297662 360.351098 
L 591.314007 344.573641 
L 597.330352 362.527314 
L 603.346698 357.072036 
L 609.363043 348.371721 
L 615.379388 346.88404 
L 621.395733 354.503021 
L 627.412079 340.753072 
L 633.428424 343.117865 
L 639.444769 337.201466 
L 645.461115 344.36038 
L 651.47746 354.44118 
L 657.493805 355.214814 
L 663.51015 347.235466 
L 669.526496 337.537872 
L 675.542841 340.388655 
" clip-path="url(#p660bb806a5)" style="fill: none; stroke: #ff7f0e; stroke-width: 1.5; stroke-linecap: square"/>
   </g>
   <g id="line2d_14">
    <path d="M 79.924659 51.548893 
L 85.941004 160.550048 
L 91.95735 167.990144 
L 97.973695 185.979979 
L 103.99004 197.535352 
L 110.006385 201.554024 
L 116.022731 192.74865 
L 122.039076 214.266725 
L 128.055421 184.679079 
L 134.071767 240.835184 
L 140.088112 254.628907 
L 146.104457 261.645292 
L 152.120802 261.903528 
L 158.137148 264.836141 
L 164.153493 267.147126 
L 170.169838 270.846638 
L 176.186183 273.889307 
L 182.202529 278.315721 
L 188.218874 287.502857 
L 194.235219 287.17991 
L 200.251565 287.16611 
L 206.26791 288.907996 
L 212.284255 288.398747 
L 218.3006 283.619091 
L 224.316946 300.309997 
L 230.333291 299.981937 
L 236.349636 296.857067 
L 242.365981 316.038292 
L 248.382327 297.784815 
L 254.398672 305.915211 
L 260.415017 306.151662 
L 266.431362 310.457616 
L 272.447708 306.116662 
L 278.464053 312.141214 
L 284.480398 307.839906 
L 290.496744 317.878279 
L 296.513089 324.499375 
L 302.529434 309.055424 
L 308.545779 331.379566 
L 314.562125 316.18695 
L 320.57847 326.483529 
L 326.594815 320.986078 
L 332.61116 329.970532 
L 338.627506 334.261592 
L 344.643851 322.120488 
L 350.660196 336.439037 
L 356.676542 333.38651 
L 362.692887 318.317459 
L 368.709232 330.831871 
L 374.725577 341.933151 
L 380.741923 341.002622 
L 386.758268 344.974424 
L 392.774613 339.315705 
L 398.790958 336.810199 
L 404.807304 341.625089 
L 410.823649 341.04338 
L 416.839994 346.444186 
L 422.85634 307.101312 
L 428.872685 344.369271 
L 434.88903 349.449405 
L 440.905375 345.682469 
L 446.921721 339.236071 
L 452.938066 346.897548 
L 458.954411 342.350546 
L 464.970756 343.231474 
L 470.987102 327.133511 
L 477.003447 347.105372 
L 483.019792 347.481785 
L 489.036138 349.307716 
L 495.052483 349.054487 
L 501.068828 322.422957 
L 507.085173 336.591053 
L 513.101519 343.310747 
L 519.117864 349.990297 
L 525.134209 337.956761 
L 531.150554 334.477654 
L 537.1669 341.096222 
L 543.183245 349.386022 
L 549.19959 349.880494 
L 555.215935 348.057198 
L 561.232281 356.054192 
L 567.248626 354.128492 
L 573.264971 357.085486 
L 579.281317 357.548637 
L 585.297662 353.577362 
L 591.314007 337.104382 
L 597.330352 347.645893 
L 603.346698 352.988274 
L 609.363043 355.037832 
L 615.379388 361.156823 
L 621.395733 360.372063 
L 627.412079 360.679978 
L 633.428424 365.139382 
L 639.444769 358.590443 
L 645.461115 363.434907 
L 651.47746 353.148918 
L 657.493805 365.917008 
L 663.51015 354.532047 
L 669.526496 367.709754 
L 675.542841 368.970852 
" clip-path="url(#p660bb806a5)" style="fill: none; stroke: #2ca02c; stroke-width: 1.5; stroke-linecap: square"/>
   </g>
   <g id="line2d_15">
    <path d="M 79.924659 57.742336 
L 85.941004 149.857498 
L 91.95735 154.897068 
L 97.973695 163.238559 
L 103.99004 167.337147 
L 110.006385 166.120165 
L 116.022731 180.938515 
L 122.039076 174.402372 
L 128.055421 186.761304 
L 134.071767 196.673193 
L 140.088112 209.335805 
L 146.104457 228.323349 
L 152.120802 239.002352 
L 158.137148 251.356502 
L 164.153493 261.659913 
L 170.169838 264.232081 
L 176.186183 272.289784 
L 182.202529 243.699944 
L 188.218874 255.366369 
L 194.235219 268.082154 
L 200.251565 282.238606 
L 206.26791 279.964925 
L 212.284255 276.449139 
L 218.3006 285.251721 
L 224.316946 284.728691 
L 230.333291 288.49143 
L 236.349636 288.851718 
L 242.365981 288.391505 
L 248.382327 297.001108 
L 254.398672 298.084941 
L 260.415017 295.424111 
L 266.431362 301.518 
L 272.447708 300.111923 
L 278.464053 307.185386 
L 284.480398 311.011254 
L 290.496744 306.018338 
L 296.513089 319.446433 
L 302.529434 319.021268 
L 308.545779 288.348989 
L 314.562125 310.120556 
L 320.57847 315.114449 
L 326.594815 307.4852 
L 332.61116 324.944978 
L 338.627506 326.2169 
L 344.643851 322.067861 
L 350.660196 321.80294 
L 356.676542 317.038627 
L 362.692887 322.395707 
L 368.709232 310.678724 
L 374.725577 327.162069 
L 380.741923 326.438066 
L 386.758268 338.423455 
L 392.774613 331.176963 
L 398.790958 333.103767 
L 404.807304 304.15927 
L 410.823649 325.080937 
L 416.839994 331.42741 
L 422.85634 341.896345 
L 428.872685 333.632585 
L 434.88903 329.48097 
L 440.905375 334.496286 
L 446.921721 338.48067 
L 452.938066 340.180948 
L 458.954411 313.359689 
L 464.970756 315.714536 
L 470.987102 321.758384 
L 477.003447 323.113414 
L 483.019792 319.340408 
L 489.036138 340.556785 
L 495.052483 323.952969 
L 501.068828 332.965045 
L 507.085173 329.312586 
L 513.101519 335.484644 
L 519.117864 335.097925 
L 525.134209 335.192014 
L 531.150554 342.160847 
L 537.1669 339.328803 
L 543.183245 341.497435 
L 549.19959 338.57021 
L 555.215935 317.755759 
L 561.232281 319.175577 
L 567.248626 317.193629 
L 573.264971 323.818883 
L 579.281317 316.097908 
L 585.297662 329.775474 
L 591.314007 332.398103 
L 597.330352 334.559483 
L 603.346698 334.499653 
L 609.363043 339.670489 
L 615.379388 335.666741 
L 621.395733 325.456208 
L 627.412079 347.211173 
L 633.428424 340.283294 
L 639.444769 281.715829 
L 645.461115 325.841756 
L 651.47746 342.167533 
L 657.493805 332.378221 
L 663.51015 327.25728 
L 669.526496 340.753424 
L 675.542841 344.523756 
" clip-path="url(#p660bb806a5)" style="fill: none; stroke: #d62728; stroke-width: 1.5; stroke-linecap: square"/>
   </g>
   <g id="line2d_16">
    <path d="M 79.924659 49.853349 
L 85.941004 150.89454 
L 91.95735 81.776673 
L 97.973695 161.793988 
L 103.99004 171.959468 
L 110.006385 189.003577 
L 116.022731 188.276226 
L 122.039076 199.031184 
L 128.055421 212.836736 
L 134.071767 183.340543 
L 140.088112 212.275094 
L 146.104457 229.233938 
L 152.120802 237.115566 
L 158.137148 241.00226 
L 164.153493 247.198904 
L 170.169838 259.795965 
L 176.186183 260.121722 
L 182.202529 244.80605 
L 188.218874 255.910189 
L 194.235219 260.030757 
L 200.251565 263.864199 
L 206.26791 267.93296 
L 212.284255 271.67446 
L 218.3006 273.155417 
L 224.316946 274.474979 
L 230.333291 284.125802 
L 236.349636 288.553719 
L 242.365981 282.576563 
L 248.382327 289.852726 
L 254.398672 287.222777 
L 260.415017 289.593241 
L 266.431362 302.192801 
L 272.447708 290.291643 
L 278.464053 307.799928 
L 284.480398 307.040506 
L 290.496744 302.968368 
L 296.513089 309.276883 
L 302.529434 309.265679 
L 308.545779 315.790656 
L 314.562125 313.598365 
L 320.57847 304.863509 
L 326.594815 308.875817 
L 332.61116 309.248735 
L 338.627506 324.748543 
L 344.643851 298.453019 
L 350.660196 319.601025 
L 356.676542 283.857728 
L 362.692887 256.829133 
L 368.709232 298.729662 
L 374.725577 306.757869 
L 380.741923 304.740686 
L 386.758268 321.244655 
L 392.774613 320.061932 
L 398.790958 298.556789 
L 404.807304 315.307057 
L 410.823649 328.075235 
L 416.839994 296.131336 
L 422.85634 315.993269 
L 428.872685 329.860466 
L 434.88903 325.356576 
L 440.905375 330.141561 
L 446.921721 296.139984 
L 452.938066 253.131046 
L 458.954411 283.639529 
L 464.970756 255.184498 
L 470.987102 251.611517 
L 477.003447 278.145367 
L 483.019792 282.19611 
L 489.036138 289.273282 
L 495.052483 273.596247 
L 501.068828 290.067275 
L 507.085173 297.080303 
L 513.101519 300.582366 
L 519.117864 300.579555 
L 525.134209 306.323422 
L 531.150554 310.445552 
L 537.1669 307.316505 
L 543.183245 301.211021 
L 549.19959 312.003439 
L 555.215935 313.889288 
L 561.232281 304.342645 
L 567.248626 300.891199 
L 573.264971 315.401819 
L 579.281317 322.82418 
L 585.297662 295.572154 
L 591.314007 319.012328 
L 597.330352 327.612249 
L 603.346698 327.611527 
L 609.363043 325.367644 
L 615.379388 319.940485 
L 621.395733 278.964737 
L 627.412079 314.61905 
L 633.428424 318.79122 
L 639.444769 332.49306 
L 645.461115 330.013263 
L 651.47746 321.973616 
L 657.493805 322.202991 
L 663.51015 316.852626 
L 669.526496 313.661328 
L 675.542841 328.413466 
" clip-path="url(#p660bb806a5)" style="fill: none; stroke: #9467bd; stroke-width: 1.5; stroke-linecap: square"/>
   </g>
   <g id="patch_3">
    <path d="M 50.14375 385.478125 
L 50.14375 22.318125 
" style="fill: none; stroke: #000000; stroke-width: 0.8; stroke-linejoin: miter; stroke-linecap: square"/>
   </g>
   <g id="patch_4">
    <path d="M 705.32375 385.478125 
L 705.32375 22.318125 
" style="fill: none; stroke: #000000; stroke-width: 0.8; stroke-linejoin: miter; stroke-linecap: square"/>
   </g>
   <g id="patch_5">
    <path d="M 50.14375 385.478125 
L 705.32375 385.478125 
" style="fill: none; stroke: #000000; stroke-width: 0.8; stroke-linejoin: miter; stroke-linecap: square"/>
   </g>
   <g id="patch_6">
    <path d="M 50.14375 22.318125 
L 705.32375 22.318125 
" style="fill: none; stroke: #000000; stroke-width: 0.8; stroke-linejoin: miter; stroke-linecap: square"/>
   </g>
   <g id="text_14">
    <!-- Combined Train Loss -->
    <g transform="translate(315.882188 16.318125) scale(0.12 -0.12)">
     <defs>
      <path id="DejaVuSans-43" d="M 4122 4306 
L 4122 3641 
Q 3803 3938 3442 4084 
Q 3081 4231 2675 4231 
Q 1875 4231 1450 3742 
Q 1025 3253 1025 2328 
Q 1025 1406 1450 917 
Q 1875 428 2675 428 
Q 3081 428 3442 575 
Q 3803 722 4122 1019 
L 4122 359 
Q 3791 134 3420 21 
Q 3050 -91 2638 -91 
Q 1578 -91 968 557 
Q 359 1206 359 2328 
Q 359 3453 968 4101 
Q 1578 4750 2638 4750 
Q 3056 4750 3426 4639 
Q 3797 4528 4122 4306 
z
" transform="scale(0.015625)"/>
      <path id="DejaVuSans-6d" d="M 3328 2828 
Q 3544 3216 3844 3400 
Q 4144 3584 4550 3584 
Q 5097 3584 5394 3201 
Q 5691 2819 5691 2113 
L 5691 0 
L 5113 0 
L 5113 2094 
Q 5113 2597 4934 2840 
Q 4756 3084 4391 3084 
Q 3944 3084 3684 2787 
Q 3425 2491 3425 1978 
L 3425 0 
L 2847 0 
L 2847 2094 
Q 2847 2600 2669 2842 
Q 2491 3084 2119 3084 
Q 1678 3084 1418 2786 
Q 1159 2488 1159 1978 
L 1159 0 
L 581 0 
L 581 3500 
L 1159 3500 
L 1159 2956 
Q 1356 3278 1631 3431 
Q 1906 3584 2284 3584 
Q 2666 3584 2933 3390 
Q 3200 3197 3328 2828 
z
" transform="scale(0.015625)"/>
      <path id="DejaVuSans-62" d="M 3116 1747 
Q 3116 2381 2855 2742 
Q 2594 3103 2138 3103 
Q 1681 3103 1420 2742 
Q 1159 2381 1159 1747 
Q 1159 1113 1420 752 
Q 1681 391 2138 391 
Q 2594 391 2855 752 
Q 3116 1113 3116 1747 
z
M 1159 2969 
Q 1341 3281 1617 3432 
Q 1894 3584 2278 3584 
Q 2916 3584 3314 3078 
Q 3713 2572 3713 1747 
Q 3713 922 3314 415 
Q 2916 -91 2278 -91 
Q 1894 -91 1617 61 
Q 1341 213 1159 525 
L 1159 0 
L 581 0 
L 581 4863 
L 1159 4863 
L 1159 2969 
z
" transform="scale(0.015625)"/>
      <path id="DejaVuSans-65" d="M 3597 1894 
L 3597 1613 
L 953 1613 
Q 991 1019 1311 708 
Q 1631 397 2203 397 
Q 2534 397 2845 478 
Q 3156 559 3463 722 
L 3463 178 
Q 3153 47 2828 -22 
Q 2503 -91 2169 -91 
Q 1331 -91 842 396 
Q 353 884 353 1716 
Q 353 2575 817 3079 
Q 1281 3584 2069 3584 
Q 2775 3584 3186 3129 
Q 3597 2675 3597 1894 
z
M 3022 2063 
Q 3016 2534 2758 2815 
Q 2500 3097 2075 3097 
Q 1594 3097 1305 2825 
Q 1016 2553 972 2059 
L 3022 2063 
z
" transform="scale(0.015625)"/>
      <path id="DejaVuSans-64" d="M 2906 2969 
L 2906 4863 
L 3481 4863 
L 3481 0 
L 2906 0 
L 2906 525 
Q 2725 213 2448 61 
Q 2172 -91 1784 -91 
Q 1150 -91 751 415 
Q 353 922 353 1747 
Q 353 2572 751 3078 
Q 1150 3584 1784 3584 
Q 2172 3584 2448 3432 
Q 2725 3281 2906 2969 
z
M 947 1747 
Q 947 1113 1208 752 
Q 1469 391 1925 391 
Q 2381 391 2643 752 
Q 2906 1113 2906 1747 
Q 2906 2381 2643 2742 
Q 2381 3103 1925 3103 
Q 1469 3103 1208 2742 
Q 947 2381 947 1747 
z
" transform="scale(0.015625)"/>
     </defs>
     <use xlink:href="#DejaVuSans-43"/>
     <use xlink:href="#DejaVuSans-6f" transform="translate(69.824219 0)"/>
     <use xlink:href="#DejaVuSans-6d" transform="translate(131.005859 0)"/>
     <use xlink:href="#DejaVuSans-62" transform="translate(228.417969 0)"/>
     <use xlink:href="#DejaVuSans-69" transform="translate(291.894531 0)"/>
     <use xlink:href="#DejaVuSans-6e" transform="translate(319.677734 0)"/>
     <use xlink:href="#DejaVuSans-65" transform="translate(383.056641 0)"/>
     <use xlink:href="#DejaVuSans-64" transform="translate(444.580078 0)"/>
     <use xlink:href="#DejaVuSans-20" transform="translate(508.056641 0)"/>
     <use xlink:href="#DejaVuSans-54" transform="translate(539.84375 0)"/>
     <use xlink:href="#DejaVuSans-72" transform="translate(586.177734 0)"/>
     <use xlink:href="#DejaVuSans-61" transform="translate(627.291016 0)"/>
     <use xlink:href="#DejaVuSans-69" transform="translate(688.570312 0)"/>
     <use xlink:href="#DejaVuSans-6e" transform="translate(716.353516 0)"/>
     <use xlink:href="#DejaVuSans-20" transform="translate(779.732422 0)"/>
     <use xlink:href="#DejaVuSans-4c" transform="translate(811.519531 0)"/>
     <use xlink:href="#DejaVuSans-6f" transform="translate(865.482422 0)"/>
     <use xlink:href="#DejaVuSans-73" transform="translate(926.664062 0)"/>
     <use xlink:href="#DejaVuSans-73" transform="translate(978.763672 0)"/>
    </g>
   </g>
   <g id="legend_1">
    <g id="patch_7">
     <path d="M 636.14875 103.70875 
L 698.32375 103.70875 
Q 700.32375 103.70875 700.32375 101.70875 
L 700.32375 29.318125 
Q 700.32375 27.318125 698.32375 27.318125 
L 636.14875 27.318125 
Q 634.14875 27.318125 634.14875 29.318125 
L 634.14875 101.70875 
Q 634.14875 103.70875 636.14875 103.70875 
z
" style="fill: #ffffff; opacity: 0.8; stroke: #cccccc; stroke-linejoin: miter"/>
    </g>
    <g id="line2d_17">
     <path d="M 638.14875 35.416562 
L 648.14875 35.416562 
L 658.14875 35.416562 
" style="fill: none; stroke: #1f77b4; stroke-width: 1.5; stroke-linecap: square"/>
    </g>
    <g id="text_15">
     <!-- Fold 1 -->
     <g transform="translate(666.14875 38.916562) scale(0.1 -0.1)">
      <defs>
       <path id="DejaVuSans-46" d="M 628 4666 
L 3309 4666 
L 3309 4134 
L 1259 4134 
L 1259 2759 
L 3109 2759 
L 3109 2228 
L 1259 2228 
L 1259 0 
L 628 0 
L 628 4666 
z
" transform="scale(0.015625)"/>
       <path id="DejaVuSans-6c" d="M 603 4863 
L 1178 4863 
L 1178 0 
L 603 0 
L 603 4863 
z
" transform="scale(0.015625)"/>
      </defs>
      <use xlink:href="#DejaVuSans-46"/>
      <use xlink:href="#DejaVuSans-6f" transform="translate(53.894531 0)"/>
      <use xlink:href="#DejaVuSans-6c" transform="translate(115.076172 0)"/>
      <use xlink:href="#DejaVuSans-64" transform="translate(142.859375 0)"/>
      <use xlink:href="#DejaVuSans-20" transform="translate(206.335938 0)"/>
      <use xlink:href="#DejaVuSans-31" transform="translate(238.123047 0)"/>
     </g>
    </g>
    <g id="line2d_18">
     <path d="M 638.14875 50.094688 
L 648.14875 50.094688 
L 658.14875 50.094688 
" style="fill: none; stroke: #ff7f0e; stroke-width: 1.5; stroke-linecap: square"/>
    </g>
    <g id="text_16">
     <!-- Fold 2 -->
     <g transform="translate(666.14875 53.594688) scale(0.1 -0.1)">
      <use xlink:href="#DejaVuSans-46"/>
      <use xlink:href="#DejaVuSans-6f" transform="translate(53.894531 0)"/>
      <use xlink:href="#DejaVuSans-6c" transform="translate(115.076172 0)"/>
      <use xlink:href="#DejaVuSans-64" transform="translate(142.859375 0)"/>
      <use xlink:href="#DejaVuSans-20" transform="translate(206.335938 0)"/>
      <use xlink:href="#DejaVuSans-32" transform="translate(238.123047 0)"/>
     </g>
    </g>
    <g id="line2d_19">
     <path d="M 638.14875 64.772812 
L 648.14875 64.772812 
L 658.14875 64.772812 
" style="fill: none; stroke: #2ca02c; stroke-width: 1.5; stroke-linecap: square"/>
    </g>
    <g id="text_17">
     <!-- Fold 3 -->
     <g transform="translate(666.14875 68.272812) scale(0.1 -0.1)">
      <use xlink:href="#DejaVuSans-46"/>
      <use xlink:href="#DejaVuSans-6f" transform="translate(53.894531 0)"/>
      <use xlink:href="#DejaVuSans-6c" transform="translate(115.076172 0)"/>
      <use xlink:href="#DejaVuSans-64" transform="translate(142.859375 0)"/>
      <use xlink:href="#DejaVuSans-20" transform="translate(206.335938 0)"/>
      <use xlink:href="#DejaVuSans-33" transform="translate(238.123047 0)"/>
     </g>
    </g>
    <g id="line2d_20">
     <path d="M 638.14875 79.450938 
L 648.14875 79.450938 
L 658.14875 79.450938 
" style="fill: none; stroke: #d62728; stroke-width: 1.5; stroke-linecap: square"/>
    </g>
    <g id="text_18">
     <!-- Fold 4 -->
     <g transform="translate(666.14875 82.950938) scale(0.1 -0.1)">
      <use xlink:href="#DejaVuSans-46"/>
      <use xlink:href="#DejaVuSans-6f" transform="translate(53.894531 0)"/>
      <use xlink:href="#DejaVuSans-6c" transform="translate(115.076172 0)"/>
      <use xlink:href="#DejaVuSans-64" transform="translate(142.859375 0)"/>
      <use xlink:href="#DejaVuSans-20" transform="translate(206.335938 0)"/>
      <use xlink:href="#DejaVuSans-34" transform="translate(238.123047 0)"/>
     </g>
    </g>
    <g id="line2d_21">
     <path d="M 638.14875 94.129063 
L 648.14875 94.129063 
L 658.14875 94.129063 
" style="fill: none; stroke: #9467bd; stroke-width: 1.5; stroke-linecap: square"/>
    </g>
    <g id="text_19">
     <!-- Fold 5 -->
     <g transform="translate(666.14875 97.629063) scale(0.1 -0.1)">
      <use xlink:href="#DejaVuSans-46"/>
      <use xlink:href="#DejaVuSans-6f" transform="translate(53.894531 0)"/>
      <use xlink:href="#DejaVuSans-6c" transform="translate(115.076172 0)"/>
      <use xlink:href="#DejaVuSans-64" transform="translate(142.859375 0)"/>
      <use xlink:href="#DejaVuSans-20" transform="translate(206.335938 0)"/>
      <use xlink:href="#DejaVuSans-35" transform="translate(238.123047 0)"/>
     </g>
    </g>
   </g>
  </g>
 </g>
 <defs>
  <clipPath id="p660bb806a5">
   <rect x="50.14375" y="22.318125" width="655.18" height="363.16"/>
  </clipPath>
 </defs>
</svg>
