<?xml version="1.0" encoding="utf-8" standalone="no"?>
<!DOCTYPE svg PUBLIC "-//W3C//DTD SVG 1.1//EN"
  "http://www.w3.org/Graphics/SVG/1.1/DTD/svg11.dtd">
<svg xmlns:xlink="http://www.w3.org/1999/xlink" width="712.46125pt" height="423.034375pt" viewBox="0 0 712.46125 423.034375" xmlns="http://www.w3.org/2000/svg" version="1.1">
 <metadata>
  <rdf:RDF xmlns:dc="http://purl.org/dc/elements/1.1/" xmlns:cc="http://creativecommons.org/ns#" xmlns:rdf="http://www.w3.org/1999/02/22-rdf-syntax-ns#">
   <cc:Work>
    <dc:type rdf:resource="http://purl.org/dc/dcmitype/StillImage"/>
    <dc:date>2025-06-26T20:11:21.105229</dc:date>
    <dc:format>image/svg+xml</dc:format>
    <dc:creator>
     <cc:Agent>
      <dc:title>Matplotlib v3.10.0, https://matplotlib.org/</dc:title>
     </cc:Agent>
    </dc:creator>
   </cc:Work>
  </rdf:RDF>
 </metadata>
 <defs>
  <style type="text/css">*{stroke-linejoin: round; stroke-linecap: butt}</style>
 </defs>
 <g id="figure_1">
  <g id="patch_1">
   <path d="M 0 423.034375 
L 712.46125 423.034375 
L 712.46125 0 
L 0 0 
z
" style="fill: #ffffff"/>
  </g>
  <g id="axes_1">
   <g id="patch_2">
    <path d="M 43.78125 385.478125 
L 705.26125 385.478125 
L 705.26125 22.318125 
L 43.78125 22.318125 
z
" style="fill: #ffffff"/>
   </g>
   <g id="matplotlib.axis_1">
    <g id="xtick_1">
     <g id="line2d_1">
      <defs>
       <path id="md9e73fad6a" d="M 0 0 
L 0 3.5 
" style="stroke: #000000; stroke-width: 0.8"/>
      </defs>
      <g>
       <use xlink:href="#md9e73fad6a" x="67.774326" y="385.478125" style="stroke: #000000; stroke-width: 0.8"/>
      </g>
     </g>
     <g id="text_1">
      <!-- 0 -->
      <g transform="translate(64.593076 400.076562) scale(0.1 -0.1)">
       <defs>
        <path id="DejaVuSans-30" d="M 2034 4250 
Q 1547 4250 1301 3770 
Q 1056 3291 1056 2328 
Q 1056 1369 1301 889 
Q 1547 409 2034 409 
Q 2525 409 2770 889 
Q 3016 1369 3016 2328 
Q 3016 3291 2770 3770 
Q 2525 4250 2034 4250 
z
M 2034 4750 
Q 2819 4750 3233 4129 
Q 3647 3509 3647 2328 
Q 3647 1150 3233 529 
Q 2819 -91 2034 -91 
Q 1250 -91 836 529 
Q 422 1150 422 2328 
Q 422 3509 836 4129 
Q 1250 4750 2034 4750 
z
" transform="scale(0.015625)"/>
       </defs>
       <use xlink:href="#DejaVuSans-30"/>
      </g>
     </g>
    </g>
    <g id="xtick_2">
     <g id="line2d_2">
      <g>
       <use xlink:href="#md9e73fad6a" x="189.258256" y="385.478125" style="stroke: #000000; stroke-width: 0.8"/>
      </g>
     </g>
     <g id="text_2">
      <!-- 20 -->
      <g transform="translate(182.895756 400.076562) scale(0.1 -0.1)">
       <defs>
        <path id="DejaVuSans-32" d="M 1228 531 
L 3431 531 
L 3431 0 
L 469 0 
L 469 531 
Q 828 903 1448 1529 
Q 2069 2156 2228 2338 
Q 2531 2678 2651 2914 
Q 2772 3150 2772 3378 
Q 2772 3750 2511 3984 
Q 2250 4219 1831 4219 
Q 1534 4219 1204 4116 
Q 875 4013 500 3803 
L 500 4441 
Q 881 4594 1212 4672 
Q 1544 4750 1819 4750 
Q 2544 4750 2975 4387 
Q 3406 4025 3406 3419 
Q 3406 3131 3298 2873 
Q 3191 2616 2906 2266 
Q 2828 2175 2409 1742 
Q 1991 1309 1228 531 
z
" transform="scale(0.015625)"/>
       </defs>
       <use xlink:href="#DejaVuSans-32"/>
       <use xlink:href="#DejaVuSans-30" transform="translate(63.623047 0)"/>
      </g>
     </g>
    </g>
    <g id="xtick_3">
     <g id="line2d_3">
      <g>
       <use xlink:href="#md9e73fad6a" x="310.742187" y="385.478125" style="stroke: #000000; stroke-width: 0.8"/>
      </g>
     </g>
     <g id="text_3">
      <!-- 40 -->
      <g transform="translate(304.379687 400.076562) scale(0.1 -0.1)">
       <defs>
        <path id="DejaVuSans-34" d="M 2419 4116 
L 825 1625 
L 2419 1625 
L 2419 4116 
z
M 2253 4666 
L 3047 4666 
L 3047 1625 
L 3713 1625 
L 3713 1100 
L 3047 1100 
L 3047 0 
L 2419 0 
L 2419 1100 
L 313 1100 
L 313 1709 
L 2253 4666 
z
" transform="scale(0.015625)"/>
       </defs>
       <use xlink:href="#DejaVuSans-34"/>
       <use xlink:href="#DejaVuSans-30" transform="translate(63.623047 0)"/>
      </g>
     </g>
    </g>
    <g id="xtick_4">
     <g id="line2d_4">
      <g>
       <use xlink:href="#md9e73fad6a" x="432.226117" y="385.478125" style="stroke: #000000; stroke-width: 0.8"/>
      </g>
     </g>
     <g id="text_4">
      <!-- 60 -->
      <g transform="translate(425.863617 400.076562) scale(0.1 -0.1)">
       <defs>
        <path id="DejaVuSans-36" d="M 2113 2584 
Q 1688 2584 1439 2293 
Q 1191 2003 1191 1497 
Q 1191 994 1439 701 
Q 1688 409 2113 409 
Q 2538 409 2786 701 
Q 3034 994 3034 1497 
Q 3034 2003 2786 2293 
Q 2538 2584 2113 2584 
z
M 3366 4563 
L 3366 3988 
Q 3128 4100 2886 4159 
Q 2644 4219 2406 4219 
Q 1781 4219 1451 3797 
Q 1122 3375 1075 2522 
Q 1259 2794 1537 2939 
Q 1816 3084 2150 3084 
Q 2853 3084 3261 2657 
Q 3669 2231 3669 1497 
Q 3669 778 3244 343 
Q 2819 -91 2113 -91 
Q 1303 -91 875 529 
Q 447 1150 447 2328 
Q 447 3434 972 4092 
Q 1497 4750 2381 4750 
Q 2619 4750 2861 4703 
Q 3103 4656 3366 4563 
z
" transform="scale(0.015625)"/>
       </defs>
       <use xlink:href="#DejaVuSans-36"/>
       <use xlink:href="#DejaVuSans-30" transform="translate(63.623047 0)"/>
      </g>
     </g>
    </g>
    <g id="xtick_5">
     <g id="line2d_5">
      <g>
       <use xlink:href="#md9e73fad6a" x="553.710047" y="385.478125" style="stroke: #000000; stroke-width: 0.8"/>
      </g>
     </g>
     <g id="text_5">
      <!-- 80 -->
      <g transform="translate(547.347547 400.076562) scale(0.1 -0.1)">
       <defs>
        <path id="DejaVuSans-38" d="M 2034 2216 
Q 1584 2216 1326 1975 
Q 1069 1734 1069 1313 
Q 1069 891 1326 650 
Q 1584 409 2034 409 
Q 2484 409 2743 651 
Q 3003 894 3003 1313 
Q 3003 1734 2745 1975 
Q 2488 2216 2034 2216 
z
M 1403 2484 
Q 997 2584 770 2862 
Q 544 3141 544 3541 
Q 544 4100 942 4425 
Q 1341 4750 2034 4750 
Q 2731 4750 3128 4425 
Q 3525 4100 3525 3541 
Q 3525 3141 3298 2862 
Q 3072 2584 2669 2484 
Q 3125 2378 3379 2068 
Q 3634 1759 3634 1313 
Q 3634 634 3220 271 
Q 2806 -91 2034 -91 
Q 1263 -91 848 271 
Q 434 634 434 1313 
Q 434 1759 690 2068 
Q 947 2378 1403 2484 
z
M 1172 3481 
Q 1172 3119 1398 2916 
Q 1625 2713 2034 2713 
Q 2441 2713 2670 2916 
Q 2900 3119 2900 3481 
Q 2900 3844 2670 4047 
Q 2441 4250 2034 4250 
Q 1625 4250 1398 4047 
Q 1172 3844 1172 3481 
z
" transform="scale(0.015625)"/>
       </defs>
       <use xlink:href="#DejaVuSans-38"/>
       <use xlink:href="#DejaVuSans-30" transform="translate(63.623047 0)"/>
      </g>
     </g>
    </g>
    <g id="xtick_6">
     <g id="line2d_6">
      <g>
       <use xlink:href="#md9e73fad6a" x="675.193977" y="385.478125" style="stroke: #000000; stroke-width: 0.8"/>
      </g>
     </g>
     <g id="text_6">
      <!-- 100 -->
      <g transform="translate(665.650227 400.076562) scale(0.1 -0.1)">
       <defs>
        <path id="DejaVuSans-31" d="M 794 531 
L 1825 531 
L 1825 4091 
L 703 3866 
L 703 4441 
L 1819 4666 
L 2450 4666 
L 2450 531 
L 3481 531 
L 3481 0 
L 794 0 
L 794 531 
z
" transform="scale(0.015625)"/>
       </defs>
       <use xlink:href="#DejaVuSans-31"/>
       <use xlink:href="#DejaVuSans-30" transform="translate(63.623047 0)"/>
       <use xlink:href="#DejaVuSans-30" transform="translate(127.246094 0)"/>
      </g>
     </g>
    </g>
    <g id="text_7">
     <!-- Epoch -->
     <g transform="translate(359.210312 413.754687) scale(0.1 -0.1)">
      <defs>
       <path id="DejaVuSans-45" d="M 628 4666 
L 3578 4666 
L 3578 4134 
L 1259 4134 
L 1259 2753 
L 3481 2753 
L 3481 2222 
L 1259 2222 
L 1259 531 
L 3634 531 
L 3634 0 
L 628 0 
L 628 4666 
z
" transform="scale(0.015625)"/>
       <path id="DejaVuSans-70" d="M 1159 525 
L 1159 -1331 
L 581 -1331 
L 581 3500 
L 1159 3500 
L 1159 2969 
Q 1341 3281 1617 3432 
Q 1894 3584 2278 3584 
Q 2916 3584 3314 3078 
Q 3713 2572 3713 1747 
Q 3713 922 3314 415 
Q 2916 -91 2278 -91 
Q 1894 -91 1617 61 
Q 1341 213 1159 525 
z
M 3116 1747 
Q 3116 2381 2855 2742 
Q 2594 3103 2138 3103 
Q 1681 3103 1420 2742 
Q 1159 2381 1159 1747 
Q 1159 1113 1420 752 
Q 1681 391 2138 391 
Q 2594 391 2855 752 
Q 3116 1113 3116 1747 
z
" transform="scale(0.015625)"/>
       <path id="DejaVuSans-6f" d="M 1959 3097 
Q 1497 3097 1228 2736 
Q 959 2375 959 1747 
Q 959 1119 1226 758 
Q 1494 397 1959 397 
Q 2419 397 2687 759 
Q 2956 1122 2956 1747 
Q 2956 2369 2687 2733 
Q 2419 3097 1959 3097 
z
M 1959 3584 
Q 2709 3584 3137 3096 
Q 3566 2609 3566 1747 
Q 3566 888 3137 398 
Q 2709 -91 1959 -91 
Q 1206 -91 779 398 
Q 353 888 353 1747 
Q 353 2609 779 3096 
Q 1206 3584 1959 3584 
z
" transform="scale(0.015625)"/>
       <path id="DejaVuSans-63" d="M 3122 3366 
L 3122 2828 
Q 2878 2963 2633 3030 
Q 2388 3097 2138 3097 
Q 1578 3097 1268 2742 
Q 959 2388 959 1747 
Q 959 1106 1268 751 
Q 1578 397 2138 397 
Q 2388 397 2633 464 
Q 2878 531 3122 666 
L 3122 134 
Q 2881 22 2623 -34 
Q 2366 -91 2075 -91 
Q 1284 -91 818 406 
Q 353 903 353 1747 
Q 353 2603 823 3093 
Q 1294 3584 2113 3584 
Q 2378 3584 2631 3529 
Q 2884 3475 3122 3366 
z
" transform="scale(0.015625)"/>
       <path id="DejaVuSans-68" d="M 3513 2113 
L 3513 0 
L 2938 0 
L 2938 2094 
Q 2938 2591 2744 2837 
Q 2550 3084 2163 3084 
Q 1697 3084 1428 2787 
Q 1159 2491 1159 1978 
L 1159 0 
L 581 0 
L 581 4863 
L 1159 4863 
L 1159 2956 
Q 1366 3272 1645 3428 
Q 1925 3584 2291 3584 
Q 2894 3584 3203 3211 
Q 3513 2838 3513 2113 
z
" transform="scale(0.015625)"/>
      </defs>
      <use xlink:href="#DejaVuSans-45"/>
      <use xlink:href="#DejaVuSans-70" transform="translate(63.183594 0)"/>
      <use xlink:href="#DejaVuSans-6f" transform="translate(126.660156 0)"/>
      <use xlink:href="#DejaVuSans-63" transform="translate(187.841797 0)"/>
      <use xlink:href="#DejaVuSans-68" transform="translate(242.822266 0)"/>
     </g>
    </g>
   </g>
   <g id="matplotlib.axis_2">
    <g id="ytick_1">
     <g id="line2d_7">
      <defs>
       <path id="m8814b71083" d="M 0 0 
L -3.5 0 
" style="stroke: #000000; stroke-width: 0.8"/>
      </defs>
      <g>
       <use xlink:href="#m8814b71083" x="43.78125" y="384.454949" style="stroke: #000000; stroke-width: 0.8"/>
      </g>
     </g>
     <g id="text_8">
      <!-- 0.2 -->
      <g transform="translate(20.878125 388.254168) scale(0.1 -0.1)">
       <defs>
        <path id="DejaVuSans-2e" d="M 684 794 
L 1344 794 
L 1344 0 
L 684 0 
L 684 794 
z
" transform="scale(0.015625)"/>
       </defs>
       <use xlink:href="#DejaVuSans-30"/>
       <use xlink:href="#DejaVuSans-2e" transform="translate(63.623047 0)"/>
       <use xlink:href="#DejaVuSans-32" transform="translate(95.410156 0)"/>
      </g>
     </g>
    </g>
    <g id="ytick_2">
     <g id="line2d_8">
      <g>
       <use xlink:href="#m8814b71083" x="43.78125" y="326.864251" style="stroke: #000000; stroke-width: 0.8"/>
      </g>
     </g>
     <g id="text_9">
      <!-- 0.4 -->
      <g transform="translate(20.878125 330.663469) scale(0.1 -0.1)">
       <use xlink:href="#DejaVuSans-30"/>
       <use xlink:href="#DejaVuSans-2e" transform="translate(63.623047 0)"/>
       <use xlink:href="#DejaVuSans-34" transform="translate(95.410156 0)"/>
      </g>
     </g>
    </g>
    <g id="ytick_3">
     <g id="line2d_9">
      <g>
       <use xlink:href="#m8814b71083" x="43.78125" y="269.273552" style="stroke: #000000; stroke-width: 0.8"/>
      </g>
     </g>
     <g id="text_10">
      <!-- 0.6 -->
      <g transform="translate(20.878125 273.072771) scale(0.1 -0.1)">
       <use xlink:href="#DejaVuSans-30"/>
       <use xlink:href="#DejaVuSans-2e" transform="translate(63.623047 0)"/>
       <use xlink:href="#DejaVuSans-36" transform="translate(95.410156 0)"/>
      </g>
     </g>
    </g>
    <g id="ytick_4">
     <g id="line2d_10">
      <g>
       <use xlink:href="#m8814b71083" x="43.78125" y="211.682854" style="stroke: #000000; stroke-width: 0.8"/>
      </g>
     </g>
     <g id="text_11">
      <!-- 0.8 -->
      <g transform="translate(20.878125 215.482073) scale(0.1 -0.1)">
       <use xlink:href="#DejaVuSans-30"/>
       <use xlink:href="#DejaVuSans-2e" transform="translate(63.623047 0)"/>
       <use xlink:href="#DejaVuSans-38" transform="translate(95.410156 0)"/>
      </g>
     </g>
    </g>
    <g id="ytick_5">
     <g id="line2d_11">
      <g>
       <use xlink:href="#m8814b71083" x="43.78125" y="154.092155" style="stroke: #000000; stroke-width: 0.8"/>
      </g>
     </g>
     <g id="text_12">
      <!-- 1.0 -->
      <g transform="translate(20.878125 157.891374) scale(0.1 -0.1)">
       <use xlink:href="#DejaVuSans-31"/>
       <use xlink:href="#DejaVuSans-2e" transform="translate(63.623047 0)"/>
       <use xlink:href="#DejaVuSans-30" transform="translate(95.410156 0)"/>
      </g>
     </g>
    </g>
    <g id="ytick_6">
     <g id="line2d_12">
      <g>
       <use xlink:href="#m8814b71083" x="43.78125" y="96.501457" style="stroke: #000000; stroke-width: 0.8"/>
      </g>
     </g>
     <g id="text_13">
      <!-- 1.2 -->
      <g transform="translate(20.878125 100.300676) scale(0.1 -0.1)">
       <use xlink:href="#DejaVuSans-31"/>
       <use xlink:href="#DejaVuSans-2e" transform="translate(63.623047 0)"/>
       <use xlink:href="#DejaVuSans-32" transform="translate(95.410156 0)"/>
      </g>
     </g>
    </g>
    <g id="ytick_7">
     <g id="line2d_13">
      <g>
       <use xlink:href="#m8814b71083" x="43.78125" y="38.910759" style="stroke: #000000; stroke-width: 0.8"/>
      </g>
     </g>
     <g id="text_14">
      <!-- 1.4 -->
      <g transform="translate(20.878125 42.709977) scale(0.1 -0.1)">
       <use xlink:href="#DejaVuSans-31"/>
       <use xlink:href="#DejaVuSans-2e" transform="translate(63.623047 0)"/>
       <use xlink:href="#DejaVuSans-34" transform="translate(95.410156 0)"/>
      </g>
     </g>
    </g>
    <g id="text_15">
     <!-- Train Loss -->
     <g transform="translate(14.798438 228.448125) rotate(-90) scale(0.1 -0.1)">
      <defs>
       <path id="DejaVuSans-54" d="M -19 4666 
L 3928 4666 
L 3928 4134 
L 2272 4134 
L 2272 0 
L 1638 0 
L 1638 4134 
L -19 4134 
L -19 4666 
z
" transform="scale(0.015625)"/>
       <path id="DejaVuSans-72" d="M 2631 2963 
Q 2534 3019 2420 3045 
Q 2306 3072 2169 3072 
Q 1681 3072 1420 2755 
Q 1159 2438 1159 1844 
L 1159 0 
L 581 0 
L 581 3500 
L 1159 3500 
L 1159 2956 
Q 1341 3275 1631 3429 
Q 1922 3584 2338 3584 
Q 2397 3584 2469 3576 
Q 2541 3569 2628 3553 
L 2631 2963 
z
" transform="scale(0.015625)"/>
       <path id="DejaVuSans-61" d="M 2194 1759 
Q 1497 1759 1228 1600 
Q 959 1441 959 1056 
Q 959 750 1161 570 
Q 1363 391 1709 391 
Q 2188 391 2477 730 
Q 2766 1069 2766 1631 
L 2766 1759 
L 2194 1759 
z
M 3341 1997 
L 3341 0 
L 2766 0 
L 2766 531 
Q 2569 213 2275 61 
Q 1981 -91 1556 -91 
Q 1019 -91 701 211 
Q 384 513 384 1019 
Q 384 1609 779 1909 
Q 1175 2209 1959 2209 
L 2766 2209 
L 2766 2266 
Q 2766 2663 2505 2880 
Q 2244 3097 1772 3097 
Q 1472 3097 1187 3025 
Q 903 2953 641 2809 
L 641 3341 
Q 956 3463 1253 3523 
Q 1550 3584 1831 3584 
Q 2591 3584 2966 3190 
Q 3341 2797 3341 1997 
z
" transform="scale(0.015625)"/>
       <path id="DejaVuSans-69" d="M 603 3500 
L 1178 3500 
L 1178 0 
L 603 0 
L 603 3500 
z
M 603 4863 
L 1178 4863 
L 1178 4134 
L 603 4134 
L 603 4863 
z
" transform="scale(0.015625)"/>
       <path id="DejaVuSans-6e" d="M 3513 2113 
L 3513 0 
L 2938 0 
L 2938 2094 
Q 2938 2591 2744 2837 
Q 2550 3084 2163 3084 
Q 1697 3084 1428 2787 
Q 1159 2491 1159 1978 
L 1159 0 
L 581 0 
L 581 3500 
L 1159 3500 
L 1159 2956 
Q 1366 3272 1645 3428 
Q 1925 3584 2291 3584 
Q 2894 3584 3203 3211 
Q 3513 2838 3513 2113 
z
" transform="scale(0.015625)"/>
       <path id="DejaVuSans-20" transform="scale(0.015625)"/>
       <path id="DejaVuSans-4c" d="M 628 4666 
L 1259 4666 
L 1259 531 
L 3531 531 
L 3531 0 
L 628 0 
L 628 4666 
z
" transform="scale(0.015625)"/>
       <path id="DejaVuSans-73" d="M 2834 3397 
L 2834 2853 
Q 2591 2978 2328 3040 
Q 2066 3103 1784 3103 
Q 1356 3103 1142 2972 
Q 928 2841 928 2578 
Q 928 2378 1081 2264 
Q 1234 2150 1697 2047 
L 1894 2003 
Q 2506 1872 2764 1633 
Q 3022 1394 3022 966 
Q 3022 478 2636 193 
Q 2250 -91 1575 -91 
Q 1294 -91 989 -36 
Q 684 19 347 128 
L 347 722 
Q 666 556 975 473 
Q 1284 391 1588 391 
Q 1994 391 2212 530 
Q 2431 669 2431 922 
Q 2431 1156 2273 1281 
Q 2116 1406 1581 1522 
L 1381 1569 
Q 847 1681 609 1914 
Q 372 2147 372 2553 
Q 372 3047 722 3315 
Q 1072 3584 1716 3584 
Q 2034 3584 2315 3537 
Q 2597 3491 2834 3397 
z
" transform="scale(0.015625)"/>
      </defs>
      <use xlink:href="#DejaVuSans-54"/>
      <use xlink:href="#DejaVuSans-72" transform="translate(46.333984 0)"/>
      <use xlink:href="#DejaVuSans-61" transform="translate(87.447266 0)"/>
      <use xlink:href="#DejaVuSans-69" transform="translate(148.726562 0)"/>
      <use xlink:href="#DejaVuSans-6e" transform="translate(176.509766 0)"/>
      <use xlink:href="#DejaVuSans-20" transform="translate(239.888672 0)"/>
      <use xlink:href="#DejaVuSans-4c" transform="translate(271.675781 0)"/>
      <use xlink:href="#DejaVuSans-6f" transform="translate(325.638672 0)"/>
      <use xlink:href="#DejaVuSans-73" transform="translate(386.820312 0)"/>
      <use xlink:href="#DejaVuSans-73" transform="translate(438.919922 0)"/>
     </g>
    </g>
   </g>
   <g id="line2d_14">
    <path d="M 73.848523 41.873354 
L 79.922719 43.131132 
L 85.996916 44.75249 
L 92.071112 53.692118 
L 98.145309 74.558107 
L 104.219505 104.910191 
L 110.293702 138.806271 
L 116.367898 177.13059 
L 122.442095 209.761527 
L 128.516291 237.47547 
L 134.590488 256.868866 
L 140.664684 271.01666 
L 146.738881 280.083815 
L 152.813077 288.741001 
L 158.887274 295.335646 
L 164.96147 298.831605 
L 171.035667 303.220063 
L 177.109863 305.904559 
L 183.18406 310.899907 
L 189.258256 312.092795 
L 195.332453 314.518299 
L 201.406649 318.908392 
L 207.480846 319.705939 
L 213.555042 322.579267 
L 219.629239 323.238732 
L 225.703435 325.564903 
L 231.777632 325.6655 
L 237.851829 328.28918 
L 243.926025 328.491825 
L 250.000222 330.009017 
L 256.074418 331.447683 
L 262.148615 331.929559 
L 268.222811 331.603532 
L 274.297008 332.317188 
L 280.371204 333.863997 
L 286.445401 332.168157 
L 292.519597 333.881404 
L 298.593794 334.497161 
L 304.66799 335.108264 
L 310.742187 336.845725 
L 316.816383 336.63966 
L 322.89058 337.837312 
L 328.964776 339.539796 
L 335.038973 340.119804 
L 341.113169 342.806164 
L 347.187366 345.090738 
L 353.261562 344.816047 
L 359.335759 347.886478 
L 365.409955 349.582253 
L 371.484152 351.111148 
L 377.558348 353.557926 
L 383.632545 352.595969 
L 389.706741 354.340475 
L 395.780938 354.976979 
L 401.855134 356.179718 
L 407.929331 356.75522 
L 414.003527 357.002534 
L 420.077724 357.568524 
L 426.15192 356.950077 
L 432.226117 357.032564 
L 438.300313 358.145248 
L 444.37451 359.34689 
L 450.448706 359.540654 
L 456.522903 359.919245 
L 462.597099 361.529336 
L 468.671296 359.593873 
L 474.745492 360.181175 
L 480.819689 361.007437 
L 486.893885 360.502558 
L 492.968082 361.907127 
L 499.042278 361.568284 
L 505.116475 360.642864 
L 511.190671 361.979657 
L 517.264868 362.312667 
L 523.339065 362.559357 
L 529.413261 361.620209 
L 535.487458 364.380448 
L 541.561654 363.303371 
L 547.635851 364.399793 
L 553.710047 363.270488 
L 559.784244 362.716261 
L 565.85844 364.109688 
L 571.932637 364.618448 
L 578.006833 364.10381 
L 584.08103 364.573927 
L 590.155226 363.811024 
L 596.229423 364.373607 
L 602.303619 364.38372 
L 608.377816 364.273194 
L 614.452012 365.702973 
L 620.526209 364.651164 
L 626.600405 364.210596 
L 632.674602 366.091463 
L 638.748798 365.292542 
L 644.822995 364.165414 
L 650.897191 367.22909 
L 656.971388 365.092717 
L 663.045584 365.851431 
L 669.119781 364.422569 
L 675.193977 365.184898 
" clip-path="url(#peb09fd684d)" style="fill: none; stroke: #1f77b4; stroke-width: 1.5; stroke-linecap: square"/>
   </g>
   <g id="line2d_15">
    <path d="M 73.848523 38.825398 
L 79.922719 40.310391 
L 85.996916 42.671797 
L 92.071112 48.405716 
L 98.145309 74.176199 
L 104.219505 118.064892 
L 110.293702 153.206357 
L 116.367898 177.99799 
L 122.442095 200.208579 
L 128.516291 221.606179 
L 134.590488 243.755057 
L 140.664684 262.434627 
L 146.738881 276.597345 
L 152.813077 288.005977 
L 158.887274 295.406559 
L 164.96147 303.547262 
L 171.035667 307.623392 
L 177.109863 309.996696 
L 183.18406 313.88179 
L 189.258256 317.079427 
L 195.332453 319.445435 
L 201.406649 321.807542 
L 207.480846 322.441629 
L 213.555042 324.046065 
L 219.629239 325.545498 
L 225.703435 325.85367 
L 231.777632 328.672155 
L 237.851829 327.571594 
L 243.926025 329.887997 
L 250.000222 329.357304 
L 256.074418 330.060782 
L 262.148615 331.418516 
L 268.222811 331.924308 
L 274.297008 333.689514 
L 280.371204 332.304384 
L 286.445401 333.960304 
L 292.519597 334.17003 
L 298.593794 334.256987 
L 304.66799 334.885748 
L 310.742187 334.625018 
L 316.816383 336.736074 
L 322.89058 336.276252 
L 328.964776 335.773422 
L 335.038973 336.534934 
L 341.113169 336.189066 
L 347.187366 338.290714 
L 353.261562 337.463788 
L 359.335759 338.440403 
L 365.409955 338.591909 
L 371.484152 339.024882 
L 377.558348 338.961866 
L 383.632545 338.678273 
L 389.706741 339.410637 
L 395.780938 339.305072 
L 401.855134 340.490021 
L 407.929331 339.687517 
L 414.003527 340.70887 
L 420.077724 340.156503 
L 426.15192 341.857529 
L 432.226117 340.564739 
L 438.300313 341.837667 
L 444.37451 341.374266 
L 450.448706 341.20945 
L 456.522903 341.043418 
L 462.597099 341.967624 
L 468.671296 341.666747 
L 474.745492 341.883564 
L 480.819689 342.099879 
L 486.893885 342.443487 
L 492.968082 343.2493 
L 499.042278 338.959444 
L 505.116475 344.538391 
L 511.190671 344.395537 
L 517.264868 344.48744 
L 523.339065 345.188766 
L 529.413261 345.421359 
L 535.487458 346.182396 
L 541.561654 346.868143 
L 547.635851 346.980919 
L 553.710047 347.916853 
L 559.784244 348.709474 
L 565.85844 349.468535 
L 571.932637 348.810309 
L 578.006833 349.82595 
L 584.08103 350.630921 
L 590.155226 350.525645 
L 596.229423 352.382161 
L 602.303619 352.132283 
L 608.377816 353.202437 
L 614.452012 353.614106 
L 620.526209 354.414168 
L 626.600405 353.927714 
L 632.674602 356.629123 
L 638.748798 357.336455 
L 644.822995 356.816216 
L 650.897191 357.883272 
L 656.971388 358.597008 
L 663.045584 358.284239 
L 669.119781 357.932602 
L 675.193977 358.969021 
" clip-path="url(#peb09fd684d)" style="fill: none; stroke: #ff7f0e; stroke-width: 1.5; stroke-linecap: square"/>
   </g>
   <g id="line2d_16">
    <path d="M 73.848523 41.432814 
L 79.922719 41.9967 
L 85.996916 43.677279 
L 92.071112 50.934881 
L 98.145309 74.971096 
L 104.219505 114.443836 
L 110.293702 152.313451 
L 116.367898 182.39526 
L 122.442095 198.088555 
L 128.516291 205.274995 
L 134.590488 213.159745 
L 140.664684 217.316531 
L 146.738881 226.192946 
L 152.813077 236.150228 
L 158.887274 251.757626 
L 164.96147 264.693148 
L 171.035667 274.11854 
L 177.109863 283.586933 
L 183.18406 291.482755 
L 189.258256 296.455626 
L 195.332453 300.696649 
L 201.406649 305.252443 
L 207.480846 309.762413 
L 213.555042 310.924108 
L 219.629239 313.482868 
L 225.703435 317.240093 
L 231.777632 319.30175 
L 237.851829 321.272879 
L 243.926025 322.782728 
L 250.000222 323.612738 
L 256.074418 324.534607 
L 262.148615 327.910253 
L 268.222811 328.129403 
L 274.297008 327.809749 
L 280.371204 329.724639 
L 286.445401 331.974203 
L 292.519597 333.246781 
L 298.593794 336.038604 
L 304.66799 337.19553 
L 310.742187 337.377954 
L 316.816383 339.809165 
L 322.89058 341.832883 
L 328.964776 342.510725 
L 335.038973 344.242095 
L 341.113169 345.040992 
L 347.187366 346.462952 
L 353.261562 348.723716 
L 359.335759 349.275434 
L 365.409955 351.421534 
L 371.484152 350.344639 
L 377.558348 352.996711 
L 383.632545 353.923266 
L 389.706741 353.239128 
L 395.780938 354.466935 
L 401.855134 354.992815 
L 407.929331 355.622772 
L 414.003527 355.471831 
L 420.077724 355.635614 
L 426.15192 355.753106 
L 432.226117 357.319541 
L 438.300313 359.282362 
L 444.37451 359.097219 
L 450.448706 359.536433 
L 456.522903 359.215292 
L 462.597099 360.029893 
L 468.671296 360.458643 
L 474.745492 360.699676 
L 480.819689 360.677834 
L 486.893885 360.658441 
L 492.968082 361.694143 
L 499.042278 362.221367 
L 505.116475 362.959592 
L 511.190671 361.24556 
L 517.264868 361.422189 
L 523.339065 363.301719 
L 529.413261 361.56714 
L 535.487458 364.039816 
L 541.561654 362.882255 
L 547.635851 362.104404 
L 553.710047 364.844086 
L 559.784244 364.553871 
L 565.85844 364.873474 
L 571.932637 364.532003 
L 578.006833 366.629373 
L 584.08103 364.892453 
L 590.155226 364.468979 
L 596.229423 365.182993 
L 602.303619 364.924291 
L 608.377816 366.354061 
L 614.452012 364.436783 
L 620.526209 367.184533 
L 626.600405 365.168811 
L 632.674602 367.09109 
L 638.748798 366.82148 
L 644.822995 365.96554 
L 650.897191 365.411787 
L 656.971388 367.889036 
L 663.045584 365.834096 
L 669.119781 367.170875 
L 675.193977 365.978043 
" clip-path="url(#peb09fd684d)" style="fill: none; stroke: #2ca02c; stroke-width: 1.5; stroke-linecap: square"/>
   </g>
   <g id="line2d_17">
    <path d="M 73.848523 40.053593 
L 79.922719 41.164368 
L 85.996916 42.55748 
L 92.071112 47.974745 
L 98.145309 65.175168 
L 104.219505 99.781019 
L 110.293702 133.098131 
L 116.367898 155.214575 
L 122.442095 181.806929 
L 128.516291 219.203966 
L 134.590488 247.884128 
L 140.664684 268.951107 
L 146.738881 279.219574 
L 152.813077 289.455943 
L 158.887274 294.620314 
L 164.96147 300.239609 
L 171.035667 305.77487 
L 177.109863 309.824374 
L 183.18406 313.623425 
L 189.258256 316.244734 
L 195.332453 318.145591 
L 201.406649 320.778296 
L 207.480846 323.646941 
L 213.555042 326.382758 
L 219.629239 327.314075 
L 225.703435 329.582268 
L 231.777632 331.100507 
L 237.851829 331.30205 
L 243.926025 333.83749 
L 250.000222 334.604729 
L 256.074418 336.693738 
L 262.148615 337.47242 
L 268.222811 338.699422 
L 274.297008 339.506097 
L 280.371204 341.092458 
L 286.445401 343.032681 
L 292.519597 343.605365 
L 298.593794 344.763095 
L 304.66799 346.75574 
L 310.742187 345.548513 
L 316.816383 348.508455 
L 322.89058 349.027916 
L 328.964776 350.46817 
L 335.038973 351.286307 
L 341.113169 351.716914 
L 347.187366 351.913671 
L 353.261562 352.878166 
L 359.335759 355.439494 
L 365.409955 355.489472 
L 371.484152 356.77698 
L 377.558348 357.631484 
L 383.632545 357.723082 
L 389.706741 357.774908 
L 395.780938 356.825728 
L 401.855134 356.529418 
L 407.929331 359.052421 
L 414.003527 359.270337 
L 420.077724 358.77421 
L 426.15192 358.662022 
L 432.226117 361.354085 
L 438.300313 361.632564 
L 444.37451 360.251046 
L 450.448706 361.323982 
L 456.522903 361.787974 
L 462.597099 361.764465 
L 468.671296 363.06203 
L 474.745492 362.562504 
L 480.819689 362.064871 
L 486.893885 360.110396 
L 492.968082 361.987804 
L 499.042278 362.772011 
L 505.116475 363.174599 
L 511.190671 362.873726 
L 517.264868 363.235096 
L 523.339065 361.944734 
L 529.413261 364.491976 
L 535.487458 363.317162 
L 541.561654 364.699263 
L 547.635851 363.745799 
L 553.710047 365.480434 
L 559.784244 364.58673 
L 565.85844 362.94933 
L 571.932637 362.365479 
L 578.006833 364.184066 
L 584.08103 364.574411 
L 590.155226 364.524933 
L 596.229423 364.44661 
L 602.303619 365.871296 
L 608.377816 365.241513 
L 614.452012 365.657292 
L 620.526209 365.384981 
L 626.600405 366.141731 
L 632.674602 367.547337 
L 638.748798 366.391863 
L 644.822995 365.767502 
L 650.897191 365.480603 
L 656.971388 366.987111 
L 663.045584 365.570429 
L 669.119781 364.734192 
L 675.193977 366.563399 
" clip-path="url(#peb09fd684d)" style="fill: none; stroke: #d62728; stroke-width: 1.5; stroke-linecap: square"/>
   </g>
   <g id="line2d_18">
    <path d="M 73.848523 38.900488 
L 79.922719 40.233247 
L 85.996916 42.07718 
L 92.071112 48.744609 
L 98.145309 71.917912 
L 104.219505 104.938847 
L 110.293702 128.4887 
L 116.367898 148.470347 
L 122.442095 171.717891 
L 128.516291 204.386735 
L 134.590488 238.852785 
L 140.664684 264.251918 
L 146.738881 279.5536 
L 152.813077 289.206248 
L 158.887274 298.16499 
L 164.96147 302.832318 
L 171.035667 306.532372 
L 177.109863 312.650006 
L 183.18406 314.94909 
L 189.258256 317.067778 
L 195.332453 320.132782 
L 201.406649 321.463449 
L 207.480846 323.67889 
L 213.555042 324.497991 
L 219.629239 325.424375 
L 225.703435 327.764794 
L 231.777632 329.252251 
L 237.851829 329.319927 
L 243.926025 328.99683 
L 250.000222 330.449763 
L 256.074418 331.703339 
L 262.148615 331.380177 
L 268.222811 333.215442 
L 274.297008 333.300043 
L 280.371204 333.228684 
L 286.445401 333.144864 
L 292.519597 334.730363 
L 298.593794 334.78655 
L 304.66799 335.514457 
L 310.742187 336.033458 
L 316.816383 336.586307 
L 322.89058 337.073272 
L 328.964776 337.399667 
L 335.038973 338.353027 
L 341.113169 339.211763 
L 347.187366 340.723555 
L 353.261562 342.36062 
L 359.335759 342.77511 
L 365.409955 343.794332 
L 371.484152 344.627809 
L 377.558348 345.050318 
L 383.632545 346.94994 
L 389.706741 347.466686 
L 395.780938 348.82175 
L 401.855134 349.664553 
L 407.929331 351.966134 
L 414.003527 351.437244 
L 420.077724 352.583932 
L 426.15192 354.924748 
L 432.226117 355.959706 
L 438.300313 355.056373 
L 444.37451 357.392186 
L 450.448706 355.733333 
L 456.522903 358.653572 
L 462.597099 360.460847 
L 468.671296 360.573569 
L 474.745492 361.149675 
L 480.819689 361.159803 
L 486.893885 360.30391 
L 492.968082 360.070963 
L 499.042278 361.505218 
L 505.116475 362.603291 
L 511.190671 362.072959 
L 517.264868 362.8953 
L 523.339065 362.875401 
L 529.413261 364.003227 
L 535.487458 364.606514 
L 541.561654 365.570103 
L 547.635851 363.906656 
L 553.710047 365.310439 
L 559.784244 364.396632 
L 565.85844 365.479613 
L 571.932637 365.783734 
L 578.006833 365.428715 
L 584.08103 365.97029 
L 590.155226 365.83112 
L 596.229423 364.706789 
L 602.303619 366.278258 
L 608.377816 366.520755 
L 614.452012 368.114337 
L 620.526209 365.912635 
L 626.600405 366.351791 
L 632.674602 365.965337 
L 638.748798 368.139866 
L 644.822995 365.366298 
L 650.897191 364.959844 
L 656.971388 366.815942 
L 663.045584 367.60235 
L 669.119781 366.081758 
L 675.193977 368.970852 
" clip-path="url(#peb09fd684d)" style="fill: none; stroke: #9467bd; stroke-width: 1.5; stroke-linecap: square"/>
   </g>
   <g id="patch_3">
    <path d="M 43.78125 385.478125 
L 43.78125 22.318125 
" style="fill: none; stroke: #000000; stroke-width: 0.8; stroke-linejoin: miter; stroke-linecap: square"/>
   </g>
   <g id="patch_4">
    <path d="M 705.26125 385.478125 
L 705.26125 22.318125 
" style="fill: none; stroke: #000000; stroke-width: 0.8; stroke-linejoin: miter; stroke-linecap: square"/>
   </g>
   <g id="patch_5">
    <path d="M 43.78125 385.478125 
L 705.26125 385.478125 
" style="fill: none; stroke: #000000; stroke-width: 0.8; stroke-linejoin: miter; stroke-linecap: square"/>
   </g>
   <g id="patch_6">
    <path d="M 43.78125 22.318125 
L 705.26125 22.318125 
" style="fill: none; stroke: #000000; stroke-width: 0.8; stroke-linejoin: miter; stroke-linecap: square"/>
   </g>
   <g id="text_16">
    <!-- Combined Train Loss -->
    <g transform="translate(312.669688 16.318125) scale(0.12 -0.12)">
     <defs>
      <path id="DejaVuSans-43" d="M 4122 4306 
L 4122 3641 
Q 3803 3938 3442 4084 
Q 3081 4231 2675 4231 
Q 1875 4231 1450 3742 
Q 1025 3253 1025 2328 
Q 1025 1406 1450 917 
Q 1875 428 2675 428 
Q 3081 428 3442 575 
Q 3803 722 4122 1019 
L 4122 359 
Q 3791 134 3420 21 
Q 3050 -91 2638 -91 
Q 1578 -91 968 557 
Q 359 1206 359 2328 
Q 359 3453 968 4101 
Q 1578 4750 2638 4750 
Q 3056 4750 3426 4639 
Q 3797 4528 4122 4306 
z
" transform="scale(0.015625)"/>
      <path id="DejaVuSans-6d" d="M 3328 2828 
Q 3544 3216 3844 3400 
Q 4144 3584 4550 3584 
Q 5097 3584 5394 3201 
Q 5691 2819 5691 2113 
L 5691 0 
L 5113 0 
L 5113 2094 
Q 5113 2597 4934 2840 
Q 4756 3084 4391 3084 
Q 3944 3084 3684 2787 
Q 3425 2491 3425 1978 
L 3425 0 
L 2847 0 
L 2847 2094 
Q 2847 2600 2669 2842 
Q 2491 3084 2119 3084 
Q 1678 3084 1418 2786 
Q 1159 2488 1159 1978 
L 1159 0 
L 581 0 
L 581 3500 
L 1159 3500 
L 1159 2956 
Q 1356 3278 1631 3431 
Q 1906 3584 2284 3584 
Q 2666 3584 2933 3390 
Q 3200 3197 3328 2828 
z
" transform="scale(0.015625)"/>
      <path id="DejaVuSans-62" d="M 3116 1747 
Q 3116 2381 2855 2742 
Q 2594 3103 2138 3103 
Q 1681 3103 1420 2742 
Q 1159 2381 1159 1747 
Q 1159 1113 1420 752 
Q 1681 391 2138 391 
Q 2594 391 2855 752 
Q 3116 1113 3116 1747 
z
M 1159 2969 
Q 1341 3281 1617 3432 
Q 1894 3584 2278 3584 
Q 2916 3584 3314 3078 
Q 3713 2572 3713 1747 
Q 3713 922 3314 415 
Q 2916 -91 2278 -91 
Q 1894 -91 1617 61 
Q 1341 213 1159 525 
L 1159 0 
L 581 0 
L 581 4863 
L 1159 4863 
L 1159 2969 
z
" transform="scale(0.015625)"/>
      <path id="DejaVuSans-65" d="M 3597 1894 
L 3597 1613 
L 953 1613 
Q 991 1019 1311 708 
Q 1631 397 2203 397 
Q 2534 397 2845 478 
Q 3156 559 3463 722 
L 3463 178 
Q 3153 47 2828 -22 
Q 2503 -91 2169 -91 
Q 1331 -91 842 396 
Q 353 884 353 1716 
Q 353 2575 817 3079 
Q 1281 3584 2069 3584 
Q 2775 3584 3186 3129 
Q 3597 2675 3597 1894 
z
M 3022 2063 
Q 3016 2534 2758 2815 
Q 2500 3097 2075 3097 
Q 1594 3097 1305 2825 
Q 1016 2553 972 2059 
L 3022 2063 
z
" transform="scale(0.015625)"/>
      <path id="DejaVuSans-64" d="M 2906 2969 
L 2906 4863 
L 3481 4863 
L 3481 0 
L 2906 0 
L 2906 525 
Q 2725 213 2448 61 
Q 2172 -91 1784 -91 
Q 1150 -91 751 415 
Q 353 922 353 1747 
Q 353 2572 751 3078 
Q 1150 3584 1784 3584 
Q 2172 3584 2448 3432 
Q 2725 3281 2906 2969 
z
M 947 1747 
Q 947 1113 1208 752 
Q 1469 391 1925 391 
Q 2381 391 2643 752 
Q 2906 1113 2906 1747 
Q 2906 2381 2643 2742 
Q 2381 3103 1925 3103 
Q 1469 3103 1208 2742 
Q 947 2381 947 1747 
z
" transform="scale(0.015625)"/>
     </defs>
     <use xlink:href="#DejaVuSans-43"/>
     <use xlink:href="#DejaVuSans-6f" transform="translate(69.824219 0)"/>
     <use xlink:href="#DejaVuSans-6d" transform="translate(131.005859 0)"/>
     <use xlink:href="#DejaVuSans-62" transform="translate(228.417969 0)"/>
     <use xlink:href="#DejaVuSans-69" transform="translate(291.894531 0)"/>
     <use xlink:href="#DejaVuSans-6e" transform="translate(319.677734 0)"/>
     <use xlink:href="#DejaVuSans-65" transform="translate(383.056641 0)"/>
     <use xlink:href="#DejaVuSans-64" transform="translate(444.580078 0)"/>
     <use xlink:href="#DejaVuSans-20" transform="translate(508.056641 0)"/>
     <use xlink:href="#DejaVuSans-54" transform="translate(539.84375 0)"/>
     <use xlink:href="#DejaVuSans-72" transform="translate(586.177734 0)"/>
     <use xlink:href="#DejaVuSans-61" transform="translate(627.291016 0)"/>
     <use xlink:href="#DejaVuSans-69" transform="translate(688.570312 0)"/>
     <use xlink:href="#DejaVuSans-6e" transform="translate(716.353516 0)"/>
     <use xlink:href="#DejaVuSans-20" transform="translate(779.732422 0)"/>
     <use xlink:href="#DejaVuSans-4c" transform="translate(811.519531 0)"/>
     <use xlink:href="#DejaVuSans-6f" transform="translate(865.482422 0)"/>
     <use xlink:href="#DejaVuSans-73" transform="translate(926.664062 0)"/>
     <use xlink:href="#DejaVuSans-73" transform="translate(978.763672 0)"/>
    </g>
   </g>
   <g id="legend_1">
    <g id="patch_7">
     <path d="M 636.08625 103.70875 
L 698.26125 103.70875 
Q 700.26125 103.70875 700.26125 101.70875 
L 700.26125 29.318125 
Q 700.26125 27.318125 698.26125 27.318125 
L 636.08625 27.318125 
Q 634.08625 27.318125 634.08625 29.318125 
L 634.08625 101.70875 
Q 634.08625 103.70875 636.08625 103.70875 
z
" style="fill: #ffffff; opacity: 0.8; stroke: #cccccc; stroke-linejoin: miter"/>
    </g>
    <g id="line2d_19">
     <path d="M 638.08625 35.416562 
L 648.08625 35.416562 
L 658.08625 35.416562 
" style="fill: none; stroke: #1f77b4; stroke-width: 1.5; stroke-linecap: square"/>
    </g>
    <g id="text_17">
     <!-- Fold 1 -->
     <g transform="translate(666.08625 38.916562) scale(0.1 -0.1)">
      <defs>
       <path id="DejaVuSans-46" d="M 628 4666 
L 3309 4666 
L 3309 4134 
L 1259 4134 
L 1259 2759 
L 3109 2759 
L 3109 2228 
L 1259 2228 
L 1259 0 
L 628 0 
L 628 4666 
z
" transform="scale(0.015625)"/>
       <path id="DejaVuSans-6c" d="M 603 4863 
L 1178 4863 
L 1178 0 
L 603 0 
L 603 4863 
z
" transform="scale(0.015625)"/>
      </defs>
      <use xlink:href="#DejaVuSans-46"/>
      <use xlink:href="#DejaVuSans-6f" transform="translate(53.894531 0)"/>
      <use xlink:href="#DejaVuSans-6c" transform="translate(115.076172 0)"/>
      <use xlink:href="#DejaVuSans-64" transform="translate(142.859375 0)"/>
      <use xlink:href="#DejaVuSans-20" transform="translate(206.335938 0)"/>
      <use xlink:href="#DejaVuSans-31" transform="translate(238.123047 0)"/>
     </g>
    </g>
    <g id="line2d_20">
     <path d="M 638.08625 50.094688 
L 648.08625 50.094688 
L 658.08625 50.094688 
" style="fill: none; stroke: #ff7f0e; stroke-width: 1.5; stroke-linecap: square"/>
    </g>
    <g id="text_18">
     <!-- Fold 2 -->
     <g transform="translate(666.08625 53.594688) scale(0.1 -0.1)">
      <use xlink:href="#DejaVuSans-46"/>
      <use xlink:href="#DejaVuSans-6f" transform="translate(53.894531 0)"/>
      <use xlink:href="#DejaVuSans-6c" transform="translate(115.076172 0)"/>
      <use xlink:href="#DejaVuSans-64" transform="translate(142.859375 0)"/>
      <use xlink:href="#DejaVuSans-20" transform="translate(206.335938 0)"/>
      <use xlink:href="#DejaVuSans-32" transform="translate(238.123047 0)"/>
     </g>
    </g>
    <g id="line2d_21">
     <path d="M 638.08625 64.772812 
L 648.08625 64.772812 
L 658.08625 64.772812 
" style="fill: none; stroke: #2ca02c; stroke-width: 1.5; stroke-linecap: square"/>
    </g>
    <g id="text_19">
     <!-- Fold 3 -->
     <g transform="translate(666.08625 68.272812) scale(0.1 -0.1)">
      <defs>
       <path id="DejaVuSans-33" d="M 2597 2516 
Q 3050 2419 3304 2112 
Q 3559 1806 3559 1356 
Q 3559 666 3084 287 
Q 2609 -91 1734 -91 
Q 1441 -91 1130 -33 
Q 819 25 488 141 
L 488 750 
Q 750 597 1062 519 
Q 1375 441 1716 441 
Q 2309 441 2620 675 
Q 2931 909 2931 1356 
Q 2931 1769 2642 2001 
Q 2353 2234 1838 2234 
L 1294 2234 
L 1294 2753 
L 1863 2753 
Q 2328 2753 2575 2939 
Q 2822 3125 2822 3475 
Q 2822 3834 2567 4026 
Q 2313 4219 1838 4219 
Q 1578 4219 1281 4162 
Q 984 4106 628 3988 
L 628 4550 
Q 988 4650 1302 4700 
Q 1616 4750 1894 4750 
Q 2613 4750 3031 4423 
Q 3450 4097 3450 3541 
Q 3450 3153 3228 2886 
Q 3006 2619 2597 2516 
z
" transform="scale(0.015625)"/>
      </defs>
      <use xlink:href="#DejaVuSans-46"/>
      <use xlink:href="#DejaVuSans-6f" transform="translate(53.894531 0)"/>
      <use xlink:href="#DejaVuSans-6c" transform="translate(115.076172 0)"/>
      <use xlink:href="#DejaVuSans-64" transform="translate(142.859375 0)"/>
      <use xlink:href="#DejaVuSans-20" transform="translate(206.335938 0)"/>
      <use xlink:href="#DejaVuSans-33" transform="translate(238.123047 0)"/>
     </g>
    </g>
    <g id="line2d_22">
     <path d="M 638.08625 79.450938 
L 648.08625 79.450938 
L 658.08625 79.450938 
" style="fill: none; stroke: #d62728; stroke-width: 1.5; stroke-linecap: square"/>
    </g>
    <g id="text_20">
     <!-- Fold 4 -->
     <g transform="translate(666.08625 82.950938) scale(0.1 -0.1)">
      <use xlink:href="#DejaVuSans-46"/>
      <use xlink:href="#DejaVuSans-6f" transform="translate(53.894531 0)"/>
      <use xlink:href="#DejaVuSans-6c" transform="translate(115.076172 0)"/>
      <use xlink:href="#DejaVuSans-64" transform="translate(142.859375 0)"/>
      <use xlink:href="#DejaVuSans-20" transform="translate(206.335938 0)"/>
      <use xlink:href="#DejaVuSans-34" transform="translate(238.123047 0)"/>
     </g>
    </g>
    <g id="line2d_23">
     <path d="M 638.08625 94.129063 
L 648.08625 94.129063 
L 658.08625 94.129063 
" style="fill: none; stroke: #9467bd; stroke-width: 1.5; stroke-linecap: square"/>
    </g>
    <g id="text_21">
     <!-- Fold 5 -->
     <g transform="translate(666.08625 97.629063) scale(0.1 -0.1)">
      <defs>
       <path id="DejaVuSans-35" d="M 691 4666 
L 3169 4666 
L 3169 4134 
L 1269 4134 
L 1269 2991 
Q 1406 3038 1543 3061 
Q 1681 3084 1819 3084 
Q 2600 3084 3056 2656 
Q 3513 2228 3513 1497 
Q 3513 744 3044 326 
Q 2575 -91 1722 -91 
Q 1428 -91 1123 -41 
Q 819 9 494 109 
L 494 744 
Q 775 591 1075 516 
Q 1375 441 1709 441 
Q 2250 441 2565 725 
Q 2881 1009 2881 1497 
Q 2881 1984 2565 2268 
Q 2250 2553 1709 2553 
Q 1456 2553 1204 2497 
Q 953 2441 691 2322 
L 691 4666 
z
" transform="scale(0.015625)"/>
      </defs>
      <use xlink:href="#DejaVuSans-46"/>
      <use xlink:href="#DejaVuSans-6f" transform="translate(53.894531 0)"/>
      <use xlink:href="#DejaVuSans-6c" transform="translate(115.076172 0)"/>
      <use xlink:href="#DejaVuSans-64" transform="translate(142.859375 0)"/>
      <use xlink:href="#DejaVuSans-20" transform="translate(206.335938 0)"/>
      <use xlink:href="#DejaVuSans-35" transform="translate(238.123047 0)"/>
     </g>
    </g>
   </g>
  </g>
 </g>
 <defs>
  <clipPath id="peb09fd684d">
   <rect x="43.78125" y="22.318125" width="661.48" height="363.16"/>
  </clipPath>
 </defs>
</svg>
