<?xml version="1.0" encoding="utf-8" standalone="no"?>
<!DOCTYPE svg PUBLIC "-//W3C//DTD SVG 1.1//EN"
  "http://www.w3.org/Graphics/SVG/1.1/DTD/svg11.dtd">
<svg xmlns:xlink="http://www.w3.org/1999/xlink" width="712.52375pt" height="423.034375pt" viewBox="0 0 712.52375 423.034375" xmlns="http://www.w3.org/2000/svg" version="1.1">
 <metadata>
  <rdf:RDF xmlns:dc="http://purl.org/dc/elements/1.1/" xmlns:cc="http://creativecommons.org/ns#" xmlns:rdf="http://www.w3.org/1999/02/22-rdf-syntax-ns#">
   <cc:Work>
    <dc:type rdf:resource="http://purl.org/dc/dcmitype/StillImage"/>
    <dc:date>2025-06-26T18:24:55.332414</dc:date>
    <dc:format>image/svg+xml</dc:format>
    <dc:creator>
     <cc:Agent>
      <dc:title>Matplotlib v3.10.0, https://matplotlib.org/</dc:title>
     </cc:Agent>
    </dc:creator>
   </cc:Work>
  </rdf:RDF>
 </metadata>
 <defs>
  <style type="text/css">*{stroke-linejoin: round; stroke-linecap: butt}</style>
 </defs>
 <g id="figure_1">
  <g id="patch_1">
   <path d="M 0 423.034375 
L 712.52375 423.034375 
L 712.52375 0 
L 0 0 
z
" style="fill: #ffffff"/>
  </g>
  <g id="axes_1">
   <g id="patch_2">
    <path d="M 50.14375 385.478125 
L 705.32375 385.478125 
L 705.32375 22.318125 
L 50.14375 22.318125 
z
" style="fill: #ffffff"/>
   </g>
   <g id="matplotlib.axis_1">
    <g id="xtick_1">
     <g id="line2d_1">
      <defs>
       <path id="mc4d483d553" d="M 0 0 
L 0 3.5 
" style="stroke: #000000; stroke-width: 0.8"/>
      </defs>
      <g>
       <use xlink:href="#mc4d483d553" x="73.908314" y="385.478125" style="stroke: #000000; stroke-width: 0.8"/>
      </g>
     </g>
     <g id="text_1">
      <!-- 0 -->
      <g transform="translate(70.727064 400.076562) scale(0.1 -0.1)">
       <defs>
        <path id="DejaVuSans-30" d="M 2034 4250 
Q 1547 4250 1301 3770 
Q 1056 3291 1056 2328 
Q 1056 1369 1301 889 
Q 1547 409 2034 409 
Q 2525 409 2770 889 
Q 3016 1369 3016 2328 
Q 3016 3291 2770 3770 
Q 2525 4250 2034 4250 
z
M 2034 4750 
Q 2819 4750 3233 4129 
Q 3647 3509 3647 2328 
Q 3647 1150 3233 529 
Q 2819 -91 2034 -91 
Q 1250 -91 836 529 
Q 422 1150 422 2328 
Q 422 3509 836 4129 
Q 1250 4750 2034 4750 
z
" transform="scale(0.015625)"/>
       </defs>
       <use xlink:href="#DejaVuSans-30"/>
      </g>
     </g>
    </g>
    <g id="xtick_2">
     <g id="line2d_2">
      <g>
       <use xlink:href="#mc4d483d553" x="194.235219" y="385.478125" style="stroke: #000000; stroke-width: 0.8"/>
      </g>
     </g>
     <g id="text_2">
      <!-- 20 -->
      <g transform="translate(187.872719 400.076562) scale(0.1 -0.1)">
       <defs>
        <path id="DejaVuSans-32" d="M 1228 531 
L 3431 531 
L 3431 0 
L 469 0 
L 469 531 
Q 828 903 1448 1529 
Q 2069 2156 2228 2338 
Q 2531 2678 2651 2914 
Q 2772 3150 2772 3378 
Q 2772 3750 2511 3984 
Q 2250 4219 1831 4219 
Q 1534 4219 1204 4116 
Q 875 4013 500 3803 
L 500 4441 
Q 881 4594 1212 4672 
Q 1544 4750 1819 4750 
Q 2544 4750 2975 4387 
Q 3406 4025 3406 3419 
Q 3406 3131 3298 2873 
Q 3191 2616 2906 2266 
Q 2828 2175 2409 1742 
Q 1991 1309 1228 531 
z
" transform="scale(0.015625)"/>
       </defs>
       <use xlink:href="#DejaVuSans-32"/>
       <use xlink:href="#DejaVuSans-30" transform="translate(63.623047 0)"/>
      </g>
     </g>
    </g>
    <g id="xtick_3">
     <g id="line2d_3">
      <g>
       <use xlink:href="#mc4d483d553" x="314.562125" y="385.478125" style="stroke: #000000; stroke-width: 0.8"/>
      </g>
     </g>
     <g id="text_3">
      <!-- 40 -->
      <g transform="translate(308.199625 400.076562) scale(0.1 -0.1)">
       <defs>
        <path id="DejaVuSans-34" d="M 2419 4116 
L 825 1625 
L 2419 1625 
L 2419 4116 
z
M 2253 4666 
L 3047 4666 
L 3047 1625 
L 3713 1625 
L 3713 1100 
L 3047 1100 
L 3047 0 
L 2419 0 
L 2419 1100 
L 313 1100 
L 313 1709 
L 2253 4666 
z
" transform="scale(0.015625)"/>
       </defs>
       <use xlink:href="#DejaVuSans-34"/>
       <use xlink:href="#DejaVuSans-30" transform="translate(63.623047 0)"/>
      </g>
     </g>
    </g>
    <g id="xtick_4">
     <g id="line2d_4">
      <g>
       <use xlink:href="#mc4d483d553" x="434.88903" y="385.478125" style="stroke: #000000; stroke-width: 0.8"/>
      </g>
     </g>
     <g id="text_4">
      <!-- 60 -->
      <g transform="translate(428.52653 400.076562) scale(0.1 -0.1)">
       <defs>
        <path id="DejaVuSans-36" d="M 2113 2584 
Q 1688 2584 1439 2293 
Q 1191 2003 1191 1497 
Q 1191 994 1439 701 
Q 1688 409 2113 409 
Q 2538 409 2786 701 
Q 3034 994 3034 1497 
Q 3034 2003 2786 2293 
Q 2538 2584 2113 2584 
z
M 3366 4563 
L 3366 3988 
Q 3128 4100 2886 4159 
Q 2644 4219 2406 4219 
Q 1781 4219 1451 3797 
Q 1122 3375 1075 2522 
Q 1259 2794 1537 2939 
Q 1816 3084 2150 3084 
Q 2853 3084 3261 2657 
Q 3669 2231 3669 1497 
Q 3669 778 3244 343 
Q 2819 -91 2113 -91 
Q 1303 -91 875 529 
Q 447 1150 447 2328 
Q 447 3434 972 4092 
Q 1497 4750 2381 4750 
Q 2619 4750 2861 4703 
Q 3103 4656 3366 4563 
z
" transform="scale(0.015625)"/>
       </defs>
       <use xlink:href="#DejaVuSans-36"/>
       <use xlink:href="#DejaVuSans-30" transform="translate(63.623047 0)"/>
      </g>
     </g>
    </g>
    <g id="xtick_5">
     <g id="line2d_5">
      <g>
       <use xlink:href="#mc4d483d553" x="555.215935" y="385.478125" style="stroke: #000000; stroke-width: 0.8"/>
      </g>
     </g>
     <g id="text_5">
      <!-- 80 -->
      <g transform="translate(548.853435 400.076562) scale(0.1 -0.1)">
       <defs>
        <path id="DejaVuSans-38" d="M 2034 2216 
Q 1584 2216 1326 1975 
Q 1069 1734 1069 1313 
Q 1069 891 1326 650 
Q 1584 409 2034 409 
Q 2484 409 2743 651 
Q 3003 894 3003 1313 
Q 3003 1734 2745 1975 
Q 2488 2216 2034 2216 
z
M 1403 2484 
Q 997 2584 770 2862 
Q 544 3141 544 3541 
Q 544 4100 942 4425 
Q 1341 4750 2034 4750 
Q 2731 4750 3128 4425 
Q 3525 4100 3525 3541 
Q 3525 3141 3298 2862 
Q 3072 2584 2669 2484 
Q 3125 2378 3379 2068 
Q 3634 1759 3634 1313 
Q 3634 634 3220 271 
Q 2806 -91 2034 -91 
Q 1263 -91 848 271 
Q 434 634 434 1313 
Q 434 1759 690 2068 
Q 947 2378 1403 2484 
z
M 1172 3481 
Q 1172 3119 1398 2916 
Q 1625 2713 2034 2713 
Q 2441 2713 2670 2916 
Q 2900 3119 2900 3481 
Q 2900 3844 2670 4047 
Q 2441 4250 2034 4250 
Q 1625 4250 1398 4047 
Q 1172 3844 1172 3481 
z
" transform="scale(0.015625)"/>
       </defs>
       <use xlink:href="#DejaVuSans-38"/>
       <use xlink:href="#DejaVuSans-30" transform="translate(63.623047 0)"/>
      </g>
     </g>
    </g>
    <g id="xtick_6">
     <g id="line2d_6">
      <g>
       <use xlink:href="#mc4d483d553" x="675.542841" y="385.478125" style="stroke: #000000; stroke-width: 0.8"/>
      </g>
     </g>
     <g id="text_6">
      <!-- 100 -->
      <g transform="translate(665.999091 400.076562) scale(0.1 -0.1)">
       <defs>
        <path id="DejaVuSans-31" d="M 794 531 
L 1825 531 
L 1825 4091 
L 703 3866 
L 703 4441 
L 1819 4666 
L 2450 4666 
L 2450 531 
L 3481 531 
L 3481 0 
L 794 0 
L 794 531 
z
" transform="scale(0.015625)"/>
       </defs>
       <use xlink:href="#DejaVuSans-31"/>
       <use xlink:href="#DejaVuSans-30" transform="translate(63.623047 0)"/>
       <use xlink:href="#DejaVuSans-30" transform="translate(127.246094 0)"/>
      </g>
     </g>
    </g>
    <g id="text_7">
     <!-- Epoch -->
     <g transform="translate(362.422813 413.754687) scale(0.1 -0.1)">
      <defs>
       <path id="DejaVuSans-45" d="M 628 4666 
L 3578 4666 
L 3578 4134 
L 1259 4134 
L 1259 2753 
L 3481 2753 
L 3481 2222 
L 1259 2222 
L 1259 531 
L 3634 531 
L 3634 0 
L 628 0 
L 628 4666 
z
" transform="scale(0.015625)"/>
       <path id="DejaVuSans-70" d="M 1159 525 
L 1159 -1331 
L 581 -1331 
L 581 3500 
L 1159 3500 
L 1159 2969 
Q 1341 3281 1617 3432 
Q 1894 3584 2278 3584 
Q 2916 3584 3314 3078 
Q 3713 2572 3713 1747 
Q 3713 922 3314 415 
Q 2916 -91 2278 -91 
Q 1894 -91 1617 61 
Q 1341 213 1159 525 
z
M 3116 1747 
Q 3116 2381 2855 2742 
Q 2594 3103 2138 3103 
Q 1681 3103 1420 2742 
Q 1159 2381 1159 1747 
Q 1159 1113 1420 752 
Q 1681 391 2138 391 
Q 2594 391 2855 752 
Q 3116 1113 3116 1747 
z
" transform="scale(0.015625)"/>
       <path id="DejaVuSans-6f" d="M 1959 3097 
Q 1497 3097 1228 2736 
Q 959 2375 959 1747 
Q 959 1119 1226 758 
Q 1494 397 1959 397 
Q 2419 397 2687 759 
Q 2956 1122 2956 1747 
Q 2956 2369 2687 2733 
Q 2419 3097 1959 3097 
z
M 1959 3584 
Q 2709 3584 3137 3096 
Q 3566 2609 3566 1747 
Q 3566 888 3137 398 
Q 2709 -91 1959 -91 
Q 1206 -91 779 398 
Q 353 888 353 1747 
Q 353 2609 779 3096 
Q 1206 3584 1959 3584 
z
" transform="scale(0.015625)"/>
       <path id="DejaVuSans-63" d="M 3122 3366 
L 3122 2828 
Q 2878 2963 2633 3030 
Q 2388 3097 2138 3097 
Q 1578 3097 1268 2742 
Q 959 2388 959 1747 
Q 959 1106 1268 751 
Q 1578 397 2138 397 
Q 2388 397 2633 464 
Q 2878 531 3122 666 
L 3122 134 
Q 2881 22 2623 -34 
Q 2366 -91 2075 -91 
Q 1284 -91 818 406 
Q 353 903 353 1747 
Q 353 2603 823 3093 
Q 1294 3584 2113 3584 
Q 2378 3584 2631 3529 
Q 2884 3475 3122 3366 
z
" transform="scale(0.015625)"/>
       <path id="DejaVuSans-68" d="M 3513 2113 
L 3513 0 
L 2938 0 
L 2938 2094 
Q 2938 2591 2744 2837 
Q 2550 3084 2163 3084 
Q 1697 3084 1428 2787 
Q 1159 2491 1159 1978 
L 1159 0 
L 581 0 
L 581 4863 
L 1159 4863 
L 1159 2956 
Q 1366 3272 1645 3428 
Q 1925 3584 2291 3584 
Q 2894 3584 3203 3211 
Q 3513 2838 3513 2113 
z
" transform="scale(0.015625)"/>
      </defs>
      <use xlink:href="#DejaVuSans-45"/>
      <use xlink:href="#DejaVuSans-70" transform="translate(63.183594 0)"/>
      <use xlink:href="#DejaVuSans-6f" transform="translate(126.660156 0)"/>
      <use xlink:href="#DejaVuSans-63" transform="translate(187.841797 0)"/>
      <use xlink:href="#DejaVuSans-68" transform="translate(242.822266 0)"/>
     </g>
    </g>
   </g>
   <g id="matplotlib.axis_2">
    <g id="ytick_1">
     <g id="line2d_7">
      <defs>
       <path id="mb2ea1a76dc" d="M 0 0 
L -3.5 0 
" style="stroke: #000000; stroke-width: 0.8"/>
      </defs>
      <g>
       <use xlink:href="#mb2ea1a76dc" x="50.14375" y="337.740544" style="stroke: #000000; stroke-width: 0.8"/>
      </g>
     </g>
     <g id="text_8">
      <!-- 0.50 -->
      <g transform="translate(20.878125 341.539763) scale(0.1 -0.1)">
       <defs>
        <path id="DejaVuSans-2e" d="M 684 794 
L 1344 794 
L 1344 0 
L 684 0 
L 684 794 
z
" transform="scale(0.015625)"/>
        <path id="DejaVuSans-35" d="M 691 4666 
L 3169 4666 
L 3169 4134 
L 1269 4134 
L 1269 2991 
Q 1406 3038 1543 3061 
Q 1681 3084 1819 3084 
Q 2600 3084 3056 2656 
Q 3513 2228 3513 1497 
Q 3513 744 3044 326 
Q 2575 -91 1722 -91 
Q 1428 -91 1123 -41 
Q 819 9 494 109 
L 494 744 
Q 775 591 1075 516 
Q 1375 441 1709 441 
Q 2250 441 2565 725 
Q 2881 1009 2881 1497 
Q 2881 1984 2565 2268 
Q 2250 2553 1709 2553 
Q 1456 2553 1204 2497 
Q 953 2441 691 2322 
L 691 4666 
z
" transform="scale(0.015625)"/>
       </defs>
       <use xlink:href="#DejaVuSans-30"/>
       <use xlink:href="#DejaVuSans-2e" transform="translate(63.623047 0)"/>
       <use xlink:href="#DejaVuSans-35" transform="translate(95.410156 0)"/>
       <use xlink:href="#DejaVuSans-30" transform="translate(159.033203 0)"/>
      </g>
     </g>
    </g>
    <g id="ytick_2">
     <g id="line2d_8">
      <g>
       <use xlink:href="#mb2ea1a76dc" x="50.14375" y="289.287316" style="stroke: #000000; stroke-width: 0.8"/>
      </g>
     </g>
     <g id="text_9">
      <!-- 0.75 -->
      <g transform="translate(20.878125 293.086534) scale(0.1 -0.1)">
       <defs>
        <path id="DejaVuSans-37" d="M 525 4666 
L 3525 4666 
L 3525 4397 
L 1831 0 
L 1172 0 
L 2766 4134 
L 525 4134 
L 525 4666 
z
" transform="scale(0.015625)"/>
       </defs>
       <use xlink:href="#DejaVuSans-30"/>
       <use xlink:href="#DejaVuSans-2e" transform="translate(63.623047 0)"/>
       <use xlink:href="#DejaVuSans-37" transform="translate(95.410156 0)"/>
       <use xlink:href="#DejaVuSans-35" transform="translate(159.033203 0)"/>
      </g>
     </g>
    </g>
    <g id="ytick_3">
     <g id="line2d_9">
      <g>
       <use xlink:href="#mb2ea1a76dc" x="50.14375" y="240.834087" style="stroke: #000000; stroke-width: 0.8"/>
      </g>
     </g>
     <g id="text_10">
      <!-- 1.00 -->
      <g transform="translate(20.878125 244.633306) scale(0.1 -0.1)">
       <use xlink:href="#DejaVuSans-31"/>
       <use xlink:href="#DejaVuSans-2e" transform="translate(63.623047 0)"/>
       <use xlink:href="#DejaVuSans-30" transform="translate(95.410156 0)"/>
       <use xlink:href="#DejaVuSans-30" transform="translate(159.033203 0)"/>
      </g>
     </g>
    </g>
    <g id="ytick_4">
     <g id="line2d_10">
      <g>
       <use xlink:href="#mb2ea1a76dc" x="50.14375" y="192.380858" style="stroke: #000000; stroke-width: 0.8"/>
      </g>
     </g>
     <g id="text_11">
      <!-- 1.25 -->
      <g transform="translate(20.878125 196.180077) scale(0.1 -0.1)">
       <use xlink:href="#DejaVuSans-31"/>
       <use xlink:href="#DejaVuSans-2e" transform="translate(63.623047 0)"/>
       <use xlink:href="#DejaVuSans-32" transform="translate(95.410156 0)"/>
       <use xlink:href="#DejaVuSans-35" transform="translate(159.033203 0)"/>
      </g>
     </g>
    </g>
    <g id="ytick_5">
     <g id="line2d_11">
      <g>
       <use xlink:href="#mb2ea1a76dc" x="50.14375" y="143.92763" style="stroke: #000000; stroke-width: 0.8"/>
      </g>
     </g>
     <g id="text_12">
      <!-- 1.50 -->
      <g transform="translate(20.878125 147.726848) scale(0.1 -0.1)">
       <use xlink:href="#DejaVuSans-31"/>
       <use xlink:href="#DejaVuSans-2e" transform="translate(63.623047 0)"/>
       <use xlink:href="#DejaVuSans-35" transform="translate(95.410156 0)"/>
       <use xlink:href="#DejaVuSans-30" transform="translate(159.033203 0)"/>
      </g>
     </g>
    </g>
    <g id="ytick_6">
     <g id="line2d_12">
      <g>
       <use xlink:href="#mb2ea1a76dc" x="50.14375" y="95.474401" style="stroke: #000000; stroke-width: 0.8"/>
      </g>
     </g>
     <g id="text_13">
      <!-- 1.75 -->
      <g transform="translate(20.878125 99.27362) scale(0.1 -0.1)">
       <use xlink:href="#DejaVuSans-31"/>
       <use xlink:href="#DejaVuSans-2e" transform="translate(63.623047 0)"/>
       <use xlink:href="#DejaVuSans-37" transform="translate(95.410156 0)"/>
       <use xlink:href="#DejaVuSans-35" transform="translate(159.033203 0)"/>
      </g>
     </g>
    </g>
    <g id="ytick_7">
     <g id="line2d_13">
      <g>
       <use xlink:href="#mb2ea1a76dc" x="50.14375" y="47.021172" style="stroke: #000000; stroke-width: 0.8"/>
      </g>
     </g>
     <g id="text_14">
      <!-- 2.00 -->
      <g transform="translate(20.878125 50.820391) scale(0.1 -0.1)">
       <use xlink:href="#DejaVuSans-32"/>
       <use xlink:href="#DejaVuSans-2e" transform="translate(63.623047 0)"/>
       <use xlink:href="#DejaVuSans-30" transform="translate(95.410156 0)"/>
       <use xlink:href="#DejaVuSans-30" transform="translate(159.033203 0)"/>
      </g>
     </g>
    </g>
    <g id="text_15">
     <!-- Train Loss -->
     <g transform="translate(14.798438 228.448125) rotate(-90) scale(0.1 -0.1)">
      <defs>
       <path id="DejaVuSans-54" d="M -19 4666 
L 3928 4666 
L 3928 4134 
L 2272 4134 
L 2272 0 
L 1638 0 
L 1638 4134 
L -19 4134 
L -19 4666 
z
" transform="scale(0.015625)"/>
       <path id="DejaVuSans-72" d="M 2631 2963 
Q 2534 3019 2420 3045 
Q 2306 3072 2169 3072 
Q 1681 3072 1420 2755 
Q 1159 2438 1159 1844 
L 1159 0 
L 581 0 
L 581 3500 
L 1159 3500 
L 1159 2956 
Q 1341 3275 1631 3429 
Q 1922 3584 2338 3584 
Q 2397 3584 2469 3576 
Q 2541 3569 2628 3553 
L 2631 2963 
z
" transform="scale(0.015625)"/>
       <path id="DejaVuSans-61" d="M 2194 1759 
Q 1497 1759 1228 1600 
Q 959 1441 959 1056 
Q 959 750 1161 570 
Q 1363 391 1709 391 
Q 2188 391 2477 730 
Q 2766 1069 2766 1631 
L 2766 1759 
L 2194 1759 
z
M 3341 1997 
L 3341 0 
L 2766 0 
L 2766 531 
Q 2569 213 2275 61 
Q 1981 -91 1556 -91 
Q 1019 -91 701 211 
Q 384 513 384 1019 
Q 384 1609 779 1909 
Q 1175 2209 1959 2209 
L 2766 2209 
L 2766 2266 
Q 2766 2663 2505 2880 
Q 2244 3097 1772 3097 
Q 1472 3097 1187 3025 
Q 903 2953 641 2809 
L 641 3341 
Q 956 3463 1253 3523 
Q 1550 3584 1831 3584 
Q 2591 3584 2966 3190 
Q 3341 2797 3341 1997 
z
" transform="scale(0.015625)"/>
       <path id="DejaVuSans-69" d="M 603 3500 
L 1178 3500 
L 1178 0 
L 603 0 
L 603 3500 
z
M 603 4863 
L 1178 4863 
L 1178 4134 
L 603 4134 
L 603 4863 
z
" transform="scale(0.015625)"/>
       <path id="DejaVuSans-6e" d="M 3513 2113 
L 3513 0 
L 2938 0 
L 2938 2094 
Q 2938 2591 2744 2837 
Q 2550 3084 2163 3084 
Q 1697 3084 1428 2787 
Q 1159 2491 1159 1978 
L 1159 0 
L 581 0 
L 581 3500 
L 1159 3500 
L 1159 2956 
Q 1366 3272 1645 3428 
Q 1925 3584 2291 3584 
Q 2894 3584 3203 3211 
Q 3513 2838 3513 2113 
z
" transform="scale(0.015625)"/>
       <path id="DejaVuSans-20" transform="scale(0.015625)"/>
       <path id="DejaVuSans-4c" d="M 628 4666 
L 1259 4666 
L 1259 531 
L 3531 531 
L 3531 0 
L 628 0 
L 628 4666 
z
" transform="scale(0.015625)"/>
       <path id="DejaVuSans-73" d="M 2834 3397 
L 2834 2853 
Q 2591 2978 2328 3040 
Q 2066 3103 1784 3103 
Q 1356 3103 1142 2972 
Q 928 2841 928 2578 
Q 928 2378 1081 2264 
Q 1234 2150 1697 2047 
L 1894 2003 
Q 2506 1872 2764 1633 
Q 3022 1394 3022 966 
Q 3022 478 2636 193 
Q 2250 -91 1575 -91 
Q 1294 -91 989 -36 
Q 684 19 347 128 
L 347 722 
Q 666 556 975 473 
Q 1284 391 1588 391 
Q 1994 391 2212 530 
Q 2431 669 2431 922 
Q 2431 1156 2273 1281 
Q 2116 1406 1581 1522 
L 1381 1569 
Q 847 1681 609 1914 
Q 372 2147 372 2553 
Q 372 3047 722 3315 
Q 1072 3584 1716 3584 
Q 2034 3584 2315 3537 
Q 2597 3491 2834 3397 
z
" transform="scale(0.015625)"/>
      </defs>
      <use xlink:href="#DejaVuSans-54"/>
      <use xlink:href="#DejaVuSans-72" transform="translate(46.333984 0)"/>
      <use xlink:href="#DejaVuSans-61" transform="translate(87.447266 0)"/>
      <use xlink:href="#DejaVuSans-69" transform="translate(148.726562 0)"/>
      <use xlink:href="#DejaVuSans-6e" transform="translate(176.509766 0)"/>
      <use xlink:href="#DejaVuSans-20" transform="translate(239.888672 0)"/>
      <use xlink:href="#DejaVuSans-4c" transform="translate(271.675781 0)"/>
      <use xlink:href="#DejaVuSans-6f" transform="translate(325.638672 0)"/>
      <use xlink:href="#DejaVuSans-73" transform="translate(386.820312 0)"/>
      <use xlink:href="#DejaVuSans-73" transform="translate(438.919922 0)"/>
     </g>
    </g>
   </g>
   <g id="line2d_14">
    <path d="M 79.924659 200.960379 
L 85.941004 236.73648 
L 91.95735 244.602438 
L 97.973695 248.224687 
L 103.99004 247.900252 
L 110.006385 80.070192 
L 116.022731 160.752356 
L 122.039076 162.727392 
L 128.055421 164.215721 
L 134.071767 164.280971 
L 140.088112 164.716053 
L 146.104457 163.714803 
L 152.120802 163.031868 
L 158.137148 164.286563 
L 164.153493 162.657248 
L 170.169838 163.147593 
L 176.186183 164.278494 
L 182.202529 162.966392 
L 188.218874 164.491138 
L 194.235219 164.332152 
L 200.251565 164.054093 
L 206.26791 163.245794 
L 212.284255 163.68368 
L 218.3006 165.020787 
L 224.316946 163.505005 
L 230.333291 164.600306 
L 236.349636 164.239103 
L 242.365981 162.378279 
L 248.382327 164.261492 
L 254.398672 163.474573 
L 260.415017 164.158885 
L 266.431362 164.411515 
L 272.447708 164.325374 
L 278.464053 163.276329 
L 284.480398 164.698908 
L 290.496744 163.281769 
L 296.513089 164.360987 
L 302.529434 164.595492 
L 308.545779 163.284324 
L 314.562125 162.546153 
L 320.57847 164.187462 
L 326.594815 162.450524 
L 332.61116 163.742119 
L 338.627506 163.434092 
L 344.643851 164.053164 
L 350.660196 164.660586 
L 356.676542 164.244838 
L 362.692887 163.108296 
L 368.709232 164.280925 
L 374.725577 163.495872 
L 380.741923 164.650973 
L 386.758268 162.659758 
L 392.774613 164.085243 
L 398.790958 163.333794 
L 404.807304 164.033844 
L 410.823649 164.437811 
L 416.839994 164.526947 
L 422.85634 164.316137 
L 428.872685 162.419493 
L 434.88903 162.677628 
L 440.905375 163.896243 
L 446.921721 163.791027 
L 452.938066 161.822907 
L 458.954411 163.917389 
L 464.970756 163.501714 
L 470.987102 163.080029 
L 477.003447 164.417423 
L 483.019792 163.75954 
L 489.036138 163.836814 
L 495.052483 163.534652 
L 501.068828 163.351014 
L 507.085173 163.666807 
L 513.101519 163.88251 
L 519.117864 165.083382 
L 525.134209 164.473738 
L 531.150554 164.746519 
L 537.1669 164.782603 
L 543.183245 164.64337 
L 549.19959 162.523103 
L 555.215935 164.065713 
L 561.232281 164.352286 
L 567.248626 164.205826 
L 573.264971 163.428573 
L 579.281317 162.644253 
L 585.297662 162.857758 
L 591.314007 163.938576 
L 597.330352 163.387988 
L 603.346698 162.888854 
L 609.363043 163.440919 
L 615.379388 164.372784 
L 621.395733 163.042852 
L 627.412079 163.726486 
L 633.428424 162.683683 
L 639.444769 163.51348 
L 645.461115 164.72987 
L 651.47746 164.505986 
L 657.493805 164.236089 
L 663.51015 164.292604 
L 669.526496 163.903451 
L 675.542841 163.831173 
" clip-path="url(#pc852712756)" style="fill: none; stroke: #1f77b4; stroke-width: 1.5; stroke-linecap: square"/>
   </g>
   <g id="line2d_15">
    <path d="M 79.924659 170.716776 
L 85.941004 162.027535 
L 91.95735 162.531066 
L 97.973695 161.251982 
L 103.99004 163.518607 
L 110.006385 164.505551 
L 116.022731 165.050865 
L 122.039076 164.590314 
L 128.055421 162.467138 
L 134.071767 164.163892 
L 140.088112 162.981102 
L 146.104457 164.697812 
L 152.120802 162.225562 
L 158.137148 164.531752 
L 164.153493 163.632064 
L 170.169838 164.160513 
L 176.186183 163.785275 
L 182.202529 163.844315 
L 188.218874 164.41466 
L 194.235219 162.873368 
L 200.251565 163.316591 
L 206.26791 164.881351 
L 212.284255 163.079992 
L 218.3006 163.09382 
L 224.316946 163.327051 
L 230.333291 163.563036 
L 236.349636 164.172371 
L 242.365981 163.901109 
L 248.382327 163.390774 
L 254.398672 169.358528 
L 260.415017 159.783768 
L 266.431362 163.403285 
L 272.447708 161.751479 
L 278.464053 164.250231 
L 284.480398 163.832544 
L 290.496744 163.427977 
L 296.513089 164.737822 
L 302.529434 164.329468 
L 308.545779 164.058767 
L 314.562125 164.409905 
L 320.57847 163.469469 
L 326.594815 163.367853 
L 332.61116 164.823088 
L 338.627506 163.568316 
L 344.643851 162.554172 
L 350.660196 164.661329 
L 356.676542 162.772521 
L 362.692887 165.10227 
L 368.709232 163.685369 
L 374.725577 162.851219 
L 380.741923 164.247977 
L 386.758268 162.818368 
L 392.774613 164.447505 
L 398.790958 164.386184 
L 404.807304 162.415887 
L 410.823649 163.822974 
L 416.839994 164.748556 
L 422.85634 162.609821 
L 428.872685 162.857029 
L 434.88903 163.798428 
L 440.905375 163.531858 
L 446.921721 164.085707 
L 452.938066 164.361437 
L 458.954411 162.523735 
L 464.970756 163.293698 
L 470.987102 162.126017 
L 477.003447 162.674161 
L 483.019792 163.101452 
L 489.036138 163.165135 
L 495.052483 162.743509 
L 501.068828 164.358001 
L 507.085173 165.216027 
L 513.101519 163.474416 
L 519.117864 164.113662 
L 525.134209 164.409616 
L 531.150554 162.522558 
L 537.1669 165.149346 
L 543.183245 163.497731 
L 549.19959 162.881444 
L 555.215935 164.62862 
L 561.232281 163.152279 
L 567.248626 163.933922 
L 573.264971 163.808246 
L 579.281317 163.9935 
L 585.297662 161.873917 
L 591.314007 163.652675 
L 597.330352 162.738248 
L 603.346698 164.07451 
L 609.363043 164.621959 
L 615.379388 163.836002 
L 621.395733 164.098579 
L 627.412079 164.226456 
L 633.428424 164.071527 
L 639.444769 163.897723 
L 645.461115 163.477932 
L 651.47746 162.617205 
L 657.493805 163.694114 
L 663.51015 164.419338 
L 669.526496 164.097383 
L 675.542841 164.22618 
" clip-path="url(#pc852712756)" style="fill: none; stroke: #ff7f0e; stroke-width: 1.5; stroke-linecap: square"/>
   </g>
   <g id="line2d_16">
    <path d="M 79.924659 153.095342 
L 85.941004 217.066265 
L 91.95735 253.850423 
L 97.973695 270.987088 
L 103.99004 272.730607 
L 110.006385 269.451098 
L 116.022731 240.03309 
L 122.039076 280.250524 
L 128.055421 289.361605 
L 134.071767 315.81583 
L 140.088112 328.314574 
L 146.104457 339.317911 
L 152.120802 347.061105 
L 158.137148 358.551045 
L 164.153493 360.771988 
L 170.169838 358.13337 
L 176.186183 352.277061 
L 182.202529 362.062741 
L 188.218874 361.297617 
L 194.235219 362.491843 
L 200.251565 359.546925 
L 206.26791 362.616553 
L 212.284255 361.453605 
L 218.3006 357.965569 
L 224.316946 344.900665 
L 230.333291 360.198797 
L 236.349636 363.051084 
L 242.365981 361.812652 
L 248.382327 362.439056 
L 254.398672 363.753589 
L 260.415017 358.643981 
L 266.431362 358.921204 
L 272.447708 363.140251 
L 278.464053 362.585133 
L 284.480398 364.088241 
L 290.496744 360.002673 
L 296.513089 363.863302 
L 302.529434 362.57943 
L 308.545779 363.775888 
L 314.562125 364.428207 
L 320.57847 363.021311 
L 326.594815 364.489338 
L 332.61116 364.944325 
L 338.627506 357.122535 
L 344.643851 360.125429 
L 350.660196 359.477199 
L 356.676542 367.055389 
L 362.692887 365.565151 
L 368.709232 365.344715 
L 374.725577 365.064469 
L 380.741923 362.240338 
L 386.758268 363.896663 
L 392.774613 364.641098 
L 398.790958 365.566101 
L 404.807304 366.317323 
L 410.823649 365.378428 
L 416.839994 365.533198 
L 422.85634 364.039938 
L 428.872685 363.345246 
L 434.88903 362.965435 
L 440.905375 364.873327 
L 446.921721 361.926765 
L 452.938066 365.965092 
L 458.954411 366.933025 
L 464.970756 367.570107 
L 470.987102 367.984614 
L 477.003447 366.942717 
L 483.019792 366.417939 
L 489.036138 365.083144 
L 495.052483 366.82582 
L 501.068828 363.836713 
L 507.085173 366.817134 
L 513.101519 368.970852 
L 519.117864 367.752504 
L 525.134209 365.941889 
L 531.150554 366.845544 
L 537.1669 365.101662 
L 543.183245 368.371157 
L 549.19959 368.149406 
L 555.215935 365.77624 
L 561.232281 366.733092 
L 567.248626 366.754859 
L 573.264971 365.463962 
L 579.281317 365.804434 
L 585.297662 315.32923 
L 591.314007 38.825398 
L 597.330352 225.848059 
L 603.346698 240.637261 
L 609.363043 274.288401 
L 615.379388 272.022603 
L 621.395733 282.762631 
L 627.412079 277.13784 
L 633.428424 284.045877 
L 639.444769 280.537964 
L 645.461115 287.720739 
L 651.47746 273.080713 
L 657.493805 268.498894 
L 663.51015 258.370808 
L 669.526496 264.40044 
L 675.542841 262.996623 
" clip-path="url(#pc852712756)" style="fill: none; stroke: #2ca02c; stroke-width: 1.5; stroke-linecap: square"/>
   </g>
   <g id="line2d_17">
    <path d="M 79.924659 205.433534 
L 85.941004 197.380219 
L 91.95735 215.515307 
L 97.973695 230.281631 
L 103.99004 244.78897 
L 110.006385 245.021799 
L 116.022731 240.82884 
L 122.039076 252.503174 
L 128.055421 255.536876 
L 134.071767 254.916849 
L 140.088112 250.843272 
L 146.104457 249.744282 
L 152.120802 249.266931 
L 158.137148 253.098181 
L 164.153493 248.43642 
L 170.169838 249.149653 
L 176.186183 242.943746 
L 182.202529 245.209649 
L 188.218874 249.783896 
L 194.235219 250.72975 
L 200.251565 257.582 
L 206.26791 260.157002 
L 212.284255 255.935309 
L 218.3006 253.394805 
L 224.316946 247.224782 
L 230.333291 244.751375 
L 236.349636 250.523755 
L 242.365981 256.655846 
L 248.382327 242.840653 
L 254.398672 253.811261 
L 260.415017 243.157227 
L 266.431362 196.113823 
L 272.447708 236.292038 
L 278.464053 234.744894 
L 284.480398 274.856425 
L 290.496744 277.539278 
L 296.513089 279.019433 
L 302.529434 266.377999 
L 308.545779 248.594631 
L 314.562125 275.498843 
L 320.57847 281.238548 
L 326.594815 279.148982 
L 332.61116 278.716229 
L 338.627506 280.24403 
L 344.643851 284.98494 
L 350.660196 298.751985 
L 356.676542 292.837672 
L 362.692887 292.469125 
L 368.709232 292.249703 
L 374.725577 291.753301 
L 380.741923 296.349262 
L 386.758268 292.00798 
L 392.774613 297.330917 
L 398.790958 294.719256 
L 404.807304 296.776937 
L 410.823649 294.659133 
L 416.839994 297.086616 
L 422.85634 291.6167 
L 428.872685 296.453232 
L 434.88903 292.928705 
L 440.905375 294.708367 
L 446.921721 298.195477 
L 452.938066 296.421885 
L 458.954411 296.564086 
L 464.970756 300.167306 
L 470.987102 302.719279 
L 477.003447 303.708136 
L 483.019792 299.934314 
L 489.036138 296.945657 
L 495.052483 303.110539 
L 501.068828 311.457509 
L 507.085173 309.582046 
L 513.101519 308.240714 
L 519.117864 299.080107 
L 525.134209 302.141057 
L 531.150554 302.166667 
L 537.1669 310.043726 
L 543.183245 304.676202 
L 549.19959 301.756895 
L 555.215935 299.610938 
L 561.232281 303.110421 
L 567.248626 307.96201 
L 573.264971 301.694023 
L 579.281317 300.990247 
L 585.297662 306.425042 
L 591.314007 309.343866 
L 597.330352 315.472956 
L 603.346698 306.436846 
L 609.363043 311.943768 
L 615.379388 307.446165 
L 621.395733 309.667785 
L 627.412079 308.393995 
L 633.428424 301.823502 
L 639.444769 309.479164 
L 645.461115 305.798133 
L 651.47746 304.45642 
L 657.493805 314.035101 
L 663.51015 303.484142 
L 669.526496 303.511 
L 675.542841 299.179621 
" clip-path="url(#pc852712756)" style="fill: none; stroke: #d62728; stroke-width: 1.5; stroke-linecap: square"/>
   </g>
   <g id="line2d_18">
    <path d="M 79.924659 237.237123 
L 85.941004 259.083947 
L 91.95735 291.297085 
L 97.973695 316.522579 
L 103.99004 326.669934 
L 110.006385 333.261644 
L 116.022731 340.55144 
L 122.039076 272.037374 
L 128.055421 287.224405 
L 134.071767 287.754462 
L 140.088112 285.912707 
L 146.104457 282.960981 
L 152.120802 278.962268 
L 158.137148 286.802979 
L 164.153493 284.758567 
L 170.169838 287.329385 
L 176.186183 289.863898 
L 182.202529 281.864387 
L 188.218874 290.991223 
L 194.235219 294.769007 
L 200.251565 288.323999 
L 206.26791 291.460863 
L 212.284255 285.809683 
L 218.3006 288.510257 
L 224.316946 290.513811 
L 230.333291 280.474443 
L 236.349636 290.173255 
L 242.365981 290.663398 
L 248.382327 288.828575 
L 254.398672 286.614735 
L 260.415017 291.096291 
L 266.431362 289.659917 
L 272.447708 285.826641 
L 278.464053 295.586701 
L 284.480398 293.122136 
L 290.496744 285.661114 
L 296.513089 287.239189 
L 302.529434 288.765994 
L 308.545779 289.353076 
L 314.562125 287.374818 
L 320.57847 292.308398 
L 326.594815 291.663494 
L 332.61116 293.433015 
L 338.627506 288.161846 
L 344.643851 295.22253 
L 350.660196 290.535231 
L 356.676542 294.691709 
L 362.692887 294.451397 
L 368.709232 285.695611 
L 374.725577 285.928926 
L 380.741923 283.748391 
L 386.758268 284.239102 
L 392.774613 291.308588 
L 398.790958 293.330239 
L 404.807304 288.069507 
L 410.823649 288.183515 
L 416.839994 290.487312 
L 422.85634 291.643318 
L 428.872685 289.659158 
L 434.88903 289.833357 
L 440.905375 288.364065 
L 446.921721 290.583241 
L 452.938066 293.029035 
L 458.954411 287.913549 
L 464.970756 300.28105 
L 470.987102 333.294797 
L 477.003447 225.630465 
L 483.019792 286.198858 
L 489.036138 290.358691 
L 495.052483 289.585932 
L 501.068828 291.274027 
L 507.085173 290.058073 
L 513.101519 290.417938 
L 519.117864 291.931173 
L 525.134209 294.718956 
L 531.150554 289.637932 
L 537.1669 292.24094 
L 543.183245 291.731016 
L 549.19959 294.982366 
L 555.215935 287.177585 
L 561.232281 289.873144 
L 567.248626 294.346548 
L 573.264971 292.258814 
L 579.281317 290.481672 
L 585.297662 290.631781 
L 591.314007 289.813795 
L 597.330352 291.875105 
L 603.346698 293.584802 
L 609.363043 289.649259 
L 615.379388 290.821716 
L 621.395733 291.00205 
L 627.412079 294.005857 
L 633.428424 291.405145 
L 639.444769 287.924763 
L 645.461115 288.980814 
L 651.47746 290.448575 
L 657.493805 286.534081 
L 663.51015 288.670168 
L 669.526496 288.549358 
L 675.542841 288.767569 
" clip-path="url(#pc852712756)" style="fill: none; stroke: #9467bd; stroke-width: 1.5; stroke-linecap: square"/>
   </g>
   <g id="patch_3">
    <path d="M 50.14375 385.478125 
L 50.14375 22.318125 
" style="fill: none; stroke: #000000; stroke-width: 0.8; stroke-linejoin: miter; stroke-linecap: square"/>
   </g>
   <g id="patch_4">
    <path d="M 705.32375 385.478125 
L 705.32375 22.318125 
" style="fill: none; stroke: #000000; stroke-width: 0.8; stroke-linejoin: miter; stroke-linecap: square"/>
   </g>
   <g id="patch_5">
    <path d="M 50.14375 385.478125 
L 705.32375 385.478125 
" style="fill: none; stroke: #000000; stroke-width: 0.8; stroke-linejoin: miter; stroke-linecap: square"/>
   </g>
   <g id="patch_6">
    <path d="M 50.14375 22.318125 
L 705.32375 22.318125 
" style="fill: none; stroke: #000000; stroke-width: 0.8; stroke-linejoin: miter; stroke-linecap: square"/>
   </g>
   <g id="text_16">
    <!-- Combined Train Loss -->
    <g transform="translate(315.882188 16.318125) scale(0.12 -0.12)">
     <defs>
      <path id="DejaVuSans-43" d="M 4122 4306 
L 4122 3641 
Q 3803 3938 3442 4084 
Q 3081 4231 2675 4231 
Q 1875 4231 1450 3742 
Q 1025 3253 1025 2328 
Q 1025 1406 1450 917 
Q 1875 428 2675 428 
Q 3081 428 3442 575 
Q 3803 722 4122 1019 
L 4122 359 
Q 3791 134 3420 21 
Q 3050 -91 2638 -91 
Q 1578 -91 968 557 
Q 359 1206 359 2328 
Q 359 3453 968 4101 
Q 1578 4750 2638 4750 
Q 3056 4750 3426 4639 
Q 3797 4528 4122 4306 
z
" transform="scale(0.015625)"/>
      <path id="DejaVuSans-6d" d="M 3328 2828 
Q 3544 3216 3844 3400 
Q 4144 3584 4550 3584 
Q 5097 3584 5394 3201 
Q 5691 2819 5691 2113 
L 5691 0 
L 5113 0 
L 5113 2094 
Q 5113 2597 4934 2840 
Q 4756 3084 4391 3084 
Q 3944 3084 3684 2787 
Q 3425 2491 3425 1978 
L 3425 0 
L 2847 0 
L 2847 2094 
Q 2847 2600 2669 2842 
Q 2491 3084 2119 3084 
Q 1678 3084 1418 2786 
Q 1159 2488 1159 1978 
L 1159 0 
L 581 0 
L 581 3500 
L 1159 3500 
L 1159 2956 
Q 1356 3278 1631 3431 
Q 1906 3584 2284 3584 
Q 2666 3584 2933 3390 
Q 3200 3197 3328 2828 
z
" transform="scale(0.015625)"/>
      <path id="DejaVuSans-62" d="M 3116 1747 
Q 3116 2381 2855 2742 
Q 2594 3103 2138 3103 
Q 1681 3103 1420 2742 
Q 1159 2381 1159 1747 
Q 1159 1113 1420 752 
Q 1681 391 2138 391 
Q 2594 391 2855 752 
Q 3116 1113 3116 1747 
z
M 1159 2969 
Q 1341 3281 1617 3432 
Q 1894 3584 2278 3584 
Q 2916 3584 3314 3078 
Q 3713 2572 3713 1747 
Q 3713 922 3314 415 
Q 2916 -91 2278 -91 
Q 1894 -91 1617 61 
Q 1341 213 1159 525 
L 1159 0 
L 581 0 
L 581 4863 
L 1159 4863 
L 1159 2969 
z
" transform="scale(0.015625)"/>
      <path id="DejaVuSans-65" d="M 3597 1894 
L 3597 1613 
L 953 1613 
Q 991 1019 1311 708 
Q 1631 397 2203 397 
Q 2534 397 2845 478 
Q 3156 559 3463 722 
L 3463 178 
Q 3153 47 2828 -22 
Q 2503 -91 2169 -91 
Q 1331 -91 842 396 
Q 353 884 353 1716 
Q 353 2575 817 3079 
Q 1281 3584 2069 3584 
Q 2775 3584 3186 3129 
Q 3597 2675 3597 1894 
z
M 3022 2063 
Q 3016 2534 2758 2815 
Q 2500 3097 2075 3097 
Q 1594 3097 1305 2825 
Q 1016 2553 972 2059 
L 3022 2063 
z
" transform="scale(0.015625)"/>
      <path id="DejaVuSans-64" d="M 2906 2969 
L 2906 4863 
L 3481 4863 
L 3481 0 
L 2906 0 
L 2906 525 
Q 2725 213 2448 61 
Q 2172 -91 1784 -91 
Q 1150 -91 751 415 
Q 353 922 353 1747 
Q 353 2572 751 3078 
Q 1150 3584 1784 3584 
Q 2172 3584 2448 3432 
Q 2725 3281 2906 2969 
z
M 947 1747 
Q 947 1113 1208 752 
Q 1469 391 1925 391 
Q 2381 391 2643 752 
Q 2906 1113 2906 1747 
Q 2906 2381 2643 2742 
Q 2381 3103 1925 3103 
Q 1469 3103 1208 2742 
Q 947 2381 947 1747 
z
" transform="scale(0.015625)"/>
     </defs>
     <use xlink:href="#DejaVuSans-43"/>
     <use xlink:href="#DejaVuSans-6f" transform="translate(69.824219 0)"/>
     <use xlink:href="#DejaVuSans-6d" transform="translate(131.005859 0)"/>
     <use xlink:href="#DejaVuSans-62" transform="translate(228.417969 0)"/>
     <use xlink:href="#DejaVuSans-69" transform="translate(291.894531 0)"/>
     <use xlink:href="#DejaVuSans-6e" transform="translate(319.677734 0)"/>
     <use xlink:href="#DejaVuSans-65" transform="translate(383.056641 0)"/>
     <use xlink:href="#DejaVuSans-64" transform="translate(444.580078 0)"/>
     <use xlink:href="#DejaVuSans-20" transform="translate(508.056641 0)"/>
     <use xlink:href="#DejaVuSans-54" transform="translate(539.84375 0)"/>
     <use xlink:href="#DejaVuSans-72" transform="translate(586.177734 0)"/>
     <use xlink:href="#DejaVuSans-61" transform="translate(627.291016 0)"/>
     <use xlink:href="#DejaVuSans-69" transform="translate(688.570312 0)"/>
     <use xlink:href="#DejaVuSans-6e" transform="translate(716.353516 0)"/>
     <use xlink:href="#DejaVuSans-20" transform="translate(779.732422 0)"/>
     <use xlink:href="#DejaVuSans-4c" transform="translate(811.519531 0)"/>
     <use xlink:href="#DejaVuSans-6f" transform="translate(865.482422 0)"/>
     <use xlink:href="#DejaVuSans-73" transform="translate(926.664062 0)"/>
     <use xlink:href="#DejaVuSans-73" transform="translate(978.763672 0)"/>
    </g>
   </g>
   <g id="legend_1">
    <g id="patch_7">
     <path d="M 636.14875 103.70875 
L 698.32375 103.70875 
Q 700.32375 103.70875 700.32375 101.70875 
L 700.32375 29.318125 
Q 700.32375 27.318125 698.32375 27.318125 
L 636.14875 27.318125 
Q 634.14875 27.318125 634.14875 29.318125 
L 634.14875 101.70875 
Q 634.14875 103.70875 636.14875 103.70875 
z
" style="fill: #ffffff; opacity: 0.8; stroke: #cccccc; stroke-linejoin: miter"/>
    </g>
    <g id="line2d_19">
     <path d="M 638.14875 35.416562 
L 648.14875 35.416562 
L 658.14875 35.416562 
" style="fill: none; stroke: #1f77b4; stroke-width: 1.5; stroke-linecap: square"/>
    </g>
    <g id="text_17">
     <!-- Fold 1 -->
     <g transform="translate(666.14875 38.916562) scale(0.1 -0.1)">
      <defs>
       <path id="DejaVuSans-46" d="M 628 4666 
L 3309 4666 
L 3309 4134 
L 1259 4134 
L 1259 2759 
L 3109 2759 
L 3109 2228 
L 1259 2228 
L 1259 0 
L 628 0 
L 628 4666 
z
" transform="scale(0.015625)"/>
       <path id="DejaVuSans-6c" d="M 603 4863 
L 1178 4863 
L 1178 0 
L 603 0 
L 603 4863 
z
" transform="scale(0.015625)"/>
      </defs>
      <use xlink:href="#DejaVuSans-46"/>
      <use xlink:href="#DejaVuSans-6f" transform="translate(53.894531 0)"/>
      <use xlink:href="#DejaVuSans-6c" transform="translate(115.076172 0)"/>
      <use xlink:href="#DejaVuSans-64" transform="translate(142.859375 0)"/>
      <use xlink:href="#DejaVuSans-20" transform="translate(206.335938 0)"/>
      <use xlink:href="#DejaVuSans-31" transform="translate(238.123047 0)"/>
     </g>
    </g>
    <g id="line2d_20">
     <path d="M 638.14875 50.094688 
L 648.14875 50.094688 
L 658.14875 50.094688 
" style="fill: none; stroke: #ff7f0e; stroke-width: 1.5; stroke-linecap: square"/>
    </g>
    <g id="text_18">
     <!-- Fold 2 -->
     <g transform="translate(666.14875 53.594688) scale(0.1 -0.1)">
      <use xlink:href="#DejaVuSans-46"/>
      <use xlink:href="#DejaVuSans-6f" transform="translate(53.894531 0)"/>
      <use xlink:href="#DejaVuSans-6c" transform="translate(115.076172 0)"/>
      <use xlink:href="#DejaVuSans-64" transform="translate(142.859375 0)"/>
      <use xlink:href="#DejaVuSans-20" transform="translate(206.335938 0)"/>
      <use xlink:href="#DejaVuSans-32" transform="translate(238.123047 0)"/>
     </g>
    </g>
    <g id="line2d_21">
     <path d="M 638.14875 64.772812 
L 648.14875 64.772812 
L 658.14875 64.772812 
" style="fill: none; stroke: #2ca02c; stroke-width: 1.5; stroke-linecap: square"/>
    </g>
    <g id="text_19">
     <!-- Fold 3 -->
     <g transform="translate(666.14875 68.272812) scale(0.1 -0.1)">
      <defs>
       <path id="DejaVuSans-33" d="M 2597 2516 
Q 3050 2419 3304 2112 
Q 3559 1806 3559 1356 
Q 3559 666 3084 287 
Q 2609 -91 1734 -91 
Q 1441 -91 1130 -33 
Q 819 25 488 141 
L 488 750 
Q 750 597 1062 519 
Q 1375 441 1716 441 
Q 2309 441 2620 675 
Q 2931 909 2931 1356 
Q 2931 1769 2642 2001 
Q 2353 2234 1838 2234 
L 1294 2234 
L 1294 2753 
L 1863 2753 
Q 2328 2753 2575 2939 
Q 2822 3125 2822 3475 
Q 2822 3834 2567 4026 
Q 2313 4219 1838 4219 
Q 1578 4219 1281 4162 
Q 984 4106 628 3988 
L 628 4550 
Q 988 4650 1302 4700 
Q 1616 4750 1894 4750 
Q 2613 4750 3031 4423 
Q 3450 4097 3450 3541 
Q 3450 3153 3228 2886 
Q 3006 2619 2597 2516 
z
" transform="scale(0.015625)"/>
      </defs>
      <use xlink:href="#DejaVuSans-46"/>
      <use xlink:href="#DejaVuSans-6f" transform="translate(53.894531 0)"/>
      <use xlink:href="#DejaVuSans-6c" transform="translate(115.076172 0)"/>
      <use xlink:href="#DejaVuSans-64" transform="translate(142.859375 0)"/>
      <use xlink:href="#DejaVuSans-20" transform="translate(206.335938 0)"/>
      <use xlink:href="#DejaVuSans-33" transform="translate(238.123047 0)"/>
     </g>
    </g>
    <g id="line2d_22">
     <path d="M 638.14875 79.450938 
L 648.14875 79.450938 
L 658.14875 79.450938 
" style="fill: none; stroke: #d62728; stroke-width: 1.5; stroke-linecap: square"/>
    </g>
    <g id="text_20">
     <!-- Fold 4 -->
     <g transform="translate(666.14875 82.950938) scale(0.1 -0.1)">
      <use xlink:href="#DejaVuSans-46"/>
      <use xlink:href="#DejaVuSans-6f" transform="translate(53.894531 0)"/>
      <use xlink:href="#DejaVuSans-6c" transform="translate(115.076172 0)"/>
      <use xlink:href="#DejaVuSans-64" transform="translate(142.859375 0)"/>
      <use xlink:href="#DejaVuSans-20" transform="translate(206.335938 0)"/>
      <use xlink:href="#DejaVuSans-34" transform="translate(238.123047 0)"/>
     </g>
    </g>
    <g id="line2d_23">
     <path d="M 638.14875 94.129063 
L 648.14875 94.129063 
L 658.14875 94.129063 
" style="fill: none; stroke: #9467bd; stroke-width: 1.5; stroke-linecap: square"/>
    </g>
    <g id="text_21">
     <!-- Fold 5 -->
     <g transform="translate(666.14875 97.629063) scale(0.1 -0.1)">
      <use xlink:href="#DejaVuSans-46"/>
      <use xlink:href="#DejaVuSans-6f" transform="translate(53.894531 0)"/>
      <use xlink:href="#DejaVuSans-6c" transform="translate(115.076172 0)"/>
      <use xlink:href="#DejaVuSans-64" transform="translate(142.859375 0)"/>
      <use xlink:href="#DejaVuSans-20" transform="translate(206.335938 0)"/>
      <use xlink:href="#DejaVuSans-35" transform="translate(238.123047 0)"/>
     </g>
    </g>
   </g>
  </g>
 </g>
 <defs>
  <clipPath id="pc852712756">
   <rect x="50.14375" y="22.318125" width="655.18" height="363.16"/>
  </clipPath>
 </defs>
</svg>
