<?xml version="1.0" encoding="utf-8" standalone="no"?>
<!DOCTYPE svg PUBLIC "-//W3C//DTD SVG 1.1//EN"
  "http://www.w3.org/Graphics/SVG/1.1/DTD/svg11.dtd">
<svg xmlns:xlink="http://www.w3.org/1999/xlink" width="712.46125pt" height="423.034375pt" viewBox="0 0 712.46125 423.034375" xmlns="http://www.w3.org/2000/svg" version="1.1">
 <metadata>
  <rdf:RDF xmlns:dc="http://purl.org/dc/elements/1.1/" xmlns:cc="http://creativecommons.org/ns#" xmlns:rdf="http://www.w3.org/1999/02/22-rdf-syntax-ns#">
   <cc:Work>
    <dc:type rdf:resource="http://purl.org/dc/dcmitype/StillImage"/>
    <dc:date>2025-06-26T04:01:08.022337</dc:date>
    <dc:format>image/svg+xml</dc:format>
    <dc:creator>
     <cc:Agent>
      <dc:title>Matplotlib v3.10.0, https://matplotlib.org/</dc:title>
     </cc:Agent>
    </dc:creator>
   </cc:Work>
  </rdf:RDF>
 </metadata>
 <defs>
  <style type="text/css">*{stroke-linejoin: round; stroke-linecap: butt}</style>
 </defs>
 <g id="figure_1">
  <g id="patch_1">
   <path d="M 0 423.034375 
L 712.46125 423.034375 
L 712.46125 0 
L 0 0 
z
" style="fill: #ffffff"/>
  </g>
  <g id="axes_1">
   <g id="patch_2">
    <path d="M 43.78125 385.478125 
L 705.26125 385.478125 
L 705.26125 22.318125 
L 43.78125 22.318125 
z
" style="fill: #ffffff"/>
   </g>
   <g id="matplotlib.axis_1">
    <g id="xtick_1">
     <g id="line2d_1">
      <defs>
       <path id="m2c8d3711c3" d="M 0 0 
L 0 3.5 
" style="stroke: #000000; stroke-width: 0.8"/>
      </defs>
      <g>
       <use xlink:href="#m2c8d3711c3" x="67.774326" y="385.478125" style="stroke: #000000; stroke-width: 0.8"/>
      </g>
     </g>
     <g id="text_1">
      <!-- 0 -->
      <g transform="translate(64.593076 400.076562) scale(0.1 -0.1)">
       <defs>
        <path id="DejaVuSans-30" d="M 2034 4250 
Q 1547 4250 1301 3770 
Q 1056 3291 1056 2328 
Q 1056 1369 1301 889 
Q 1547 409 2034 409 
Q 2525 409 2770 889 
Q 3016 1369 3016 2328 
Q 3016 3291 2770 3770 
Q 2525 4250 2034 4250 
z
M 2034 4750 
Q 2819 4750 3233 4129 
Q 3647 3509 3647 2328 
Q 3647 1150 3233 529 
Q 2819 -91 2034 -91 
Q 1250 -91 836 529 
Q 422 1150 422 2328 
Q 422 3509 836 4129 
Q 1250 4750 2034 4750 
z
" transform="scale(0.015625)"/>
       </defs>
       <use xlink:href="#DejaVuSans-30"/>
      </g>
     </g>
    </g>
    <g id="xtick_2">
     <g id="line2d_2">
      <g>
       <use xlink:href="#m2c8d3711c3" x="189.258256" y="385.478125" style="stroke: #000000; stroke-width: 0.8"/>
      </g>
     </g>
     <g id="text_2">
      <!-- 20 -->
      <g transform="translate(182.895756 400.076562) scale(0.1 -0.1)">
       <defs>
        <path id="DejaVuSans-32" d="M 1228 531 
L 3431 531 
L 3431 0 
L 469 0 
L 469 531 
Q 828 903 1448 1529 
Q 2069 2156 2228 2338 
Q 2531 2678 2651 2914 
Q 2772 3150 2772 3378 
Q 2772 3750 2511 3984 
Q 2250 4219 1831 4219 
Q 1534 4219 1204 4116 
Q 875 4013 500 3803 
L 500 4441 
Q 881 4594 1212 4672 
Q 1544 4750 1819 4750 
Q 2544 4750 2975 4387 
Q 3406 4025 3406 3419 
Q 3406 3131 3298 2873 
Q 3191 2616 2906 2266 
Q 2828 2175 2409 1742 
Q 1991 1309 1228 531 
z
" transform="scale(0.015625)"/>
       </defs>
       <use xlink:href="#DejaVuSans-32"/>
       <use xlink:href="#DejaVuSans-30" transform="translate(63.623047 0)"/>
      </g>
     </g>
    </g>
    <g id="xtick_3">
     <g id="line2d_3">
      <g>
       <use xlink:href="#m2c8d3711c3" x="310.742187" y="385.478125" style="stroke: #000000; stroke-width: 0.8"/>
      </g>
     </g>
     <g id="text_3">
      <!-- 40 -->
      <g transform="translate(304.379687 400.076562) scale(0.1 -0.1)">
       <defs>
        <path id="DejaVuSans-34" d="M 2419 4116 
L 825 1625 
L 2419 1625 
L 2419 4116 
z
M 2253 4666 
L 3047 4666 
L 3047 1625 
L 3713 1625 
L 3713 1100 
L 3047 1100 
L 3047 0 
L 2419 0 
L 2419 1100 
L 313 1100 
L 313 1709 
L 2253 4666 
z
" transform="scale(0.015625)"/>
       </defs>
       <use xlink:href="#DejaVuSans-34"/>
       <use xlink:href="#DejaVuSans-30" transform="translate(63.623047 0)"/>
      </g>
     </g>
    </g>
    <g id="xtick_4">
     <g id="line2d_4">
      <g>
       <use xlink:href="#m2c8d3711c3" x="432.226117" y="385.478125" style="stroke: #000000; stroke-width: 0.8"/>
      </g>
     </g>
     <g id="text_4">
      <!-- 60 -->
      <g transform="translate(425.863617 400.076562) scale(0.1 -0.1)">
       <defs>
        <path id="DejaVuSans-36" d="M 2113 2584 
Q 1688 2584 1439 2293 
Q 1191 2003 1191 1497 
Q 1191 994 1439 701 
Q 1688 409 2113 409 
Q 2538 409 2786 701 
Q 3034 994 3034 1497 
Q 3034 2003 2786 2293 
Q 2538 2584 2113 2584 
z
M 3366 4563 
L 3366 3988 
Q 3128 4100 2886 4159 
Q 2644 4219 2406 4219 
Q 1781 4219 1451 3797 
Q 1122 3375 1075 2522 
Q 1259 2794 1537 2939 
Q 1816 3084 2150 3084 
Q 2853 3084 3261 2657 
Q 3669 2231 3669 1497 
Q 3669 778 3244 343 
Q 2819 -91 2113 -91 
Q 1303 -91 875 529 
Q 447 1150 447 2328 
Q 447 3434 972 4092 
Q 1497 4750 2381 4750 
Q 2619 4750 2861 4703 
Q 3103 4656 3366 4563 
z
" transform="scale(0.015625)"/>
       </defs>
       <use xlink:href="#DejaVuSans-36"/>
       <use xlink:href="#DejaVuSans-30" transform="translate(63.623047 0)"/>
      </g>
     </g>
    </g>
    <g id="xtick_5">
     <g id="line2d_5">
      <g>
       <use xlink:href="#m2c8d3711c3" x="553.710047" y="385.478125" style="stroke: #000000; stroke-width: 0.8"/>
      </g>
     </g>
     <g id="text_5">
      <!-- 80 -->
      <g transform="translate(547.347547 400.076562) scale(0.1 -0.1)">
       <defs>
        <path id="DejaVuSans-38" d="M 2034 2216 
Q 1584 2216 1326 1975 
Q 1069 1734 1069 1313 
Q 1069 891 1326 650 
Q 1584 409 2034 409 
Q 2484 409 2743 651 
Q 3003 894 3003 1313 
Q 3003 1734 2745 1975 
Q 2488 2216 2034 2216 
z
M 1403 2484 
Q 997 2584 770 2862 
Q 544 3141 544 3541 
Q 544 4100 942 4425 
Q 1341 4750 2034 4750 
Q 2731 4750 3128 4425 
Q 3525 4100 3525 3541 
Q 3525 3141 3298 2862 
Q 3072 2584 2669 2484 
Q 3125 2378 3379 2068 
Q 3634 1759 3634 1313 
Q 3634 634 3220 271 
Q 2806 -91 2034 -91 
Q 1263 -91 848 271 
Q 434 634 434 1313 
Q 434 1759 690 2068 
Q 947 2378 1403 2484 
z
M 1172 3481 
Q 1172 3119 1398 2916 
Q 1625 2713 2034 2713 
Q 2441 2713 2670 2916 
Q 2900 3119 2900 3481 
Q 2900 3844 2670 4047 
Q 2441 4250 2034 4250 
Q 1625 4250 1398 4047 
Q 1172 3844 1172 3481 
z
" transform="scale(0.015625)"/>
       </defs>
       <use xlink:href="#DejaVuSans-38"/>
       <use xlink:href="#DejaVuSans-30" transform="translate(63.623047 0)"/>
      </g>
     </g>
    </g>
    <g id="xtick_6">
     <g id="line2d_6">
      <g>
       <use xlink:href="#m2c8d3711c3" x="675.193977" y="385.478125" style="stroke: #000000; stroke-width: 0.8"/>
      </g>
     </g>
     <g id="text_6">
      <!-- 100 -->
      <g transform="translate(665.650227 400.076562) scale(0.1 -0.1)">
       <defs>
        <path id="DejaVuSans-31" d="M 794 531 
L 1825 531 
L 1825 4091 
L 703 3866 
L 703 4441 
L 1819 4666 
L 2450 4666 
L 2450 531 
L 3481 531 
L 3481 0 
L 794 0 
L 794 531 
z
" transform="scale(0.015625)"/>
       </defs>
       <use xlink:href="#DejaVuSans-31"/>
       <use xlink:href="#DejaVuSans-30" transform="translate(63.623047 0)"/>
       <use xlink:href="#DejaVuSans-30" transform="translate(127.246094 0)"/>
      </g>
     </g>
    </g>
    <g id="text_7">
     <!-- Epoch -->
     <g transform="translate(359.210312 413.754687) scale(0.1 -0.1)">
      <defs>
       <path id="DejaVuSans-45" d="M 628 4666 
L 3578 4666 
L 3578 4134 
L 1259 4134 
L 1259 2753 
L 3481 2753 
L 3481 2222 
L 1259 2222 
L 1259 531 
L 3634 531 
L 3634 0 
L 628 0 
L 628 4666 
z
" transform="scale(0.015625)"/>
       <path id="DejaVuSans-70" d="M 1159 525 
L 1159 -1331 
L 581 -1331 
L 581 3500 
L 1159 3500 
L 1159 2969 
Q 1341 3281 1617 3432 
Q 1894 3584 2278 3584 
Q 2916 3584 3314 3078 
Q 3713 2572 3713 1747 
Q 3713 922 3314 415 
Q 2916 -91 2278 -91 
Q 1894 -91 1617 61 
Q 1341 213 1159 525 
z
M 3116 1747 
Q 3116 2381 2855 2742 
Q 2594 3103 2138 3103 
Q 1681 3103 1420 2742 
Q 1159 2381 1159 1747 
Q 1159 1113 1420 752 
Q 1681 391 2138 391 
Q 2594 391 2855 752 
Q 3116 1113 3116 1747 
z
" transform="scale(0.015625)"/>
       <path id="DejaVuSans-6f" d="M 1959 3097 
Q 1497 3097 1228 2736 
Q 959 2375 959 1747 
Q 959 1119 1226 758 
Q 1494 397 1959 397 
Q 2419 397 2687 759 
Q 2956 1122 2956 1747 
Q 2956 2369 2687 2733 
Q 2419 3097 1959 3097 
z
M 1959 3584 
Q 2709 3584 3137 3096 
Q 3566 2609 3566 1747 
Q 3566 888 3137 398 
Q 2709 -91 1959 -91 
Q 1206 -91 779 398 
Q 353 888 353 1747 
Q 353 2609 779 3096 
Q 1206 3584 1959 3584 
z
" transform="scale(0.015625)"/>
       <path id="DejaVuSans-63" d="M 3122 3366 
L 3122 2828 
Q 2878 2963 2633 3030 
Q 2388 3097 2138 3097 
Q 1578 3097 1268 2742 
Q 959 2388 959 1747 
Q 959 1106 1268 751 
Q 1578 397 2138 397 
Q 2388 397 2633 464 
Q 2878 531 3122 666 
L 3122 134 
Q 2881 22 2623 -34 
Q 2366 -91 2075 -91 
Q 1284 -91 818 406 
Q 353 903 353 1747 
Q 353 2603 823 3093 
Q 1294 3584 2113 3584 
Q 2378 3584 2631 3529 
Q 2884 3475 3122 3366 
z
" transform="scale(0.015625)"/>
       <path id="DejaVuSans-68" d="M 3513 2113 
L 3513 0 
L 2938 0 
L 2938 2094 
Q 2938 2591 2744 2837 
Q 2550 3084 2163 3084 
Q 1697 3084 1428 2787 
Q 1159 2491 1159 1978 
L 1159 0 
L 581 0 
L 581 4863 
L 1159 4863 
L 1159 2956 
Q 1366 3272 1645 3428 
Q 1925 3584 2291 3584 
Q 2894 3584 3203 3211 
Q 3513 2838 3513 2113 
z
" transform="scale(0.015625)"/>
      </defs>
      <use xlink:href="#DejaVuSans-45"/>
      <use xlink:href="#DejaVuSans-70" transform="translate(63.183594 0)"/>
      <use xlink:href="#DejaVuSans-6f" transform="translate(126.660156 0)"/>
      <use xlink:href="#DejaVuSans-63" transform="translate(187.841797 0)"/>
      <use xlink:href="#DejaVuSans-68" transform="translate(242.822266 0)"/>
     </g>
    </g>
   </g>
   <g id="matplotlib.axis_2">
    <g id="ytick_1">
     <g id="line2d_7">
      <defs>
       <path id="m5344481cad" d="M 0 0 
L -3.5 0 
" style="stroke: #000000; stroke-width: 0.8"/>
      </defs>
      <g>
       <use xlink:href="#m5344481cad" x="43.78125" y="385.386418" style="stroke: #000000; stroke-width: 0.8"/>
      </g>
     </g>
     <g id="text_8">
      <!-- 0.3 -->
      <g transform="translate(20.878125 389.185637) scale(0.1 -0.1)">
       <defs>
        <path id="DejaVuSans-2e" d="M 684 794 
L 1344 794 
L 1344 0 
L 684 0 
L 684 794 
z
" transform="scale(0.015625)"/>
        <path id="DejaVuSans-33" d="M 2597 2516 
Q 3050 2419 3304 2112 
Q 3559 1806 3559 1356 
Q 3559 666 3084 287 
Q 2609 -91 1734 -91 
Q 1441 -91 1130 -33 
Q 819 25 488 141 
L 488 750 
Q 750 597 1062 519 
Q 1375 441 1716 441 
Q 2309 441 2620 675 
Q 2931 909 2931 1356 
Q 2931 1769 2642 2001 
Q 2353 2234 1838 2234 
L 1294 2234 
L 1294 2753 
L 1863 2753 
Q 2328 2753 2575 2939 
Q 2822 3125 2822 3475 
Q 2822 3834 2567 4026 
Q 2313 4219 1838 4219 
Q 1578 4219 1281 4162 
Q 984 4106 628 3988 
L 628 4550 
Q 988 4650 1302 4700 
Q 1616 4750 1894 4750 
Q 2613 4750 3031 4423 
Q 3450 4097 3450 3541 
Q 3450 3153 3228 2886 
Q 3006 2619 2597 2516 
z
" transform="scale(0.015625)"/>
       </defs>
       <use xlink:href="#DejaVuSans-30"/>
       <use xlink:href="#DejaVuSans-2e" transform="translate(63.623047 0)"/>
       <use xlink:href="#DejaVuSans-33" transform="translate(95.410156 0)"/>
      </g>
     </g>
    </g>
    <g id="ytick_2">
     <g id="line2d_8">
      <g>
       <use xlink:href="#m5344481cad" x="43.78125" y="329.261691" style="stroke: #000000; stroke-width: 0.8"/>
      </g>
     </g>
     <g id="text_9">
      <!-- 0.4 -->
      <g transform="translate(20.878125 333.060909) scale(0.1 -0.1)">
       <use xlink:href="#DejaVuSans-30"/>
       <use xlink:href="#DejaVuSans-2e" transform="translate(63.623047 0)"/>
       <use xlink:href="#DejaVuSans-34" transform="translate(95.410156 0)"/>
      </g>
     </g>
    </g>
    <g id="ytick_3">
     <g id="line2d_9">
      <g>
       <use xlink:href="#m5344481cad" x="43.78125" y="273.136963" style="stroke: #000000; stroke-width: 0.8"/>
      </g>
     </g>
     <g id="text_10">
      <!-- 0.5 -->
      <g transform="translate(20.878125 276.936182) scale(0.1 -0.1)">
       <defs>
        <path id="DejaVuSans-35" d="M 691 4666 
L 3169 4666 
L 3169 4134 
L 1269 4134 
L 1269 2991 
Q 1406 3038 1543 3061 
Q 1681 3084 1819 3084 
Q 2600 3084 3056 2656 
Q 3513 2228 3513 1497 
Q 3513 744 3044 326 
Q 2575 -91 1722 -91 
Q 1428 -91 1123 -41 
Q 819 9 494 109 
L 494 744 
Q 775 591 1075 516 
Q 1375 441 1709 441 
Q 2250 441 2565 725 
Q 2881 1009 2881 1497 
Q 2881 1984 2565 2268 
Q 2250 2553 1709 2553 
Q 1456 2553 1204 2497 
Q 953 2441 691 2322 
L 691 4666 
z
" transform="scale(0.015625)"/>
       </defs>
       <use xlink:href="#DejaVuSans-30"/>
       <use xlink:href="#DejaVuSans-2e" transform="translate(63.623047 0)"/>
       <use xlink:href="#DejaVuSans-35" transform="translate(95.410156 0)"/>
      </g>
     </g>
    </g>
    <g id="ytick_4">
     <g id="line2d_10">
      <g>
       <use xlink:href="#m5344481cad" x="43.78125" y="217.012236" style="stroke: #000000; stroke-width: 0.8"/>
      </g>
     </g>
     <g id="text_11">
      <!-- 0.6 -->
      <g transform="translate(20.878125 220.811455) scale(0.1 -0.1)">
       <use xlink:href="#DejaVuSans-30"/>
       <use xlink:href="#DejaVuSans-2e" transform="translate(63.623047 0)"/>
       <use xlink:href="#DejaVuSans-36" transform="translate(95.410156 0)"/>
      </g>
     </g>
    </g>
    <g id="ytick_5">
     <g id="line2d_11">
      <g>
       <use xlink:href="#m5344481cad" x="43.78125" y="160.887509" style="stroke: #000000; stroke-width: 0.8"/>
      </g>
     </g>
     <g id="text_12">
      <!-- 0.7 -->
      <g transform="translate(20.878125 164.686728) scale(0.1 -0.1)">
       <defs>
        <path id="DejaVuSans-37" d="M 525 4666 
L 3525 4666 
L 3525 4397 
L 1831 0 
L 1172 0 
L 2766 4134 
L 525 4134 
L 525 4666 
z
" transform="scale(0.015625)"/>
       </defs>
       <use xlink:href="#DejaVuSans-30"/>
       <use xlink:href="#DejaVuSans-2e" transform="translate(63.623047 0)"/>
       <use xlink:href="#DejaVuSans-37" transform="translate(95.410156 0)"/>
      </g>
     </g>
    </g>
    <g id="ytick_6">
     <g id="line2d_12">
      <g>
       <use xlink:href="#m5344481cad" x="43.78125" y="104.762782" style="stroke: #000000; stroke-width: 0.8"/>
      </g>
     </g>
     <g id="text_13">
      <!-- 0.8 -->
      <g transform="translate(20.878125 108.562) scale(0.1 -0.1)">
       <use xlink:href="#DejaVuSans-30"/>
       <use xlink:href="#DejaVuSans-2e" transform="translate(63.623047 0)"/>
       <use xlink:href="#DejaVuSans-38" transform="translate(95.410156 0)"/>
      </g>
     </g>
    </g>
    <g id="ytick_7">
     <g id="line2d_13">
      <g>
       <use xlink:href="#m5344481cad" x="43.78125" y="48.638054" style="stroke: #000000; stroke-width: 0.8"/>
      </g>
     </g>
     <g id="text_14">
      <!-- 0.9 -->
      <g transform="translate(20.878125 52.437273) scale(0.1 -0.1)">
       <defs>
        <path id="DejaVuSans-39" d="M 703 97 
L 703 672 
Q 941 559 1184 500 
Q 1428 441 1663 441 
Q 2288 441 2617 861 
Q 2947 1281 2994 2138 
Q 2813 1869 2534 1725 
Q 2256 1581 1919 1581 
Q 1219 1581 811 2004 
Q 403 2428 403 3163 
Q 403 3881 828 4315 
Q 1253 4750 1959 4750 
Q 2769 4750 3195 4129 
Q 3622 3509 3622 2328 
Q 3622 1225 3098 567 
Q 2575 -91 1691 -91 
Q 1453 -91 1209 -44 
Q 966 3 703 97 
z
M 1959 2075 
Q 2384 2075 2632 2365 
Q 2881 2656 2881 3163 
Q 2881 3666 2632 3958 
Q 2384 4250 1959 4250 
Q 1534 4250 1286 3958 
Q 1038 3666 1038 3163 
Q 1038 2656 1286 2365 
Q 1534 2075 1959 2075 
z
" transform="scale(0.015625)"/>
       </defs>
       <use xlink:href="#DejaVuSans-30"/>
       <use xlink:href="#DejaVuSans-2e" transform="translate(63.623047 0)"/>
       <use xlink:href="#DejaVuSans-39" transform="translate(95.410156 0)"/>
      </g>
     </g>
    </g>
    <g id="text_15">
     <!-- Train Accuracy -->
     <g transform="translate(14.798438 240.309062) rotate(-90) scale(0.1 -0.1)">
      <defs>
       <path id="DejaVuSans-54" d="M -19 4666 
L 3928 4666 
L 3928 4134 
L 2272 4134 
L 2272 0 
L 1638 0 
L 1638 4134 
L -19 4134 
L -19 4666 
z
" transform="scale(0.015625)"/>
       <path id="DejaVuSans-72" d="M 2631 2963 
Q 2534 3019 2420 3045 
Q 2306 3072 2169 3072 
Q 1681 3072 1420 2755 
Q 1159 2438 1159 1844 
L 1159 0 
L 581 0 
L 581 3500 
L 1159 3500 
L 1159 2956 
Q 1341 3275 1631 3429 
Q 1922 3584 2338 3584 
Q 2397 3584 2469 3576 
Q 2541 3569 2628 3553 
L 2631 2963 
z
" transform="scale(0.015625)"/>
       <path id="DejaVuSans-61" d="M 2194 1759 
Q 1497 1759 1228 1600 
Q 959 1441 959 1056 
Q 959 750 1161 570 
Q 1363 391 1709 391 
Q 2188 391 2477 730 
Q 2766 1069 2766 1631 
L 2766 1759 
L 2194 1759 
z
M 3341 1997 
L 3341 0 
L 2766 0 
L 2766 531 
Q 2569 213 2275 61 
Q 1981 -91 1556 -91 
Q 1019 -91 701 211 
Q 384 513 384 1019 
Q 384 1609 779 1909 
Q 1175 2209 1959 2209 
L 2766 2209 
L 2766 2266 
Q 2766 2663 2505 2880 
Q 2244 3097 1772 3097 
Q 1472 3097 1187 3025 
Q 903 2953 641 2809 
L 641 3341 
Q 956 3463 1253 3523 
Q 1550 3584 1831 3584 
Q 2591 3584 2966 3190 
Q 3341 2797 3341 1997 
z
" transform="scale(0.015625)"/>
       <path id="DejaVuSans-69" d="M 603 3500 
L 1178 3500 
L 1178 0 
L 603 0 
L 603 3500 
z
M 603 4863 
L 1178 4863 
L 1178 4134 
L 603 4134 
L 603 4863 
z
" transform="scale(0.015625)"/>
       <path id="DejaVuSans-6e" d="M 3513 2113 
L 3513 0 
L 2938 0 
L 2938 2094 
Q 2938 2591 2744 2837 
Q 2550 3084 2163 3084 
Q 1697 3084 1428 2787 
Q 1159 2491 1159 1978 
L 1159 0 
L 581 0 
L 581 3500 
L 1159 3500 
L 1159 2956 
Q 1366 3272 1645 3428 
Q 1925 3584 2291 3584 
Q 2894 3584 3203 3211 
Q 3513 2838 3513 2113 
z
" transform="scale(0.015625)"/>
       <path id="DejaVuSans-20" transform="scale(0.015625)"/>
       <path id="DejaVuSans-41" d="M 2188 4044 
L 1331 1722 
L 3047 1722 
L 2188 4044 
z
M 1831 4666 
L 2547 4666 
L 4325 0 
L 3669 0 
L 3244 1197 
L 1141 1197 
L 716 0 
L 50 0 
L 1831 4666 
z
" transform="scale(0.015625)"/>
       <path id="DejaVuSans-75" d="M 544 1381 
L 544 3500 
L 1119 3500 
L 1119 1403 
Q 1119 906 1312 657 
Q 1506 409 1894 409 
Q 2359 409 2629 706 
Q 2900 1003 2900 1516 
L 2900 3500 
L 3475 3500 
L 3475 0 
L 2900 0 
L 2900 538 
Q 2691 219 2414 64 
Q 2138 -91 1772 -91 
Q 1169 -91 856 284 
Q 544 659 544 1381 
z
M 1991 3584 
L 1991 3584 
z
" transform="scale(0.015625)"/>
       <path id="DejaVuSans-79" d="M 2059 -325 
Q 1816 -950 1584 -1140 
Q 1353 -1331 966 -1331 
L 506 -1331 
L 506 -850 
L 844 -850 
Q 1081 -850 1212 -737 
Q 1344 -625 1503 -206 
L 1606 56 
L 191 3500 
L 800 3500 
L 1894 763 
L 2988 3500 
L 3597 3500 
L 2059 -325 
z
" transform="scale(0.015625)"/>
      </defs>
      <use xlink:href="#DejaVuSans-54"/>
      <use xlink:href="#DejaVuSans-72" transform="translate(46.333984 0)"/>
      <use xlink:href="#DejaVuSans-61" transform="translate(87.447266 0)"/>
      <use xlink:href="#DejaVuSans-69" transform="translate(148.726562 0)"/>
      <use xlink:href="#DejaVuSans-6e" transform="translate(176.509766 0)"/>
      <use xlink:href="#DejaVuSans-20" transform="translate(239.888672 0)"/>
      <use xlink:href="#DejaVuSans-41" transform="translate(271.675781 0)"/>
      <use xlink:href="#DejaVuSans-63" transform="translate(338.333984 0)"/>
      <use xlink:href="#DejaVuSans-63" transform="translate(393.314453 0)"/>
      <use xlink:href="#DejaVuSans-75" transform="translate(448.294922 0)"/>
      <use xlink:href="#DejaVuSans-72" transform="translate(511.673828 0)"/>
      <use xlink:href="#DejaVuSans-61" transform="translate(552.787109 0)"/>
      <use xlink:href="#DejaVuSans-63" transform="translate(614.066406 0)"/>
      <use xlink:href="#DejaVuSans-79" transform="translate(669.046875 0)"/>
     </g>
    </g>
   </g>
   <g id="line2d_14">
    <path d="M 73.848523 368.970852 
L 79.922719 270.844287 
L 85.996916 238.288277 
L 92.071112 241.039489 
L 98.145309 258.463832 
L 104.219505 248.376054 
L 110.293702 238.288277 
L 116.367898 221.781004 
L 122.442095 219.488327 
L 128.516291 216.737115 
L 134.590488 192.893277 
L 140.664684 208.024943 
L 146.738881 187.849388 
L 152.813077 203.898125 
L 158.887274 219.488327 
L 164.96147 196.103024 
L 171.035667 186.473782 
L 177.109863 186.473782 
L 183.18406 169.049438 
L 189.258256 180.971357 
L 195.332453 171.342115 
L 201.406649 180.054287 
L 207.480846 159.878731 
L 213.555042 159.878731 
L 219.629239 174.093327 
L 225.703435 180.512822 
L 231.777632 180.054287 
L 237.851829 161.712872 
L 243.926025 149.790953 
L 250.000222 151.625095 
L 256.074418 165.381155 
L 262.148615 166.756761 
L 268.222811 148.873883 
L 274.297008 120.444691 
L 280.371204 114.942266 
L 286.445401 128.239792 
L 292.519597 130.991004 
L 298.593794 129.156862 
L 304.66799 120.444691 
L 310.742187 116.317872 
L 316.816383 128.698327 
L 322.89058 146.12267 
L 328.964776 171.80065 
L 335.038973 145.664135 
L 341.113169 141.078782 
L 347.187366 117.234943 
L 353.261562 103.020347 
L 359.335759 85.596004 
L 365.409955 90.639893 
L 371.484152 88.805751 
L 377.558348 86.97161 
L 383.632545 80.09358 
L 389.706741 85.137468 
L 395.780938 85.596004 
L 401.855134 78.717973 
L 407.929331 63.127771 
L 414.003527 56.708277 
L 420.077724 81.469186 
L 426.15192 59.918024 
L 432.226117 68.17166 
L 438.300313 72.298479 
L 444.37451 68.630196 
L 450.448706 62.210701 
L 456.522903 94.308176 
L 462.597099 81.927721 
L 468.671296 91.556963 
L 474.745492 79.635044 
L 480.819689 76.425297 
L 486.893885 76.425297 
L 492.968082 65.420448 
L 499.042278 63.127771 
L 505.116475 63.586307 
L 511.190671 64.503378 
L 517.264868 59.000953 
L 523.339065 69.547266 
L 529.413261 63.127771 
L 535.487458 70.922872 
L 541.561654 58.083883 
L 547.635851 74.13262 
L 553.710047 75.966761 
L 559.784244 84.220398 
L 565.85844 85.137468 
L 571.932637 64.503378 
L 578.006833 74.13262 
L 584.08103 122.278832 
L 590.155226 104.395953 
L 596.229423 86.054539 
L 602.303619 68.630196 
L 608.377816 77.342367 
L 614.452012 67.25459 
L 620.526209 74.591155 
L 626.600405 71.839943 
L 632.674602 71.839943 
L 638.748798 63.586307 
L 644.822995 67.713125 
L 650.897191 53.498529 
L 656.971388 66.337519 
L 663.045584 65.420448 
L 669.119781 58.083883 
L 675.193977 61.29363 
" clip-path="url(#pdec2f74268)" style="fill: none; stroke: #1f77b4; stroke-width: 1.5; stroke-linecap: square"/>
   </g>
   <g id="line2d_15">
    <path d="M 73.848523 365.761105 
L 79.922719 305.234438 
L 85.996916 274.054034 
L 92.071112 247.917519 
L 98.145309 251.127266 
L 104.219505 247.000448 
L 110.293702 253.878479 
L 116.367898 197.020095 
L 122.442095 180.512822 
L 128.516291 197.937165 
L 134.590488 203.43959 
L 140.664684 177.303074 
L 146.738881 171.80065 
L 152.813077 158.04459 
L 158.887274 159.420196 
L 164.96147 158.503125 
L 171.035667 158.96166 
L 177.109863 160.795802 
L 183.18406 156.210448 
L 189.258256 162.171408 
L 195.332453 156.210448 
L 201.406649 135.117822 
L 207.480846 151.625095 
L 213.555042 149.790953 
L 219.629239 147.956812 
L 225.703435 133.283681 
L 231.777632 158.96166 
L 237.851829 130.532468 
L 243.926025 125.48858 
L 250.000222 119.986155 
L 256.074418 135.117822 
L 262.148615 123.195903 
L 268.222811 116.776408 
L 274.297008 113.56666 
L 280.371204 106.230095 
L 286.445401 109.439842 
L 292.519597 126.40565 
L 298.593794 115.859337 
L 304.66799 108.064236 
L 310.742187 107.605701 
L 316.816383 108.981307 
L 322.89058 101.186206 
L 328.964776 90.639893 
L 335.038973 101.644741 
L 341.113169 98.893529 
L 347.187366 126.864186 
L 353.261562 112.64959 
L 359.335759 90.181357 
L 365.409955 86.513074 
L 371.484152 77.342367 
L 377.558348 80.552115 
L 383.632545 71.381408 
L 389.706741 76.883832 
L 395.780938 84.220398 
L 401.855134 82.844792 
L 407.929331 72.757014 
L 414.003527 79.176509 
L 420.077724 81.01065 
L 426.15192 79.176509 
L 432.226117 102.103277 
L 438.300313 77.800903 
L 444.37451 77.342367 
L 450.448706 71.381408 
L 456.522903 77.342367 
L 462.597099 64.503378 
L 468.671296 74.591155 
L 474.745492 62.210701 
L 480.819689 59.918024 
L 486.893885 56.708277 
L 492.968082 76.883832 
L 499.042278 79.635044 
L 505.116475 63.586307 
L 511.190671 56.249741 
L 517.264868 51.664388 
L 523.339065 53.498529 
L 529.413261 45.703428 
L 535.487458 45.244893 
L 541.561654 56.708277 
L 547.635851 75.966761 
L 553.710047 76.883832 
L 559.784244 59.459489 
L 565.85844 54.4156 
L 571.932637 52.581458 
L 578.006833 50.288782 
L 584.08103 50.747317 
L 590.155226 53.039994 
L 596.229423 46.161963 
L 602.303619 39.742468 
L 608.377816 60.376559 
L 614.452012 62.210701 
L 620.526209 45.244893 
L 626.600405 42.952216 
L 632.674602 40.659539 
L 638.748798 58.083883 
L 644.822995 44.327822 
L 650.897191 47.996105 
L 656.971388 42.493681 
L 663.045584 49.830246 
L 669.119781 45.703428 
L 675.193977 38.825398 
" clip-path="url(#pdec2f74268)" style="fill: none; stroke: #ff7f0e; stroke-width: 1.5; stroke-linecap: square"/>
   </g>
   <g id="line2d_16">
    <path d="M 73.848523 357.048933 
L 79.922719 279.097923 
L 85.996916 258.463832 
L 92.071112 234.619994 
L 98.145309 247.000448 
L 104.219505 235.9956 
L 110.293702 225.449287 
L 116.367898 214.444438 
L 122.442095 203.898125 
L 128.516291 189.224994 
L 134.590488 170.425044 
L 140.664684 167.673832 
L 146.738881 177.303074 
L 152.813077 197.020095 
L 158.887274 199.771307 
L 164.96147 191.059135 
L 171.035667 190.142064 
L 177.109863 178.220145 
L 183.18406 178.678681 
L 189.258256 161.712872 
L 195.332453 180.971357 
L 201.406649 169.049438 
L 207.480846 169.966509 
L 213.555042 171.80065 
L 219.629239 168.132367 
L 225.703435 172.717721 
L 231.777632 171.342115 
L 237.851829 163.088479 
L 243.926025 167.215297 
L 250.000222 159.878731 
L 256.074418 168.132367 
L 262.148615 184.63964 
L 268.222811 157.586054 
L 274.297008 156.210448 
L 280.371204 170.88358 
L 286.445401 162.171408 
L 292.519597 167.215297 
L 298.593794 187.390852 
L 304.66799 178.220145 
L 310.742187 169.049438 
L 316.816383 163.547014 
L 322.89058 164.92262 
L 328.964776 162.171408 
L 335.038973 157.127519 
L 341.113169 166.298226 
L 347.187366 158.503125 
L 353.261562 169.049438 
L 359.335759 166.756761 
L 365.409955 166.298226 
L 371.484152 152.542165 
L 377.558348 151.166559 
L 383.632545 148.415347 
L 389.706741 144.288529 
L 395.780938 140.161711 
L 401.855134 167.673832 
L 407.929331 149.332418 
L 414.003527 141.537317 
L 420.077724 140.620246 
L 426.15192 124.571509 
L 432.226117 122.737367 
L 438.300313 104.854489 
L 444.37451 118.152014 
L 450.448706 130.991004 
L 456.522903 111.273984 
L 462.597099 111.732519 
L 468.671296 165.839691 
L 474.745492 175.927468 
L 480.819689 168.590903 
L 486.893885 165.381155 
L 492.968082 149.332418 
L 499.042278 132.825145 
L 505.116475 122.737367 
L 511.190671 122.737367 
L 517.264868 140.161711 
L 523.339065 127.322721 
L 529.413261 125.48858 
L 535.487458 119.986155 
L 541.561654 91.098428 
L 547.635851 113.56666 
L 553.710047 107.605701 
L 559.784244 103.478883 
L 565.85844 119.069085 
L 571.932637 114.483731 
L 578.006833 110.815448 
L 584.08103 102.561812 
L 590.155226 134.659287 
L 596.229423 127.322721 
L 602.303619 110.356913 
L 608.377816 95.225246 
L 614.452012 88.805751 
L 620.526209 82.844792 
L 626.600405 86.97161 
L 632.674602 88.805751 
L 638.748798 93.391105 
L 644.822995 83.761862 
L 650.897191 75.966761 
L 656.971388 89.722822 
L 663.045584 80.552115 
L 669.119781 85.596004 
L 675.193977 81.469186 
" clip-path="url(#pdec2f74268)" style="fill: none; stroke: #2ca02c; stroke-width: 1.5; stroke-linecap: square"/>
   </g>
   <g id="line2d_17">
    <path d="M 73.848523 357.966004 
L 79.922719 305.692973 
L 85.996916 300.649085 
L 92.071112 270.385751 
L 98.145309 237.829741 
L 104.219505 207.566408 
L 110.293702 247.917519 
L 116.367898 215.820044 
L 122.442095 180.512822 
L 128.516291 179.595751 
L 134.590488 164.464085 
L 140.664684 187.390852 
L 146.738881 177.303074 
L 152.813077 164.92262 
L 158.887274 163.088479 
L 164.96147 153.000701 
L 171.035667 161.254337 
L 177.109863 165.839691 
L 183.18406 156.210448 
L 189.258256 174.093327 
L 195.332453 168.590903 
L 201.406649 165.839691 
L 207.480846 160.795802 
L 213.555042 164.92262 
L 219.629239 161.254337 
L 225.703435 155.751913 
L 231.777632 146.12267 
L 237.851829 150.708024 
L 243.926025 143.829994 
L 250.000222 137.869034 
L 256.074418 145.664135 
L 262.148615 150.249489 
L 268.222811 143.829994 
L 274.297008 165.839691 
L 280.371204 140.161711 
L 286.445401 131.908074 
L 292.519597 153.459236 
L 298.593794 157.586054 
L 304.66799 133.742216 
L 310.742187 137.410499 
L 316.816383 138.327569 
L 322.89058 149.790953 
L 328.964776 125.947115 
L 335.038973 128.239792 
L 341.113169 154.376307 
L 347.187366 136.493428 
L 353.261562 125.030044 
L 359.335759 112.64959 
L 365.409955 120.444691 
L 371.484152 117.693479 
L 377.558348 115.859337 
L 383.632545 119.52762 
L 389.706741 112.191054 
L 395.780938 103.478883 
L 401.855134 105.313024 
L 407.929331 108.064236 
L 414.003527 100.269135 
L 420.077724 114.942266 
L 426.15192 97.059388 
L 432.226117 97.517923 
L 438.300313 81.927721 
L 444.37451 98.434994 
L 450.448706 105.771559 
L 456.522903 103.020347 
L 462.597099 93.84964 
L 468.671296 90.639893 
L 474.745492 90.639893 
L 480.819689 99.352064 
L 486.893885 90.639893 
L 492.968082 93.391105 
L 499.042278 103.937418 
L 505.116475 88.805751 
L 511.190671 81.927721 
L 517.264868 87.430145 
L 523.339065 81.469186 
L 529.413261 89.722822 
L 535.487458 87.430145 
L 541.561654 86.054539 
L 547.635851 85.137468 
L 553.710047 86.054539 
L 559.784244 82.386256 
L 565.85844 83.303327 
L 571.932637 83.303327 
L 578.006833 84.678933 
L 584.08103 81.01065 
L 590.155226 80.09358 
L 596.229423 78.717973 
L 602.303619 76.425297 
L 608.377816 80.09358 
L 614.452012 82.844792 
L 620.526209 89.722822 
L 626.600405 81.01065 
L 632.674602 109.439842 
L 638.748798 107.147165 
L 644.822995 87.888681 
L 650.897191 89.722822 
L 656.971388 81.01065 
L 663.045584 103.020347 
L 669.119781 90.181357 
L 675.193977 89.264287 
" clip-path="url(#pdec2f74268)" style="fill: none; stroke: #d62728; stroke-width: 1.5; stroke-linecap: square"/>
   </g>
   <g id="line2d_18">
    <path d="M 73.848523 360.717216 
L 79.922719 236.454135 
L 85.996916 229.576105 
L 92.071112 221.781004 
L 98.145309 236.91267 
L 104.219505 215.361509 
L 110.293702 204.35666 
L 116.367898 195.644489 
L 122.442095 187.849388 
L 128.516291 193.351812 
L 134.590488 184.63964 
L 140.664684 184.181105 
L 146.738881 168.132367 
L 152.813077 170.425044 
L 158.887274 169.966509 
L 164.96147 193.351812 
L 171.035667 175.468933 
L 177.109863 182.346963 
L 183.18406 185.098176 
L 189.258256 183.722569 
L 195.332453 176.386004 
L 201.406649 161.254337 
L 207.480846 151.625095 
L 213.555042 153.459236 
L 219.629239 156.668984 
L 225.703435 158.04459 
L 231.777632 156.210448 
L 237.851829 152.08363 
L 243.926025 154.376307 
L 250.000222 154.376307 
L 256.074418 150.708024 
L 262.148615 158.04459 
L 268.222811 131.908074 
L 274.297008 125.947115 
L 280.371204 122.737367 
L 286.445401 124.571509 
L 292.519597 113.56666 
L 298.593794 121.820297 
L 304.66799 143.371458 
L 310.742187 117.693479 
L 316.816383 125.030044 
L 322.89058 128.698327 
L 328.964776 117.693479 
L 335.038973 124.571509 
L 341.113169 134.200751 
L 347.187366 119.986155 
L 353.261562 107.605701 
L 359.335759 119.069085 
L 365.409955 108.522771 
L 371.484152 114.942266 
L 377.558348 109.898378 
L 383.632545 112.191054 
L 389.706741 105.313024 
L 395.780938 108.981307 
L 401.855134 109.439842 
L 407.929331 112.191054 
L 414.003527 102.103277 
L 420.077724 102.561812 
L 426.15192 99.352064 
L 432.226117 98.893529 
L 438.300313 96.142317 
L 444.37451 103.478883 
L 450.448706 103.937418 
L 456.522903 90.639893 
L 462.597099 107.605701 
L 468.671296 91.556963 
L 474.745492 93.391105 
L 480.819689 96.142317 
L 486.893885 108.981307 
L 492.968082 91.556963 
L 499.042278 95.683782 
L 505.116475 83.761862 
L 511.190671 89.264287 
L 517.264868 75.966761 
L 523.339065 77.800903 
L 529.413261 77.800903 
L 535.487458 79.635044 
L 541.561654 86.054539 
L 547.635851 92.474034 
L 553.710047 83.761862 
L 559.784244 76.883832 
L 565.85844 77.800903 
L 571.932637 81.469186 
L 578.006833 73.215549 
L 584.08103 79.635044 
L 590.155226 70.922872 
L 596.229423 81.469186 
L 602.303619 71.381408 
L 608.377816 72.757014 
L 614.452012 82.844792 
L 620.526209 95.683782 
L 626.600405 75.049691 
L 632.674602 62.669236 
L 638.748798 63.127771 
L 644.822995 57.166812 
L 650.897191 52.122923 
L 656.971388 45.703428 
L 663.045584 56.249741 
L 669.119781 48.45464 
L 675.193977 71.839943 
" clip-path="url(#pdec2f74268)" style="fill: none; stroke: #9467bd; stroke-width: 1.5; stroke-linecap: square"/>
   </g>
   <g id="patch_3">
    <path d="M 43.78125 385.478125 
L 43.78125 22.318125 
" style="fill: none; stroke: #000000; stroke-width: 0.8; stroke-linejoin: miter; stroke-linecap: square"/>
   </g>
   <g id="patch_4">
    <path d="M 705.26125 385.478125 
L 705.26125 22.318125 
" style="fill: none; stroke: #000000; stroke-width: 0.8; stroke-linejoin: miter; stroke-linecap: square"/>
   </g>
   <g id="patch_5">
    <path d="M 43.78125 385.478125 
L 705.26125 385.478125 
" style="fill: none; stroke: #000000; stroke-width: 0.8; stroke-linejoin: miter; stroke-linecap: square"/>
   </g>
   <g id="patch_6">
    <path d="M 43.78125 22.318125 
L 705.26125 22.318125 
" style="fill: none; stroke: #000000; stroke-width: 0.8; stroke-linejoin: miter; stroke-linecap: square"/>
   </g>
   <g id="text_16">
    <!-- Combined Train Accuracy -->
    <g transform="translate(298.436563 16.318125) scale(0.12 -0.12)">
     <defs>
      <path id="DejaVuSans-43" d="M 4122 4306 
L 4122 3641 
Q 3803 3938 3442 4084 
Q 3081 4231 2675 4231 
Q 1875 4231 1450 3742 
Q 1025 3253 1025 2328 
Q 1025 1406 1450 917 
Q 1875 428 2675 428 
Q 3081 428 3442 575 
Q 3803 722 4122 1019 
L 4122 359 
Q 3791 134 3420 21 
Q 3050 -91 2638 -91 
Q 1578 -91 968 557 
Q 359 1206 359 2328 
Q 359 3453 968 4101 
Q 1578 4750 2638 4750 
Q 3056 4750 3426 4639 
Q 3797 4528 4122 4306 
z
" transform="scale(0.015625)"/>
      <path id="DejaVuSans-6d" d="M 3328 2828 
Q 3544 3216 3844 3400 
Q 4144 3584 4550 3584 
Q 5097 3584 5394 3201 
Q 5691 2819 5691 2113 
L 5691 0 
L 5113 0 
L 5113 2094 
Q 5113 2597 4934 2840 
Q 4756 3084 4391 3084 
Q 3944 3084 3684 2787 
Q 3425 2491 3425 1978 
L 3425 0 
L 2847 0 
L 2847 2094 
Q 2847 2600 2669 2842 
Q 2491 3084 2119 3084 
Q 1678 3084 1418 2786 
Q 1159 2488 1159 1978 
L 1159 0 
L 581 0 
L 581 3500 
L 1159 3500 
L 1159 2956 
Q 1356 3278 1631 3431 
Q 1906 3584 2284 3584 
Q 2666 3584 2933 3390 
Q 3200 3197 3328 2828 
z
" transform="scale(0.015625)"/>
      <path id="DejaVuSans-62" d="M 3116 1747 
Q 3116 2381 2855 2742 
Q 2594 3103 2138 3103 
Q 1681 3103 1420 2742 
Q 1159 2381 1159 1747 
Q 1159 1113 1420 752 
Q 1681 391 2138 391 
Q 2594 391 2855 752 
Q 3116 1113 3116 1747 
z
M 1159 2969 
Q 1341 3281 1617 3432 
Q 1894 3584 2278 3584 
Q 2916 3584 3314 3078 
Q 3713 2572 3713 1747 
Q 3713 922 3314 415 
Q 2916 -91 2278 -91 
Q 1894 -91 1617 61 
Q 1341 213 1159 525 
L 1159 0 
L 581 0 
L 581 4863 
L 1159 4863 
L 1159 2969 
z
" transform="scale(0.015625)"/>
      <path id="DejaVuSans-65" d="M 3597 1894 
L 3597 1613 
L 953 1613 
Q 991 1019 1311 708 
Q 1631 397 2203 397 
Q 2534 397 2845 478 
Q 3156 559 3463 722 
L 3463 178 
Q 3153 47 2828 -22 
Q 2503 -91 2169 -91 
Q 1331 -91 842 396 
Q 353 884 353 1716 
Q 353 2575 817 3079 
Q 1281 3584 2069 3584 
Q 2775 3584 3186 3129 
Q 3597 2675 3597 1894 
z
M 3022 2063 
Q 3016 2534 2758 2815 
Q 2500 3097 2075 3097 
Q 1594 3097 1305 2825 
Q 1016 2553 972 2059 
L 3022 2063 
z
" transform="scale(0.015625)"/>
      <path id="DejaVuSans-64" d="M 2906 2969 
L 2906 4863 
L 3481 4863 
L 3481 0 
L 2906 0 
L 2906 525 
Q 2725 213 2448 61 
Q 2172 -91 1784 -91 
Q 1150 -91 751 415 
Q 353 922 353 1747 
Q 353 2572 751 3078 
Q 1150 3584 1784 3584 
Q 2172 3584 2448 3432 
Q 2725 3281 2906 2969 
z
M 947 1747 
Q 947 1113 1208 752 
Q 1469 391 1925 391 
Q 2381 391 2643 752 
Q 2906 1113 2906 1747 
Q 2906 2381 2643 2742 
Q 2381 3103 1925 3103 
Q 1469 3103 1208 2742 
Q 947 2381 947 1747 
z
" transform="scale(0.015625)"/>
     </defs>
     <use xlink:href="#DejaVuSans-43"/>
     <use xlink:href="#DejaVuSans-6f" transform="translate(69.824219 0)"/>
     <use xlink:href="#DejaVuSans-6d" transform="translate(131.005859 0)"/>
     <use xlink:href="#DejaVuSans-62" transform="translate(228.417969 0)"/>
     <use xlink:href="#DejaVuSans-69" transform="translate(291.894531 0)"/>
     <use xlink:href="#DejaVuSans-6e" transform="translate(319.677734 0)"/>
     <use xlink:href="#DejaVuSans-65" transform="translate(383.056641 0)"/>
     <use xlink:href="#DejaVuSans-64" transform="translate(444.580078 0)"/>
     <use xlink:href="#DejaVuSans-20" transform="translate(508.056641 0)"/>
     <use xlink:href="#DejaVuSans-54" transform="translate(539.84375 0)"/>
     <use xlink:href="#DejaVuSans-72" transform="translate(586.177734 0)"/>
     <use xlink:href="#DejaVuSans-61" transform="translate(627.291016 0)"/>
     <use xlink:href="#DejaVuSans-69" transform="translate(688.570312 0)"/>
     <use xlink:href="#DejaVuSans-6e" transform="translate(716.353516 0)"/>
     <use xlink:href="#DejaVuSans-20" transform="translate(779.732422 0)"/>
     <use xlink:href="#DejaVuSans-41" transform="translate(811.519531 0)"/>
     <use xlink:href="#DejaVuSans-63" transform="translate(878.177734 0)"/>
     <use xlink:href="#DejaVuSans-63" transform="translate(933.158203 0)"/>
     <use xlink:href="#DejaVuSans-75" transform="translate(988.138672 0)"/>
     <use xlink:href="#DejaVuSans-72" transform="translate(1051.517578 0)"/>
     <use xlink:href="#DejaVuSans-61" transform="translate(1092.630859 0)"/>
     <use xlink:href="#DejaVuSans-63" transform="translate(1153.910156 0)"/>
     <use xlink:href="#DejaVuSans-79" transform="translate(1208.890625 0)"/>
    </g>
   </g>
   <g id="legend_1">
    <g id="patch_7">
     <path d="M 50.78125 103.70875 
L 112.95625 103.70875 
Q 114.95625 103.70875 114.95625 101.70875 
L 114.95625 29.318125 
Q 114.95625 27.318125 112.95625 27.318125 
L 50.78125 27.318125 
Q 48.78125 27.318125 48.78125 29.318125 
L 48.78125 101.70875 
Q 48.78125 103.70875 50.78125 103.70875 
z
" style="fill: #ffffff; opacity: 0.8; stroke: #cccccc; stroke-linejoin: miter"/>
    </g>
    <g id="line2d_19">
     <path d="M 52.78125 35.416562 
L 62.78125 35.416562 
L 72.78125 35.416562 
" style="fill: none; stroke: #1f77b4; stroke-width: 1.5; stroke-linecap: square"/>
    </g>
    <g id="text_17">
     <!-- Fold 1 -->
     <g transform="translate(80.78125 38.916562) scale(0.1 -0.1)">
      <defs>
       <path id="DejaVuSans-46" d="M 628 4666 
L 3309 4666 
L 3309 4134 
L 1259 4134 
L 1259 2759 
L 3109 2759 
L 3109 2228 
L 1259 2228 
L 1259 0 
L 628 0 
L 628 4666 
z
" transform="scale(0.015625)"/>
       <path id="DejaVuSans-6c" d="M 603 4863 
L 1178 4863 
L 1178 0 
L 603 0 
L 603 4863 
z
" transform="scale(0.015625)"/>
      </defs>
      <use xlink:href="#DejaVuSans-46"/>
      <use xlink:href="#DejaVuSans-6f" transform="translate(53.894531 0)"/>
      <use xlink:href="#DejaVuSans-6c" transform="translate(115.076172 0)"/>
      <use xlink:href="#DejaVuSans-64" transform="translate(142.859375 0)"/>
      <use xlink:href="#DejaVuSans-20" transform="translate(206.335938 0)"/>
      <use xlink:href="#DejaVuSans-31" transform="translate(238.123047 0)"/>
     </g>
    </g>
    <g id="line2d_20">
     <path d="M 52.78125 50.094688 
L 62.78125 50.094688 
L 72.78125 50.094688 
" style="fill: none; stroke: #ff7f0e; stroke-width: 1.5; stroke-linecap: square"/>
    </g>
    <g id="text_18">
     <!-- Fold 2 -->
     <g transform="translate(80.78125 53.594688) scale(0.1 -0.1)">
      <use xlink:href="#DejaVuSans-46"/>
      <use xlink:href="#DejaVuSans-6f" transform="translate(53.894531 0)"/>
      <use xlink:href="#DejaVuSans-6c" transform="translate(115.076172 0)"/>
      <use xlink:href="#DejaVuSans-64" transform="translate(142.859375 0)"/>
      <use xlink:href="#DejaVuSans-20" transform="translate(206.335938 0)"/>
      <use xlink:href="#DejaVuSans-32" transform="translate(238.123047 0)"/>
     </g>
    </g>
    <g id="line2d_21">
     <path d="M 52.78125 64.772812 
L 62.78125 64.772812 
L 72.78125 64.772812 
" style="fill: none; stroke: #2ca02c; stroke-width: 1.5; stroke-linecap: square"/>
    </g>
    <g id="text_19">
     <!-- Fold 3 -->
     <g transform="translate(80.78125 68.272812) scale(0.1 -0.1)">
      <use xlink:href="#DejaVuSans-46"/>
      <use xlink:href="#DejaVuSans-6f" transform="translate(53.894531 0)"/>
      <use xlink:href="#DejaVuSans-6c" transform="translate(115.076172 0)"/>
      <use xlink:href="#DejaVuSans-64" transform="translate(142.859375 0)"/>
      <use xlink:href="#DejaVuSans-20" transform="translate(206.335938 0)"/>
      <use xlink:href="#DejaVuSans-33" transform="translate(238.123047 0)"/>
     </g>
    </g>
    <g id="line2d_22">
     <path d="M 52.78125 79.450938 
L 62.78125 79.450938 
L 72.78125 79.450938 
" style="fill: none; stroke: #d62728; stroke-width: 1.5; stroke-linecap: square"/>
    </g>
    <g id="text_20">
     <!-- Fold 4 -->
     <g transform="translate(80.78125 82.950938) scale(0.1 -0.1)">
      <use xlink:href="#DejaVuSans-46"/>
      <use xlink:href="#DejaVuSans-6f" transform="translate(53.894531 0)"/>
      <use xlink:href="#DejaVuSans-6c" transform="translate(115.076172 0)"/>
      <use xlink:href="#DejaVuSans-64" transform="translate(142.859375 0)"/>
      <use xlink:href="#DejaVuSans-20" transform="translate(206.335938 0)"/>
      <use xlink:href="#DejaVuSans-34" transform="translate(238.123047 0)"/>
     </g>
    </g>
    <g id="line2d_23">
     <path d="M 52.78125 94.129063 
L 62.78125 94.129063 
L 72.78125 94.129063 
" style="fill: none; stroke: #9467bd; stroke-width: 1.5; stroke-linecap: square"/>
    </g>
    <g id="text_21">
     <!-- Fold 5 -->
     <g transform="translate(80.78125 97.629063) scale(0.1 -0.1)">
      <use xlink:href="#DejaVuSans-46"/>
      <use xlink:href="#DejaVuSans-6f" transform="translate(53.894531 0)"/>
      <use xlink:href="#DejaVuSans-6c" transform="translate(115.076172 0)"/>
      <use xlink:href="#DejaVuSans-64" transform="translate(142.859375 0)"/>
      <use xlink:href="#DejaVuSans-20" transform="translate(206.335938 0)"/>
      <use xlink:href="#DejaVuSans-35" transform="translate(238.123047 0)"/>
     </g>
    </g>
   </g>
  </g>
 </g>
 <defs>
  <clipPath id="pdec2f74268">
   <rect x="43.78125" y="22.318125" width="661.48" height="363.16"/>
  </clipPath>
 </defs>
</svg>
