<?xml version="1.0" encoding="utf-8" standalone="no"?>
<!DOCTYPE svg PUBLIC "-//W3C//DTD SVG 1.1//EN"
  "http://www.w3.org/Graphics/SVG/1.1/DTD/svg11.dtd">
<svg xmlns:xlink="http://www.w3.org/1999/xlink" width="712.46125pt" height="423.034375pt" viewBox="0 0 712.46125 423.034375" xmlns="http://www.w3.org/2000/svg" version="1.1">
 <metadata>
  <rdf:RDF xmlns:dc="http://purl.org/dc/elements/1.1/" xmlns:cc="http://creativecommons.org/ns#" xmlns:rdf="http://www.w3.org/1999/02/22-rdf-syntax-ns#">
   <cc:Work>
    <dc:type rdf:resource="http://purl.org/dc/dcmitype/StillImage"/>
    <dc:date>2025-06-26T15:28:48.988451</dc:date>
    <dc:format>image/svg+xml</dc:format>
    <dc:creator>
     <cc:Agent>
      <dc:title>Matplotlib v3.10.0, https://matplotlib.org/</dc:title>
     </cc:Agent>
    </dc:creator>
   </cc:Work>
  </rdf:RDF>
 </metadata>
 <defs>
  <style type="text/css">*{stroke-linejoin: round; stroke-linecap: butt}</style>
 </defs>
 <g id="figure_1">
  <g id="patch_1">
   <path d="M 0 423.034375 
L 712.46125 423.034375 
L 712.46125 0 
L 0 0 
z
" style="fill: #ffffff"/>
  </g>
  <g id="axes_1">
   <g id="patch_2">
    <path d="M 43.78125 385.478125 
L 705.26125 385.478125 
L 705.26125 22.318125 
L 43.78125 22.318125 
z
" style="fill: #ffffff"/>
   </g>
   <g id="matplotlib.axis_1">
    <g id="xtick_1">
     <g id="line2d_1">
      <defs>
       <path id="mef9114d09e" d="M 0 0 
L 0 3.5 
" style="stroke: #000000; stroke-width: 0.8"/>
      </defs>
      <g>
       <use xlink:href="#mef9114d09e" x="67.774326" y="385.478125" style="stroke: #000000; stroke-width: 0.8"/>
      </g>
     </g>
     <g id="text_1">
      <!-- 0 -->
      <g transform="translate(64.593076 400.076562) scale(0.1 -0.1)">
       <defs>
        <path id="DejaVuSans-30" d="M 2034 4250 
Q 1547 4250 1301 3770 
Q 1056 3291 1056 2328 
Q 1056 1369 1301 889 
Q 1547 409 2034 409 
Q 2525 409 2770 889 
Q 3016 1369 3016 2328 
Q 3016 3291 2770 3770 
Q 2525 4250 2034 4250 
z
M 2034 4750 
Q 2819 4750 3233 4129 
Q 3647 3509 3647 2328 
Q 3647 1150 3233 529 
Q 2819 -91 2034 -91 
Q 1250 -91 836 529 
Q 422 1150 422 2328 
Q 422 3509 836 4129 
Q 1250 4750 2034 4750 
z
" transform="scale(0.015625)"/>
       </defs>
       <use xlink:href="#DejaVuSans-30"/>
      </g>
     </g>
    </g>
    <g id="xtick_2">
     <g id="line2d_2">
      <g>
       <use xlink:href="#mef9114d09e" x="189.258256" y="385.478125" style="stroke: #000000; stroke-width: 0.8"/>
      </g>
     </g>
     <g id="text_2">
      <!-- 20 -->
      <g transform="translate(182.895756 400.076562) scale(0.1 -0.1)">
       <defs>
        <path id="DejaVuSans-32" d="M 1228 531 
L 3431 531 
L 3431 0 
L 469 0 
L 469 531 
Q 828 903 1448 1529 
Q 2069 2156 2228 2338 
Q 2531 2678 2651 2914 
Q 2772 3150 2772 3378 
Q 2772 3750 2511 3984 
Q 2250 4219 1831 4219 
Q 1534 4219 1204 4116 
Q 875 4013 500 3803 
L 500 4441 
Q 881 4594 1212 4672 
Q 1544 4750 1819 4750 
Q 2544 4750 2975 4387 
Q 3406 4025 3406 3419 
Q 3406 3131 3298 2873 
Q 3191 2616 2906 2266 
Q 2828 2175 2409 1742 
Q 1991 1309 1228 531 
z
" transform="scale(0.015625)"/>
       </defs>
       <use xlink:href="#DejaVuSans-32"/>
       <use xlink:href="#DejaVuSans-30" transform="translate(63.623047 0)"/>
      </g>
     </g>
    </g>
    <g id="xtick_3">
     <g id="line2d_3">
      <g>
       <use xlink:href="#mef9114d09e" x="310.742187" y="385.478125" style="stroke: #000000; stroke-width: 0.8"/>
      </g>
     </g>
     <g id="text_3">
      <!-- 40 -->
      <g transform="translate(304.379687 400.076562) scale(0.1 -0.1)">
       <defs>
        <path id="DejaVuSans-34" d="M 2419 4116 
L 825 1625 
L 2419 1625 
L 2419 4116 
z
M 2253 4666 
L 3047 4666 
L 3047 1625 
L 3713 1625 
L 3713 1100 
L 3047 1100 
L 3047 0 
L 2419 0 
L 2419 1100 
L 313 1100 
L 313 1709 
L 2253 4666 
z
" transform="scale(0.015625)"/>
       </defs>
       <use xlink:href="#DejaVuSans-34"/>
       <use xlink:href="#DejaVuSans-30" transform="translate(63.623047 0)"/>
      </g>
     </g>
    </g>
    <g id="xtick_4">
     <g id="line2d_4">
      <g>
       <use xlink:href="#mef9114d09e" x="432.226117" y="385.478125" style="stroke: #000000; stroke-width: 0.8"/>
      </g>
     </g>
     <g id="text_4">
      <!-- 60 -->
      <g transform="translate(425.863617 400.076562) scale(0.1 -0.1)">
       <defs>
        <path id="DejaVuSans-36" d="M 2113 2584 
Q 1688 2584 1439 2293 
Q 1191 2003 1191 1497 
Q 1191 994 1439 701 
Q 1688 409 2113 409 
Q 2538 409 2786 701 
Q 3034 994 3034 1497 
Q 3034 2003 2786 2293 
Q 2538 2584 2113 2584 
z
M 3366 4563 
L 3366 3988 
Q 3128 4100 2886 4159 
Q 2644 4219 2406 4219 
Q 1781 4219 1451 3797 
Q 1122 3375 1075 2522 
Q 1259 2794 1537 2939 
Q 1816 3084 2150 3084 
Q 2853 3084 3261 2657 
Q 3669 2231 3669 1497 
Q 3669 778 3244 343 
Q 2819 -91 2113 -91 
Q 1303 -91 875 529 
Q 447 1150 447 2328 
Q 447 3434 972 4092 
Q 1497 4750 2381 4750 
Q 2619 4750 2861 4703 
Q 3103 4656 3366 4563 
z
" transform="scale(0.015625)"/>
       </defs>
       <use xlink:href="#DejaVuSans-36"/>
       <use xlink:href="#DejaVuSans-30" transform="translate(63.623047 0)"/>
      </g>
     </g>
    </g>
    <g id="xtick_5">
     <g id="line2d_5">
      <g>
       <use xlink:href="#mef9114d09e" x="553.710047" y="385.478125" style="stroke: #000000; stroke-width: 0.8"/>
      </g>
     </g>
     <g id="text_5">
      <!-- 80 -->
      <g transform="translate(547.347547 400.076562) scale(0.1 -0.1)">
       <defs>
        <path id="DejaVuSans-38" d="M 2034 2216 
Q 1584 2216 1326 1975 
Q 1069 1734 1069 1313 
Q 1069 891 1326 650 
Q 1584 409 2034 409 
Q 2484 409 2743 651 
Q 3003 894 3003 1313 
Q 3003 1734 2745 1975 
Q 2488 2216 2034 2216 
z
M 1403 2484 
Q 997 2584 770 2862 
Q 544 3141 544 3541 
Q 544 4100 942 4425 
Q 1341 4750 2034 4750 
Q 2731 4750 3128 4425 
Q 3525 4100 3525 3541 
Q 3525 3141 3298 2862 
Q 3072 2584 2669 2484 
Q 3125 2378 3379 2068 
Q 3634 1759 3634 1313 
Q 3634 634 3220 271 
Q 2806 -91 2034 -91 
Q 1263 -91 848 271 
Q 434 634 434 1313 
Q 434 1759 690 2068 
Q 947 2378 1403 2484 
z
M 1172 3481 
Q 1172 3119 1398 2916 
Q 1625 2713 2034 2713 
Q 2441 2713 2670 2916 
Q 2900 3119 2900 3481 
Q 2900 3844 2670 4047 
Q 2441 4250 2034 4250 
Q 1625 4250 1398 4047 
Q 1172 3844 1172 3481 
z
" transform="scale(0.015625)"/>
       </defs>
       <use xlink:href="#DejaVuSans-38"/>
       <use xlink:href="#DejaVuSans-30" transform="translate(63.623047 0)"/>
      </g>
     </g>
    </g>
    <g id="xtick_6">
     <g id="line2d_6">
      <g>
       <use xlink:href="#mef9114d09e" x="675.193977" y="385.478125" style="stroke: #000000; stroke-width: 0.8"/>
      </g>
     </g>
     <g id="text_6">
      <!-- 100 -->
      <g transform="translate(665.650227 400.076562) scale(0.1 -0.1)">
       <defs>
        <path id="DejaVuSans-31" d="M 794 531 
L 1825 531 
L 1825 4091 
L 703 3866 
L 703 4441 
L 1819 4666 
L 2450 4666 
L 2450 531 
L 3481 531 
L 3481 0 
L 794 0 
L 794 531 
z
" transform="scale(0.015625)"/>
       </defs>
       <use xlink:href="#DejaVuSans-31"/>
       <use xlink:href="#DejaVuSans-30" transform="translate(63.623047 0)"/>
       <use xlink:href="#DejaVuSans-30" transform="translate(127.246094 0)"/>
      </g>
     </g>
    </g>
    <g id="text_7">
     <!-- Epoch -->
     <g transform="translate(359.210312 413.754687) scale(0.1 -0.1)">
      <defs>
       <path id="DejaVuSans-45" d="M 628 4666 
L 3578 4666 
L 3578 4134 
L 1259 4134 
L 1259 2753 
L 3481 2753 
L 3481 2222 
L 1259 2222 
L 1259 531 
L 3634 531 
L 3634 0 
L 628 0 
L 628 4666 
z
" transform="scale(0.015625)"/>
       <path id="DejaVuSans-70" d="M 1159 525 
L 1159 -1331 
L 581 -1331 
L 581 3500 
L 1159 3500 
L 1159 2969 
Q 1341 3281 1617 3432 
Q 1894 3584 2278 3584 
Q 2916 3584 3314 3078 
Q 3713 2572 3713 1747 
Q 3713 922 3314 415 
Q 2916 -91 2278 -91 
Q 1894 -91 1617 61 
Q 1341 213 1159 525 
z
M 3116 1747 
Q 3116 2381 2855 2742 
Q 2594 3103 2138 3103 
Q 1681 3103 1420 2742 
Q 1159 2381 1159 1747 
Q 1159 1113 1420 752 
Q 1681 391 2138 391 
Q 2594 391 2855 752 
Q 3116 1113 3116 1747 
z
" transform="scale(0.015625)"/>
       <path id="DejaVuSans-6f" d="M 1959 3097 
Q 1497 3097 1228 2736 
Q 959 2375 959 1747 
Q 959 1119 1226 758 
Q 1494 397 1959 397 
Q 2419 397 2687 759 
Q 2956 1122 2956 1747 
Q 2956 2369 2687 2733 
Q 2419 3097 1959 3097 
z
M 1959 3584 
Q 2709 3584 3137 3096 
Q 3566 2609 3566 1747 
Q 3566 888 3137 398 
Q 2709 -91 1959 -91 
Q 1206 -91 779 398 
Q 353 888 353 1747 
Q 353 2609 779 3096 
Q 1206 3584 1959 3584 
z
" transform="scale(0.015625)"/>
       <path id="DejaVuSans-63" d="M 3122 3366 
L 3122 2828 
Q 2878 2963 2633 3030 
Q 2388 3097 2138 3097 
Q 1578 3097 1268 2742 
Q 959 2388 959 1747 
Q 959 1106 1268 751 
Q 1578 397 2138 397 
Q 2388 397 2633 464 
Q 2878 531 3122 666 
L 3122 134 
Q 2881 22 2623 -34 
Q 2366 -91 2075 -91 
Q 1284 -91 818 406 
Q 353 903 353 1747 
Q 353 2603 823 3093 
Q 1294 3584 2113 3584 
Q 2378 3584 2631 3529 
Q 2884 3475 3122 3366 
z
" transform="scale(0.015625)"/>
       <path id="DejaVuSans-68" d="M 3513 2113 
L 3513 0 
L 2938 0 
L 2938 2094 
Q 2938 2591 2744 2837 
Q 2550 3084 2163 3084 
Q 1697 3084 1428 2787 
Q 1159 2491 1159 1978 
L 1159 0 
L 581 0 
L 581 4863 
L 1159 4863 
L 1159 2956 
Q 1366 3272 1645 3428 
Q 1925 3584 2291 3584 
Q 2894 3584 3203 3211 
Q 3513 2838 3513 2113 
z
" transform="scale(0.015625)"/>
      </defs>
      <use xlink:href="#DejaVuSans-45"/>
      <use xlink:href="#DejaVuSans-70" transform="translate(63.183594 0)"/>
      <use xlink:href="#DejaVuSans-6f" transform="translate(126.660156 0)"/>
      <use xlink:href="#DejaVuSans-63" transform="translate(187.841797 0)"/>
      <use xlink:href="#DejaVuSans-68" transform="translate(242.822266 0)"/>
     </g>
    </g>
   </g>
   <g id="matplotlib.axis_2">
    <g id="ytick_1">
     <g id="line2d_7">
      <defs>
       <path id="mdafb4c33cb" d="M 0 0 
L -3.5 0 
" style="stroke: #000000; stroke-width: 0.8"/>
      </defs>
      <g>
       <use xlink:href="#mdafb4c33cb" x="43.78125" y="375.045458" style="stroke: #000000; stroke-width: 0.8"/>
      </g>
     </g>
     <g id="text_8">
      <!-- 0.2 -->
      <g transform="translate(20.878125 378.844677) scale(0.1 -0.1)">
       <defs>
        <path id="DejaVuSans-2e" d="M 684 794 
L 1344 794 
L 1344 0 
L 684 0 
L 684 794 
z
" transform="scale(0.015625)"/>
       </defs>
       <use xlink:href="#DejaVuSans-30"/>
       <use xlink:href="#DejaVuSans-2e" transform="translate(63.623047 0)"/>
       <use xlink:href="#DejaVuSans-32" transform="translate(95.410156 0)"/>
      </g>
     </g>
    </g>
    <g id="ytick_2">
     <g id="line2d_8">
      <g>
       <use xlink:href="#mdafb4c33cb" x="43.78125" y="315.756859" style="stroke: #000000; stroke-width: 0.8"/>
      </g>
     </g>
     <g id="text_9">
      <!-- 0.4 -->
      <g transform="translate(20.878125 319.556078) scale(0.1 -0.1)">
       <use xlink:href="#DejaVuSans-30"/>
       <use xlink:href="#DejaVuSans-2e" transform="translate(63.623047 0)"/>
       <use xlink:href="#DejaVuSans-34" transform="translate(95.410156 0)"/>
      </g>
     </g>
    </g>
    <g id="ytick_3">
     <g id="line2d_9">
      <g>
       <use xlink:href="#mdafb4c33cb" x="43.78125" y="256.46826" style="stroke: #000000; stroke-width: 0.8"/>
      </g>
     </g>
     <g id="text_10">
      <!-- 0.6 -->
      <g transform="translate(20.878125 260.267479) scale(0.1 -0.1)">
       <use xlink:href="#DejaVuSans-30"/>
       <use xlink:href="#DejaVuSans-2e" transform="translate(63.623047 0)"/>
       <use xlink:href="#DejaVuSans-36" transform="translate(95.410156 0)"/>
      </g>
     </g>
    </g>
    <g id="ytick_4">
     <g id="line2d_10">
      <g>
       <use xlink:href="#mdafb4c33cb" x="43.78125" y="197.179661" style="stroke: #000000; stroke-width: 0.8"/>
      </g>
     </g>
     <g id="text_11">
      <!-- 0.8 -->
      <g transform="translate(20.878125 200.97888) scale(0.1 -0.1)">
       <use xlink:href="#DejaVuSans-30"/>
       <use xlink:href="#DejaVuSans-2e" transform="translate(63.623047 0)"/>
       <use xlink:href="#DejaVuSans-38" transform="translate(95.410156 0)"/>
      </g>
     </g>
    </g>
    <g id="ytick_5">
     <g id="line2d_11">
      <g>
       <use xlink:href="#mdafb4c33cb" x="43.78125" y="137.891062" style="stroke: #000000; stroke-width: 0.8"/>
      </g>
     </g>
     <g id="text_12">
      <!-- 1.0 -->
      <g transform="translate(20.878125 141.690281) scale(0.1 -0.1)">
       <use xlink:href="#DejaVuSans-31"/>
       <use xlink:href="#DejaVuSans-2e" transform="translate(63.623047 0)"/>
       <use xlink:href="#DejaVuSans-30" transform="translate(95.410156 0)"/>
      </g>
     </g>
    </g>
    <g id="ytick_6">
     <g id="line2d_12">
      <g>
       <use xlink:href="#mdafb4c33cb" x="43.78125" y="78.602464" style="stroke: #000000; stroke-width: 0.8"/>
      </g>
     </g>
     <g id="text_13">
      <!-- 1.2 -->
      <g transform="translate(20.878125 82.401682) scale(0.1 -0.1)">
       <use xlink:href="#DejaVuSans-31"/>
       <use xlink:href="#DejaVuSans-2e" transform="translate(63.623047 0)"/>
       <use xlink:href="#DejaVuSans-32" transform="translate(95.410156 0)"/>
      </g>
     </g>
    </g>
    <g id="text_14">
     <!-- Train Loss -->
     <g transform="translate(14.798438 228.448125) rotate(-90) scale(0.1 -0.1)">
      <defs>
       <path id="DejaVuSans-54" d="M -19 4666 
L 3928 4666 
L 3928 4134 
L 2272 4134 
L 2272 0 
L 1638 0 
L 1638 4134 
L -19 4134 
L -19 4666 
z
" transform="scale(0.015625)"/>
       <path id="DejaVuSans-72" d="M 2631 2963 
Q 2534 3019 2420 3045 
Q 2306 3072 2169 3072 
Q 1681 3072 1420 2755 
Q 1159 2438 1159 1844 
L 1159 0 
L 581 0 
L 581 3500 
L 1159 3500 
L 1159 2956 
Q 1341 3275 1631 3429 
Q 1922 3584 2338 3584 
Q 2397 3584 2469 3576 
Q 2541 3569 2628 3553 
L 2631 2963 
z
" transform="scale(0.015625)"/>
       <path id="DejaVuSans-61" d="M 2194 1759 
Q 1497 1759 1228 1600 
Q 959 1441 959 1056 
Q 959 750 1161 570 
Q 1363 391 1709 391 
Q 2188 391 2477 730 
Q 2766 1069 2766 1631 
L 2766 1759 
L 2194 1759 
z
M 3341 1997 
L 3341 0 
L 2766 0 
L 2766 531 
Q 2569 213 2275 61 
Q 1981 -91 1556 -91 
Q 1019 -91 701 211 
Q 384 513 384 1019 
Q 384 1609 779 1909 
Q 1175 2209 1959 2209 
L 2766 2209 
L 2766 2266 
Q 2766 2663 2505 2880 
Q 2244 3097 1772 3097 
Q 1472 3097 1187 3025 
Q 903 2953 641 2809 
L 641 3341 
Q 956 3463 1253 3523 
Q 1550 3584 1831 3584 
Q 2591 3584 2966 3190 
Q 3341 2797 3341 1997 
z
" transform="scale(0.015625)"/>
       <path id="DejaVuSans-69" d="M 603 3500 
L 1178 3500 
L 1178 0 
L 603 0 
L 603 3500 
z
M 603 4863 
L 1178 4863 
L 1178 4134 
L 603 4134 
L 603 4863 
z
" transform="scale(0.015625)"/>
       <path id="DejaVuSans-6e" d="M 3513 2113 
L 3513 0 
L 2938 0 
L 2938 2094 
Q 2938 2591 2744 2837 
Q 2550 3084 2163 3084 
Q 1697 3084 1428 2787 
Q 1159 2491 1159 1978 
L 1159 0 
L 581 0 
L 581 3500 
L 1159 3500 
L 1159 2956 
Q 1366 3272 1645 3428 
Q 1925 3584 2291 3584 
Q 2894 3584 3203 3211 
Q 3513 2838 3513 2113 
z
" transform="scale(0.015625)"/>
       <path id="DejaVuSans-20" transform="scale(0.015625)"/>
       <path id="DejaVuSans-4c" d="M 628 4666 
L 1259 4666 
L 1259 531 
L 3531 531 
L 3531 0 
L 628 0 
L 628 4666 
z
" transform="scale(0.015625)"/>
       <path id="DejaVuSans-73" d="M 2834 3397 
L 2834 2853 
Q 2591 2978 2328 3040 
Q 2066 3103 1784 3103 
Q 1356 3103 1142 2972 
Q 928 2841 928 2578 
Q 928 2378 1081 2264 
Q 1234 2150 1697 2047 
L 1894 2003 
Q 2506 1872 2764 1633 
Q 3022 1394 3022 966 
Q 3022 478 2636 193 
Q 2250 -91 1575 -91 
Q 1294 -91 989 -36 
Q 684 19 347 128 
L 347 722 
Q 666 556 975 473 
Q 1284 391 1588 391 
Q 1994 391 2212 530 
Q 2431 669 2431 922 
Q 2431 1156 2273 1281 
Q 2116 1406 1581 1522 
L 1381 1569 
Q 847 1681 609 1914 
Q 372 2147 372 2553 
Q 372 3047 722 3315 
Q 1072 3584 1716 3584 
Q 2034 3584 2315 3537 
Q 2597 3491 2834 3397 
z
" transform="scale(0.015625)"/>
      </defs>
      <use xlink:href="#DejaVuSans-54"/>
      <use xlink:href="#DejaVuSans-72" transform="translate(46.333984 0)"/>
      <use xlink:href="#DejaVuSans-61" transform="translate(87.447266 0)"/>
      <use xlink:href="#DejaVuSans-69" transform="translate(148.726562 0)"/>
      <use xlink:href="#DejaVuSans-6e" transform="translate(176.509766 0)"/>
      <use xlink:href="#DejaVuSans-20" transform="translate(239.888672 0)"/>
      <use xlink:href="#DejaVuSans-4c" transform="translate(271.675781 0)"/>
      <use xlink:href="#DejaVuSans-6f" transform="translate(325.638672 0)"/>
      <use xlink:href="#DejaVuSans-73" transform="translate(386.820312 0)"/>
      <use xlink:href="#DejaVuSans-73" transform="translate(438.919922 0)"/>
     </g>
    </g>
   </g>
   <g id="line2d_13">
    <path d="M 73.848523 38.825398 
L 79.922719 158.217799 
L 85.996916 218.016582 
L 92.071112 249.183465 
L 98.145309 293.952114 
L 104.219505 313.586613 
L 110.293702 329.268872 
L 116.367898 329.076439 
L 122.442095 333.435699 
L 128.516291 334.85398 
L 134.590488 336.531299 
L 140.664684 343.643883 
L 146.738881 338.647936 
L 152.813077 343.551363 
L 158.887274 352.309041 
L 164.96147 354.277518 
L 171.035667 348.378564 
L 177.109863 354.284779 
L 183.18406 350.49093 
L 189.258256 351.556085 
L 195.332453 354.266412 
L 201.406649 353.983715 
L 207.480846 354.705932 
L 213.555042 354.242529 
L 219.629239 353.503609 
L 225.703435 354.323536 
L 231.777632 351.678832 
L 237.851829 326.654545 
L 243.926025 332.193552 
L 250.000222 336.423929 
L 256.074418 336.996716 
L 262.148615 339.627054 
L 268.222811 346.096683 
L 274.297008 339.714047 
L 280.371204 335.699179 
L 286.445401 334.507215 
L 292.519597 337.96998 
L 298.593794 344.48397 
L 304.66799 339.462649 
L 310.742187 319.569489 
L 316.816383 320.023551 
L 322.89058 346.984023 
L 328.964776 354.89629 
L 335.038973 357.3774 
L 341.113169 356.347804 
L 347.187366 356.901661 
L 353.261562 358.829119 
L 359.335759 359.222839 
L 365.409955 359.963525 
L 371.484152 354.907217 
L 377.558348 359.843418 
L 383.632545 358.972314 
L 389.706741 358.856325 
L 395.780938 357.703085 
L 401.855134 358.02399 
L 407.929331 359.937451 
L 414.003527 358.986767 
L 420.077724 355.803798 
L 426.15192 357.533384 
L 432.226117 359.319239 
L 438.300313 359.400511 
L 444.37451 361.197965 
L 450.448706 361.30354 
L 456.522903 360.528321 
L 462.597099 361.324651 
L 468.671296 361.937459 
L 474.745492 362.975892 
L 480.819689 360.509933 
L 486.893885 359.413427 
L 492.968082 358.913323 
L 499.042278 358.412911 
L 505.116475 352.62939 
L 511.190671 359.459593 
L 517.264868 361.819948 
L 523.339065 361.768818 
L 529.413261 359.4533 
L 535.487458 362.965168 
L 541.561654 361.724359 
L 547.635851 361.487015 
L 553.710047 357.213003 
L 559.784244 362.624659 
L 565.85844 365.425918 
L 571.932637 365.367255 
L 578.006833 358.074183 
L 584.08103 365.170399 
L 590.155226 363.675243 
L 596.229423 364.926421 
L 602.303619 363.690889 
L 608.377816 367.615488 
L 614.452012 365.586223 
L 620.526209 368.250423 
L 626.600405 364.983433 
L 632.674602 362.577879 
L 638.748798 366.354889 
L 644.822995 367.557975 
L 650.897191 366.549364 
L 656.971388 368.970852 
L 663.045584 368.735364 
L 669.119781 367.411964 
L 675.193977 368.209333 
" clip-path="url(#p6033c39e0a)" style="fill: none; stroke: #1f77b4; stroke-width: 1.5; stroke-linecap: square"/>
   </g>
   <g id="line2d_14">
    <path d="M 73.848523 70.208859 
L 79.922719 212.778611 
L 85.996916 303.320122 
L 92.071112 318.545529 
L 98.145309 322.066666 
L 104.219505 325.467321 
L 110.293702 327.566584 
L 116.367898 328.269048 
L 122.442095 329.801046 
L 128.516291 329.379598 
L 134.590488 330.135484 
L 140.664684 328.120233 
L 146.738881 319.071796 
L 152.813077 331.969862 
L 158.887274 330.435941 
L 164.96147 331.144826 
L 171.035667 331.378629 
L 177.109863 331.505392 
L 183.18406 332.253811 
L 189.258256 331.799037 
L 195.332453 332.535003 
L 201.406649 333.156247 
L 207.480846 332.666705 
L 213.555042 331.913366 
L 219.629239 332.561928 
L 225.703435 333.485108 
L 231.777632 331.997786 
L 237.851829 332.57464 
L 243.926025 332.143222 
L 250.000222 333.077233 
L 256.074418 333.029373 
L 262.148615 332.846233 
L 268.222811 333.0125 
L 274.297008 333.299 
L 280.371204 333.816276 
L 286.445401 333.567266 
L 292.519597 333.470058 
L 298.593794 333.789953 
L 304.66799 332.474931 
L 310.742187 331.546612 
L 316.816383 330.678928 
L 322.89058 335.0282 
L 328.964776 334.577166 
L 335.038973 318.721089 
L 341.113169 333.264026 
L 347.187366 334.618331 
L 353.261562 337.739536 
L 359.335759 341.878266 
L 365.409955 325.335887 
L 371.484152 319.408227 
L 377.558348 316.002064 
L 383.632545 303.777969 
L 389.706741 322.986196 
L 395.780938 333.938269 
L 401.855134 335.776472 
L 407.929331 339.683707 
L 414.003527 344.510301 
L 420.077724 351.280898 
L 426.15192 350.854675 
L 432.226117 352.897192 
L 438.300313 348.057418 
L 444.37451 355.347317 
L 450.448706 355.331173 
L 456.522903 348.50589 
L 462.597099 348.949701 
L 468.671296 345.460915 
L 474.745492 351.116358 
L 480.819689 354.68737 
L 486.893885 354.81509 
L 492.968082 348.459387 
L 499.042278 355.070298 
L 505.116475 352.481345 
L 511.190671 357.011548 
L 517.264868 357.254934 
L 523.339065 355.377654 
L 529.413261 355.677748 
L 535.487458 359.069937 
L 541.561654 361.32595 
L 547.635851 360.762285 
L 553.710047 359.108106 
L 559.784244 358.083592 
L 565.85844 360.428024 
L 571.932637 355.045896 
L 578.006833 352.625314 
L 584.08103 357.604509 
L 590.155226 357.936575 
L 596.229423 361.097035 
L 602.303619 358.113521 
L 608.377816 359.373918 
L 614.452012 358.415142 
L 620.526209 362.116474 
L 626.600405 362.281598 
L 632.674602 359.942146 
L 638.748798 361.460296 
L 644.822995 361.005043 
L 650.897191 337.885829 
L 656.971388 335.431918 
L 663.045584 360.673279 
L 669.119781 361.888337 
L 675.193977 362.313656 
" clip-path="url(#p6033c39e0a)" style="fill: none; stroke: #ff7f0e; stroke-width: 1.5; stroke-linecap: square"/>
   </g>
   <g id="line2d_15">
    <path d="M 73.848523 60.414122 
L 79.922719 243.132488 
L 85.996916 304.100303 
L 92.071112 316.745251 
L 98.145309 313.235875 
L 104.219505 309.94002 
L 110.293702 325.604633 
L 116.367898 327.231106 
L 122.442095 328.065899 
L 128.516291 328.320854 
L 134.590488 328.837588 
L 140.664684 330.198049 
L 146.738881 329.259196 
L 152.813077 330.969 
L 158.887274 331.058046 
L 164.96147 329.994151 
L 171.035667 330.827609 
L 177.109863 331.837181 
L 183.18406 331.408319 
L 189.258256 331.423843 
L 195.332453 332.025 
L 201.406649 332.24045 
L 207.480846 332.940426 
L 213.555042 332.195159 
L 219.629239 332.252018 
L 225.703435 332.260261 
L 231.777632 332.567405 
L 237.851829 332.684417 
L 243.926025 332.844177 
L 250.000222 333.308495 
L 256.074418 332.612903 
L 262.148615 332.610757 
L 268.222811 333.653461 
L 274.297008 332.193437 
L 280.371204 333.032736 
L 286.445401 333.018253 
L 292.519597 332.83414 
L 298.593794 333.452443 
L 304.66799 332.254593 
L 310.742187 332.929772 
L 316.816383 332.790233 
L 322.89058 333.590934 
L 328.964776 333.398083 
L 335.038973 333.210134 
L 341.113169 332.712441 
L 347.187366 332.93549 
L 353.261562 327.181576 
L 359.335759 326.892011 
L 365.409955 318.268913 
L 371.484152 330.104695 
L 377.558348 329.041064 
L 383.632545 328.627808 
L 389.706741 329.610172 
L 395.780938 328.698247 
L 401.855134 329.554699 
L 407.929331 330.188252 
L 414.003527 329.865892 
L 420.077724 329.991557 
L 426.15192 331.319347 
L 432.226117 329.549338 
L 438.300313 329.959382 
L 444.37451 330.659633 
L 450.448706 330.645567 
L 456.522903 330.940614 
L 462.597099 329.725765 
L 468.671296 331.857526 
L 474.745492 331.198789 
L 480.819689 331.661435 
L 486.893885 328.809742 
L 492.968082 331.310197 
L 499.042278 330.722193 
L 505.116475 329.820345 
L 511.190671 331.763448 
L 517.264868 335.879011 
L 523.339065 336.12779 
L 529.413261 332.796312 
L 535.487458 331.195302 
L 541.561654 331.134299 
L 547.635851 333.492695 
L 553.710047 335.536851 
L 559.784244 333.401304 
L 565.85844 332.648203 
L 571.932637 335.959922 
L 578.006833 340.423314 
L 584.08103 331.92709 
L 590.155226 331.859406 
L 596.229423 332.376241 
L 602.303619 331.920996 
L 608.377816 334.33202 
L 614.452012 334.307956 
L 620.526209 334.845522 
L 626.600405 338.259606 
L 632.674602 337.51433 
L 638.748798 344.427579 
L 644.822995 352.798509 
L 650.897191 356.203656 
L 656.971388 354.459634 
L 663.045584 353.996801 
L 669.119781 355.154988 
L 675.193977 350.865999 
" clip-path="url(#p6033c39e0a)" style="fill: none; stroke: #2ca02c; stroke-width: 1.5; stroke-linecap: square"/>
   </g>
   <g id="line2d_16">
    <path d="M 73.848523 79.843784 
L 79.922719 206.495725 
L 85.996916 284.267272 
L 92.071112 247.704948 
L 98.145309 304.812022 
L 104.219505 316.866676 
L 110.293702 322.911334 
L 116.367898 322.182536 
L 122.442095 315.38142 
L 128.516291 307.969605 
L 134.590488 325.594576 
L 140.664684 326.240028 
L 146.738881 327.398429 
L 152.813077 327.803784 
L 158.887274 329.320847 
L 164.96147 329.320484 
L 171.035667 330.354555 
L 177.109863 330.221873 
L 183.18406 330.310587 
L 189.258256 330.143893 
L 195.332453 331.363958 
L 201.406649 330.648055 
L 207.480846 331.757473 
L 213.555042 331.860881 
L 219.629239 331.774327 
L 225.703435 331.682765 
L 231.777632 331.188606 
L 237.851829 331.568298 
L 243.926025 332.182025 
L 250.000222 331.713924 
L 256.074418 332.265131 
L 262.148615 332.018103 
L 268.222811 332.791853 
L 274.297008 332.207542 
L 280.371204 332.816577 
L 286.445401 332.852019 
L 292.519597 332.542849 
L 298.593794 331.734361 
L 304.66799 332.4655 
L 310.742187 332.731292 
L 316.816383 332.758125 
L 322.89058 332.482482 
L 328.964776 332.783181 
L 335.038973 333.140797 
L 341.113169 332.964793 
L 347.187366 332.998859 
L 353.261562 332.963056 
L 359.335759 332.976355 
L 365.409955 332.989572 
L 371.484152 332.956671 
L 377.558348 332.756702 
L 383.632545 332.583863 
L 389.706741 332.429487 
L 395.780938 333.240216 
L 401.855134 332.645145 
L 407.929331 332.910759 
L 414.003527 333.689323 
L 420.077724 333.210099 
L 426.15192 333.414576 
L 432.226117 333.389005 
L 438.300313 333.462803 
L 444.37451 333.357791 
L 450.448706 333.515203 
L 456.522903 333.293652 
L 462.597099 333.07595 
L 468.671296 332.569243 
L 474.745492 333.352948 
L 480.819689 333.250711 
L 486.893885 333.376346 
L 492.968082 333.240053 
L 499.042278 333.379661 
L 505.116475 333.243882 
L 511.190671 333.343638 
L 517.264868 332.937118 
L 523.339065 333.434891 
L 529.413261 333.36285 
L 535.487458 333.200599 
L 541.561654 333.564977 
L 547.635851 333.748184 
L 553.710047 333.237504 
L 559.784244 333.594805 
L 565.85844 333.521824 
L 571.932637 333.670042 
L 578.006833 333.044314 
L 584.08103 333.224554 
L 590.155226 333.584969 
L 596.229423 333.857644 
L 602.303619 333.511103 
L 608.377816 332.613982 
L 614.452012 333.424026 
L 620.526209 333.212301 
L 626.600405 333.431052 
L 632.674602 333.361941 
L 638.748798 333.940223 
L 644.822995 335.50831 
L 650.897191 335.67843 
L 656.971388 333.889063 
L 663.045584 315.993883 
L 669.119781 66.41431 
L 675.193977 304.652623 
" clip-path="url(#p6033c39e0a)" style="fill: none; stroke: #d62728; stroke-width: 1.5; stroke-linecap: square"/>
   </g>
   <g id="line2d_17">
    <path d="M 73.848523 52.415096 
L 79.922719 172.001814 
L 85.996916 265.710229 
L 92.071112 298.706568 
L 98.145309 309.656915 
L 104.219505 316.04397 
L 110.293702 316.539144 
L 116.367898 320.559283 
L 122.442095 316.672286 
L 128.516291 319.199215 
L 134.590488 319.395486 
L 140.664684 320.680532 
L 146.738881 321.378931 
L 152.813077 322.954596 
L 158.887274 324.917318 
L 164.96147 328.447201 
L 171.035667 329.931951 
L 177.109863 330.904656 
L 183.18406 331.212813 
L 189.258256 331.920352 
L 195.332453 333.017971 
L 201.406649 330.126025 
L 207.480846 334.264789 
L 213.555042 334.196515 
L 219.629239 336.117744 
L 225.703435 335.879173 
L 231.777632 337.741943 
L 237.851829 342.011959 
L 243.926025 344.363755 
L 250.000222 336.953286 
L 256.074418 344.457796 
L 262.148615 343.442792 
L 268.222811 348.376412 
L 274.297008 348.953337 
L 280.371204 349.294374 
L 286.445401 353.672585 
L 292.519597 347.715258 
L 298.593794 352.826042 
L 304.66799 355.630754 
L 310.742187 351.027595 
L 316.816383 352.359726 
L 322.89058 356.86924 
L 328.964776 352.617301 
L 335.038973 358.09682 
L 341.113169 358.146343 
L 347.187366 356.505943 
L 353.261562 356.412302 
L 359.335759 360.802784 
L 365.409955 354.693677 
L 371.484152 353.510117 
L 377.558348 360.183994 
L 383.632545 355.043174 
L 389.706741 353.172898 
L 395.780938 359.154433 
L 401.855134 358.593188 
L 407.929331 358.808112 
L 414.003527 353.326782 
L 420.077724 355.323627 
L 426.15192 343.771163 
L 432.226117 358.257805 
L 438.300313 358.140263 
L 444.37451 359.070756 
L 450.448706 356.659792 
L 456.522903 357.141978 
L 462.597099 360.497353 
L 468.671296 357.742143 
L 474.745492 356.791935 
L 480.819689 361.698583 
L 486.893885 362.981031 
L 492.968082 361.870392 
L 499.042278 363.570452 
L 505.116475 361.069831 
L 511.190671 364.122663 
L 517.264868 360.618064 
L 523.339065 359.748636 
L 529.413261 366.360628 
L 535.487458 362.236687 
L 541.561654 361.196751 
L 547.635851 354.195059 
L 553.710047 356.670096 
L 559.784244 359.720161 
L 565.85844 362.762486 
L 571.932637 361.428762 
L 578.006833 362.254284 
L 584.08103 362.79504 
L 590.155226 361.307859 
L 596.229423 359.494119 
L 602.303619 360.751573 
L 608.377816 361.203634 
L 614.452012 361.40592 
L 620.526209 360.779252 
L 626.600405 359.150665 
L 632.674602 362.879329 
L 638.748798 363.849795 
L 644.822995 361.823073 
L 650.897191 362.345061 
L 656.971388 360.022721 
L 663.045584 360.965739 
L 669.119781 364.830475 
L 675.193977 363.651011 
" clip-path="url(#p6033c39e0a)" style="fill: none; stroke: #9467bd; stroke-width: 1.5; stroke-linecap: square"/>
   </g>
   <g id="patch_3">
    <path d="M 43.78125 385.478125 
L 43.78125 22.318125 
" style="fill: none; stroke: #000000; stroke-width: 0.8; stroke-linejoin: miter; stroke-linecap: square"/>
   </g>
   <g id="patch_4">
    <path d="M 705.26125 385.478125 
L 705.26125 22.318125 
" style="fill: none; stroke: #000000; stroke-width: 0.8; stroke-linejoin: miter; stroke-linecap: square"/>
   </g>
   <g id="patch_5">
    <path d="M 43.78125 385.478125 
L 705.26125 385.478125 
" style="fill: none; stroke: #000000; stroke-width: 0.8; stroke-linejoin: miter; stroke-linecap: square"/>
   </g>
   <g id="patch_6">
    <path d="M 43.78125 22.318125 
L 705.26125 22.318125 
" style="fill: none; stroke: #000000; stroke-width: 0.8; stroke-linejoin: miter; stroke-linecap: square"/>
   </g>
   <g id="text_15">
    <!-- Combined Train Loss -->
    <g transform="translate(312.669688 16.318125) scale(0.12 -0.12)">
     <defs>
      <path id="DejaVuSans-43" d="M 4122 4306 
L 4122 3641 
Q 3803 3938 3442 4084 
Q 3081 4231 2675 4231 
Q 1875 4231 1450 3742 
Q 1025 3253 1025 2328 
Q 1025 1406 1450 917 
Q 1875 428 2675 428 
Q 3081 428 3442 575 
Q 3803 722 4122 1019 
L 4122 359 
Q 3791 134 3420 21 
Q 3050 -91 2638 -91 
Q 1578 -91 968 557 
Q 359 1206 359 2328 
Q 359 3453 968 4101 
Q 1578 4750 2638 4750 
Q 3056 4750 3426 4639 
Q 3797 4528 4122 4306 
z
" transform="scale(0.015625)"/>
      <path id="DejaVuSans-6d" d="M 3328 2828 
Q 3544 3216 3844 3400 
Q 4144 3584 4550 3584 
Q 5097 3584 5394 3201 
Q 5691 2819 5691 2113 
L 5691 0 
L 5113 0 
L 5113 2094 
Q 5113 2597 4934 2840 
Q 4756 3084 4391 3084 
Q 3944 3084 3684 2787 
Q 3425 2491 3425 1978 
L 3425 0 
L 2847 0 
L 2847 2094 
Q 2847 2600 2669 2842 
Q 2491 3084 2119 3084 
Q 1678 3084 1418 2786 
Q 1159 2488 1159 1978 
L 1159 0 
L 581 0 
L 581 3500 
L 1159 3500 
L 1159 2956 
Q 1356 3278 1631 3431 
Q 1906 3584 2284 3584 
Q 2666 3584 2933 3390 
Q 3200 3197 3328 2828 
z
" transform="scale(0.015625)"/>
      <path id="DejaVuSans-62" d="M 3116 1747 
Q 3116 2381 2855 2742 
Q 2594 3103 2138 3103 
Q 1681 3103 1420 2742 
Q 1159 2381 1159 1747 
Q 1159 1113 1420 752 
Q 1681 391 2138 391 
Q 2594 391 2855 752 
Q 3116 1113 3116 1747 
z
M 1159 2969 
Q 1341 3281 1617 3432 
Q 1894 3584 2278 3584 
Q 2916 3584 3314 3078 
Q 3713 2572 3713 1747 
Q 3713 922 3314 415 
Q 2916 -91 2278 -91 
Q 1894 -91 1617 61 
Q 1341 213 1159 525 
L 1159 0 
L 581 0 
L 581 4863 
L 1159 4863 
L 1159 2969 
z
" transform="scale(0.015625)"/>
      <path id="DejaVuSans-65" d="M 3597 1894 
L 3597 1613 
L 953 1613 
Q 991 1019 1311 708 
Q 1631 397 2203 397 
Q 2534 397 2845 478 
Q 3156 559 3463 722 
L 3463 178 
Q 3153 47 2828 -22 
Q 2503 -91 2169 -91 
Q 1331 -91 842 396 
Q 353 884 353 1716 
Q 353 2575 817 3079 
Q 1281 3584 2069 3584 
Q 2775 3584 3186 3129 
Q 3597 2675 3597 1894 
z
M 3022 2063 
Q 3016 2534 2758 2815 
Q 2500 3097 2075 3097 
Q 1594 3097 1305 2825 
Q 1016 2553 972 2059 
L 3022 2063 
z
" transform="scale(0.015625)"/>
      <path id="DejaVuSans-64" d="M 2906 2969 
L 2906 4863 
L 3481 4863 
L 3481 0 
L 2906 0 
L 2906 525 
Q 2725 213 2448 61 
Q 2172 -91 1784 -91 
Q 1150 -91 751 415 
Q 353 922 353 1747 
Q 353 2572 751 3078 
Q 1150 3584 1784 3584 
Q 2172 3584 2448 3432 
Q 2725 3281 2906 2969 
z
M 947 1747 
Q 947 1113 1208 752 
Q 1469 391 1925 391 
Q 2381 391 2643 752 
Q 2906 1113 2906 1747 
Q 2906 2381 2643 2742 
Q 2381 3103 1925 3103 
Q 1469 3103 1208 2742 
Q 947 2381 947 1747 
z
" transform="scale(0.015625)"/>
     </defs>
     <use xlink:href="#DejaVuSans-43"/>
     <use xlink:href="#DejaVuSans-6f" transform="translate(69.824219 0)"/>
     <use xlink:href="#DejaVuSans-6d" transform="translate(131.005859 0)"/>
     <use xlink:href="#DejaVuSans-62" transform="translate(228.417969 0)"/>
     <use xlink:href="#DejaVuSans-69" transform="translate(291.894531 0)"/>
     <use xlink:href="#DejaVuSans-6e" transform="translate(319.677734 0)"/>
     <use xlink:href="#DejaVuSans-65" transform="translate(383.056641 0)"/>
     <use xlink:href="#DejaVuSans-64" transform="translate(444.580078 0)"/>
     <use xlink:href="#DejaVuSans-20" transform="translate(508.056641 0)"/>
     <use xlink:href="#DejaVuSans-54" transform="translate(539.84375 0)"/>
     <use xlink:href="#DejaVuSans-72" transform="translate(586.177734 0)"/>
     <use xlink:href="#DejaVuSans-61" transform="translate(627.291016 0)"/>
     <use xlink:href="#DejaVuSans-69" transform="translate(688.570312 0)"/>
     <use xlink:href="#DejaVuSans-6e" transform="translate(716.353516 0)"/>
     <use xlink:href="#DejaVuSans-20" transform="translate(779.732422 0)"/>
     <use xlink:href="#DejaVuSans-4c" transform="translate(811.519531 0)"/>
     <use xlink:href="#DejaVuSans-6f" transform="translate(865.482422 0)"/>
     <use xlink:href="#DejaVuSans-73" transform="translate(926.664062 0)"/>
     <use xlink:href="#DejaVuSans-73" transform="translate(978.763672 0)"/>
    </g>
   </g>
   <g id="legend_1">
    <g id="patch_7">
     <path d="M 343.43375 103.70875 
L 405.60875 103.70875 
Q 407.60875 103.70875 407.60875 101.70875 
L 407.60875 29.318125 
Q 407.60875 27.318125 405.60875 27.318125 
L 343.43375 27.318125 
Q 341.43375 27.318125 341.43375 29.318125 
L 341.43375 101.70875 
Q 341.43375 103.70875 343.43375 103.70875 
z
" style="fill: #ffffff; opacity: 0.8; stroke: #cccccc; stroke-linejoin: miter"/>
    </g>
    <g id="line2d_18">
     <path d="M 345.43375 35.416562 
L 355.43375 35.416562 
L 365.43375 35.416562 
" style="fill: none; stroke: #1f77b4; stroke-width: 1.5; stroke-linecap: square"/>
    </g>
    <g id="text_16">
     <!-- Fold 1 -->
     <g transform="translate(373.43375 38.916562) scale(0.1 -0.1)">
      <defs>
       <path id="DejaVuSans-46" d="M 628 4666 
L 3309 4666 
L 3309 4134 
L 1259 4134 
L 1259 2759 
L 3109 2759 
L 3109 2228 
L 1259 2228 
L 1259 0 
L 628 0 
L 628 4666 
z
" transform="scale(0.015625)"/>
       <path id="DejaVuSans-6c" d="M 603 4863 
L 1178 4863 
L 1178 0 
L 603 0 
L 603 4863 
z
" transform="scale(0.015625)"/>
      </defs>
      <use xlink:href="#DejaVuSans-46"/>
      <use xlink:href="#DejaVuSans-6f" transform="translate(53.894531 0)"/>
      <use xlink:href="#DejaVuSans-6c" transform="translate(115.076172 0)"/>
      <use xlink:href="#DejaVuSans-64" transform="translate(142.859375 0)"/>
      <use xlink:href="#DejaVuSans-20" transform="translate(206.335938 0)"/>
      <use xlink:href="#DejaVuSans-31" transform="translate(238.123047 0)"/>
     </g>
    </g>
    <g id="line2d_19">
     <path d="M 345.43375 50.094688 
L 355.43375 50.094688 
L 365.43375 50.094688 
" style="fill: none; stroke: #ff7f0e; stroke-width: 1.5; stroke-linecap: square"/>
    </g>
    <g id="text_17">
     <!-- Fold 2 -->
     <g transform="translate(373.43375 53.594688) scale(0.1 -0.1)">
      <use xlink:href="#DejaVuSans-46"/>
      <use xlink:href="#DejaVuSans-6f" transform="translate(53.894531 0)"/>
      <use xlink:href="#DejaVuSans-6c" transform="translate(115.076172 0)"/>
      <use xlink:href="#DejaVuSans-64" transform="translate(142.859375 0)"/>
      <use xlink:href="#DejaVuSans-20" transform="translate(206.335938 0)"/>
      <use xlink:href="#DejaVuSans-32" transform="translate(238.123047 0)"/>
     </g>
    </g>
    <g id="line2d_20">
     <path d="M 345.43375 64.772812 
L 355.43375 64.772812 
L 365.43375 64.772812 
" style="fill: none; stroke: #2ca02c; stroke-width: 1.5; stroke-linecap: square"/>
    </g>
    <g id="text_18">
     <!-- Fold 3 -->
     <g transform="translate(373.43375 68.272812) scale(0.1 -0.1)">
      <defs>
       <path id="DejaVuSans-33" d="M 2597 2516 
Q 3050 2419 3304 2112 
Q 3559 1806 3559 1356 
Q 3559 666 3084 287 
Q 2609 -91 1734 -91 
Q 1441 -91 1130 -33 
Q 819 25 488 141 
L 488 750 
Q 750 597 1062 519 
Q 1375 441 1716 441 
Q 2309 441 2620 675 
Q 2931 909 2931 1356 
Q 2931 1769 2642 2001 
Q 2353 2234 1838 2234 
L 1294 2234 
L 1294 2753 
L 1863 2753 
Q 2328 2753 2575 2939 
Q 2822 3125 2822 3475 
Q 2822 3834 2567 4026 
Q 2313 4219 1838 4219 
Q 1578 4219 1281 4162 
Q 984 4106 628 3988 
L 628 4550 
Q 988 4650 1302 4700 
Q 1616 4750 1894 4750 
Q 2613 4750 3031 4423 
Q 3450 4097 3450 3541 
Q 3450 3153 3228 2886 
Q 3006 2619 2597 2516 
z
" transform="scale(0.015625)"/>
      </defs>
      <use xlink:href="#DejaVuSans-46"/>
      <use xlink:href="#DejaVuSans-6f" transform="translate(53.894531 0)"/>
      <use xlink:href="#DejaVuSans-6c" transform="translate(115.076172 0)"/>
      <use xlink:href="#DejaVuSans-64" transform="translate(142.859375 0)"/>
      <use xlink:href="#DejaVuSans-20" transform="translate(206.335938 0)"/>
      <use xlink:href="#DejaVuSans-33" transform="translate(238.123047 0)"/>
     </g>
    </g>
    <g id="line2d_21">
     <path d="M 345.43375 79.450938 
L 355.43375 79.450938 
L 365.43375 79.450938 
" style="fill: none; stroke: #d62728; stroke-width: 1.5; stroke-linecap: square"/>
    </g>
    <g id="text_19">
     <!-- Fold 4 -->
     <g transform="translate(373.43375 82.950938) scale(0.1 -0.1)">
      <use xlink:href="#DejaVuSans-46"/>
      <use xlink:href="#DejaVuSans-6f" transform="translate(53.894531 0)"/>
      <use xlink:href="#DejaVuSans-6c" transform="translate(115.076172 0)"/>
      <use xlink:href="#DejaVuSans-64" transform="translate(142.859375 0)"/>
      <use xlink:href="#DejaVuSans-20" transform="translate(206.335938 0)"/>
      <use xlink:href="#DejaVuSans-34" transform="translate(238.123047 0)"/>
     </g>
    </g>
    <g id="line2d_22">
     <path d="M 345.43375 94.129063 
L 355.43375 94.129063 
L 365.43375 94.129063 
" style="fill: none; stroke: #9467bd; stroke-width: 1.5; stroke-linecap: square"/>
    </g>
    <g id="text_20">
     <!-- Fold 5 -->
     <g transform="translate(373.43375 97.629063) scale(0.1 -0.1)">
      <defs>
       <path id="DejaVuSans-35" d="M 691 4666 
L 3169 4666 
L 3169 4134 
L 1269 4134 
L 1269 2991 
Q 1406 3038 1543 3061 
Q 1681 3084 1819 3084 
Q 2600 3084 3056 2656 
Q 3513 2228 3513 1497 
Q 3513 744 3044 326 
Q 2575 -91 1722 -91 
Q 1428 -91 1123 -41 
Q 819 9 494 109 
L 494 744 
Q 775 591 1075 516 
Q 1375 441 1709 441 
Q 2250 441 2565 725 
Q 2881 1009 2881 1497 
Q 2881 1984 2565 2268 
Q 2250 2553 1709 2553 
Q 1456 2553 1204 2497 
Q 953 2441 691 2322 
L 691 4666 
z
" transform="scale(0.015625)"/>
      </defs>
      <use xlink:href="#DejaVuSans-46"/>
      <use xlink:href="#DejaVuSans-6f" transform="translate(53.894531 0)"/>
      <use xlink:href="#DejaVuSans-6c" transform="translate(115.076172 0)"/>
      <use xlink:href="#DejaVuSans-64" transform="translate(142.859375 0)"/>
      <use xlink:href="#DejaVuSans-20" transform="translate(206.335938 0)"/>
      <use xlink:href="#DejaVuSans-35" transform="translate(238.123047 0)"/>
     </g>
    </g>
   </g>
  </g>
 </g>
 <defs>
  <clipPath id="p6033c39e0a">
   <rect x="43.78125" y="22.318125" width="661.48" height="363.16"/>
  </clipPath>
 </defs>
</svg>
