<?xml version="1.0" encoding="utf-8" standalone="no"?>
<!DOCTYPE svg PUBLIC "-//W3C//DTD SVG 1.1//EN"
  "http://www.w3.org/Graphics/SVG/1.1/DTD/svg11.dtd">
<svg xmlns:xlink="http://www.w3.org/1999/xlink" width="712.37125pt" height="423.034375pt" viewBox="0 0 712.37125 423.034375" xmlns="http://www.w3.org/2000/svg" version="1.1">
 <metadata>
  <rdf:RDF xmlns:dc="http://purl.org/dc/elements/1.1/" xmlns:cc="http://creativecommons.org/ns#" xmlns:rdf="http://www.w3.org/1999/02/22-rdf-syntax-ns#">
   <cc:Work>
    <dc:type rdf:resource="http://purl.org/dc/dcmitype/StillImage"/>
    <dc:date>2025-06-27T20:03:24.436948</dc:date>
    <dc:format>image/svg+xml</dc:format>
    <dc:creator>
     <cc:Agent>
      <dc:title>Matplotlib v3.10.0, https://matplotlib.org/</dc:title>
     </cc:Agent>
    </dc:creator>
   </cc:Work>
  </rdf:RDF>
 </metadata>
 <defs>
  <style type="text/css">*{stroke-linejoin: round; stroke-linecap: butt}</style>
 </defs>
 <g id="figure_1">
  <g id="patch_1">
   <path d="M 0 423.034375 
L 712.37125 423.034375 
L 712.37125 0 
L 0 0 
z
" style="fill: #ffffff"/>
  </g>
  <g id="axes_1">
   <g id="patch_2">
    <path d="M 43.78125 385.478125 
L 705.17125 385.478125 
L 705.17125 22.318125 
L 43.78125 22.318125 
z
" style="fill: #ffffff"/>
   </g>
   <g id="matplotlib.axis_1">
    <g id="xtick_1">
     <g id="line2d_1">
      <defs>
       <path id="m000865a7c4" d="M 0 0 
L 0 3.5 
" style="stroke: #000000; stroke-width: 0.8"/>
      </defs>
      <g>
       <use xlink:href="#m000865a7c4" x="67.771062" y="385.478125" style="stroke: #000000; stroke-width: 0.8"/>
      </g>
     </g>
     <g id="text_1">
      <!-- 0 -->
      <g transform="translate(64.589812 400.076562) scale(0.1 -0.1)">
       <defs>
        <path id="DejaVuSans-30" d="M 2034 4250 
Q 1547 4250 1301 3770 
Q 1056 3291 1056 2328 
Q 1056 1369 1301 889 
Q 1547 409 2034 409 
Q 2525 409 2770 889 
Q 3016 1369 3016 2328 
Q 3016 3291 2770 3770 
Q 2525 4250 2034 4250 
z
M 2034 4750 
Q 2819 4750 3233 4129 
Q 3647 3509 3647 2328 
Q 3647 1150 3233 529 
Q 2819 -91 2034 -91 
Q 1250 -91 836 529 
Q 422 1150 422 2328 
Q 422 3509 836 4129 
Q 1250 4750 2034 4750 
z
" transform="scale(0.015625)"/>
       </defs>
       <use xlink:href="#DejaVuSans-30"/>
      </g>
     </g>
    </g>
    <g id="xtick_2">
     <g id="line2d_2">
      <g>
       <use xlink:href="#m000865a7c4" x="189.238463" y="385.478125" style="stroke: #000000; stroke-width: 0.8"/>
      </g>
     </g>
     <g id="text_2">
      <!-- 20 -->
      <g transform="translate(182.875963 400.076562) scale(0.1 -0.1)">
       <defs>
        <path id="DejaVuSans-32" d="M 1228 531 
L 3431 531 
L 3431 0 
L 469 0 
L 469 531 
Q 828 903 1448 1529 
Q 2069 2156 2228 2338 
Q 2531 2678 2651 2914 
Q 2772 3150 2772 3378 
Q 2772 3750 2511 3984 
Q 2250 4219 1831 4219 
Q 1534 4219 1204 4116 
Q 875 4013 500 3803 
L 500 4441 
Q 881 4594 1212 4672 
Q 1544 4750 1819 4750 
Q 2544 4750 2975 4387 
Q 3406 4025 3406 3419 
Q 3406 3131 3298 2873 
Q 3191 2616 2906 2266 
Q 2828 2175 2409 1742 
Q 1991 1309 1228 531 
z
" transform="scale(0.015625)"/>
       </defs>
       <use xlink:href="#DejaVuSans-32"/>
       <use xlink:href="#DejaVuSans-30" transform="translate(63.623047 0)"/>
      </g>
     </g>
    </g>
    <g id="xtick_3">
     <g id="line2d_3">
      <g>
       <use xlink:href="#m000865a7c4" x="310.705864" y="385.478125" style="stroke: #000000; stroke-width: 0.8"/>
      </g>
     </g>
     <g id="text_3">
      <!-- 40 -->
      <g transform="translate(304.343364 400.076562) scale(0.1 -0.1)">
       <defs>
        <path id="DejaVuSans-34" d="M 2419 4116 
L 825 1625 
L 2419 1625 
L 2419 4116 
z
M 2253 4666 
L 3047 4666 
L 3047 1625 
L 3713 1625 
L 3713 1100 
L 3047 1100 
L 3047 0 
L 2419 0 
L 2419 1100 
L 313 1100 
L 313 1709 
L 2253 4666 
z
" transform="scale(0.015625)"/>
       </defs>
       <use xlink:href="#DejaVuSans-34"/>
       <use xlink:href="#DejaVuSans-30" transform="translate(63.623047 0)"/>
      </g>
     </g>
    </g>
    <g id="xtick_4">
     <g id="line2d_4">
      <g>
       <use xlink:href="#m000865a7c4" x="432.173266" y="385.478125" style="stroke: #000000; stroke-width: 0.8"/>
      </g>
     </g>
     <g id="text_4">
      <!-- 60 -->
      <g transform="translate(425.810766 400.076562) scale(0.1 -0.1)">
       <defs>
        <path id="DejaVuSans-36" d="M 2113 2584 
Q 1688 2584 1439 2293 
Q 1191 2003 1191 1497 
Q 1191 994 1439 701 
Q 1688 409 2113 409 
Q 2538 409 2786 701 
Q 3034 994 3034 1497 
Q 3034 2003 2786 2293 
Q 2538 2584 2113 2584 
z
M 3366 4563 
L 3366 3988 
Q 3128 4100 2886 4159 
Q 2644 4219 2406 4219 
Q 1781 4219 1451 3797 
Q 1122 3375 1075 2522 
Q 1259 2794 1537 2939 
Q 1816 3084 2150 3084 
Q 2853 3084 3261 2657 
Q 3669 2231 3669 1497 
Q 3669 778 3244 343 
Q 2819 -91 2113 -91 
Q 1303 -91 875 529 
Q 447 1150 447 2328 
Q 447 3434 972 4092 
Q 1497 4750 2381 4750 
Q 2619 4750 2861 4703 
Q 3103 4656 3366 4563 
z
" transform="scale(0.015625)"/>
       </defs>
       <use xlink:href="#DejaVuSans-36"/>
       <use xlink:href="#DejaVuSans-30" transform="translate(63.623047 0)"/>
      </g>
     </g>
    </g>
    <g id="xtick_5">
     <g id="line2d_5">
      <g>
       <use xlink:href="#m000865a7c4" x="553.640667" y="385.478125" style="stroke: #000000; stroke-width: 0.8"/>
      </g>
     </g>
     <g id="text_5">
      <!-- 80 -->
      <g transform="translate(547.278167 400.076562) scale(0.1 -0.1)">
       <defs>
        <path id="DejaVuSans-38" d="M 2034 2216 
Q 1584 2216 1326 1975 
Q 1069 1734 1069 1313 
Q 1069 891 1326 650 
Q 1584 409 2034 409 
Q 2484 409 2743 651 
Q 3003 894 3003 1313 
Q 3003 1734 2745 1975 
Q 2488 2216 2034 2216 
z
M 1403 2484 
Q 997 2584 770 2862 
Q 544 3141 544 3541 
Q 544 4100 942 4425 
Q 1341 4750 2034 4750 
Q 2731 4750 3128 4425 
Q 3525 4100 3525 3541 
Q 3525 3141 3298 2862 
Q 3072 2584 2669 2484 
Q 3125 2378 3379 2068 
Q 3634 1759 3634 1313 
Q 3634 634 3220 271 
Q 2806 -91 2034 -91 
Q 1263 -91 848 271 
Q 434 634 434 1313 
Q 434 1759 690 2068 
Q 947 2378 1403 2484 
z
M 1172 3481 
Q 1172 3119 1398 2916 
Q 1625 2713 2034 2713 
Q 2441 2713 2670 2916 
Q 2900 3119 2900 3481 
Q 2900 3844 2670 4047 
Q 2441 4250 2034 4250 
Q 1625 4250 1398 4047 
Q 1172 3844 1172 3481 
z
" transform="scale(0.015625)"/>
       </defs>
       <use xlink:href="#DejaVuSans-38"/>
       <use xlink:href="#DejaVuSans-30" transform="translate(63.623047 0)"/>
      </g>
     </g>
    </g>
    <g id="xtick_6">
     <g id="line2d_6">
      <g>
       <use xlink:href="#m000865a7c4" x="675.108068" y="385.478125" style="stroke: #000000; stroke-width: 0.8"/>
      </g>
     </g>
     <g id="text_6">
      <!-- 100 -->
      <g transform="translate(665.564318 400.076562) scale(0.1 -0.1)">
       <defs>
        <path id="DejaVuSans-31" d="M 794 531 
L 1825 531 
L 1825 4091 
L 703 3866 
L 703 4441 
L 1819 4666 
L 2450 4666 
L 2450 531 
L 3481 531 
L 3481 0 
L 794 0 
L 794 531 
z
" transform="scale(0.015625)"/>
       </defs>
       <use xlink:href="#DejaVuSans-31"/>
       <use xlink:href="#DejaVuSans-30" transform="translate(63.623047 0)"/>
       <use xlink:href="#DejaVuSans-30" transform="translate(127.246094 0)"/>
      </g>
     </g>
    </g>
    <g id="text_7">
     <!-- Epoch -->
     <g transform="translate(359.165313 413.754687) scale(0.1 -0.1)">
      <defs>
       <path id="DejaVuSans-45" d="M 628 4666 
L 3578 4666 
L 3578 4134 
L 1259 4134 
L 1259 2753 
L 3481 2753 
L 3481 2222 
L 1259 2222 
L 1259 531 
L 3634 531 
L 3634 0 
L 628 0 
L 628 4666 
z
" transform="scale(0.015625)"/>
       <path id="DejaVuSans-70" d="M 1159 525 
L 1159 -1331 
L 581 -1331 
L 581 3500 
L 1159 3500 
L 1159 2969 
Q 1341 3281 1617 3432 
Q 1894 3584 2278 3584 
Q 2916 3584 3314 3078 
Q 3713 2572 3713 1747 
Q 3713 922 3314 415 
Q 2916 -91 2278 -91 
Q 1894 -91 1617 61 
Q 1341 213 1159 525 
z
M 3116 1747 
Q 3116 2381 2855 2742 
Q 2594 3103 2138 3103 
Q 1681 3103 1420 2742 
Q 1159 2381 1159 1747 
Q 1159 1113 1420 752 
Q 1681 391 2138 391 
Q 2594 391 2855 752 
Q 3116 1113 3116 1747 
z
" transform="scale(0.015625)"/>
       <path id="DejaVuSans-6f" d="M 1959 3097 
Q 1497 3097 1228 2736 
Q 959 2375 959 1747 
Q 959 1119 1226 758 
Q 1494 397 1959 397 
Q 2419 397 2687 759 
Q 2956 1122 2956 1747 
Q 2956 2369 2687 2733 
Q 2419 3097 1959 3097 
z
M 1959 3584 
Q 2709 3584 3137 3096 
Q 3566 2609 3566 1747 
Q 3566 888 3137 398 
Q 2709 -91 1959 -91 
Q 1206 -91 779 398 
Q 353 888 353 1747 
Q 353 2609 779 3096 
Q 1206 3584 1959 3584 
z
" transform="scale(0.015625)"/>
       <path id="DejaVuSans-63" d="M 3122 3366 
L 3122 2828 
Q 2878 2963 2633 3030 
Q 2388 3097 2138 3097 
Q 1578 3097 1268 2742 
Q 959 2388 959 1747 
Q 959 1106 1268 751 
Q 1578 397 2138 397 
Q 2388 397 2633 464 
Q 2878 531 3122 666 
L 3122 134 
Q 2881 22 2623 -34 
Q 2366 -91 2075 -91 
Q 1284 -91 818 406 
Q 353 903 353 1747 
Q 353 2603 823 3093 
Q 1294 3584 2113 3584 
Q 2378 3584 2631 3529 
Q 2884 3475 3122 3366 
z
" transform="scale(0.015625)"/>
       <path id="DejaVuSans-68" d="M 3513 2113 
L 3513 0 
L 2938 0 
L 2938 2094 
Q 2938 2591 2744 2837 
Q 2550 3084 2163 3084 
Q 1697 3084 1428 2787 
Q 1159 2491 1159 1978 
L 1159 0 
L 581 0 
L 581 4863 
L 1159 4863 
L 1159 2956 
Q 1366 3272 1645 3428 
Q 1925 3584 2291 3584 
Q 2894 3584 3203 3211 
Q 3513 2838 3513 2113 
z
" transform="scale(0.015625)"/>
      </defs>
      <use xlink:href="#DejaVuSans-45"/>
      <use xlink:href="#DejaVuSans-70" transform="translate(63.183594 0)"/>
      <use xlink:href="#DejaVuSans-6f" transform="translate(126.660156 0)"/>
      <use xlink:href="#DejaVuSans-63" transform="translate(187.841797 0)"/>
      <use xlink:href="#DejaVuSans-68" transform="translate(242.822266 0)"/>
     </g>
    </g>
   </g>
   <g id="matplotlib.axis_2">
    <g id="ytick_1">
     <g id="line2d_7">
      <defs>
       <path id="m5a493022af" d="M 0 0 
L -3.5 0 
" style="stroke: #000000; stroke-width: 0.8"/>
      </defs>
      <g>
       <use xlink:href="#m5a493022af" x="43.78125" y="368.164671" style="stroke: #000000; stroke-width: 0.8"/>
      </g>
     </g>
     <g id="text_8">
      <!-- 1.3 -->
      <g transform="translate(20.878125 371.96389) scale(0.1 -0.1)">
       <defs>
        <path id="DejaVuSans-2e" d="M 684 794 
L 1344 794 
L 1344 0 
L 684 0 
L 684 794 
z
" transform="scale(0.015625)"/>
        <path id="DejaVuSans-33" d="M 2597 2516 
Q 3050 2419 3304 2112 
Q 3559 1806 3559 1356 
Q 3559 666 3084 287 
Q 2609 -91 1734 -91 
Q 1441 -91 1130 -33 
Q 819 25 488 141 
L 488 750 
Q 750 597 1062 519 
Q 1375 441 1716 441 
Q 2309 441 2620 675 
Q 2931 909 2931 1356 
Q 2931 1769 2642 2001 
Q 2353 2234 1838 2234 
L 1294 2234 
L 1294 2753 
L 1863 2753 
Q 2328 2753 2575 2939 
Q 2822 3125 2822 3475 
Q 2822 3834 2567 4026 
Q 2313 4219 1838 4219 
Q 1578 4219 1281 4162 
Q 984 4106 628 3988 
L 628 4550 
Q 988 4650 1302 4700 
Q 1616 4750 1894 4750 
Q 2613 4750 3031 4423 
Q 3450 4097 3450 3541 
Q 3450 3153 3228 2886 
Q 3006 2619 2597 2516 
z
" transform="scale(0.015625)"/>
       </defs>
       <use xlink:href="#DejaVuSans-31"/>
       <use xlink:href="#DejaVuSans-2e" transform="translate(63.623047 0)"/>
       <use xlink:href="#DejaVuSans-33" transform="translate(95.410156 0)"/>
      </g>
     </g>
    </g>
    <g id="ytick_2">
     <g id="line2d_8">
      <g>
       <use xlink:href="#m5a493022af" x="43.78125" y="308.338364" style="stroke: #000000; stroke-width: 0.8"/>
      </g>
     </g>
     <g id="text_9">
      <!-- 1.4 -->
      <g transform="translate(20.878125 312.137583) scale(0.1 -0.1)">
       <use xlink:href="#DejaVuSans-31"/>
       <use xlink:href="#DejaVuSans-2e" transform="translate(63.623047 0)"/>
       <use xlink:href="#DejaVuSans-34" transform="translate(95.410156 0)"/>
      </g>
     </g>
    </g>
    <g id="ytick_3">
     <g id="line2d_9">
      <g>
       <use xlink:href="#m5a493022af" x="43.78125" y="248.512056" style="stroke: #000000; stroke-width: 0.8"/>
      </g>
     </g>
     <g id="text_10">
      <!-- 1.5 -->
      <g transform="translate(20.878125 252.311275) scale(0.1 -0.1)">
       <defs>
        <path id="DejaVuSans-35" d="M 691 4666 
L 3169 4666 
L 3169 4134 
L 1269 4134 
L 1269 2991 
Q 1406 3038 1543 3061 
Q 1681 3084 1819 3084 
Q 2600 3084 3056 2656 
Q 3513 2228 3513 1497 
Q 3513 744 3044 326 
Q 2575 -91 1722 -91 
Q 1428 -91 1123 -41 
Q 819 9 494 109 
L 494 744 
Q 775 591 1075 516 
Q 1375 441 1709 441 
Q 2250 441 2565 725 
Q 2881 1009 2881 1497 
Q 2881 1984 2565 2268 
Q 2250 2553 1709 2553 
Q 1456 2553 1204 2497 
Q 953 2441 691 2322 
L 691 4666 
z
" transform="scale(0.015625)"/>
       </defs>
       <use xlink:href="#DejaVuSans-31"/>
       <use xlink:href="#DejaVuSans-2e" transform="translate(63.623047 0)"/>
       <use xlink:href="#DejaVuSans-35" transform="translate(95.410156 0)"/>
      </g>
     </g>
    </g>
    <g id="ytick_4">
     <g id="line2d_10">
      <g>
       <use xlink:href="#m5a493022af" x="43.78125" y="188.685749" style="stroke: #000000; stroke-width: 0.8"/>
      </g>
     </g>
     <g id="text_11">
      <!-- 1.6 -->
      <g transform="translate(20.878125 192.484968) scale(0.1 -0.1)">
       <use xlink:href="#DejaVuSans-31"/>
       <use xlink:href="#DejaVuSans-2e" transform="translate(63.623047 0)"/>
       <use xlink:href="#DejaVuSans-36" transform="translate(95.410156 0)"/>
      </g>
     </g>
    </g>
    <g id="ytick_5">
     <g id="line2d_11">
      <g>
       <use xlink:href="#m5a493022af" x="43.78125" y="128.859442" style="stroke: #000000; stroke-width: 0.8"/>
      </g>
     </g>
     <g id="text_12">
      <!-- 1.7 -->
      <g transform="translate(20.878125 132.65866) scale(0.1 -0.1)">
       <defs>
        <path id="DejaVuSans-37" d="M 525 4666 
L 3525 4666 
L 3525 4397 
L 1831 0 
L 1172 0 
L 2766 4134 
L 525 4134 
L 525 4666 
z
" transform="scale(0.015625)"/>
       </defs>
       <use xlink:href="#DejaVuSans-31"/>
       <use xlink:href="#DejaVuSans-2e" transform="translate(63.623047 0)"/>
       <use xlink:href="#DejaVuSans-37" transform="translate(95.410156 0)"/>
      </g>
     </g>
    </g>
    <g id="ytick_6">
     <g id="line2d_12">
      <g>
       <use xlink:href="#m5a493022af" x="43.78125" y="69.033134" style="stroke: #000000; stroke-width: 0.8"/>
      </g>
     </g>
     <g id="text_13">
      <!-- 1.8 -->
      <g transform="translate(20.878125 72.832353) scale(0.1 -0.1)">
       <use xlink:href="#DejaVuSans-31"/>
       <use xlink:href="#DejaVuSans-2e" transform="translate(63.623047 0)"/>
       <use xlink:href="#DejaVuSans-38" transform="translate(95.410156 0)"/>
      </g>
     </g>
    </g>
    <g id="text_14">
     <!-- Train Loss -->
     <g transform="translate(14.798438 228.448125) rotate(-90) scale(0.1 -0.1)">
      <defs>
       <path id="DejaVuSans-54" d="M -19 4666 
L 3928 4666 
L 3928 4134 
L 2272 4134 
L 2272 0 
L 1638 0 
L 1638 4134 
L -19 4134 
L -19 4666 
z
" transform="scale(0.015625)"/>
       <path id="DejaVuSans-72" d="M 2631 2963 
Q 2534 3019 2420 3045 
Q 2306 3072 2169 3072 
Q 1681 3072 1420 2755 
Q 1159 2438 1159 1844 
L 1159 0 
L 581 0 
L 581 3500 
L 1159 3500 
L 1159 2956 
Q 1341 3275 1631 3429 
Q 1922 3584 2338 3584 
Q 2397 3584 2469 3576 
Q 2541 3569 2628 3553 
L 2631 2963 
z
" transform="scale(0.015625)"/>
       <path id="DejaVuSans-61" d="M 2194 1759 
Q 1497 1759 1228 1600 
Q 959 1441 959 1056 
Q 959 750 1161 570 
Q 1363 391 1709 391 
Q 2188 391 2477 730 
Q 2766 1069 2766 1631 
L 2766 1759 
L 2194 1759 
z
M 3341 1997 
L 3341 0 
L 2766 0 
L 2766 531 
Q 2569 213 2275 61 
Q 1981 -91 1556 -91 
Q 1019 -91 701 211 
Q 384 513 384 1019 
Q 384 1609 779 1909 
Q 1175 2209 1959 2209 
L 2766 2209 
L 2766 2266 
Q 2766 2663 2505 2880 
Q 2244 3097 1772 3097 
Q 1472 3097 1187 3025 
Q 903 2953 641 2809 
L 641 3341 
Q 956 3463 1253 3523 
Q 1550 3584 1831 3584 
Q 2591 3584 2966 3190 
Q 3341 2797 3341 1997 
z
" transform="scale(0.015625)"/>
       <path id="DejaVuSans-69" d="M 603 3500 
L 1178 3500 
L 1178 0 
L 603 0 
L 603 3500 
z
M 603 4863 
L 1178 4863 
L 1178 4134 
L 603 4134 
L 603 4863 
z
" transform="scale(0.015625)"/>
       <path id="DejaVuSans-6e" d="M 3513 2113 
L 3513 0 
L 2938 0 
L 2938 2094 
Q 2938 2591 2744 2837 
Q 2550 3084 2163 3084 
Q 1697 3084 1428 2787 
Q 1159 2491 1159 1978 
L 1159 0 
L 581 0 
L 581 3500 
L 1159 3500 
L 1159 2956 
Q 1366 3272 1645 3428 
Q 1925 3584 2291 3584 
Q 2894 3584 3203 3211 
Q 3513 2838 3513 2113 
z
" transform="scale(0.015625)"/>
       <path id="DejaVuSans-20" transform="scale(0.015625)"/>
       <path id="DejaVuSans-4c" d="M 628 4666 
L 1259 4666 
L 1259 531 
L 3531 531 
L 3531 0 
L 628 0 
L 628 4666 
z
" transform="scale(0.015625)"/>
       <path id="DejaVuSans-73" d="M 2834 3397 
L 2834 2853 
Q 2591 2978 2328 3040 
Q 2066 3103 1784 3103 
Q 1356 3103 1142 2972 
Q 928 2841 928 2578 
Q 928 2378 1081 2264 
Q 1234 2150 1697 2047 
L 1894 2003 
Q 2506 1872 2764 1633 
Q 3022 1394 3022 966 
Q 3022 478 2636 193 
Q 2250 -91 1575 -91 
Q 1294 -91 989 -36 
Q 684 19 347 128 
L 347 722 
Q 666 556 975 473 
Q 1284 391 1588 391 
Q 1994 391 2212 530 
Q 2431 669 2431 922 
Q 2431 1156 2273 1281 
Q 2116 1406 1581 1522 
L 1381 1569 
Q 847 1681 609 1914 
Q 372 2147 372 2553 
Q 372 3047 722 3315 
Q 1072 3584 1716 3584 
Q 2034 3584 2315 3537 
Q 2597 3491 2834 3397 
z
" transform="scale(0.015625)"/>
      </defs>
      <use xlink:href="#DejaVuSans-54"/>
      <use xlink:href="#DejaVuSans-72" transform="translate(46.333984 0)"/>
      <use xlink:href="#DejaVuSans-61" transform="translate(87.447266 0)"/>
      <use xlink:href="#DejaVuSans-69" transform="translate(148.726562 0)"/>
      <use xlink:href="#DejaVuSans-6e" transform="translate(176.509766 0)"/>
      <use xlink:href="#DejaVuSans-20" transform="translate(239.888672 0)"/>
      <use xlink:href="#DejaVuSans-4c" transform="translate(271.675781 0)"/>
      <use xlink:href="#DejaVuSans-6f" transform="translate(325.638672 0)"/>
      <use xlink:href="#DejaVuSans-73" transform="translate(386.820312 0)"/>
      <use xlink:href="#DejaVuSans-73" transform="translate(438.919922 0)"/>
     </g>
    </g>
   </g>
   <g id="line2d_13">
    <path d="M 73.844432 208.11764 
L 79.917802 288.670809 
L 85.991172 279.564729 
L 92.064542 229.599511 
L 98.137912 297.742761 
L 104.211282 334.359857 
L 110.284652 306.077258 
L 116.358022 291.027782 
L 122.431392 302.652888 
L 128.504762 265.508171 
L 134.578132 156.831513 
L 140.651503 173.892018 
L 146.724873 167.098246 
L 152.798243 228.878098 
L 158.871613 182.62387 
L 164.944983 38.825398 
L 171.018353 87.97562 
L 177.091723 95.642244 
L 183.165093 96.412349 
L 189.238463 102.750236 
L 195.311833 118.809101 
L 201.385203 175.948723 
L 207.458573 106.415001 
L 213.531943 98.875923 
L 219.605313 126.404305 
L 225.678683 108.144446 
L 231.752053 99.97121 
L 237.825424 98.866213 
L 243.898794 96.334831 
L 249.972164 97.41535 
L 256.045534 95.731315 
L 262.118904 92.439415 
L 268.192274 94.182463 
L 274.265644 98.814871 
L 280.339014 96.788767 
L 286.412384 97.8643 
L 292.485754 95.228966 
L 298.559124 102.531694 
L 304.632494 120.778888 
L 310.705864 95.66939 
L 316.779234 96.160746 
L 322.852604 98.005611 
L 328.925975 92.522332 
L 334.999345 96.245808 
L 341.072715 95.941865 
L 347.146085 93.728028 
L 353.219455 97.270309 
L 359.292825 98.107985 
L 365.366195 105.056056 
L 371.439565 98.324744 
L 377.512935 96.584835 
L 383.586305 98.421893 
L 389.659675 99.493229 
L 395.733045 95.949677 
L 401.806415 98.059634 
L 407.879785 95.879205 
L 413.953155 98.503963 
L 420.026525 95.502351 
L 426.099896 96.436533 
L 432.173266 97.428281 
L 438.246636 96.729215 
L 444.320006 97.765272 
L 450.393376 100.066727 
L 456.466746 96.425341 
L 462.540116 98.317114 
L 468.613486 100.769831 
L 474.686856 88.847504 
L 480.760226 99.278147 
L 486.833596 96.905417 
L 492.906966 98.855421 
L 498.980336 97.80372 
L 505.053706 98.879331 
L 511.127076 100.869096 
L 517.200447 98.641888 
L 523.273817 90.871412 
L 529.347187 97.362733 
L 535.420557 99.078675 
L 541.493927 100.33941 
L 547.567297 96.48137 
L 553.640667 98.358167 
L 559.714037 94.697582 
L 565.787407 97.507369 
L 571.860777 98.681422 
L 577.934147 97.244175 
L 584.007517 93.109352 
L 590.080887 96.466393 
L 596.154257 92.41757 
L 602.227627 96.385197 
L 608.300997 95.433346 
L 614.374368 97.717448 
L 620.447738 98.233559 
L 626.521108 97.534541 
L 632.594478 96.959544 
L 638.667848 94.548103 
L 644.741218 97.511959 
L 650.814588 99.462088 
L 656.887958 98.629379 
L 662.961328 98.30643 
L 669.034698 91.919521 
L 675.108068 97.628809 
" clip-path="url(#pb8c6bd0820)" style="fill: none; stroke: #1f77b4; stroke-width: 1.5; stroke-linecap: square"/>
   </g>
   <g id="line2d_14">
    <path d="M 73.844432 95.428203 
L 79.917802 182.89422 
L 85.991172 218.771477 
L 92.064542 120.797202 
L 98.137912 134.670737 
L 104.211282 132.301767 
L 110.284652 130.303758 
L 116.358022 134.133882 
L 122.431392 132.231224 
L 128.504762 136.301431 
L 134.578132 135.131609 
L 140.651503 133.922529 
L 146.724873 134.596081 
L 152.798243 135.753467 
L 158.871613 134.468574 
L 164.944983 133.632579 
L 171.018353 127.751419 
L 177.091723 129.647017 
L 183.165093 131.567498 
L 189.238463 131.54458 
L 195.311833 133.125187 
L 201.385203 129.467121 
L 207.458573 133.950888 
L 213.531943 136.510018 
L 219.605313 136.00896 
L 225.678683 131.816672 
L 231.752053 135.085148 
L 237.825424 133.610464 
L 243.898794 133.609102 
L 249.972164 129.622376 
L 256.045534 132.174574 
L 262.118904 136.247568 
L 268.192274 132.589101 
L 274.265644 135.903682 
L 280.339014 135.119525 
L 286.412384 136.027007 
L 292.485754 134.403713 
L 298.559124 133.44295 
L 304.632494 134.687346 
L 310.705864 134.443832 
L 316.779234 136.519542 
L 322.852604 135.813852 
L 328.925975 136.612305 
L 334.999345 137.049559 
L 341.072715 135.751682 
L 347.146085 134.584812 
L 353.219455 134.503968 
L 359.292825 134.962067 
L 365.366195 131.431728 
L 371.439565 131.099355 
L 377.512935 134.886406 
L 383.586305 137.07627 
L 389.659675 134.451027 
L 395.733045 135.922519 
L 401.806415 137.741476 
L 407.879785 131.829071 
L 413.953155 132.19256 
L 420.026525 136.745857 
L 426.099896 134.991836 
L 432.173266 130.951532 
L 438.246636 130.971665 
L 444.320006 135.628533 
L 450.393376 130.382289 
L 456.466746 136.384961 
L 462.540116 132.647972 
L 468.613486 136.085605 
L 474.686856 128.622224 
L 480.760226 131.204003 
L 486.833596 131.661106 
L 492.906966 135.347689 
L 498.980336 130.767198 
L 505.053706 135.979714 
L 511.127076 131.668367 
L 517.200447 131.768142 
L 523.273817 133.985711 
L 529.347187 135.080568 
L 535.420557 133.684181 
L 541.493927 131.458124 
L 547.567297 133.729912 
L 553.640667 129.983068 
L 559.714037 132.873242 
L 565.787407 130.890534 
L 571.860777 135.048624 
L 577.934147 134.657817 
L 584.007517 132.174786 
L 590.080887 132.233051 
L 596.154257 135.267107 
L 602.227627 136.361811 
L 608.300997 133.135423 
L 614.374368 134.637857 
L 620.447738 137.019328 
L 626.521108 135.338434 
L 632.594478 138.219783 
L 638.667848 135.237186 
L 644.741218 133.35741 
L 650.814588 136.811535 
L 656.887958 133.745812 
L 662.961328 135.803184 
L 669.034698 133.632991 
L 675.108068 130.78671 
" clip-path="url(#pb8c6bd0820)" style="fill: none; stroke: #ff7f0e; stroke-width: 1.5; stroke-linecap: square"/>
   </g>
   <g id="line2d_15">
    <path d="M 73.844432 150.651323 
L 79.917802 239.987427 
L 85.991172 368.970852 
L 92.064542 281.538257 
L 98.137912 354.290645 
L 104.211282 342.82694 
L 110.284652 269.809634 
L 116.358022 80.500864 
L 122.431392 194.657566 
L 128.504762 261.951839 
L 134.578132 274.382861 
L 140.651503 107.860752 
L 146.724873 98.027774 
L 152.798243 94.411165 
L 158.871613 98.646851 
L 164.944983 99.210456 
L 171.018353 94.439669 
L 177.091723 96.749994 
L 183.165093 93.138316 
L 189.238463 97.44228 
L 195.311833 97.696473 
L 201.385203 95.354279 
L 207.458573 91.991232 
L 213.531943 98.406453 
L 219.605313 97.773572 
L 225.678683 98.328097 
L 231.752053 96.225444 
L 237.825424 97.582887 
L 243.898794 99.438533 
L 249.972164 91.224631 
L 256.045534 95.071726 
L 262.118904 99.223899 
L 268.192274 98.765838 
L 274.265644 96.790724 
L 280.339014 98.877223 
L 286.412384 98.073557 
L 292.485754 100.076485 
L 298.559124 101.28052 
L 304.632494 97.414641 
L 310.705864 98.420992 
L 316.779234 98.342999 
L 322.852604 97.31749 
L 328.925975 97.785592 
L 334.999345 97.994095 
L 341.072715 96.370592 
L 347.146085 97.468459 
L 353.219455 96.514549 
L 359.292825 98.547558 
L 365.366195 97.640059 
L 371.439565 94.034154 
L 377.512935 95.250292 
L 383.586305 98.424573 
L 389.659675 99.955293 
L 395.733045 96.279212 
L 401.806415 99.451936 
L 407.879785 97.692651 
L 413.953155 99.654265 
L 420.026525 96.455446 
L 426.099896 98.022734 
L 432.173266 96.958396 
L 438.246636 92.164243 
L 444.320006 94.989065 
L 450.393376 100.655141 
L 456.466746 96.50882 
L 462.540116 96.720823 
L 468.613486 93.561342 
L 474.686856 94.068639 
L 480.760226 95.794203 
L 486.833596 98.237705 
L 492.906966 98.712583 
L 498.980336 99.643712 
L 505.053706 99.945149 
L 511.127076 96.818163 
L 517.200447 94.719811 
L 523.273817 99.566908 
L 529.347187 102.097678 
L 535.420557 93.648458 
L 541.493927 98.724803 
L 547.567297 97.201473 
L 553.640667 99.155377 
L 559.714037 95.214769 
L 565.787407 98.98192 
L 571.860777 99.169711 
L 577.934147 100.621157 
L 584.007517 95.291961 
L 590.080887 95.53204 
L 596.154257 97.941812 
L 602.227627 93.70875 
L 608.300997 97.361932 
L 614.374368 100.059944 
L 620.447738 97.390274 
L 626.521108 99.598814 
L 632.594478 97.956088 
L 638.667848 99.976635 
L 644.741218 94.218712 
L 650.814588 99.944979 
L 656.887958 97.757152 
L 662.961328 96.009802 
L 669.034698 96.956241 
L 675.108068 97.456299 
" clip-path="url(#pb8c6bd0820)" style="fill: none; stroke: #2ca02c; stroke-width: 1.5; stroke-linecap: square"/>
   </g>
   <g id="line2d_16">
    <path d="M 73.844432 88.882003 
L 79.917802 98.453725 
L 85.991172 97.199091 
L 92.064542 101.364656 
L 98.137912 99.067276 
L 104.211282 96.726943 
L 110.284652 93.925756 
L 116.358022 98.128303 
L 122.431392 97.7478 
L 128.504762 94.787708 
L 134.578132 92.091919 
L 140.651503 95.651677 
L 146.724873 98.040234 
L 152.798243 97.5677 
L 158.871613 98.951278 
L 164.944983 98.917655 
L 171.018353 98.116259 
L 177.091723 98.233836 
L 183.165093 98.819229 
L 189.238463 93.390268 
L 195.311833 96.034635 
L 201.385203 84.433606 
L 207.458573 99.81321 
L 213.531943 96.036644 
L 219.605313 98.320702 
L 225.678683 96.339649 
L 231.752053 97.084918 
L 237.825424 99.172159 
L 243.898794 96.301924 
L 249.972164 100.6678 
L 256.045534 96.777199 
L 262.118904 94.856781 
L 268.192274 97.983103 
L 274.265644 96.628251 
L 280.339014 98.114135 
L 286.412384 96.466121 
L 292.485754 100.128483 
L 298.559124 96.106343 
L 304.632494 99.429234 
L 310.705864 100.558364 
L 316.779234 98.100289 
L 322.852604 99.348249 
L 328.925975 97.756384 
L 334.999345 97.035397 
L 341.072715 95.703378 
L 347.146085 94.384904 
L 353.219455 98.882969 
L 359.292825 97.586501 
L 365.366195 95.522193 
L 371.439565 95.274096 
L 377.512935 97.537376 
L 383.586305 99.295708 
L 389.659675 99.766343 
L 395.733045 96.046639 
L 401.806415 93.457035 
L 407.879785 100.20622 
L 413.953155 93.492883 
L 420.026525 95.220436 
L 426.099896 96.695489 
L 432.173266 93.558014 
L 438.246636 97.278095 
L 444.320006 99.779851 
L 450.393376 98.549717 
L 456.466746 98.740356 
L 462.540116 97.319982 
L 468.613486 98.001425 
L 474.686856 96.11169 
L 480.760226 97.666307 
L 486.833596 97.660072 
L 492.906966 100.207356 
L 498.980336 94.711598 
L 505.053706 95.155174 
L 511.127076 96.575498 
L 517.200447 96.561425 
L 523.273817 94.25439 
L 529.347187 99.078482 
L 535.420557 92.580668 
L 541.493927 98.000009 
L 547.567297 98.187295 
L 553.640667 94.690118 
L 559.714037 95.348011 
L 565.787407 100.596221 
L 571.860777 97.523052 
L 577.934147 100.887096 
L 584.007517 100.534721 
L 590.080887 97.576305 
L 596.154257 100.088348 
L 602.227627 97.403659 
L 608.300997 97.524051 
L 614.374368 97.542966 
L 620.447738 97.575562 
L 626.521108 97.076062 
L 632.594478 96.609586 
L 638.667848 96.106424 
L 644.741218 97.978973 
L 650.814588 99.997298 
L 656.887958 99.933998 
L 662.961328 97.663442 
L 669.034698 97.570684 
L 675.108068 99.22588 
" clip-path="url(#pb8c6bd0820)" style="fill: none; stroke: #d62728; stroke-width: 1.5; stroke-linecap: square"/>
   </g>
   <g id="line2d_17">
    <path d="M 73.844432 90.831356 
L 79.917802 95.302344 
L 85.991172 98.06952 
L 92.064542 96.138727 
L 98.137912 95.930895 
L 104.211282 94.715018 
L 110.284652 93.220463 
L 116.358022 96.839864 
L 122.431392 96.806867 
L 128.504762 92.857749 
L 134.578132 97.548313 
L 140.651503 95.6004 
L 146.724873 100.20394 
L 152.798243 97.050475 
L 158.871613 97.039884 
L 164.944983 95.421703 
L 171.018353 99.266283 
L 177.091723 91.914631 
L 183.165093 93.815846 
L 189.238463 101.308433 
L 195.311833 96.931781 
L 201.385203 98.044877 
L 207.458573 92.974842 
L 213.531943 92.73559 
L 219.605313 98.641537 
L 225.678683 93.268174 
L 231.752053 97.322237 
L 237.825424 96.152877 
L 243.898794 96.961658 
L 249.972164 93.663784 
L 256.045534 98.802168 
L 262.118904 97.887549 
L 268.192274 99.053485 
L 274.265644 99.745805 
L 280.339014 98.981804 
L 286.412384 92.115805 
L 292.485754 93.50045 
L 298.559124 99.12163 
L 304.632494 98.19303 
L 310.705864 98.39573 
L 316.779234 100.350806 
L 322.852604 97.787477 
L 328.925975 95.66441 
L 334.999345 98.646467 
L 341.072715 98.81583 
L 347.146085 94.339375 
L 353.219455 102.38264 
L 359.292825 95.715346 
L 365.366195 98.51466 
L 371.439565 99.408285 
L 377.512935 99.376767 
L 383.586305 95.046954 
L 389.659675 98.94846 
L 395.733045 96.909446 
L 401.806415 97.678371 
L 407.879785 98.004856 
L 413.953155 98.605855 
L 420.026525 96.818663 
L 426.099896 94.453301 
L 432.173266 97.778999 
L 438.246636 94.80844 
L 444.320006 99.075479 
L 450.393376 95.243486 
L 456.466746 99.602263 
L 462.540116 100.227431 
L 468.613486 95.649598 
L 474.686856 97.872317 
L 480.760226 96.633655 
L 486.833596 94.712527 
L 492.906966 97.56976 
L 498.980336 98.163701 
L 505.053706 96.252405 
L 511.127076 97.948777 
L 517.200447 98.363116 
L 523.273817 96.149298 
L 529.347187 95.207922 
L 535.420557 99.781492 
L 541.493927 99.255536 
L 547.567297 99.254447 
L 553.640667 98.70172 
L 559.714037 97.037036 
L 565.787407 93.707337 
L 571.860777 101.576765 
L 577.934147 95.74125 
L 584.007517 95.980456 
L 590.080887 98.044979 
L 596.154257 94.586744 
L 602.227627 94.861495 
L 608.300997 97.191556 
L 614.374368 96.180629 
L 620.447738 97.648487 
L 626.521108 92.972674 
L 632.594478 100.172595 
L 638.667848 97.136997 
L 644.741218 97.386625 
L 650.814588 94.953867 
L 656.887958 94.845571 
L 662.961328 98.327663 
L 669.034698 98.556285 
L 675.108068 98.427151 
" clip-path="url(#pb8c6bd0820)" style="fill: none; stroke: #9467bd; stroke-width: 1.5; stroke-linecap: square"/>
   </g>
   <g id="patch_3">
    <path d="M 43.78125 385.478125 
L 43.78125 22.318125 
" style="fill: none; stroke: #000000; stroke-width: 0.8; stroke-linejoin: miter; stroke-linecap: square"/>
   </g>
   <g id="patch_4">
    <path d="M 705.17125 385.478125 
L 705.17125 22.318125 
" style="fill: none; stroke: #000000; stroke-width: 0.8; stroke-linejoin: miter; stroke-linecap: square"/>
   </g>
   <g id="patch_5">
    <path d="M 43.78125 385.478125 
L 705.17125 385.478125 
" style="fill: none; stroke: #000000; stroke-width: 0.8; stroke-linejoin: miter; stroke-linecap: square"/>
   </g>
   <g id="patch_6">
    <path d="M 43.78125 22.318125 
L 705.17125 22.318125 
" style="fill: none; stroke: #000000; stroke-width: 0.8; stroke-linejoin: miter; stroke-linecap: square"/>
   </g>
   <g id="text_15">
    <!-- Combined Train Loss -->
    <g transform="translate(312.624688 16.318125) scale(0.12 -0.12)">
     <defs>
      <path id="DejaVuSans-43" d="M 4122 4306 
L 4122 3641 
Q 3803 3938 3442 4084 
Q 3081 4231 2675 4231 
Q 1875 4231 1450 3742 
Q 1025 3253 1025 2328 
Q 1025 1406 1450 917 
Q 1875 428 2675 428 
Q 3081 428 3442 575 
Q 3803 722 4122 1019 
L 4122 359 
Q 3791 134 3420 21 
Q 3050 -91 2638 -91 
Q 1578 -91 968 557 
Q 359 1206 359 2328 
Q 359 3453 968 4101 
Q 1578 4750 2638 4750 
Q 3056 4750 3426 4639 
Q 3797 4528 4122 4306 
z
" transform="scale(0.015625)"/>
      <path id="DejaVuSans-6d" d="M 3328 2828 
Q 3544 3216 3844 3400 
Q 4144 3584 4550 3584 
Q 5097 3584 5394 3201 
Q 5691 2819 5691 2113 
L 5691 0 
L 5113 0 
L 5113 2094 
Q 5113 2597 4934 2840 
Q 4756 3084 4391 3084 
Q 3944 3084 3684 2787 
Q 3425 2491 3425 1978 
L 3425 0 
L 2847 0 
L 2847 2094 
Q 2847 2600 2669 2842 
Q 2491 3084 2119 3084 
Q 1678 3084 1418 2786 
Q 1159 2488 1159 1978 
L 1159 0 
L 581 0 
L 581 3500 
L 1159 3500 
L 1159 2956 
Q 1356 3278 1631 3431 
Q 1906 3584 2284 3584 
Q 2666 3584 2933 3390 
Q 3200 3197 3328 2828 
z
" transform="scale(0.015625)"/>
      <path id="DejaVuSans-62" d="M 3116 1747 
Q 3116 2381 2855 2742 
Q 2594 3103 2138 3103 
Q 1681 3103 1420 2742 
Q 1159 2381 1159 1747 
Q 1159 1113 1420 752 
Q 1681 391 2138 391 
Q 2594 391 2855 752 
Q 3116 1113 3116 1747 
z
M 1159 2969 
Q 1341 3281 1617 3432 
Q 1894 3584 2278 3584 
Q 2916 3584 3314 3078 
Q 3713 2572 3713 1747 
Q 3713 922 3314 415 
Q 2916 -91 2278 -91 
Q 1894 -91 1617 61 
Q 1341 213 1159 525 
L 1159 0 
L 581 0 
L 581 4863 
L 1159 4863 
L 1159 2969 
z
" transform="scale(0.015625)"/>
      <path id="DejaVuSans-65" d="M 3597 1894 
L 3597 1613 
L 953 1613 
Q 991 1019 1311 708 
Q 1631 397 2203 397 
Q 2534 397 2845 478 
Q 3156 559 3463 722 
L 3463 178 
Q 3153 47 2828 -22 
Q 2503 -91 2169 -91 
Q 1331 -91 842 396 
Q 353 884 353 1716 
Q 353 2575 817 3079 
Q 1281 3584 2069 3584 
Q 2775 3584 3186 3129 
Q 3597 2675 3597 1894 
z
M 3022 2063 
Q 3016 2534 2758 2815 
Q 2500 3097 2075 3097 
Q 1594 3097 1305 2825 
Q 1016 2553 972 2059 
L 3022 2063 
z
" transform="scale(0.015625)"/>
      <path id="DejaVuSans-64" d="M 2906 2969 
L 2906 4863 
L 3481 4863 
L 3481 0 
L 2906 0 
L 2906 525 
Q 2725 213 2448 61 
Q 2172 -91 1784 -91 
Q 1150 -91 751 415 
Q 353 922 353 1747 
Q 353 2572 751 3078 
Q 1150 3584 1784 3584 
Q 2172 3584 2448 3432 
Q 2725 3281 2906 2969 
z
M 947 1747 
Q 947 1113 1208 752 
Q 1469 391 1925 391 
Q 2381 391 2643 752 
Q 2906 1113 2906 1747 
Q 2906 2381 2643 2742 
Q 2381 3103 1925 3103 
Q 1469 3103 1208 2742 
Q 947 2381 947 1747 
z
" transform="scale(0.015625)"/>
     </defs>
     <use xlink:href="#DejaVuSans-43"/>
     <use xlink:href="#DejaVuSans-6f" transform="translate(69.824219 0)"/>
     <use xlink:href="#DejaVuSans-6d" transform="translate(131.005859 0)"/>
     <use xlink:href="#DejaVuSans-62" transform="translate(228.417969 0)"/>
     <use xlink:href="#DejaVuSans-69" transform="translate(291.894531 0)"/>
     <use xlink:href="#DejaVuSans-6e" transform="translate(319.677734 0)"/>
     <use xlink:href="#DejaVuSans-65" transform="translate(383.056641 0)"/>
     <use xlink:href="#DejaVuSans-64" transform="translate(444.580078 0)"/>
     <use xlink:href="#DejaVuSans-20" transform="translate(508.056641 0)"/>
     <use xlink:href="#DejaVuSans-54" transform="translate(539.84375 0)"/>
     <use xlink:href="#DejaVuSans-72" transform="translate(586.177734 0)"/>
     <use xlink:href="#DejaVuSans-61" transform="translate(627.291016 0)"/>
     <use xlink:href="#DejaVuSans-69" transform="translate(688.570312 0)"/>
     <use xlink:href="#DejaVuSans-6e" transform="translate(716.353516 0)"/>
     <use xlink:href="#DejaVuSans-20" transform="translate(779.732422 0)"/>
     <use xlink:href="#DejaVuSans-4c" transform="translate(811.519531 0)"/>
     <use xlink:href="#DejaVuSans-6f" transform="translate(865.482422 0)"/>
     <use xlink:href="#DejaVuSans-73" transform="translate(926.664062 0)"/>
     <use xlink:href="#DejaVuSans-73" transform="translate(978.763672 0)"/>
    </g>
   </g>
   <g id="legend_1">
    <g id="patch_7">
     <path d="M 635.99625 380.478125 
L 698.17125 380.478125 
Q 700.17125 380.478125 700.17125 378.478125 
L 700.17125 306.0875 
Q 700.17125 304.0875 698.17125 304.0875 
L 635.99625 304.0875 
Q 633.99625 304.0875 633.99625 306.0875 
L 633.99625 378.478125 
Q 633.99625 380.478125 635.99625 380.478125 
z
" style="fill: #ffffff; opacity: 0.8; stroke: #cccccc; stroke-linejoin: miter"/>
    </g>
    <g id="line2d_18">
     <path d="M 637.99625 312.185937 
L 647.99625 312.185937 
L 657.99625 312.185937 
" style="fill: none; stroke: #1f77b4; stroke-width: 1.5; stroke-linecap: square"/>
    </g>
    <g id="text_16">
     <!-- Fold 1 -->
     <g transform="translate(665.99625 315.685937) scale(0.1 -0.1)">
      <defs>
       <path id="DejaVuSans-46" d="M 628 4666 
L 3309 4666 
L 3309 4134 
L 1259 4134 
L 1259 2759 
L 3109 2759 
L 3109 2228 
L 1259 2228 
L 1259 0 
L 628 0 
L 628 4666 
z
" transform="scale(0.015625)"/>
       <path id="DejaVuSans-6c" d="M 603 4863 
L 1178 4863 
L 1178 0 
L 603 0 
L 603 4863 
z
" transform="scale(0.015625)"/>
      </defs>
      <use xlink:href="#DejaVuSans-46"/>
      <use xlink:href="#DejaVuSans-6f" transform="translate(53.894531 0)"/>
      <use xlink:href="#DejaVuSans-6c" transform="translate(115.076172 0)"/>
      <use xlink:href="#DejaVuSans-64" transform="translate(142.859375 0)"/>
      <use xlink:href="#DejaVuSans-20" transform="translate(206.335938 0)"/>
      <use xlink:href="#DejaVuSans-31" transform="translate(238.123047 0)"/>
     </g>
    </g>
    <g id="line2d_19">
     <path d="M 637.99625 326.864062 
L 647.99625 326.864062 
L 657.99625 326.864062 
" style="fill: none; stroke: #ff7f0e; stroke-width: 1.5; stroke-linecap: square"/>
    </g>
    <g id="text_17">
     <!-- Fold 2 -->
     <g transform="translate(665.99625 330.364062) scale(0.1 -0.1)">
      <use xlink:href="#DejaVuSans-46"/>
      <use xlink:href="#DejaVuSans-6f" transform="translate(53.894531 0)"/>
      <use xlink:href="#DejaVuSans-6c" transform="translate(115.076172 0)"/>
      <use xlink:href="#DejaVuSans-64" transform="translate(142.859375 0)"/>
      <use xlink:href="#DejaVuSans-20" transform="translate(206.335938 0)"/>
      <use xlink:href="#DejaVuSans-32" transform="translate(238.123047 0)"/>
     </g>
    </g>
    <g id="line2d_20">
     <path d="M 637.99625 341.542187 
L 647.99625 341.542187 
L 657.99625 341.542187 
" style="fill: none; stroke: #2ca02c; stroke-width: 1.5; stroke-linecap: square"/>
    </g>
    <g id="text_18">
     <!-- Fold 3 -->
     <g transform="translate(665.99625 345.042187) scale(0.1 -0.1)">
      <use xlink:href="#DejaVuSans-46"/>
      <use xlink:href="#DejaVuSans-6f" transform="translate(53.894531 0)"/>
      <use xlink:href="#DejaVuSans-6c" transform="translate(115.076172 0)"/>
      <use xlink:href="#DejaVuSans-64" transform="translate(142.859375 0)"/>
      <use xlink:href="#DejaVuSans-20" transform="translate(206.335938 0)"/>
      <use xlink:href="#DejaVuSans-33" transform="translate(238.123047 0)"/>
     </g>
    </g>
    <g id="line2d_21">
     <path d="M 637.99625 356.220312 
L 647.99625 356.220312 
L 657.99625 356.220312 
" style="fill: none; stroke: #d62728; stroke-width: 1.5; stroke-linecap: square"/>
    </g>
    <g id="text_19">
     <!-- Fold 4 -->
     <g transform="translate(665.99625 359.720312) scale(0.1 -0.1)">
      <use xlink:href="#DejaVuSans-46"/>
      <use xlink:href="#DejaVuSans-6f" transform="translate(53.894531 0)"/>
      <use xlink:href="#DejaVuSans-6c" transform="translate(115.076172 0)"/>
      <use xlink:href="#DejaVuSans-64" transform="translate(142.859375 0)"/>
      <use xlink:href="#DejaVuSans-20" transform="translate(206.335938 0)"/>
      <use xlink:href="#DejaVuSans-34" transform="translate(238.123047 0)"/>
     </g>
    </g>
    <g id="line2d_22">
     <path d="M 637.99625 370.898437 
L 647.99625 370.898437 
L 657.99625 370.898437 
" style="fill: none; stroke: #9467bd; stroke-width: 1.5; stroke-linecap: square"/>
    </g>
    <g id="text_20">
     <!-- Fold 5 -->
     <g transform="translate(665.99625 374.398437) scale(0.1 -0.1)">
      <use xlink:href="#DejaVuSans-46"/>
      <use xlink:href="#DejaVuSans-6f" transform="translate(53.894531 0)"/>
      <use xlink:href="#DejaVuSans-6c" transform="translate(115.076172 0)"/>
      <use xlink:href="#DejaVuSans-64" transform="translate(142.859375 0)"/>
      <use xlink:href="#DejaVuSans-20" transform="translate(206.335938 0)"/>
      <use xlink:href="#DejaVuSans-35" transform="translate(238.123047 0)"/>
     </g>
    </g>
   </g>
  </g>
 </g>
 <defs>
  <clipPath id="pb8c6bd0820">
   <rect x="43.78125" y="22.318125" width="661.39" height="363.16"/>
  </clipPath>
 </defs>
</svg>
