<?xml version="1.0" encoding="utf-8" standalone="no"?>
<!DOCTYPE svg PUBLIC "-//W3C//DTD SVG 1.1//EN"
  "http://www.w3.org/Graphics/SVG/1.1/DTD/svg11.dtd">
<svg xmlns:xlink="http://www.w3.org/1999/xlink" width="712.37125pt" height="423.034375pt" viewBox="0 0 712.37125 423.034375" xmlns="http://www.w3.org/2000/svg" version="1.1">
 <metadata>
  <rdf:RDF xmlns:dc="http://purl.org/dc/elements/1.1/" xmlns:cc="http://creativecommons.org/ns#" xmlns:rdf="http://www.w3.org/1999/02/22-rdf-syntax-ns#">
   <cc:Work>
    <dc:type rdf:resource="http://purl.org/dc/dcmitype/StillImage"/>
    <dc:date>2025-06-27T19:21:51.699958</dc:date>
    <dc:format>image/svg+xml</dc:format>
    <dc:creator>
     <cc:Agent>
      <dc:title>Matplotlib v3.10.0, https://matplotlib.org/</dc:title>
     </cc:Agent>
    </dc:creator>
   </cc:Work>
  </rdf:RDF>
 </metadata>
 <defs>
  <style type="text/css">*{stroke-linejoin: round; stroke-linecap: butt}</style>
 </defs>
 <g id="figure_1">
  <g id="patch_1">
   <path d="M 0 423.034375 
L 712.37125 423.034375 
L 712.37125 0 
L 0 0 
z
" style="fill: #ffffff"/>
  </g>
  <g id="axes_1">
   <g id="patch_2">
    <path d="M 43.78125 385.478125 
L 705.17125 385.478125 
L 705.17125 22.318125 
L 43.78125 22.318125 
z
" style="fill: #ffffff"/>
   </g>
   <g id="matplotlib.axis_1">
    <g id="xtick_1">
     <g id="line2d_1">
      <defs>
       <path id="m4cbeaa6b9d" d="M 0 0 
L 0 3.5 
" style="stroke: #000000; stroke-width: 0.8"/>
      </defs>
      <g>
       <use xlink:href="#m4cbeaa6b9d" x="67.771062" y="385.478125" style="stroke: #000000; stroke-width: 0.8"/>
      </g>
     </g>
     <g id="text_1">
      <!-- 0 -->
      <g transform="translate(64.589812 400.076562) scale(0.1 -0.1)">
       <defs>
        <path id="DejaVuSans-30" d="M 2034 4250 
Q 1547 4250 1301 3770 
Q 1056 3291 1056 2328 
Q 1056 1369 1301 889 
Q 1547 409 2034 409 
Q 2525 409 2770 889 
Q 3016 1369 3016 2328 
Q 3016 3291 2770 3770 
Q 2525 4250 2034 4250 
z
M 2034 4750 
Q 2819 4750 3233 4129 
Q 3647 3509 3647 2328 
Q 3647 1150 3233 529 
Q 2819 -91 2034 -91 
Q 1250 -91 836 529 
Q 422 1150 422 2328 
Q 422 3509 836 4129 
Q 1250 4750 2034 4750 
z
" transform="scale(0.015625)"/>
       </defs>
       <use xlink:href="#DejaVuSans-30"/>
      </g>
     </g>
    </g>
    <g id="xtick_2">
     <g id="line2d_2">
      <g>
       <use xlink:href="#m4cbeaa6b9d" x="189.238463" y="385.478125" style="stroke: #000000; stroke-width: 0.8"/>
      </g>
     </g>
     <g id="text_2">
      <!-- 20 -->
      <g transform="translate(182.875963 400.076562) scale(0.1 -0.1)">
       <defs>
        <path id="DejaVuSans-32" d="M 1228 531 
L 3431 531 
L 3431 0 
L 469 0 
L 469 531 
Q 828 903 1448 1529 
Q 2069 2156 2228 2338 
Q 2531 2678 2651 2914 
Q 2772 3150 2772 3378 
Q 2772 3750 2511 3984 
Q 2250 4219 1831 4219 
Q 1534 4219 1204 4116 
Q 875 4013 500 3803 
L 500 4441 
Q 881 4594 1212 4672 
Q 1544 4750 1819 4750 
Q 2544 4750 2975 4387 
Q 3406 4025 3406 3419 
Q 3406 3131 3298 2873 
Q 3191 2616 2906 2266 
Q 2828 2175 2409 1742 
Q 1991 1309 1228 531 
z
" transform="scale(0.015625)"/>
       </defs>
       <use xlink:href="#DejaVuSans-32"/>
       <use xlink:href="#DejaVuSans-30" transform="translate(63.623047 0)"/>
      </g>
     </g>
    </g>
    <g id="xtick_3">
     <g id="line2d_3">
      <g>
       <use xlink:href="#m4cbeaa6b9d" x="310.705864" y="385.478125" style="stroke: #000000; stroke-width: 0.8"/>
      </g>
     </g>
     <g id="text_3">
      <!-- 40 -->
      <g transform="translate(304.343364 400.076562) scale(0.1 -0.1)">
       <defs>
        <path id="DejaVuSans-34" d="M 2419 4116 
L 825 1625 
L 2419 1625 
L 2419 4116 
z
M 2253 4666 
L 3047 4666 
L 3047 1625 
L 3713 1625 
L 3713 1100 
L 3047 1100 
L 3047 0 
L 2419 0 
L 2419 1100 
L 313 1100 
L 313 1709 
L 2253 4666 
z
" transform="scale(0.015625)"/>
       </defs>
       <use xlink:href="#DejaVuSans-34"/>
       <use xlink:href="#DejaVuSans-30" transform="translate(63.623047 0)"/>
      </g>
     </g>
    </g>
    <g id="xtick_4">
     <g id="line2d_4">
      <g>
       <use xlink:href="#m4cbeaa6b9d" x="432.173266" y="385.478125" style="stroke: #000000; stroke-width: 0.8"/>
      </g>
     </g>
     <g id="text_4">
      <!-- 60 -->
      <g transform="translate(425.810766 400.076562) scale(0.1 -0.1)">
       <defs>
        <path id="DejaVuSans-36" d="M 2113 2584 
Q 1688 2584 1439 2293 
Q 1191 2003 1191 1497 
Q 1191 994 1439 701 
Q 1688 409 2113 409 
Q 2538 409 2786 701 
Q 3034 994 3034 1497 
Q 3034 2003 2786 2293 
Q 2538 2584 2113 2584 
z
M 3366 4563 
L 3366 3988 
Q 3128 4100 2886 4159 
Q 2644 4219 2406 4219 
Q 1781 4219 1451 3797 
Q 1122 3375 1075 2522 
Q 1259 2794 1537 2939 
Q 1816 3084 2150 3084 
Q 2853 3084 3261 2657 
Q 3669 2231 3669 1497 
Q 3669 778 3244 343 
Q 2819 -91 2113 -91 
Q 1303 -91 875 529 
Q 447 1150 447 2328 
Q 447 3434 972 4092 
Q 1497 4750 2381 4750 
Q 2619 4750 2861 4703 
Q 3103 4656 3366 4563 
z
" transform="scale(0.015625)"/>
       </defs>
       <use xlink:href="#DejaVuSans-36"/>
       <use xlink:href="#DejaVuSans-30" transform="translate(63.623047 0)"/>
      </g>
     </g>
    </g>
    <g id="xtick_5">
     <g id="line2d_5">
      <g>
       <use xlink:href="#m4cbeaa6b9d" x="553.640667" y="385.478125" style="stroke: #000000; stroke-width: 0.8"/>
      </g>
     </g>
     <g id="text_5">
      <!-- 80 -->
      <g transform="translate(547.278167 400.076562) scale(0.1 -0.1)">
       <defs>
        <path id="DejaVuSans-38" d="M 2034 2216 
Q 1584 2216 1326 1975 
Q 1069 1734 1069 1313 
Q 1069 891 1326 650 
Q 1584 409 2034 409 
Q 2484 409 2743 651 
Q 3003 894 3003 1313 
Q 3003 1734 2745 1975 
Q 2488 2216 2034 2216 
z
M 1403 2484 
Q 997 2584 770 2862 
Q 544 3141 544 3541 
Q 544 4100 942 4425 
Q 1341 4750 2034 4750 
Q 2731 4750 3128 4425 
Q 3525 4100 3525 3541 
Q 3525 3141 3298 2862 
Q 3072 2584 2669 2484 
Q 3125 2378 3379 2068 
Q 3634 1759 3634 1313 
Q 3634 634 3220 271 
Q 2806 -91 2034 -91 
Q 1263 -91 848 271 
Q 434 634 434 1313 
Q 434 1759 690 2068 
Q 947 2378 1403 2484 
z
M 1172 3481 
Q 1172 3119 1398 2916 
Q 1625 2713 2034 2713 
Q 2441 2713 2670 2916 
Q 2900 3119 2900 3481 
Q 2900 3844 2670 4047 
Q 2441 4250 2034 4250 
Q 1625 4250 1398 4047 
Q 1172 3844 1172 3481 
z
" transform="scale(0.015625)"/>
       </defs>
       <use xlink:href="#DejaVuSans-38"/>
       <use xlink:href="#DejaVuSans-30" transform="translate(63.623047 0)"/>
      </g>
     </g>
    </g>
    <g id="xtick_6">
     <g id="line2d_6">
      <g>
       <use xlink:href="#m4cbeaa6b9d" x="675.108068" y="385.478125" style="stroke: #000000; stroke-width: 0.8"/>
      </g>
     </g>
     <g id="text_6">
      <!-- 100 -->
      <g transform="translate(665.564318 400.076562) scale(0.1 -0.1)">
       <defs>
        <path id="DejaVuSans-31" d="M 794 531 
L 1825 531 
L 1825 4091 
L 703 3866 
L 703 4441 
L 1819 4666 
L 2450 4666 
L 2450 531 
L 3481 531 
L 3481 0 
L 794 0 
L 794 531 
z
" transform="scale(0.015625)"/>
       </defs>
       <use xlink:href="#DejaVuSans-31"/>
       <use xlink:href="#DejaVuSans-30" transform="translate(63.623047 0)"/>
       <use xlink:href="#DejaVuSans-30" transform="translate(127.246094 0)"/>
      </g>
     </g>
    </g>
    <g id="text_7">
     <!-- Epoch -->
     <g transform="translate(359.165313 413.754687) scale(0.1 -0.1)">
      <defs>
       <path id="DejaVuSans-45" d="M 628 4666 
L 3578 4666 
L 3578 4134 
L 1259 4134 
L 1259 2753 
L 3481 2753 
L 3481 2222 
L 1259 2222 
L 1259 531 
L 3634 531 
L 3634 0 
L 628 0 
L 628 4666 
z
" transform="scale(0.015625)"/>
       <path id="DejaVuSans-70" d="M 1159 525 
L 1159 -1331 
L 581 -1331 
L 581 3500 
L 1159 3500 
L 1159 2969 
Q 1341 3281 1617 3432 
Q 1894 3584 2278 3584 
Q 2916 3584 3314 3078 
Q 3713 2572 3713 1747 
Q 3713 922 3314 415 
Q 2916 -91 2278 -91 
Q 1894 -91 1617 61 
Q 1341 213 1159 525 
z
M 3116 1747 
Q 3116 2381 2855 2742 
Q 2594 3103 2138 3103 
Q 1681 3103 1420 2742 
Q 1159 2381 1159 1747 
Q 1159 1113 1420 752 
Q 1681 391 2138 391 
Q 2594 391 2855 752 
Q 3116 1113 3116 1747 
z
" transform="scale(0.015625)"/>
       <path id="DejaVuSans-6f" d="M 1959 3097 
Q 1497 3097 1228 2736 
Q 959 2375 959 1747 
Q 959 1119 1226 758 
Q 1494 397 1959 397 
Q 2419 397 2687 759 
Q 2956 1122 2956 1747 
Q 2956 2369 2687 2733 
Q 2419 3097 1959 3097 
z
M 1959 3584 
Q 2709 3584 3137 3096 
Q 3566 2609 3566 1747 
Q 3566 888 3137 398 
Q 2709 -91 1959 -91 
Q 1206 -91 779 398 
Q 353 888 353 1747 
Q 353 2609 779 3096 
Q 1206 3584 1959 3584 
z
" transform="scale(0.015625)"/>
       <path id="DejaVuSans-63" d="M 3122 3366 
L 3122 2828 
Q 2878 2963 2633 3030 
Q 2388 3097 2138 3097 
Q 1578 3097 1268 2742 
Q 959 2388 959 1747 
Q 959 1106 1268 751 
Q 1578 397 2138 397 
Q 2388 397 2633 464 
Q 2878 531 3122 666 
L 3122 134 
Q 2881 22 2623 -34 
Q 2366 -91 2075 -91 
Q 1284 -91 818 406 
Q 353 903 353 1747 
Q 353 2603 823 3093 
Q 1294 3584 2113 3584 
Q 2378 3584 2631 3529 
Q 2884 3475 3122 3366 
z
" transform="scale(0.015625)"/>
       <path id="DejaVuSans-68" d="M 3513 2113 
L 3513 0 
L 2938 0 
L 2938 2094 
Q 2938 2591 2744 2837 
Q 2550 3084 2163 3084 
Q 1697 3084 1428 2787 
Q 1159 2491 1159 1978 
L 1159 0 
L 581 0 
L 581 4863 
L 1159 4863 
L 1159 2956 
Q 1366 3272 1645 3428 
Q 1925 3584 2291 3584 
Q 2894 3584 3203 3211 
Q 3513 2838 3513 2113 
z
" transform="scale(0.015625)"/>
      </defs>
      <use xlink:href="#DejaVuSans-45"/>
      <use xlink:href="#DejaVuSans-70" transform="translate(63.183594 0)"/>
      <use xlink:href="#DejaVuSans-6f" transform="translate(126.660156 0)"/>
      <use xlink:href="#DejaVuSans-63" transform="translate(187.841797 0)"/>
      <use xlink:href="#DejaVuSans-68" transform="translate(242.822266 0)"/>
     </g>
    </g>
   </g>
   <g id="matplotlib.axis_2">
    <g id="ytick_1">
     <g id="line2d_7">
      <defs>
       <path id="m1e59998785" d="M 0 0 
L -3.5 0 
" style="stroke: #000000; stroke-width: 0.8"/>
      </defs>
      <g>
       <use xlink:href="#m1e59998785" x="43.78125" y="372.984663" style="stroke: #000000; stroke-width: 0.8"/>
      </g>
     </g>
     <g id="text_8">
      <!-- 1.0 -->
      <g transform="translate(20.878125 376.783882) scale(0.1 -0.1)">
       <defs>
        <path id="DejaVuSans-2e" d="M 684 794 
L 1344 794 
L 1344 0 
L 684 0 
L 684 794 
z
" transform="scale(0.015625)"/>
       </defs>
       <use xlink:href="#DejaVuSans-31"/>
       <use xlink:href="#DejaVuSans-2e" transform="translate(63.623047 0)"/>
       <use xlink:href="#DejaVuSans-30" transform="translate(95.410156 0)"/>
      </g>
     </g>
    </g>
    <g id="ytick_2">
     <g id="line2d_8">
      <g>
       <use xlink:href="#m1e59998785" x="43.78125" y="327.111008" style="stroke: #000000; stroke-width: 0.8"/>
      </g>
     </g>
     <g id="text_9">
      <!-- 1.2 -->
      <g transform="translate(20.878125 330.910226) scale(0.1 -0.1)">
       <use xlink:href="#DejaVuSans-31"/>
       <use xlink:href="#DejaVuSans-2e" transform="translate(63.623047 0)"/>
       <use xlink:href="#DejaVuSans-32" transform="translate(95.410156 0)"/>
      </g>
     </g>
    </g>
    <g id="ytick_3">
     <g id="line2d_9">
      <g>
       <use xlink:href="#m1e59998785" x="43.78125" y="281.237352" style="stroke: #000000; stroke-width: 0.8"/>
      </g>
     </g>
     <g id="text_10">
      <!-- 1.4 -->
      <g transform="translate(20.878125 285.036571) scale(0.1 -0.1)">
       <use xlink:href="#DejaVuSans-31"/>
       <use xlink:href="#DejaVuSans-2e" transform="translate(63.623047 0)"/>
       <use xlink:href="#DejaVuSans-34" transform="translate(95.410156 0)"/>
      </g>
     </g>
    </g>
    <g id="ytick_4">
     <g id="line2d_10">
      <g>
       <use xlink:href="#m1e59998785" x="43.78125" y="235.363697" style="stroke: #000000; stroke-width: 0.8"/>
      </g>
     </g>
     <g id="text_11">
      <!-- 1.6 -->
      <g transform="translate(20.878125 239.162915) scale(0.1 -0.1)">
       <use xlink:href="#DejaVuSans-31"/>
       <use xlink:href="#DejaVuSans-2e" transform="translate(63.623047 0)"/>
       <use xlink:href="#DejaVuSans-36" transform="translate(95.410156 0)"/>
      </g>
     </g>
    </g>
    <g id="ytick_5">
     <g id="line2d_11">
      <g>
       <use xlink:href="#m1e59998785" x="43.78125" y="189.490041" style="stroke: #000000; stroke-width: 0.8"/>
      </g>
     </g>
     <g id="text_12">
      <!-- 1.8 -->
      <g transform="translate(20.878125 193.28926) scale(0.1 -0.1)">
       <use xlink:href="#DejaVuSans-31"/>
       <use xlink:href="#DejaVuSans-2e" transform="translate(63.623047 0)"/>
       <use xlink:href="#DejaVuSans-38" transform="translate(95.410156 0)"/>
      </g>
     </g>
    </g>
    <g id="ytick_6">
     <g id="line2d_12">
      <g>
       <use xlink:href="#m1e59998785" x="43.78125" y="143.616386" style="stroke: #000000; stroke-width: 0.8"/>
      </g>
     </g>
     <g id="text_13">
      <!-- 2.0 -->
      <g transform="translate(20.878125 147.415605) scale(0.1 -0.1)">
       <use xlink:href="#DejaVuSans-32"/>
       <use xlink:href="#DejaVuSans-2e" transform="translate(63.623047 0)"/>
       <use xlink:href="#DejaVuSans-30" transform="translate(95.410156 0)"/>
      </g>
     </g>
    </g>
    <g id="ytick_7">
     <g id="line2d_13">
      <g>
       <use xlink:href="#m1e59998785" x="43.78125" y="97.74273" style="stroke: #000000; stroke-width: 0.8"/>
      </g>
     </g>
     <g id="text_14">
      <!-- 2.2 -->
      <g transform="translate(20.878125 101.541949) scale(0.1 -0.1)">
       <use xlink:href="#DejaVuSans-32"/>
       <use xlink:href="#DejaVuSans-2e" transform="translate(63.623047 0)"/>
       <use xlink:href="#DejaVuSans-32" transform="translate(95.410156 0)"/>
      </g>
     </g>
    </g>
    <g id="ytick_8">
     <g id="line2d_14">
      <g>
       <use xlink:href="#m1e59998785" x="43.78125" y="51.869075" style="stroke: #000000; stroke-width: 0.8"/>
      </g>
     </g>
     <g id="text_15">
      <!-- 2.4 -->
      <g transform="translate(20.878125 55.668294) scale(0.1 -0.1)">
       <use xlink:href="#DejaVuSans-32"/>
       <use xlink:href="#DejaVuSans-2e" transform="translate(63.623047 0)"/>
       <use xlink:href="#DejaVuSans-34" transform="translate(95.410156 0)"/>
      </g>
     </g>
    </g>
    <g id="text_16">
     <!-- Train Loss -->
     <g transform="translate(14.798438 228.448125) rotate(-90) scale(0.1 -0.1)">
      <defs>
       <path id="DejaVuSans-54" d="M -19 4666 
L 3928 4666 
L 3928 4134 
L 2272 4134 
L 2272 0 
L 1638 0 
L 1638 4134 
L -19 4134 
L -19 4666 
z
" transform="scale(0.015625)"/>
       <path id="DejaVuSans-72" d="M 2631 2963 
Q 2534 3019 2420 3045 
Q 2306 3072 2169 3072 
Q 1681 3072 1420 2755 
Q 1159 2438 1159 1844 
L 1159 0 
L 581 0 
L 581 3500 
L 1159 3500 
L 1159 2956 
Q 1341 3275 1631 3429 
Q 1922 3584 2338 3584 
Q 2397 3584 2469 3576 
Q 2541 3569 2628 3553 
L 2631 2963 
z
" transform="scale(0.015625)"/>
       <path id="DejaVuSans-61" d="M 2194 1759 
Q 1497 1759 1228 1600 
Q 959 1441 959 1056 
Q 959 750 1161 570 
Q 1363 391 1709 391 
Q 2188 391 2477 730 
Q 2766 1069 2766 1631 
L 2766 1759 
L 2194 1759 
z
M 3341 1997 
L 3341 0 
L 2766 0 
L 2766 531 
Q 2569 213 2275 61 
Q 1981 -91 1556 -91 
Q 1019 -91 701 211 
Q 384 513 384 1019 
Q 384 1609 779 1909 
Q 1175 2209 1959 2209 
L 2766 2209 
L 2766 2266 
Q 2766 2663 2505 2880 
Q 2244 3097 1772 3097 
Q 1472 3097 1187 3025 
Q 903 2953 641 2809 
L 641 3341 
Q 956 3463 1253 3523 
Q 1550 3584 1831 3584 
Q 2591 3584 2966 3190 
Q 3341 2797 3341 1997 
z
" transform="scale(0.015625)"/>
       <path id="DejaVuSans-69" d="M 603 3500 
L 1178 3500 
L 1178 0 
L 603 0 
L 603 3500 
z
M 603 4863 
L 1178 4863 
L 1178 4134 
L 603 4134 
L 603 4863 
z
" transform="scale(0.015625)"/>
       <path id="DejaVuSans-6e" d="M 3513 2113 
L 3513 0 
L 2938 0 
L 2938 2094 
Q 2938 2591 2744 2837 
Q 2550 3084 2163 3084 
Q 1697 3084 1428 2787 
Q 1159 2491 1159 1978 
L 1159 0 
L 581 0 
L 581 3500 
L 1159 3500 
L 1159 2956 
Q 1366 3272 1645 3428 
Q 1925 3584 2291 3584 
Q 2894 3584 3203 3211 
Q 3513 2838 3513 2113 
z
" transform="scale(0.015625)"/>
       <path id="DejaVuSans-20" transform="scale(0.015625)"/>
       <path id="DejaVuSans-4c" d="M 628 4666 
L 1259 4666 
L 1259 531 
L 3531 531 
L 3531 0 
L 628 0 
L 628 4666 
z
" transform="scale(0.015625)"/>
       <path id="DejaVuSans-73" d="M 2834 3397 
L 2834 2853 
Q 2591 2978 2328 3040 
Q 2066 3103 1784 3103 
Q 1356 3103 1142 2972 
Q 928 2841 928 2578 
Q 928 2378 1081 2264 
Q 1234 2150 1697 2047 
L 1894 2003 
Q 2506 1872 2764 1633 
Q 3022 1394 3022 966 
Q 3022 478 2636 193 
Q 2250 -91 1575 -91 
Q 1294 -91 989 -36 
Q 684 19 347 128 
L 347 722 
Q 666 556 975 473 
Q 1284 391 1588 391 
Q 1994 391 2212 530 
Q 2431 669 2431 922 
Q 2431 1156 2273 1281 
Q 2116 1406 1581 1522 
L 1381 1569 
Q 847 1681 609 1914 
Q 372 2147 372 2553 
Q 372 3047 722 3315 
Q 1072 3584 1716 3584 
Q 2034 3584 2315 3537 
Q 2597 3491 2834 3397 
z
" transform="scale(0.015625)"/>
      </defs>
      <use xlink:href="#DejaVuSans-54"/>
      <use xlink:href="#DejaVuSans-72" transform="translate(46.333984 0)"/>
      <use xlink:href="#DejaVuSans-61" transform="translate(87.447266 0)"/>
      <use xlink:href="#DejaVuSans-69" transform="translate(148.726562 0)"/>
      <use xlink:href="#DejaVuSans-6e" transform="translate(176.509766 0)"/>
      <use xlink:href="#DejaVuSans-20" transform="translate(239.888672 0)"/>
      <use xlink:href="#DejaVuSans-4c" transform="translate(271.675781 0)"/>
      <use xlink:href="#DejaVuSans-6f" transform="translate(325.638672 0)"/>
      <use xlink:href="#DejaVuSans-73" transform="translate(386.820312 0)"/>
      <use xlink:href="#DejaVuSans-73" transform="translate(438.919922 0)"/>
     </g>
    </g>
   </g>
   <g id="line2d_15">
    <path d="M 73.844432 199.516317 
L 79.917802 201.175702 
L 85.991172 199.620485 
L 92.064542 200.549837 
L 98.137912 200.424034 
L 104.211282 200.408791 
L 110.284652 200.786803 
L 116.358022 200.552763 
L 122.431392 200.240782 
L 128.504762 200.628535 
L 134.578132 199.231806 
L 140.651503 200.84437 
L 146.724873 200.42453 
L 152.798243 200.411601 
L 158.871613 200.755183 
L 164.944983 200.679736 
L 171.018353 200.742689 
L 177.091723 199.943761 
L 183.165093 199.514791 
L 189.238463 200.675001 
L 195.311833 200.256938 
L 201.385203 201.151849 
L 207.458573 200.610497 
L 213.531943 200.585799 
L 219.605313 200.483384 
L 225.678683 200.205342 
L 231.752053 200.634963 
L 237.825424 200.781701 
L 243.898794 200.226455 
L 249.972164 200.462659 
L 256.045534 201.001724 
L 262.118904 199.983079 
L 268.192274 200.641519 
L 274.265644 199.55644 
L 280.339014 200.260432 
L 286.412384 200.582045 
L 292.485754 200.59015 
L 298.559124 199.933272 
L 304.632494 199.625895 
L 310.705864 200.35064 
L 316.779234 199.52725 
L 322.852604 201.081054 
L 328.925975 199.59211 
L 334.999345 199.841541 
L 341.072715 200.624393 
L 347.146085 200.415961 
L 353.219455 200.277947 
L 359.292825 200.861098 
L 365.366195 200.189852 
L 371.439565 200.028034 
L 377.512935 199.939613 
L 383.586305 200.68626 
L 389.659675 201.170099 
L 395.733045 200.601378 
L 401.806415 199.801297 
L 407.879785 200.239149 
L 413.953155 200.074845 
L 420.026525 200.722705 
L 426.099896 200.648124 
L 432.173266 199.987736 
L 438.246636 200.184325 
L 444.320006 200.642578 
L 450.393376 199.725853 
L 456.466746 200.336437 
L 462.540116 200.534078 
L 468.613486 200.188562 
L 474.686856 200.270979 
L 480.760226 200.747131 
L 486.833596 200.497881 
L 492.906966 200.612606 
L 498.980336 200.595116 
L 505.053706 200.565463 
L 511.127076 200.373782 
L 517.200447 200.143089 
L 523.273817 200.690983 
L 529.347187 200.43018 
L 535.420557 200.05161 
L 541.493927 200.515344 
L 547.567297 200.295333 
L 553.640667 200.369403 
L 559.714037 200.647587 
L 565.787407 200.257931 
L 571.860777 200.786935 
L 577.934147 200.782629 
L 584.007517 199.518691 
L 590.080887 200.685556 
L 596.154257 200.55217 
L 602.227627 200.068548 
L 608.300997 199.81909 
L 614.374368 199.975336 
L 620.447738 200.428203 
L 626.521108 200.238355 
L 632.594478 200.418038 
L 638.667848 200.561677 
L 644.741218 199.926033 
L 650.814588 200.746111 
L 656.887958 200.5037 
L 662.961328 200.454162 
L 669.034698 200.427214 
L 675.108068 200.241946 
" clip-path="url(#p8ee23bae81)" style="fill: none; stroke: #1f77b4; stroke-width: 1.5; stroke-linecap: square"/>
   </g>
   <g id="line2d_16">
    <path d="M 73.844432 268.465015 
L 79.917802 294.470535 
L 85.991172 285.535287 
L 92.064542 266.487919 
L 98.137912 251.163964 
L 104.211282 275.556213 
L 110.284652 282.326537 
L 116.358022 288.195483 
L 122.431392 289.63649 
L 128.504762 298.856106 
L 134.578132 291.835503 
L 140.651503 290.754607 
L 146.724873 276.330195 
L 152.798243 270.378917 
L 158.871613 284.593436 
L 164.944983 274.768913 
L 171.018353 284.506768 
L 177.091723 284.561486 
L 183.165093 268.258387 
L 189.238463 272.850341 
L 195.311833 263.397866 
L 201.385203 278.742025 
L 207.458573 257.386001 
L 213.531943 246.591298 
L 219.605313 259.959589 
L 225.678683 273.66261 
L 231.752053 279.923958 
L 237.825424 272.56942 
L 243.898794 262.06098 
L 249.972164 226.143882 
L 256.045534 257.389804 
L 262.118904 251.150247 
L 268.192274 258.713489 
L 274.265644 262.084143 
L 280.339014 248.944907 
L 286.412384 263.691737 
L 292.485754 278.376144 
L 298.559124 282.145508 
L 304.632494 304.193455 
L 310.705864 312.288582 
L 316.779234 283.775898 
L 322.852604 288.759302 
L 328.925975 307.132935 
L 334.999345 308.903503 
L 341.072715 323.786004 
L 347.146085 323.468868 
L 353.219455 323.822419 
L 359.292825 308.254758 
L 365.366195 304.292323 
L 371.439565 314.151884 
L 377.512935 324.920251 
L 383.586305 329.873761 
L 389.659675 330.115061 
L 395.733045 334.922942 
L 401.806415 331.67244 
L 407.879785 336.171925 
L 413.953155 318.896223 
L 420.026525 325.787361 
L 426.099896 325.863947 
L 432.173266 321.531989 
L 438.246636 335.136209 
L 444.320006 323.554934 
L 450.393376 333.297865 
L 456.466746 345.56944 
L 462.540116 294.356441 
L 468.613486 309.377916 
L 474.686856 309.650301 
L 480.760226 300.064178 
L 486.833596 308.226598 
L 492.906966 308.466389 
L 498.980336 315.686882 
L 505.053706 312.623606 
L 511.127076 316.468112 
L 517.200447 320.073736 
L 523.273817 312.012929 
L 529.347187 293.934685 
L 535.420557 303.545982 
L 541.493927 309.041217 
L 547.567297 303.935111 
L 553.640667 281.696293 
L 559.714037 302.341837 
L 565.787407 283.596995 
L 571.860777 281.95074 
L 577.934147 286.068905 
L 584.007517 300.493498 
L 590.080887 303.351836 
L 596.154257 306.558573 
L 602.227627 293.211513 
L 608.300997 276.254381 
L 614.374368 272.197033 
L 620.447738 267.18242 
L 626.521108 289.235602 
L 632.594478 294.099548 
L 638.667848 297.820619 
L 644.741218 285.554334 
L 650.814588 278.720878 
L 656.887958 285.99412 
L 662.961328 279.70967 
L 669.034698 284.37187 
L 675.108068 285.366866 
" clip-path="url(#p8ee23bae81)" style="fill: none; stroke: #ff7f0e; stroke-width: 1.5; stroke-linecap: square"/>
   </g>
   <g id="line2d_17">
    <path d="M 73.844432 252.856915 
L 79.917802 262.118408 
L 85.991172 262.778844 
L 92.064542 248.521404 
L 98.137912 254.058311 
L 104.211282 235.208296 
L 110.284652 249.54469 
L 116.358022 246.867184 
L 122.431392 262.004228 
L 128.504762 263.112462 
L 134.578132 278.055415 
L 140.651503 272.987462 
L 146.724873 270.478284 
L 152.798243 276.166809 
L 158.871613 277.134458 
L 164.944983 276.977249 
L 171.018353 287.498723 
L 177.091723 252.712103 
L 183.165093 255.100091 
L 189.238463 262.596535 
L 195.311833 265.69408 
L 201.385203 264.092012 
L 207.458573 265.648663 
L 213.531943 268.547505 
L 219.605313 266.064911 
L 225.678683 270.428791 
L 231.752053 248.403832 
L 237.825424 278.490255 
L 243.898794 282.855786 
L 249.972164 285.851306 
L 256.045534 279.877228 
L 262.118904 285.433696 
L 268.192274 278.0094 
L 274.265644 291.382379 
L 280.339014 289.428031 
L 286.412384 292.993171 
L 292.485754 286.13172 
L 298.559124 294.876817 
L 304.632494 290.090717 
L 310.705864 277.200565 
L 316.779234 286.590531 
L 322.852604 274.867417 
L 328.925975 277.540552 
L 334.999345 285.961567 
L 341.072715 291.312393 
L 347.146085 286.110957 
L 353.219455 287.956019 
L 359.292825 298.558672 
L 365.366195 302.867513 
L 371.439565 300.050824 
L 377.512935 298.81304 
L 383.586305 300.677889 
L 389.659675 288.21509 
L 395.733045 279.561186 
L 401.806415 286.873837 
L 407.879785 264.665894 
L 413.953155 277.196136 
L 420.026525 283.41393 
L 426.099896 277.917891 
L 432.173266 310.437297 
L 438.246636 296.143329 
L 444.320006 290.610093 
L 450.393376 291.028731 
L 456.466746 294.211496 
L 462.540116 297.110423 
L 468.613486 296.963873 
L 474.686856 289.465369 
L 480.760226 297.73526 
L 486.833596 282.192368 
L 492.906966 285.590768 
L 498.980336 296.296144 
L 505.053706 289.370645 
L 511.127076 283.571832 
L 517.200447 285.124515 
L 523.273817 278.708356 
L 529.347187 275.362425 
L 535.420557 267.405562 
L 541.493927 274.674165 
L 547.567297 282.847812 
L 553.640667 289.273418 
L 559.714037 291.723488 
L 565.787407 298.213694 
L 571.860777 288.455874 
L 577.934147 291.732722 
L 584.007517 284.341857 
L 590.080887 269.01884 
L 596.154257 284.040177 
L 602.227627 283.162037 
L 608.300997 280.585029 
L 614.374368 289.399587 
L 620.447738 284.823208 
L 626.521108 289.558146 
L 632.594478 287.141191 
L 638.667848 291.077615 
L 644.741218 292.889382 
L 650.814588 295.687998 
L 656.887958 293.019658 
L 662.961328 294.397098 
L 669.034698 291.662695 
L 675.108068 296.447683 
" clip-path="url(#p8ee23bae81)" style="fill: none; stroke: #2ca02c; stroke-width: 1.5; stroke-linecap: square"/>
   </g>
   <g id="line2d_18">
    <path d="M 73.844432 228.923661 
L 79.917802 298.332076 
L 85.991172 270.914095 
L 92.064542 314.514282 
L 98.137912 310.211058 
L 104.211282 313.931662 
L 110.284652 329.596349 
L 116.358022 312.578263 
L 122.431392 346.171086 
L 128.504762 349.818569 
L 134.578132 344.151484 
L 140.651503 345.320517 
L 146.724873 346.716073 
L 152.798243 350.286442 
L 158.871613 334.638236 
L 164.944983 350.11627 
L 171.018353 359.768933 
L 177.091723 352.304314 
L 183.165093 368.970852 
L 189.238463 366.34967 
L 195.311833 362.101492 
L 201.385203 357.228135 
L 207.458573 359.703208 
L 213.531943 351.195729 
L 219.605313 351.199837 
L 225.678683 345.587696 
L 231.752053 334.26799 
L 237.825424 341.011701 
L 243.898794 342.656671 
L 249.972164 333.706049 
L 256.045534 350.17738 
L 262.118904 305.322602 
L 268.192274 335.866152 
L 274.265644 351.39584 
L 280.339014 355.301903 
L 286.412384 336.367009 
L 292.485754 341.920914 
L 298.559124 336.655423 
L 304.632494 347.951601 
L 310.705864 38.825398 
L 316.779234 306.022262 
L 322.852604 312.260177 
L 328.925975 304.741645 
L 334.999345 318.18433 
L 341.072715 300.540783 
L 347.146085 313.011163 
L 353.219455 314.148013 
L 359.292825 315.197701 
L 365.366195 301.381245 
L 371.439565 279.887134 
L 377.512935 264.894209 
L 383.586305 282.712688 
L 389.659675 283.565542 
L 395.733045 269.839645 
L 401.806415 270.986317 
L 407.879785 270.179817 
L 413.953155 265.465975 
L 420.026525 260.858271 
L 426.099896 257.796846 
L 432.173266 269.960423 
L 438.246636 274.272706 
L 444.320006 278.474028 
L 450.393376 267.543765 
L 456.466746 269.57325 
L 462.540116 273.020357 
L 468.613486 275.812527 
L 474.686856 272.725491 
L 480.760226 275.11652 
L 486.833596 281.290172 
L 492.906966 277.884944 
L 498.980336 299.984163 
L 505.053706 301.46204 
L 511.127076 270.974252 
L 517.200447 289.428256 
L 523.273817 293.096456 
L 529.347187 303.347883 
L 535.420557 311.938772 
L 541.493927 321.495671 
L 547.567297 304.066345 
L 553.640667 272.491914 
L 559.714037 272.621186 
L 565.787407 286.966527 
L 571.860777 297.557996 
L 577.934147 260.908938 
L 584.007517 287.383307 
L 590.080887 286.009189 
L 596.154257 299.755335 
L 602.227627 310.230151 
L 608.300997 301.337057 
L 614.374368 302.783166 
L 620.447738 302.713233 
L 626.521108 294.632697 
L 632.594478 307.190971 
L 638.667848 306.839897 
L 644.741218 314.427395 
L 650.814588 315.454716 
L 656.887958 315.669928 
L 662.961328 313.609761 
L 669.034698 311.894529 
L 675.108068 319.029543 
" clip-path="url(#p8ee23bae81)" style="fill: none; stroke: #d62728; stroke-width: 1.5; stroke-linecap: square"/>
   </g>
   <g id="line2d_19">
    <path d="M 73.844432 241.28652 
L 79.917802 243.887856 
L 85.991172 263.492369 
L 92.064542 275.128163 
L 98.137912 270.816103 
L 104.211282 271.924572 
L 110.284652 276.064065 
L 116.358022 257.269541 
L 122.431392 258.988161 
L 128.504762 266.151191 
L 134.578132 279.34303 
L 140.651503 286.725611 
L 146.724873 284.644194 
L 152.798243 270.330068 
L 158.871613 270.242374 
L 164.944983 287.564631 
L 171.018353 295.006724 
L 177.091723 298.834679 
L 183.165093 287.342498 
L 189.238463 302.033236 
L 195.311833 306.858085 
L 201.385203 287.954965 
L 207.458573 252.22833 
L 213.531943 245.702618 
L 219.605313 245.508191 
L 225.678683 245.000464 
L 231.752053 238.624487 
L 237.825424 239.865063 
L 243.898794 240.076417 
L 249.972164 240.631418 
L 256.045534 241.104382 
L 262.118904 244.807292 
L 268.192274 241.490874 
L 274.265644 237.461557 
L 280.339014 237.084123 
L 286.412384 226.259699 
L 292.485754 227.55894 
L 298.559124 247.179665 
L 304.632494 247.472037 
L 310.705864 243.764225 
L 316.779234 238.618667 
L 322.852604 240.570659 
L 328.925975 221.611934 
L 334.999345 200.972667 
L 341.072715 199.47384 
L 347.146085 201.037824 
L 353.219455 200.473133 
L 359.292825 199.609062 
L 365.366195 200.837832 
L 371.439565 201.004044 
L 377.512935 201.582793 
L 383.586305 237.336651 
L 389.659675 223.068689 
L 395.733045 221.003859 
L 401.806415 229.556895 
L 407.879785 235.914316 
L 413.953155 235.779539 
L 420.026525 241.586685 
L 426.099896 232.351594 
L 432.173266 242.392281 
L 438.246636 248.97844 
L 444.320006 245.873502 
L 450.393376 248.977169 
L 456.466746 246.84775 
L 462.540116 245.011215 
L 468.613486 247.81929 
L 474.686856 240.952947 
L 480.760226 233.569044 
L 486.833596 238.118887 
L 492.906966 244.404756 
L 498.980336 245.977494 
L 505.053706 215.369274 
L 511.127076 218.407383 
L 517.200447 243.593185 
L 523.273817 242.369105 
L 529.347187 245.098868 
L 535.420557 245.623572 
L 541.493927 250.75827 
L 547.567297 248.10555 
L 553.640667 246.542409 
L 559.714037 255.48374 
L 565.787407 212.206991 
L 571.860777 241.81914 
L 577.934147 246.305795 
L 584.007517 257.642514 
L 590.080887 257.402768 
L 596.154257 238.820075 
L 602.227627 240.859944 
L 608.300997 240.625212 
L 614.374368 238.956559 
L 620.447738 240.932365 
L 626.521108 242.529873 
L 632.594478 240.638004 
L 638.667848 242.043832 
L 644.741218 242.231361 
L 650.814588 245.872337 
L 656.887958 237.576805 
L 662.961328 220.073872 
L 669.034698 224.19477 
L 675.108068 242.357387 
" clip-path="url(#p8ee23bae81)" style="fill: none; stroke: #9467bd; stroke-width: 1.5; stroke-linecap: square"/>
   </g>
   <g id="patch_3">
    <path d="M 43.78125 385.478125 
L 43.78125 22.318125 
" style="fill: none; stroke: #000000; stroke-width: 0.8; stroke-linejoin: miter; stroke-linecap: square"/>
   </g>
   <g id="patch_4">
    <path d="M 705.17125 385.478125 
L 705.17125 22.318125 
" style="fill: none; stroke: #000000; stroke-width: 0.8; stroke-linejoin: miter; stroke-linecap: square"/>
   </g>
   <g id="patch_5">
    <path d="M 43.78125 385.478125 
L 705.17125 385.478125 
" style="fill: none; stroke: #000000; stroke-width: 0.8; stroke-linejoin: miter; stroke-linecap: square"/>
   </g>
   <g id="patch_6">
    <path d="M 43.78125 22.318125 
L 705.17125 22.318125 
" style="fill: none; stroke: #000000; stroke-width: 0.8; stroke-linejoin: miter; stroke-linecap: square"/>
   </g>
   <g id="text_17">
    <!-- Combined Train Loss -->
    <g transform="translate(312.624688 16.318125) scale(0.12 -0.12)">
     <defs>
      <path id="DejaVuSans-43" d="M 4122 4306 
L 4122 3641 
Q 3803 3938 3442 4084 
Q 3081 4231 2675 4231 
Q 1875 4231 1450 3742 
Q 1025 3253 1025 2328 
Q 1025 1406 1450 917 
Q 1875 428 2675 428 
Q 3081 428 3442 575 
Q 3803 722 4122 1019 
L 4122 359 
Q 3791 134 3420 21 
Q 3050 -91 2638 -91 
Q 1578 -91 968 557 
Q 359 1206 359 2328 
Q 359 3453 968 4101 
Q 1578 4750 2638 4750 
Q 3056 4750 3426 4639 
Q 3797 4528 4122 4306 
z
" transform="scale(0.015625)"/>
      <path id="DejaVuSans-6d" d="M 3328 2828 
Q 3544 3216 3844 3400 
Q 4144 3584 4550 3584 
Q 5097 3584 5394 3201 
Q 5691 2819 5691 2113 
L 5691 0 
L 5113 0 
L 5113 2094 
Q 5113 2597 4934 2840 
Q 4756 3084 4391 3084 
Q 3944 3084 3684 2787 
Q 3425 2491 3425 1978 
L 3425 0 
L 2847 0 
L 2847 2094 
Q 2847 2600 2669 2842 
Q 2491 3084 2119 3084 
Q 1678 3084 1418 2786 
Q 1159 2488 1159 1978 
L 1159 0 
L 581 0 
L 581 3500 
L 1159 3500 
L 1159 2956 
Q 1356 3278 1631 3431 
Q 1906 3584 2284 3584 
Q 2666 3584 2933 3390 
Q 3200 3197 3328 2828 
z
" transform="scale(0.015625)"/>
      <path id="DejaVuSans-62" d="M 3116 1747 
Q 3116 2381 2855 2742 
Q 2594 3103 2138 3103 
Q 1681 3103 1420 2742 
Q 1159 2381 1159 1747 
Q 1159 1113 1420 752 
Q 1681 391 2138 391 
Q 2594 391 2855 752 
Q 3116 1113 3116 1747 
z
M 1159 2969 
Q 1341 3281 1617 3432 
Q 1894 3584 2278 3584 
Q 2916 3584 3314 3078 
Q 3713 2572 3713 1747 
Q 3713 922 3314 415 
Q 2916 -91 2278 -91 
Q 1894 -91 1617 61 
Q 1341 213 1159 525 
L 1159 0 
L 581 0 
L 581 4863 
L 1159 4863 
L 1159 2969 
z
" transform="scale(0.015625)"/>
      <path id="DejaVuSans-65" d="M 3597 1894 
L 3597 1613 
L 953 1613 
Q 991 1019 1311 708 
Q 1631 397 2203 397 
Q 2534 397 2845 478 
Q 3156 559 3463 722 
L 3463 178 
Q 3153 47 2828 -22 
Q 2503 -91 2169 -91 
Q 1331 -91 842 396 
Q 353 884 353 1716 
Q 353 2575 817 3079 
Q 1281 3584 2069 3584 
Q 2775 3584 3186 3129 
Q 3597 2675 3597 1894 
z
M 3022 2063 
Q 3016 2534 2758 2815 
Q 2500 3097 2075 3097 
Q 1594 3097 1305 2825 
Q 1016 2553 972 2059 
L 3022 2063 
z
" transform="scale(0.015625)"/>
      <path id="DejaVuSans-64" d="M 2906 2969 
L 2906 4863 
L 3481 4863 
L 3481 0 
L 2906 0 
L 2906 525 
Q 2725 213 2448 61 
Q 2172 -91 1784 -91 
Q 1150 -91 751 415 
Q 353 922 353 1747 
Q 353 2572 751 3078 
Q 1150 3584 1784 3584 
Q 2172 3584 2448 3432 
Q 2725 3281 2906 2969 
z
M 947 1747 
Q 947 1113 1208 752 
Q 1469 391 1925 391 
Q 2381 391 2643 752 
Q 2906 1113 2906 1747 
Q 2906 2381 2643 2742 
Q 2381 3103 1925 3103 
Q 1469 3103 1208 2742 
Q 947 2381 947 1747 
z
" transform="scale(0.015625)"/>
     </defs>
     <use xlink:href="#DejaVuSans-43"/>
     <use xlink:href="#DejaVuSans-6f" transform="translate(69.824219 0)"/>
     <use xlink:href="#DejaVuSans-6d" transform="translate(131.005859 0)"/>
     <use xlink:href="#DejaVuSans-62" transform="translate(228.417969 0)"/>
     <use xlink:href="#DejaVuSans-69" transform="translate(291.894531 0)"/>
     <use xlink:href="#DejaVuSans-6e" transform="translate(319.677734 0)"/>
     <use xlink:href="#DejaVuSans-65" transform="translate(383.056641 0)"/>
     <use xlink:href="#DejaVuSans-64" transform="translate(444.580078 0)"/>
     <use xlink:href="#DejaVuSans-20" transform="translate(508.056641 0)"/>
     <use xlink:href="#DejaVuSans-54" transform="translate(539.84375 0)"/>
     <use xlink:href="#DejaVuSans-72" transform="translate(586.177734 0)"/>
     <use xlink:href="#DejaVuSans-61" transform="translate(627.291016 0)"/>
     <use xlink:href="#DejaVuSans-69" transform="translate(688.570312 0)"/>
     <use xlink:href="#DejaVuSans-6e" transform="translate(716.353516 0)"/>
     <use xlink:href="#DejaVuSans-20" transform="translate(779.732422 0)"/>
     <use xlink:href="#DejaVuSans-4c" transform="translate(811.519531 0)"/>
     <use xlink:href="#DejaVuSans-6f" transform="translate(865.482422 0)"/>
     <use xlink:href="#DejaVuSans-73" transform="translate(926.664062 0)"/>
     <use xlink:href="#DejaVuSans-73" transform="translate(978.763672 0)"/>
    </g>
   </g>
   <g id="legend_1">
    <g id="patch_7">
     <path d="M 635.99625 103.70875 
L 698.17125 103.70875 
Q 700.17125 103.70875 700.17125 101.70875 
L 700.17125 29.318125 
Q 700.17125 27.318125 698.17125 27.318125 
L 635.99625 27.318125 
Q 633.99625 27.318125 633.99625 29.318125 
L 633.99625 101.70875 
Q 633.99625 103.70875 635.99625 103.70875 
z
" style="fill: #ffffff; opacity: 0.8; stroke: #cccccc; stroke-linejoin: miter"/>
    </g>
    <g id="line2d_20">
     <path d="M 637.99625 35.416562 
L 647.99625 35.416562 
L 657.99625 35.416562 
" style="fill: none; stroke: #1f77b4; stroke-width: 1.5; stroke-linecap: square"/>
    </g>
    <g id="text_18">
     <!-- Fold 1 -->
     <g transform="translate(665.99625 38.916562) scale(0.1 -0.1)">
      <defs>
       <path id="DejaVuSans-46" d="M 628 4666 
L 3309 4666 
L 3309 4134 
L 1259 4134 
L 1259 2759 
L 3109 2759 
L 3109 2228 
L 1259 2228 
L 1259 0 
L 628 0 
L 628 4666 
z
" transform="scale(0.015625)"/>
       <path id="DejaVuSans-6c" d="M 603 4863 
L 1178 4863 
L 1178 0 
L 603 0 
L 603 4863 
z
" transform="scale(0.015625)"/>
      </defs>
      <use xlink:href="#DejaVuSans-46"/>
      <use xlink:href="#DejaVuSans-6f" transform="translate(53.894531 0)"/>
      <use xlink:href="#DejaVuSans-6c" transform="translate(115.076172 0)"/>
      <use xlink:href="#DejaVuSans-64" transform="translate(142.859375 0)"/>
      <use xlink:href="#DejaVuSans-20" transform="translate(206.335938 0)"/>
      <use xlink:href="#DejaVuSans-31" transform="translate(238.123047 0)"/>
     </g>
    </g>
    <g id="line2d_21">
     <path d="M 637.99625 50.094688 
L 647.99625 50.094688 
L 657.99625 50.094688 
" style="fill: none; stroke: #ff7f0e; stroke-width: 1.5; stroke-linecap: square"/>
    </g>
    <g id="text_19">
     <!-- Fold 2 -->
     <g transform="translate(665.99625 53.594688) scale(0.1 -0.1)">
      <use xlink:href="#DejaVuSans-46"/>
      <use xlink:href="#DejaVuSans-6f" transform="translate(53.894531 0)"/>
      <use xlink:href="#DejaVuSans-6c" transform="translate(115.076172 0)"/>
      <use xlink:href="#DejaVuSans-64" transform="translate(142.859375 0)"/>
      <use xlink:href="#DejaVuSans-20" transform="translate(206.335938 0)"/>
      <use xlink:href="#DejaVuSans-32" transform="translate(238.123047 0)"/>
     </g>
    </g>
    <g id="line2d_22">
     <path d="M 637.99625 64.772812 
L 647.99625 64.772812 
L 657.99625 64.772812 
" style="fill: none; stroke: #2ca02c; stroke-width: 1.5; stroke-linecap: square"/>
    </g>
    <g id="text_20">
     <!-- Fold 3 -->
     <g transform="translate(665.99625 68.272812) scale(0.1 -0.1)">
      <defs>
       <path id="DejaVuSans-33" d="M 2597 2516 
Q 3050 2419 3304 2112 
Q 3559 1806 3559 1356 
Q 3559 666 3084 287 
Q 2609 -91 1734 -91 
Q 1441 -91 1130 -33 
Q 819 25 488 141 
L 488 750 
Q 750 597 1062 519 
Q 1375 441 1716 441 
Q 2309 441 2620 675 
Q 2931 909 2931 1356 
Q 2931 1769 2642 2001 
Q 2353 2234 1838 2234 
L 1294 2234 
L 1294 2753 
L 1863 2753 
Q 2328 2753 2575 2939 
Q 2822 3125 2822 3475 
Q 2822 3834 2567 4026 
Q 2313 4219 1838 4219 
Q 1578 4219 1281 4162 
Q 984 4106 628 3988 
L 628 4550 
Q 988 4650 1302 4700 
Q 1616 4750 1894 4750 
Q 2613 4750 3031 4423 
Q 3450 4097 3450 3541 
Q 3450 3153 3228 2886 
Q 3006 2619 2597 2516 
z
" transform="scale(0.015625)"/>
      </defs>
      <use xlink:href="#DejaVuSans-46"/>
      <use xlink:href="#DejaVuSans-6f" transform="translate(53.894531 0)"/>
      <use xlink:href="#DejaVuSans-6c" transform="translate(115.076172 0)"/>
      <use xlink:href="#DejaVuSans-64" transform="translate(142.859375 0)"/>
      <use xlink:href="#DejaVuSans-20" transform="translate(206.335938 0)"/>
      <use xlink:href="#DejaVuSans-33" transform="translate(238.123047 0)"/>
     </g>
    </g>
    <g id="line2d_23">
     <path d="M 637.99625 79.450938 
L 647.99625 79.450938 
L 657.99625 79.450938 
" style="fill: none; stroke: #d62728; stroke-width: 1.5; stroke-linecap: square"/>
    </g>
    <g id="text_21">
     <!-- Fold 4 -->
     <g transform="translate(665.99625 82.950938) scale(0.1 -0.1)">
      <use xlink:href="#DejaVuSans-46"/>
      <use xlink:href="#DejaVuSans-6f" transform="translate(53.894531 0)"/>
      <use xlink:href="#DejaVuSans-6c" transform="translate(115.076172 0)"/>
      <use xlink:href="#DejaVuSans-64" transform="translate(142.859375 0)"/>
      <use xlink:href="#DejaVuSans-20" transform="translate(206.335938 0)"/>
      <use xlink:href="#DejaVuSans-34" transform="translate(238.123047 0)"/>
     </g>
    </g>
    <g id="line2d_24">
     <path d="M 637.99625 94.129063 
L 647.99625 94.129063 
L 657.99625 94.129063 
" style="fill: none; stroke: #9467bd; stroke-width: 1.5; stroke-linecap: square"/>
    </g>
    <g id="text_22">
     <!-- Fold 5 -->
     <g transform="translate(665.99625 97.629063) scale(0.1 -0.1)">
      <defs>
       <path id="DejaVuSans-35" d="M 691 4666 
L 3169 4666 
L 3169 4134 
L 1269 4134 
L 1269 2991 
Q 1406 3038 1543 3061 
Q 1681 3084 1819 3084 
Q 2600 3084 3056 2656 
Q 3513 2228 3513 1497 
Q 3513 744 3044 326 
Q 2575 -91 1722 -91 
Q 1428 -91 1123 -41 
Q 819 9 494 109 
L 494 744 
Q 775 591 1075 516 
Q 1375 441 1709 441 
Q 2250 441 2565 725 
Q 2881 1009 2881 1497 
Q 2881 1984 2565 2268 
Q 2250 2553 1709 2553 
Q 1456 2553 1204 2497 
Q 953 2441 691 2322 
L 691 4666 
z
" transform="scale(0.015625)"/>
      </defs>
      <use xlink:href="#DejaVuSans-46"/>
      <use xlink:href="#DejaVuSans-6f" transform="translate(53.894531 0)"/>
      <use xlink:href="#DejaVuSans-6c" transform="translate(115.076172 0)"/>
      <use xlink:href="#DejaVuSans-64" transform="translate(142.859375 0)"/>
      <use xlink:href="#DejaVuSans-20" transform="translate(206.335938 0)"/>
      <use xlink:href="#DejaVuSans-35" transform="translate(238.123047 0)"/>
     </g>
    </g>
   </g>
  </g>
 </g>
 <defs>
  <clipPath id="p8ee23bae81">
   <rect x="43.78125" y="22.318125" width="661.39" height="363.16"/>
  </clipPath>
 </defs>
</svg>
