<?xml version="1.0" encoding="utf-8" standalone="no"?>
<!DOCTYPE svg PUBLIC "-//W3C//DTD SVG 1.1//EN"
  "http://www.w3.org/Graphics/SVG/1.1/DTD/svg11.dtd">
<svg xmlns:xlink="http://www.w3.org/1999/xlink" width="712.37125pt" height="423.034375pt" viewBox="0 0 712.37125 423.034375" xmlns="http://www.w3.org/2000/svg" version="1.1">
 <metadata>
  <rdf:RDF xmlns:dc="http://purl.org/dc/elements/1.1/" xmlns:cc="http://creativecommons.org/ns#" xmlns:rdf="http://www.w3.org/1999/02/22-rdf-syntax-ns#">
   <cc:Work>
    <dc:type rdf:resource="http://purl.org/dc/dcmitype/StillImage"/>
    <dc:date>2025-06-26T10:47:50.252117</dc:date>
    <dc:format>image/svg+xml</dc:format>
    <dc:creator>
     <cc:Agent>
      <dc:title>Matplotlib v3.10.0, https://matplotlib.org/</dc:title>
     </cc:Agent>
    </dc:creator>
   </cc:Work>
  </rdf:RDF>
 </metadata>
 <defs>
  <style type="text/css">*{stroke-linejoin: round; stroke-linecap: butt}</style>
 </defs>
 <g id="figure_1">
  <g id="patch_1">
   <path d="M 0 423.034375 
L 712.37125 423.034375 
L 712.37125 0 
L 0 0 
z
" style="fill: #ffffff"/>
  </g>
  <g id="axes_1">
   <g id="patch_2">
    <path d="M 43.78125 385.478125 
L 705.17125 385.478125 
L 705.17125 22.318125 
L 43.78125 22.318125 
z
" style="fill: #ffffff"/>
   </g>
   <g id="matplotlib.axis_1">
    <g id="xtick_1">
     <g id="line2d_1">
      <defs>
       <path id="m180dd4ddf7" d="M 0 0 
L 0 3.5 
" style="stroke: #000000; stroke-width: 0.8"/>
      </defs>
      <g>
       <use xlink:href="#m180dd4ddf7" x="67.771062" y="385.478125" style="stroke: #000000; stroke-width: 0.8"/>
      </g>
     </g>
     <g id="text_1">
      <!-- 0 -->
      <g transform="translate(64.589812 400.076562) scale(0.1 -0.1)">
       <defs>
        <path id="DejaVuSans-30" d="M 2034 4250 
Q 1547 4250 1301 3770 
Q 1056 3291 1056 2328 
Q 1056 1369 1301 889 
Q 1547 409 2034 409 
Q 2525 409 2770 889 
Q 3016 1369 3016 2328 
Q 3016 3291 2770 3770 
Q 2525 4250 2034 4250 
z
M 2034 4750 
Q 2819 4750 3233 4129 
Q 3647 3509 3647 2328 
Q 3647 1150 3233 529 
Q 2819 -91 2034 -91 
Q 1250 -91 836 529 
Q 422 1150 422 2328 
Q 422 3509 836 4129 
Q 1250 4750 2034 4750 
z
" transform="scale(0.015625)"/>
       </defs>
       <use xlink:href="#DejaVuSans-30"/>
      </g>
     </g>
    </g>
    <g id="xtick_2">
     <g id="line2d_2">
      <g>
       <use xlink:href="#m180dd4ddf7" x="189.238463" y="385.478125" style="stroke: #000000; stroke-width: 0.8"/>
      </g>
     </g>
     <g id="text_2">
      <!-- 20 -->
      <g transform="translate(182.875963 400.076562) scale(0.1 -0.1)">
       <defs>
        <path id="DejaVuSans-32" d="M 1228 531 
L 3431 531 
L 3431 0 
L 469 0 
L 469 531 
Q 828 903 1448 1529 
Q 2069 2156 2228 2338 
Q 2531 2678 2651 2914 
Q 2772 3150 2772 3378 
Q 2772 3750 2511 3984 
Q 2250 4219 1831 4219 
Q 1534 4219 1204 4116 
Q 875 4013 500 3803 
L 500 4441 
Q 881 4594 1212 4672 
Q 1544 4750 1819 4750 
Q 2544 4750 2975 4387 
Q 3406 4025 3406 3419 
Q 3406 3131 3298 2873 
Q 3191 2616 2906 2266 
Q 2828 2175 2409 1742 
Q 1991 1309 1228 531 
z
" transform="scale(0.015625)"/>
       </defs>
       <use xlink:href="#DejaVuSans-32"/>
       <use xlink:href="#DejaVuSans-30" transform="translate(63.623047 0)"/>
      </g>
     </g>
    </g>
    <g id="xtick_3">
     <g id="line2d_3">
      <g>
       <use xlink:href="#m180dd4ddf7" x="310.705864" y="385.478125" style="stroke: #000000; stroke-width: 0.8"/>
      </g>
     </g>
     <g id="text_3">
      <!-- 40 -->
      <g transform="translate(304.343364 400.076562) scale(0.1 -0.1)">
       <defs>
        <path id="DejaVuSans-34" d="M 2419 4116 
L 825 1625 
L 2419 1625 
L 2419 4116 
z
M 2253 4666 
L 3047 4666 
L 3047 1625 
L 3713 1625 
L 3713 1100 
L 3047 1100 
L 3047 0 
L 2419 0 
L 2419 1100 
L 313 1100 
L 313 1709 
L 2253 4666 
z
" transform="scale(0.015625)"/>
       </defs>
       <use xlink:href="#DejaVuSans-34"/>
       <use xlink:href="#DejaVuSans-30" transform="translate(63.623047 0)"/>
      </g>
     </g>
    </g>
    <g id="xtick_4">
     <g id="line2d_4">
      <g>
       <use xlink:href="#m180dd4ddf7" x="432.173266" y="385.478125" style="stroke: #000000; stroke-width: 0.8"/>
      </g>
     </g>
     <g id="text_4">
      <!-- 60 -->
      <g transform="translate(425.810766 400.076562) scale(0.1 -0.1)">
       <defs>
        <path id="DejaVuSans-36" d="M 2113 2584 
Q 1688 2584 1439 2293 
Q 1191 2003 1191 1497 
Q 1191 994 1439 701 
Q 1688 409 2113 409 
Q 2538 409 2786 701 
Q 3034 994 3034 1497 
Q 3034 2003 2786 2293 
Q 2538 2584 2113 2584 
z
M 3366 4563 
L 3366 3988 
Q 3128 4100 2886 4159 
Q 2644 4219 2406 4219 
Q 1781 4219 1451 3797 
Q 1122 3375 1075 2522 
Q 1259 2794 1537 2939 
Q 1816 3084 2150 3084 
Q 2853 3084 3261 2657 
Q 3669 2231 3669 1497 
Q 3669 778 3244 343 
Q 2819 -91 2113 -91 
Q 1303 -91 875 529 
Q 447 1150 447 2328 
Q 447 3434 972 4092 
Q 1497 4750 2381 4750 
Q 2619 4750 2861 4703 
Q 3103 4656 3366 4563 
z
" transform="scale(0.015625)"/>
       </defs>
       <use xlink:href="#DejaVuSans-36"/>
       <use xlink:href="#DejaVuSans-30" transform="translate(63.623047 0)"/>
      </g>
     </g>
    </g>
    <g id="xtick_5">
     <g id="line2d_5">
      <g>
       <use xlink:href="#m180dd4ddf7" x="553.640667" y="385.478125" style="stroke: #000000; stroke-width: 0.8"/>
      </g>
     </g>
     <g id="text_5">
      <!-- 80 -->
      <g transform="translate(547.278167 400.076562) scale(0.1 -0.1)">
       <defs>
        <path id="DejaVuSans-38" d="M 2034 2216 
Q 1584 2216 1326 1975 
Q 1069 1734 1069 1313 
Q 1069 891 1326 650 
Q 1584 409 2034 409 
Q 2484 409 2743 651 
Q 3003 894 3003 1313 
Q 3003 1734 2745 1975 
Q 2488 2216 2034 2216 
z
M 1403 2484 
Q 997 2584 770 2862 
Q 544 3141 544 3541 
Q 544 4100 942 4425 
Q 1341 4750 2034 4750 
Q 2731 4750 3128 4425 
Q 3525 4100 3525 3541 
Q 3525 3141 3298 2862 
Q 3072 2584 2669 2484 
Q 3125 2378 3379 2068 
Q 3634 1759 3634 1313 
Q 3634 634 3220 271 
Q 2806 -91 2034 -91 
Q 1263 -91 848 271 
Q 434 634 434 1313 
Q 434 1759 690 2068 
Q 947 2378 1403 2484 
z
M 1172 3481 
Q 1172 3119 1398 2916 
Q 1625 2713 2034 2713 
Q 2441 2713 2670 2916 
Q 2900 3119 2900 3481 
Q 2900 3844 2670 4047 
Q 2441 4250 2034 4250 
Q 1625 4250 1398 4047 
Q 1172 3844 1172 3481 
z
" transform="scale(0.015625)"/>
       </defs>
       <use xlink:href="#DejaVuSans-38"/>
       <use xlink:href="#DejaVuSans-30" transform="translate(63.623047 0)"/>
      </g>
     </g>
    </g>
    <g id="xtick_6">
     <g id="line2d_6">
      <g>
       <use xlink:href="#m180dd4ddf7" x="675.108068" y="385.478125" style="stroke: #000000; stroke-width: 0.8"/>
      </g>
     </g>
     <g id="text_6">
      <!-- 100 -->
      <g transform="translate(665.564318 400.076562) scale(0.1 -0.1)">
       <defs>
        <path id="DejaVuSans-31" d="M 794 531 
L 1825 531 
L 1825 4091 
L 703 3866 
L 703 4441 
L 1819 4666 
L 2450 4666 
L 2450 531 
L 3481 531 
L 3481 0 
L 794 0 
L 794 531 
z
" transform="scale(0.015625)"/>
       </defs>
       <use xlink:href="#DejaVuSans-31"/>
       <use xlink:href="#DejaVuSans-30" transform="translate(63.623047 0)"/>
       <use xlink:href="#DejaVuSans-30" transform="translate(127.246094 0)"/>
      </g>
     </g>
    </g>
    <g id="text_7">
     <!-- Epoch -->
     <g transform="translate(359.165313 413.754687) scale(0.1 -0.1)">
      <defs>
       <path id="DejaVuSans-45" d="M 628 4666 
L 3578 4666 
L 3578 4134 
L 1259 4134 
L 1259 2753 
L 3481 2753 
L 3481 2222 
L 1259 2222 
L 1259 531 
L 3634 531 
L 3634 0 
L 628 0 
L 628 4666 
z
" transform="scale(0.015625)"/>
       <path id="DejaVuSans-70" d="M 1159 525 
L 1159 -1331 
L 581 -1331 
L 581 3500 
L 1159 3500 
L 1159 2969 
Q 1341 3281 1617 3432 
Q 1894 3584 2278 3584 
Q 2916 3584 3314 3078 
Q 3713 2572 3713 1747 
Q 3713 922 3314 415 
Q 2916 -91 2278 -91 
Q 1894 -91 1617 61 
Q 1341 213 1159 525 
z
M 3116 1747 
Q 3116 2381 2855 2742 
Q 2594 3103 2138 3103 
Q 1681 3103 1420 2742 
Q 1159 2381 1159 1747 
Q 1159 1113 1420 752 
Q 1681 391 2138 391 
Q 2594 391 2855 752 
Q 3116 1113 3116 1747 
z
" transform="scale(0.015625)"/>
       <path id="DejaVuSans-6f" d="M 1959 3097 
Q 1497 3097 1228 2736 
Q 959 2375 959 1747 
Q 959 1119 1226 758 
Q 1494 397 1959 397 
Q 2419 397 2687 759 
Q 2956 1122 2956 1747 
Q 2956 2369 2687 2733 
Q 2419 3097 1959 3097 
z
M 1959 3584 
Q 2709 3584 3137 3096 
Q 3566 2609 3566 1747 
Q 3566 888 3137 398 
Q 2709 -91 1959 -91 
Q 1206 -91 779 398 
Q 353 888 353 1747 
Q 353 2609 779 3096 
Q 1206 3584 1959 3584 
z
" transform="scale(0.015625)"/>
       <path id="DejaVuSans-63" d="M 3122 3366 
L 3122 2828 
Q 2878 2963 2633 3030 
Q 2388 3097 2138 3097 
Q 1578 3097 1268 2742 
Q 959 2388 959 1747 
Q 959 1106 1268 751 
Q 1578 397 2138 397 
Q 2388 397 2633 464 
Q 2878 531 3122 666 
L 3122 134 
Q 2881 22 2623 -34 
Q 2366 -91 2075 -91 
Q 1284 -91 818 406 
Q 353 903 353 1747 
Q 353 2603 823 3093 
Q 1294 3584 2113 3584 
Q 2378 3584 2631 3529 
Q 2884 3475 3122 3366 
z
" transform="scale(0.015625)"/>
       <path id="DejaVuSans-68" d="M 3513 2113 
L 3513 0 
L 2938 0 
L 2938 2094 
Q 2938 2591 2744 2837 
Q 2550 3084 2163 3084 
Q 1697 3084 1428 2787 
Q 1159 2491 1159 1978 
L 1159 0 
L 581 0 
L 581 4863 
L 1159 4863 
L 1159 2956 
Q 1366 3272 1645 3428 
Q 1925 3584 2291 3584 
Q 2894 3584 3203 3211 
Q 3513 2838 3513 2113 
z
" transform="scale(0.015625)"/>
      </defs>
      <use xlink:href="#DejaVuSans-45"/>
      <use xlink:href="#DejaVuSans-70" transform="translate(63.183594 0)"/>
      <use xlink:href="#DejaVuSans-6f" transform="translate(126.660156 0)"/>
      <use xlink:href="#DejaVuSans-63" transform="translate(187.841797 0)"/>
      <use xlink:href="#DejaVuSans-68" transform="translate(242.822266 0)"/>
     </g>
    </g>
   </g>
   <g id="matplotlib.axis_2">
    <g id="ytick_1">
     <g id="line2d_7">
      <defs>
       <path id="m71fa002c9b" d="M 0 0 
L -3.5 0 
" style="stroke: #000000; stroke-width: 0.8"/>
      </defs>
      <g>
       <use xlink:href="#m71fa002c9b" x="43.78125" y="353.956829" style="stroke: #000000; stroke-width: 0.8"/>
      </g>
     </g>
     <g id="text_8">
      <!-- 0.2 -->
      <g transform="translate(20.878125 357.756048) scale(0.1 -0.1)">
       <defs>
        <path id="DejaVuSans-2e" d="M 684 794 
L 1344 794 
L 1344 0 
L 684 0 
L 684 794 
z
" transform="scale(0.015625)"/>
       </defs>
       <use xlink:href="#DejaVuSans-30"/>
       <use xlink:href="#DejaVuSans-2e" transform="translate(63.623047 0)"/>
       <use xlink:href="#DejaVuSans-32" transform="translate(95.410156 0)"/>
      </g>
     </g>
    </g>
    <g id="ytick_2">
     <g id="line2d_8">
      <g>
       <use xlink:href="#m71fa002c9b" x="43.78125" y="307.977263" style="stroke: #000000; stroke-width: 0.8"/>
      </g>
     </g>
     <g id="text_9">
      <!-- 0.4 -->
      <g transform="translate(20.878125 311.776482) scale(0.1 -0.1)">
       <use xlink:href="#DejaVuSans-30"/>
       <use xlink:href="#DejaVuSans-2e" transform="translate(63.623047 0)"/>
       <use xlink:href="#DejaVuSans-34" transform="translate(95.410156 0)"/>
      </g>
     </g>
    </g>
    <g id="ytick_3">
     <g id="line2d_9">
      <g>
       <use xlink:href="#m71fa002c9b" x="43.78125" y="261.997698" style="stroke: #000000; stroke-width: 0.8"/>
      </g>
     </g>
     <g id="text_10">
      <!-- 0.6 -->
      <g transform="translate(20.878125 265.796917) scale(0.1 -0.1)">
       <use xlink:href="#DejaVuSans-30"/>
       <use xlink:href="#DejaVuSans-2e" transform="translate(63.623047 0)"/>
       <use xlink:href="#DejaVuSans-36" transform="translate(95.410156 0)"/>
      </g>
     </g>
    </g>
    <g id="ytick_4">
     <g id="line2d_10">
      <g>
       <use xlink:href="#m71fa002c9b" x="43.78125" y="216.018133" style="stroke: #000000; stroke-width: 0.8"/>
      </g>
     </g>
     <g id="text_11">
      <!-- 0.8 -->
      <g transform="translate(20.878125 219.817351) scale(0.1 -0.1)">
       <use xlink:href="#DejaVuSans-30"/>
       <use xlink:href="#DejaVuSans-2e" transform="translate(63.623047 0)"/>
       <use xlink:href="#DejaVuSans-38" transform="translate(95.410156 0)"/>
      </g>
     </g>
    </g>
    <g id="ytick_5">
     <g id="line2d_11">
      <g>
       <use xlink:href="#m71fa002c9b" x="43.78125" y="170.038567" style="stroke: #000000; stroke-width: 0.8"/>
      </g>
     </g>
     <g id="text_12">
      <!-- 1.0 -->
      <g transform="translate(20.878125 173.837786) scale(0.1 -0.1)">
       <use xlink:href="#DejaVuSans-31"/>
       <use xlink:href="#DejaVuSans-2e" transform="translate(63.623047 0)"/>
       <use xlink:href="#DejaVuSans-30" transform="translate(95.410156 0)"/>
      </g>
     </g>
    </g>
    <g id="ytick_6">
     <g id="line2d_12">
      <g>
       <use xlink:href="#m71fa002c9b" x="43.78125" y="124.059002" style="stroke: #000000; stroke-width: 0.8"/>
      </g>
     </g>
     <g id="text_13">
      <!-- 1.2 -->
      <g transform="translate(20.878125 127.858221) scale(0.1 -0.1)">
       <use xlink:href="#DejaVuSans-31"/>
       <use xlink:href="#DejaVuSans-2e" transform="translate(63.623047 0)"/>
       <use xlink:href="#DejaVuSans-32" transform="translate(95.410156 0)"/>
      </g>
     </g>
    </g>
    <g id="ytick_7">
     <g id="line2d_13">
      <g>
       <use xlink:href="#m71fa002c9b" x="43.78125" y="78.079437" style="stroke: #000000; stroke-width: 0.8"/>
      </g>
     </g>
     <g id="text_14">
      <!-- 1.4 -->
      <g transform="translate(20.878125 81.878655) scale(0.1 -0.1)">
       <use xlink:href="#DejaVuSans-31"/>
       <use xlink:href="#DejaVuSans-2e" transform="translate(63.623047 0)"/>
       <use xlink:href="#DejaVuSans-34" transform="translate(95.410156 0)"/>
      </g>
     </g>
    </g>
    <g id="ytick_8">
     <g id="line2d_14">
      <g>
       <use xlink:href="#m71fa002c9b" x="43.78125" y="32.099871" style="stroke: #000000; stroke-width: 0.8"/>
      </g>
     </g>
     <g id="text_15">
      <!-- 1.6 -->
      <g transform="translate(20.878125 35.89909) scale(0.1 -0.1)">
       <use xlink:href="#DejaVuSans-31"/>
       <use xlink:href="#DejaVuSans-2e" transform="translate(63.623047 0)"/>
       <use xlink:href="#DejaVuSans-36" transform="translate(95.410156 0)"/>
      </g>
     </g>
    </g>
    <g id="text_16">
     <!-- Train Loss -->
     <g transform="translate(14.798438 228.448125) rotate(-90) scale(0.1 -0.1)">
      <defs>
       <path id="DejaVuSans-54" d="M -19 4666 
L 3928 4666 
L 3928 4134 
L 2272 4134 
L 2272 0 
L 1638 0 
L 1638 4134 
L -19 4134 
L -19 4666 
z
" transform="scale(0.015625)"/>
       <path id="DejaVuSans-72" d="M 2631 2963 
Q 2534 3019 2420 3045 
Q 2306 3072 2169 3072 
Q 1681 3072 1420 2755 
Q 1159 2438 1159 1844 
L 1159 0 
L 581 0 
L 581 3500 
L 1159 3500 
L 1159 2956 
Q 1341 3275 1631 3429 
Q 1922 3584 2338 3584 
Q 2397 3584 2469 3576 
Q 2541 3569 2628 3553 
L 2631 2963 
z
" transform="scale(0.015625)"/>
       <path id="DejaVuSans-61" d="M 2194 1759 
Q 1497 1759 1228 1600 
Q 959 1441 959 1056 
Q 959 750 1161 570 
Q 1363 391 1709 391 
Q 2188 391 2477 730 
Q 2766 1069 2766 1631 
L 2766 1759 
L 2194 1759 
z
M 3341 1997 
L 3341 0 
L 2766 0 
L 2766 531 
Q 2569 213 2275 61 
Q 1981 -91 1556 -91 
Q 1019 -91 701 211 
Q 384 513 384 1019 
Q 384 1609 779 1909 
Q 1175 2209 1959 2209 
L 2766 2209 
L 2766 2266 
Q 2766 2663 2505 2880 
Q 2244 3097 1772 3097 
Q 1472 3097 1187 3025 
Q 903 2953 641 2809 
L 641 3341 
Q 956 3463 1253 3523 
Q 1550 3584 1831 3584 
Q 2591 3584 2966 3190 
Q 3341 2797 3341 1997 
z
" transform="scale(0.015625)"/>
       <path id="DejaVuSans-69" d="M 603 3500 
L 1178 3500 
L 1178 0 
L 603 0 
L 603 3500 
z
M 603 4863 
L 1178 4863 
L 1178 4134 
L 603 4134 
L 603 4863 
z
" transform="scale(0.015625)"/>
       <path id="DejaVuSans-6e" d="M 3513 2113 
L 3513 0 
L 2938 0 
L 2938 2094 
Q 2938 2591 2744 2837 
Q 2550 3084 2163 3084 
Q 1697 3084 1428 2787 
Q 1159 2491 1159 1978 
L 1159 0 
L 581 0 
L 581 3500 
L 1159 3500 
L 1159 2956 
Q 1366 3272 1645 3428 
Q 1925 3584 2291 3584 
Q 2894 3584 3203 3211 
Q 3513 2838 3513 2113 
z
" transform="scale(0.015625)"/>
       <path id="DejaVuSans-20" transform="scale(0.015625)"/>
       <path id="DejaVuSans-4c" d="M 628 4666 
L 1259 4666 
L 1259 531 
L 3531 531 
L 3531 0 
L 628 0 
L 628 4666 
z
" transform="scale(0.015625)"/>
       <path id="DejaVuSans-73" d="M 2834 3397 
L 2834 2853 
Q 2591 2978 2328 3040 
Q 2066 3103 1784 3103 
Q 1356 3103 1142 2972 
Q 928 2841 928 2578 
Q 928 2378 1081 2264 
Q 1234 2150 1697 2047 
L 1894 2003 
Q 2506 1872 2764 1633 
Q 3022 1394 3022 966 
Q 3022 478 2636 193 
Q 2250 -91 1575 -91 
Q 1294 -91 989 -36 
Q 684 19 347 128 
L 347 722 
Q 666 556 975 473 
Q 1284 391 1588 391 
Q 1994 391 2212 530 
Q 2431 669 2431 922 
Q 2431 1156 2273 1281 
Q 2116 1406 1581 1522 
L 1381 1569 
Q 847 1681 609 1914 
Q 372 2147 372 2553 
Q 372 3047 722 3315 
Q 1072 3584 1716 3584 
Q 2034 3584 2315 3537 
Q 2597 3491 2834 3397 
z
" transform="scale(0.015625)"/>
      </defs>
      <use xlink:href="#DejaVuSans-54"/>
      <use xlink:href="#DejaVuSans-72" transform="translate(46.333984 0)"/>
      <use xlink:href="#DejaVuSans-61" transform="translate(87.447266 0)"/>
      <use xlink:href="#DejaVuSans-69" transform="translate(148.726562 0)"/>
      <use xlink:href="#DejaVuSans-6e" transform="translate(176.509766 0)"/>
      <use xlink:href="#DejaVuSans-20" transform="translate(239.888672 0)"/>
      <use xlink:href="#DejaVuSans-4c" transform="translate(271.675781 0)"/>
      <use xlink:href="#DejaVuSans-6f" transform="translate(325.638672 0)"/>
      <use xlink:href="#DejaVuSans-73" transform="translate(386.820312 0)"/>
      <use xlink:href="#DejaVuSans-73" transform="translate(438.919922 0)"/>
     </g>
    </g>
   </g>
   <g id="line2d_15">
    <path d="M 73.844432 55.28884 
L 79.917802 178.374296 
L 85.991172 200.951269 
L 92.064542 214.290907 
L 98.137912 218.110992 
L 104.211282 226.209688 
L 110.284652 233.880598 
L 116.358022 242.318084 
L 122.431392 251.35562 
L 128.504762 260.446984 
L 134.578132 265.782774 
L 140.651503 274.973948 
L 146.724873 279.029141 
L 152.798243 285.591733 
L 158.871613 287.027116 
L 164.944983 288.299151 
L 171.018353 291.559211 
L 177.091723 294.496831 
L 183.165093 296.554873 
L 189.238463 302.504496 
L 195.311833 303.292118 
L 201.385203 303.830305 
L 207.458573 308.658036 
L 213.531943 313.13949 
L 219.605313 317.312604 
L 225.678683 319.879779 
L 231.752053 323.409224 
L 237.825424 325.154245 
L 243.898794 322.871624 
L 249.972164 328.099103 
L 256.045534 327.6639 
L 262.118904 333.730587 
L 268.192274 335.181346 
L 274.265644 331.869509 
L 280.339014 336.443476 
L 286.412384 340.066567 
L 292.485754 338.987995 
L 298.559124 340.178684 
L 304.632494 343.925978 
L 310.705864 342.987973 
L 316.779234 340.94267 
L 322.852604 344.594721 
L 328.925975 343.808561 
L 334.999345 345.389006 
L 341.072715 346.283893 
L 347.146085 343.437209 
L 353.219455 347.981744 
L 359.292825 348.584447 
L 365.366195 349.466273 
L 371.439565 347.290756 
L 377.512935 349.639087 
L 383.586305 350.980719 
L 389.659675 349.354317 
L 395.733045 354.684773 
L 401.806415 351.881926 
L 407.879785 353.492474 
L 413.953155 354.072173 
L 420.026525 353.706551 
L 426.099896 351.715093 
L 432.173266 354.701005 
L 438.246636 357.308682 
L 444.320006 355.105887 
L 450.393376 352.09392 
L 456.466746 354.73879 
L 462.540116 357.530977 
L 468.613486 359.821762 
L 474.686856 354.198199 
L 480.760226 358.737971 
L 486.833596 360.912317 
L 492.906966 359.979865 
L 498.980336 358.956669 
L 505.053706 359.986199 
L 511.127076 360.610933 
L 517.200447 361.151683 
L 523.273817 360.833098 
L 529.347187 355.178361 
L 535.420557 357.830277 
L 541.493927 360.195748 
L 547.567297 358.466912 
L 553.640667 361.363537 
L 559.714037 358.892663 
L 565.787407 360.736908 
L 571.860777 363.506664 
L 577.934147 363.172132 
L 584.007517 362.630779 
L 590.080887 363.406949 
L 596.154257 361.08654 
L 602.227627 363.20373 
L 608.300997 365.386648 
L 614.374368 367.009475 
L 620.447738 365.533257 
L 626.521108 364.343376 
L 632.594478 363.37856 
L 638.667848 365.672828 
L 644.741218 362.223313 
L 650.814588 366.232136 
L 656.887958 367.609554 
L 662.961328 365.217846 
L 669.034698 363.551193 
L 675.108068 362.340603 
" clip-path="url(#pddb7b49565)" style="fill: none; stroke: #1f77b4; stroke-width: 1.5; stroke-linecap: square"/>
   </g>
   <g id="line2d_16">
    <path d="M 73.844432 58.164052 
L 79.917802 136.523592 
L 85.991172 172.530088 
L 92.064542 196.815826 
L 98.137912 213.138209 
L 104.211282 226.400449 
L 110.284652 235.301126 
L 116.358022 240.03991 
L 122.431392 244.210172 
L 128.504762 249.927184 
L 134.578132 254.03898 
L 140.651503 254.52354 
L 146.724873 263.755964 
L 152.798243 269.939462 
L 158.871613 279.482869 
L 164.944983 284.633613 
L 171.018353 284.6005 
L 177.091723 291.238083 
L 183.165093 293.320154 
L 189.238463 294.187129 
L 195.311833 298.53222 
L 201.385203 302.120332 
L 207.458573 306.813701 
L 213.531943 307.103286 
L 219.605313 306.075751 
L 225.678683 311.672593 
L 231.752053 313.798738 
L 237.825424 313.255061 
L 243.898794 321.453572 
L 249.972164 321.222317 
L 256.045534 324.805791 
L 262.118904 325.641799 
L 268.192274 329.955108 
L 274.265644 327.490016 
L 280.339014 329.626521 
L 286.412384 332.8563 
L 292.485754 332.811511 
L 298.559124 334.224387 
L 304.632494 335.682504 
L 310.705864 337.583549 
L 316.779234 335.725738 
L 322.852604 338.108968 
L 328.925975 340.16418 
L 334.999345 339.127247 
L 341.072715 343.162054 
L 347.146085 344.053555 
L 353.219455 344.755904 
L 359.292825 343.21828 
L 365.366195 343.907642 
L 371.439565 345.334789 
L 377.512935 350.615738 
L 383.586305 347.984236 
L 389.659675 347.23272 
L 395.733045 351.60216 
L 401.806415 348.783846 
L 407.879785 354.507538 
L 413.953155 353.163642 
L 420.026525 352.124038 
L 426.099896 351.912466 
L 432.173266 354.690407 
L 438.246636 356.698021 
L 444.320006 355.274832 
L 450.393376 353.965186 
L 456.466746 358.114155 
L 462.540116 358.26331 
L 468.613486 355.347305 
L 474.686856 356.800517 
L 480.760226 357.41464 
L 486.833596 358.708188 
L 492.906966 358.151956 
L 498.980336 359.141233 
L 505.053706 356.643438 
L 511.127076 363.864119 
L 517.200447 359.410842 
L 523.273817 359.726397 
L 529.347187 357.275503 
L 535.420557 359.080907 
L 541.493927 362.177985 
L 547.567297 362.923726 
L 553.640667 354.700599 
L 559.714037 359.662165 
L 565.787407 362.95359 
L 571.860777 364.113146 
L 577.934147 362.809245 
L 584.007517 362.801578 
L 590.080887 363.302857 
L 596.154257 363.621291 
L 602.227627 364.028818 
L 608.300997 363.474924 
L 614.374368 365.107454 
L 620.447738 367.841425 
L 626.521108 360.248087 
L 632.594478 368.473317 
L 638.667848 364.118064 
L 644.741218 367.215492 
L 650.814588 368.970852 
L 656.887958 367.776515 
L 662.961328 358.976008 
L 669.034698 365.719377 
L 675.108068 366.72618 
" clip-path="url(#pddb7b49565)" style="fill: none; stroke: #ff7f0e; stroke-width: 1.5; stroke-linecap: square"/>
   </g>
   <g id="line2d_17">
    <path d="M 73.844432 38.825398 
L 79.917802 122.378741 
L 85.991172 164.215841 
L 92.064542 195.790565 
L 98.137912 215.301193 
L 104.211282 224.56249 
L 110.284652 231.837887 
L 116.358022 232.574152 
L 122.431392 241.52121 
L 128.504762 246.881026 
L 134.578132 259.737159 
L 140.651503 261.151768 
L 146.724873 265.744759 
L 152.798243 271.286066 
L 158.871613 273.252991 
L 164.944983 280.639183 
L 171.018353 280.933878 
L 177.091723 283.647824 
L 183.165093 287.366398 
L 189.238463 288.347783 
L 195.311833 295.940645 
L 201.385203 296.934331 
L 207.458573 300.41933 
L 213.531943 302.270142 
L 219.605313 306.000363 
L 225.678683 310.034838 
L 231.752053 306.651779 
L 237.825424 314.819967 
L 243.898794 314.155144 
L 249.972164 317.233531 
L 256.045534 319.366246 
L 262.118904 321.572591 
L 268.192274 323.592546 
L 274.265644 324.705747 
L 280.339014 327.73853 
L 286.412384 328.97814 
L 292.485754 331.671934 
L 298.559124 331.123308 
L 304.632494 333.535318 
L 310.705864 331.365843 
L 316.779234 334.680108 
L 322.852604 335.754281 
L 328.925975 338.020233 
L 334.999345 339.551719 
L 341.072715 338.202475 
L 347.146085 341.375238 
L 353.219455 342.116908 
L 359.292825 337.837317 
L 365.366195 343.343037 
L 371.439565 340.106763 
L 377.512935 344.765952 
L 383.586305 346.126218 
L 389.659675 347.288909 
L 395.733045 346.733402 
L 401.806415 350.135908 
L 407.879785 350.643002 
L 413.953155 349.390599 
L 420.026525 349.016329 
L 426.099896 350.285948 
L 432.173266 350.296577 
L 438.246636 352.2053 
L 444.320006 350.028386 
L 450.393376 351.119462 
L 456.466746 353.16296 
L 462.540116 352.778156 
L 468.613486 353.800265 
L 474.686856 356.0603 
L 480.760226 355.698711 
L 486.833596 354.367563 
L 492.906966 352.030842 
L 498.980336 355.68966 
L 505.053706 356.638109 
L 511.127076 354.628585 
L 517.200447 357.988783 
L 523.273817 358.192297 
L 529.347187 355.570559 
L 535.420557 352.48149 
L 541.493927 354.739095 
L 547.567297 360.036489 
L 553.640667 360.637853 
L 559.714037 358.176602 
L 565.787407 356.039916 
L 571.860777 360.391595 
L 577.934147 359.34939 
L 584.007517 361.903986 
L 590.080887 356.716012 
L 596.154257 362.322692 
L 602.227627 359.668864 
L 608.300997 363.382828 
L 614.374368 360.012867 
L 620.447738 362.069708 
L 626.521108 360.255719 
L 632.594478 362.334138 
L 638.667848 362.990169 
L 644.741218 362.62128 
L 650.814588 359.607495 
L 656.887958 363.222664 
L 662.961328 363.508658 
L 669.034698 364.473752 
L 675.108068 366.051181 
" clip-path="url(#pddb7b49565)" style="fill: none; stroke: #2ca02c; stroke-width: 1.5; stroke-linecap: square"/>
   </g>
   <g id="line2d_18">
    <path d="M 73.844432 53.807112 
L 79.917802 169.382184 
L 85.991172 193.177388 
L 92.064542 215.661315 
L 98.137912 230.657033 
L 104.211282 241.385349 
L 110.284652 251.9265 
L 116.358022 258.995989 
L 122.431392 267.899 
L 128.504762 272.662119 
L 134.578132 283.977459 
L 140.651503 281.818082 
L 146.724873 283.809979 
L 152.798243 292.008511 
L 158.871613 290.421879 
L 164.944983 293.254143 
L 171.018353 301.931557 
L 177.091723 300.347247 
L 183.165093 301.534659 
L 189.238463 306.675949 
L 195.311833 307.358615 
L 201.385203 309.131757 
L 207.458573 311.913177 
L 213.531943 313.590088 
L 219.605313 317.926456 
L 225.678683 317.724967 
L 231.752053 318.64464 
L 237.825424 320.965922 
L 243.898794 322.924563 
L 249.972164 324.087231 
L 256.045534 325.691044 
L 262.118904 328.223784 
L 268.192274 325.93686 
L 274.265644 329.147164 
L 280.339014 331.780941 
L 286.412384 328.68784 
L 292.485754 333.408509 
L 298.559124 335.96643 
L 304.632494 337.629864 
L 310.705864 336.165288 
L 316.779234 334.928879 
L 322.852604 339.236346 
L 328.925975 337.69146 
L 334.999345 338.676058 
L 341.072715 340.357423 
L 347.146085 343.004703 
L 353.219455 340.741439 
L 359.292825 342.691295 
L 365.366195 344.620875 
L 371.439565 342.952569 
L 377.512935 345.566169 
L 383.586305 346.705007 
L 389.659675 346.449004 
L 395.733045 346.706374 
L 401.806415 345.961627 
L 407.879785 347.77182 
L 413.953155 347.099744 
L 420.026525 349.441419 
L 426.099896 350.382778 
L 432.173266 349.492952 
L 438.246636 349.657215 
L 444.320006 351.43057 
L 450.393376 352.397508 
L 456.466746 348.976299 
L 462.540116 348.114971 
L 468.613486 350.292062 
L 474.686856 353.106116 
L 480.760226 352.499504 
L 486.833596 352.790621 
L 492.906966 353.491662 
L 498.980336 356.087812 
L 505.053706 352.318966 
L 511.127076 355.67986 
L 517.200447 353.825113 
L 523.273817 354.650725 
L 529.347187 355.460126 
L 535.420557 353.265885 
L 541.493927 355.93715 
L 547.567297 357.638331 
L 553.640667 357.206252 
L 559.714037 355.511703 
L 565.787407 355.385607 
L 571.860777 356.575914 
L 577.934147 360.233694 
L 584.007517 359.458065 
L 590.080887 359.676992 
L 596.154257 358.323229 
L 602.227627 354.784084 
L 608.300997 360.056745 
L 614.374368 360.278069 
L 620.447738 361.690632 
L 626.521108 354.128806 
L 632.594478 361.080144 
L 638.667848 359.173703 
L 644.741218 358.530372 
L 650.814588 358.141514 
L 656.887958 359.509568 
L 662.961328 361.957976 
L 669.034698 362.793394 
L 675.108068 363.320204 
" clip-path="url(#pddb7b49565)" style="fill: none; stroke: #d62728; stroke-width: 1.5; stroke-linecap: square"/>
   </g>
   <g id="line2d_19">
    <path d="M 73.844432 47.352758 
L 79.917802 160.661594 
L 85.991172 198.918906 
L 92.064542 212.158242 
L 98.137912 227.007041 
L 104.211282 239.148595 
L 110.284652 247.627599 
L 116.358022 250.407048 
L 122.431392 259.669207 
L 128.504762 262.557886 
L 134.578132 264.5394 
L 140.651503 277.246035 
L 146.724873 278.289341 
L 152.798243 279.463042 
L 158.871613 288.542869 
L 164.944983 290.097526 
L 171.018353 296.155037 
L 177.091723 295.857105 
L 183.165093 301.902106 
L 189.238463 303.549073 
L 195.311833 302.635241 
L 201.385203 309.642245 
L 207.458573 313.224942 
L 213.531943 310.83421 
L 219.605313 314.133012 
L 225.678683 316.351396 
L 231.752053 318.974433 
L 237.825424 318.576941 
L 243.898794 322.912637 
L 249.972164 320.246459 
L 256.045534 323.071391 
L 262.118904 327.833023 
L 268.192274 324.486676 
L 274.265644 329.592558 
L 280.339014 329.411664 
L 286.412384 329.396715 
L 292.485754 329.743736 
L 298.559124 332.356795 
L 304.632494 331.282179 
L 310.705864 335.463238 
L 316.779234 335.379467 
L 322.852604 336.544121 
L 328.925975 337.546657 
L 334.999345 338.401049 
L 341.072715 337.631281 
L 347.146085 338.849515 
L 353.219455 339.061684 
L 359.292825 339.076322 
L 365.366195 343.582945 
L 371.439565 342.514605 
L 377.512935 340.008722 
L 383.586305 345.642299 
L 389.659675 341.573622 
L 395.733045 344.697472 
L 401.806415 339.339078 
L 407.879785 348.355422 
L 413.953155 345.359333 
L 420.026525 343.642215 
L 426.099896 347.023332 
L 432.173266 351.374095 
L 438.246636 349.818521 
L 444.320006 350.364521 
L 450.393376 352.753003 
L 456.466746 350.577101 
L 462.540116 346.897821 
L 468.613486 349.84595 
L 474.686856 347.697498 
L 480.760226 348.866122 
L 486.833596 354.044476 
L 492.906966 356.512086 
L 498.980336 355.286103 
L 505.053706 356.514007 
L 511.127076 357.194574 
L 517.200447 356.638635 
L 523.273817 350.57375 
L 529.347187 357.16982 
L 535.420557 357.708291 
L 541.493927 359.522057 
L 547.567297 351.115213 
L 553.640667 354.686322 
L 559.714037 357.445688 
L 565.787407 356.896075 
L 571.860777 348.865687 
L 577.934147 359.908151 
L 584.007517 355.156731 
L 590.080887 358.048787 
L 596.154257 359.446523 
L 602.227627 359.989345 
L 608.300997 357.517503 
L 614.374368 358.965426 
L 620.447738 357.4501 
L 626.521108 362.533687 
L 632.594478 359.072595 
L 638.667848 359.797979 
L 644.741218 357.80801 
L 650.814588 360.104792 
L 656.887958 363.594011 
L 662.961328 360.01259 
L 669.034698 360.558344 
L 675.108068 361.726176 
" clip-path="url(#pddb7b49565)" style="fill: none; stroke: #9467bd; stroke-width: 1.5; stroke-linecap: square"/>
   </g>
   <g id="patch_3">
    <path d="M 43.78125 385.478125 
L 43.78125 22.318125 
" style="fill: none; stroke: #000000; stroke-width: 0.8; stroke-linejoin: miter; stroke-linecap: square"/>
   </g>
   <g id="patch_4">
    <path d="M 705.17125 385.478125 
L 705.17125 22.318125 
" style="fill: none; stroke: #000000; stroke-width: 0.8; stroke-linejoin: miter; stroke-linecap: square"/>
   </g>
   <g id="patch_5">
    <path d="M 43.78125 385.478125 
L 705.17125 385.478125 
" style="fill: none; stroke: #000000; stroke-width: 0.8; stroke-linejoin: miter; stroke-linecap: square"/>
   </g>
   <g id="patch_6">
    <path d="M 43.78125 22.318125 
L 705.17125 22.318125 
" style="fill: none; stroke: #000000; stroke-width: 0.8; stroke-linejoin: miter; stroke-linecap: square"/>
   </g>
   <g id="text_17">
    <!-- Combined Train Loss -->
    <g transform="translate(312.624688 16.318125) scale(0.12 -0.12)">
     <defs>
      <path id="DejaVuSans-43" d="M 4122 4306 
L 4122 3641 
Q 3803 3938 3442 4084 
Q 3081 4231 2675 4231 
Q 1875 4231 1450 3742 
Q 1025 3253 1025 2328 
Q 1025 1406 1450 917 
Q 1875 428 2675 428 
Q 3081 428 3442 575 
Q 3803 722 4122 1019 
L 4122 359 
Q 3791 134 3420 21 
Q 3050 -91 2638 -91 
Q 1578 -91 968 557 
Q 359 1206 359 2328 
Q 359 3453 968 4101 
Q 1578 4750 2638 4750 
Q 3056 4750 3426 4639 
Q 3797 4528 4122 4306 
z
" transform="scale(0.015625)"/>
      <path id="DejaVuSans-6d" d="M 3328 2828 
Q 3544 3216 3844 3400 
Q 4144 3584 4550 3584 
Q 5097 3584 5394 3201 
Q 5691 2819 5691 2113 
L 5691 0 
L 5113 0 
L 5113 2094 
Q 5113 2597 4934 2840 
Q 4756 3084 4391 3084 
Q 3944 3084 3684 2787 
Q 3425 2491 3425 1978 
L 3425 0 
L 2847 0 
L 2847 2094 
Q 2847 2600 2669 2842 
Q 2491 3084 2119 3084 
Q 1678 3084 1418 2786 
Q 1159 2488 1159 1978 
L 1159 0 
L 581 0 
L 581 3500 
L 1159 3500 
L 1159 2956 
Q 1356 3278 1631 3431 
Q 1906 3584 2284 3584 
Q 2666 3584 2933 3390 
Q 3200 3197 3328 2828 
z
" transform="scale(0.015625)"/>
      <path id="DejaVuSans-62" d="M 3116 1747 
Q 3116 2381 2855 2742 
Q 2594 3103 2138 3103 
Q 1681 3103 1420 2742 
Q 1159 2381 1159 1747 
Q 1159 1113 1420 752 
Q 1681 391 2138 391 
Q 2594 391 2855 752 
Q 3116 1113 3116 1747 
z
M 1159 2969 
Q 1341 3281 1617 3432 
Q 1894 3584 2278 3584 
Q 2916 3584 3314 3078 
Q 3713 2572 3713 1747 
Q 3713 922 3314 415 
Q 2916 -91 2278 -91 
Q 1894 -91 1617 61 
Q 1341 213 1159 525 
L 1159 0 
L 581 0 
L 581 4863 
L 1159 4863 
L 1159 2969 
z
" transform="scale(0.015625)"/>
      <path id="DejaVuSans-65" d="M 3597 1894 
L 3597 1613 
L 953 1613 
Q 991 1019 1311 708 
Q 1631 397 2203 397 
Q 2534 397 2845 478 
Q 3156 559 3463 722 
L 3463 178 
Q 3153 47 2828 -22 
Q 2503 -91 2169 -91 
Q 1331 -91 842 396 
Q 353 884 353 1716 
Q 353 2575 817 3079 
Q 1281 3584 2069 3584 
Q 2775 3584 3186 3129 
Q 3597 2675 3597 1894 
z
M 3022 2063 
Q 3016 2534 2758 2815 
Q 2500 3097 2075 3097 
Q 1594 3097 1305 2825 
Q 1016 2553 972 2059 
L 3022 2063 
z
" transform="scale(0.015625)"/>
      <path id="DejaVuSans-64" d="M 2906 2969 
L 2906 4863 
L 3481 4863 
L 3481 0 
L 2906 0 
L 2906 525 
Q 2725 213 2448 61 
Q 2172 -91 1784 -91 
Q 1150 -91 751 415 
Q 353 922 353 1747 
Q 353 2572 751 3078 
Q 1150 3584 1784 3584 
Q 2172 3584 2448 3432 
Q 2725 3281 2906 2969 
z
M 947 1747 
Q 947 1113 1208 752 
Q 1469 391 1925 391 
Q 2381 391 2643 752 
Q 2906 1113 2906 1747 
Q 2906 2381 2643 2742 
Q 2381 3103 1925 3103 
Q 1469 3103 1208 2742 
Q 947 2381 947 1747 
z
" transform="scale(0.015625)"/>
     </defs>
     <use xlink:href="#DejaVuSans-43"/>
     <use xlink:href="#DejaVuSans-6f" transform="translate(69.824219 0)"/>
     <use xlink:href="#DejaVuSans-6d" transform="translate(131.005859 0)"/>
     <use xlink:href="#DejaVuSans-62" transform="translate(228.417969 0)"/>
     <use xlink:href="#DejaVuSans-69" transform="translate(291.894531 0)"/>
     <use xlink:href="#DejaVuSans-6e" transform="translate(319.677734 0)"/>
     <use xlink:href="#DejaVuSans-65" transform="translate(383.056641 0)"/>
     <use xlink:href="#DejaVuSans-64" transform="translate(444.580078 0)"/>
     <use xlink:href="#DejaVuSans-20" transform="translate(508.056641 0)"/>
     <use xlink:href="#DejaVuSans-54" transform="translate(539.84375 0)"/>
     <use xlink:href="#DejaVuSans-72" transform="translate(586.177734 0)"/>
     <use xlink:href="#DejaVuSans-61" transform="translate(627.291016 0)"/>
     <use xlink:href="#DejaVuSans-69" transform="translate(688.570312 0)"/>
     <use xlink:href="#DejaVuSans-6e" transform="translate(716.353516 0)"/>
     <use xlink:href="#DejaVuSans-20" transform="translate(779.732422 0)"/>
     <use xlink:href="#DejaVuSans-4c" transform="translate(811.519531 0)"/>
     <use xlink:href="#DejaVuSans-6f" transform="translate(865.482422 0)"/>
     <use xlink:href="#DejaVuSans-73" transform="translate(926.664062 0)"/>
     <use xlink:href="#DejaVuSans-73" transform="translate(978.763672 0)"/>
    </g>
   </g>
   <g id="legend_1">
    <g id="patch_7">
     <path d="M 635.99625 103.70875 
L 698.17125 103.70875 
Q 700.17125 103.70875 700.17125 101.70875 
L 700.17125 29.318125 
Q 700.17125 27.318125 698.17125 27.318125 
L 635.99625 27.318125 
Q 633.99625 27.318125 633.99625 29.318125 
L 633.99625 101.70875 
Q 633.99625 103.70875 635.99625 103.70875 
z
" style="fill: #ffffff; opacity: 0.8; stroke: #cccccc; stroke-linejoin: miter"/>
    </g>
    <g id="line2d_20">
     <path d="M 637.99625 35.416562 
L 647.99625 35.416562 
L 657.99625 35.416562 
" style="fill: none; stroke: #1f77b4; stroke-width: 1.5; stroke-linecap: square"/>
    </g>
    <g id="text_18">
     <!-- Fold 1 -->
     <g transform="translate(665.99625 38.916562) scale(0.1 -0.1)">
      <defs>
       <path id="DejaVuSans-46" d="M 628 4666 
L 3309 4666 
L 3309 4134 
L 1259 4134 
L 1259 2759 
L 3109 2759 
L 3109 2228 
L 1259 2228 
L 1259 0 
L 628 0 
L 628 4666 
z
" transform="scale(0.015625)"/>
       <path id="DejaVuSans-6c" d="M 603 4863 
L 1178 4863 
L 1178 0 
L 603 0 
L 603 4863 
z
" transform="scale(0.015625)"/>
      </defs>
      <use xlink:href="#DejaVuSans-46"/>
      <use xlink:href="#DejaVuSans-6f" transform="translate(53.894531 0)"/>
      <use xlink:href="#DejaVuSans-6c" transform="translate(115.076172 0)"/>
      <use xlink:href="#DejaVuSans-64" transform="translate(142.859375 0)"/>
      <use xlink:href="#DejaVuSans-20" transform="translate(206.335938 0)"/>
      <use xlink:href="#DejaVuSans-31" transform="translate(238.123047 0)"/>
     </g>
    </g>
    <g id="line2d_21">
     <path d="M 637.99625 50.094688 
L 647.99625 50.094688 
L 657.99625 50.094688 
" style="fill: none; stroke: #ff7f0e; stroke-width: 1.5; stroke-linecap: square"/>
    </g>
    <g id="text_19">
     <!-- Fold 2 -->
     <g transform="translate(665.99625 53.594688) scale(0.1 -0.1)">
      <use xlink:href="#DejaVuSans-46"/>
      <use xlink:href="#DejaVuSans-6f" transform="translate(53.894531 0)"/>
      <use xlink:href="#DejaVuSans-6c" transform="translate(115.076172 0)"/>
      <use xlink:href="#DejaVuSans-64" transform="translate(142.859375 0)"/>
      <use xlink:href="#DejaVuSans-20" transform="translate(206.335938 0)"/>
      <use xlink:href="#DejaVuSans-32" transform="translate(238.123047 0)"/>
     </g>
    </g>
    <g id="line2d_22">
     <path d="M 637.99625 64.772812 
L 647.99625 64.772812 
L 657.99625 64.772812 
" style="fill: none; stroke: #2ca02c; stroke-width: 1.5; stroke-linecap: square"/>
    </g>
    <g id="text_20">
     <!-- Fold 3 -->
     <g transform="translate(665.99625 68.272812) scale(0.1 -0.1)">
      <defs>
       <path id="DejaVuSans-33" d="M 2597 2516 
Q 3050 2419 3304 2112 
Q 3559 1806 3559 1356 
Q 3559 666 3084 287 
Q 2609 -91 1734 -91 
Q 1441 -91 1130 -33 
Q 819 25 488 141 
L 488 750 
Q 750 597 1062 519 
Q 1375 441 1716 441 
Q 2309 441 2620 675 
Q 2931 909 2931 1356 
Q 2931 1769 2642 2001 
Q 2353 2234 1838 2234 
L 1294 2234 
L 1294 2753 
L 1863 2753 
Q 2328 2753 2575 2939 
Q 2822 3125 2822 3475 
Q 2822 3834 2567 4026 
Q 2313 4219 1838 4219 
Q 1578 4219 1281 4162 
Q 984 4106 628 3988 
L 628 4550 
Q 988 4650 1302 4700 
Q 1616 4750 1894 4750 
Q 2613 4750 3031 4423 
Q 3450 4097 3450 3541 
Q 3450 3153 3228 2886 
Q 3006 2619 2597 2516 
z
" transform="scale(0.015625)"/>
      </defs>
      <use xlink:href="#DejaVuSans-46"/>
      <use xlink:href="#DejaVuSans-6f" transform="translate(53.894531 0)"/>
      <use xlink:href="#DejaVuSans-6c" transform="translate(115.076172 0)"/>
      <use xlink:href="#DejaVuSans-64" transform="translate(142.859375 0)"/>
      <use xlink:href="#DejaVuSans-20" transform="translate(206.335938 0)"/>
      <use xlink:href="#DejaVuSans-33" transform="translate(238.123047 0)"/>
     </g>
    </g>
    <g id="line2d_23">
     <path d="M 637.99625 79.450938 
L 647.99625 79.450938 
L 657.99625 79.450938 
" style="fill: none; stroke: #d62728; stroke-width: 1.5; stroke-linecap: square"/>
    </g>
    <g id="text_21">
     <!-- Fold 4 -->
     <g transform="translate(665.99625 82.950938) scale(0.1 -0.1)">
      <use xlink:href="#DejaVuSans-46"/>
      <use xlink:href="#DejaVuSans-6f" transform="translate(53.894531 0)"/>
      <use xlink:href="#DejaVuSans-6c" transform="translate(115.076172 0)"/>
      <use xlink:href="#DejaVuSans-64" transform="translate(142.859375 0)"/>
      <use xlink:href="#DejaVuSans-20" transform="translate(206.335938 0)"/>
      <use xlink:href="#DejaVuSans-34" transform="translate(238.123047 0)"/>
     </g>
    </g>
    <g id="line2d_24">
     <path d="M 637.99625 94.129063 
L 647.99625 94.129063 
L 657.99625 94.129063 
" style="fill: none; stroke: #9467bd; stroke-width: 1.5; stroke-linecap: square"/>
    </g>
    <g id="text_22">
     <!-- Fold 5 -->
     <g transform="translate(665.99625 97.629063) scale(0.1 -0.1)">
      <defs>
       <path id="DejaVuSans-35" d="M 691 4666 
L 3169 4666 
L 3169 4134 
L 1269 4134 
L 1269 2991 
Q 1406 3038 1543 3061 
Q 1681 3084 1819 3084 
Q 2600 3084 3056 2656 
Q 3513 2228 3513 1497 
Q 3513 744 3044 326 
Q 2575 -91 1722 -91 
Q 1428 -91 1123 -41 
Q 819 9 494 109 
L 494 744 
Q 775 591 1075 516 
Q 1375 441 1709 441 
Q 2250 441 2565 725 
Q 2881 1009 2881 1497 
Q 2881 1984 2565 2268 
Q 2250 2553 1709 2553 
Q 1456 2553 1204 2497 
Q 953 2441 691 2322 
L 691 4666 
z
" transform="scale(0.015625)"/>
      </defs>
      <use xlink:href="#DejaVuSans-46"/>
      <use xlink:href="#DejaVuSans-6f" transform="translate(53.894531 0)"/>
      <use xlink:href="#DejaVuSans-6c" transform="translate(115.076172 0)"/>
      <use xlink:href="#DejaVuSans-64" transform="translate(142.859375 0)"/>
      <use xlink:href="#DejaVuSans-20" transform="translate(206.335938 0)"/>
      <use xlink:href="#DejaVuSans-35" transform="translate(238.123047 0)"/>
     </g>
    </g>
   </g>
  </g>
 </g>
 <defs>
  <clipPath id="pddb7b49565">
   <rect x="43.78125" y="22.318125" width="661.39" height="363.16"/>
  </clipPath>
 </defs>
</svg>
