<?xml version="1.0" encoding="utf-8" standalone="no"?>
<!DOCTYPE svg PUBLIC "-//W3C//DTD SVG 1.1//EN"
  "http://www.w3.org/Graphics/SVG/1.1/DTD/svg11.dtd">
<svg xmlns:xlink="http://www.w3.org/1999/xlink" width="712.37125pt" height="423.034375pt" viewBox="0 0 712.37125 423.034375" xmlns="http://www.w3.org/2000/svg" version="1.1">
 <metadata>
  <rdf:RDF xmlns:dc="http://purl.org/dc/elements/1.1/" xmlns:cc="http://creativecommons.org/ns#" xmlns:rdf="http://www.w3.org/1999/02/22-rdf-syntax-ns#">
   <cc:Work>
    <dc:type rdf:resource="http://purl.org/dc/dcmitype/StillImage"/>
    <dc:date>2025-06-26T11:42:40.961884</dc:date>
    <dc:format>image/svg+xml</dc:format>
    <dc:creator>
     <cc:Agent>
      <dc:title>Matplotlib v3.10.0, https://matplotlib.org/</dc:title>
     </cc:Agent>
    </dc:creator>
   </cc:Work>
  </rdf:RDF>
 </metadata>
 <defs>
  <style type="text/css">*{stroke-linejoin: round; stroke-linecap: butt}</style>
 </defs>
 <g id="figure_1">
  <g id="patch_1">
   <path d="M 0 423.034375 
L 712.37125 423.034375 
L 712.37125 0 
L 0 0 
z
" style="fill: #ffffff"/>
  </g>
  <g id="axes_1">
   <g id="patch_2">
    <path d="M 43.78125 385.478125 
L 705.17125 385.478125 
L 705.17125 22.318125 
L 43.78125 22.318125 
z
" style="fill: #ffffff"/>
   </g>
   <g id="matplotlib.axis_1">
    <g id="xtick_1">
     <g id="line2d_1">
      <defs>
       <path id="mc33ac096e8" d="M 0 0 
L 0 3.5 
" style="stroke: #000000; stroke-width: 0.8"/>
      </defs>
      <g>
       <use xlink:href="#mc33ac096e8" x="67.771062" y="385.478125" style="stroke: #000000; stroke-width: 0.8"/>
      </g>
     </g>
     <g id="text_1">
      <!-- 0 -->
      <g transform="translate(64.589812 400.076562) scale(0.1 -0.1)">
       <defs>
        <path id="DejaVuSans-30" d="M 2034 4250 
Q 1547 4250 1301 3770 
Q 1056 3291 1056 2328 
Q 1056 1369 1301 889 
Q 1547 409 2034 409 
Q 2525 409 2770 889 
Q 3016 1369 3016 2328 
Q 3016 3291 2770 3770 
Q 2525 4250 2034 4250 
z
M 2034 4750 
Q 2819 4750 3233 4129 
Q 3647 3509 3647 2328 
Q 3647 1150 3233 529 
Q 2819 -91 2034 -91 
Q 1250 -91 836 529 
Q 422 1150 422 2328 
Q 422 3509 836 4129 
Q 1250 4750 2034 4750 
z
" transform="scale(0.015625)"/>
       </defs>
       <use xlink:href="#DejaVuSans-30"/>
      </g>
     </g>
    </g>
    <g id="xtick_2">
     <g id="line2d_2">
      <g>
       <use xlink:href="#mc33ac096e8" x="189.238463" y="385.478125" style="stroke: #000000; stroke-width: 0.8"/>
      </g>
     </g>
     <g id="text_2">
      <!-- 20 -->
      <g transform="translate(182.875963 400.076562) scale(0.1 -0.1)">
       <defs>
        <path id="DejaVuSans-32" d="M 1228 531 
L 3431 531 
L 3431 0 
L 469 0 
L 469 531 
Q 828 903 1448 1529 
Q 2069 2156 2228 2338 
Q 2531 2678 2651 2914 
Q 2772 3150 2772 3378 
Q 2772 3750 2511 3984 
Q 2250 4219 1831 4219 
Q 1534 4219 1204 4116 
Q 875 4013 500 3803 
L 500 4441 
Q 881 4594 1212 4672 
Q 1544 4750 1819 4750 
Q 2544 4750 2975 4387 
Q 3406 4025 3406 3419 
Q 3406 3131 3298 2873 
Q 3191 2616 2906 2266 
Q 2828 2175 2409 1742 
Q 1991 1309 1228 531 
z
" transform="scale(0.015625)"/>
       </defs>
       <use xlink:href="#DejaVuSans-32"/>
       <use xlink:href="#DejaVuSans-30" transform="translate(63.623047 0)"/>
      </g>
     </g>
    </g>
    <g id="xtick_3">
     <g id="line2d_3">
      <g>
       <use xlink:href="#mc33ac096e8" x="310.705864" y="385.478125" style="stroke: #000000; stroke-width: 0.8"/>
      </g>
     </g>
     <g id="text_3">
      <!-- 40 -->
      <g transform="translate(304.343364 400.076562) scale(0.1 -0.1)">
       <defs>
        <path id="DejaVuSans-34" d="M 2419 4116 
L 825 1625 
L 2419 1625 
L 2419 4116 
z
M 2253 4666 
L 3047 4666 
L 3047 1625 
L 3713 1625 
L 3713 1100 
L 3047 1100 
L 3047 0 
L 2419 0 
L 2419 1100 
L 313 1100 
L 313 1709 
L 2253 4666 
z
" transform="scale(0.015625)"/>
       </defs>
       <use xlink:href="#DejaVuSans-34"/>
       <use xlink:href="#DejaVuSans-30" transform="translate(63.623047 0)"/>
      </g>
     </g>
    </g>
    <g id="xtick_4">
     <g id="line2d_4">
      <g>
       <use xlink:href="#mc33ac096e8" x="432.173266" y="385.478125" style="stroke: #000000; stroke-width: 0.8"/>
      </g>
     </g>
     <g id="text_4">
      <!-- 60 -->
      <g transform="translate(425.810766 400.076562) scale(0.1 -0.1)">
       <defs>
        <path id="DejaVuSans-36" d="M 2113 2584 
Q 1688 2584 1439 2293 
Q 1191 2003 1191 1497 
Q 1191 994 1439 701 
Q 1688 409 2113 409 
Q 2538 409 2786 701 
Q 3034 994 3034 1497 
Q 3034 2003 2786 2293 
Q 2538 2584 2113 2584 
z
M 3366 4563 
L 3366 3988 
Q 3128 4100 2886 4159 
Q 2644 4219 2406 4219 
Q 1781 4219 1451 3797 
Q 1122 3375 1075 2522 
Q 1259 2794 1537 2939 
Q 1816 3084 2150 3084 
Q 2853 3084 3261 2657 
Q 3669 2231 3669 1497 
Q 3669 778 3244 343 
Q 2819 -91 2113 -91 
Q 1303 -91 875 529 
Q 447 1150 447 2328 
Q 447 3434 972 4092 
Q 1497 4750 2381 4750 
Q 2619 4750 2861 4703 
Q 3103 4656 3366 4563 
z
" transform="scale(0.015625)"/>
       </defs>
       <use xlink:href="#DejaVuSans-36"/>
       <use xlink:href="#DejaVuSans-30" transform="translate(63.623047 0)"/>
      </g>
     </g>
    </g>
    <g id="xtick_5">
     <g id="line2d_5">
      <g>
       <use xlink:href="#mc33ac096e8" x="553.640667" y="385.478125" style="stroke: #000000; stroke-width: 0.8"/>
      </g>
     </g>
     <g id="text_5">
      <!-- 80 -->
      <g transform="translate(547.278167 400.076562) scale(0.1 -0.1)">
       <defs>
        <path id="DejaVuSans-38" d="M 2034 2216 
Q 1584 2216 1326 1975 
Q 1069 1734 1069 1313 
Q 1069 891 1326 650 
Q 1584 409 2034 409 
Q 2484 409 2743 651 
Q 3003 894 3003 1313 
Q 3003 1734 2745 1975 
Q 2488 2216 2034 2216 
z
M 1403 2484 
Q 997 2584 770 2862 
Q 544 3141 544 3541 
Q 544 4100 942 4425 
Q 1341 4750 2034 4750 
Q 2731 4750 3128 4425 
Q 3525 4100 3525 3541 
Q 3525 3141 3298 2862 
Q 3072 2584 2669 2484 
Q 3125 2378 3379 2068 
Q 3634 1759 3634 1313 
Q 3634 634 3220 271 
Q 2806 -91 2034 -91 
Q 1263 -91 848 271 
Q 434 634 434 1313 
Q 434 1759 690 2068 
Q 947 2378 1403 2484 
z
M 1172 3481 
Q 1172 3119 1398 2916 
Q 1625 2713 2034 2713 
Q 2441 2713 2670 2916 
Q 2900 3119 2900 3481 
Q 2900 3844 2670 4047 
Q 2441 4250 2034 4250 
Q 1625 4250 1398 4047 
Q 1172 3844 1172 3481 
z
" transform="scale(0.015625)"/>
       </defs>
       <use xlink:href="#DejaVuSans-38"/>
       <use xlink:href="#DejaVuSans-30" transform="translate(63.623047 0)"/>
      </g>
     </g>
    </g>
    <g id="xtick_6">
     <g id="line2d_6">
      <g>
       <use xlink:href="#mc33ac096e8" x="675.108068" y="385.478125" style="stroke: #000000; stroke-width: 0.8"/>
      </g>
     </g>
     <g id="text_6">
      <!-- 100 -->
      <g transform="translate(665.564318 400.076562) scale(0.1 -0.1)">
       <defs>
        <path id="DejaVuSans-31" d="M 794 531 
L 1825 531 
L 1825 4091 
L 703 3866 
L 703 4441 
L 1819 4666 
L 2450 4666 
L 2450 531 
L 3481 531 
L 3481 0 
L 794 0 
L 794 531 
z
" transform="scale(0.015625)"/>
       </defs>
       <use xlink:href="#DejaVuSans-31"/>
       <use xlink:href="#DejaVuSans-30" transform="translate(63.623047 0)"/>
       <use xlink:href="#DejaVuSans-30" transform="translate(127.246094 0)"/>
      </g>
     </g>
    </g>
    <g id="text_7">
     <!-- Epoch -->
     <g transform="translate(359.165313 413.754687) scale(0.1 -0.1)">
      <defs>
       <path id="DejaVuSans-45" d="M 628 4666 
L 3578 4666 
L 3578 4134 
L 1259 4134 
L 1259 2753 
L 3481 2753 
L 3481 2222 
L 1259 2222 
L 1259 531 
L 3634 531 
L 3634 0 
L 628 0 
L 628 4666 
z
" transform="scale(0.015625)"/>
       <path id="DejaVuSans-70" d="M 1159 525 
L 1159 -1331 
L 581 -1331 
L 581 3500 
L 1159 3500 
L 1159 2969 
Q 1341 3281 1617 3432 
Q 1894 3584 2278 3584 
Q 2916 3584 3314 3078 
Q 3713 2572 3713 1747 
Q 3713 922 3314 415 
Q 2916 -91 2278 -91 
Q 1894 -91 1617 61 
Q 1341 213 1159 525 
z
M 3116 1747 
Q 3116 2381 2855 2742 
Q 2594 3103 2138 3103 
Q 1681 3103 1420 2742 
Q 1159 2381 1159 1747 
Q 1159 1113 1420 752 
Q 1681 391 2138 391 
Q 2594 391 2855 752 
Q 3116 1113 3116 1747 
z
" transform="scale(0.015625)"/>
       <path id="DejaVuSans-6f" d="M 1959 3097 
Q 1497 3097 1228 2736 
Q 959 2375 959 1747 
Q 959 1119 1226 758 
Q 1494 397 1959 397 
Q 2419 397 2687 759 
Q 2956 1122 2956 1747 
Q 2956 2369 2687 2733 
Q 2419 3097 1959 3097 
z
M 1959 3584 
Q 2709 3584 3137 3096 
Q 3566 2609 3566 1747 
Q 3566 888 3137 398 
Q 2709 -91 1959 -91 
Q 1206 -91 779 398 
Q 353 888 353 1747 
Q 353 2609 779 3096 
Q 1206 3584 1959 3584 
z
" transform="scale(0.015625)"/>
       <path id="DejaVuSans-63" d="M 3122 3366 
L 3122 2828 
Q 2878 2963 2633 3030 
Q 2388 3097 2138 3097 
Q 1578 3097 1268 2742 
Q 959 2388 959 1747 
Q 959 1106 1268 751 
Q 1578 397 2138 397 
Q 2388 397 2633 464 
Q 2878 531 3122 666 
L 3122 134 
Q 2881 22 2623 -34 
Q 2366 -91 2075 -91 
Q 1284 -91 818 406 
Q 353 903 353 1747 
Q 353 2603 823 3093 
Q 1294 3584 2113 3584 
Q 2378 3584 2631 3529 
Q 2884 3475 3122 3366 
z
" transform="scale(0.015625)"/>
       <path id="DejaVuSans-68" d="M 3513 2113 
L 3513 0 
L 2938 0 
L 2938 2094 
Q 2938 2591 2744 2837 
Q 2550 3084 2163 3084 
Q 1697 3084 1428 2787 
Q 1159 2491 1159 1978 
L 1159 0 
L 581 0 
L 581 4863 
L 1159 4863 
L 1159 2956 
Q 1366 3272 1645 3428 
Q 1925 3584 2291 3584 
Q 2894 3584 3203 3211 
Q 3513 2838 3513 2113 
z
" transform="scale(0.015625)"/>
      </defs>
      <use xlink:href="#DejaVuSans-45"/>
      <use xlink:href="#DejaVuSans-70" transform="translate(63.183594 0)"/>
      <use xlink:href="#DejaVuSans-6f" transform="translate(126.660156 0)"/>
      <use xlink:href="#DejaVuSans-63" transform="translate(187.841797 0)"/>
      <use xlink:href="#DejaVuSans-68" transform="translate(242.822266 0)"/>
     </g>
    </g>
   </g>
   <g id="matplotlib.axis_2">
    <g id="ytick_1">
     <g id="line2d_7">
      <defs>
       <path id="m0e98a600d0" d="M 0 0 
L -3.5 0 
" style="stroke: #000000; stroke-width: 0.8"/>
      </defs>
      <g>
       <use xlink:href="#m0e98a600d0" x="43.78125" y="374.68572" style="stroke: #000000; stroke-width: 0.8"/>
      </g>
     </g>
     <g id="text_8">
      <!-- 1.1 -->
      <g transform="translate(20.878125 378.484938) scale(0.1 -0.1)">
       <defs>
        <path id="DejaVuSans-2e" d="M 684 794 
L 1344 794 
L 1344 0 
L 684 0 
L 684 794 
z
" transform="scale(0.015625)"/>
       </defs>
       <use xlink:href="#DejaVuSans-31"/>
       <use xlink:href="#DejaVuSans-2e" transform="translate(63.623047 0)"/>
       <use xlink:href="#DejaVuSans-31" transform="translate(95.410156 0)"/>
      </g>
     </g>
    </g>
    <g id="ytick_2">
     <g id="line2d_8">
      <g>
       <use xlink:href="#m0e98a600d0" x="43.78125" y="328.079886" style="stroke: #000000; stroke-width: 0.8"/>
      </g>
     </g>
     <g id="text_9">
      <!-- 1.2 -->
      <g transform="translate(20.878125 331.879105) scale(0.1 -0.1)">
       <use xlink:href="#DejaVuSans-31"/>
       <use xlink:href="#DejaVuSans-2e" transform="translate(63.623047 0)"/>
       <use xlink:href="#DejaVuSans-32" transform="translate(95.410156 0)"/>
      </g>
     </g>
    </g>
    <g id="ytick_3">
     <g id="line2d_9">
      <g>
       <use xlink:href="#m0e98a600d0" x="43.78125" y="281.474052" style="stroke: #000000; stroke-width: 0.8"/>
      </g>
     </g>
     <g id="text_10">
      <!-- 1.3 -->
      <g transform="translate(20.878125 285.273271) scale(0.1 -0.1)">
       <defs>
        <path id="DejaVuSans-33" d="M 2597 2516 
Q 3050 2419 3304 2112 
Q 3559 1806 3559 1356 
Q 3559 666 3084 287 
Q 2609 -91 1734 -91 
Q 1441 -91 1130 -33 
Q 819 25 488 141 
L 488 750 
Q 750 597 1062 519 
Q 1375 441 1716 441 
Q 2309 441 2620 675 
Q 2931 909 2931 1356 
Q 2931 1769 2642 2001 
Q 2353 2234 1838 2234 
L 1294 2234 
L 1294 2753 
L 1863 2753 
Q 2328 2753 2575 2939 
Q 2822 3125 2822 3475 
Q 2822 3834 2567 4026 
Q 2313 4219 1838 4219 
Q 1578 4219 1281 4162 
Q 984 4106 628 3988 
L 628 4550 
Q 988 4650 1302 4700 
Q 1616 4750 1894 4750 
Q 2613 4750 3031 4423 
Q 3450 4097 3450 3541 
Q 3450 3153 3228 2886 
Q 3006 2619 2597 2516 
z
" transform="scale(0.015625)"/>
       </defs>
       <use xlink:href="#DejaVuSans-31"/>
       <use xlink:href="#DejaVuSans-2e" transform="translate(63.623047 0)"/>
       <use xlink:href="#DejaVuSans-33" transform="translate(95.410156 0)"/>
      </g>
     </g>
    </g>
    <g id="ytick_4">
     <g id="line2d_10">
      <g>
       <use xlink:href="#m0e98a600d0" x="43.78125" y="234.868218" style="stroke: #000000; stroke-width: 0.8"/>
      </g>
     </g>
     <g id="text_11">
      <!-- 1.4 -->
      <g transform="translate(20.878125 238.667437) scale(0.1 -0.1)">
       <use xlink:href="#DejaVuSans-31"/>
       <use xlink:href="#DejaVuSans-2e" transform="translate(63.623047 0)"/>
       <use xlink:href="#DejaVuSans-34" transform="translate(95.410156 0)"/>
      </g>
     </g>
    </g>
    <g id="ytick_5">
     <g id="line2d_11">
      <g>
       <use xlink:href="#m0e98a600d0" x="43.78125" y="188.262384" style="stroke: #000000; stroke-width: 0.8"/>
      </g>
     </g>
     <g id="text_12">
      <!-- 1.5 -->
      <g transform="translate(20.878125 192.061603) scale(0.1 -0.1)">
       <defs>
        <path id="DejaVuSans-35" d="M 691 4666 
L 3169 4666 
L 3169 4134 
L 1269 4134 
L 1269 2991 
Q 1406 3038 1543 3061 
Q 1681 3084 1819 3084 
Q 2600 3084 3056 2656 
Q 3513 2228 3513 1497 
Q 3513 744 3044 326 
Q 2575 -91 1722 -91 
Q 1428 -91 1123 -41 
Q 819 9 494 109 
L 494 744 
Q 775 591 1075 516 
Q 1375 441 1709 441 
Q 2250 441 2565 725 
Q 2881 1009 2881 1497 
Q 2881 1984 2565 2268 
Q 2250 2553 1709 2553 
Q 1456 2553 1204 2497 
Q 953 2441 691 2322 
L 691 4666 
z
" transform="scale(0.015625)"/>
       </defs>
       <use xlink:href="#DejaVuSans-31"/>
       <use xlink:href="#DejaVuSans-2e" transform="translate(63.623047 0)"/>
       <use xlink:href="#DejaVuSans-35" transform="translate(95.410156 0)"/>
      </g>
     </g>
    </g>
    <g id="ytick_6">
     <g id="line2d_12">
      <g>
       <use xlink:href="#m0e98a600d0" x="43.78125" y="141.65655" style="stroke: #000000; stroke-width: 0.8"/>
      </g>
     </g>
     <g id="text_13">
      <!-- 1.6 -->
      <g transform="translate(20.878125 145.455769) scale(0.1 -0.1)">
       <use xlink:href="#DejaVuSans-31"/>
       <use xlink:href="#DejaVuSans-2e" transform="translate(63.623047 0)"/>
       <use xlink:href="#DejaVuSans-36" transform="translate(95.410156 0)"/>
      </g>
     </g>
    </g>
    <g id="ytick_7">
     <g id="line2d_13">
      <g>
       <use xlink:href="#m0e98a600d0" x="43.78125" y="95.050717" style="stroke: #000000; stroke-width: 0.8"/>
      </g>
     </g>
     <g id="text_14">
      <!-- 1.7 -->
      <g transform="translate(20.878125 98.849935) scale(0.1 -0.1)">
       <defs>
        <path id="DejaVuSans-37" d="M 525 4666 
L 3525 4666 
L 3525 4397 
L 1831 0 
L 1172 0 
L 2766 4134 
L 525 4134 
L 525 4666 
z
" transform="scale(0.015625)"/>
       </defs>
       <use xlink:href="#DejaVuSans-31"/>
       <use xlink:href="#DejaVuSans-2e" transform="translate(63.623047 0)"/>
       <use xlink:href="#DejaVuSans-37" transform="translate(95.410156 0)"/>
      </g>
     </g>
    </g>
    <g id="ytick_8">
     <g id="line2d_14">
      <g>
       <use xlink:href="#m0e98a600d0" x="43.78125" y="48.444883" style="stroke: #000000; stroke-width: 0.8"/>
      </g>
     </g>
     <g id="text_15">
      <!-- 1.8 -->
      <g transform="translate(20.878125 52.244101) scale(0.1 -0.1)">
       <use xlink:href="#DejaVuSans-31"/>
       <use xlink:href="#DejaVuSans-2e" transform="translate(63.623047 0)"/>
       <use xlink:href="#DejaVuSans-38" transform="translate(95.410156 0)"/>
      </g>
     </g>
    </g>
    <g id="text_16">
     <!-- Train Loss -->
     <g transform="translate(14.798438 228.448125) rotate(-90) scale(0.1 -0.1)">
      <defs>
       <path id="DejaVuSans-54" d="M -19 4666 
L 3928 4666 
L 3928 4134 
L 2272 4134 
L 2272 0 
L 1638 0 
L 1638 4134 
L -19 4134 
L -19 4666 
z
" transform="scale(0.015625)"/>
       <path id="DejaVuSans-72" d="M 2631 2963 
Q 2534 3019 2420 3045 
Q 2306 3072 2169 3072 
Q 1681 3072 1420 2755 
Q 1159 2438 1159 1844 
L 1159 0 
L 581 0 
L 581 3500 
L 1159 3500 
L 1159 2956 
Q 1341 3275 1631 3429 
Q 1922 3584 2338 3584 
Q 2397 3584 2469 3576 
Q 2541 3569 2628 3553 
L 2631 2963 
z
" transform="scale(0.015625)"/>
       <path id="DejaVuSans-61" d="M 2194 1759 
Q 1497 1759 1228 1600 
Q 959 1441 959 1056 
Q 959 750 1161 570 
Q 1363 391 1709 391 
Q 2188 391 2477 730 
Q 2766 1069 2766 1631 
L 2766 1759 
L 2194 1759 
z
M 3341 1997 
L 3341 0 
L 2766 0 
L 2766 531 
Q 2569 213 2275 61 
Q 1981 -91 1556 -91 
Q 1019 -91 701 211 
Q 384 513 384 1019 
Q 384 1609 779 1909 
Q 1175 2209 1959 2209 
L 2766 2209 
L 2766 2266 
Q 2766 2663 2505 2880 
Q 2244 3097 1772 3097 
Q 1472 3097 1187 3025 
Q 903 2953 641 2809 
L 641 3341 
Q 956 3463 1253 3523 
Q 1550 3584 1831 3584 
Q 2591 3584 2966 3190 
Q 3341 2797 3341 1997 
z
" transform="scale(0.015625)"/>
       <path id="DejaVuSans-69" d="M 603 3500 
L 1178 3500 
L 1178 0 
L 603 0 
L 603 3500 
z
M 603 4863 
L 1178 4863 
L 1178 4134 
L 603 4134 
L 603 4863 
z
" transform="scale(0.015625)"/>
       <path id="DejaVuSans-6e" d="M 3513 2113 
L 3513 0 
L 2938 0 
L 2938 2094 
Q 2938 2591 2744 2837 
Q 2550 3084 2163 3084 
Q 1697 3084 1428 2787 
Q 1159 2491 1159 1978 
L 1159 0 
L 581 0 
L 581 3500 
L 1159 3500 
L 1159 2956 
Q 1366 3272 1645 3428 
Q 1925 3584 2291 3584 
Q 2894 3584 3203 3211 
Q 3513 2838 3513 2113 
z
" transform="scale(0.015625)"/>
       <path id="DejaVuSans-20" transform="scale(0.015625)"/>
       <path id="DejaVuSans-4c" d="M 628 4666 
L 1259 4666 
L 1259 531 
L 3531 531 
L 3531 0 
L 628 0 
L 628 4666 
z
" transform="scale(0.015625)"/>
       <path id="DejaVuSans-73" d="M 2834 3397 
L 2834 2853 
Q 2591 2978 2328 3040 
Q 2066 3103 1784 3103 
Q 1356 3103 1142 2972 
Q 928 2841 928 2578 
Q 928 2378 1081 2264 
Q 1234 2150 1697 2047 
L 1894 2003 
Q 2506 1872 2764 1633 
Q 3022 1394 3022 966 
Q 3022 478 2636 193 
Q 2250 -91 1575 -91 
Q 1294 -91 989 -36 
Q 684 19 347 128 
L 347 722 
Q 666 556 975 473 
Q 1284 391 1588 391 
Q 1994 391 2212 530 
Q 2431 669 2431 922 
Q 2431 1156 2273 1281 
Q 2116 1406 1581 1522 
L 1381 1569 
Q 847 1681 609 1914 
Q 372 2147 372 2553 
Q 372 3047 722 3315 
Q 1072 3584 1716 3584 
Q 2034 3584 2315 3537 
Q 2597 3491 2834 3397 
z
" transform="scale(0.015625)"/>
      </defs>
      <use xlink:href="#DejaVuSans-54"/>
      <use xlink:href="#DejaVuSans-72" transform="translate(46.333984 0)"/>
      <use xlink:href="#DejaVuSans-61" transform="translate(87.447266 0)"/>
      <use xlink:href="#DejaVuSans-69" transform="translate(148.726562 0)"/>
      <use xlink:href="#DejaVuSans-6e" transform="translate(176.509766 0)"/>
      <use xlink:href="#DejaVuSans-20" transform="translate(239.888672 0)"/>
      <use xlink:href="#DejaVuSans-4c" transform="translate(271.675781 0)"/>
      <use xlink:href="#DejaVuSans-6f" transform="translate(325.638672 0)"/>
      <use xlink:href="#DejaVuSans-73" transform="translate(386.820312 0)"/>
      <use xlink:href="#DejaVuSans-73" transform="translate(438.919922 0)"/>
     </g>
    </g>
   </g>
   <g id="line2d_15">
    <path d="M 73.844432 156.975352 
L 79.917802 171.421859 
L 85.991172 149.241447 
L 92.064542 59.495035 
L 98.137912 74.192824 
L 104.211282 68.563501 
L 110.284652 73.305012 
L 116.358022 73.165761 
L 122.431392 74.05746 
L 128.504762 70.803453 
L 134.578132 72.122152 
L 140.651503 69.411412 
L 146.724873 72.49776 
L 152.798243 73.280344 
L 158.871613 72.947083 
L 164.944983 73.163141 
L 171.018353 72.452871 
L 177.091723 74.262557 
L 183.165093 72.86032 
L 189.238463 71.131288 
L 195.311833 71.917038 
L 201.385203 73.096975 
L 207.458573 71.566596 
L 213.531943 72.403503 
L 219.605313 71.569643 
L 225.678683 71.889125 
L 231.752053 71.975536 
L 237.825424 72.750304 
L 243.898794 74.007905 
L 249.972164 68.924508 
L 256.045534 69.519506 
L 262.118904 73.988811 
L 268.192274 69.212041 
L 274.265644 71.575759 
L 280.339014 73.185141 
L 286.412384 73.007386 
L 292.485754 71.204488 
L 298.559124 72.75894 
L 304.632494 74.302251 
L 310.705864 73.67067 
L 316.779234 70.194688 
L 322.852604 70.213939 
L 328.925975 75.118439 
L 334.999345 69.195279 
L 341.072715 69.5236 
L 347.146085 71.732023 
L 353.219455 74.979041 
L 359.292825 71.352812 
L 365.366195 73.312242 
L 371.439565 73.248869 
L 377.512935 72.661876 
L 383.586305 72.449822 
L 389.659675 73.520226 
L 395.733045 71.710369 
L 401.806415 73.944571 
L 407.879785 71.675871 
L 413.953155 68.523528 
L 420.026525 72.358482 
L 426.099896 73.71111 
L 432.173266 70.59741 
L 438.246636 74.013575 
L 444.320006 72.071998 
L 450.393376 70.067591 
L 456.466746 73.371818 
L 462.540116 69.13111 
L 468.613486 71.651398 
L 474.686856 70.113646 
L 480.760226 73.02235 
L 486.833596 72.654486 
L 492.906966 73.271792 
L 498.980336 73.365412 
L 505.053706 70.40767 
L 511.127076 72.79997 
L 517.200447 71.374057 
L 523.273817 72.562149 
L 529.347187 71.428698 
L 535.420557 72.79281 
L 541.493927 71.73418 
L 547.567297 74.412859 
L 553.640667 73.0418 
L 559.714037 72.97948 
L 565.787407 71.846586 
L 571.860777 72.472662 
L 577.934147 70.823075 
L 584.007517 70.860042 
L 590.080887 72.751791 
L 596.154257 72.223117 
L 602.227627 71.001953 
L 608.300997 71.972825 
L 614.374368 71.24009 
L 620.447738 73.756345 
L 626.521108 73.380196 
L 632.594478 72.356932 
L 638.667848 71.9569 
L 644.741218 72.698149 
L 650.814588 73.532239 
L 656.887958 71.489751 
L 662.961328 73.875309 
L 669.034698 69.539239 
L 675.108068 74.319443 
" clip-path="url(#p4f8d3aa0ab)" style="fill: none; stroke: #1f77b4; stroke-width: 1.5; stroke-linecap: square"/>
   </g>
   <g id="line2d_16">
    <path d="M 73.844432 211.214681 
L 79.917802 181.663606 
L 85.991172 104.549053 
L 92.064542 71.161694 
L 98.137912 72.523403 
L 104.211282 71.643191 
L 110.284652 73.303126 
L 116.358022 70.522025 
L 122.431392 73.41712 
L 128.504762 73.489326 
L 134.578132 72.22978 
L 140.651503 73.839518 
L 146.724873 72.069204 
L 152.798243 71.474068 
L 158.871613 68.757037 
L 164.944983 73.10808 
L 171.018353 72.87563 
L 177.091723 73.057024 
L 183.165093 73.375694 
L 189.238463 72.159621 
L 195.311833 71.397316 
L 201.385203 72.135498 
L 207.458573 72.065952 
L 213.531943 72.835872 
L 219.605313 64.265961 
L 225.678683 70.272444 
L 231.752053 70.988076 
L 237.825424 70.34923 
L 243.898794 70.498247 
L 249.972164 72.585672 
L 256.045534 70.966552 
L 262.118904 70.24409 
L 268.192274 72.381298 
L 274.265644 71.572573 
L 280.339014 71.571018 
L 286.412384 71.478745 
L 292.485754 73.656507 
L 298.559124 71.981929 
L 304.632494 70.595474 
L 310.705864 73.052897 
L 316.779234 71.506973 
L 322.852604 72.465731 
L 328.925975 71.998397 
L 334.999345 72.316307 
L 341.072715 72.125787 
L 347.146085 71.792549 
L 353.219455 70.081506 
L 359.292825 72.737939 
L 365.366195 73.571258 
L 371.439565 72.317974 
L 377.512935 72.781773 
L 383.586305 73.768118 
L 389.659675 72.089265 
L 395.733045 71.031557 
L 401.806415 72.527804 
L 407.879785 73.288546 
L 413.953155 71.607161 
L 420.026525 72.102874 
L 426.099896 72.470046 
L 432.173266 71.418892 
L 438.246636 71.835813 
L 444.320006 73.664024 
L 450.393376 72.305307 
L 456.466746 72.729129 
L 462.540116 73.158541 
L 468.613486 72.051916 
L 474.686856 74.622218 
L 480.760226 70.031655 
L 486.833596 72.631517 
L 492.906966 71.662644 
L 498.980336 71.9762 
L 505.053706 72.098074 
L 511.127076 73.034424 
L 517.200447 72.046927 
L 523.273817 71.823781 
L 529.347187 70.90642 
L 535.420557 71.433967 
L 541.493927 70.214039 
L 547.567297 73.824316 
L 553.640667 72.047888 
L 559.714037 73.370526 
L 565.787407 72.01791 
L 571.860777 72.570385 
L 577.934147 71.357424 
L 584.007517 72.115911 
L 590.080887 72.81174 
L 596.154257 73.93154 
L 602.227627 67.574102 
L 608.300997 70.576402 
L 614.374368 70.644363 
L 620.447738 69.860418 
L 626.521108 72.198905 
L 632.594478 73.44161 
L 638.667848 69.920609 
L 644.741218 72.175243 
L 650.814588 72.727648 
L 656.887958 70.663067 
L 662.961328 71.71537 
L 669.034698 71.333448 
L 675.108068 72.786435 
" clip-path="url(#p4f8d3aa0ab)" style="fill: none; stroke: #ff7f0e; stroke-width: 1.5; stroke-linecap: square"/>
   </g>
   <g id="line2d_17">
    <path d="M 73.844432 207.955864 
L 79.917802 238.323759 
L 85.991172 261.569326 
L 92.064542 282.092724 
L 98.137912 213.255046 
L 104.211282 271.766475 
L 110.284652 215.644569 
L 116.358022 211.180264 
L 122.431392 208.768615 
L 128.504762 228.080579 
L 134.578132 195.358565 
L 140.651503 216.551741 
L 146.724873 236.734677 
L 152.798243 228.114409 
L 158.871613 248.277021 
L 164.944983 274.93806 
L 171.018353 304.457174 
L 177.091723 275.451152 
L 183.165093 336.120055 
L 189.238463 331.037339 
L 195.311833 319.058428 
L 201.385203 248.897052 
L 207.458573 291.934443 
L 213.531943 298.809198 
L 219.605313 332.612219 
L 225.678683 334.93003 
L 231.752053 336.601067 
L 237.825424 320.739066 
L 243.898794 291.732636 
L 249.972164 307.986597 
L 256.045534 284.671298 
L 262.118904 272.184387 
L 268.192274 260.649994 
L 274.265644 271.367177 
L 280.339014 287.66694 
L 286.412384 285.940791 
L 292.485754 261.938602 
L 298.559124 290.210328 
L 304.632494 299.453977 
L 310.705864 264.238256 
L 316.779234 256.265939 
L 322.852604 257.879462 
L 328.925975 269.004829 
L 334.999345 285.908962 
L 341.072715 196.159595 
L 347.146085 226.581471 
L 353.219455 165.327694 
L 359.292825 171.751477 
L 365.366195 250.890456 
L 371.439565 257.062067 
L 377.512935 283.90738 
L 383.586305 301.967934 
L 389.659675 328.407879 
L 395.733045 336.575212 
L 401.806415 342.449319 
L 407.879785 309.830801 
L 413.953155 329.929648 
L 420.026525 307.290167 
L 426.099896 314.589965 
L 432.173266 346.29163 
L 438.246636 349.749523 
L 444.320006 363.68078 
L 450.393376 366.857973 
L 456.466746 367.687436 
L 462.540116 345.88673 
L 468.613486 355.646917 
L 474.686856 360.175993 
L 480.760226 349.26816 
L 486.833596 362.179315 
L 492.906966 355.584023 
L 498.980336 363.158508 
L 505.053706 361.31902 
L 511.127076 348.283244 
L 517.200447 347.943867 
L 523.273817 368.970852 
L 529.347187 363.604683 
L 535.420557 337.746703 
L 541.493927 270.640323 
L 547.567297 258.431778 
L 553.640667 297.059051 
L 559.714037 305.123999 
L 565.787407 312.472827 
L 571.860777 331.359742 
L 577.934147 297.244601 
L 584.007517 284.24258 
L 590.080887 309.834898 
L 596.154257 308.540417 
L 602.227627 303.672435 
L 608.300997 315.967901 
L 614.374368 270.563385 
L 620.447738 287.636059 
L 626.521108 291.947396 
L 632.594478 222.882832 
L 638.667848 243.429731 
L 644.741218 236.572165 
L 650.814588 252.955469 
L 656.887958 269.185915 
L 662.961328 246.562967 
L 669.034698 233.210834 
L 675.108068 280.776661 
" clip-path="url(#p4f8d3aa0ab)" style="fill: none; stroke: #2ca02c; stroke-width: 1.5; stroke-linecap: square"/>
   </g>
   <g id="line2d_18">
    <path d="M 73.844432 168.690629 
L 79.917802 130.438304 
L 85.991172 187.391531 
L 92.064542 224.794607 
L 98.137912 63.93219 
L 104.211282 74.658017 
L 110.284652 75.488698 
L 116.358022 86.071214 
L 122.431392 124.21605 
L 128.504762 121.639125 
L 134.578132 147.871591 
L 140.651503 202.858539 
L 146.724873 209.412192 
L 152.798243 205.832699 
L 158.871613 224.467173 
L 164.944983 212.081941 
L 171.018353 158.069328 
L 177.091723 224.396097 
L 183.165093 218.528539 
L 189.238463 223.987345 
L 195.311833 224.106412 
L 201.385203 211.996126 
L 207.458573 214.897037 
L 213.531943 204.269942 
L 219.605313 209.307202 
L 225.678683 226.167739 
L 231.752053 236.806684 
L 237.825424 237.06279 
L 243.898794 280.023901 
L 249.972164 72.342043 
L 256.045534 82.211012 
L 262.118904 104.148688 
L 268.192274 120.164548 
L 274.265644 115.536376 
L 280.339014 109.592528 
L 286.412384 123.919269 
L 292.485754 145.733965 
L 298.559124 56.924408 
L 304.632494 67.20668 
L 310.705864 72.322957 
L 316.779234 74.108664 
L 322.852604 71.605385 
L 328.925975 73.284782 
L 334.999345 73.702454 
L 341.072715 71.862808 
L 347.146085 74.654395 
L 353.219455 71.057954 
L 359.292825 74.31305 
L 365.366195 71.017937 
L 371.439565 73.494881 
L 377.512935 73.896989 
L 383.586305 70.204292 
L 389.659675 71.915348 
L 395.733045 69.887778 
L 401.806415 73.580938 
L 407.879785 72.469937 
L 413.953155 73.70058 
L 420.026525 70.796798 
L 426.099896 73.175326 
L 432.173266 74.908271 
L 438.246636 72.306166 
L 444.320006 71.693963 
L 450.393376 70.184047 
L 456.466746 72.691924 
L 462.540116 69.607566 
L 468.613486 72.495447 
L 474.686856 72.655589 
L 480.760226 73.473658 
L 486.833596 72.325549 
L 492.906966 71.472712 
L 498.980336 71.408823 
L 505.053706 71.493837 
L 511.127076 72.013215 
L 517.200447 72.45071 
L 523.273817 73.107983 
L 529.347187 72.238846 
L 535.420557 76.704978 
L 541.493927 93.6466 
L 547.567297 101.440248 
L 553.640667 122.495363 
L 559.714037 124.457775 
L 565.787407 129.188553 
L 571.860777 100.411728 
L 577.934147 71.878832 
L 584.007517 72.203329 
L 590.080887 74.973585 
L 596.154257 93.883063 
L 602.227627 89.420922 
L 608.300997 83.389927 
L 614.374368 87.680777 
L 620.447738 84.413988 
L 626.521108 84.108654 
L 632.594478 84.378451 
L 638.667848 86.060655 
L 644.741218 86.878636 
L 650.814588 81.333294 
L 656.887958 83.980966 
L 662.961328 83.115826 
L 669.034698 85.29678 
L 675.108068 85.84627 
" clip-path="url(#p4f8d3aa0ab)" style="fill: none; stroke: #d62728; stroke-width: 1.5; stroke-linecap: square"/>
   </g>
   <g id="line2d_19">
    <path d="M 73.844432 140.861391 
L 79.917802 72.16614 
L 85.991172 76.316955 
L 92.064542 38.825398 
L 98.137912 137.12672 
L 104.211282 156.521617 
L 110.284652 175.891405 
L 116.358022 201.791741 
L 122.431392 192.901273 
L 128.504762 167.075536 
L 134.578132 193.049384 
L 140.651503 107.115362 
L 146.724873 71.207005 
L 152.798243 72.183722 
L 158.871613 72.98484 
L 164.944983 70.438444 
L 171.018353 71.040678 
L 177.091723 72.450869 
L 183.165093 70.953389 
L 189.238463 72.404562 
L 195.311833 71.664327 
L 201.385203 74.081182 
L 207.458573 73.622328 
L 213.531943 73.118617 
L 219.605313 72.784717 
L 225.678683 71.410045 
L 231.752053 73.054529 
L 237.825424 72.31758 
L 243.898794 73.864549 
L 249.972164 71.844188 
L 256.045534 70.823059 
L 262.118904 72.474417 
L 268.192274 67.418528 
L 274.265644 68.141111 
L 280.339014 70.905767 
L 286.412384 74.387493 
L 292.485754 72.620971 
L 298.559124 73.210826 
L 304.632494 69.857505 
L 310.705864 73.967275 
L 316.779234 71.191889 
L 322.852604 71.644946 
L 328.925975 72.858282 
L 334.999345 73.835659 
L 341.072715 71.796184 
L 347.146085 70.152156 
L 353.219455 74.240436 
L 359.292825 72.994669 
L 365.366195 69.789465 
L 371.439565 69.665815 
L 377.512935 71.064926 
L 383.586305 73.008495 
L 389.659675 67.275841 
L 395.733045 70.958023 
L 401.806415 69.140933 
L 407.879785 71.688092 
L 413.953155 71.441034 
L 420.026525 73.165034 
L 426.099896 72.253732 
L 432.173266 71.861575 
L 438.246636 72.777851 
L 444.320006 71.141889 
L 450.393376 71.738948 
L 456.466746 71.811887 
L 462.540116 72.040505 
L 468.613486 72.675889 
L 474.686856 71.110656 
L 480.760226 72.915108 
L 486.833596 70.215452 
L 492.906966 73.356195 
L 498.980336 72.532414 
L 505.053706 73.296129 
L 511.127076 74.916499 
L 517.200447 71.30279 
L 523.273817 73.615055 
L 529.347187 71.420126 
L 535.420557 71.169391 
L 541.493927 72.481196 
L 547.567297 73.497849 
L 553.640667 72.771964 
L 559.714037 73.301494 
L 565.787407 72.336548 
L 571.860777 74.223843 
L 577.934147 71.876751 
L 584.007517 73.679551 
L 590.080887 73.629305 
L 596.154257 73.043433 
L 602.227627 70.83087 
L 608.300997 72.752227 
L 614.374368 69.118142 
L 620.447738 71.495287 
L 626.521108 73.9813 
L 632.594478 72.837477 
L 638.667848 70.60299 
L 644.741218 72.852784 
L 650.814588 71.538266 
L 656.887958 74.835131 
L 662.961328 72.760023 
L 669.034698 70.993887 
L 675.108068 72.067384 
" clip-path="url(#p4f8d3aa0ab)" style="fill: none; stroke: #9467bd; stroke-width: 1.5; stroke-linecap: square"/>
   </g>
   <g id="patch_3">
    <path d="M 43.78125 385.478125 
L 43.78125 22.318125 
" style="fill: none; stroke: #000000; stroke-width: 0.8; stroke-linejoin: miter; stroke-linecap: square"/>
   </g>
   <g id="patch_4">
    <path d="M 705.17125 385.478125 
L 705.17125 22.318125 
" style="fill: none; stroke: #000000; stroke-width: 0.8; stroke-linejoin: miter; stroke-linecap: square"/>
   </g>
   <g id="patch_5">
    <path d="M 43.78125 385.478125 
L 705.17125 385.478125 
" style="fill: none; stroke: #000000; stroke-width: 0.8; stroke-linejoin: miter; stroke-linecap: square"/>
   </g>
   <g id="patch_6">
    <path d="M 43.78125 22.318125 
L 705.17125 22.318125 
" style="fill: none; stroke: #000000; stroke-width: 0.8; stroke-linejoin: miter; stroke-linecap: square"/>
   </g>
   <g id="text_17">
    <!-- Combined Train Loss -->
    <g transform="translate(312.624688 16.318125) scale(0.12 -0.12)">
     <defs>
      <path id="DejaVuSans-43" d="M 4122 4306 
L 4122 3641 
Q 3803 3938 3442 4084 
Q 3081 4231 2675 4231 
Q 1875 4231 1450 3742 
Q 1025 3253 1025 2328 
Q 1025 1406 1450 917 
Q 1875 428 2675 428 
Q 3081 428 3442 575 
Q 3803 722 4122 1019 
L 4122 359 
Q 3791 134 3420 21 
Q 3050 -91 2638 -91 
Q 1578 -91 968 557 
Q 359 1206 359 2328 
Q 359 3453 968 4101 
Q 1578 4750 2638 4750 
Q 3056 4750 3426 4639 
Q 3797 4528 4122 4306 
z
" transform="scale(0.015625)"/>
      <path id="DejaVuSans-6d" d="M 3328 2828 
Q 3544 3216 3844 3400 
Q 4144 3584 4550 3584 
Q 5097 3584 5394 3201 
Q 5691 2819 5691 2113 
L 5691 0 
L 5113 0 
L 5113 2094 
Q 5113 2597 4934 2840 
Q 4756 3084 4391 3084 
Q 3944 3084 3684 2787 
Q 3425 2491 3425 1978 
L 3425 0 
L 2847 0 
L 2847 2094 
Q 2847 2600 2669 2842 
Q 2491 3084 2119 3084 
Q 1678 3084 1418 2786 
Q 1159 2488 1159 1978 
L 1159 0 
L 581 0 
L 581 3500 
L 1159 3500 
L 1159 2956 
Q 1356 3278 1631 3431 
Q 1906 3584 2284 3584 
Q 2666 3584 2933 3390 
Q 3200 3197 3328 2828 
z
" transform="scale(0.015625)"/>
      <path id="DejaVuSans-62" d="M 3116 1747 
Q 3116 2381 2855 2742 
Q 2594 3103 2138 3103 
Q 1681 3103 1420 2742 
Q 1159 2381 1159 1747 
Q 1159 1113 1420 752 
Q 1681 391 2138 391 
Q 2594 391 2855 752 
Q 3116 1113 3116 1747 
z
M 1159 2969 
Q 1341 3281 1617 3432 
Q 1894 3584 2278 3584 
Q 2916 3584 3314 3078 
Q 3713 2572 3713 1747 
Q 3713 922 3314 415 
Q 2916 -91 2278 -91 
Q 1894 -91 1617 61 
Q 1341 213 1159 525 
L 1159 0 
L 581 0 
L 581 4863 
L 1159 4863 
L 1159 2969 
z
" transform="scale(0.015625)"/>
      <path id="DejaVuSans-65" d="M 3597 1894 
L 3597 1613 
L 953 1613 
Q 991 1019 1311 708 
Q 1631 397 2203 397 
Q 2534 397 2845 478 
Q 3156 559 3463 722 
L 3463 178 
Q 3153 47 2828 -22 
Q 2503 -91 2169 -91 
Q 1331 -91 842 396 
Q 353 884 353 1716 
Q 353 2575 817 3079 
Q 1281 3584 2069 3584 
Q 2775 3584 3186 3129 
Q 3597 2675 3597 1894 
z
M 3022 2063 
Q 3016 2534 2758 2815 
Q 2500 3097 2075 3097 
Q 1594 3097 1305 2825 
Q 1016 2553 972 2059 
L 3022 2063 
z
" transform="scale(0.015625)"/>
      <path id="DejaVuSans-64" d="M 2906 2969 
L 2906 4863 
L 3481 4863 
L 3481 0 
L 2906 0 
L 2906 525 
Q 2725 213 2448 61 
Q 2172 -91 1784 -91 
Q 1150 -91 751 415 
Q 353 922 353 1747 
Q 353 2572 751 3078 
Q 1150 3584 1784 3584 
Q 2172 3584 2448 3432 
Q 2725 3281 2906 2969 
z
M 947 1747 
Q 947 1113 1208 752 
Q 1469 391 1925 391 
Q 2381 391 2643 752 
Q 2906 1113 2906 1747 
Q 2906 2381 2643 2742 
Q 2381 3103 1925 3103 
Q 1469 3103 1208 2742 
Q 947 2381 947 1747 
z
" transform="scale(0.015625)"/>
     </defs>
     <use xlink:href="#DejaVuSans-43"/>
     <use xlink:href="#DejaVuSans-6f" transform="translate(69.824219 0)"/>
     <use xlink:href="#DejaVuSans-6d" transform="translate(131.005859 0)"/>
     <use xlink:href="#DejaVuSans-62" transform="translate(228.417969 0)"/>
     <use xlink:href="#DejaVuSans-69" transform="translate(291.894531 0)"/>
     <use xlink:href="#DejaVuSans-6e" transform="translate(319.677734 0)"/>
     <use xlink:href="#DejaVuSans-65" transform="translate(383.056641 0)"/>
     <use xlink:href="#DejaVuSans-64" transform="translate(444.580078 0)"/>
     <use xlink:href="#DejaVuSans-20" transform="translate(508.056641 0)"/>
     <use xlink:href="#DejaVuSans-54" transform="translate(539.84375 0)"/>
     <use xlink:href="#DejaVuSans-72" transform="translate(586.177734 0)"/>
     <use xlink:href="#DejaVuSans-61" transform="translate(627.291016 0)"/>
     <use xlink:href="#DejaVuSans-69" transform="translate(688.570312 0)"/>
     <use xlink:href="#DejaVuSans-6e" transform="translate(716.353516 0)"/>
     <use xlink:href="#DejaVuSans-20" transform="translate(779.732422 0)"/>
     <use xlink:href="#DejaVuSans-4c" transform="translate(811.519531 0)"/>
     <use xlink:href="#DejaVuSans-6f" transform="translate(865.482422 0)"/>
     <use xlink:href="#DejaVuSans-73" transform="translate(926.664062 0)"/>
     <use xlink:href="#DejaVuSans-73" transform="translate(978.763672 0)"/>
    </g>
   </g>
   <g id="legend_1">
    <g id="patch_7">
     <path d="M 50.78125 380.478125 
L 112.95625 380.478125 
Q 114.95625 380.478125 114.95625 378.478125 
L 114.95625 306.0875 
Q 114.95625 304.0875 112.95625 304.0875 
L 50.78125 304.0875 
Q 48.78125 304.0875 48.78125 306.0875 
L 48.78125 378.478125 
Q 48.78125 380.478125 50.78125 380.478125 
z
" style="fill: #ffffff; opacity: 0.8; stroke: #cccccc; stroke-linejoin: miter"/>
    </g>
    <g id="line2d_20">
     <path d="M 52.78125 312.185937 
L 62.78125 312.185937 
L 72.78125 312.185937 
" style="fill: none; stroke: #1f77b4; stroke-width: 1.5; stroke-linecap: square"/>
    </g>
    <g id="text_18">
     <!-- Fold 1 -->
     <g transform="translate(80.78125 315.685937) scale(0.1 -0.1)">
      <defs>
       <path id="DejaVuSans-46" d="M 628 4666 
L 3309 4666 
L 3309 4134 
L 1259 4134 
L 1259 2759 
L 3109 2759 
L 3109 2228 
L 1259 2228 
L 1259 0 
L 628 0 
L 628 4666 
z
" transform="scale(0.015625)"/>
       <path id="DejaVuSans-6c" d="M 603 4863 
L 1178 4863 
L 1178 0 
L 603 0 
L 603 4863 
z
" transform="scale(0.015625)"/>
      </defs>
      <use xlink:href="#DejaVuSans-46"/>
      <use xlink:href="#DejaVuSans-6f" transform="translate(53.894531 0)"/>
      <use xlink:href="#DejaVuSans-6c" transform="translate(115.076172 0)"/>
      <use xlink:href="#DejaVuSans-64" transform="translate(142.859375 0)"/>
      <use xlink:href="#DejaVuSans-20" transform="translate(206.335938 0)"/>
      <use xlink:href="#DejaVuSans-31" transform="translate(238.123047 0)"/>
     </g>
    </g>
    <g id="line2d_21">
     <path d="M 52.78125 326.864062 
L 62.78125 326.864062 
L 72.78125 326.864062 
" style="fill: none; stroke: #ff7f0e; stroke-width: 1.5; stroke-linecap: square"/>
    </g>
    <g id="text_19">
     <!-- Fold 2 -->
     <g transform="translate(80.78125 330.364062) scale(0.1 -0.1)">
      <use xlink:href="#DejaVuSans-46"/>
      <use xlink:href="#DejaVuSans-6f" transform="translate(53.894531 0)"/>
      <use xlink:href="#DejaVuSans-6c" transform="translate(115.076172 0)"/>
      <use xlink:href="#DejaVuSans-64" transform="translate(142.859375 0)"/>
      <use xlink:href="#DejaVuSans-20" transform="translate(206.335938 0)"/>
      <use xlink:href="#DejaVuSans-32" transform="translate(238.123047 0)"/>
     </g>
    </g>
    <g id="line2d_22">
     <path d="M 52.78125 341.542187 
L 62.78125 341.542187 
L 72.78125 341.542187 
" style="fill: none; stroke: #2ca02c; stroke-width: 1.5; stroke-linecap: square"/>
    </g>
    <g id="text_20">
     <!-- Fold 3 -->
     <g transform="translate(80.78125 345.042187) scale(0.1 -0.1)">
      <use xlink:href="#DejaVuSans-46"/>
      <use xlink:href="#DejaVuSans-6f" transform="translate(53.894531 0)"/>
      <use xlink:href="#DejaVuSans-6c" transform="translate(115.076172 0)"/>
      <use xlink:href="#DejaVuSans-64" transform="translate(142.859375 0)"/>
      <use xlink:href="#DejaVuSans-20" transform="translate(206.335938 0)"/>
      <use xlink:href="#DejaVuSans-33" transform="translate(238.123047 0)"/>
     </g>
    </g>
    <g id="line2d_23">
     <path d="M 52.78125 356.220312 
L 62.78125 356.220312 
L 72.78125 356.220312 
" style="fill: none; stroke: #d62728; stroke-width: 1.5; stroke-linecap: square"/>
    </g>
    <g id="text_21">
     <!-- Fold 4 -->
     <g transform="translate(80.78125 359.720312) scale(0.1 -0.1)">
      <use xlink:href="#DejaVuSans-46"/>
      <use xlink:href="#DejaVuSans-6f" transform="translate(53.894531 0)"/>
      <use xlink:href="#DejaVuSans-6c" transform="translate(115.076172 0)"/>
      <use xlink:href="#DejaVuSans-64" transform="translate(142.859375 0)"/>
      <use xlink:href="#DejaVuSans-20" transform="translate(206.335938 0)"/>
      <use xlink:href="#DejaVuSans-34" transform="translate(238.123047 0)"/>
     </g>
    </g>
    <g id="line2d_24">
     <path d="M 52.78125 370.898437 
L 62.78125 370.898437 
L 72.78125 370.898437 
" style="fill: none; stroke: #9467bd; stroke-width: 1.5; stroke-linecap: square"/>
    </g>
    <g id="text_22">
     <!-- Fold 5 -->
     <g transform="translate(80.78125 374.398437) scale(0.1 -0.1)">
      <use xlink:href="#DejaVuSans-46"/>
      <use xlink:href="#DejaVuSans-6f" transform="translate(53.894531 0)"/>
      <use xlink:href="#DejaVuSans-6c" transform="translate(115.076172 0)"/>
      <use xlink:href="#DejaVuSans-64" transform="translate(142.859375 0)"/>
      <use xlink:href="#DejaVuSans-20" transform="translate(206.335938 0)"/>
      <use xlink:href="#DejaVuSans-35" transform="translate(238.123047 0)"/>
     </g>
    </g>
   </g>
  </g>
 </g>
 <defs>
  <clipPath id="p4f8d3aa0ab">
   <rect x="43.78125" y="22.318125" width="661.39" height="363.16"/>
  </clipPath>
 </defs>
</svg>
