<?xml version="1.0" encoding="utf-8" standalone="no"?>
<!DOCTYPE svg PUBLIC "-//W3C//DTD SVG 1.1//EN"
  "http://www.w3.org/Graphics/SVG/1.1/DTD/svg11.dtd">
<svg xmlns:xlink="http://www.w3.org/1999/xlink" width="712.37125pt" height="423.034375pt" viewBox="0 0 712.37125 423.034375" xmlns="http://www.w3.org/2000/svg" version="1.1">
 <metadata>
  <rdf:RDF xmlns:dc="http://purl.org/dc/elements/1.1/" xmlns:cc="http://creativecommons.org/ns#" xmlns:rdf="http://www.w3.org/1999/02/22-rdf-syntax-ns#">
   <cc:Work>
    <dc:type rdf:resource="http://purl.org/dc/dcmitype/StillImage"/>
    <dc:date>2025-06-25T08:31:19.824641</dc:date>
    <dc:format>image/svg+xml</dc:format>
    <dc:creator>
     <cc:Agent>
      <dc:title>Matplotlib v3.10.0, https://matplotlib.org/</dc:title>
     </cc:Agent>
    </dc:creator>
   </cc:Work>
  </rdf:RDF>
 </metadata>
 <defs>
  <style type="text/css">*{stroke-linejoin: round; stroke-linecap: butt}</style>
 </defs>
 <g id="figure_1">
  <g id="patch_1">
   <path d="M 0 423.034375 
L 712.37125 423.034375 
L 712.37125 0 
L 0 0 
z
" style="fill: #ffffff"/>
  </g>
  <g id="axes_1">
   <g id="patch_2">
    <path d="M 43.78125 385.478125 
L 705.17125 385.478125 
L 705.17125 22.318125 
L 43.78125 22.318125 
z
" style="fill: #ffffff"/>
   </g>
   <g id="matplotlib.axis_1">
    <g id="xtick_1">
     <g id="line2d_1">
      <defs>
       <path id="m7b354daa87" d="M 0 0 
L 0 3.5 
" style="stroke: #000000; stroke-width: 0.8"/>
      </defs>
      <g>
       <use xlink:href="#m7b354daa87" x="67.771062" y="385.478125" style="stroke: #000000; stroke-width: 0.8"/>
      </g>
     </g>
     <g id="text_1">
      <!-- 0 -->
      <g transform="translate(64.589812 400.076562) scale(0.1 -0.1)">
       <defs>
        <path id="DejaVuSans-30" d="M 2034 4250 
Q 1547 4250 1301 3770 
Q 1056 3291 1056 2328 
Q 1056 1369 1301 889 
Q 1547 409 2034 409 
Q 2525 409 2770 889 
Q 3016 1369 3016 2328 
Q 3016 3291 2770 3770 
Q 2525 4250 2034 4250 
z
M 2034 4750 
Q 2819 4750 3233 4129 
Q 3647 3509 3647 2328 
Q 3647 1150 3233 529 
Q 2819 -91 2034 -91 
Q 1250 -91 836 529 
Q 422 1150 422 2328 
Q 422 3509 836 4129 
Q 1250 4750 2034 4750 
z
" transform="scale(0.015625)"/>
       </defs>
       <use xlink:href="#DejaVuSans-30"/>
      </g>
     </g>
    </g>
    <g id="xtick_2">
     <g id="line2d_2">
      <g>
       <use xlink:href="#m7b354daa87" x="189.238463" y="385.478125" style="stroke: #000000; stroke-width: 0.8"/>
      </g>
     </g>
     <g id="text_2">
      <!-- 20 -->
      <g transform="translate(182.875963 400.076562) scale(0.1 -0.1)">
       <defs>
        <path id="DejaVuSans-32" d="M 1228 531 
L 3431 531 
L 3431 0 
L 469 0 
L 469 531 
Q 828 903 1448 1529 
Q 2069 2156 2228 2338 
Q 2531 2678 2651 2914 
Q 2772 3150 2772 3378 
Q 2772 3750 2511 3984 
Q 2250 4219 1831 4219 
Q 1534 4219 1204 4116 
Q 875 4013 500 3803 
L 500 4441 
Q 881 4594 1212 4672 
Q 1544 4750 1819 4750 
Q 2544 4750 2975 4387 
Q 3406 4025 3406 3419 
Q 3406 3131 3298 2873 
Q 3191 2616 2906 2266 
Q 2828 2175 2409 1742 
Q 1991 1309 1228 531 
z
" transform="scale(0.015625)"/>
       </defs>
       <use xlink:href="#DejaVuSans-32"/>
       <use xlink:href="#DejaVuSans-30" transform="translate(63.623047 0)"/>
      </g>
     </g>
    </g>
    <g id="xtick_3">
     <g id="line2d_3">
      <g>
       <use xlink:href="#m7b354daa87" x="310.705864" y="385.478125" style="stroke: #000000; stroke-width: 0.8"/>
      </g>
     </g>
     <g id="text_3">
      <!-- 40 -->
      <g transform="translate(304.343364 400.076562) scale(0.1 -0.1)">
       <defs>
        <path id="DejaVuSans-34" d="M 2419 4116 
L 825 1625 
L 2419 1625 
L 2419 4116 
z
M 2253 4666 
L 3047 4666 
L 3047 1625 
L 3713 1625 
L 3713 1100 
L 3047 1100 
L 3047 0 
L 2419 0 
L 2419 1100 
L 313 1100 
L 313 1709 
L 2253 4666 
z
" transform="scale(0.015625)"/>
       </defs>
       <use xlink:href="#DejaVuSans-34"/>
       <use xlink:href="#DejaVuSans-30" transform="translate(63.623047 0)"/>
      </g>
     </g>
    </g>
    <g id="xtick_4">
     <g id="line2d_4">
      <g>
       <use xlink:href="#m7b354daa87" x="432.173266" y="385.478125" style="stroke: #000000; stroke-width: 0.8"/>
      </g>
     </g>
     <g id="text_4">
      <!-- 60 -->
      <g transform="translate(425.810766 400.076562) scale(0.1 -0.1)">
       <defs>
        <path id="DejaVuSans-36" d="M 2113 2584 
Q 1688 2584 1439 2293 
Q 1191 2003 1191 1497 
Q 1191 994 1439 701 
Q 1688 409 2113 409 
Q 2538 409 2786 701 
Q 3034 994 3034 1497 
Q 3034 2003 2786 2293 
Q 2538 2584 2113 2584 
z
M 3366 4563 
L 3366 3988 
Q 3128 4100 2886 4159 
Q 2644 4219 2406 4219 
Q 1781 4219 1451 3797 
Q 1122 3375 1075 2522 
Q 1259 2794 1537 2939 
Q 1816 3084 2150 3084 
Q 2853 3084 3261 2657 
Q 3669 2231 3669 1497 
Q 3669 778 3244 343 
Q 2819 -91 2113 -91 
Q 1303 -91 875 529 
Q 447 1150 447 2328 
Q 447 3434 972 4092 
Q 1497 4750 2381 4750 
Q 2619 4750 2861 4703 
Q 3103 4656 3366 4563 
z
" transform="scale(0.015625)"/>
       </defs>
       <use xlink:href="#DejaVuSans-36"/>
       <use xlink:href="#DejaVuSans-30" transform="translate(63.623047 0)"/>
      </g>
     </g>
    </g>
    <g id="xtick_5">
     <g id="line2d_5">
      <g>
       <use xlink:href="#m7b354daa87" x="553.640667" y="385.478125" style="stroke: #000000; stroke-width: 0.8"/>
      </g>
     </g>
     <g id="text_5">
      <!-- 80 -->
      <g transform="translate(547.278167 400.076562) scale(0.1 -0.1)">
       <defs>
        <path id="DejaVuSans-38" d="M 2034 2216 
Q 1584 2216 1326 1975 
Q 1069 1734 1069 1313 
Q 1069 891 1326 650 
Q 1584 409 2034 409 
Q 2484 409 2743 651 
Q 3003 894 3003 1313 
Q 3003 1734 2745 1975 
Q 2488 2216 2034 2216 
z
M 1403 2484 
Q 997 2584 770 2862 
Q 544 3141 544 3541 
Q 544 4100 942 4425 
Q 1341 4750 2034 4750 
Q 2731 4750 3128 4425 
Q 3525 4100 3525 3541 
Q 3525 3141 3298 2862 
Q 3072 2584 2669 2484 
Q 3125 2378 3379 2068 
Q 3634 1759 3634 1313 
Q 3634 634 3220 271 
Q 2806 -91 2034 -91 
Q 1263 -91 848 271 
Q 434 634 434 1313 
Q 434 1759 690 2068 
Q 947 2378 1403 2484 
z
M 1172 3481 
Q 1172 3119 1398 2916 
Q 1625 2713 2034 2713 
Q 2441 2713 2670 2916 
Q 2900 3119 2900 3481 
Q 2900 3844 2670 4047 
Q 2441 4250 2034 4250 
Q 1625 4250 1398 4047 
Q 1172 3844 1172 3481 
z
" transform="scale(0.015625)"/>
       </defs>
       <use xlink:href="#DejaVuSans-38"/>
       <use xlink:href="#DejaVuSans-30" transform="translate(63.623047 0)"/>
      </g>
     </g>
    </g>
    <g id="xtick_6">
     <g id="line2d_6">
      <g>
       <use xlink:href="#m7b354daa87" x="675.108068" y="385.478125" style="stroke: #000000; stroke-width: 0.8"/>
      </g>
     </g>
     <g id="text_6">
      <!-- 100 -->
      <g transform="translate(665.564318 400.076562) scale(0.1 -0.1)">
       <defs>
        <path id="DejaVuSans-31" d="M 794 531 
L 1825 531 
L 1825 4091 
L 703 3866 
L 703 4441 
L 1819 4666 
L 2450 4666 
L 2450 531 
L 3481 531 
L 3481 0 
L 794 0 
L 794 531 
z
" transform="scale(0.015625)"/>
       </defs>
       <use xlink:href="#DejaVuSans-31"/>
       <use xlink:href="#DejaVuSans-30" transform="translate(63.623047 0)"/>
       <use xlink:href="#DejaVuSans-30" transform="translate(127.246094 0)"/>
      </g>
     </g>
    </g>
    <g id="text_7">
     <!-- Epoch -->
     <g transform="translate(359.165313 413.754687) scale(0.1 -0.1)">
      <defs>
       <path id="DejaVuSans-45" d="M 628 4666 
L 3578 4666 
L 3578 4134 
L 1259 4134 
L 1259 2753 
L 3481 2753 
L 3481 2222 
L 1259 2222 
L 1259 531 
L 3634 531 
L 3634 0 
L 628 0 
L 628 4666 
z
" transform="scale(0.015625)"/>
       <path id="DejaVuSans-70" d="M 1159 525 
L 1159 -1331 
L 581 -1331 
L 581 3500 
L 1159 3500 
L 1159 2969 
Q 1341 3281 1617 3432 
Q 1894 3584 2278 3584 
Q 2916 3584 3314 3078 
Q 3713 2572 3713 1747 
Q 3713 922 3314 415 
Q 2916 -91 2278 -91 
Q 1894 -91 1617 61 
Q 1341 213 1159 525 
z
M 3116 1747 
Q 3116 2381 2855 2742 
Q 2594 3103 2138 3103 
Q 1681 3103 1420 2742 
Q 1159 2381 1159 1747 
Q 1159 1113 1420 752 
Q 1681 391 2138 391 
Q 2594 391 2855 752 
Q 3116 1113 3116 1747 
z
" transform="scale(0.015625)"/>
       <path id="DejaVuSans-6f" d="M 1959 3097 
Q 1497 3097 1228 2736 
Q 959 2375 959 1747 
Q 959 1119 1226 758 
Q 1494 397 1959 397 
Q 2419 397 2687 759 
Q 2956 1122 2956 1747 
Q 2956 2369 2687 2733 
Q 2419 3097 1959 3097 
z
M 1959 3584 
Q 2709 3584 3137 3096 
Q 3566 2609 3566 1747 
Q 3566 888 3137 398 
Q 2709 -91 1959 -91 
Q 1206 -91 779 398 
Q 353 888 353 1747 
Q 353 2609 779 3096 
Q 1206 3584 1959 3584 
z
" transform="scale(0.015625)"/>
       <path id="DejaVuSans-63" d="M 3122 3366 
L 3122 2828 
Q 2878 2963 2633 3030 
Q 2388 3097 2138 3097 
Q 1578 3097 1268 2742 
Q 959 2388 959 1747 
Q 959 1106 1268 751 
Q 1578 397 2138 397 
Q 2388 397 2633 464 
Q 2878 531 3122 666 
L 3122 134 
Q 2881 22 2623 -34 
Q 2366 -91 2075 -91 
Q 1284 -91 818 406 
Q 353 903 353 1747 
Q 353 2603 823 3093 
Q 1294 3584 2113 3584 
Q 2378 3584 2631 3529 
Q 2884 3475 3122 3366 
z
" transform="scale(0.015625)"/>
       <path id="DejaVuSans-68" d="M 3513 2113 
L 3513 0 
L 2938 0 
L 2938 2094 
Q 2938 2591 2744 2837 
Q 2550 3084 2163 3084 
Q 1697 3084 1428 2787 
Q 1159 2491 1159 1978 
L 1159 0 
L 581 0 
L 581 4863 
L 1159 4863 
L 1159 2956 
Q 1366 3272 1645 3428 
Q 1925 3584 2291 3584 
Q 2894 3584 3203 3211 
Q 3513 2838 3513 2113 
z
" transform="scale(0.015625)"/>
      </defs>
      <use xlink:href="#DejaVuSans-45"/>
      <use xlink:href="#DejaVuSans-70" transform="translate(63.183594 0)"/>
      <use xlink:href="#DejaVuSans-6f" transform="translate(126.660156 0)"/>
      <use xlink:href="#DejaVuSans-63" transform="translate(187.841797 0)"/>
      <use xlink:href="#DejaVuSans-68" transform="translate(242.822266 0)"/>
     </g>
    </g>
   </g>
   <g id="matplotlib.axis_2">
    <g id="ytick_1">
     <g id="line2d_7">
      <defs>
       <path id="m979f1c02d0" d="M 0 0 
L -3.5 0 
" style="stroke: #000000; stroke-width: 0.8"/>
      </defs>
      <g>
       <use xlink:href="#m979f1c02d0" x="43.78125" y="378.167325" style="stroke: #000000; stroke-width: 0.8"/>
      </g>
     </g>
     <g id="text_8">
      <!-- 1.3 -->
      <g transform="translate(20.878125 381.966544) scale(0.1 -0.1)">
       <defs>
        <path id="DejaVuSans-2e" d="M 684 794 
L 1344 794 
L 1344 0 
L 684 0 
L 684 794 
z
" transform="scale(0.015625)"/>
        <path id="DejaVuSans-33" d="M 2597 2516 
Q 3050 2419 3304 2112 
Q 3559 1806 3559 1356 
Q 3559 666 3084 287 
Q 2609 -91 1734 -91 
Q 1441 -91 1130 -33 
Q 819 25 488 141 
L 488 750 
Q 750 597 1062 519 
Q 1375 441 1716 441 
Q 2309 441 2620 675 
Q 2931 909 2931 1356 
Q 2931 1769 2642 2001 
Q 2353 2234 1838 2234 
L 1294 2234 
L 1294 2753 
L 1863 2753 
Q 2328 2753 2575 2939 
Q 2822 3125 2822 3475 
Q 2822 3834 2567 4026 
Q 2313 4219 1838 4219 
Q 1578 4219 1281 4162 
Q 984 4106 628 3988 
L 628 4550 
Q 988 4650 1302 4700 
Q 1616 4750 1894 4750 
Q 2613 4750 3031 4423 
Q 3450 4097 3450 3541 
Q 3450 3153 3228 2886 
Q 3006 2619 2597 2516 
z
" transform="scale(0.015625)"/>
       </defs>
       <use xlink:href="#DejaVuSans-31"/>
       <use xlink:href="#DejaVuSans-2e" transform="translate(63.623047 0)"/>
       <use xlink:href="#DejaVuSans-33" transform="translate(95.410156 0)"/>
      </g>
     </g>
    </g>
    <g id="ytick_2">
     <g id="line2d_8">
      <g>
       <use xlink:href="#m979f1c02d0" x="43.78125" y="308.088508" style="stroke: #000000; stroke-width: 0.8"/>
      </g>
     </g>
     <g id="text_9">
      <!-- 1.4 -->
      <g transform="translate(20.878125 311.887727) scale(0.1 -0.1)">
       <use xlink:href="#DejaVuSans-31"/>
       <use xlink:href="#DejaVuSans-2e" transform="translate(63.623047 0)"/>
       <use xlink:href="#DejaVuSans-34" transform="translate(95.410156 0)"/>
      </g>
     </g>
    </g>
    <g id="ytick_3">
     <g id="line2d_9">
      <g>
       <use xlink:href="#m979f1c02d0" x="43.78125" y="238.009692" style="stroke: #000000; stroke-width: 0.8"/>
      </g>
     </g>
     <g id="text_10">
      <!-- 1.5 -->
      <g transform="translate(20.878125 241.80891) scale(0.1 -0.1)">
       <defs>
        <path id="DejaVuSans-35" d="M 691 4666 
L 3169 4666 
L 3169 4134 
L 1269 4134 
L 1269 2991 
Q 1406 3038 1543 3061 
Q 1681 3084 1819 3084 
Q 2600 3084 3056 2656 
Q 3513 2228 3513 1497 
Q 3513 744 3044 326 
Q 2575 -91 1722 -91 
Q 1428 -91 1123 -41 
Q 819 9 494 109 
L 494 744 
Q 775 591 1075 516 
Q 1375 441 1709 441 
Q 2250 441 2565 725 
Q 2881 1009 2881 1497 
Q 2881 1984 2565 2268 
Q 2250 2553 1709 2553 
Q 1456 2553 1204 2497 
Q 953 2441 691 2322 
L 691 4666 
z
" transform="scale(0.015625)"/>
       </defs>
       <use xlink:href="#DejaVuSans-31"/>
       <use xlink:href="#DejaVuSans-2e" transform="translate(63.623047 0)"/>
       <use xlink:href="#DejaVuSans-35" transform="translate(95.410156 0)"/>
      </g>
     </g>
    </g>
    <g id="ytick_4">
     <g id="line2d_10">
      <g>
       <use xlink:href="#m979f1c02d0" x="43.78125" y="167.930875" style="stroke: #000000; stroke-width: 0.8"/>
      </g>
     </g>
     <g id="text_11">
      <!-- 1.6 -->
      <g transform="translate(20.878125 171.730094) scale(0.1 -0.1)">
       <use xlink:href="#DejaVuSans-31"/>
       <use xlink:href="#DejaVuSans-2e" transform="translate(63.623047 0)"/>
       <use xlink:href="#DejaVuSans-36" transform="translate(95.410156 0)"/>
      </g>
     </g>
    </g>
    <g id="ytick_5">
     <g id="line2d_11">
      <g>
       <use xlink:href="#m979f1c02d0" x="43.78125" y="97.852058" style="stroke: #000000; stroke-width: 0.8"/>
      </g>
     </g>
     <g id="text_12">
      <!-- 1.7 -->
      <g transform="translate(20.878125 101.651277) scale(0.1 -0.1)">
       <defs>
        <path id="DejaVuSans-37" d="M 525 4666 
L 3525 4666 
L 3525 4397 
L 1831 0 
L 1172 0 
L 2766 4134 
L 525 4134 
L 525 4666 
z
" transform="scale(0.015625)"/>
       </defs>
       <use xlink:href="#DejaVuSans-31"/>
       <use xlink:href="#DejaVuSans-2e" transform="translate(63.623047 0)"/>
       <use xlink:href="#DejaVuSans-37" transform="translate(95.410156 0)"/>
      </g>
     </g>
    </g>
    <g id="ytick_6">
     <g id="line2d_12">
      <g>
       <use xlink:href="#m979f1c02d0" x="43.78125" y="27.773242" style="stroke: #000000; stroke-width: 0.8"/>
      </g>
     </g>
     <g id="text_13">
      <!-- 1.8 -->
      <g transform="translate(20.878125 31.572461) scale(0.1 -0.1)">
       <use xlink:href="#DejaVuSans-31"/>
       <use xlink:href="#DejaVuSans-2e" transform="translate(63.623047 0)"/>
       <use xlink:href="#DejaVuSans-38" transform="translate(95.410156 0)"/>
      </g>
     </g>
    </g>
    <g id="text_14">
     <!-- Train Loss -->
     <g transform="translate(14.798438 228.448125) rotate(-90) scale(0.1 -0.1)">
      <defs>
       <path id="DejaVuSans-54" d="M -19 4666 
L 3928 4666 
L 3928 4134 
L 2272 4134 
L 2272 0 
L 1638 0 
L 1638 4134 
L -19 4134 
L -19 4666 
z
" transform="scale(0.015625)"/>
       <path id="DejaVuSans-72" d="M 2631 2963 
Q 2534 3019 2420 3045 
Q 2306 3072 2169 3072 
Q 1681 3072 1420 2755 
Q 1159 2438 1159 1844 
L 1159 0 
L 581 0 
L 581 3500 
L 1159 3500 
L 1159 2956 
Q 1341 3275 1631 3429 
Q 1922 3584 2338 3584 
Q 2397 3584 2469 3576 
Q 2541 3569 2628 3553 
L 2631 2963 
z
" transform="scale(0.015625)"/>
       <path id="DejaVuSans-61" d="M 2194 1759 
Q 1497 1759 1228 1600 
Q 959 1441 959 1056 
Q 959 750 1161 570 
Q 1363 391 1709 391 
Q 2188 391 2477 730 
Q 2766 1069 2766 1631 
L 2766 1759 
L 2194 1759 
z
M 3341 1997 
L 3341 0 
L 2766 0 
L 2766 531 
Q 2569 213 2275 61 
Q 1981 -91 1556 -91 
Q 1019 -91 701 211 
Q 384 513 384 1019 
Q 384 1609 779 1909 
Q 1175 2209 1959 2209 
L 2766 2209 
L 2766 2266 
Q 2766 2663 2505 2880 
Q 2244 3097 1772 3097 
Q 1472 3097 1187 3025 
Q 903 2953 641 2809 
L 641 3341 
Q 956 3463 1253 3523 
Q 1550 3584 1831 3584 
Q 2591 3584 2966 3190 
Q 3341 2797 3341 1997 
z
" transform="scale(0.015625)"/>
       <path id="DejaVuSans-69" d="M 603 3500 
L 1178 3500 
L 1178 0 
L 603 0 
L 603 3500 
z
M 603 4863 
L 1178 4863 
L 1178 4134 
L 603 4134 
L 603 4863 
z
" transform="scale(0.015625)"/>
       <path id="DejaVuSans-6e" d="M 3513 2113 
L 3513 0 
L 2938 0 
L 2938 2094 
Q 2938 2591 2744 2837 
Q 2550 3084 2163 3084 
Q 1697 3084 1428 2787 
Q 1159 2491 1159 1978 
L 1159 0 
L 581 0 
L 581 3500 
L 1159 3500 
L 1159 2956 
Q 1366 3272 1645 3428 
Q 1925 3584 2291 3584 
Q 2894 3584 3203 3211 
Q 3513 2838 3513 2113 
z
" transform="scale(0.015625)"/>
       <path id="DejaVuSans-20" transform="scale(0.015625)"/>
       <path id="DejaVuSans-4c" d="M 628 4666 
L 1259 4666 
L 1259 531 
L 3531 531 
L 3531 0 
L 628 0 
L 628 4666 
z
" transform="scale(0.015625)"/>
       <path id="DejaVuSans-73" d="M 2834 3397 
L 2834 2853 
Q 2591 2978 2328 3040 
Q 2066 3103 1784 3103 
Q 1356 3103 1142 2972 
Q 928 2841 928 2578 
Q 928 2378 1081 2264 
Q 1234 2150 1697 2047 
L 1894 2003 
Q 2506 1872 2764 1633 
Q 3022 1394 3022 966 
Q 3022 478 2636 193 
Q 2250 -91 1575 -91 
Q 1294 -91 989 -36 
Q 684 19 347 128 
L 347 722 
Q 666 556 975 473 
Q 1284 391 1588 391 
Q 1994 391 2212 530 
Q 2431 669 2431 922 
Q 2431 1156 2273 1281 
Q 2116 1406 1581 1522 
L 1381 1569 
Q 847 1681 609 1914 
Q 372 2147 372 2553 
Q 372 3047 722 3315 
Q 1072 3584 1716 3584 
Q 2034 3584 2315 3537 
Q 2597 3491 2834 3397 
z
" transform="scale(0.015625)"/>
      </defs>
      <use xlink:href="#DejaVuSans-54"/>
      <use xlink:href="#DejaVuSans-72" transform="translate(46.333984 0)"/>
      <use xlink:href="#DejaVuSans-61" transform="translate(87.447266 0)"/>
      <use xlink:href="#DejaVuSans-69" transform="translate(148.726562 0)"/>
      <use xlink:href="#DejaVuSans-6e" transform="translate(176.509766 0)"/>
      <use xlink:href="#DejaVuSans-20" transform="translate(239.888672 0)"/>
      <use xlink:href="#DejaVuSans-4c" transform="translate(271.675781 0)"/>
      <use xlink:href="#DejaVuSans-6f" transform="translate(325.638672 0)"/>
      <use xlink:href="#DejaVuSans-73" transform="translate(386.820312 0)"/>
      <use xlink:href="#DejaVuSans-73" transform="translate(438.919922 0)"/>
     </g>
    </g>
   </g>
   <g id="line2d_13">
    <path d="M 73.844432 222.249269 
L 79.917802 272.78236 
L 85.991172 252.459205 
L 92.064542 303.012206 
L 98.137912 203.559859 
L 104.211282 192.6284 
L 110.284652 283.612405 
L 116.358022 296.302835 
L 122.431392 287.004815 
L 128.504762 283.371239 
L 134.578132 149.01348 
L 140.651503 241.735439 
L 146.724873 209.701081 
L 152.798243 219.577232 
L 158.871613 204.829569 
L 164.944983 171.84002 
L 171.018353 115.832669 
L 177.091723 42.629646 
L 183.165093 47.477253 
L 189.238463 47.891985 
L 195.311833 44.064209 
L 201.385203 50.10074 
L 207.458573 49.177034 
L 213.531943 47.260233 
L 219.605313 45.510628 
L 225.678683 44.541159 
L 231.752053 48.74006 
L 237.825424 51.744237 
L 243.898794 43.987902 
L 249.972164 51.012945 
L 256.045534 45.235067 
L 262.118904 46.092078 
L 268.192274 46.859565 
L 274.265644 49.948647 
L 280.339014 45.801239 
L 286.412384 49.257184 
L 292.485754 49.447061 
L 298.559124 46.63988 
L 304.632494 44.479191 
L 310.705864 45.850148 
L 316.779234 47.89686 
L 322.852604 48.696733 
L 328.925975 46.892324 
L 334.999345 59.71505 
L 341.072715 42.276273 
L 347.146085 45.818467 
L 353.219455 43.20159 
L 359.292825 44.44416 
L 365.366195 43.750289 
L 371.439565 44.251016 
L 377.512935 44.347788 
L 383.586305 48.975448 
L 389.659675 47.060446 
L 395.733045 43.204746 
L 401.806415 42.837746 
L 407.879785 48.700317 
L 413.953155 44.643434 
L 420.026525 46.673236 
L 426.099896 47.000715 
L 432.173266 47.548069 
L 438.246636 43.408251 
L 444.320006 47.450866 
L 450.393376 45.44476 
L 456.466746 43.190177 
L 462.540116 45.108307 
L 468.613486 43.191763 
L 474.686856 45.938147 
L 480.760226 45.287664 
L 486.833596 42.188528 
L 492.906966 44.126426 
L 498.980336 47.182838 
L 505.053706 45.022981 
L 511.127076 38.825398 
L 517.200447 46.524412 
L 523.273817 47.603366 
L 529.347187 49.357315 
L 535.420557 44.833492 
L 541.493927 47.35237 
L 547.567297 45.574778 
L 553.640667 49.991632 
L 559.714037 45.723231 
L 565.787407 43.811651 
L 571.860777 42.914928 
L 577.934147 41.457495 
L 584.007517 44.948642 
L 590.080887 49.491692 
L 596.154257 42.220706 
L 602.227627 43.408765 
L 608.300997 43.58406 
L 614.374368 45.499136 
L 620.447738 46.047151 
L 626.521108 47.994866 
L 632.594478 49.038999 
L 638.667848 46.526976 
L 644.741218 48.633514 
L 650.814588 45.291444 
L 656.887958 45.529858 
L 662.961328 46.01323 
L 669.034698 51.34943 
L 675.108068 46.837547 
" clip-path="url(#p951c7ab305)" style="fill: none; stroke: #1f77b4; stroke-width: 1.5; stroke-linecap: square"/>
   </g>
   <g id="line2d_14">
    <path d="M 73.844432 201.142974 
L 79.917802 316.655114 
L 85.991172 284.658746 
L 92.064542 260.238204 
L 98.137912 253.528791 
L 104.211282 240.662574 
L 110.284652 368.970852 
L 116.358022 309.43048 
L 122.431392 329.350214 
L 128.504762 307.126016 
L 134.578132 294.231637 
L 140.651503 270.071164 
L 146.724873 289.457668 
L 152.798243 283.238437 
L 158.871613 323.975961 
L 164.944983 338.007234 
L 171.018353 300.27946 
L 177.091723 285.402082 
L 183.165093 271.701022 
L 189.238463 226.618394 
L 195.311833 234.977554 
L 201.385203 209.058145 
L 207.458573 199.16409 
L 213.531943 161.77704 
L 219.605313 163.680312 
L 225.678683 164.832827 
L 231.752053 166.190552 
L 237.825424 162.148113 
L 243.898794 185.086894 
L 249.972164 186.791011 
L 256.045534 154.032297 
L 262.118904 219.866238 
L 268.192274 228.987681 
L 274.265644 206.321471 
L 280.339014 130.380034 
L 286.412384 161.692037 
L 292.485754 93.148468 
L 298.559124 82.489515 
L 304.632494 121.863579 
L 310.705864 72.051446 
L 316.779234 87.980504 
L 322.852604 79.183301 
L 328.925975 59.235907 
L 334.999345 58.16974 
L 341.072715 59.203279 
L 347.146085 54.61736 
L 353.219455 58.934545 
L 359.292825 58.985475 
L 365.366195 57.454216 
L 371.439565 55.631723 
L 377.512935 56.750076 
L 383.586305 57.543815 
L 389.659675 57.852999 
L 395.733045 58.054292 
L 401.806415 59.865468 
L 407.879785 56.859227 
L 413.953155 55.533312 
L 420.026525 57.070708 
L 426.099896 176.878523 
L 432.173266 207.669912 
L 438.246636 211.552731 
L 444.320006 210.356514 
L 450.393376 225.217104 
L 456.466746 225.432464 
L 462.540116 219.69825 
L 468.613486 215.738205 
L 474.686856 215.055822 
L 480.760226 230.520678 
L 486.833596 60.303486 
L 492.906966 55.499441 
L 498.980336 53.404683 
L 505.053706 58.574422 
L 511.127076 57.443845 
L 517.200447 58.15945 
L 523.273817 56.238341 
L 529.347187 55.431271 
L 535.420557 57.025725 
L 541.493927 54.50245 
L 547.567297 57.747674 
L 553.640667 57.490762 
L 559.714037 56.454738 
L 565.787407 57.960535 
L 571.860777 60.136287 
L 577.934147 56.165149 
L 584.007517 56.954562 
L 590.080887 56.823903 
L 596.154257 64.445231 
L 602.227627 223.719873 
L 608.300997 217.695545 
L 614.374368 181.331813 
L 620.447738 161.497124 
L 626.521108 74.821679 
L 632.594478 163.927568 
L 638.667848 230.590462 
L 644.741218 70.076421 
L 650.814588 57.537656 
L 656.887958 57.117796 
L 662.961328 57.995768 
L 669.034698 57.763304 
L 675.108068 57.3988 
" clip-path="url(#p951c7ab305)" style="fill: none; stroke: #ff7f0e; stroke-width: 1.5; stroke-linecap: square"/>
   </g>
   <g id="line2d_15">
    <path d="M 73.844432 205.430886 
L 79.917802 130.820942 
L 85.991172 161.951141 
L 92.064542 252.67567 
L 98.137912 238.201752 
L 104.211282 102.601055 
L 110.284652 170.819719 
L 116.358022 176.825093 
L 122.431392 170.371861 
L 128.504762 185.54196 
L 134.578132 205.987571 
L 140.651503 161.211503 
L 146.724873 233.52921 
L 152.798243 214.55998 
L 158.871613 216.741485 
L 164.944983 184.655971 
L 171.018353 224.13511 
L 177.091723 158.109856 
L 183.165093 175.088477 
L 189.238463 165.845492 
L 195.311833 91.236771 
L 201.385203 88.211887 
L 207.458573 192.9094 
L 213.531943 204.840439 
L 219.605313 215.191773 
L 225.678683 228.154952 
L 231.752053 235.565276 
L 237.825424 261.291871 
L 243.898794 261.976682 
L 249.972164 278.601633 
L 256.045534 302.639195 
L 262.118904 277.126311 
L 268.192274 251.467532 
L 274.265644 235.948176 
L 280.339014 266.436405 
L 286.412384 219.308514 
L 292.485754 248.383377 
L 298.559124 264.381505 
L 304.632494 267.20301 
L 310.705864 242.799906 
L 316.779234 237.378303 
L 322.852604 253.373293 
L 328.925975 241.198359 
L 334.999345 234.254085 
L 341.072715 244.36281 
L 347.146085 241.936613 
L 353.219455 251.818473 
L 359.292825 239.236304 
L 365.366195 241.380229 
L 371.439565 265.969938 
L 377.512935 258.379994 
L 383.586305 231.265999 
L 389.659675 230.466473 
L 395.733045 250.215906 
L 401.806415 259.015294 
L 407.879785 257.51424 
L 413.953155 246.690053 
L 420.026525 249.664965 
L 426.099896 258.382435 
L 432.173266 259.537801 
L 438.246636 260.783701 
L 444.320006 212.689659 
L 450.393376 134.647347 
L 456.466746 242.605021 
L 462.540116 249.44867 
L 468.613486 233.628436 
L 474.686856 262.773338 
L 480.760226 267.110774 
L 486.833596 282.601189 
L 492.906966 292.047892 
L 498.980336 285.120215 
L 505.053706 256.849277 
L 511.127076 206.638279 
L 517.200447 227.284348 
L 523.273817 258.813595 
L 529.347187 267.384758 
L 535.420557 272.970003 
L 541.493927 264.684768 
L 547.567297 262.303999 
L 553.640667 269.786063 
L 559.714037 290.331755 
L 565.787407 301.865116 
L 571.860777 289.972473 
L 577.934147 327.251605 
L 584.007517 325.10723 
L 590.080887 252.258545 
L 596.154257 269.687805 
L 602.227627 298.046738 
L 608.300997 311.235897 
L 614.374368 301.051232 
L 620.447738 311.852995 
L 626.521108 341.734277 
L 632.594478 283.052242 
L 638.667848 325.886529 
L 644.741218 260.708653 
L 650.814588 255.129861 
L 656.887958 243.645988 
L 662.961328 245.958392 
L 669.034698 241.172112 
L 675.108068 242.307985 
" clip-path="url(#p951c7ab305)" style="fill: none; stroke: #2ca02c; stroke-width: 1.5; stroke-linecap: square"/>
   </g>
   <g id="line2d_16">
    <path d="M 73.844432 84.376563 
L 79.917802 60.297573 
L 85.991172 56.687084 
L 92.064542 56.235133 
L 98.137912 53.275879 
L 104.211282 58.377874 
L 110.284652 57.332917 
L 116.358022 58.420712 
L 122.431392 57.074622 
L 128.504762 54.610955 
L 134.578132 56.336581 
L 140.651503 59.189592 
L 146.724873 58.548266 
L 152.798243 55.847172 
L 158.871613 56.937359 
L 164.944983 56.753787 
L 171.018353 55.63086 
L 177.091723 55.270672 
L 183.165093 56.752063 
L 189.238463 55.84381 
L 195.311833 57.573936 
L 201.385203 56.070376 
L 207.458573 57.593372 
L 213.531943 56.744607 
L 219.605313 56.596298 
L 225.678683 56.303932 
L 231.752053 54.365551 
L 237.825424 59.07767 
L 243.898794 57.508552 
L 249.972164 57.06233 
L 256.045534 56.70679 
L 262.118904 57.199405 
L 268.192274 58.356432 
L 274.265644 58.349372 
L 280.339014 57.876263 
L 286.412384 56.741512 
L 292.485754 57.128877 
L 298.559124 55.311393 
L 304.632494 55.486088 
L 310.705864 56.09223 
L 316.779234 58.31752 
L 322.852604 56.436391 
L 328.925975 57.625317 
L 334.999345 57.407576 
L 341.072715 57.74233 
L 347.146085 57.756195 
L 353.219455 57.53364 
L 359.292825 58.349023 
L 365.366195 58.591804 
L 371.439565 55.487372 
L 377.512935 58.294667 
L 383.586305 55.761608 
L 389.659675 57.47502 
L 395.733045 54.57822 
L 401.806415 57.447038 
L 407.879785 56.630655 
L 413.953155 58.21016 
L 420.026525 57.662866 
L 426.099896 56.97637 
L 432.173266 57.218057 
L 438.246636 57.285255 
L 444.320006 58.496799 
L 450.393376 56.229318 
L 456.466746 58.081861 
L 462.540116 55.70312 
L 468.613486 59.850887 
L 474.686856 54.571361 
L 480.760226 55.680301 
L 486.833596 57.477596 
L 492.906966 56.11738 
L 498.980336 57.50075 
L 505.053706 56.000157 
L 511.127076 56.803714 
L 517.200447 56.998688 
L 523.273817 56.477438 
L 529.347187 56.438619 
L 535.420557 59.119424 
L 541.493927 55.365479 
L 547.567297 57.164102 
L 553.640667 58.49438 
L 559.714037 58.946505 
L 565.787407 57.743454 
L 571.860777 58.127487 
L 577.934147 56.261004 
L 584.007517 56.473215 
L 590.080887 56.966608 
L 596.154257 57.465483 
L 602.227627 55.965796 
L 608.300997 59.166042 
L 614.374368 56.887901 
L 620.447738 57.690864 
L 626.521108 52.837346 
L 632.594478 58.246612 
L 638.667848 58.743153 
L 644.741218 60.567751 
L 650.814588 56.627446 
L 656.887958 57.0696 
L 662.961328 57.820427 
L 669.034698 57.957197 
L 675.108068 55.004018 
" clip-path="url(#p951c7ab305)" style="fill: none; stroke: #d62728; stroke-width: 1.5; stroke-linecap: square"/>
   </g>
   <g id="line2d_17">
    <path d="M 73.844432 58.26339 
L 79.917802 53.445504 
L 85.991172 56.190958 
L 92.064542 54.181625 
L 98.137912 57.904119 
L 104.211282 57.815555 
L 110.284652 57.444854 
L 116.358022 59.129878 
L 122.431392 58.674787 
L 128.504762 59.190658 
L 134.578132 58.255694 
L 140.651503 57.431856 
L 146.724873 56.236726 
L 152.798243 58.224715 
L 158.871613 58.356731 
L 164.944983 56.160067 
L 171.018353 57.528048 
L 177.091723 58.283575 
L 183.165093 58.095831 
L 189.238463 54.694605 
L 195.311833 54.842309 
L 201.385203 57.577235 
L 207.458573 57.164456 
L 213.531943 56.632614 
L 219.605313 57.867791 
L 225.678683 55.84402 
L 231.752053 58.78447 
L 237.825424 58.55025 
L 243.898794 57.045352 
L 249.972164 56.702277 
L 256.045534 58.510012 
L 262.118904 56.927855 
L 268.192274 56.754525 
L 274.265644 54.826846 
L 280.339014 57.442814 
L 286.412384 55.483823 
L 292.485754 58.087299 
L 298.559124 56.332182 
L 304.632494 58.591873 
L 310.705864 57.711449 
L 316.779234 56.61226 
L 322.852604 56.871143 
L 328.925975 58.696414 
L 334.999345 58.531578 
L 341.072715 55.775718 
L 347.146085 57.620395 
L 353.219455 56.782868 
L 359.292825 58.624472 
L 365.366195 57.491622 
L 371.439565 59.285942 
L 377.512935 54.528567 
L 383.586305 55.247947 
L 389.659675 57.225745 
L 395.733045 58.897233 
L 401.806415 60.33716 
L 407.879785 57.279567 
L 413.953155 58.839884 
L 420.026525 56.799273 
L 426.099896 58.408819 
L 432.173266 57.810232 
L 438.246636 58.941089 
L 444.320006 54.9805 
L 450.393376 56.834159 
L 456.466746 56.201929 
L 462.540116 57.887793 
L 468.613486 58.761989 
L 474.686856 59.460002 
L 480.760226 59.303765 
L 486.833596 59.491224 
L 492.906966 57.750426 
L 498.980336 57.726419 
L 505.053706 54.183397 
L 511.127076 57.933065 
L 517.200447 58.889608 
L 523.273817 57.734728 
L 529.347187 57.735182 
L 535.420557 57.367856 
L 541.493927 56.374222 
L 547.567297 57.816848 
L 553.640667 59.867859 
L 559.714037 57.85101 
L 565.787407 54.432163 
L 571.860777 57.31 
L 577.934147 54.143925 
L 584.007517 57.391948 
L 590.080887 57.863829 
L 596.154257 58.25952 
L 602.227627 58.983702 
L 608.300997 55.704095 
L 614.374368 55.641072 
L 620.447738 57.373098 
L 626.521108 56.286834 
L 632.594478 56.738696 
L 638.667848 61.701281 
L 644.741218 55.99764 
L 650.814588 58.443694 
L 656.887958 56.191473 
L 662.961328 56.341532 
L 669.034698 58.976499 
L 675.108068 57.459252 
" clip-path="url(#p951c7ab305)" style="fill: none; stroke: #9467bd; stroke-width: 1.5; stroke-linecap: square"/>
   </g>
   <g id="patch_3">
    <path d="M 43.78125 385.478125 
L 43.78125 22.318125 
" style="fill: none; stroke: #000000; stroke-width: 0.8; stroke-linejoin: miter; stroke-linecap: square"/>
   </g>
   <g id="patch_4">
    <path d="M 705.17125 385.478125 
L 705.17125 22.318125 
" style="fill: none; stroke: #000000; stroke-width: 0.8; stroke-linejoin: miter; stroke-linecap: square"/>
   </g>
   <g id="patch_5">
    <path d="M 43.78125 385.478125 
L 705.17125 385.478125 
" style="fill: none; stroke: #000000; stroke-width: 0.8; stroke-linejoin: miter; stroke-linecap: square"/>
   </g>
   <g id="patch_6">
    <path d="M 43.78125 22.318125 
L 705.17125 22.318125 
" style="fill: none; stroke: #000000; stroke-width: 0.8; stroke-linejoin: miter; stroke-linecap: square"/>
   </g>
   <g id="text_15">
    <!-- Combined Train Loss -->
    <g transform="translate(312.624688 16.318125) scale(0.12 -0.12)">
     <defs>
      <path id="DejaVuSans-43" d="M 4122 4306 
L 4122 3641 
Q 3803 3938 3442 4084 
Q 3081 4231 2675 4231 
Q 1875 4231 1450 3742 
Q 1025 3253 1025 2328 
Q 1025 1406 1450 917 
Q 1875 428 2675 428 
Q 3081 428 3442 575 
Q 3803 722 4122 1019 
L 4122 359 
Q 3791 134 3420 21 
Q 3050 -91 2638 -91 
Q 1578 -91 968 557 
Q 359 1206 359 2328 
Q 359 3453 968 4101 
Q 1578 4750 2638 4750 
Q 3056 4750 3426 4639 
Q 3797 4528 4122 4306 
z
" transform="scale(0.015625)"/>
      <path id="DejaVuSans-6d" d="M 3328 2828 
Q 3544 3216 3844 3400 
Q 4144 3584 4550 3584 
Q 5097 3584 5394 3201 
Q 5691 2819 5691 2113 
L 5691 0 
L 5113 0 
L 5113 2094 
Q 5113 2597 4934 2840 
Q 4756 3084 4391 3084 
Q 3944 3084 3684 2787 
Q 3425 2491 3425 1978 
L 3425 0 
L 2847 0 
L 2847 2094 
Q 2847 2600 2669 2842 
Q 2491 3084 2119 3084 
Q 1678 3084 1418 2786 
Q 1159 2488 1159 1978 
L 1159 0 
L 581 0 
L 581 3500 
L 1159 3500 
L 1159 2956 
Q 1356 3278 1631 3431 
Q 1906 3584 2284 3584 
Q 2666 3584 2933 3390 
Q 3200 3197 3328 2828 
z
" transform="scale(0.015625)"/>
      <path id="DejaVuSans-62" d="M 3116 1747 
Q 3116 2381 2855 2742 
Q 2594 3103 2138 3103 
Q 1681 3103 1420 2742 
Q 1159 2381 1159 1747 
Q 1159 1113 1420 752 
Q 1681 391 2138 391 
Q 2594 391 2855 752 
Q 3116 1113 3116 1747 
z
M 1159 2969 
Q 1341 3281 1617 3432 
Q 1894 3584 2278 3584 
Q 2916 3584 3314 3078 
Q 3713 2572 3713 1747 
Q 3713 922 3314 415 
Q 2916 -91 2278 -91 
Q 1894 -91 1617 61 
Q 1341 213 1159 525 
L 1159 0 
L 581 0 
L 581 4863 
L 1159 4863 
L 1159 2969 
z
" transform="scale(0.015625)"/>
      <path id="DejaVuSans-65" d="M 3597 1894 
L 3597 1613 
L 953 1613 
Q 991 1019 1311 708 
Q 1631 397 2203 397 
Q 2534 397 2845 478 
Q 3156 559 3463 722 
L 3463 178 
Q 3153 47 2828 -22 
Q 2503 -91 2169 -91 
Q 1331 -91 842 396 
Q 353 884 353 1716 
Q 353 2575 817 3079 
Q 1281 3584 2069 3584 
Q 2775 3584 3186 3129 
Q 3597 2675 3597 1894 
z
M 3022 2063 
Q 3016 2534 2758 2815 
Q 2500 3097 2075 3097 
Q 1594 3097 1305 2825 
Q 1016 2553 972 2059 
L 3022 2063 
z
" transform="scale(0.015625)"/>
      <path id="DejaVuSans-64" d="M 2906 2969 
L 2906 4863 
L 3481 4863 
L 3481 0 
L 2906 0 
L 2906 525 
Q 2725 213 2448 61 
Q 2172 -91 1784 -91 
Q 1150 -91 751 415 
Q 353 922 353 1747 
Q 353 2572 751 3078 
Q 1150 3584 1784 3584 
Q 2172 3584 2448 3432 
Q 2725 3281 2906 2969 
z
M 947 1747 
Q 947 1113 1208 752 
Q 1469 391 1925 391 
Q 2381 391 2643 752 
Q 2906 1113 2906 1747 
Q 2906 2381 2643 2742 
Q 2381 3103 1925 3103 
Q 1469 3103 1208 2742 
Q 947 2381 947 1747 
z
" transform="scale(0.015625)"/>
     </defs>
     <use xlink:href="#DejaVuSans-43"/>
     <use xlink:href="#DejaVuSans-6f" transform="translate(69.824219 0)"/>
     <use xlink:href="#DejaVuSans-6d" transform="translate(131.005859 0)"/>
     <use xlink:href="#DejaVuSans-62" transform="translate(228.417969 0)"/>
     <use xlink:href="#DejaVuSans-69" transform="translate(291.894531 0)"/>
     <use xlink:href="#DejaVuSans-6e" transform="translate(319.677734 0)"/>
     <use xlink:href="#DejaVuSans-65" transform="translate(383.056641 0)"/>
     <use xlink:href="#DejaVuSans-64" transform="translate(444.580078 0)"/>
     <use xlink:href="#DejaVuSans-20" transform="translate(508.056641 0)"/>
     <use xlink:href="#DejaVuSans-54" transform="translate(539.84375 0)"/>
     <use xlink:href="#DejaVuSans-72" transform="translate(586.177734 0)"/>
     <use xlink:href="#DejaVuSans-61" transform="translate(627.291016 0)"/>
     <use xlink:href="#DejaVuSans-69" transform="translate(688.570312 0)"/>
     <use xlink:href="#DejaVuSans-6e" transform="translate(716.353516 0)"/>
     <use xlink:href="#DejaVuSans-20" transform="translate(779.732422 0)"/>
     <use xlink:href="#DejaVuSans-4c" transform="translate(811.519531 0)"/>
     <use xlink:href="#DejaVuSans-6f" transform="translate(865.482422 0)"/>
     <use xlink:href="#DejaVuSans-73" transform="translate(926.664062 0)"/>
     <use xlink:href="#DejaVuSans-73" transform="translate(978.763672 0)"/>
    </g>
   </g>
   <g id="legend_1">
    <g id="patch_7">
     <path d="M 343.38875 380.478125 
L 405.56375 380.478125 
Q 407.56375 380.478125 407.56375 378.478125 
L 407.56375 306.0875 
Q 407.56375 304.0875 405.56375 304.0875 
L 343.38875 304.0875 
Q 341.38875 304.0875 341.38875 306.0875 
L 341.38875 378.478125 
Q 341.38875 380.478125 343.38875 380.478125 
z
" style="fill: #ffffff; opacity: 0.8; stroke: #cccccc; stroke-linejoin: miter"/>
    </g>
    <g id="line2d_18">
     <path d="M 345.38875 312.185937 
L 355.38875 312.185937 
L 365.38875 312.185937 
" style="fill: none; stroke: #1f77b4; stroke-width: 1.5; stroke-linecap: square"/>
    </g>
    <g id="text_16">
     <!-- Fold 1 -->
     <g transform="translate(373.38875 315.685937) scale(0.1 -0.1)">
      <defs>
       <path id="DejaVuSans-46" d="M 628 4666 
L 3309 4666 
L 3309 4134 
L 1259 4134 
L 1259 2759 
L 3109 2759 
L 3109 2228 
L 1259 2228 
L 1259 0 
L 628 0 
L 628 4666 
z
" transform="scale(0.015625)"/>
       <path id="DejaVuSans-6c" d="M 603 4863 
L 1178 4863 
L 1178 0 
L 603 0 
L 603 4863 
z
" transform="scale(0.015625)"/>
      </defs>
      <use xlink:href="#DejaVuSans-46"/>
      <use xlink:href="#DejaVuSans-6f" transform="translate(53.894531 0)"/>
      <use xlink:href="#DejaVuSans-6c" transform="translate(115.076172 0)"/>
      <use xlink:href="#DejaVuSans-64" transform="translate(142.859375 0)"/>
      <use xlink:href="#DejaVuSans-20" transform="translate(206.335938 0)"/>
      <use xlink:href="#DejaVuSans-31" transform="translate(238.123047 0)"/>
     </g>
    </g>
    <g id="line2d_19">
     <path d="M 345.38875 326.864062 
L 355.38875 326.864062 
L 365.38875 326.864062 
" style="fill: none; stroke: #ff7f0e; stroke-width: 1.5; stroke-linecap: square"/>
    </g>
    <g id="text_17">
     <!-- Fold 2 -->
     <g transform="translate(373.38875 330.364062) scale(0.1 -0.1)">
      <use xlink:href="#DejaVuSans-46"/>
      <use xlink:href="#DejaVuSans-6f" transform="translate(53.894531 0)"/>
      <use xlink:href="#DejaVuSans-6c" transform="translate(115.076172 0)"/>
      <use xlink:href="#DejaVuSans-64" transform="translate(142.859375 0)"/>
      <use xlink:href="#DejaVuSans-20" transform="translate(206.335938 0)"/>
      <use xlink:href="#DejaVuSans-32" transform="translate(238.123047 0)"/>
     </g>
    </g>
    <g id="line2d_20">
     <path d="M 345.38875 341.542187 
L 355.38875 341.542187 
L 365.38875 341.542187 
" style="fill: none; stroke: #2ca02c; stroke-width: 1.5; stroke-linecap: square"/>
    </g>
    <g id="text_18">
     <!-- Fold 3 -->
     <g transform="translate(373.38875 345.042187) scale(0.1 -0.1)">
      <use xlink:href="#DejaVuSans-46"/>
      <use xlink:href="#DejaVuSans-6f" transform="translate(53.894531 0)"/>
      <use xlink:href="#DejaVuSans-6c" transform="translate(115.076172 0)"/>
      <use xlink:href="#DejaVuSans-64" transform="translate(142.859375 0)"/>
      <use xlink:href="#DejaVuSans-20" transform="translate(206.335938 0)"/>
      <use xlink:href="#DejaVuSans-33" transform="translate(238.123047 0)"/>
     </g>
    </g>
    <g id="line2d_21">
     <path d="M 345.38875 356.220312 
L 355.38875 356.220312 
L 365.38875 356.220312 
" style="fill: none; stroke: #d62728; stroke-width: 1.5; stroke-linecap: square"/>
    </g>
    <g id="text_19">
     <!-- Fold 4 -->
     <g transform="translate(373.38875 359.720312) scale(0.1 -0.1)">
      <use xlink:href="#DejaVuSans-46"/>
      <use xlink:href="#DejaVuSans-6f" transform="translate(53.894531 0)"/>
      <use xlink:href="#DejaVuSans-6c" transform="translate(115.076172 0)"/>
      <use xlink:href="#DejaVuSans-64" transform="translate(142.859375 0)"/>
      <use xlink:href="#DejaVuSans-20" transform="translate(206.335938 0)"/>
      <use xlink:href="#DejaVuSans-34" transform="translate(238.123047 0)"/>
     </g>
    </g>
    <g id="line2d_22">
     <path d="M 345.38875 370.898437 
L 355.38875 370.898437 
L 365.38875 370.898437 
" style="fill: none; stroke: #9467bd; stroke-width: 1.5; stroke-linecap: square"/>
    </g>
    <g id="text_20">
     <!-- Fold 5 -->
     <g transform="translate(373.38875 374.398437) scale(0.1 -0.1)">
      <use xlink:href="#DejaVuSans-46"/>
      <use xlink:href="#DejaVuSans-6f" transform="translate(53.894531 0)"/>
      <use xlink:href="#DejaVuSans-6c" transform="translate(115.076172 0)"/>
      <use xlink:href="#DejaVuSans-64" transform="translate(142.859375 0)"/>
      <use xlink:href="#DejaVuSans-20" transform="translate(206.335938 0)"/>
      <use xlink:href="#DejaVuSans-35" transform="translate(238.123047 0)"/>
     </g>
    </g>
   </g>
  </g>
 </g>
 <defs>
  <clipPath id="p951c7ab305">
   <rect x="43.78125" y="22.318125" width="661.39" height="363.16"/>
  </clipPath>
 </defs>
</svg>
