<?xml version="1.0" encoding="utf-8" standalone="no"?>
<!DOCTYPE svg PUBLIC "-//W3C//DTD SVG 1.1//EN"
  "http://www.w3.org/Graphics/SVG/1.1/DTD/svg11.dtd">
<svg xmlns:xlink="http://www.w3.org/1999/xlink" width="712.61375pt" height="423.034375pt" viewBox="0 0 712.61375 423.034375" xmlns="http://www.w3.org/2000/svg" version="1.1">
 <metadata>
  <rdf:RDF xmlns:dc="http://purl.org/dc/elements/1.1/" xmlns:cc="http://creativecommons.org/ns#" xmlns:rdf="http://www.w3.org/1999/02/22-rdf-syntax-ns#">
   <cc:Work>
    <dc:type rdf:resource="http://purl.org/dc/dcmitype/StillImage"/>
    <dc:date>2025-06-26T05:01:01.044497</dc:date>
    <dc:format>image/svg+xml</dc:format>
    <dc:creator>
     <cc:Agent>
      <dc:title>Matplotlib v3.10.0, https://matplotlib.org/</dc:title>
     </cc:Agent>
    </dc:creator>
   </cc:Work>
  </rdf:RDF>
 </metadata>
 <defs>
  <style type="text/css">*{stroke-linejoin: round; stroke-linecap: butt}</style>
 </defs>
 <g id="figure_1">
  <g id="patch_1">
   <path d="M 0 423.034375 
L 712.61375 423.034375 
L 712.61375 0 
L 0 0 
z
" style="fill: #ffffff"/>
  </g>
  <g id="axes_1">
   <g id="patch_2">
    <path d="M 50.14375 385.478125 
L 705.41375 385.478125 
L 705.41375 22.318125 
L 50.14375 22.318125 
z
" style="fill: #ffffff"/>
   </g>
   <g id="matplotlib.axis_1">
    <g id="xtick_1">
     <g id="line2d_1">
      <defs>
       <path id="m400d8f0a4e" d="M 0 0 
L 0 3.5 
" style="stroke: #000000; stroke-width: 0.8"/>
      </defs>
      <g>
       <use xlink:href="#m400d8f0a4e" x="73.911578" y="385.478125" style="stroke: #000000; stroke-width: 0.8"/>
      </g>
     </g>
     <g id="text_1">
      <!-- 0 -->
      <g transform="translate(70.730328 400.076562) scale(0.1 -0.1)">
       <defs>
        <path id="DejaVuSans-30" d="M 2034 4250 
Q 1547 4250 1301 3770 
Q 1056 3291 1056 2328 
Q 1056 1369 1301 889 
Q 1547 409 2034 409 
Q 2525 409 2770 889 
Q 3016 1369 3016 2328 
Q 3016 3291 2770 3770 
Q 2525 4250 2034 4250 
z
M 2034 4750 
Q 2819 4750 3233 4129 
Q 3647 3509 3647 2328 
Q 3647 1150 3233 529 
Q 2819 -91 2034 -91 
Q 1250 -91 836 529 
Q 422 1150 422 2328 
Q 422 3509 836 4129 
Q 1250 4750 2034 4750 
z
" transform="scale(0.015625)"/>
       </defs>
       <use xlink:href="#DejaVuSans-30"/>
      </g>
     </g>
    </g>
    <g id="xtick_2">
     <g id="line2d_2">
      <g>
       <use xlink:href="#m400d8f0a4e" x="194.255013" y="385.478125" style="stroke: #000000; stroke-width: 0.8"/>
      </g>
     </g>
     <g id="text_2">
      <!-- 20 -->
      <g transform="translate(187.892513 400.076562) scale(0.1 -0.1)">
       <defs>
        <path id="DejaVuSans-32" d="M 1228 531 
L 3431 531 
L 3431 0 
L 469 0 
L 469 531 
Q 828 903 1448 1529 
Q 2069 2156 2228 2338 
Q 2531 2678 2651 2914 
Q 2772 3150 2772 3378 
Q 2772 3750 2511 3984 
Q 2250 4219 1831 4219 
Q 1534 4219 1204 4116 
Q 875 4013 500 3803 
L 500 4441 
Q 881 4594 1212 4672 
Q 1544 4750 1819 4750 
Q 2544 4750 2975 4387 
Q 3406 4025 3406 3419 
Q 3406 3131 3298 2873 
Q 3191 2616 2906 2266 
Q 2828 2175 2409 1742 
Q 1991 1309 1228 531 
z
" transform="scale(0.015625)"/>
       </defs>
       <use xlink:href="#DejaVuSans-32"/>
       <use xlink:href="#DejaVuSans-30" transform="translate(63.623047 0)"/>
      </g>
     </g>
    </g>
    <g id="xtick_3">
     <g id="line2d_3">
      <g>
       <use xlink:href="#m400d8f0a4e" x="314.598447" y="385.478125" style="stroke: #000000; stroke-width: 0.8"/>
      </g>
     </g>
     <g id="text_3">
      <!-- 40 -->
      <g transform="translate(308.235947 400.076562) scale(0.1 -0.1)">
       <defs>
        <path id="DejaVuSans-34" d="M 2419 4116 
L 825 1625 
L 2419 1625 
L 2419 4116 
z
M 2253 4666 
L 3047 4666 
L 3047 1625 
L 3713 1625 
L 3713 1100 
L 3047 1100 
L 3047 0 
L 2419 0 
L 2419 1100 
L 313 1100 
L 313 1709 
L 2253 4666 
z
" transform="scale(0.015625)"/>
       </defs>
       <use xlink:href="#DejaVuSans-34"/>
       <use xlink:href="#DejaVuSans-30" transform="translate(63.623047 0)"/>
      </g>
     </g>
    </g>
    <g id="xtick_4">
     <g id="line2d_4">
      <g>
       <use xlink:href="#m400d8f0a4e" x="434.941881" y="385.478125" style="stroke: #000000; stroke-width: 0.8"/>
      </g>
     </g>
     <g id="text_4">
      <!-- 60 -->
      <g transform="translate(428.579381 400.076562) scale(0.1 -0.1)">
       <defs>
        <path id="DejaVuSans-36" d="M 2113 2584 
Q 1688 2584 1439 2293 
Q 1191 2003 1191 1497 
Q 1191 994 1439 701 
Q 1688 409 2113 409 
Q 2538 409 2786 701 
Q 3034 994 3034 1497 
Q 3034 2003 2786 2293 
Q 2538 2584 2113 2584 
z
M 3366 4563 
L 3366 3988 
Q 3128 4100 2886 4159 
Q 2644 4219 2406 4219 
Q 1781 4219 1451 3797 
Q 1122 3375 1075 2522 
Q 1259 2794 1537 2939 
Q 1816 3084 2150 3084 
Q 2853 3084 3261 2657 
Q 3669 2231 3669 1497 
Q 3669 778 3244 343 
Q 2819 -91 2113 -91 
Q 1303 -91 875 529 
Q 447 1150 447 2328 
Q 447 3434 972 4092 
Q 1497 4750 2381 4750 
Q 2619 4750 2861 4703 
Q 3103 4656 3366 4563 
z
" transform="scale(0.015625)"/>
       </defs>
       <use xlink:href="#DejaVuSans-36"/>
       <use xlink:href="#DejaVuSans-30" transform="translate(63.623047 0)"/>
      </g>
     </g>
    </g>
    <g id="xtick_5">
     <g id="line2d_5">
      <g>
       <use xlink:href="#m400d8f0a4e" x="555.285316" y="385.478125" style="stroke: #000000; stroke-width: 0.8"/>
      </g>
     </g>
     <g id="text_5">
      <!-- 80 -->
      <g transform="translate(548.922816 400.076562) scale(0.1 -0.1)">
       <defs>
        <path id="DejaVuSans-38" d="M 2034 2216 
Q 1584 2216 1326 1975 
Q 1069 1734 1069 1313 
Q 1069 891 1326 650 
Q 1584 409 2034 409 
Q 2484 409 2743 651 
Q 3003 894 3003 1313 
Q 3003 1734 2745 1975 
Q 2488 2216 2034 2216 
z
M 1403 2484 
Q 997 2584 770 2862 
Q 544 3141 544 3541 
Q 544 4100 942 4425 
Q 1341 4750 2034 4750 
Q 2731 4750 3128 4425 
Q 3525 4100 3525 3541 
Q 3525 3141 3298 2862 
Q 3072 2584 2669 2484 
Q 3125 2378 3379 2068 
Q 3634 1759 3634 1313 
Q 3634 634 3220 271 
Q 2806 -91 2034 -91 
Q 1263 -91 848 271 
Q 434 634 434 1313 
Q 434 1759 690 2068 
Q 947 2378 1403 2484 
z
M 1172 3481 
Q 1172 3119 1398 2916 
Q 1625 2713 2034 2713 
Q 2441 2713 2670 2916 
Q 2900 3119 2900 3481 
Q 2900 3844 2670 4047 
Q 2441 4250 2034 4250 
Q 1625 4250 1398 4047 
Q 1172 3844 1172 3481 
z
" transform="scale(0.015625)"/>
       </defs>
       <use xlink:href="#DejaVuSans-38"/>
       <use xlink:href="#DejaVuSans-30" transform="translate(63.623047 0)"/>
      </g>
     </g>
    </g>
    <g id="xtick_6">
     <g id="line2d_6">
      <g>
       <use xlink:href="#m400d8f0a4e" x="675.62875" y="385.478125" style="stroke: #000000; stroke-width: 0.8"/>
      </g>
     </g>
     <g id="text_6">
      <!-- 100 -->
      <g transform="translate(666.085 400.076562) scale(0.1 -0.1)">
       <defs>
        <path id="DejaVuSans-31" d="M 794 531 
L 1825 531 
L 1825 4091 
L 703 3866 
L 703 4441 
L 1819 4666 
L 2450 4666 
L 2450 531 
L 3481 531 
L 3481 0 
L 794 0 
L 794 531 
z
" transform="scale(0.015625)"/>
       </defs>
       <use xlink:href="#DejaVuSans-31"/>
       <use xlink:href="#DejaVuSans-30" transform="translate(63.623047 0)"/>
       <use xlink:href="#DejaVuSans-30" transform="translate(127.246094 0)"/>
      </g>
     </g>
    </g>
    <g id="text_7">
     <!-- Epoch -->
     <g transform="translate(362.467813 413.754687) scale(0.1 -0.1)">
      <defs>
       <path id="DejaVuSans-45" d="M 628 4666 
L 3578 4666 
L 3578 4134 
L 1259 4134 
L 1259 2753 
L 3481 2753 
L 3481 2222 
L 1259 2222 
L 1259 531 
L 3634 531 
L 3634 0 
L 628 0 
L 628 4666 
z
" transform="scale(0.015625)"/>
       <path id="DejaVuSans-70" d="M 1159 525 
L 1159 -1331 
L 581 -1331 
L 581 3500 
L 1159 3500 
L 1159 2969 
Q 1341 3281 1617 3432 
Q 1894 3584 2278 3584 
Q 2916 3584 3314 3078 
Q 3713 2572 3713 1747 
Q 3713 922 3314 415 
Q 2916 -91 2278 -91 
Q 1894 -91 1617 61 
Q 1341 213 1159 525 
z
M 3116 1747 
Q 3116 2381 2855 2742 
Q 2594 3103 2138 3103 
Q 1681 3103 1420 2742 
Q 1159 2381 1159 1747 
Q 1159 1113 1420 752 
Q 1681 391 2138 391 
Q 2594 391 2855 752 
Q 3116 1113 3116 1747 
z
" transform="scale(0.015625)"/>
       <path id="DejaVuSans-6f" d="M 1959 3097 
Q 1497 3097 1228 2736 
Q 959 2375 959 1747 
Q 959 1119 1226 758 
Q 1494 397 1959 397 
Q 2419 397 2687 759 
Q 2956 1122 2956 1747 
Q 2956 2369 2687 2733 
Q 2419 3097 1959 3097 
z
M 1959 3584 
Q 2709 3584 3137 3096 
Q 3566 2609 3566 1747 
Q 3566 888 3137 398 
Q 2709 -91 1959 -91 
Q 1206 -91 779 398 
Q 353 888 353 1747 
Q 353 2609 779 3096 
Q 1206 3584 1959 3584 
z
" transform="scale(0.015625)"/>
       <path id="DejaVuSans-63" d="M 3122 3366 
L 3122 2828 
Q 2878 2963 2633 3030 
Q 2388 3097 2138 3097 
Q 1578 3097 1268 2742 
Q 959 2388 959 1747 
Q 959 1106 1268 751 
Q 1578 397 2138 397 
Q 2388 397 2633 464 
Q 2878 531 3122 666 
L 3122 134 
Q 2881 22 2623 -34 
Q 2366 -91 2075 -91 
Q 1284 -91 818 406 
Q 353 903 353 1747 
Q 353 2603 823 3093 
Q 1294 3584 2113 3584 
Q 2378 3584 2631 3529 
Q 2884 3475 3122 3366 
z
" transform="scale(0.015625)"/>
       <path id="DejaVuSans-68" d="M 3513 2113 
L 3513 0 
L 2938 0 
L 2938 2094 
Q 2938 2591 2744 2837 
Q 2550 3084 2163 3084 
Q 1697 3084 1428 2787 
Q 1159 2491 1159 1978 
L 1159 0 
L 581 0 
L 581 4863 
L 1159 4863 
L 1159 2956 
Q 1366 3272 1645 3428 
Q 1925 3584 2291 3584 
Q 2894 3584 3203 3211 
Q 3513 2838 3513 2113 
z
" transform="scale(0.015625)"/>
      </defs>
      <use xlink:href="#DejaVuSans-45"/>
      <use xlink:href="#DejaVuSans-70" transform="translate(63.183594 0)"/>
      <use xlink:href="#DejaVuSans-6f" transform="translate(126.660156 0)"/>
      <use xlink:href="#DejaVuSans-63" transform="translate(187.841797 0)"/>
      <use xlink:href="#DejaVuSans-68" transform="translate(242.822266 0)"/>
     </g>
    </g>
   </g>
   <g id="matplotlib.axis_2">
    <g id="ytick_1">
     <g id="line2d_7">
      <defs>
       <path id="ma01fc91fc6" d="M 0 0 
L -3.5 0 
" style="stroke: #000000; stroke-width: 0.8"/>
      </defs>
      <g>
       <use xlink:href="#ma01fc91fc6" x="50.14375" y="379.580831" style="stroke: #000000; stroke-width: 0.8"/>
      </g>
     </g>
     <g id="text_8">
      <!-- 0.20 -->
      <g transform="translate(20.878125 383.38005) scale(0.1 -0.1)">
       <defs>
        <path id="DejaVuSans-2e" d="M 684 794 
L 1344 794 
L 1344 0 
L 684 0 
L 684 794 
z
" transform="scale(0.015625)"/>
       </defs>
       <use xlink:href="#DejaVuSans-30"/>
       <use xlink:href="#DejaVuSans-2e" transform="translate(63.623047 0)"/>
       <use xlink:href="#DejaVuSans-32" transform="translate(95.410156 0)"/>
       <use xlink:href="#DejaVuSans-30" transform="translate(159.033203 0)"/>
      </g>
     </g>
    </g>
    <g id="ytick_2">
     <g id="line2d_8">
      <g>
       <use xlink:href="#ma01fc91fc6" x="50.14375" y="316.178482" style="stroke: #000000; stroke-width: 0.8"/>
      </g>
     </g>
     <g id="text_9">
      <!-- 0.25 -->
      <g transform="translate(20.878125 319.977701) scale(0.1 -0.1)">
       <defs>
        <path id="DejaVuSans-35" d="M 691 4666 
L 3169 4666 
L 3169 4134 
L 1269 4134 
L 1269 2991 
Q 1406 3038 1543 3061 
Q 1681 3084 1819 3084 
Q 2600 3084 3056 2656 
Q 3513 2228 3513 1497 
Q 3513 744 3044 326 
Q 2575 -91 1722 -91 
Q 1428 -91 1123 -41 
Q 819 9 494 109 
L 494 744 
Q 775 591 1075 516 
Q 1375 441 1709 441 
Q 2250 441 2565 725 
Q 2881 1009 2881 1497 
Q 2881 1984 2565 2268 
Q 2250 2553 1709 2553 
Q 1456 2553 1204 2497 
Q 953 2441 691 2322 
L 691 4666 
z
" transform="scale(0.015625)"/>
       </defs>
       <use xlink:href="#DejaVuSans-30"/>
       <use xlink:href="#DejaVuSans-2e" transform="translate(63.623047 0)"/>
       <use xlink:href="#DejaVuSans-32" transform="translate(95.410156 0)"/>
       <use xlink:href="#DejaVuSans-35" transform="translate(159.033203 0)"/>
      </g>
     </g>
    </g>
    <g id="ytick_3">
     <g id="line2d_9">
      <g>
       <use xlink:href="#ma01fc91fc6" x="50.14375" y="252.776134" style="stroke: #000000; stroke-width: 0.8"/>
      </g>
     </g>
     <g id="text_10">
      <!-- 0.30 -->
      <g transform="translate(20.878125 256.575353) scale(0.1 -0.1)">
       <defs>
        <path id="DejaVuSans-33" d="M 2597 2516 
Q 3050 2419 3304 2112 
Q 3559 1806 3559 1356 
Q 3559 666 3084 287 
Q 2609 -91 1734 -91 
Q 1441 -91 1130 -33 
Q 819 25 488 141 
L 488 750 
Q 750 597 1062 519 
Q 1375 441 1716 441 
Q 2309 441 2620 675 
Q 2931 909 2931 1356 
Q 2931 1769 2642 2001 
Q 2353 2234 1838 2234 
L 1294 2234 
L 1294 2753 
L 1863 2753 
Q 2328 2753 2575 2939 
Q 2822 3125 2822 3475 
Q 2822 3834 2567 4026 
Q 2313 4219 1838 4219 
Q 1578 4219 1281 4162 
Q 984 4106 628 3988 
L 628 4550 
Q 988 4650 1302 4700 
Q 1616 4750 1894 4750 
Q 2613 4750 3031 4423 
Q 3450 4097 3450 3541 
Q 3450 3153 3228 2886 
Q 3006 2619 2597 2516 
z
" transform="scale(0.015625)"/>
       </defs>
       <use xlink:href="#DejaVuSans-30"/>
       <use xlink:href="#DejaVuSans-2e" transform="translate(63.623047 0)"/>
       <use xlink:href="#DejaVuSans-33" transform="translate(95.410156 0)"/>
       <use xlink:href="#DejaVuSans-30" transform="translate(159.033203 0)"/>
      </g>
     </g>
    </g>
    <g id="ytick_4">
     <g id="line2d_10">
      <g>
       <use xlink:href="#ma01fc91fc6" x="50.14375" y="189.373785" style="stroke: #000000; stroke-width: 0.8"/>
      </g>
     </g>
     <g id="text_11">
      <!-- 0.35 -->
      <g transform="translate(20.878125 193.173004) scale(0.1 -0.1)">
       <use xlink:href="#DejaVuSans-30"/>
       <use xlink:href="#DejaVuSans-2e" transform="translate(63.623047 0)"/>
       <use xlink:href="#DejaVuSans-33" transform="translate(95.410156 0)"/>
       <use xlink:href="#DejaVuSans-35" transform="translate(159.033203 0)"/>
      </g>
     </g>
    </g>
    <g id="ytick_5">
     <g id="line2d_11">
      <g>
       <use xlink:href="#ma01fc91fc6" x="50.14375" y="125.971437" style="stroke: #000000; stroke-width: 0.8"/>
      </g>
     </g>
     <g id="text_12">
      <!-- 0.40 -->
      <g transform="translate(20.878125 129.770655) scale(0.1 -0.1)">
       <use xlink:href="#DejaVuSans-30"/>
       <use xlink:href="#DejaVuSans-2e" transform="translate(63.623047 0)"/>
       <use xlink:href="#DejaVuSans-34" transform="translate(95.410156 0)"/>
       <use xlink:href="#DejaVuSans-30" transform="translate(159.033203 0)"/>
      </g>
     </g>
    </g>
    <g id="ytick_6">
     <g id="line2d_12">
      <g>
       <use xlink:href="#ma01fc91fc6" x="50.14375" y="62.569088" style="stroke: #000000; stroke-width: 0.8"/>
      </g>
     </g>
     <g id="text_13">
      <!-- 0.45 -->
      <g transform="translate(20.878125 66.368307) scale(0.1 -0.1)">
       <use xlink:href="#DejaVuSans-30"/>
       <use xlink:href="#DejaVuSans-2e" transform="translate(63.623047 0)"/>
       <use xlink:href="#DejaVuSans-34" transform="translate(95.410156 0)"/>
       <use xlink:href="#DejaVuSans-35" transform="translate(159.033203 0)"/>
      </g>
     </g>
    </g>
    <g id="text_14">
     <!-- Train Accuracy -->
     <g transform="translate(14.798438 240.309062) rotate(-90) scale(0.1 -0.1)">
      <defs>
       <path id="DejaVuSans-54" d="M -19 4666 
L 3928 4666 
L 3928 4134 
L 2272 4134 
L 2272 0 
L 1638 0 
L 1638 4134 
L -19 4134 
L -19 4666 
z
" transform="scale(0.015625)"/>
       <path id="DejaVuSans-72" d="M 2631 2963 
Q 2534 3019 2420 3045 
Q 2306 3072 2169 3072 
Q 1681 3072 1420 2755 
Q 1159 2438 1159 1844 
L 1159 0 
L 581 0 
L 581 3500 
L 1159 3500 
L 1159 2956 
Q 1341 3275 1631 3429 
Q 1922 3584 2338 3584 
Q 2397 3584 2469 3576 
Q 2541 3569 2628 3553 
L 2631 2963 
z
" transform="scale(0.015625)"/>
       <path id="DejaVuSans-61" d="M 2194 1759 
Q 1497 1759 1228 1600 
Q 959 1441 959 1056 
Q 959 750 1161 570 
Q 1363 391 1709 391 
Q 2188 391 2477 730 
Q 2766 1069 2766 1631 
L 2766 1759 
L 2194 1759 
z
M 3341 1997 
L 3341 0 
L 2766 0 
L 2766 531 
Q 2569 213 2275 61 
Q 1981 -91 1556 -91 
Q 1019 -91 701 211 
Q 384 513 384 1019 
Q 384 1609 779 1909 
Q 1175 2209 1959 2209 
L 2766 2209 
L 2766 2266 
Q 2766 2663 2505 2880 
Q 2244 3097 1772 3097 
Q 1472 3097 1187 3025 
Q 903 2953 641 2809 
L 641 3341 
Q 956 3463 1253 3523 
Q 1550 3584 1831 3584 
Q 2591 3584 2966 3190 
Q 3341 2797 3341 1997 
z
" transform="scale(0.015625)"/>
       <path id="DejaVuSans-69" d="M 603 3500 
L 1178 3500 
L 1178 0 
L 603 0 
L 603 3500 
z
M 603 4863 
L 1178 4863 
L 1178 4134 
L 603 4134 
L 603 4863 
z
" transform="scale(0.015625)"/>
       <path id="DejaVuSans-6e" d="M 3513 2113 
L 3513 0 
L 2938 0 
L 2938 2094 
Q 2938 2591 2744 2837 
Q 2550 3084 2163 3084 
Q 1697 3084 1428 2787 
Q 1159 2491 1159 1978 
L 1159 0 
L 581 0 
L 581 3500 
L 1159 3500 
L 1159 2956 
Q 1366 3272 1645 3428 
Q 1925 3584 2291 3584 
Q 2894 3584 3203 3211 
Q 3513 2838 3513 2113 
z
" transform="scale(0.015625)"/>
       <path id="DejaVuSans-20" transform="scale(0.015625)"/>
       <path id="DejaVuSans-41" d="M 2188 4044 
L 1331 1722 
L 3047 1722 
L 2188 4044 
z
M 1831 4666 
L 2547 4666 
L 4325 0 
L 3669 0 
L 3244 1197 
L 1141 1197 
L 716 0 
L 50 0 
L 1831 4666 
z
" transform="scale(0.015625)"/>
       <path id="DejaVuSans-75" d="M 544 1381 
L 544 3500 
L 1119 3500 
L 1119 1403 
Q 1119 906 1312 657 
Q 1506 409 1894 409 
Q 2359 409 2629 706 
Q 2900 1003 2900 1516 
L 2900 3500 
L 3475 3500 
L 3475 0 
L 2900 0 
L 2900 538 
Q 2691 219 2414 64 
Q 2138 -91 1772 -91 
Q 1169 -91 856 284 
Q 544 659 544 1381 
z
M 1991 3584 
L 1991 3584 
z
" transform="scale(0.015625)"/>
       <path id="DejaVuSans-79" d="M 2059 -325 
Q 1816 -950 1584 -1140 
Q 1353 -1331 966 -1331 
L 506 -1331 
L 506 -850 
L 844 -850 
Q 1081 -850 1212 -737 
Q 1344 -625 1503 -206 
L 1606 56 
L 191 3500 
L 800 3500 
L 1894 763 
L 2988 3500 
L 3597 3500 
L 2059 -325 
z
" transform="scale(0.015625)"/>
      </defs>
      <use xlink:href="#DejaVuSans-54"/>
      <use xlink:href="#DejaVuSans-72" transform="translate(46.333984 0)"/>
      <use xlink:href="#DejaVuSans-61" transform="translate(87.447266 0)"/>
      <use xlink:href="#DejaVuSans-69" transform="translate(148.726562 0)"/>
      <use xlink:href="#DejaVuSans-6e" transform="translate(176.509766 0)"/>
      <use xlink:href="#DejaVuSans-20" transform="translate(239.888672 0)"/>
      <use xlink:href="#DejaVuSans-41" transform="translate(271.675781 0)"/>
      <use xlink:href="#DejaVuSans-63" transform="translate(338.333984 0)"/>
      <use xlink:href="#DejaVuSans-63" transform="translate(393.314453 0)"/>
      <use xlink:href="#DejaVuSans-75" transform="translate(448.294922 0)"/>
      <use xlink:href="#DejaVuSans-72" transform="translate(511.673828 0)"/>
      <use xlink:href="#DejaVuSans-61" transform="translate(552.787109 0)"/>
      <use xlink:href="#DejaVuSans-63" transform="translate(614.066406 0)"/>
      <use xlink:href="#DejaVuSans-79" transform="translate(669.046875 0)"/>
     </g>
    </g>
   </g>
   <g id="line2d_13">
    <path d="M 79.92875 180.79476 
L 85.945922 295.181768 
L 91.963093 321.459865 
L 97.980265 341.039623 
L 103.997437 320.944608 
L 110.014609 333.826028 
L 116.03178 319.914094 
L 122.048952 330.734487 
L 128.066124 326.097176 
L 134.083295 321.975121 
L 140.100467 334.341284 
L 146.117639 330.734487 
L 152.134811 314.246269 
L 158.151982 320.944608 
L 164.169154 319.914094 
L 170.186326 323.005635 
L 176.203497 318.368324 
L 182.220669 330.21923 
L 188.237841 334.856541 
L 194.255013 332.795514 
L 200.272184 311.154729 
L 206.289356 331.249744 
L 212.306528 334.341284 
L 218.323699 343.615907 
L 224.340871 344.131164 
L 230.358043 314.761526 
L 236.375215 331.249744 
L 242.392386 331.249744 
L 248.409558 336.402312 
L 254.42673 307.032674 
L 260.443902 332.795514 
L 266.461073 317.33781 
L 272.478245 332.795514 
L 278.495417 327.642946 
L 284.512588 316.307297 
L 290.52976 316.822553 
L 296.546932 315.276783 
L 302.564104 334.341284 
L 308.581275 323.005635 
L 314.598447 340.524366 
L 320.615619 330.21923 
L 326.63279 340.009109 
L 332.649962 335.887055 
L 338.667134 323.005635 
L 344.684306 333.310771 
L 350.701477 325.066662 
L 356.718649 334.341284 
L 362.735821 335.371798 
L 368.752992 329.703973 
L 374.770164 333.826028 
L 380.787336 333.310771 
L 386.804508 320.429351 
L 392.821679 324.036149 
L 398.838851 332.280257 
L 404.856023 294.666511 
L 410.873194 265.296874 
L 416.890366 256.537508 
L 422.907538 178.733732 
L 428.92471 230.259412 
L 434.941881 203.466059 
L 440.959053 169.974367 
L 446.976225 149.364095 
L 452.993396 152.455636 
L 459.010568 122.570742 
L 465.02774 160.184488 
L 471.044912 133.391134 
L 477.062083 123.085999 
L 483.079255 128.238566 
L 489.096427 141.119986 
L 495.113598 144.726784 
L 501.13077 148.333581 
L 507.147942 151.425122 
L 513.165114 161.730258 
L 519.182285 148.848838 
L 525.199457 152.455636 
L 531.216629 161.730258 
L 537.233801 282.300348 
L 543.250972 334.341284 
L 549.268144 320.944608 
L 555.285316 325.066662 
L 561.302487 314.761526 
L 567.319659 318.368324 
L 573.336831 331.765 
L 579.354003 317.33781 
L 585.371174 341.55488 
L 591.388346 324.036149 
L 597.405518 328.158203 
L 603.422689 260.144306 
L 609.439861 156.062433 
L 615.457033 171.00488 
L 621.474205 149.879352 
L 627.491376 200.889775 
L 633.508548 219.439019 
L 639.52572 293.120741 
L 645.542891 294.151254 
L 651.560063 261.17482 
L 657.577235 228.198385 
L 663.594407 212.740681 
L 669.611578 196.252463 
L 675.62875 172.035394 
" clip-path="url(#pb7132edad7)" style="fill: none; stroke: #1f77b4; stroke-width: 1.5; stroke-linecap: square"/>
   </g>
   <g id="line2d_14">
    <path d="M 79.92875 154.516663 
L 85.945922 267.357901 
L 91.963093 259.629049 
L 97.980265 219.439019 
L 103.997437 175.642192 
L 110.014609 161.730258 
L 116.03178 171.00488 
L 122.048952 144.211527 
L 128.066124 188.008355 
L 134.083295 179.764246 
L 140.100467 201.405031 
L 146.117639 173.581164 
L 152.134811 122.570742 
L 158.151982 121.024971 
L 164.169154 186.977841 
L 170.186326 175.642192 
L 176.203497 169.45911 
L 182.220669 113.811376 
L 188.237841 137.513189 
L 194.255013 139.058959 
L 200.272184 211.19491 
L 206.289356 192.130409 
L 212.306528 164.306542 
L 218.323699 131.330107 
L 224.340871 137.513189 
L 230.358043 149.879352 
L 236.375215 211.710167 
L 242.392386 148.333581 
L 248.409558 141.635243 
L 254.42673 142.665757 
L 260.443902 155.547177 
L 266.461073 139.058959 
L 272.478245 161.730258 
L 278.495417 141.119986 
L 284.512588 142.665757 
L 290.52976 130.81485 
L 296.546932 192.645666 
L 302.564104 180.279503 
L 308.581275 224.07633 
L 314.598447 159.669231 
L 320.615619 166.882826 
L 326.63279 180.279503 
L 332.649962 126.177539 
L 338.667134 181.825273 
L 344.684306 162.760772 
L 350.701477 136.482675 
L 356.718649 145.242041 
L 362.735821 123.085999 
L 368.752992 154.001406 
L 374.770164 131.845364 
L 380.787336 121.540228 
L 386.804508 138.028446 
L 392.821679 163.276029 
L 398.838851 128.753823 
L 404.856023 122.570742 
L 410.873194 128.753823 
L 416.890366 151.425122 
L 422.907538 131.330107 
L 428.92471 143.181014 
L 434.941881 105.052011 
L 440.959053 101.96047 
L 446.976225 74.136603 
L 452.993396 107.113038 
L 459.010568 124.631769 
L 465.02774 101.96047 
L 471.044912 103.50624 
L 477.062083 108.143551 
L 483.079255 99.899443 
L 489.096427 142.1505 
L 495.113598 140.089473 
L 501.13077 204.496572 
L 507.147942 356.497327 
L 513.165114 358.558354 
L 519.182285 358.558354 
L 525.199457 297.758052 
L 531.216629 249.323913 
L 537.233801 149.364095 
L 543.250972 219.954276 
L 549.268144 167.91334 
L 555.285316 252.415454 
L 561.302487 338.978596 
L 567.319659 360.104124 
L 573.336831 355.98207 
L 579.354003 340.009109 
L 585.371174 337.432825 
L 591.388346 331.765 
L 597.405518 346.707447 
L 603.422689 260.144306 
L 609.439861 206.042343 
L 615.457033 180.79476 
L 621.474205 130.299594 
L 627.491376 107.113038 
L 633.508548 104.536754 
L 639.52572 110.719835 
L 645.542891 124.116512 
L 651.560063 114.326633 
L 657.577235 96.807902 
L 663.594407 115.357147 
L 669.611578 88.563793 
L 675.62875 95.777388 
" clip-path="url(#pb7132edad7)" style="fill: none; stroke: #ff7f0e; stroke-width: 1.5; stroke-linecap: square"/>
   </g>
   <g id="line2d_15">
    <path d="M 79.92875 217.031837 
L 85.945922 196.944984 
L 91.963093 213.941551 
L 97.980265 174.797941 
L 103.997437 184.068796 
L 110.014609 239.693927 
L 116.03178 217.031837 
L 122.048952 219.092027 
L 128.066124 189.219271 
L 134.083295 288.108393 
L 140.100467 359.699997 
L 146.117639 368.970852 
L 152.134811 351.974284 
L 158.151982 347.338857 
L 164.169154 364.335425 
L 170.186326 344.248572 
L 176.203497 348.883999 
L 182.220669 358.669902 
L 188.237841 350.944189 
L 194.255013 364.335425 
L 200.272184 356.094664 
L 206.289356 349.399047 
L 212.306528 338.583049 
L 218.323699 354.549522 
L 224.340871 357.639807 
L 230.358043 355.579617 
L 236.375215 365.36552 
L 242.392386 363.820377 
L 248.409558 335.492764 
L 254.42673 339.098097 
L 260.443902 345.278667 
L 266.461073 338.068002 
L 272.478245 344.763619 
L 278.495417 334.977717 
L 284.512588 346.823809 
L 290.52976 340.643239 
L 296.546932 344.763619 
L 302.564104 342.703429 
L 308.581275 332.917527 
L 314.598447 343.733524 
L 320.615619 338.068002 
L 326.63279 339.098097 
L 332.649962 348.883999 
L 338.667134 354.034474 
L 344.684306 333.432574 
L 350.701477 342.703429 
L 356.718649 331.887431 
L 362.735821 345.793714 
L 368.752992 341.158287 
L 374.770164 326.736956 
L 380.787336 355.064569 
L 386.804508 329.827241 
L 392.821679 343.733524 
L 398.838851 333.432574 
L 404.856023 347.853904 
L 410.873194 362.790282 
L 416.890366 334.462669 
L 422.907538 340.643239 
L 428.92471 330.857336 
L 434.941881 337.037907 
L 440.959053 351.459237 
L 446.976225 335.492764 
L 452.993396 353.519427 
L 459.010568 329.827241 
L 465.02774 337.552954 
L 471.044912 348.368952 
L 477.062083 344.763619 
L 483.079255 352.489332 
L 489.096427 333.947622 
L 495.113598 351.974284 
L 501.13077 341.158287 
L 507.147942 332.402479 
L 513.165114 334.462669 
L 519.182285 351.974284 
L 525.199457 341.158287 
L 531.216629 329.312194 
L 537.233801 343.218477 
L 543.250972 348.368952 
L 549.268144 336.007812 
L 555.285316 335.492764 
L 561.302487 344.763619 
L 567.319659 342.703429 
L 573.336831 338.068002 
L 579.354003 348.883999 
L 585.371174 345.793714 
L 591.388346 336.522859 
L 597.405518 363.30533 
L 603.422689 343.218477 
L 609.439861 328.282099 
L 615.457033 341.673334 
L 621.474205 349.399047 
L 627.491376 353.519427 
L 633.508548 330.857336 
L 639.52572 339.098097 
L 645.542891 353.519427 
L 651.560063 340.128192 
L 657.577235 340.643239 
L 663.594407 337.552954 
L 669.611578 342.703429 
L 675.62875 348.883999 
" clip-path="url(#pb7132edad7)" style="fill: none; stroke: #2ca02c; stroke-width: 1.5; stroke-linecap: square"/>
   </g>
   <g id="line2d_16">
    <path d="M 79.92875 314.375816 
L 85.945922 195.914889 
L 91.963093 139.259662 
L 97.980265 172.222703 
L 103.997437 183.038701 
L 110.014609 163.466895 
L 116.03178 148.530518 
L 122.048952 149.560613 
L 128.066124 146.985375 
L 134.083295 171.192608 
L 140.100467 155.226135 
L 146.117639 132.048997 
L 152.134811 121.748047 
L 158.151982 89.815101 
L 164.169154 84.149579 
L 170.186326 90.845196 
L 176.203497 117.627667 
L 182.220669 94.450529 
L 188.237841 106.296622 
L 194.255013 127.928617 
L 200.272184 132.564045 
L 206.289356 86.724816 
L 212.306528 54.276823 
L 218.323699 71.788438 
L 224.340871 86.724816 
L 230.358043 120.717952 
L 236.375215 125.868427 
L 242.392386 91.875291 
L 248.409558 93.420434 
L 254.42673 127.928617 
L 260.443902 126.898522 
L 266.461073 132.564045 
L 272.478245 83.634531 
L 278.495417 120.202904 
L 284.512588 142.349947 
L 290.52976 181.493558 
L 296.546932 169.132418 
L 302.564104 126.383475 
L 308.581275 166.042133 
L 314.598447 155.226135 
L 320.615619 144.410137 
L 326.63279 121.748047 
L 332.649962 127.928617 
L 338.667134 146.985375 
L 344.684306 310.255436 
L 350.701477 278.837538 
L 356.718649 260.810875 
L 362.735821 235.573547 
L 368.752992 178.403273 
L 374.770164 161.406705 
L 380.787336 197.975079 
L 386.804508 198.490126 
L 392.821679 202.610506 
L 398.838851 186.644033 
L 404.856023 177.373178 
L 410.873194 158.831468 
L 416.890366 160.37661 
L 422.907538 153.680993 
L 428.92471 138.744615 
L 434.941881 175.828036 
L 440.959053 161.406705 
L 446.976225 153.165945 
L 452.993396 159.861563 
L 459.010568 169.647466 
L 465.02774 258.750685 
L 471.044912 322.101529 
L 477.062083 186.644033 
L 483.079255 166.55718 
L 489.096427 114.022334 
L 495.113598 132.048997 
L 501.13077 120.202904 
L 507.147942 122.778142 
L 513.165114 127.928617 
L 519.182285 116.597572 
L 525.199457 140.289757 
L 531.216629 103.721384 
L 537.233801 147.500423 
L 543.250972 139.259662 
L 549.268144 93.420434 
L 555.285316 56.852061 
L 561.302487 46.036063 
L 567.319659 38.825398 
L 573.336831 47.581205 
L 579.354003 72.818533 
L 585.371174 159.346515 
L 591.388346 150.590708 
L 597.405518 141.319852 
L 603.422689 98.055861 
L 609.439861 119.172809 
L 615.457033 139.77471 
L 621.474205 148.530518 
L 627.491376 135.65433 
L 633.508548 101.661194 
L 639.52572 119.172809 
L 645.542891 139.259662 
L 651.560063 158.831468 
L 657.577235 122.263095 
L 663.594407 126.898522 
L 669.611578 153.165945 
L 675.62875 261.325922 
" clip-path="url(#pb7132edad7)" style="fill: none; stroke: #d62728; stroke-width: 1.5; stroke-linecap: square"/>
   </g>
   <g id="line2d_17">
    <path d="M 79.92875 249.994877 
L 85.945922 198.490126 
L 91.963093 259.78078 
L 97.980265 322.101529 
L 103.997437 336.522859 
L 110.014609 343.733524 
L 116.03178 325.191814 
L 122.048952 313.860769 
L 128.066124 330.857336 
L 134.083295 322.101529 
L 140.100467 323.131624 
L 146.117639 353.519427 
L 152.134811 337.552954 
L 158.151982 356.094664 
L 164.169154 345.278667 
L 170.186326 327.252004 
L 176.203497 329.827241 
L 182.220669 262.871065 
L 188.237841 301.499628 
L 194.255013 323.646671 
L 200.272184 327.767051 
L 206.289356 235.573547 
L 212.306528 251.54002 
L 218.323699 243.814307 
L 224.340871 331.887431 
L 230.358043 322.101529 
L 236.375215 329.827241 
L 242.392386 327.252004 
L 248.409558 319.526291 
L 254.42673 333.432574 
L 260.443902 328.797146 
L 266.461073 311.285531 
L 272.478245 330.342289 
L 278.495417 347.853904 
L 284.512588 324.161719 
L 290.52976 334.977717 
L 296.546932 336.007812 
L 302.564104 330.857336 
L 308.581275 321.586481 
L 314.598447 341.673334 
L 320.615619 327.767051 
L 326.63279 328.282099 
L 332.649962 324.676766 
L 338.667134 314.375816 
L 344.684306 310.255436 
L 350.701477 332.402479 
L 356.718649 326.736956 
L 362.735821 323.646671 
L 368.752992 342.703429 
L 374.770164 317.981149 
L 380.787336 342.188382 
L 386.804508 332.917527 
L 392.821679 319.526291 
L 398.838851 328.282099 
L 404.856023 316.436006 
L 410.873194 319.011244 
L 416.890366 320.556386 
L 422.907538 321.071434 
L 428.92471 344.248572 
L 434.941881 332.917527 
L 440.959053 326.221909 
L 446.976225 316.951054 
L 452.993396 331.887431 
L 459.010568 333.432574 
L 465.02774 326.736956 
L 471.044912 343.733524 
L 477.062083 326.221909 
L 483.079255 313.860769 
L 489.096427 330.342289 
L 495.113598 319.011244 
L 501.13077 339.613144 
L 507.147942 323.131624 
L 513.165114 320.556386 
L 519.182285 334.462669 
L 525.199457 314.890864 
L 531.216629 313.860769 
L 537.233801 327.252004 
L 543.250972 338.068002 
L 549.268144 329.312194 
L 555.285316 329.827241 
L 561.302487 329.827241 
L 567.319659 321.071434 
L 573.336831 351.974284 
L 579.354003 334.462669 
L 585.371174 327.767051 
L 591.388346 324.161719 
L 597.405518 341.673334 
L 603.422689 330.342289 
L 609.439861 328.282099 
L 615.457033 320.041339 
L 621.474205 336.522859 
L 627.491376 323.131624 
L 633.508548 326.736956 
L 639.52572 334.462669 
L 645.542891 323.131624 
L 651.560063 334.977717 
L 657.577235 328.797146 
L 663.594407 331.372384 
L 669.611578 318.496196 
L 675.62875 333.432574 
" clip-path="url(#pb7132edad7)" style="fill: none; stroke: #9467bd; stroke-width: 1.5; stroke-linecap: square"/>
   </g>
   <g id="patch_3">
    <path d="M 50.14375 385.478125 
L 50.14375 22.318125 
" style="fill: none; stroke: #000000; stroke-width: 0.8; stroke-linejoin: miter; stroke-linecap: square"/>
   </g>
   <g id="patch_4">
    <path d="M 705.41375 385.478125 
L 705.41375 22.318125 
" style="fill: none; stroke: #000000; stroke-width: 0.8; stroke-linejoin: miter; stroke-linecap: square"/>
   </g>
   <g id="patch_5">
    <path d="M 50.14375 385.478125 
L 705.41375 385.478125 
" style="fill: none; stroke: #000000; stroke-width: 0.8; stroke-linejoin: miter; stroke-linecap: square"/>
   </g>
   <g id="patch_6">
    <path d="M 50.14375 22.318125 
L 705.41375 22.318125 
" style="fill: none; stroke: #000000; stroke-width: 0.8; stroke-linejoin: miter; stroke-linecap: square"/>
   </g>
   <g id="text_15">
    <!-- Combined Train Accuracy -->
    <g transform="translate(301.694063 16.318125) scale(0.12 -0.12)">
     <defs>
      <path id="DejaVuSans-43" d="M 4122 4306 
L 4122 3641 
Q 3803 3938 3442 4084 
Q 3081 4231 2675 4231 
Q 1875 4231 1450 3742 
Q 1025 3253 1025 2328 
Q 1025 1406 1450 917 
Q 1875 428 2675 428 
Q 3081 428 3442 575 
Q 3803 722 4122 1019 
L 4122 359 
Q 3791 134 3420 21 
Q 3050 -91 2638 -91 
Q 1578 -91 968 557 
Q 359 1206 359 2328 
Q 359 3453 968 4101 
Q 1578 4750 2638 4750 
Q 3056 4750 3426 4639 
Q 3797 4528 4122 4306 
z
" transform="scale(0.015625)"/>
      <path id="DejaVuSans-6d" d="M 3328 2828 
Q 3544 3216 3844 3400 
Q 4144 3584 4550 3584 
Q 5097 3584 5394 3201 
Q 5691 2819 5691 2113 
L 5691 0 
L 5113 0 
L 5113 2094 
Q 5113 2597 4934 2840 
Q 4756 3084 4391 3084 
Q 3944 3084 3684 2787 
Q 3425 2491 3425 1978 
L 3425 0 
L 2847 0 
L 2847 2094 
Q 2847 2600 2669 2842 
Q 2491 3084 2119 3084 
Q 1678 3084 1418 2786 
Q 1159 2488 1159 1978 
L 1159 0 
L 581 0 
L 581 3500 
L 1159 3500 
L 1159 2956 
Q 1356 3278 1631 3431 
Q 1906 3584 2284 3584 
Q 2666 3584 2933 3390 
Q 3200 3197 3328 2828 
z
" transform="scale(0.015625)"/>
      <path id="DejaVuSans-62" d="M 3116 1747 
Q 3116 2381 2855 2742 
Q 2594 3103 2138 3103 
Q 1681 3103 1420 2742 
Q 1159 2381 1159 1747 
Q 1159 1113 1420 752 
Q 1681 391 2138 391 
Q 2594 391 2855 752 
Q 3116 1113 3116 1747 
z
M 1159 2969 
Q 1341 3281 1617 3432 
Q 1894 3584 2278 3584 
Q 2916 3584 3314 3078 
Q 3713 2572 3713 1747 
Q 3713 922 3314 415 
Q 2916 -91 2278 -91 
Q 1894 -91 1617 61 
Q 1341 213 1159 525 
L 1159 0 
L 581 0 
L 581 4863 
L 1159 4863 
L 1159 2969 
z
" transform="scale(0.015625)"/>
      <path id="DejaVuSans-65" d="M 3597 1894 
L 3597 1613 
L 953 1613 
Q 991 1019 1311 708 
Q 1631 397 2203 397 
Q 2534 397 2845 478 
Q 3156 559 3463 722 
L 3463 178 
Q 3153 47 2828 -22 
Q 2503 -91 2169 -91 
Q 1331 -91 842 396 
Q 353 884 353 1716 
Q 353 2575 817 3079 
Q 1281 3584 2069 3584 
Q 2775 3584 3186 3129 
Q 3597 2675 3597 1894 
z
M 3022 2063 
Q 3016 2534 2758 2815 
Q 2500 3097 2075 3097 
Q 1594 3097 1305 2825 
Q 1016 2553 972 2059 
L 3022 2063 
z
" transform="scale(0.015625)"/>
      <path id="DejaVuSans-64" d="M 2906 2969 
L 2906 4863 
L 3481 4863 
L 3481 0 
L 2906 0 
L 2906 525 
Q 2725 213 2448 61 
Q 2172 -91 1784 -91 
Q 1150 -91 751 415 
Q 353 922 353 1747 
Q 353 2572 751 3078 
Q 1150 3584 1784 3584 
Q 2172 3584 2448 3432 
Q 2725 3281 2906 2969 
z
M 947 1747 
Q 947 1113 1208 752 
Q 1469 391 1925 391 
Q 2381 391 2643 752 
Q 2906 1113 2906 1747 
Q 2906 2381 2643 2742 
Q 2381 3103 1925 3103 
Q 1469 3103 1208 2742 
Q 947 2381 947 1747 
z
" transform="scale(0.015625)"/>
     </defs>
     <use xlink:href="#DejaVuSans-43"/>
     <use xlink:href="#DejaVuSans-6f" transform="translate(69.824219 0)"/>
     <use xlink:href="#DejaVuSans-6d" transform="translate(131.005859 0)"/>
     <use xlink:href="#DejaVuSans-62" transform="translate(228.417969 0)"/>
     <use xlink:href="#DejaVuSans-69" transform="translate(291.894531 0)"/>
     <use xlink:href="#DejaVuSans-6e" transform="translate(319.677734 0)"/>
     <use xlink:href="#DejaVuSans-65" transform="translate(383.056641 0)"/>
     <use xlink:href="#DejaVuSans-64" transform="translate(444.580078 0)"/>
     <use xlink:href="#DejaVuSans-20" transform="translate(508.056641 0)"/>
     <use xlink:href="#DejaVuSans-54" transform="translate(539.84375 0)"/>
     <use xlink:href="#DejaVuSans-72" transform="translate(586.177734 0)"/>
     <use xlink:href="#DejaVuSans-61" transform="translate(627.291016 0)"/>
     <use xlink:href="#DejaVuSans-69" transform="translate(688.570312 0)"/>
     <use xlink:href="#DejaVuSans-6e" transform="translate(716.353516 0)"/>
     <use xlink:href="#DejaVuSans-20" transform="translate(779.732422 0)"/>
     <use xlink:href="#DejaVuSans-41" transform="translate(811.519531 0)"/>
     <use xlink:href="#DejaVuSans-63" transform="translate(878.177734 0)"/>
     <use xlink:href="#DejaVuSans-63" transform="translate(933.158203 0)"/>
     <use xlink:href="#DejaVuSans-75" transform="translate(988.138672 0)"/>
     <use xlink:href="#DejaVuSans-72" transform="translate(1051.517578 0)"/>
     <use xlink:href="#DejaVuSans-61" transform="translate(1092.630859 0)"/>
     <use xlink:href="#DejaVuSans-63" transform="translate(1153.910156 0)"/>
     <use xlink:href="#DejaVuSans-79" transform="translate(1208.890625 0)"/>
    </g>
   </g>
   <g id="legend_1">
    <g id="patch_7">
     <path d="M 57.14375 103.70875 
L 119.31875 103.70875 
Q 121.31875 103.70875 121.31875 101.70875 
L 121.31875 29.318125 
Q 121.31875 27.318125 119.31875 27.318125 
L 57.14375 27.318125 
Q 55.14375 27.318125 55.14375 29.318125 
L 55.14375 101.70875 
Q 55.14375 103.70875 57.14375 103.70875 
z
" style="fill: #ffffff; opacity: 0.8; stroke: #cccccc; stroke-linejoin: miter"/>
    </g>
    <g id="line2d_18">
     <path d="M 59.14375 35.416562 
L 69.14375 35.416562 
L 79.14375 35.416562 
" style="fill: none; stroke: #1f77b4; stroke-width: 1.5; stroke-linecap: square"/>
    </g>
    <g id="text_16">
     <!-- Fold 1 -->
     <g transform="translate(87.14375 38.916562) scale(0.1 -0.1)">
      <defs>
       <path id="DejaVuSans-46" d="M 628 4666 
L 3309 4666 
L 3309 4134 
L 1259 4134 
L 1259 2759 
L 3109 2759 
L 3109 2228 
L 1259 2228 
L 1259 0 
L 628 0 
L 628 4666 
z
" transform="scale(0.015625)"/>
       <path id="DejaVuSans-6c" d="M 603 4863 
L 1178 4863 
L 1178 0 
L 603 0 
L 603 4863 
z
" transform="scale(0.015625)"/>
      </defs>
      <use xlink:href="#DejaVuSans-46"/>
      <use xlink:href="#DejaVuSans-6f" transform="translate(53.894531 0)"/>
      <use xlink:href="#DejaVuSans-6c" transform="translate(115.076172 0)"/>
      <use xlink:href="#DejaVuSans-64" transform="translate(142.859375 0)"/>
      <use xlink:href="#DejaVuSans-20" transform="translate(206.335938 0)"/>
      <use xlink:href="#DejaVuSans-31" transform="translate(238.123047 0)"/>
     </g>
    </g>
    <g id="line2d_19">
     <path d="M 59.14375 50.094688 
L 69.14375 50.094688 
L 79.14375 50.094688 
" style="fill: none; stroke: #ff7f0e; stroke-width: 1.5; stroke-linecap: square"/>
    </g>
    <g id="text_17">
     <!-- Fold 2 -->
     <g transform="translate(87.14375 53.594688) scale(0.1 -0.1)">
      <use xlink:href="#DejaVuSans-46"/>
      <use xlink:href="#DejaVuSans-6f" transform="translate(53.894531 0)"/>
      <use xlink:href="#DejaVuSans-6c" transform="translate(115.076172 0)"/>
      <use xlink:href="#DejaVuSans-64" transform="translate(142.859375 0)"/>
      <use xlink:href="#DejaVuSans-20" transform="translate(206.335938 0)"/>
      <use xlink:href="#DejaVuSans-32" transform="translate(238.123047 0)"/>
     </g>
    </g>
    <g id="line2d_20">
     <path d="M 59.14375 64.772812 
L 69.14375 64.772812 
L 79.14375 64.772812 
" style="fill: none; stroke: #2ca02c; stroke-width: 1.5; stroke-linecap: square"/>
    </g>
    <g id="text_18">
     <!-- Fold 3 -->
     <g transform="translate(87.14375 68.272812) scale(0.1 -0.1)">
      <use xlink:href="#DejaVuSans-46"/>
      <use xlink:href="#DejaVuSans-6f" transform="translate(53.894531 0)"/>
      <use xlink:href="#DejaVuSans-6c" transform="translate(115.076172 0)"/>
      <use xlink:href="#DejaVuSans-64" transform="translate(142.859375 0)"/>
      <use xlink:href="#DejaVuSans-20" transform="translate(206.335938 0)"/>
      <use xlink:href="#DejaVuSans-33" transform="translate(238.123047 0)"/>
     </g>
    </g>
    <g id="line2d_21">
     <path d="M 59.14375 79.450938 
L 69.14375 79.450938 
L 79.14375 79.450938 
" style="fill: none; stroke: #d62728; stroke-width: 1.5; stroke-linecap: square"/>
    </g>
    <g id="text_19">
     <!-- Fold 4 -->
     <g transform="translate(87.14375 82.950938) scale(0.1 -0.1)">
      <use xlink:href="#DejaVuSans-46"/>
      <use xlink:href="#DejaVuSans-6f" transform="translate(53.894531 0)"/>
      <use xlink:href="#DejaVuSans-6c" transform="translate(115.076172 0)"/>
      <use xlink:href="#DejaVuSans-64" transform="translate(142.859375 0)"/>
      <use xlink:href="#DejaVuSans-20" transform="translate(206.335938 0)"/>
      <use xlink:href="#DejaVuSans-34" transform="translate(238.123047 0)"/>
     </g>
    </g>
    <g id="line2d_22">
     <path d="M 59.14375 94.129063 
L 69.14375 94.129063 
L 79.14375 94.129063 
" style="fill: none; stroke: #9467bd; stroke-width: 1.5; stroke-linecap: square"/>
    </g>
    <g id="text_20">
     <!-- Fold 5 -->
     <g transform="translate(87.14375 97.629063) scale(0.1 -0.1)">
      <use xlink:href="#DejaVuSans-46"/>
      <use xlink:href="#DejaVuSans-6f" transform="translate(53.894531 0)"/>
      <use xlink:href="#DejaVuSans-6c" transform="translate(115.076172 0)"/>
      <use xlink:href="#DejaVuSans-64" transform="translate(142.859375 0)"/>
      <use xlink:href="#DejaVuSans-20" transform="translate(206.335938 0)"/>
      <use xlink:href="#DejaVuSans-35" transform="translate(238.123047 0)"/>
     </g>
    </g>
   </g>
  </g>
 </g>
 <defs>
  <clipPath id="pb7132edad7">
   <rect x="50.14375" y="22.318125" width="655.27" height="363.16"/>
  </clipPath>
 </defs>
</svg>
