<?xml version="1.0" encoding="utf-8" standalone="no"?>
<!DOCTYPE svg PUBLIC "-//W3C//DTD SVG 1.1//EN"
  "http://www.w3.org/Graphics/SVG/1.1/DTD/svg11.dtd">
<svg xmlns:xlink="http://www.w3.org/1999/xlink" width="712.46125pt" height="423.034375pt" viewBox="0 0 712.46125 423.034375" xmlns="http://www.w3.org/2000/svg" version="1.1">
 <metadata>
  <rdf:RDF xmlns:dc="http://purl.org/dc/elements/1.1/" xmlns:cc="http://creativecommons.org/ns#" xmlns:rdf="http://www.w3.org/1999/02/22-rdf-syntax-ns#">
   <cc:Work>
    <dc:type rdf:resource="http://purl.org/dc/dcmitype/StillImage"/>
    <dc:date>2025-06-26T19:25:29.735989</dc:date>
    <dc:format>image/svg+xml</dc:format>
    <dc:creator>
     <cc:Agent>
      <dc:title>Matplotlib v3.10.0, https://matplotlib.org/</dc:title>
     </cc:Agent>
    </dc:creator>
   </cc:Work>
  </rdf:RDF>
 </metadata>
 <defs>
  <style type="text/css">*{stroke-linejoin: round; stroke-linecap: butt}</style>
 </defs>
 <g id="figure_1">
  <g id="patch_1">
   <path d="M 0 423.034375 
L 712.46125 423.034375 
L 712.46125 0 
L 0 0 
z
" style="fill: #ffffff"/>
  </g>
  <g id="axes_1">
   <g id="patch_2">
    <path d="M 43.78125 385.478125 
L 705.26125 385.478125 
L 705.26125 22.318125 
L 43.78125 22.318125 
z
" style="fill: #ffffff"/>
   </g>
   <g id="matplotlib.axis_1">
    <g id="xtick_1">
     <g id="line2d_1">
      <defs>
       <path id="m4f84eb8461" d="M 0 0 
L 0 3.5 
" style="stroke: #000000; stroke-width: 0.8"/>
      </defs>
      <g>
       <use xlink:href="#m4f84eb8461" x="67.774326" y="385.478125" style="stroke: #000000; stroke-width: 0.8"/>
      </g>
     </g>
     <g id="text_1">
      <!-- 0 -->
      <g transform="translate(64.593076 400.076562) scale(0.1 -0.1)">
       <defs>
        <path id="DejaVuSans-30" d="M 2034 4250 
Q 1547 4250 1301 3770 
Q 1056 3291 1056 2328 
Q 1056 1369 1301 889 
Q 1547 409 2034 409 
Q 2525 409 2770 889 
Q 3016 1369 3016 2328 
Q 3016 3291 2770 3770 
Q 2525 4250 2034 4250 
z
M 2034 4750 
Q 2819 4750 3233 4129 
Q 3647 3509 3647 2328 
Q 3647 1150 3233 529 
Q 2819 -91 2034 -91 
Q 1250 -91 836 529 
Q 422 1150 422 2328 
Q 422 3509 836 4129 
Q 1250 4750 2034 4750 
z
" transform="scale(0.015625)"/>
       </defs>
       <use xlink:href="#DejaVuSans-30"/>
      </g>
     </g>
    </g>
    <g id="xtick_2">
     <g id="line2d_2">
      <g>
       <use xlink:href="#m4f84eb8461" x="189.258256" y="385.478125" style="stroke: #000000; stroke-width: 0.8"/>
      </g>
     </g>
     <g id="text_2">
      <!-- 20 -->
      <g transform="translate(182.895756 400.076562) scale(0.1 -0.1)">
       <defs>
        <path id="DejaVuSans-32" d="M 1228 531 
L 3431 531 
L 3431 0 
L 469 0 
L 469 531 
Q 828 903 1448 1529 
Q 2069 2156 2228 2338 
Q 2531 2678 2651 2914 
Q 2772 3150 2772 3378 
Q 2772 3750 2511 3984 
Q 2250 4219 1831 4219 
Q 1534 4219 1204 4116 
Q 875 4013 500 3803 
L 500 4441 
Q 881 4594 1212 4672 
Q 1544 4750 1819 4750 
Q 2544 4750 2975 4387 
Q 3406 4025 3406 3419 
Q 3406 3131 3298 2873 
Q 3191 2616 2906 2266 
Q 2828 2175 2409 1742 
Q 1991 1309 1228 531 
z
" transform="scale(0.015625)"/>
       </defs>
       <use xlink:href="#DejaVuSans-32"/>
       <use xlink:href="#DejaVuSans-30" transform="translate(63.623047 0)"/>
      </g>
     </g>
    </g>
    <g id="xtick_3">
     <g id="line2d_3">
      <g>
       <use xlink:href="#m4f84eb8461" x="310.742187" y="385.478125" style="stroke: #000000; stroke-width: 0.8"/>
      </g>
     </g>
     <g id="text_3">
      <!-- 40 -->
      <g transform="translate(304.379687 400.076562) scale(0.1 -0.1)">
       <defs>
        <path id="DejaVuSans-34" d="M 2419 4116 
L 825 1625 
L 2419 1625 
L 2419 4116 
z
M 2253 4666 
L 3047 4666 
L 3047 1625 
L 3713 1625 
L 3713 1100 
L 3047 1100 
L 3047 0 
L 2419 0 
L 2419 1100 
L 313 1100 
L 313 1709 
L 2253 4666 
z
" transform="scale(0.015625)"/>
       </defs>
       <use xlink:href="#DejaVuSans-34"/>
       <use xlink:href="#DejaVuSans-30" transform="translate(63.623047 0)"/>
      </g>
     </g>
    </g>
    <g id="xtick_4">
     <g id="line2d_4">
      <g>
       <use xlink:href="#m4f84eb8461" x="432.226117" y="385.478125" style="stroke: #000000; stroke-width: 0.8"/>
      </g>
     </g>
     <g id="text_4">
      <!-- 60 -->
      <g transform="translate(425.863617 400.076562) scale(0.1 -0.1)">
       <defs>
        <path id="DejaVuSans-36" d="M 2113 2584 
Q 1688 2584 1439 2293 
Q 1191 2003 1191 1497 
Q 1191 994 1439 701 
Q 1688 409 2113 409 
Q 2538 409 2786 701 
Q 3034 994 3034 1497 
Q 3034 2003 2786 2293 
Q 2538 2584 2113 2584 
z
M 3366 4563 
L 3366 3988 
Q 3128 4100 2886 4159 
Q 2644 4219 2406 4219 
Q 1781 4219 1451 3797 
Q 1122 3375 1075 2522 
Q 1259 2794 1537 2939 
Q 1816 3084 2150 3084 
Q 2853 3084 3261 2657 
Q 3669 2231 3669 1497 
Q 3669 778 3244 343 
Q 2819 -91 2113 -91 
Q 1303 -91 875 529 
Q 447 1150 447 2328 
Q 447 3434 972 4092 
Q 1497 4750 2381 4750 
Q 2619 4750 2861 4703 
Q 3103 4656 3366 4563 
z
" transform="scale(0.015625)"/>
       </defs>
       <use xlink:href="#DejaVuSans-36"/>
       <use xlink:href="#DejaVuSans-30" transform="translate(63.623047 0)"/>
      </g>
     </g>
    </g>
    <g id="xtick_5">
     <g id="line2d_5">
      <g>
       <use xlink:href="#m4f84eb8461" x="553.710047" y="385.478125" style="stroke: #000000; stroke-width: 0.8"/>
      </g>
     </g>
     <g id="text_5">
      <!-- 80 -->
      <g transform="translate(547.347547 400.076562) scale(0.1 -0.1)">
       <defs>
        <path id="DejaVuSans-38" d="M 2034 2216 
Q 1584 2216 1326 1975 
Q 1069 1734 1069 1313 
Q 1069 891 1326 650 
Q 1584 409 2034 409 
Q 2484 409 2743 651 
Q 3003 894 3003 1313 
Q 3003 1734 2745 1975 
Q 2488 2216 2034 2216 
z
M 1403 2484 
Q 997 2584 770 2862 
Q 544 3141 544 3541 
Q 544 4100 942 4425 
Q 1341 4750 2034 4750 
Q 2731 4750 3128 4425 
Q 3525 4100 3525 3541 
Q 3525 3141 3298 2862 
Q 3072 2584 2669 2484 
Q 3125 2378 3379 2068 
Q 3634 1759 3634 1313 
Q 3634 634 3220 271 
Q 2806 -91 2034 -91 
Q 1263 -91 848 271 
Q 434 634 434 1313 
Q 434 1759 690 2068 
Q 947 2378 1403 2484 
z
M 1172 3481 
Q 1172 3119 1398 2916 
Q 1625 2713 2034 2713 
Q 2441 2713 2670 2916 
Q 2900 3119 2900 3481 
Q 2900 3844 2670 4047 
Q 2441 4250 2034 4250 
Q 1625 4250 1398 4047 
Q 1172 3844 1172 3481 
z
" transform="scale(0.015625)"/>
       </defs>
       <use xlink:href="#DejaVuSans-38"/>
       <use xlink:href="#DejaVuSans-30" transform="translate(63.623047 0)"/>
      </g>
     </g>
    </g>
    <g id="xtick_6">
     <g id="line2d_6">
      <g>
       <use xlink:href="#m4f84eb8461" x="675.193977" y="385.478125" style="stroke: #000000; stroke-width: 0.8"/>
      </g>
     </g>
     <g id="text_6">
      <!-- 100 -->
      <g transform="translate(665.650227 400.076562) scale(0.1 -0.1)">
       <defs>
        <path id="DejaVuSans-31" d="M 794 531 
L 1825 531 
L 1825 4091 
L 703 3866 
L 703 4441 
L 1819 4666 
L 2450 4666 
L 2450 531 
L 3481 531 
L 3481 0 
L 794 0 
L 794 531 
z
" transform="scale(0.015625)"/>
       </defs>
       <use xlink:href="#DejaVuSans-31"/>
       <use xlink:href="#DejaVuSans-30" transform="translate(63.623047 0)"/>
       <use xlink:href="#DejaVuSans-30" transform="translate(127.246094 0)"/>
      </g>
     </g>
    </g>
    <g id="text_7">
     <!-- Epoch -->
     <g transform="translate(359.210312 413.754687) scale(0.1 -0.1)">
      <defs>
       <path id="DejaVuSans-45" d="M 628 4666 
L 3578 4666 
L 3578 4134 
L 1259 4134 
L 1259 2753 
L 3481 2753 
L 3481 2222 
L 1259 2222 
L 1259 531 
L 3634 531 
L 3634 0 
L 628 0 
L 628 4666 
z
" transform="scale(0.015625)"/>
       <path id="DejaVuSans-70" d="M 1159 525 
L 1159 -1331 
L 581 -1331 
L 581 3500 
L 1159 3500 
L 1159 2969 
Q 1341 3281 1617 3432 
Q 1894 3584 2278 3584 
Q 2916 3584 3314 3078 
Q 3713 2572 3713 1747 
Q 3713 922 3314 415 
Q 2916 -91 2278 -91 
Q 1894 -91 1617 61 
Q 1341 213 1159 525 
z
M 3116 1747 
Q 3116 2381 2855 2742 
Q 2594 3103 2138 3103 
Q 1681 3103 1420 2742 
Q 1159 2381 1159 1747 
Q 1159 1113 1420 752 
Q 1681 391 2138 391 
Q 2594 391 2855 752 
Q 3116 1113 3116 1747 
z
" transform="scale(0.015625)"/>
       <path id="DejaVuSans-6f" d="M 1959 3097 
Q 1497 3097 1228 2736 
Q 959 2375 959 1747 
Q 959 1119 1226 758 
Q 1494 397 1959 397 
Q 2419 397 2687 759 
Q 2956 1122 2956 1747 
Q 2956 2369 2687 2733 
Q 2419 3097 1959 3097 
z
M 1959 3584 
Q 2709 3584 3137 3096 
Q 3566 2609 3566 1747 
Q 3566 888 3137 398 
Q 2709 -91 1959 -91 
Q 1206 -91 779 398 
Q 353 888 353 1747 
Q 353 2609 779 3096 
Q 1206 3584 1959 3584 
z
" transform="scale(0.015625)"/>
       <path id="DejaVuSans-63" d="M 3122 3366 
L 3122 2828 
Q 2878 2963 2633 3030 
Q 2388 3097 2138 3097 
Q 1578 3097 1268 2742 
Q 959 2388 959 1747 
Q 959 1106 1268 751 
Q 1578 397 2138 397 
Q 2388 397 2633 464 
Q 2878 531 3122 666 
L 3122 134 
Q 2881 22 2623 -34 
Q 2366 -91 2075 -91 
Q 1284 -91 818 406 
Q 353 903 353 1747 
Q 353 2603 823 3093 
Q 1294 3584 2113 3584 
Q 2378 3584 2631 3529 
Q 2884 3475 3122 3366 
z
" transform="scale(0.015625)"/>
       <path id="DejaVuSans-68" d="M 3513 2113 
L 3513 0 
L 2938 0 
L 2938 2094 
Q 2938 2591 2744 2837 
Q 2550 3084 2163 3084 
Q 1697 3084 1428 2787 
Q 1159 2491 1159 1978 
L 1159 0 
L 581 0 
L 581 4863 
L 1159 4863 
L 1159 2956 
Q 1366 3272 1645 3428 
Q 1925 3584 2291 3584 
Q 2894 3584 3203 3211 
Q 3513 2838 3513 2113 
z
" transform="scale(0.015625)"/>
      </defs>
      <use xlink:href="#DejaVuSans-45"/>
      <use xlink:href="#DejaVuSans-70" transform="translate(63.183594 0)"/>
      <use xlink:href="#DejaVuSans-6f" transform="translate(126.660156 0)"/>
      <use xlink:href="#DejaVuSans-63" transform="translate(187.841797 0)"/>
      <use xlink:href="#DejaVuSans-68" transform="translate(242.822266 0)"/>
     </g>
    </g>
   </g>
   <g id="matplotlib.axis_2">
    <g id="ytick_1">
     <g id="line2d_7">
      <defs>
       <path id="mc7f951c43a" d="M 0 0 
L -3.5 0 
" style="stroke: #000000; stroke-width: 0.8"/>
      </defs>
      <g>
       <use xlink:href="#mc7f951c43a" x="43.78125" y="341.303733" style="stroke: #000000; stroke-width: 0.8"/>
      </g>
     </g>
     <g id="text_8">
      <!-- 0.4 -->
      <g transform="translate(20.878125 345.102952) scale(0.1 -0.1)">
       <defs>
        <path id="DejaVuSans-2e" d="M 684 794 
L 1344 794 
L 1344 0 
L 684 0 
L 684 794 
z
" transform="scale(0.015625)"/>
       </defs>
       <use xlink:href="#DejaVuSans-30"/>
       <use xlink:href="#DejaVuSans-2e" transform="translate(63.623047 0)"/>
       <use xlink:href="#DejaVuSans-34" transform="translate(95.410156 0)"/>
      </g>
     </g>
    </g>
    <g id="ytick_2">
     <g id="line2d_8">
      <g>
       <use xlink:href="#mc7f951c43a" x="43.78125" y="285.62075" style="stroke: #000000; stroke-width: 0.8"/>
      </g>
     </g>
     <g id="text_9">
      <!-- 0.5 -->
      <g transform="translate(20.878125 289.419969) scale(0.1 -0.1)">
       <defs>
        <path id="DejaVuSans-35" d="M 691 4666 
L 3169 4666 
L 3169 4134 
L 1269 4134 
L 1269 2991 
Q 1406 3038 1543 3061 
Q 1681 3084 1819 3084 
Q 2600 3084 3056 2656 
Q 3513 2228 3513 1497 
Q 3513 744 3044 326 
Q 2575 -91 1722 -91 
Q 1428 -91 1123 -41 
Q 819 9 494 109 
L 494 744 
Q 775 591 1075 516 
Q 1375 441 1709 441 
Q 2250 441 2565 725 
Q 2881 1009 2881 1497 
Q 2881 1984 2565 2268 
Q 2250 2553 1709 2553 
Q 1456 2553 1204 2497 
Q 953 2441 691 2322 
L 691 4666 
z
" transform="scale(0.015625)"/>
       </defs>
       <use xlink:href="#DejaVuSans-30"/>
       <use xlink:href="#DejaVuSans-2e" transform="translate(63.623047 0)"/>
       <use xlink:href="#DejaVuSans-35" transform="translate(95.410156 0)"/>
      </g>
     </g>
    </g>
    <g id="ytick_3">
     <g id="line2d_9">
      <g>
       <use xlink:href="#mc7f951c43a" x="43.78125" y="229.937766" style="stroke: #000000; stroke-width: 0.8"/>
      </g>
     </g>
     <g id="text_10">
      <!-- 0.6 -->
      <g transform="translate(20.878125 233.736985) scale(0.1 -0.1)">
       <use xlink:href="#DejaVuSans-30"/>
       <use xlink:href="#DejaVuSans-2e" transform="translate(63.623047 0)"/>
       <use xlink:href="#DejaVuSans-36" transform="translate(95.410156 0)"/>
      </g>
     </g>
    </g>
    <g id="ytick_4">
     <g id="line2d_10">
      <g>
       <use xlink:href="#mc7f951c43a" x="43.78125" y="174.254783" style="stroke: #000000; stroke-width: 0.8"/>
      </g>
     </g>
     <g id="text_11">
      <!-- 0.7 -->
      <g transform="translate(20.878125 178.054002) scale(0.1 -0.1)">
       <defs>
        <path id="DejaVuSans-37" d="M 525 4666 
L 3525 4666 
L 3525 4397 
L 1831 0 
L 1172 0 
L 2766 4134 
L 525 4134 
L 525 4666 
z
" transform="scale(0.015625)"/>
       </defs>
       <use xlink:href="#DejaVuSans-30"/>
       <use xlink:href="#DejaVuSans-2e" transform="translate(63.623047 0)"/>
       <use xlink:href="#DejaVuSans-37" transform="translate(95.410156 0)"/>
      </g>
     </g>
    </g>
    <g id="ytick_5">
     <g id="line2d_11">
      <g>
       <use xlink:href="#mc7f951c43a" x="43.78125" y="118.5718" style="stroke: #000000; stroke-width: 0.8"/>
      </g>
     </g>
     <g id="text_12">
      <!-- 0.8 -->
      <g transform="translate(20.878125 122.371019) scale(0.1 -0.1)">
       <use xlink:href="#DejaVuSans-30"/>
       <use xlink:href="#DejaVuSans-2e" transform="translate(63.623047 0)"/>
       <use xlink:href="#DejaVuSans-38" transform="translate(95.410156 0)"/>
      </g>
     </g>
    </g>
    <g id="ytick_6">
     <g id="line2d_12">
      <g>
       <use xlink:href="#mc7f951c43a" x="43.78125" y="62.888816" style="stroke: #000000; stroke-width: 0.8"/>
      </g>
     </g>
     <g id="text_13">
      <!-- 0.9 -->
      <g transform="translate(20.878125 66.688035) scale(0.1 -0.1)">
       <defs>
        <path id="DejaVuSans-39" d="M 703 97 
L 703 672 
Q 941 559 1184 500 
Q 1428 441 1663 441 
Q 2288 441 2617 861 
Q 2947 1281 2994 2138 
Q 2813 1869 2534 1725 
Q 2256 1581 1919 1581 
Q 1219 1581 811 2004 
Q 403 2428 403 3163 
Q 403 3881 828 4315 
Q 1253 4750 1959 4750 
Q 2769 4750 3195 4129 
Q 3622 3509 3622 2328 
Q 3622 1225 3098 567 
Q 2575 -91 1691 -91 
Q 1453 -91 1209 -44 
Q 966 3 703 97 
z
M 1959 2075 
Q 2384 2075 2632 2365 
Q 2881 2656 2881 3163 
Q 2881 3666 2632 3958 
Q 2384 4250 1959 4250 
Q 1534 4250 1286 3958 
Q 1038 3666 1038 3163 
Q 1038 2656 1286 2365 
Q 1534 2075 1959 2075 
z
" transform="scale(0.015625)"/>
       </defs>
       <use xlink:href="#DejaVuSans-30"/>
       <use xlink:href="#DejaVuSans-2e" transform="translate(63.623047 0)"/>
       <use xlink:href="#DejaVuSans-39" transform="translate(95.410156 0)"/>
      </g>
     </g>
    </g>
    <g id="text_14">
     <!-- Train Accuracy -->
     <g transform="translate(14.798438 240.309062) rotate(-90) scale(0.1 -0.1)">
      <defs>
       <path id="DejaVuSans-54" d="M -19 4666 
L 3928 4666 
L 3928 4134 
L 2272 4134 
L 2272 0 
L 1638 0 
L 1638 4134 
L -19 4134 
L -19 4666 
z
" transform="scale(0.015625)"/>
       <path id="DejaVuSans-72" d="M 2631 2963 
Q 2534 3019 2420 3045 
Q 2306 3072 2169 3072 
Q 1681 3072 1420 2755 
Q 1159 2438 1159 1844 
L 1159 0 
L 581 0 
L 581 3500 
L 1159 3500 
L 1159 2956 
Q 1341 3275 1631 3429 
Q 1922 3584 2338 3584 
Q 2397 3584 2469 3576 
Q 2541 3569 2628 3553 
L 2631 2963 
z
" transform="scale(0.015625)"/>
       <path id="DejaVuSans-61" d="M 2194 1759 
Q 1497 1759 1228 1600 
Q 959 1441 959 1056 
Q 959 750 1161 570 
Q 1363 391 1709 391 
Q 2188 391 2477 730 
Q 2766 1069 2766 1631 
L 2766 1759 
L 2194 1759 
z
M 3341 1997 
L 3341 0 
L 2766 0 
L 2766 531 
Q 2569 213 2275 61 
Q 1981 -91 1556 -91 
Q 1019 -91 701 211 
Q 384 513 384 1019 
Q 384 1609 779 1909 
Q 1175 2209 1959 2209 
L 2766 2209 
L 2766 2266 
Q 2766 2663 2505 2880 
Q 2244 3097 1772 3097 
Q 1472 3097 1187 3025 
Q 903 2953 641 2809 
L 641 3341 
Q 956 3463 1253 3523 
Q 1550 3584 1831 3584 
Q 2591 3584 2966 3190 
Q 3341 2797 3341 1997 
z
" transform="scale(0.015625)"/>
       <path id="DejaVuSans-69" d="M 603 3500 
L 1178 3500 
L 1178 0 
L 603 0 
L 603 3500 
z
M 603 4863 
L 1178 4863 
L 1178 4134 
L 603 4134 
L 603 4863 
z
" transform="scale(0.015625)"/>
       <path id="DejaVuSans-6e" d="M 3513 2113 
L 3513 0 
L 2938 0 
L 2938 2094 
Q 2938 2591 2744 2837 
Q 2550 3084 2163 3084 
Q 1697 3084 1428 2787 
Q 1159 2491 1159 1978 
L 1159 0 
L 581 0 
L 581 3500 
L 1159 3500 
L 1159 2956 
Q 1366 3272 1645 3428 
Q 1925 3584 2291 3584 
Q 2894 3584 3203 3211 
Q 3513 2838 3513 2113 
z
" transform="scale(0.015625)"/>
       <path id="DejaVuSans-20" transform="scale(0.015625)"/>
       <path id="DejaVuSans-41" d="M 2188 4044 
L 1331 1722 
L 3047 1722 
L 2188 4044 
z
M 1831 4666 
L 2547 4666 
L 4325 0 
L 3669 0 
L 3244 1197 
L 1141 1197 
L 716 0 
L 50 0 
L 1831 4666 
z
" transform="scale(0.015625)"/>
       <path id="DejaVuSans-75" d="M 544 1381 
L 544 3500 
L 1119 3500 
L 1119 1403 
Q 1119 906 1312 657 
Q 1506 409 1894 409 
Q 2359 409 2629 706 
Q 2900 1003 2900 1516 
L 2900 3500 
L 3475 3500 
L 3475 0 
L 2900 0 
L 2900 538 
Q 2691 219 2414 64 
Q 2138 -91 1772 -91 
Q 1169 -91 856 284 
Q 544 659 544 1381 
z
M 1991 3584 
L 1991 3584 
z
" transform="scale(0.015625)"/>
       <path id="DejaVuSans-79" d="M 2059 -325 
Q 1816 -950 1584 -1140 
Q 1353 -1331 966 -1331 
L 506 -1331 
L 506 -850 
L 844 -850 
Q 1081 -850 1212 -737 
Q 1344 -625 1503 -206 
L 1606 56 
L 191 3500 
L 800 3500 
L 1894 763 
L 2988 3500 
L 3597 3500 
L 2059 -325 
z
" transform="scale(0.015625)"/>
      </defs>
      <use xlink:href="#DejaVuSans-54"/>
      <use xlink:href="#DejaVuSans-72" transform="translate(46.333984 0)"/>
      <use xlink:href="#DejaVuSans-61" transform="translate(87.447266 0)"/>
      <use xlink:href="#DejaVuSans-69" transform="translate(148.726562 0)"/>
      <use xlink:href="#DejaVuSans-6e" transform="translate(176.509766 0)"/>
      <use xlink:href="#DejaVuSans-20" transform="translate(239.888672 0)"/>
      <use xlink:href="#DejaVuSans-41" transform="translate(271.675781 0)"/>
      <use xlink:href="#DejaVuSans-63" transform="translate(338.333984 0)"/>
      <use xlink:href="#DejaVuSans-63" transform="translate(393.314453 0)"/>
      <use xlink:href="#DejaVuSans-75" transform="translate(448.294922 0)"/>
      <use xlink:href="#DejaVuSans-72" transform="translate(511.673828 0)"/>
      <use xlink:href="#DejaVuSans-61" transform="translate(552.787109 0)"/>
      <use xlink:href="#DejaVuSans-63" transform="translate(614.066406 0)"/>
      <use xlink:href="#DejaVuSans-79" transform="translate(669.046875 0)"/>
     </g>
    </g>
   </g>
   <g id="line2d_13">
    <path d="M 73.848523 347.34865 
L 79.922719 237.842658 
L 85.996916 140.426499 
L 92.071112 134.846576 
L 98.145309 106.714463 
L 104.219505 91.834668 
L 110.293702 81.837306 
L 116.367898 78.58235 
L 122.442095 78.117357 
L 128.516291 75.792389 
L 134.590488 86.022248 
L 140.664684 72.537434 
L 146.738881 73.234924 
L 152.813077 72.07244 
L 158.887274 69.747472 
L 164.96147 78.814847 
L 171.035667 71.37495 
L 177.109863 67.190007 
L 183.18406 68.584988 
L 189.258256 64.167549 
L 195.332453 67.655001 
L 201.406649 65.56253 
L 207.480846 61.14509 
L 213.555042 64.632542 
L 219.629239 67.655001 
L 225.703435 64.167549 
L 231.777632 62.540071 
L 237.851829 60.680097 
L 243.926025 63.702555 
L 250.000222 62.075078 
L 256.074418 64.400046 
L 262.148615 62.772568 
L 268.222811 61.377587 
L 274.297008 62.307574 
L 280.371204 60.4476 
L 286.445401 60.215103 
L 292.519597 58.587626 
L 298.593794 58.587626 
L 304.66799 58.122632 
L 310.742187 58.355129 
L 316.816383 57.192645 
L 322.89058 58.122632 
L 328.964776 60.680097 
L 335.038973 57.890135 
L 341.113169 57.890135 
L 347.187366 55.33267 
L 353.261562 55.565167 
L 359.335759 56.960148 
L 365.409955 57.192645 
L 371.484152 53.705193 
L 377.558348 61.377587 
L 383.632545 57.657638 
L 389.706741 57.192645 
L 395.780938 57.425142 
L 401.855134 58.820122 
L 407.929331 58.355129 
L 414.003527 54.867677 
L 420.077724 57.890135 
L 426.15192 55.100174 
L 432.226117 54.402683 
L 438.300313 57.425142 
L 444.37451 56.030161 
L 450.448706 53.93769 
L 456.522903 53.705193 
L 462.597099 54.63518 
L 468.671296 57.192645 
L 474.745492 52.542709 
L 480.819689 48.82276 
L 486.893885 49.985244 
L 492.968082 50.682734 
L 499.042278 50.682734 
L 505.116475 47.427779 
L 511.190671 46.497792 
L 517.264868 48.12527 
L 523.339065 45.567805 
L 529.413261 47.660276 
L 535.487458 51.612722 
L 541.561654 54.63518 
L 547.635851 47.427779 
L 553.710047 45.335308 
L 559.784244 45.800302 
L 565.85844 45.335308 
L 571.932637 46.032798 
L 578.006833 43.940327 
L 584.08103 43.475334 
L 590.155226 44.637818 
L 596.229423 42.080353 
L 602.303619 39.755385 
L 608.377816 42.31285 
L 614.452012 40.685372 
L 620.526209 43.707831 
L 626.600405 45.102811 
L 632.674602 41.615359 
L 638.748798 42.545347 
L 644.822995 41.847856 
L 650.897191 41.847856 
L 656.971388 46.032798 
L 663.045584 42.080353 
L 669.119781 43.940327 
L 675.193977 38.825398 
" clip-path="url(#pa3ce57e8c1)" style="fill: none; stroke: #1f77b4; stroke-width: 1.5; stroke-linecap: square"/>
   </g>
   <g id="line2d_14">
    <path d="M 73.848523 350.603605 
L 79.922719 154.376307 
L 85.996916 148.33139 
L 92.071112 148.33139 
L 98.145309 139.496512 
L 104.219505 138.799021 
L 110.293702 129.266653 
L 116.367898 106.249469 
L 122.442095 86.022248 
L 128.516291 82.069802 
L 134.590488 84.162274 
L 140.664684 83.464783 
L 146.738881 83.929777 
L 152.813077 77.419866 
L 158.887274 81.372312 
L 164.96147 79.047344 
L 171.035667 79.512338 
L 177.109863 80.907318 
L 183.18406 82.302299 
L 189.258256 74.862402 
L 195.332453 77.652363 
L 201.406649 76.722376 
L 207.480846 76.257382 
L 213.555042 77.18737 
L 219.629239 74.629905 
L 225.703435 75.559892 
L 231.777632 74.397408 
L 237.851829 78.349854 
L 243.926025 72.76993 
L 250.000222 73.002427 
L 256.074418 73.467421 
L 262.148615 75.792389 
L 268.222811 76.024886 
L 274.297008 71.839943 
L 280.371204 75.094898 
L 286.445401 77.18737 
L 292.519597 76.024886 
L 298.593794 78.58235 
L 304.66799 71.142453 
L 310.742187 71.839943 
L 316.816383 72.537434 
L 322.89058 78.814847 
L 328.964776 71.37495 
L 335.038973 73.932414 
L 341.113169 74.397408 
L 347.187366 71.607446 
L 353.261562 71.37495 
L 359.335759 72.76993 
L 365.409955 71.607446 
L 371.484152 74.629905 
L 377.558348 69.282478 
L 383.632545 77.419866 
L 389.706741 76.257382 
L 395.780938 72.76993 
L 401.855134 70.677459 
L 407.929331 71.37495 
L 414.003527 74.164911 
L 420.077724 71.37495 
L 426.15192 72.76993 
L 432.226117 73.002427 
L 438.300313 70.909956 
L 444.37451 69.049982 
L 450.448706 66.95751 
L 456.522903 68.119994 
L 462.597099 69.049982 
L 468.671296 66.027523 
L 474.745492 64.400046 
L 480.819689 65.795026 
L 486.893885 68.119994 
L 492.968082 62.075078 
L 499.042278 64.167549 
L 505.116475 65.795026 
L 511.190671 61.377587 
L 517.264868 63.005065 
L 523.339065 62.307574 
L 529.413261 60.4476 
L 535.487458 59.517613 
L 541.561654 62.307574 
L 547.635851 68.584988 
L 553.710047 61.842581 
L 559.784244 60.215103 
L 565.85844 61.377587 
L 571.932637 59.75011 
L 578.006833 61.610084 
L 584.08103 63.702555 
L 590.155226 60.215103 
L 596.229423 61.610084 
L 602.303619 59.982606 
L 608.377816 61.610084 
L 614.452012 59.285116 
L 620.526209 59.285116 
L 626.600405 60.215103 
L 632.674602 63.470058 
L 638.748798 61.377587 
L 644.822995 59.75011 
L 650.897191 60.215103 
L 656.971388 59.285116 
L 663.045584 59.517613 
L 669.119781 63.935052 
L 675.193977 59.75011 
" clip-path="url(#pa3ce57e8c1)" style="fill: none; stroke: #ff7f0e; stroke-width: 1.5; stroke-linecap: square"/>
   </g>
   <g id="line2d_15">
    <path d="M 73.848523 368.970852 
L 79.922719 238.307651 
L 85.996916 145.076435 
L 92.071112 136.241556 
L 98.145309 123.454233 
L 104.219505 108.109444 
L 110.293702 94.392133 
L 116.367898 82.99979 
L 122.442095 74.629905 
L 128.516291 79.512338 
L 134.590488 79.744834 
L 140.664684 72.76993 
L 146.738881 76.489879 
L 152.813077 72.537434 
L 158.887274 72.76993 
L 164.96147 71.839943 
L 171.035667 76.024886 
L 177.109863 76.722376 
L 183.18406 75.094898 
L 189.258256 72.304937 
L 195.332453 73.002427 
L 201.406649 70.677459 
L 207.480846 72.537434 
L 213.555042 69.747472 
L 219.629239 70.444962 
L 225.703435 72.07244 
L 231.777632 69.514975 
L 237.851829 69.049982 
L 243.926025 71.839943 
L 250.000222 71.37495 
L 256.074418 67.887498 
L 262.148615 69.282478 
L 268.222811 66.725014 
L 274.297008 65.56253 
L 280.371204 75.327395 
L 286.445401 69.979969 
L 292.519597 65.795026 
L 298.593794 63.470058 
L 304.66799 65.330033 
L 310.742187 68.352491 
L 316.816383 63.005065 
L 322.89058 65.097536 
L 328.964776 64.632542 
L 335.038973 60.680097 
L 341.113169 63.935052 
L 347.187366 64.167549 
L 353.261562 64.632542 
L 359.335759 61.842581 
L 365.409955 60.215103 
L 371.484152 61.842581 
L 377.558348 59.285116 
L 383.632545 59.517613 
L 389.706741 57.890135 
L 395.780938 63.935052 
L 401.855134 58.820122 
L 407.929331 59.052619 
L 414.003527 71.142453 
L 420.077724 72.76993 
L 426.15192 60.215103 
L 432.226117 58.355129 
L 438.300313 59.75011 
L 444.37451 59.75011 
L 450.448706 58.355129 
L 456.522903 57.192645 
L 462.597099 55.100174 
L 468.671296 55.33267 
L 474.745492 55.565167 
L 480.819689 60.912594 
L 486.893885 64.167549 
L 492.968082 57.657638 
L 499.042278 56.960148 
L 505.116475 57.890135 
L 511.190671 56.727651 
L 517.264868 58.587626 
L 523.339065 74.164911 
L 529.413261 67.190007 
L 535.487458 67.887498 
L 541.561654 63.005065 
L 547.635851 61.14509 
L 553.710047 57.192645 
L 559.784244 57.192645 
L 565.85844 58.587626 
L 571.932637 56.262658 
L 578.006833 56.262658 
L 584.08103 54.867677 
L 590.155226 55.100174 
L 596.229423 56.727651 
L 602.303619 55.565167 
L 608.377816 55.100174 
L 614.452012 59.285116 
L 620.526209 63.470058 
L 626.600405 59.285116 
L 632.674602 55.33267 
L 638.748798 54.867677 
L 644.822995 55.100174 
L 650.897191 71.142453 
L 656.971388 65.56253 
L 663.045584 56.727651 
L 669.119781 56.495154 
L 675.193977 55.33267 
" clip-path="url(#pa3ce57e8c1)" style="fill: none; stroke: #2ca02c; stroke-width: 1.5; stroke-linecap: square"/>
   </g>
   <g id="line2d_16">
    <path d="M 73.848523 342.466217 
L 79.922719 191.808291 
L 85.996916 147.6339 
L 92.071112 141.82148 
L 98.145309 136.00906 
L 104.219505 121.361761 
L 110.293702 118.5718 
L 116.367898 100.204553 
L 122.442095 87.882222 
L 128.516291 86.487242 
L 134.590488 85.092261 
L 140.664684 82.302299 
L 146.738881 77.652363 
L 152.813077 83.464783 
L 158.887274 80.907318 
L 164.96147 76.722376 
L 171.035667 76.257382 
L 177.109863 74.629905 
L 183.18406 76.722376 
L 189.258256 78.117357 
L 195.332453 74.629905 
L 201.406649 71.839943 
L 207.480846 79.512338 
L 213.555042 72.76993 
L 219.629239 77.652363 
L 225.703435 74.862402 
L 231.777632 76.954873 
L 237.851829 75.792389 
L 243.926025 74.397408 
L 250.000222 73.699918 
L 256.074418 70.212466 
L 262.148615 70.212466 
L 268.222811 68.584988 
L 274.297008 67.655001 
L 280.371204 67.887498 
L 286.445401 64.632542 
L 292.519597 63.005065 
L 298.593794 63.005065 
L 304.66799 62.075078 
L 310.742187 62.307574 
L 316.816383 60.215103 
L 322.89058 61.842581 
L 328.964776 62.075078 
L 335.038973 62.772568 
L 341.113169 61.14509 
L 347.187366 61.610084 
L 353.261562 63.470058 
L 359.335759 59.75011 
L 365.409955 59.052619 
L 371.484152 59.285116 
L 377.558348 58.820122 
L 383.632545 58.122632 
L 389.706741 57.890135 
L 395.780938 60.680097 
L 401.855134 58.122632 
L 407.929331 62.540071 
L 414.003527 60.215103 
L 420.077724 58.820122 
L 426.15192 59.285116 
L 432.226117 58.355129 
L 438.300313 58.355129 
L 444.37451 60.215103 
L 450.448706 58.587626 
L 456.522903 57.425142 
L 462.597099 60.4476 
L 468.671296 58.820122 
L 474.745492 60.4476 
L 480.819689 59.052619 
L 486.893885 56.262658 
L 492.968082 58.355129 
L 499.042278 59.982606 
L 505.116475 57.192645 
L 511.190671 58.587626 
L 517.264868 64.632542 
L 523.339065 57.425142 
L 529.413261 60.680097 
L 535.487458 58.122632 
L 541.561654 58.587626 
L 547.635851 62.307574 
L 553.710047 56.727651 
L 559.784244 58.355129 
L 565.85844 59.285116 
L 571.932637 58.355129 
L 578.006833 58.122632 
L 584.08103 57.657638 
L 590.155226 57.425142 
L 596.229423 57.425142 
L 602.303619 58.820122 
L 608.377816 56.960148 
L 614.452012 56.262658 
L 620.526209 55.797664 
L 626.600405 59.285116 
L 632.674602 61.377587 
L 638.748798 57.425142 
L 644.822995 58.820122 
L 650.897191 58.122632 
L 656.971388 57.425142 
L 663.045584 57.657638 
L 669.119781 57.890135 
L 675.193977 56.727651 
" clip-path="url(#pa3ce57e8c1)" style="fill: none; stroke: #d62728; stroke-width: 1.5; stroke-linecap: square"/>
   </g>
   <g id="line2d_17">
    <path d="M 73.848523 346.741888 
L 79.922719 211.950025 
L 85.996916 142.230096 
L 92.071112 135.490503 
L 98.145309 107.370131 
L 104.219505 97.841741 
L 110.293702 83.200556 
L 116.367898 82.038557 
L 122.442095 85.059754 
L 128.516291 82.038557 
L 134.590488 77.622961 
L 140.664684 80.644158 
L 146.738881 79.24976 
L 152.813077 79.01736 
L 158.887274 79.946959 
L 164.96147 79.24976 
L 171.035667 81.573757 
L 177.109863 77.855361 
L 183.18406 76.460963 
L 189.258256 81.806157 
L 195.332453 77.622961 
L 201.406649 72.974966 
L 207.480846 73.207366 
L 213.555042 74.834164 
L 219.629239 72.045367 
L 225.703435 78.087761 
L 231.777632 75.763763 
L 237.851829 73.439766 
L 243.926025 76.693362 
L 250.000222 72.045367 
L 256.074418 69.48897 
L 262.148615 71.115768 
L 268.222811 76.925762 
L 274.297008 68.326971 
L 280.371204 67.397372 
L 286.445401 69.02417 
L 292.519597 68.79177 
L 298.593794 68.326971 
L 304.66799 62.981776 
L 310.742187 65.305774 
L 316.816383 65.305774 
L 322.89058 64.608575 
L 328.964776 66.002973 
L 335.038973 64.840974 
L 341.113169 69.721369 
L 347.187366 62.516977 
L 353.261562 63.678976 
L 359.335759 62.284577 
L 365.409955 62.052177 
L 371.484152 64.143775 
L 377.558348 62.284577 
L 383.632545 61.587378 
L 389.706741 58.566181 
L 395.780938 56.706983 
L 401.855134 56.706983 
L 407.929331 60.657779 
L 414.003527 54.615385 
L 420.077724 56.706983 
L 426.15192 52.523787 
L 432.226117 56.242183 
L 438.300313 51.594188 
L 444.37451 51.129388 
L 450.448706 49.96739 
L 456.522903 52.058987 
L 462.597099 49.73499 
L 468.671296 47.410992 
L 474.745492 45.551794 
L 480.819689 48.108191 
L 486.893885 50.896989 
L 492.968082 57.868982 
L 499.042278 59.26338 
L 505.116475 46.713793 
L 511.190671 49.96739 
L 517.264868 47.410992 
L 523.339065 47.410992 
L 529.413261 58.333781 
L 535.487458 55.080184 
L 541.561654 48.805391 
L 547.635851 52.523787 
L 553.710047 47.410992 
L 559.784244 46.016594 
L 565.85844 46.713793 
L 571.932637 47.875792 
L 578.006833 44.854595 
L 584.08103 46.248993 
L 590.155226 46.016594 
L 596.229423 47.643392 
L 602.303619 46.016594 
L 608.377816 47.410992 
L 614.452012 46.713793 
L 620.526209 46.713793 
L 626.600405 47.410992 
L 632.674602 43.460196 
L 638.748798 43.227796 
L 644.822995 43.924996 
L 650.897191 45.086995 
L 656.971388 44.854595 
L 663.045584 46.248993 
L 669.119781 43.692596 
L 675.193977 43.692596 
" clip-path="url(#pa3ce57e8c1)" style="fill: none; stroke: #9467bd; stroke-width: 1.5; stroke-linecap: square"/>
   </g>
   <g id="patch_3">
    <path d="M 43.78125 385.478125 
L 43.78125 22.318125 
" style="fill: none; stroke: #000000; stroke-width: 0.8; stroke-linejoin: miter; stroke-linecap: square"/>
   </g>
   <g id="patch_4">
    <path d="M 705.26125 385.478125 
L 705.26125 22.318125 
" style="fill: none; stroke: #000000; stroke-width: 0.8; stroke-linejoin: miter; stroke-linecap: square"/>
   </g>
   <g id="patch_5">
    <path d="M 43.78125 385.478125 
L 705.26125 385.478125 
" style="fill: none; stroke: #000000; stroke-width: 0.8; stroke-linejoin: miter; stroke-linecap: square"/>
   </g>
   <g id="patch_6">
    <path d="M 43.78125 22.318125 
L 705.26125 22.318125 
" style="fill: none; stroke: #000000; stroke-width: 0.8; stroke-linejoin: miter; stroke-linecap: square"/>
   </g>
   <g id="text_15">
    <!-- Combined Train Accuracy -->
    <g transform="translate(298.436563 16.318125) scale(0.12 -0.12)">
     <defs>
      <path id="DejaVuSans-43" d="M 4122 4306 
L 4122 3641 
Q 3803 3938 3442 4084 
Q 3081 4231 2675 4231 
Q 1875 4231 1450 3742 
Q 1025 3253 1025 2328 
Q 1025 1406 1450 917 
Q 1875 428 2675 428 
Q 3081 428 3442 575 
Q 3803 722 4122 1019 
L 4122 359 
Q 3791 134 3420 21 
Q 3050 -91 2638 -91 
Q 1578 -91 968 557 
Q 359 1206 359 2328 
Q 359 3453 968 4101 
Q 1578 4750 2638 4750 
Q 3056 4750 3426 4639 
Q 3797 4528 4122 4306 
z
" transform="scale(0.015625)"/>
      <path id="DejaVuSans-6d" d="M 3328 2828 
Q 3544 3216 3844 3400 
Q 4144 3584 4550 3584 
Q 5097 3584 5394 3201 
Q 5691 2819 5691 2113 
L 5691 0 
L 5113 0 
L 5113 2094 
Q 5113 2597 4934 2840 
Q 4756 3084 4391 3084 
Q 3944 3084 3684 2787 
Q 3425 2491 3425 1978 
L 3425 0 
L 2847 0 
L 2847 2094 
Q 2847 2600 2669 2842 
Q 2491 3084 2119 3084 
Q 1678 3084 1418 2786 
Q 1159 2488 1159 1978 
L 1159 0 
L 581 0 
L 581 3500 
L 1159 3500 
L 1159 2956 
Q 1356 3278 1631 3431 
Q 1906 3584 2284 3584 
Q 2666 3584 2933 3390 
Q 3200 3197 3328 2828 
z
" transform="scale(0.015625)"/>
      <path id="DejaVuSans-62" d="M 3116 1747 
Q 3116 2381 2855 2742 
Q 2594 3103 2138 3103 
Q 1681 3103 1420 2742 
Q 1159 2381 1159 1747 
Q 1159 1113 1420 752 
Q 1681 391 2138 391 
Q 2594 391 2855 752 
Q 3116 1113 3116 1747 
z
M 1159 2969 
Q 1341 3281 1617 3432 
Q 1894 3584 2278 3584 
Q 2916 3584 3314 3078 
Q 3713 2572 3713 1747 
Q 3713 922 3314 415 
Q 2916 -91 2278 -91 
Q 1894 -91 1617 61 
Q 1341 213 1159 525 
L 1159 0 
L 581 0 
L 581 4863 
L 1159 4863 
L 1159 2969 
z
" transform="scale(0.015625)"/>
      <path id="DejaVuSans-65" d="M 3597 1894 
L 3597 1613 
L 953 1613 
Q 991 1019 1311 708 
Q 1631 397 2203 397 
Q 2534 397 2845 478 
Q 3156 559 3463 722 
L 3463 178 
Q 3153 47 2828 -22 
Q 2503 -91 2169 -91 
Q 1331 -91 842 396 
Q 353 884 353 1716 
Q 353 2575 817 3079 
Q 1281 3584 2069 3584 
Q 2775 3584 3186 3129 
Q 3597 2675 3597 1894 
z
M 3022 2063 
Q 3016 2534 2758 2815 
Q 2500 3097 2075 3097 
Q 1594 3097 1305 2825 
Q 1016 2553 972 2059 
L 3022 2063 
z
" transform="scale(0.015625)"/>
      <path id="DejaVuSans-64" d="M 2906 2969 
L 2906 4863 
L 3481 4863 
L 3481 0 
L 2906 0 
L 2906 525 
Q 2725 213 2448 61 
Q 2172 -91 1784 -91 
Q 1150 -91 751 415 
Q 353 922 353 1747 
Q 353 2572 751 3078 
Q 1150 3584 1784 3584 
Q 2172 3584 2448 3432 
Q 2725 3281 2906 2969 
z
M 947 1747 
Q 947 1113 1208 752 
Q 1469 391 1925 391 
Q 2381 391 2643 752 
Q 2906 1113 2906 1747 
Q 2906 2381 2643 2742 
Q 2381 3103 1925 3103 
Q 1469 3103 1208 2742 
Q 947 2381 947 1747 
z
" transform="scale(0.015625)"/>
     </defs>
     <use xlink:href="#DejaVuSans-43"/>
     <use xlink:href="#DejaVuSans-6f" transform="translate(69.824219 0)"/>
     <use xlink:href="#DejaVuSans-6d" transform="translate(131.005859 0)"/>
     <use xlink:href="#DejaVuSans-62" transform="translate(228.417969 0)"/>
     <use xlink:href="#DejaVuSans-69" transform="translate(291.894531 0)"/>
     <use xlink:href="#DejaVuSans-6e" transform="translate(319.677734 0)"/>
     <use xlink:href="#DejaVuSans-65" transform="translate(383.056641 0)"/>
     <use xlink:href="#DejaVuSans-64" transform="translate(444.580078 0)"/>
     <use xlink:href="#DejaVuSans-20" transform="translate(508.056641 0)"/>
     <use xlink:href="#DejaVuSans-54" transform="translate(539.84375 0)"/>
     <use xlink:href="#DejaVuSans-72" transform="translate(586.177734 0)"/>
     <use xlink:href="#DejaVuSans-61" transform="translate(627.291016 0)"/>
     <use xlink:href="#DejaVuSans-69" transform="translate(688.570312 0)"/>
     <use xlink:href="#DejaVuSans-6e" transform="translate(716.353516 0)"/>
     <use xlink:href="#DejaVuSans-20" transform="translate(779.732422 0)"/>
     <use xlink:href="#DejaVuSans-41" transform="translate(811.519531 0)"/>
     <use xlink:href="#DejaVuSans-63" transform="translate(878.177734 0)"/>
     <use xlink:href="#DejaVuSans-63" transform="translate(933.158203 0)"/>
     <use xlink:href="#DejaVuSans-75" transform="translate(988.138672 0)"/>
     <use xlink:href="#DejaVuSans-72" transform="translate(1051.517578 0)"/>
     <use xlink:href="#DejaVuSans-61" transform="translate(1092.630859 0)"/>
     <use xlink:href="#DejaVuSans-63" transform="translate(1153.910156 0)"/>
     <use xlink:href="#DejaVuSans-79" transform="translate(1208.890625 0)"/>
    </g>
   </g>
   <g id="legend_1">
    <g id="patch_7">
     <path d="M 636.08625 380.478125 
L 698.26125 380.478125 
Q 700.26125 380.478125 700.26125 378.478125 
L 700.26125 306.0875 
Q 700.26125 304.0875 698.26125 304.0875 
L 636.08625 304.0875 
Q 634.08625 304.0875 634.08625 306.0875 
L 634.08625 378.478125 
Q 634.08625 380.478125 636.08625 380.478125 
z
" style="fill: #ffffff; opacity: 0.8; stroke: #cccccc; stroke-linejoin: miter"/>
    </g>
    <g id="line2d_18">
     <path d="M 638.08625 312.185937 
L 648.08625 312.185937 
L 658.08625 312.185937 
" style="fill: none; stroke: #1f77b4; stroke-width: 1.5; stroke-linecap: square"/>
    </g>
    <g id="text_16">
     <!-- Fold 1 -->
     <g transform="translate(666.08625 315.685937) scale(0.1 -0.1)">
      <defs>
       <path id="DejaVuSans-46" d="M 628 4666 
L 3309 4666 
L 3309 4134 
L 1259 4134 
L 1259 2759 
L 3109 2759 
L 3109 2228 
L 1259 2228 
L 1259 0 
L 628 0 
L 628 4666 
z
" transform="scale(0.015625)"/>
       <path id="DejaVuSans-6c" d="M 603 4863 
L 1178 4863 
L 1178 0 
L 603 0 
L 603 4863 
z
" transform="scale(0.015625)"/>
      </defs>
      <use xlink:href="#DejaVuSans-46"/>
      <use xlink:href="#DejaVuSans-6f" transform="translate(53.894531 0)"/>
      <use xlink:href="#DejaVuSans-6c" transform="translate(115.076172 0)"/>
      <use xlink:href="#DejaVuSans-64" transform="translate(142.859375 0)"/>
      <use xlink:href="#DejaVuSans-20" transform="translate(206.335938 0)"/>
      <use xlink:href="#DejaVuSans-31" transform="translate(238.123047 0)"/>
     </g>
    </g>
    <g id="line2d_19">
     <path d="M 638.08625 326.864062 
L 648.08625 326.864062 
L 658.08625 326.864062 
" style="fill: none; stroke: #ff7f0e; stroke-width: 1.5; stroke-linecap: square"/>
    </g>
    <g id="text_17">
     <!-- Fold 2 -->
     <g transform="translate(666.08625 330.364062) scale(0.1 -0.1)">
      <use xlink:href="#DejaVuSans-46"/>
      <use xlink:href="#DejaVuSans-6f" transform="translate(53.894531 0)"/>
      <use xlink:href="#DejaVuSans-6c" transform="translate(115.076172 0)"/>
      <use xlink:href="#DejaVuSans-64" transform="translate(142.859375 0)"/>
      <use xlink:href="#DejaVuSans-20" transform="translate(206.335938 0)"/>
      <use xlink:href="#DejaVuSans-32" transform="translate(238.123047 0)"/>
     </g>
    </g>
    <g id="line2d_20">
     <path d="M 638.08625 341.542187 
L 648.08625 341.542187 
L 658.08625 341.542187 
" style="fill: none; stroke: #2ca02c; stroke-width: 1.5; stroke-linecap: square"/>
    </g>
    <g id="text_18">
     <!-- Fold 3 -->
     <g transform="translate(666.08625 345.042187) scale(0.1 -0.1)">
      <defs>
       <path id="DejaVuSans-33" d="M 2597 2516 
Q 3050 2419 3304 2112 
Q 3559 1806 3559 1356 
Q 3559 666 3084 287 
Q 2609 -91 1734 -91 
Q 1441 -91 1130 -33 
Q 819 25 488 141 
L 488 750 
Q 750 597 1062 519 
Q 1375 441 1716 441 
Q 2309 441 2620 675 
Q 2931 909 2931 1356 
Q 2931 1769 2642 2001 
Q 2353 2234 1838 2234 
L 1294 2234 
L 1294 2753 
L 1863 2753 
Q 2328 2753 2575 2939 
Q 2822 3125 2822 3475 
Q 2822 3834 2567 4026 
Q 2313 4219 1838 4219 
Q 1578 4219 1281 4162 
Q 984 4106 628 3988 
L 628 4550 
Q 988 4650 1302 4700 
Q 1616 4750 1894 4750 
Q 2613 4750 3031 4423 
Q 3450 4097 3450 3541 
Q 3450 3153 3228 2886 
Q 3006 2619 2597 2516 
z
" transform="scale(0.015625)"/>
      </defs>
      <use xlink:href="#DejaVuSans-46"/>
      <use xlink:href="#DejaVuSans-6f" transform="translate(53.894531 0)"/>
      <use xlink:href="#DejaVuSans-6c" transform="translate(115.076172 0)"/>
      <use xlink:href="#DejaVuSans-64" transform="translate(142.859375 0)"/>
      <use xlink:href="#DejaVuSans-20" transform="translate(206.335938 0)"/>
      <use xlink:href="#DejaVuSans-33" transform="translate(238.123047 0)"/>
     </g>
    </g>
    <g id="line2d_21">
     <path d="M 638.08625 356.220312 
L 648.08625 356.220312 
L 658.08625 356.220312 
" style="fill: none; stroke: #d62728; stroke-width: 1.5; stroke-linecap: square"/>
    </g>
    <g id="text_19">
     <!-- Fold 4 -->
     <g transform="translate(666.08625 359.720312) scale(0.1 -0.1)">
      <use xlink:href="#DejaVuSans-46"/>
      <use xlink:href="#DejaVuSans-6f" transform="translate(53.894531 0)"/>
      <use xlink:href="#DejaVuSans-6c" transform="translate(115.076172 0)"/>
      <use xlink:href="#DejaVuSans-64" transform="translate(142.859375 0)"/>
      <use xlink:href="#DejaVuSans-20" transform="translate(206.335938 0)"/>
      <use xlink:href="#DejaVuSans-34" transform="translate(238.123047 0)"/>
     </g>
    </g>
    <g id="line2d_22">
     <path d="M 638.08625 370.898437 
L 648.08625 370.898437 
L 658.08625 370.898437 
" style="fill: none; stroke: #9467bd; stroke-width: 1.5; stroke-linecap: square"/>
    </g>
    <g id="text_20">
     <!-- Fold 5 -->
     <g transform="translate(666.08625 374.398437) scale(0.1 -0.1)">
      <use xlink:href="#DejaVuSans-46"/>
      <use xlink:href="#DejaVuSans-6f" transform="translate(53.894531 0)"/>
      <use xlink:href="#DejaVuSans-6c" transform="translate(115.076172 0)"/>
      <use xlink:href="#DejaVuSans-64" transform="translate(142.859375 0)"/>
      <use xlink:href="#DejaVuSans-20" transform="translate(206.335938 0)"/>
      <use xlink:href="#DejaVuSans-35" transform="translate(238.123047 0)"/>
     </g>
    </g>
   </g>
  </g>
 </g>
 <defs>
  <clipPath id="pa3ce57e8c1">
   <rect x="43.78125" y="22.318125" width="661.48" height="363.16"/>
  </clipPath>
 </defs>
</svg>
