<?xml version="1.0" encoding="utf-8" standalone="no"?>
<!DOCTYPE svg PUBLIC "-//W3C//DTD SVG 1.1//EN"
  "http://www.w3.org/Graphics/SVG/1.1/DTD/svg11.dtd">
<svg xmlns:xlink="http://www.w3.org/1999/xlink" width="712.61375pt" height="423.034375pt" viewBox="0 0 712.61375 423.034375" xmlns="http://www.w3.org/2000/svg" version="1.1">
 <metadata>
  <rdf:RDF xmlns:dc="http://purl.org/dc/elements/1.1/" xmlns:cc="http://creativecommons.org/ns#" xmlns:rdf="http://www.w3.org/1999/02/22-rdf-syntax-ns#">
   <cc:Work>
    <dc:type rdf:resource="http://purl.org/dc/dcmitype/StillImage"/>
    <dc:date>2025-06-27T15:26:12.688909</dc:date>
    <dc:format>image/svg+xml</dc:format>
    <dc:creator>
     <cc:Agent>
      <dc:title>Matplotlib v3.10.0, https://matplotlib.org/</dc:title>
     </cc:Agent>
    </dc:creator>
   </cc:Work>
  </rdf:RDF>
 </metadata>
 <defs>
  <style type="text/css">*{stroke-linejoin: round; stroke-linecap: butt}</style>
 </defs>
 <g id="figure_1">
  <g id="patch_1">
   <path d="M 0 423.034375 
L 712.61375 423.034375 
L 712.61375 0 
L 0 0 
z
" style="fill: #ffffff"/>
  </g>
  <g id="axes_1">
   <g id="patch_2">
    <path d="M 50.14375 385.478125 
L 705.41375 385.478125 
L 705.41375 22.318125 
L 50.14375 22.318125 
z
" style="fill: #ffffff"/>
   </g>
   <g id="matplotlib.axis_1">
    <g id="xtick_1">
     <g id="line2d_1">
      <defs>
       <path id="mc34c9e862d" d="M 0 0 
L 0 3.5 
" style="stroke: #000000; stroke-width: 0.8"/>
      </defs>
      <g>
       <use xlink:href="#mc34c9e862d" x="73.911578" y="385.478125" style="stroke: #000000; stroke-width: 0.8"/>
      </g>
     </g>
     <g id="text_1">
      <!-- 0 -->
      <g transform="translate(70.730328 400.076562) scale(0.1 -0.1)">
       <defs>
        <path id="DejaVuSans-30" d="M 2034 4250 
Q 1547 4250 1301 3770 
Q 1056 3291 1056 2328 
Q 1056 1369 1301 889 
Q 1547 409 2034 409 
Q 2525 409 2770 889 
Q 3016 1369 3016 2328 
Q 3016 3291 2770 3770 
Q 2525 4250 2034 4250 
z
M 2034 4750 
Q 2819 4750 3233 4129 
Q 3647 3509 3647 2328 
Q 3647 1150 3233 529 
Q 2819 -91 2034 -91 
Q 1250 -91 836 529 
Q 422 1150 422 2328 
Q 422 3509 836 4129 
Q 1250 4750 2034 4750 
z
" transform="scale(0.015625)"/>
       </defs>
       <use xlink:href="#DejaVuSans-30"/>
      </g>
     </g>
    </g>
    <g id="xtick_2">
     <g id="line2d_2">
      <g>
       <use xlink:href="#mc34c9e862d" x="194.255013" y="385.478125" style="stroke: #000000; stroke-width: 0.8"/>
      </g>
     </g>
     <g id="text_2">
      <!-- 20 -->
      <g transform="translate(187.892513 400.076562) scale(0.1 -0.1)">
       <defs>
        <path id="DejaVuSans-32" d="M 1228 531 
L 3431 531 
L 3431 0 
L 469 0 
L 469 531 
Q 828 903 1448 1529 
Q 2069 2156 2228 2338 
Q 2531 2678 2651 2914 
Q 2772 3150 2772 3378 
Q 2772 3750 2511 3984 
Q 2250 4219 1831 4219 
Q 1534 4219 1204 4116 
Q 875 4013 500 3803 
L 500 4441 
Q 881 4594 1212 4672 
Q 1544 4750 1819 4750 
Q 2544 4750 2975 4387 
Q 3406 4025 3406 3419 
Q 3406 3131 3298 2873 
Q 3191 2616 2906 2266 
Q 2828 2175 2409 1742 
Q 1991 1309 1228 531 
z
" transform="scale(0.015625)"/>
       </defs>
       <use xlink:href="#DejaVuSans-32"/>
       <use xlink:href="#DejaVuSans-30" transform="translate(63.623047 0)"/>
      </g>
     </g>
    </g>
    <g id="xtick_3">
     <g id="line2d_3">
      <g>
       <use xlink:href="#mc34c9e862d" x="314.598447" y="385.478125" style="stroke: #000000; stroke-width: 0.8"/>
      </g>
     </g>
     <g id="text_3">
      <!-- 40 -->
      <g transform="translate(308.235947 400.076562) scale(0.1 -0.1)">
       <defs>
        <path id="DejaVuSans-34" d="M 2419 4116 
L 825 1625 
L 2419 1625 
L 2419 4116 
z
M 2253 4666 
L 3047 4666 
L 3047 1625 
L 3713 1625 
L 3713 1100 
L 3047 1100 
L 3047 0 
L 2419 0 
L 2419 1100 
L 313 1100 
L 313 1709 
L 2253 4666 
z
" transform="scale(0.015625)"/>
       </defs>
       <use xlink:href="#DejaVuSans-34"/>
       <use xlink:href="#DejaVuSans-30" transform="translate(63.623047 0)"/>
      </g>
     </g>
    </g>
    <g id="xtick_4">
     <g id="line2d_4">
      <g>
       <use xlink:href="#mc34c9e862d" x="434.941881" y="385.478125" style="stroke: #000000; stroke-width: 0.8"/>
      </g>
     </g>
     <g id="text_4">
      <!-- 60 -->
      <g transform="translate(428.579381 400.076562) scale(0.1 -0.1)">
       <defs>
        <path id="DejaVuSans-36" d="M 2113 2584 
Q 1688 2584 1439 2293 
Q 1191 2003 1191 1497 
Q 1191 994 1439 701 
Q 1688 409 2113 409 
Q 2538 409 2786 701 
Q 3034 994 3034 1497 
Q 3034 2003 2786 2293 
Q 2538 2584 2113 2584 
z
M 3366 4563 
L 3366 3988 
Q 3128 4100 2886 4159 
Q 2644 4219 2406 4219 
Q 1781 4219 1451 3797 
Q 1122 3375 1075 2522 
Q 1259 2794 1537 2939 
Q 1816 3084 2150 3084 
Q 2853 3084 3261 2657 
Q 3669 2231 3669 1497 
Q 3669 778 3244 343 
Q 2819 -91 2113 -91 
Q 1303 -91 875 529 
Q 447 1150 447 2328 
Q 447 3434 972 4092 
Q 1497 4750 2381 4750 
Q 2619 4750 2861 4703 
Q 3103 4656 3366 4563 
z
" transform="scale(0.015625)"/>
       </defs>
       <use xlink:href="#DejaVuSans-36"/>
       <use xlink:href="#DejaVuSans-30" transform="translate(63.623047 0)"/>
      </g>
     </g>
    </g>
    <g id="xtick_5">
     <g id="line2d_5">
      <g>
       <use xlink:href="#mc34c9e862d" x="555.285316" y="385.478125" style="stroke: #000000; stroke-width: 0.8"/>
      </g>
     </g>
     <g id="text_5">
      <!-- 80 -->
      <g transform="translate(548.922816 400.076562) scale(0.1 -0.1)">
       <defs>
        <path id="DejaVuSans-38" d="M 2034 2216 
Q 1584 2216 1326 1975 
Q 1069 1734 1069 1313 
Q 1069 891 1326 650 
Q 1584 409 2034 409 
Q 2484 409 2743 651 
Q 3003 894 3003 1313 
Q 3003 1734 2745 1975 
Q 2488 2216 2034 2216 
z
M 1403 2484 
Q 997 2584 770 2862 
Q 544 3141 544 3541 
Q 544 4100 942 4425 
Q 1341 4750 2034 4750 
Q 2731 4750 3128 4425 
Q 3525 4100 3525 3541 
Q 3525 3141 3298 2862 
Q 3072 2584 2669 2484 
Q 3125 2378 3379 2068 
Q 3634 1759 3634 1313 
Q 3634 634 3220 271 
Q 2806 -91 2034 -91 
Q 1263 -91 848 271 
Q 434 634 434 1313 
Q 434 1759 690 2068 
Q 947 2378 1403 2484 
z
M 1172 3481 
Q 1172 3119 1398 2916 
Q 1625 2713 2034 2713 
Q 2441 2713 2670 2916 
Q 2900 3119 2900 3481 
Q 2900 3844 2670 4047 
Q 2441 4250 2034 4250 
Q 1625 4250 1398 4047 
Q 1172 3844 1172 3481 
z
" transform="scale(0.015625)"/>
       </defs>
       <use xlink:href="#DejaVuSans-38"/>
       <use xlink:href="#DejaVuSans-30" transform="translate(63.623047 0)"/>
      </g>
     </g>
    </g>
    <g id="xtick_6">
     <g id="line2d_6">
      <g>
       <use xlink:href="#mc34c9e862d" x="675.62875" y="385.478125" style="stroke: #000000; stroke-width: 0.8"/>
      </g>
     </g>
     <g id="text_6">
      <!-- 100 -->
      <g transform="translate(666.085 400.076562) scale(0.1 -0.1)">
       <defs>
        <path id="DejaVuSans-31" d="M 794 531 
L 1825 531 
L 1825 4091 
L 703 3866 
L 703 4441 
L 1819 4666 
L 2450 4666 
L 2450 531 
L 3481 531 
L 3481 0 
L 794 0 
L 794 531 
z
" transform="scale(0.015625)"/>
       </defs>
       <use xlink:href="#DejaVuSans-31"/>
       <use xlink:href="#DejaVuSans-30" transform="translate(63.623047 0)"/>
       <use xlink:href="#DejaVuSans-30" transform="translate(127.246094 0)"/>
      </g>
     </g>
    </g>
    <g id="text_7">
     <!-- Epoch -->
     <g transform="translate(362.467813 413.754687) scale(0.1 -0.1)">
      <defs>
       <path id="DejaVuSans-45" d="M 628 4666 
L 3578 4666 
L 3578 4134 
L 1259 4134 
L 1259 2753 
L 3481 2753 
L 3481 2222 
L 1259 2222 
L 1259 531 
L 3634 531 
L 3634 0 
L 628 0 
L 628 4666 
z
" transform="scale(0.015625)"/>
       <path id="DejaVuSans-70" d="M 1159 525 
L 1159 -1331 
L 581 -1331 
L 581 3500 
L 1159 3500 
L 1159 2969 
Q 1341 3281 1617 3432 
Q 1894 3584 2278 3584 
Q 2916 3584 3314 3078 
Q 3713 2572 3713 1747 
Q 3713 922 3314 415 
Q 2916 -91 2278 -91 
Q 1894 -91 1617 61 
Q 1341 213 1159 525 
z
M 3116 1747 
Q 3116 2381 2855 2742 
Q 2594 3103 2138 3103 
Q 1681 3103 1420 2742 
Q 1159 2381 1159 1747 
Q 1159 1113 1420 752 
Q 1681 391 2138 391 
Q 2594 391 2855 752 
Q 3116 1113 3116 1747 
z
" transform="scale(0.015625)"/>
       <path id="DejaVuSans-6f" d="M 1959 3097 
Q 1497 3097 1228 2736 
Q 959 2375 959 1747 
Q 959 1119 1226 758 
Q 1494 397 1959 397 
Q 2419 397 2687 759 
Q 2956 1122 2956 1747 
Q 2956 2369 2687 2733 
Q 2419 3097 1959 3097 
z
M 1959 3584 
Q 2709 3584 3137 3096 
Q 3566 2609 3566 1747 
Q 3566 888 3137 398 
Q 2709 -91 1959 -91 
Q 1206 -91 779 398 
Q 353 888 353 1747 
Q 353 2609 779 3096 
Q 1206 3584 1959 3584 
z
" transform="scale(0.015625)"/>
       <path id="DejaVuSans-63" d="M 3122 3366 
L 3122 2828 
Q 2878 2963 2633 3030 
Q 2388 3097 2138 3097 
Q 1578 3097 1268 2742 
Q 959 2388 959 1747 
Q 959 1106 1268 751 
Q 1578 397 2138 397 
Q 2388 397 2633 464 
Q 2878 531 3122 666 
L 3122 134 
Q 2881 22 2623 -34 
Q 2366 -91 2075 -91 
Q 1284 -91 818 406 
Q 353 903 353 1747 
Q 353 2603 823 3093 
Q 1294 3584 2113 3584 
Q 2378 3584 2631 3529 
Q 2884 3475 3122 3366 
z
" transform="scale(0.015625)"/>
       <path id="DejaVuSans-68" d="M 3513 2113 
L 3513 0 
L 2938 0 
L 2938 2094 
Q 2938 2591 2744 2837 
Q 2550 3084 2163 3084 
Q 1697 3084 1428 2787 
Q 1159 2491 1159 1978 
L 1159 0 
L 581 0 
L 581 4863 
L 1159 4863 
L 1159 2956 
Q 1366 3272 1645 3428 
Q 1925 3584 2291 3584 
Q 2894 3584 3203 3211 
Q 3513 2838 3513 2113 
z
" transform="scale(0.015625)"/>
      </defs>
      <use xlink:href="#DejaVuSans-45"/>
      <use xlink:href="#DejaVuSans-70" transform="translate(63.183594 0)"/>
      <use xlink:href="#DejaVuSans-6f" transform="translate(126.660156 0)"/>
      <use xlink:href="#DejaVuSans-63" transform="translate(187.841797 0)"/>
      <use xlink:href="#DejaVuSans-68" transform="translate(242.822266 0)"/>
     </g>
    </g>
   </g>
   <g id="matplotlib.axis_2">
    <g id="ytick_1">
     <g id="line2d_7">
      <defs>
       <path id="m474171206f" d="M 0 0 
L -3.5 0 
" style="stroke: #000000; stroke-width: 0.8"/>
      </defs>
      <g>
       <use xlink:href="#m474171206f" x="50.14375" y="328.33571" style="stroke: #000000; stroke-width: 0.8"/>
      </g>
     </g>
     <g id="text_8">
      <!-- 0.25 -->
      <g transform="translate(20.878125 332.134929) scale(0.1 -0.1)">
       <defs>
        <path id="DejaVuSans-2e" d="M 684 794 
L 1344 794 
L 1344 0 
L 684 0 
L 684 794 
z
" transform="scale(0.015625)"/>
        <path id="DejaVuSans-35" d="M 691 4666 
L 3169 4666 
L 3169 4134 
L 1269 4134 
L 1269 2991 
Q 1406 3038 1543 3061 
Q 1681 3084 1819 3084 
Q 2600 3084 3056 2656 
Q 3513 2228 3513 1497 
Q 3513 744 3044 326 
Q 2575 -91 1722 -91 
Q 1428 -91 1123 -41 
Q 819 9 494 109 
L 494 744 
Q 775 591 1075 516 
Q 1375 441 1709 441 
Q 2250 441 2565 725 
Q 2881 1009 2881 1497 
Q 2881 1984 2565 2268 
Q 2250 2553 1709 2553 
Q 1456 2553 1204 2497 
Q 953 2441 691 2322 
L 691 4666 
z
" transform="scale(0.015625)"/>
       </defs>
       <use xlink:href="#DejaVuSans-30"/>
       <use xlink:href="#DejaVuSans-2e" transform="translate(63.623047 0)"/>
       <use xlink:href="#DejaVuSans-32" transform="translate(95.410156 0)"/>
       <use xlink:href="#DejaVuSans-35" transform="translate(159.033203 0)"/>
      </g>
     </g>
    </g>
    <g id="ytick_2">
     <g id="line2d_8">
      <g>
       <use xlink:href="#m474171206f" x="50.14375" y="268.793773" style="stroke: #000000; stroke-width: 0.8"/>
      </g>
     </g>
     <g id="text_9">
      <!-- 0.30 -->
      <g transform="translate(20.878125 272.592992) scale(0.1 -0.1)">
       <defs>
        <path id="DejaVuSans-33" d="M 2597 2516 
Q 3050 2419 3304 2112 
Q 3559 1806 3559 1356 
Q 3559 666 3084 287 
Q 2609 -91 1734 -91 
Q 1441 -91 1130 -33 
Q 819 25 488 141 
L 488 750 
Q 750 597 1062 519 
Q 1375 441 1716 441 
Q 2309 441 2620 675 
Q 2931 909 2931 1356 
Q 2931 1769 2642 2001 
Q 2353 2234 1838 2234 
L 1294 2234 
L 1294 2753 
L 1863 2753 
Q 2328 2753 2575 2939 
Q 2822 3125 2822 3475 
Q 2822 3834 2567 4026 
Q 2313 4219 1838 4219 
Q 1578 4219 1281 4162 
Q 984 4106 628 3988 
L 628 4550 
Q 988 4650 1302 4700 
Q 1616 4750 1894 4750 
Q 2613 4750 3031 4423 
Q 3450 4097 3450 3541 
Q 3450 3153 3228 2886 
Q 3006 2619 2597 2516 
z
" transform="scale(0.015625)"/>
       </defs>
       <use xlink:href="#DejaVuSans-30"/>
       <use xlink:href="#DejaVuSans-2e" transform="translate(63.623047 0)"/>
       <use xlink:href="#DejaVuSans-33" transform="translate(95.410156 0)"/>
       <use xlink:href="#DejaVuSans-30" transform="translate(159.033203 0)"/>
      </g>
     </g>
    </g>
    <g id="ytick_3">
     <g id="line2d_9">
      <g>
       <use xlink:href="#m474171206f" x="50.14375" y="209.251835" style="stroke: #000000; stroke-width: 0.8"/>
      </g>
     </g>
     <g id="text_10">
      <!-- 0.35 -->
      <g transform="translate(20.878125 213.051054) scale(0.1 -0.1)">
       <use xlink:href="#DejaVuSans-30"/>
       <use xlink:href="#DejaVuSans-2e" transform="translate(63.623047 0)"/>
       <use xlink:href="#DejaVuSans-33" transform="translate(95.410156 0)"/>
       <use xlink:href="#DejaVuSans-35" transform="translate(159.033203 0)"/>
      </g>
     </g>
    </g>
    <g id="ytick_4">
     <g id="line2d_10">
      <g>
       <use xlink:href="#m474171206f" x="50.14375" y="149.709897" style="stroke: #000000; stroke-width: 0.8"/>
      </g>
     </g>
     <g id="text_11">
      <!-- 0.40 -->
      <g transform="translate(20.878125 153.509116) scale(0.1 -0.1)">
       <use xlink:href="#DejaVuSans-30"/>
       <use xlink:href="#DejaVuSans-2e" transform="translate(63.623047 0)"/>
       <use xlink:href="#DejaVuSans-34" transform="translate(95.410156 0)"/>
       <use xlink:href="#DejaVuSans-30" transform="translate(159.033203 0)"/>
      </g>
     </g>
    </g>
    <g id="ytick_5">
     <g id="line2d_11">
      <g>
       <use xlink:href="#m474171206f" x="50.14375" y="90.16796" style="stroke: #000000; stroke-width: 0.8"/>
      </g>
     </g>
     <g id="text_12">
      <!-- 0.45 -->
      <g transform="translate(20.878125 93.967178) scale(0.1 -0.1)">
       <use xlink:href="#DejaVuSans-30"/>
       <use xlink:href="#DejaVuSans-2e" transform="translate(63.623047 0)"/>
       <use xlink:href="#DejaVuSans-34" transform="translate(95.410156 0)"/>
       <use xlink:href="#DejaVuSans-35" transform="translate(159.033203 0)"/>
      </g>
     </g>
    </g>
    <g id="ytick_6">
     <g id="line2d_12">
      <g>
       <use xlink:href="#m474171206f" x="50.14375" y="30.626022" style="stroke: #000000; stroke-width: 0.8"/>
      </g>
     </g>
     <g id="text_13">
      <!-- 0.50 -->
      <g transform="translate(20.878125 34.425241) scale(0.1 -0.1)">
       <use xlink:href="#DejaVuSans-30"/>
       <use xlink:href="#DejaVuSans-2e" transform="translate(63.623047 0)"/>
       <use xlink:href="#DejaVuSans-35" transform="translate(95.410156 0)"/>
       <use xlink:href="#DejaVuSans-30" transform="translate(159.033203 0)"/>
      </g>
     </g>
    </g>
    <g id="text_14">
     <!-- Train Accuracy -->
     <g transform="translate(14.798438 240.309062) rotate(-90) scale(0.1 -0.1)">
      <defs>
       <path id="DejaVuSans-54" d="M -19 4666 
L 3928 4666 
L 3928 4134 
L 2272 4134 
L 2272 0 
L 1638 0 
L 1638 4134 
L -19 4134 
L -19 4666 
z
" transform="scale(0.015625)"/>
       <path id="DejaVuSans-72" d="M 2631 2963 
Q 2534 3019 2420 3045 
Q 2306 3072 2169 3072 
Q 1681 3072 1420 2755 
Q 1159 2438 1159 1844 
L 1159 0 
L 581 0 
L 581 3500 
L 1159 3500 
L 1159 2956 
Q 1341 3275 1631 3429 
Q 1922 3584 2338 3584 
Q 2397 3584 2469 3576 
Q 2541 3569 2628 3553 
L 2631 2963 
z
" transform="scale(0.015625)"/>
       <path id="DejaVuSans-61" d="M 2194 1759 
Q 1497 1759 1228 1600 
Q 959 1441 959 1056 
Q 959 750 1161 570 
Q 1363 391 1709 391 
Q 2188 391 2477 730 
Q 2766 1069 2766 1631 
L 2766 1759 
L 2194 1759 
z
M 3341 1997 
L 3341 0 
L 2766 0 
L 2766 531 
Q 2569 213 2275 61 
Q 1981 -91 1556 -91 
Q 1019 -91 701 211 
Q 384 513 384 1019 
Q 384 1609 779 1909 
Q 1175 2209 1959 2209 
L 2766 2209 
L 2766 2266 
Q 2766 2663 2505 2880 
Q 2244 3097 1772 3097 
Q 1472 3097 1187 3025 
Q 903 2953 641 2809 
L 641 3341 
Q 956 3463 1253 3523 
Q 1550 3584 1831 3584 
Q 2591 3584 2966 3190 
Q 3341 2797 3341 1997 
z
" transform="scale(0.015625)"/>
       <path id="DejaVuSans-69" d="M 603 3500 
L 1178 3500 
L 1178 0 
L 603 0 
L 603 3500 
z
M 603 4863 
L 1178 4863 
L 1178 4134 
L 603 4134 
L 603 4863 
z
" transform="scale(0.015625)"/>
       <path id="DejaVuSans-6e" d="M 3513 2113 
L 3513 0 
L 2938 0 
L 2938 2094 
Q 2938 2591 2744 2837 
Q 2550 3084 2163 3084 
Q 1697 3084 1428 2787 
Q 1159 2491 1159 1978 
L 1159 0 
L 581 0 
L 581 3500 
L 1159 3500 
L 1159 2956 
Q 1366 3272 1645 3428 
Q 1925 3584 2291 3584 
Q 2894 3584 3203 3211 
Q 3513 2838 3513 2113 
z
" transform="scale(0.015625)"/>
       <path id="DejaVuSans-20" transform="scale(0.015625)"/>
       <path id="DejaVuSans-41" d="M 2188 4044 
L 1331 1722 
L 3047 1722 
L 2188 4044 
z
M 1831 4666 
L 2547 4666 
L 4325 0 
L 3669 0 
L 3244 1197 
L 1141 1197 
L 716 0 
L 50 0 
L 1831 4666 
z
" transform="scale(0.015625)"/>
       <path id="DejaVuSans-75" d="M 544 1381 
L 544 3500 
L 1119 3500 
L 1119 1403 
Q 1119 906 1312 657 
Q 1506 409 1894 409 
Q 2359 409 2629 706 
Q 2900 1003 2900 1516 
L 2900 3500 
L 3475 3500 
L 3475 0 
L 2900 0 
L 2900 538 
Q 2691 219 2414 64 
Q 2138 -91 1772 -91 
Q 1169 -91 856 284 
Q 544 659 544 1381 
z
M 1991 3584 
L 1991 3584 
z
" transform="scale(0.015625)"/>
       <path id="DejaVuSans-79" d="M 2059 -325 
Q 1816 -950 1584 -1140 
Q 1353 -1331 966 -1331 
L 506 -1331 
L 506 -850 
L 844 -850 
Q 1081 -850 1212 -737 
Q 1344 -625 1503 -206 
L 1606 56 
L 191 3500 
L 800 3500 
L 1894 763 
L 2988 3500 
L 3597 3500 
L 2059 -325 
z
" transform="scale(0.015625)"/>
      </defs>
      <use xlink:href="#DejaVuSans-54"/>
      <use xlink:href="#DejaVuSans-72" transform="translate(46.333984 0)"/>
      <use xlink:href="#DejaVuSans-61" transform="translate(87.447266 0)"/>
      <use xlink:href="#DejaVuSans-69" transform="translate(148.726562 0)"/>
      <use xlink:href="#DejaVuSans-6e" transform="translate(176.509766 0)"/>
      <use xlink:href="#DejaVuSans-20" transform="translate(239.888672 0)"/>
      <use xlink:href="#DejaVuSans-41" transform="translate(271.675781 0)"/>
      <use xlink:href="#DejaVuSans-63" transform="translate(338.333984 0)"/>
      <use xlink:href="#DejaVuSans-63" transform="translate(393.314453 0)"/>
      <use xlink:href="#DejaVuSans-75" transform="translate(448.294922 0)"/>
      <use xlink:href="#DejaVuSans-72" transform="translate(511.673828 0)"/>
      <use xlink:href="#DejaVuSans-61" transform="translate(552.787109 0)"/>
      <use xlink:href="#DejaVuSans-63" transform="translate(614.066406 0)"/>
      <use xlink:href="#DejaVuSans-79" transform="translate(669.046875 0)"/>
     </g>
    </g>
   </g>
   <g id="line2d_13">
    <path d="M 79.92875 174.264766 
L 85.945922 167.510971 
L 91.963093 164.857694 
L 97.980265 122.887684 
L 103.997437 183.913044 
L 110.014609 238.18461 
L 116.03178 270.988756 
L 122.048952 217.199604 
L 128.066124 204.415636 
L 134.083295 220.094088 
L 140.100467 203.692015 
L 146.117639 317.541699 
L 152.134811 346.727741 
L 158.151982 332.496531 
L 164.169154 340.697567 
L 170.186326 345.280499 
L 176.203497 339.732739 
L 182.220669 332.737737 
L 188.237841 339.732739 
L 194.255013 332.737737 
L 200.272184 337.079463 
L 206.289356 335.873428 
L 212.306528 337.32067 
L 218.323699 333.943772 
L 224.340871 341.662395 
L 230.358043 336.114635 
L 236.375215 333.702565 
L 242.392386 330.808082 
L 248.409558 337.32067 
L 254.42673 341.179981 
L 260.443902 331.049289 
L 266.461073 346.00412 
L 272.478245 344.315671 
L 278.495417 330.325668 
L 284.512588 343.350844 
L 290.52976 333.220151 
L 296.546932 336.597049 
L 302.564104 343.350844 
L 308.581275 337.803084 
L 314.598447 342.86843 
L 320.615619 343.109637 
L 326.63279 332.737737 
L 332.649962 346.968948 
L 338.667134 354.687571 
L 344.684306 330.566875 
L 350.701477 332.255324 
L 356.718649 344.315671 
L 362.735821 337.803084 
L 368.752992 334.426186 
L 374.770164 337.079463 
L 380.787336 341.421188 
L 386.804508 341.179981 
L 392.821679 335.873428 
L 398.838851 341.179981 
L 404.856023 335.391014 
L 410.873194 348.657397 
L 416.890366 335.391014 
L 422.907538 339.009118 
L 428.92471 342.144809 
L 434.941881 333.702565 
L 440.959053 343.592051 
L 446.976225 336.597049 
L 452.993396 329.843254 
L 459.010568 346.727741 
L 465.02774 331.290496 
L 471.044912 345.521706 
L 477.062083 330.325668 
L 483.079255 338.526704 
L 489.096427 343.109637 
L 495.113598 345.762913 
L 501.13077 341.903602 
L 507.147942 337.079463 
L 513.165114 340.697567 
L 519.182285 335.149807 
L 525.199457 338.285498 
L 531.216629 352.757915 
L 537.233801 336.355842 
L 543.250972 342.86843 
L 549.268144 338.526704 
L 555.285316 339.732739 
L 561.302487 343.592051 
L 567.319659 335.873428 
L 573.336831 334.667393 
L 579.354003 344.556878 
L 585.371174 338.285498 
L 591.388346 340.45636 
L 597.405518 334.184979 
L 603.422689 324.777908 
L 609.439861 347.451362 
L 615.457033 335.632221 
L 621.474205 343.592051 
L 627.491376 338.044291 
L 633.508548 332.255324 
L 639.52572 343.592051 
L 645.542891 333.461358 
L 651.560063 338.767911 
L 657.577235 334.9086 
L 663.594407 343.350844 
L 669.611578 335.873428 
L 675.62875 339.732739 
" clip-path="url(#pc7e9a0beb7)" style="fill: none; stroke: #1f77b4; stroke-width: 1.5; stroke-linecap: square"/>
   </g>
   <g id="line2d_14">
    <path d="M 79.92875 325.742736 
L 85.945922 282.325483 
L 91.963093 277.260137 
L 97.980265 218.888053 
L 103.997437 207.792533 
L 110.014609 215.99357 
L 116.03178 192.355288 
L 122.048952 189.702011 
L 128.066124 194.284943 
L 134.083295 208.03374 
L 140.100467 202.968394 
L 146.117639 206.586498 
L 152.134811 237.460989 
L 158.151982 208.03374 
L 164.169154 209.239775 
L 170.186326 177.400456 
L 176.203497 182.465802 
L 182.220669 167.269764 
L 188.237841 174.74718 
L 194.255013 193.802529 
L 200.272184 184.877872 
L 206.289356 234.084091 
L 212.306528 180.29494 
L 218.323699 171.129075 
L 224.340871 168.234592 
L 230.358043 194.52615 
L 236.375215 247.832888 
L 242.392386 339.732739 
L 248.409558 191.39046 
L 254.42673 198.626669 
L 260.443902 157.621486 
L 266.461073 150.385277 
L 272.478245 152.314933 
L 278.495417 143.631482 
L 284.512588 170.646661 
L 290.52976 220.576502 
L 296.546932 251.450992 
L 302.564104 216.475983 
L 308.581275 187.531148 
L 314.598447 185.119079 
L 320.615619 172.093903 
L 326.63279 183.43063 
L 332.649962 192.114081 
L 338.667134 187.289942 
L 344.684306 194.284943 
L 350.701477 211.410637 
L 356.718649 231.913229 
L 362.735821 215.028742 
L 368.752992 240.114265 
L 374.770164 265.92341 
L 380.787336 224.435813 
L 386.804508 223.470985 
L 392.821679 203.933222 
L 398.838851 199.591496 
L 404.856023 217.923225 
L 410.873194 201.038738 
L 416.890366 176.676835 
L 422.907538 173.541145 
L 428.92471 131.08872 
L 434.941881 126.023374 
L 440.959053 98.284574 
L 446.976225 192.837702 
L 452.993396 168.475799 
L 459.010568 174.505973 
L 465.02774 160.757176 
L 471.044912 144.59631 
L 477.062083 118.304751 
L 483.079255 110.103715 
L 489.096427 165.822522 
L 495.113598 141.219412 
L 501.13077 100.455436 
L 507.147942 82.364915 
L 513.165114 104.555955 
L 519.182285 112.03337 
L 525.199457 95.148883 
L 531.216629 112.756991 
L 537.233801 146.043552 
L 543.250972 178.365284 
L 549.268144 176.918042 
L 555.285316 169.681834 
L 561.302487 169.440627 
L 567.319659 128.435444 
L 573.336831 141.219412 
L 579.354003 154.968209 
L 585.371174 154.968209 
L 591.388346 151.591312 
L 597.405518 140.495792 
L 603.422689 115.410268 
L 609.439861 109.862508 
L 615.457033 97.078539 
L 621.474205 147.008379 
L 627.491376 133.50079 
L 633.508548 126.988202 
L 639.52572 133.983204 
L 645.542891 164.857694 
L 651.560063 131.571134 
L 657.577235 120.958028 
L 663.594407 148.938035 
L 669.611578 202.48598 
L 675.62875 180.053733 
" clip-path="url(#pc7e9a0beb7)" style="fill: none; stroke: #ff7f0e; stroke-width: 1.5; stroke-linecap: square"/>
   </g>
   <g id="line2d_15">
    <path d="M 79.92875 183.520265 
L 85.945922 186.896478 
L 91.963093 159.404453 
L 97.980265 190.51385 
L 103.997437 160.369086 
L 110.014609 172.426991 
L 116.03178 181.832158 
L 122.048952 230.06378 
L 128.066124 221.864404 
L 134.083295 259.243912 
L 140.100467 228.134515 
L 146.117639 214.870819 
L 152.134811 235.610417 
L 158.151982 245.497899 
L 164.169154 201.848281 
L 170.186326 171.462359 
L 176.203497 159.404453 
L 182.220669 170.01541 
L 188.237841 173.150466 
L 194.255013 183.761423 
L 200.272184 171.462359 
L 206.289356 148.31118 
L 212.306528 156.269398 
L 218.323699 149.034655 
L 224.340871 159.404453 
L 230.358043 139.629488 
L 236.375215 146.140757 
L 242.392386 131.430113 
L 248.409558 154.822449 
L 254.42673 156.02824 
L 260.443902 138.664856 
L 266.461073 131.188954 
L 272.478245 115.995993 
L 278.495417 119.613365 
L 284.512588 113.82557 
L 290.52976 87.539336 
L 296.546932 82.716174 
L 302.564104 106.590827 
L 308.581275 120.577998 
L 314.598447 93.327131 
L 320.615619 103.938088 
L 326.63279 97.185661 
L 332.649962 63.905841 
L 338.667134 54.259517 
L 344.684306 61.253102 
L 350.701477 80.545751 
L 356.718649 64.870474 
L 362.735821 38.825398 
L 368.752992 114.307887 
L 374.770164 121.301472 
L 380.787336 124.677685 
L 386.804508 132.877061 
L 392.821679 151.687394 
L 398.838851 193.890063 
L 404.856023 145.658441 
L 410.873194 170.497727 
L 416.890366 178.93826 
L 422.907538 166.398039 
L 428.92471 146.864232 
L 434.941881 143.005702 
L 440.959053 134.806326 
L 446.976225 147.587706 
L 452.993396 136.494433 
L 459.010568 136.494433 
L 465.02774 115.995993 
L 471.044912 144.452651 
L 477.062083 144.693809 
L 483.079255 132.635903 
L 489.096427 166.880355 
L 495.113598 131.912429 
L 501.13077 135.047484 
L 507.147942 160.127928 
L 513.165114 159.88677 
L 519.182285 140.835279 
L 525.199457 213.906187 
L 531.216629 347.990097 
L 537.233801 168.086145 
L 543.250972 170.256568 
L 549.268144 131.430113 
L 555.285316 143.729176 
L 561.302487 149.516971 
L 567.319659 140.594121 
L 573.336831 153.134343 
L 579.354003 149.275813 
L 585.371174 142.282228 
L 591.388346 154.340133 
L 597.405518 149.758129 
L 603.422689 133.359377 
L 609.439861 154.581291 
L 615.457033 195.337012 
L 621.474205 186.414162 
L 627.491376 160.369086 
L 633.508548 291.31794 
L 639.52572 282.153932 
L 645.542891 234.163468 
L 651.560063 168.086145 
L 657.577235 153.375501 
L 663.594407 158.198663 
L 669.611578 128.053899 
L 675.62875 126.124634 
" clip-path="url(#pc7e9a0beb7)" style="fill: none; stroke: #2ca02c; stroke-width: 1.5; stroke-linecap: square"/>
   </g>
   <g id="line2d_16">
    <path d="M 79.92875 183.279106 
L 85.945922 158.922137 
L 91.963093 218.488191 
L 97.980265 181.832158 
L 103.997437 159.404453 
L 110.014609 164.709932 
L 116.03178 163.745299 
L 122.048952 163.986458 
L 128.066124 184.002581 
L 134.083295 257.555805 
L 140.100467 331.832503 
L 146.117639 342.44346 
L 152.134811 338.58493 
L 158.151982 321.945021 
L 164.169154 347.748938 
L 170.186326 337.861456 
L 176.203497 345.096199 
L 182.220669 336.173349 
L 188.237841 347.990097 
L 194.255013 347.50778 
L 200.272184 332.314819 
L 206.289356 347.990097 
L 212.306528 346.30199 
L 218.323699 345.578515 
L 224.340871 337.37914 
L 230.358043 337.861456 
L 236.375215 338.826088 
L 242.392386 339.549563 
L 248.409558 339.308405 
L 254.42673 341.478828 
L 260.443902 331.591345 
L 266.461073 340.031879 
L 272.478245 344.855041 
L 278.495417 330.385554 
L 284.512588 333.761768 
L 290.52976 332.555977 
L 296.546932 338.343772 
L 302.564104 334.967559 
L 308.581275 342.44346 
L 314.598447 333.52061 
L 320.615619 339.308405 
L 326.63279 335.208717 
L 332.649962 335.691033 
L 338.667134 346.543148 
L 344.684306 336.173349 
L 350.701477 335.932191 
L 356.718649 312.298696 
L 362.735821 300.240791 
L 368.752992 279.742351 
L 374.770164 277.089612 
L 380.787336 265.755181 
L 386.804508 177.973628 
L 392.821679 225.481776 
L 398.838851 100.320716 
L 404.856023 114.307887 
L 410.873194 151.687394 
L 416.890366 132.635903 
L 422.907538 149.275813 
L 428.92471 186.414162 
L 434.941881 177.491312 
L 440.959053 193.890063 
L 446.976225 296.141103 
L 452.993396 304.822795 
L 459.010568 194.131221 
L 465.02774 182.555632 
L 471.044912 149.034655 
L 477.062083 140.352963 
L 483.079255 140.594121 
L 489.096427 149.516971 
L 495.113598 164.227616 
L 501.13077 158.680979 
L 507.147942 155.787082 
L 513.165114 149.275813 
L 519.182285 108.520092 
L 525.199457 94.291763 
L 531.216629 166.398039 
L 537.233801 147.10539 
L 543.250972 158.680979 
L 549.268144 149.034655 
L 555.285316 95.256396 
L 561.302487 74.757956 
L 567.319659 87.05702 
L 573.336831 132.153587 
L 579.354003 129.018531 
L 585.371174 134.082852 
L 591.388346 117.6841 
L 597.405518 95.497554 
L 603.422689 104.661562 
L 609.439861 135.5298 
L 615.457033 124.677685 
L 621.474205 147.10539 
L 627.491376 124.677685 
L 633.508548 125.883476 
L 639.52572 155.063607 
L 645.542891 151.928552 
L 651.560063 140.111805 
L 657.577235 138.18254 
L 663.594407 115.754835 
L 669.611578 135.047484 
L 675.62875 155.545924 
" clip-path="url(#pc7e9a0beb7)" style="fill: none; stroke: #d62728; stroke-width: 1.5; stroke-linecap: square"/>
   </g>
   <g id="line2d_17">
    <path d="M 79.92875 330.867871 
L 85.945922 333.038294 
L 91.963093 281.1893 
L 97.980265 201.365965 
L 103.997437 317.363016 
L 110.014609 340.514195 
L 116.03178 337.861456 
L 122.048952 341.719986 
L 128.066124 338.58493 
L 134.083295 341.719986 
L 140.100467 342.925776 
L 146.117639 336.655665 
L 152.134811 334.967559 
L 158.151982 345.337357 
L 164.169154 340.996511 
L 170.186326 344.613883 
L 176.203497 338.826088 
L 182.220669 346.784306 
L 188.237841 338.102614 
L 194.255013 343.649251 
L 200.272184 335.449875 
L 206.289356 345.578515 
L 212.306528 347.025464 
L 218.323699 351.848626 
L 224.340871 354.260207 
L 230.358043 350.16052 
L 236.375215 349.919361 
L 242.392386 359.565686 
L 248.409558 362.941899 
L 254.42673 344.372725 
L 260.443902 343.408092 
L 266.461073 347.266622 
L 272.478245 356.189472 
L 278.495417 346.060832 
L 284.512588 357.154105 
L 290.52976 357.877579 
L 296.546932 349.919361 
L 302.564104 357.877579 
L 308.581275 355.948314 
L 314.598447 353.295575 
L 320.615619 349.919361 
L 326.63279 354.983682 
L 332.649962 351.848626 
L 338.667134 357.154105 
L 344.684306 356.189472 
L 350.701477 341.237669 
L 356.718649 355.465998 
L 362.735821 348.713571 
L 368.752992 354.260207 
L 374.770164 349.437045 
L 380.787336 341.961144 
L 386.804508 339.067246 
L 392.821679 350.401678 
L 398.838851 357.877579 
L 404.856023 342.684618 
L 410.873194 350.401678 
L 416.890366 350.883994 
L 422.907538 346.30199 
L 428.92471 364.871164 
L 434.941881 363.906532 
L 440.959053 347.266622 
L 446.976225 368.970852 
L 452.993396 356.671789 
L 459.010568 351.848626 
L 465.02774 355.465998 
L 471.044912 347.025464 
L 477.062083 352.813259 
L 483.079255 350.401678 
L 489.096427 346.30199 
L 495.113598 347.025464 
L 501.13077 350.883994 
L 507.147942 343.649251 
L 513.165114 352.813259 
L 519.182285 345.337357 
L 525.199457 334.7264 
L 531.216629 358.601053 
L 537.233801 358.359895 
L 543.250972 352.089784 
L 549.268144 350.401678 
L 555.285316 336.896823 
L 561.302487 350.642836 
L 567.319659 347.990097 
L 573.336831 350.642836 
L 579.354003 348.472413 
L 585.371174 347.50778 
L 591.388346 343.166934 
L 597.405518 358.359895 
L 603.422689 351.848626 
L 609.439861 345.578515 
L 615.457033 350.642836 
L 621.474205 354.019049 
L 627.491376 343.408092 
L 633.508548 349.195887 
L 639.52572 360.771476 
L 645.542891 347.025464 
L 651.560063 367.523904 
L 657.577235 339.549563 
L 663.594407 354.742524 
L 669.611578 349.195887 
L 675.62875 339.549563 
" clip-path="url(#pc7e9a0beb7)" style="fill: none; stroke: #9467bd; stroke-width: 1.5; stroke-linecap: square"/>
   </g>
   <g id="patch_3">
    <path d="M 50.14375 385.478125 
L 50.14375 22.318125 
" style="fill: none; stroke: #000000; stroke-width: 0.8; stroke-linejoin: miter; stroke-linecap: square"/>
   </g>
   <g id="patch_4">
    <path d="M 705.41375 385.478125 
L 705.41375 22.318125 
" style="fill: none; stroke: #000000; stroke-width: 0.8; stroke-linejoin: miter; stroke-linecap: square"/>
   </g>
   <g id="patch_5">
    <path d="M 50.14375 385.478125 
L 705.41375 385.478125 
" style="fill: none; stroke: #000000; stroke-width: 0.8; stroke-linejoin: miter; stroke-linecap: square"/>
   </g>
   <g id="patch_6">
    <path d="M 50.14375 22.318125 
L 705.41375 22.318125 
" style="fill: none; stroke: #000000; stroke-width: 0.8; stroke-linejoin: miter; stroke-linecap: square"/>
   </g>
   <g id="text_15">
    <!-- Combined Train Accuracy -->
    <g transform="translate(301.694063 16.318125) scale(0.12 -0.12)">
     <defs>
      <path id="DejaVuSans-43" d="M 4122 4306 
L 4122 3641 
Q 3803 3938 3442 4084 
Q 3081 4231 2675 4231 
Q 1875 4231 1450 3742 
Q 1025 3253 1025 2328 
Q 1025 1406 1450 917 
Q 1875 428 2675 428 
Q 3081 428 3442 575 
Q 3803 722 4122 1019 
L 4122 359 
Q 3791 134 3420 21 
Q 3050 -91 2638 -91 
Q 1578 -91 968 557 
Q 359 1206 359 2328 
Q 359 3453 968 4101 
Q 1578 4750 2638 4750 
Q 3056 4750 3426 4639 
Q 3797 4528 4122 4306 
z
" transform="scale(0.015625)"/>
      <path id="DejaVuSans-6d" d="M 3328 2828 
Q 3544 3216 3844 3400 
Q 4144 3584 4550 3584 
Q 5097 3584 5394 3201 
Q 5691 2819 5691 2113 
L 5691 0 
L 5113 0 
L 5113 2094 
Q 5113 2597 4934 2840 
Q 4756 3084 4391 3084 
Q 3944 3084 3684 2787 
Q 3425 2491 3425 1978 
L 3425 0 
L 2847 0 
L 2847 2094 
Q 2847 2600 2669 2842 
Q 2491 3084 2119 3084 
Q 1678 3084 1418 2786 
Q 1159 2488 1159 1978 
L 1159 0 
L 581 0 
L 581 3500 
L 1159 3500 
L 1159 2956 
Q 1356 3278 1631 3431 
Q 1906 3584 2284 3584 
Q 2666 3584 2933 3390 
Q 3200 3197 3328 2828 
z
" transform="scale(0.015625)"/>
      <path id="DejaVuSans-62" d="M 3116 1747 
Q 3116 2381 2855 2742 
Q 2594 3103 2138 3103 
Q 1681 3103 1420 2742 
Q 1159 2381 1159 1747 
Q 1159 1113 1420 752 
Q 1681 391 2138 391 
Q 2594 391 2855 752 
Q 3116 1113 3116 1747 
z
M 1159 2969 
Q 1341 3281 1617 3432 
Q 1894 3584 2278 3584 
Q 2916 3584 3314 3078 
Q 3713 2572 3713 1747 
Q 3713 922 3314 415 
Q 2916 -91 2278 -91 
Q 1894 -91 1617 61 
Q 1341 213 1159 525 
L 1159 0 
L 581 0 
L 581 4863 
L 1159 4863 
L 1159 2969 
z
" transform="scale(0.015625)"/>
      <path id="DejaVuSans-65" d="M 3597 1894 
L 3597 1613 
L 953 1613 
Q 991 1019 1311 708 
Q 1631 397 2203 397 
Q 2534 397 2845 478 
Q 3156 559 3463 722 
L 3463 178 
Q 3153 47 2828 -22 
Q 2503 -91 2169 -91 
Q 1331 -91 842 396 
Q 353 884 353 1716 
Q 353 2575 817 3079 
Q 1281 3584 2069 3584 
Q 2775 3584 3186 3129 
Q 3597 2675 3597 1894 
z
M 3022 2063 
Q 3016 2534 2758 2815 
Q 2500 3097 2075 3097 
Q 1594 3097 1305 2825 
Q 1016 2553 972 2059 
L 3022 2063 
z
" transform="scale(0.015625)"/>
      <path id="DejaVuSans-64" d="M 2906 2969 
L 2906 4863 
L 3481 4863 
L 3481 0 
L 2906 0 
L 2906 525 
Q 2725 213 2448 61 
Q 2172 -91 1784 -91 
Q 1150 -91 751 415 
Q 353 922 353 1747 
Q 353 2572 751 3078 
Q 1150 3584 1784 3584 
Q 2172 3584 2448 3432 
Q 2725 3281 2906 2969 
z
M 947 1747 
Q 947 1113 1208 752 
Q 1469 391 1925 391 
Q 2381 391 2643 752 
Q 2906 1113 2906 1747 
Q 2906 2381 2643 2742 
Q 2381 3103 1925 3103 
Q 1469 3103 1208 2742 
Q 947 2381 947 1747 
z
" transform="scale(0.015625)"/>
     </defs>
     <use xlink:href="#DejaVuSans-43"/>
     <use xlink:href="#DejaVuSans-6f" transform="translate(69.824219 0)"/>
     <use xlink:href="#DejaVuSans-6d" transform="translate(131.005859 0)"/>
     <use xlink:href="#DejaVuSans-62" transform="translate(228.417969 0)"/>
     <use xlink:href="#DejaVuSans-69" transform="translate(291.894531 0)"/>
     <use xlink:href="#DejaVuSans-6e" transform="translate(319.677734 0)"/>
     <use xlink:href="#DejaVuSans-65" transform="translate(383.056641 0)"/>
     <use xlink:href="#DejaVuSans-64" transform="translate(444.580078 0)"/>
     <use xlink:href="#DejaVuSans-20" transform="translate(508.056641 0)"/>
     <use xlink:href="#DejaVuSans-54" transform="translate(539.84375 0)"/>
     <use xlink:href="#DejaVuSans-72" transform="translate(586.177734 0)"/>
     <use xlink:href="#DejaVuSans-61" transform="translate(627.291016 0)"/>
     <use xlink:href="#DejaVuSans-69" transform="translate(688.570312 0)"/>
     <use xlink:href="#DejaVuSans-6e" transform="translate(716.353516 0)"/>
     <use xlink:href="#DejaVuSans-20" transform="translate(779.732422 0)"/>
     <use xlink:href="#DejaVuSans-41" transform="translate(811.519531 0)"/>
     <use xlink:href="#DejaVuSans-63" transform="translate(878.177734 0)"/>
     <use xlink:href="#DejaVuSans-63" transform="translate(933.158203 0)"/>
     <use xlink:href="#DejaVuSans-75" transform="translate(988.138672 0)"/>
     <use xlink:href="#DejaVuSans-72" transform="translate(1051.517578 0)"/>
     <use xlink:href="#DejaVuSans-61" transform="translate(1092.630859 0)"/>
     <use xlink:href="#DejaVuSans-63" transform="translate(1153.910156 0)"/>
     <use xlink:href="#DejaVuSans-79" transform="translate(1208.890625 0)"/>
    </g>
   </g>
   <g id="legend_1">
    <g id="patch_7">
     <path d="M 636.23875 103.70875 
L 698.41375 103.70875 
Q 700.41375 103.70875 700.41375 101.70875 
L 700.41375 29.318125 
Q 700.41375 27.318125 698.41375 27.318125 
L 636.23875 27.318125 
Q 634.23875 27.318125 634.23875 29.318125 
L 634.23875 101.70875 
Q 634.23875 103.70875 636.23875 103.70875 
z
" style="fill: #ffffff; opacity: 0.8; stroke: #cccccc; stroke-linejoin: miter"/>
    </g>
    <g id="line2d_18">
     <path d="M 638.23875 35.416562 
L 648.23875 35.416562 
L 658.23875 35.416562 
" style="fill: none; stroke: #1f77b4; stroke-width: 1.5; stroke-linecap: square"/>
    </g>
    <g id="text_16">
     <!-- Fold 1 -->
     <g transform="translate(666.23875 38.916562) scale(0.1 -0.1)">
      <defs>
       <path id="DejaVuSans-46" d="M 628 4666 
L 3309 4666 
L 3309 4134 
L 1259 4134 
L 1259 2759 
L 3109 2759 
L 3109 2228 
L 1259 2228 
L 1259 0 
L 628 0 
L 628 4666 
z
" transform="scale(0.015625)"/>
       <path id="DejaVuSans-6c" d="M 603 4863 
L 1178 4863 
L 1178 0 
L 603 0 
L 603 4863 
z
" transform="scale(0.015625)"/>
      </defs>
      <use xlink:href="#DejaVuSans-46"/>
      <use xlink:href="#DejaVuSans-6f" transform="translate(53.894531 0)"/>
      <use xlink:href="#DejaVuSans-6c" transform="translate(115.076172 0)"/>
      <use xlink:href="#DejaVuSans-64" transform="translate(142.859375 0)"/>
      <use xlink:href="#DejaVuSans-20" transform="translate(206.335938 0)"/>
      <use xlink:href="#DejaVuSans-31" transform="translate(238.123047 0)"/>
     </g>
    </g>
    <g id="line2d_19">
     <path d="M 638.23875 50.094688 
L 648.23875 50.094688 
L 658.23875 50.094688 
" style="fill: none; stroke: #ff7f0e; stroke-width: 1.5; stroke-linecap: square"/>
    </g>
    <g id="text_17">
     <!-- Fold 2 -->
     <g transform="translate(666.23875 53.594688) scale(0.1 -0.1)">
      <use xlink:href="#DejaVuSans-46"/>
      <use xlink:href="#DejaVuSans-6f" transform="translate(53.894531 0)"/>
      <use xlink:href="#DejaVuSans-6c" transform="translate(115.076172 0)"/>
      <use xlink:href="#DejaVuSans-64" transform="translate(142.859375 0)"/>
      <use xlink:href="#DejaVuSans-20" transform="translate(206.335938 0)"/>
      <use xlink:href="#DejaVuSans-32" transform="translate(238.123047 0)"/>
     </g>
    </g>
    <g id="line2d_20">
     <path d="M 638.23875 64.772812 
L 648.23875 64.772812 
L 658.23875 64.772812 
" style="fill: none; stroke: #2ca02c; stroke-width: 1.5; stroke-linecap: square"/>
    </g>
    <g id="text_18">
     <!-- Fold 3 -->
     <g transform="translate(666.23875 68.272812) scale(0.1 -0.1)">
      <use xlink:href="#DejaVuSans-46"/>
      <use xlink:href="#DejaVuSans-6f" transform="translate(53.894531 0)"/>
      <use xlink:href="#DejaVuSans-6c" transform="translate(115.076172 0)"/>
      <use xlink:href="#DejaVuSans-64" transform="translate(142.859375 0)"/>
      <use xlink:href="#DejaVuSans-20" transform="translate(206.335938 0)"/>
      <use xlink:href="#DejaVuSans-33" transform="translate(238.123047 0)"/>
     </g>
    </g>
    <g id="line2d_21">
     <path d="M 638.23875 79.450938 
L 648.23875 79.450938 
L 658.23875 79.450938 
" style="fill: none; stroke: #d62728; stroke-width: 1.5; stroke-linecap: square"/>
    </g>
    <g id="text_19">
     <!-- Fold 4 -->
     <g transform="translate(666.23875 82.950938) scale(0.1 -0.1)">
      <use xlink:href="#DejaVuSans-46"/>
      <use xlink:href="#DejaVuSans-6f" transform="translate(53.894531 0)"/>
      <use xlink:href="#DejaVuSans-6c" transform="translate(115.076172 0)"/>
      <use xlink:href="#DejaVuSans-64" transform="translate(142.859375 0)"/>
      <use xlink:href="#DejaVuSans-20" transform="translate(206.335938 0)"/>
      <use xlink:href="#DejaVuSans-34" transform="translate(238.123047 0)"/>
     </g>
    </g>
    <g id="line2d_22">
     <path d="M 638.23875 94.129063 
L 648.23875 94.129063 
L 658.23875 94.129063 
" style="fill: none; stroke: #9467bd; stroke-width: 1.5; stroke-linecap: square"/>
    </g>
    <g id="text_20">
     <!-- Fold 5 -->
     <g transform="translate(666.23875 97.629063) scale(0.1 -0.1)">
      <use xlink:href="#DejaVuSans-46"/>
      <use xlink:href="#DejaVuSans-6f" transform="translate(53.894531 0)"/>
      <use xlink:href="#DejaVuSans-6c" transform="translate(115.076172 0)"/>
      <use xlink:href="#DejaVuSans-64" transform="translate(142.859375 0)"/>
      <use xlink:href="#DejaVuSans-20" transform="translate(206.335938 0)"/>
      <use xlink:href="#DejaVuSans-35" transform="translate(238.123047 0)"/>
     </g>
    </g>
   </g>
  </g>
 </g>
 <defs>
  <clipPath id="pc7e9a0beb7">
   <rect x="50.14375" y="22.318125" width="655.27" height="363.16"/>
  </clipPath>
 </defs>
</svg>
