<?xml version="1.0" encoding="utf-8" standalone="no"?>
<!DOCTYPE svg PUBLIC "-//W3C//DTD SVG 1.1//EN"
  "http://www.w3.org/Graphics/SVG/1.1/DTD/svg11.dtd">
<svg xmlns:xlink="http://www.w3.org/1999/xlink" width="712.52375pt" height="423.034375pt" viewBox="0 0 712.52375 423.034375" xmlns="http://www.w3.org/2000/svg" version="1.1">
 <metadata>
  <rdf:RDF xmlns:dc="http://purl.org/dc/elements/1.1/" xmlns:cc="http://creativecommons.org/ns#" xmlns:rdf="http://www.w3.org/1999/02/22-rdf-syntax-ns#">
   <cc:Work>
    <dc:type rdf:resource="http://purl.org/dc/dcmitype/StillImage"/>
    <dc:date>2025-06-26T16:05:40.285098</dc:date>
    <dc:format>image/svg+xml</dc:format>
    <dc:creator>
     <cc:Agent>
      <dc:title>Matplotlib v3.10.0, https://matplotlib.org/</dc:title>
     </cc:Agent>
    </dc:creator>
   </cc:Work>
  </rdf:RDF>
 </metadata>
 <defs>
  <style type="text/css">*{stroke-linejoin: round; stroke-linecap: butt}</style>
 </defs>
 <g id="figure_1">
  <g id="patch_1">
   <path d="M 0 423.034375 
L 712.52375 423.034375 
L 712.52375 0 
L 0 0 
z
" style="fill: #ffffff"/>
  </g>
  <g id="axes_1">
   <g id="patch_2">
    <path d="M 50.14375 385.478125 
L 705.32375 385.478125 
L 705.32375 22.318125 
L 50.14375 22.318125 
z
" style="fill: #ffffff"/>
   </g>
   <g id="matplotlib.axis_1">
    <g id="xtick_1">
     <g id="line2d_1">
      <defs>
       <path id="mcc8afd0ba0" d="M 0 0 
L 0 3.5 
" style="stroke: #000000; stroke-width: 0.8"/>
      </defs>
      <g>
       <use xlink:href="#mcc8afd0ba0" x="73.908314" y="385.478125" style="stroke: #000000; stroke-width: 0.8"/>
      </g>
     </g>
     <g id="text_1">
      <!-- 0 -->
      <g transform="translate(70.727064 400.076562) scale(0.1 -0.1)">
       <defs>
        <path id="DejaVuSans-30" d="M 2034 4250 
Q 1547 4250 1301 3770 
Q 1056 3291 1056 2328 
Q 1056 1369 1301 889 
Q 1547 409 2034 409 
Q 2525 409 2770 889 
Q 3016 1369 3016 2328 
Q 3016 3291 2770 3770 
Q 2525 4250 2034 4250 
z
M 2034 4750 
Q 2819 4750 3233 4129 
Q 3647 3509 3647 2328 
Q 3647 1150 3233 529 
Q 2819 -91 2034 -91 
Q 1250 -91 836 529 
Q 422 1150 422 2328 
Q 422 3509 836 4129 
Q 1250 4750 2034 4750 
z
" transform="scale(0.015625)"/>
       </defs>
       <use xlink:href="#DejaVuSans-30"/>
      </g>
     </g>
    </g>
    <g id="xtick_2">
     <g id="line2d_2">
      <g>
       <use xlink:href="#mcc8afd0ba0" x="194.235219" y="385.478125" style="stroke: #000000; stroke-width: 0.8"/>
      </g>
     </g>
     <g id="text_2">
      <!-- 20 -->
      <g transform="translate(187.872719 400.076562) scale(0.1 -0.1)">
       <defs>
        <path id="DejaVuSans-32" d="M 1228 531 
L 3431 531 
L 3431 0 
L 469 0 
L 469 531 
Q 828 903 1448 1529 
Q 2069 2156 2228 2338 
Q 2531 2678 2651 2914 
Q 2772 3150 2772 3378 
Q 2772 3750 2511 3984 
Q 2250 4219 1831 4219 
Q 1534 4219 1204 4116 
Q 875 4013 500 3803 
L 500 4441 
Q 881 4594 1212 4672 
Q 1544 4750 1819 4750 
Q 2544 4750 2975 4387 
Q 3406 4025 3406 3419 
Q 3406 3131 3298 2873 
Q 3191 2616 2906 2266 
Q 2828 2175 2409 1742 
Q 1991 1309 1228 531 
z
" transform="scale(0.015625)"/>
       </defs>
       <use xlink:href="#DejaVuSans-32"/>
       <use xlink:href="#DejaVuSans-30" transform="translate(63.623047 0)"/>
      </g>
     </g>
    </g>
    <g id="xtick_3">
     <g id="line2d_3">
      <g>
       <use xlink:href="#mcc8afd0ba0" x="314.562125" y="385.478125" style="stroke: #000000; stroke-width: 0.8"/>
      </g>
     </g>
     <g id="text_3">
      <!-- 40 -->
      <g transform="translate(308.199625 400.076562) scale(0.1 -0.1)">
       <defs>
        <path id="DejaVuSans-34" d="M 2419 4116 
L 825 1625 
L 2419 1625 
L 2419 4116 
z
M 2253 4666 
L 3047 4666 
L 3047 1625 
L 3713 1625 
L 3713 1100 
L 3047 1100 
L 3047 0 
L 2419 0 
L 2419 1100 
L 313 1100 
L 313 1709 
L 2253 4666 
z
" transform="scale(0.015625)"/>
       </defs>
       <use xlink:href="#DejaVuSans-34"/>
       <use xlink:href="#DejaVuSans-30" transform="translate(63.623047 0)"/>
      </g>
     </g>
    </g>
    <g id="xtick_4">
     <g id="line2d_4">
      <g>
       <use xlink:href="#mcc8afd0ba0" x="434.88903" y="385.478125" style="stroke: #000000; stroke-width: 0.8"/>
      </g>
     </g>
     <g id="text_4">
      <!-- 60 -->
      <g transform="translate(428.52653 400.076562) scale(0.1 -0.1)">
       <defs>
        <path id="DejaVuSans-36" d="M 2113 2584 
Q 1688 2584 1439 2293 
Q 1191 2003 1191 1497 
Q 1191 994 1439 701 
Q 1688 409 2113 409 
Q 2538 409 2786 701 
Q 3034 994 3034 1497 
Q 3034 2003 2786 2293 
Q 2538 2584 2113 2584 
z
M 3366 4563 
L 3366 3988 
Q 3128 4100 2886 4159 
Q 2644 4219 2406 4219 
Q 1781 4219 1451 3797 
Q 1122 3375 1075 2522 
Q 1259 2794 1537 2939 
Q 1816 3084 2150 3084 
Q 2853 3084 3261 2657 
Q 3669 2231 3669 1497 
Q 3669 778 3244 343 
Q 2819 -91 2113 -91 
Q 1303 -91 875 529 
Q 447 1150 447 2328 
Q 447 3434 972 4092 
Q 1497 4750 2381 4750 
Q 2619 4750 2861 4703 
Q 3103 4656 3366 4563 
z
" transform="scale(0.015625)"/>
       </defs>
       <use xlink:href="#DejaVuSans-36"/>
       <use xlink:href="#DejaVuSans-30" transform="translate(63.623047 0)"/>
      </g>
     </g>
    </g>
    <g id="xtick_5">
     <g id="line2d_5">
      <g>
       <use xlink:href="#mcc8afd0ba0" x="555.215935" y="385.478125" style="stroke: #000000; stroke-width: 0.8"/>
      </g>
     </g>
     <g id="text_5">
      <!-- 80 -->
      <g transform="translate(548.853435 400.076562) scale(0.1 -0.1)">
       <defs>
        <path id="DejaVuSans-38" d="M 2034 2216 
Q 1584 2216 1326 1975 
Q 1069 1734 1069 1313 
Q 1069 891 1326 650 
Q 1584 409 2034 409 
Q 2484 409 2743 651 
Q 3003 894 3003 1313 
Q 3003 1734 2745 1975 
Q 2488 2216 2034 2216 
z
M 1403 2484 
Q 997 2584 770 2862 
Q 544 3141 544 3541 
Q 544 4100 942 4425 
Q 1341 4750 2034 4750 
Q 2731 4750 3128 4425 
Q 3525 4100 3525 3541 
Q 3525 3141 3298 2862 
Q 3072 2584 2669 2484 
Q 3125 2378 3379 2068 
Q 3634 1759 3634 1313 
Q 3634 634 3220 271 
Q 2806 -91 2034 -91 
Q 1263 -91 848 271 
Q 434 634 434 1313 
Q 434 1759 690 2068 
Q 947 2378 1403 2484 
z
M 1172 3481 
Q 1172 3119 1398 2916 
Q 1625 2713 2034 2713 
Q 2441 2713 2670 2916 
Q 2900 3119 2900 3481 
Q 2900 3844 2670 4047 
Q 2441 4250 2034 4250 
Q 1625 4250 1398 4047 
Q 1172 3844 1172 3481 
z
" transform="scale(0.015625)"/>
       </defs>
       <use xlink:href="#DejaVuSans-38"/>
       <use xlink:href="#DejaVuSans-30" transform="translate(63.623047 0)"/>
      </g>
     </g>
    </g>
    <g id="xtick_6">
     <g id="line2d_6">
      <g>
       <use xlink:href="#mcc8afd0ba0" x="675.542841" y="385.478125" style="stroke: #000000; stroke-width: 0.8"/>
      </g>
     </g>
     <g id="text_6">
      <!-- 100 -->
      <g transform="translate(665.999091 400.076562) scale(0.1 -0.1)">
       <defs>
        <path id="DejaVuSans-31" d="M 794 531 
L 1825 531 
L 1825 4091 
L 703 3866 
L 703 4441 
L 1819 4666 
L 2450 4666 
L 2450 531 
L 3481 531 
L 3481 0 
L 794 0 
L 794 531 
z
" transform="scale(0.015625)"/>
       </defs>
       <use xlink:href="#DejaVuSans-31"/>
       <use xlink:href="#DejaVuSans-30" transform="translate(63.623047 0)"/>
       <use xlink:href="#DejaVuSans-30" transform="translate(127.246094 0)"/>
      </g>
     </g>
    </g>
    <g id="text_7">
     <!-- Epoch -->
     <g transform="translate(362.422813 413.754687) scale(0.1 -0.1)">
      <defs>
       <path id="DejaVuSans-45" d="M 628 4666 
L 3578 4666 
L 3578 4134 
L 1259 4134 
L 1259 2753 
L 3481 2753 
L 3481 2222 
L 1259 2222 
L 1259 531 
L 3634 531 
L 3634 0 
L 628 0 
L 628 4666 
z
" transform="scale(0.015625)"/>
       <path id="DejaVuSans-70" d="M 1159 525 
L 1159 -1331 
L 581 -1331 
L 581 3500 
L 1159 3500 
L 1159 2969 
Q 1341 3281 1617 3432 
Q 1894 3584 2278 3584 
Q 2916 3584 3314 3078 
Q 3713 2572 3713 1747 
Q 3713 922 3314 415 
Q 2916 -91 2278 -91 
Q 1894 -91 1617 61 
Q 1341 213 1159 525 
z
M 3116 1747 
Q 3116 2381 2855 2742 
Q 2594 3103 2138 3103 
Q 1681 3103 1420 2742 
Q 1159 2381 1159 1747 
Q 1159 1113 1420 752 
Q 1681 391 2138 391 
Q 2594 391 2855 752 
Q 3116 1113 3116 1747 
z
" transform="scale(0.015625)"/>
       <path id="DejaVuSans-6f" d="M 1959 3097 
Q 1497 3097 1228 2736 
Q 959 2375 959 1747 
Q 959 1119 1226 758 
Q 1494 397 1959 397 
Q 2419 397 2687 759 
Q 2956 1122 2956 1747 
Q 2956 2369 2687 2733 
Q 2419 3097 1959 3097 
z
M 1959 3584 
Q 2709 3584 3137 3096 
Q 3566 2609 3566 1747 
Q 3566 888 3137 398 
Q 2709 -91 1959 -91 
Q 1206 -91 779 398 
Q 353 888 353 1747 
Q 353 2609 779 3096 
Q 1206 3584 1959 3584 
z
" transform="scale(0.015625)"/>
       <path id="DejaVuSans-63" d="M 3122 3366 
L 3122 2828 
Q 2878 2963 2633 3030 
Q 2388 3097 2138 3097 
Q 1578 3097 1268 2742 
Q 959 2388 959 1747 
Q 959 1106 1268 751 
Q 1578 397 2138 397 
Q 2388 397 2633 464 
Q 2878 531 3122 666 
L 3122 134 
Q 2881 22 2623 -34 
Q 2366 -91 2075 -91 
Q 1284 -91 818 406 
Q 353 903 353 1747 
Q 353 2603 823 3093 
Q 1294 3584 2113 3584 
Q 2378 3584 2631 3529 
Q 2884 3475 3122 3366 
z
" transform="scale(0.015625)"/>
       <path id="DejaVuSans-68" d="M 3513 2113 
L 3513 0 
L 2938 0 
L 2938 2094 
Q 2938 2591 2744 2837 
Q 2550 3084 2163 3084 
Q 1697 3084 1428 2787 
Q 1159 2491 1159 1978 
L 1159 0 
L 581 0 
L 581 4863 
L 1159 4863 
L 1159 2956 
Q 1366 3272 1645 3428 
Q 1925 3584 2291 3584 
Q 2894 3584 3203 3211 
Q 3513 2838 3513 2113 
z
" transform="scale(0.015625)"/>
      </defs>
      <use xlink:href="#DejaVuSans-45"/>
      <use xlink:href="#DejaVuSans-70" transform="translate(63.183594 0)"/>
      <use xlink:href="#DejaVuSans-6f" transform="translate(126.660156 0)"/>
      <use xlink:href="#DejaVuSans-63" transform="translate(187.841797 0)"/>
      <use xlink:href="#DejaVuSans-68" transform="translate(242.822266 0)"/>
     </g>
    </g>
   </g>
   <g id="matplotlib.axis_2">
    <g id="ytick_1">
     <g id="line2d_7">
      <defs>
       <path id="m8730a59322" d="M 0 0 
L -3.5 0 
" style="stroke: #000000; stroke-width: 0.8"/>
      </defs>
      <g>
       <use xlink:href="#m8730a59322" x="50.14375" y="368.309872" style="stroke: #000000; stroke-width: 0.8"/>
      </g>
     </g>
     <g id="text_8">
      <!-- 0.75 -->
      <g transform="translate(20.878125 372.10909) scale(0.1 -0.1)">
       <defs>
        <path id="DejaVuSans-2e" d="M 684 794 
L 1344 794 
L 1344 0 
L 684 0 
L 684 794 
z
" transform="scale(0.015625)"/>
        <path id="DejaVuSans-37" d="M 525 4666 
L 3525 4666 
L 3525 4397 
L 1831 0 
L 1172 0 
L 2766 4134 
L 525 4134 
L 525 4666 
z
" transform="scale(0.015625)"/>
        <path id="DejaVuSans-35" d="M 691 4666 
L 3169 4666 
L 3169 4134 
L 1269 4134 
L 1269 2991 
Q 1406 3038 1543 3061 
Q 1681 3084 1819 3084 
Q 2600 3084 3056 2656 
Q 3513 2228 3513 1497 
Q 3513 744 3044 326 
Q 2575 -91 1722 -91 
Q 1428 -91 1123 -41 
Q 819 9 494 109 
L 494 744 
Q 775 591 1075 516 
Q 1375 441 1709 441 
Q 2250 441 2565 725 
Q 2881 1009 2881 1497 
Q 2881 1984 2565 2268 
Q 2250 2553 1709 2553 
Q 1456 2553 1204 2497 
Q 953 2441 691 2322 
L 691 4666 
z
" transform="scale(0.015625)"/>
       </defs>
       <use xlink:href="#DejaVuSans-30"/>
       <use xlink:href="#DejaVuSans-2e" transform="translate(63.623047 0)"/>
       <use xlink:href="#DejaVuSans-37" transform="translate(95.410156 0)"/>
       <use xlink:href="#DejaVuSans-35" transform="translate(159.033203 0)"/>
      </g>
     </g>
    </g>
    <g id="ytick_2">
     <g id="line2d_8">
      <g>
       <use xlink:href="#m8730a59322" x="50.14375" y="319.764667" style="stroke: #000000; stroke-width: 0.8"/>
      </g>
     </g>
     <g id="text_9">
      <!-- 1.00 -->
      <g transform="translate(20.878125 323.563886) scale(0.1 -0.1)">
       <use xlink:href="#DejaVuSans-31"/>
       <use xlink:href="#DejaVuSans-2e" transform="translate(63.623047 0)"/>
       <use xlink:href="#DejaVuSans-30" transform="translate(95.410156 0)"/>
       <use xlink:href="#DejaVuSans-30" transform="translate(159.033203 0)"/>
      </g>
     </g>
    </g>
    <g id="ytick_3">
     <g id="line2d_9">
      <g>
       <use xlink:href="#m8730a59322" x="50.14375" y="271.219462" style="stroke: #000000; stroke-width: 0.8"/>
      </g>
     </g>
     <g id="text_10">
      <!-- 1.25 -->
      <g transform="translate(20.878125 275.018681) scale(0.1 -0.1)">
       <use xlink:href="#DejaVuSans-31"/>
       <use xlink:href="#DejaVuSans-2e" transform="translate(63.623047 0)"/>
       <use xlink:href="#DejaVuSans-32" transform="translate(95.410156 0)"/>
       <use xlink:href="#DejaVuSans-35" transform="translate(159.033203 0)"/>
      </g>
     </g>
    </g>
    <g id="ytick_4">
     <g id="line2d_10">
      <g>
       <use xlink:href="#m8730a59322" x="50.14375" y="222.674257" style="stroke: #000000; stroke-width: 0.8"/>
      </g>
     </g>
     <g id="text_11">
      <!-- 1.50 -->
      <g transform="translate(20.878125 226.473476) scale(0.1 -0.1)">
       <use xlink:href="#DejaVuSans-31"/>
       <use xlink:href="#DejaVuSans-2e" transform="translate(63.623047 0)"/>
       <use xlink:href="#DejaVuSans-35" transform="translate(95.410156 0)"/>
       <use xlink:href="#DejaVuSans-30" transform="translate(159.033203 0)"/>
      </g>
     </g>
    </g>
    <g id="ytick_5">
     <g id="line2d_11">
      <g>
       <use xlink:href="#m8730a59322" x="50.14375" y="174.129053" style="stroke: #000000; stroke-width: 0.8"/>
      </g>
     </g>
     <g id="text_12">
      <!-- 1.75 -->
      <g transform="translate(20.878125 177.928271) scale(0.1 -0.1)">
       <use xlink:href="#DejaVuSans-31"/>
       <use xlink:href="#DejaVuSans-2e" transform="translate(63.623047 0)"/>
       <use xlink:href="#DejaVuSans-37" transform="translate(95.410156 0)"/>
       <use xlink:href="#DejaVuSans-35" transform="translate(159.033203 0)"/>
      </g>
     </g>
    </g>
    <g id="ytick_6">
     <g id="line2d_12">
      <g>
       <use xlink:href="#m8730a59322" x="50.14375" y="125.583848" style="stroke: #000000; stroke-width: 0.8"/>
      </g>
     </g>
     <g id="text_13">
      <!-- 2.00 -->
      <g transform="translate(20.878125 129.383066) scale(0.1 -0.1)">
       <use xlink:href="#DejaVuSans-32"/>
       <use xlink:href="#DejaVuSans-2e" transform="translate(63.623047 0)"/>
       <use xlink:href="#DejaVuSans-30" transform="translate(95.410156 0)"/>
       <use xlink:href="#DejaVuSans-30" transform="translate(159.033203 0)"/>
      </g>
     </g>
    </g>
    <g id="ytick_7">
     <g id="line2d_13">
      <g>
       <use xlink:href="#m8730a59322" x="50.14375" y="77.038643" style="stroke: #000000; stroke-width: 0.8"/>
      </g>
     </g>
     <g id="text_14">
      <!-- 2.25 -->
      <g transform="translate(20.878125 80.837862) scale(0.1 -0.1)">
       <use xlink:href="#DejaVuSans-32"/>
       <use xlink:href="#DejaVuSans-2e" transform="translate(63.623047 0)"/>
       <use xlink:href="#DejaVuSans-32" transform="translate(95.410156 0)"/>
       <use xlink:href="#DejaVuSans-35" transform="translate(159.033203 0)"/>
      </g>
     </g>
    </g>
    <g id="ytick_8">
     <g id="line2d_14">
      <g>
       <use xlink:href="#m8730a59322" x="50.14375" y="28.493438" style="stroke: #000000; stroke-width: 0.8"/>
      </g>
     </g>
     <g id="text_15">
      <!-- 2.50 -->
      <g transform="translate(20.878125 32.292657) scale(0.1 -0.1)">
       <use xlink:href="#DejaVuSans-32"/>
       <use xlink:href="#DejaVuSans-2e" transform="translate(63.623047 0)"/>
       <use xlink:href="#DejaVuSans-35" transform="translate(95.410156 0)"/>
       <use xlink:href="#DejaVuSans-30" transform="translate(159.033203 0)"/>
      </g>
     </g>
    </g>
    <g id="text_16">
     <!-- Train Loss -->
     <g transform="translate(14.798438 228.448125) rotate(-90) scale(0.1 -0.1)">
      <defs>
       <path id="DejaVuSans-54" d="M -19 4666 
L 3928 4666 
L 3928 4134 
L 2272 4134 
L 2272 0 
L 1638 0 
L 1638 4134 
L -19 4134 
L -19 4666 
z
" transform="scale(0.015625)"/>
       <path id="DejaVuSans-72" d="M 2631 2963 
Q 2534 3019 2420 3045 
Q 2306 3072 2169 3072 
Q 1681 3072 1420 2755 
Q 1159 2438 1159 1844 
L 1159 0 
L 581 0 
L 581 3500 
L 1159 3500 
L 1159 2956 
Q 1341 3275 1631 3429 
Q 1922 3584 2338 3584 
Q 2397 3584 2469 3576 
Q 2541 3569 2628 3553 
L 2631 2963 
z
" transform="scale(0.015625)"/>
       <path id="DejaVuSans-61" d="M 2194 1759 
Q 1497 1759 1228 1600 
Q 959 1441 959 1056 
Q 959 750 1161 570 
Q 1363 391 1709 391 
Q 2188 391 2477 730 
Q 2766 1069 2766 1631 
L 2766 1759 
L 2194 1759 
z
M 3341 1997 
L 3341 0 
L 2766 0 
L 2766 531 
Q 2569 213 2275 61 
Q 1981 -91 1556 -91 
Q 1019 -91 701 211 
Q 384 513 384 1019 
Q 384 1609 779 1909 
Q 1175 2209 1959 2209 
L 2766 2209 
L 2766 2266 
Q 2766 2663 2505 2880 
Q 2244 3097 1772 3097 
Q 1472 3097 1187 3025 
Q 903 2953 641 2809 
L 641 3341 
Q 956 3463 1253 3523 
Q 1550 3584 1831 3584 
Q 2591 3584 2966 3190 
Q 3341 2797 3341 1997 
z
" transform="scale(0.015625)"/>
       <path id="DejaVuSans-69" d="M 603 3500 
L 1178 3500 
L 1178 0 
L 603 0 
L 603 3500 
z
M 603 4863 
L 1178 4863 
L 1178 4134 
L 603 4134 
L 603 4863 
z
" transform="scale(0.015625)"/>
       <path id="DejaVuSans-6e" d="M 3513 2113 
L 3513 0 
L 2938 0 
L 2938 2094 
Q 2938 2591 2744 2837 
Q 2550 3084 2163 3084 
Q 1697 3084 1428 2787 
Q 1159 2491 1159 1978 
L 1159 0 
L 581 0 
L 581 3500 
L 1159 3500 
L 1159 2956 
Q 1366 3272 1645 3428 
Q 1925 3584 2291 3584 
Q 2894 3584 3203 3211 
Q 3513 2838 3513 2113 
z
" transform="scale(0.015625)"/>
       <path id="DejaVuSans-20" transform="scale(0.015625)"/>
       <path id="DejaVuSans-4c" d="M 628 4666 
L 1259 4666 
L 1259 531 
L 3531 531 
L 3531 0 
L 628 0 
L 628 4666 
z
" transform="scale(0.015625)"/>
       <path id="DejaVuSans-73" d="M 2834 3397 
L 2834 2853 
Q 2591 2978 2328 3040 
Q 2066 3103 1784 3103 
Q 1356 3103 1142 2972 
Q 928 2841 928 2578 
Q 928 2378 1081 2264 
Q 1234 2150 1697 2047 
L 1894 2003 
Q 2506 1872 2764 1633 
Q 3022 1394 3022 966 
Q 3022 478 2636 193 
Q 2250 -91 1575 -91 
Q 1294 -91 989 -36 
Q 684 19 347 128 
L 347 722 
Q 666 556 975 473 
Q 1284 391 1588 391 
Q 1994 391 2212 530 
Q 2431 669 2431 922 
Q 2431 1156 2273 1281 
Q 2116 1406 1581 1522 
L 1381 1569 
Q 847 1681 609 1914 
Q 372 2147 372 2553 
Q 372 3047 722 3315 
Q 1072 3584 1716 3584 
Q 2034 3584 2315 3537 
Q 2597 3491 2834 3397 
z
" transform="scale(0.015625)"/>
      </defs>
      <use xlink:href="#DejaVuSans-54"/>
      <use xlink:href="#DejaVuSans-72" transform="translate(46.333984 0)"/>
      <use xlink:href="#DejaVuSans-61" transform="translate(87.447266 0)"/>
      <use xlink:href="#DejaVuSans-69" transform="translate(148.726562 0)"/>
      <use xlink:href="#DejaVuSans-6e" transform="translate(176.509766 0)"/>
      <use xlink:href="#DejaVuSans-20" transform="translate(239.888672 0)"/>
      <use xlink:href="#DejaVuSans-4c" transform="translate(271.675781 0)"/>
      <use xlink:href="#DejaVuSans-6f" transform="translate(325.638672 0)"/>
      <use xlink:href="#DejaVuSans-73" transform="translate(386.820312 0)"/>
      <use xlink:href="#DejaVuSans-73" transform="translate(438.919922 0)"/>
     </g>
    </g>
   </g>
   <g id="line2d_15">
    <path d="M 79.924659 337.765303 
L 85.941004 351.610102 
L 91.95735 353.848326 
L 97.973695 354.440005 
L 103.99004 355.144518 
L 110.006385 354.815808 
L 116.022731 355.396762 
L 122.039076 355.308099 
L 128.055421 355.430204 
L 134.071767 354.621877 
L 140.088112 354.726367 
L 146.104457 355.199674 
L 152.120802 353.75214 
L 158.137148 355.227417 
L 164.153493 353.930306 
L 170.169838 354.281718 
L 176.186183 355.003101 
L 182.202529 355.574484 
L 188.218874 354.34673 
L 194.235219 353.163345 
L 200.251565 354.507189 
L 206.26791 353.21749 
L 212.284255 354.56746 
L 218.3006 354.483752 
L 224.316946 354.785882 
L 230.333291 354.580443 
L 236.349636 353.931574 
L 242.365981 354.129954 
L 248.382327 353.994133 
L 254.398672 354.32564 
L 260.415017 354.674843 
L 266.431362 355.292811 
L 272.447708 354.444813 
L 278.464053 353.585759 
L 284.480398 354.136145 
L 290.496744 354.798136 
L 296.513089 355.384158 
L 302.529434 354.589914 
L 308.545779 355.074525 
L 314.562125 354.412315 
L 320.57847 354.599111 
L 326.594815 354.283253 
L 332.61116 355.295657 
L 338.627506 355.234562 
L 344.643851 353.893142 
L 350.660196 354.939577 
L 356.676542 354.895838 
L 362.692887 353.608258 
L 368.709232 354.949441 
L 374.725577 38.825398 
L 380.741923 81.817622 
L 386.758268 173.74133 
L 392.774613 190.45996 
L 398.790958 204.175264 
L 404.807304 195.930981 
L 410.823649 206.780036 
L 416.839994 207.778384 
L 422.85634 190.822628 
L 428.872685 207.532683 
L 434.88903 207.820896 
L 440.905375 210.610699 
L 446.921721 212.641098 
L 452.938066 208.474758 
L 458.954411 212.839221 
L 464.970756 202.947747 
L 470.987102 215.237777 
L 477.003447 214.583319 
L 483.019792 214.605638 
L 489.036138 213.84717 
L 495.052483 211.33631 
L 501.068828 203.067113 
L 507.085173 194.044269 
L 513.101519 206.7766 
L 519.117864 218.649921 
L 525.134209 213.767536 
L 531.150554 216.058012 
L 537.1669 208.428062 
L 543.183245 209.697779 
L 549.19959 219.071424 
L 555.215935 215.738658 
L 561.232281 208.422375 
L 567.248626 218.292564 
L 573.264971 208.75342 
L 579.281317 218.438703 
L 585.297662 207.132202 
L 591.314007 213.936818 
L 597.330352 203.807974 
L 603.346698 205.448708 
L 609.363043 212.243777 
L 615.379388 217.041892 
L 621.395733 202.556374 
L 627.412079 215.78318 
L 633.428424 217.098248 
L 639.444769 209.455958 
L 645.461115 211.936551 
L 651.47746 193.795691 
L 657.493805 216.054881 
L 663.51015 210.931122 
L 669.526496 217.788167 
L 675.542841 213.413095 
" clip-path="url(#pd978dc6118)" style="fill: none; stroke: #1f77b4; stroke-width: 1.5; stroke-linecap: square"/>
   </g>
   <g id="line2d_16">
    <path d="M 79.924659 331.451721 
L 85.941004 344.951117 
L 91.95735 343.91044 
L 97.973695 343.397998 
L 103.99004 341.584488 
L 110.006385 346.591556 
L 116.022731 346.751954 
L 122.039076 349.760378 
L 128.055421 352.271425 
L 134.071767 349.094002 
L 140.088112 349.74428 
L 146.104457 345.793335 
L 152.120802 352.062328 
L 158.137148 352.460899 
L 164.153493 345.718411 
L 170.169838 351.796353 
L 176.186183 348.018906 
L 182.202529 347.417223 
L 188.218874 352.573953 
L 194.235219 349.8647 
L 200.251565 342.746178 
L 206.26791 344.820568 
L 212.284255 349.322168 
L 218.3006 239.19552 
L 224.316946 175.151846 
L 230.333291 230.258748 
L 236.349636 233.273669 
L 242.365981 234.121177 
L 248.382327 234.243253 
L 254.398672 230.597703 
L 260.415017 237.607936 
L 266.431362 235.853813 
L 272.447708 234.066212 
L 278.464053 235.345407 
L 284.480398 236.646437 
L 290.496744 236.696649 
L 296.513089 233.311798 
L 302.529434 238.767364 
L 308.545779 235.055586 
L 314.562125 237.467646 
L 320.57847 234.292067 
L 326.594815 237.119554 
L 332.61116 236.153481 
L 338.627506 234.010249 
L 344.643851 237.070337 
L 350.660196 235.476199 
L 356.676542 235.237656 
L 362.692887 229.563441 
L 368.709232 234.003218 
L 374.725577 236.006467 
L 380.741923 234.609041 
L 386.758268 236.068494 
L 392.774613 235.507291 
L 398.790958 234.082099 
L 404.807304 234.323436 
L 410.823649 235.546381 
L 416.839994 235.432433 
L 422.85634 233.71372 
L 428.872685 232.611668 
L 434.88903 234.668616 
L 440.905375 237.517023 
L 446.921721 233.820493 
L 452.938066 235.513483 
L 458.954411 235.150518 
L 464.970756 237.031751 
L 470.987102 233.292836 
L 477.003447 234.662964 
L 483.019792 239.540942 
L 489.036138 234.378019 
L 495.052483 235.525777 
L 501.068828 236.560858 
L 507.085173 237.309173 
L 513.101519 233.177895 
L 519.117864 236.354939 
L 525.134209 235.698401 
L 531.150554 235.575712 
L 537.1669 237.165604 
L 543.183245 235.689956 
L 549.19959 234.938218 
L 555.215935 234.299646 
L 561.232281 234.302779 
L 567.248626 236.153657 
L 573.264971 235.076282 
L 579.281317 236.363717 
L 585.297662 234.66861 
L 591.314007 235.26876 
L 597.330352 234.803909 
L 603.346698 237.908572 
L 609.363043 236.646277 
L 615.379388 237.385402 
L 621.395733 231.413303 
L 627.412079 235.448457 
L 633.428424 235.914318 
L 639.444769 234.766875 
L 645.461115 235.461649 
L 651.47746 236.145137 
L 657.493805 234.192247 
L 663.51015 236.24785 
L 669.526496 234.541632 
L 675.542841 238.283927 
" clip-path="url(#pd978dc6118)" style="fill: none; stroke: #ff7f0e; stroke-width: 1.5; stroke-linecap: square"/>
   </g>
   <g id="line2d_17">
    <path d="M 79.924659 315.43692 
L 85.941004 346.942538 
L 91.95735 358.907213 
L 97.973695 367.582341 
L 103.99004 368.539152 
L 110.006385 368.970852 
L 116.022731 362.308985 
L 122.039076 365.579707 
L 128.055421 364.228717 
L 134.071767 366.495434 
L 140.088112 365.212206 
L 146.104457 322.814037 
L 152.120802 323.946202 
L 158.137148 333.213884 
L 164.153493 338.784102 
L 170.169838 340.07163 
L 176.186183 341.682265 
L 182.202529 343.965389 
L 188.218874 343.667903 
L 194.235219 340.699948 
L 200.251565 341.339233 
L 206.26791 345.271557 
L 212.284255 344.41245 
L 218.3006 338.989879 
L 224.316946 339.720062 
L 230.333291 341.343015 
L 236.349636 341.377728 
L 242.365981 342.364781 
L 248.382327 343.889294 
L 254.398672 332.453442 
L 260.415017 340.87599 
L 266.431362 343.692234 
L 272.447708 338.916367 
L 278.464053 337.265073 
L 284.480398 336.33504 
L 290.496744 343.469624 
L 296.513089 340.196369 
L 302.529434 345.662274 
L 308.545779 349.323863 
L 314.562125 343.351727 
L 320.57847 351.572407 
L 326.594815 346.805403 
L 332.61116 348.561475 
L 338.627506 351.259575 
L 344.643851 349.736338 
L 350.660196 342.172416 
L 356.676542 350.243823 
L 362.692887 348.823142 
L 368.709232 345.196283 
L 374.725577 350.402035 
L 380.741923 352.000573 
L 386.758268 344.126025 
L 392.774613 346.008114 
L 398.790958 341.856452 
L 404.807304 346.035908 
L 410.823649 347.015938 
L 416.839994 347.204151 
L 422.85634 347.289278 
L 428.872685 349.9471 
L 434.88903 316.101916 
L 440.905375 324.820001 
L 446.921721 336.805841 
L 452.938066 337.467175 
L 458.954411 344.733284 
L 464.970756 343.582832 
L 470.987102 315.514744 
L 477.003447 280.84475 
L 483.019792 305.667512 
L 489.036138 328.122058 
L 495.052483 332.992515 
L 501.068828 331.255801 
L 507.085173 293.162808 
L 513.101519 317.723103 
L 519.117864 335.043823 
L 525.134209 332.303282 
L 531.150554 334.348744 
L 537.1669 330.861197 
L 543.183245 341.656082 
L 549.19959 343.569174 
L 555.215935 339.461737 
L 561.232281 344.555542 
L 567.248626 338.207114 
L 573.264971 338.190381 
L 579.281317 332.198241 
L 585.297662 340.543598 
L 591.314007 338.822503 
L 597.330352 335.494569 
L 603.346698 340.174986 
L 609.363043 337.138175 
L 615.379388 332.842751 
L 621.395733 340.135166 
L 627.412079 335.576768 
L 633.428424 340.887019 
L 639.444769 341.998935 
L 645.461115 338.031055 
L 651.47746 336.911166 
L 657.493805 337.508486 
L 663.51015 340.29488 
L 669.526496 338.945659 
L 675.542841 341.038105 
" clip-path="url(#pd978dc6118)" style="fill: none; stroke: #2ca02c; stroke-width: 1.5; stroke-linecap: square"/>
   </g>
   <g id="line2d_18">
    <path d="M 79.924659 242.985119 
L 85.941004 241.389613 
L 91.95735 241.064766 
L 97.973695 241.979357 
L 103.99004 242.453813 
L 110.006385 242.64978 
L 116.022731 242.441343 
L 122.039076 240.911471 
L 128.055421 241.230391 
L 134.071767 241.261724 
L 140.088112 240.936786 
L 146.104457 240.104755 
L 152.120802 241.210617 
L 158.137148 241.257162 
L 164.153493 241.78851 
L 170.169838 241.689386 
L 176.186183 242.532374 
L 182.202529 242.162826 
L 188.218874 242.411649 
L 194.235219 241.882412 
L 200.251565 242.337875 
L 206.26791 240.811327 
L 212.284255 241.329186 
L 218.3006 241.271318 
L 224.316946 241.910504 
L 230.333291 242.021 
L 236.349636 241.872152 
L 242.365981 241.699361 
L 248.382327 241.976249 
L 254.398672 241.715029 
L 260.415017 240.343 
L 266.431362 240.971797 
L 272.447708 242.156539 
L 278.464053 241.053368 
L 284.480398 242.280181 
L 290.496744 241.688985 
L 296.513089 242.341837 
L 302.529434 241.739198 
L 308.545779 240.188284 
L 314.562125 242.227058 
L 320.57847 241.323677 
L 326.594815 242.508249 
L 332.61116 240.395768 
L 338.627506 242.452863 
L 344.643851 241.673514 
L 350.660196 239.996072 
L 356.676542 242.480732 
L 362.692887 240.826795 
L 368.709232 242.124 
L 374.725577 242.063306 
L 380.741923 242.793718 
L 386.758268 240.485529 
L 392.774613 242.960167 
L 398.790958 241.781674 
L 404.807304 242.805959 
L 410.823649 241.197064 
L 416.839994 240.876783 
L 422.85634 241.089229 
L 428.872685 243.64161 
L 434.88903 240.82659 
L 440.905375 240.436827 
L 446.921721 242.498705 
L 452.938066 241.59079 
L 458.954411 243.221493 
L 464.970756 241.03039 
L 470.987102 240.443485 
L 477.003447 240.32573 
L 483.019792 241.76875 
L 489.036138 243.246354 
L 495.052483 241.562689 
L 501.068828 242.688289 
L 507.085173 240.335858 
L 513.101519 242.252961 
L 519.117864 242.618246 
L 525.134209 242.107797 
L 531.150554 241.0706 
L 537.1669 241.050798 
L 543.183245 240.471885 
L 549.19959 241.196374 
L 555.215935 242.427302 
L 561.232281 241.848084 
L 567.248626 240.948435 
L 573.264971 242.441143 
L 579.281317 240.546917 
L 585.297662 241.187604 
L 591.314007 242.924612 
L 597.330352 241.023499 
L 603.346698 242.39207 
L 609.363043 241.509558 
L 615.379388 243.196566 
L 621.395733 241.515094 
L 627.412079 241.394544 
L 633.428424 241.239661 
L 639.444769 241.331218 
L 645.461115 240.305534 
L 651.47746 242.303107 
L 657.493805 240.17767 
L 663.51015 243.18067 
L 669.526496 241.37969 
L 675.542841 242.40865 
" clip-path="url(#pd978dc6118)" style="fill: none; stroke: #d62728; stroke-width: 1.5; stroke-linecap: square"/>
   </g>
   <g id="line2d_19">
    <path d="M 79.924659 252.200844 
L 85.941004 241.553427 
L 91.95735 242.023788 
L 97.973695 241.938112 
L 103.99004 241.910818 
L 110.006385 241.703605 
L 116.022731 241.526374 
L 122.039076 242.266732 
L 128.055421 242.328916 
L 134.071767 240.427951 
L 140.088112 287.482296 
L 146.104457 243.523472 
L 152.120802 242.344814 
L 158.137148 241.24819 
L 164.153493 241.263225 
L 170.169838 242.412384 
L 176.186183 241.68951 
L 182.202529 241.395427 
L 188.218874 242.285398 
L 194.235219 241.915233 
L 200.251565 242.26408 
L 206.26791 240.843933 
L 212.284255 240.591744 
L 218.3006 242.605799 
L 224.316946 242.116138 
L 230.333291 242.772664 
L 236.349636 242.789999 
L 242.365981 242.428645 
L 248.382327 242.413642 
L 254.398672 241.740191 
L 260.415017 242.380369 
L 266.431362 241.878954 
L 272.447708 242.001078 
L 278.464053 240.773958 
L 284.480398 241.813414 
L 290.496744 242.070467 
L 296.513089 242.731529 
L 302.529434 240.890104 
L 308.545779 242.545275 
L 314.562125 241.559299 
L 320.57847 241.957985 
L 326.594815 240.929403 
L 332.61116 242.644318 
L 338.627506 241.239757 
L 344.643851 241.631907 
L 350.660196 241.548493 
L 356.676542 240.711374 
L 362.692887 242.182323 
L 368.709232 241.028819 
L 374.725577 240.984377 
L 380.741923 242.380815 
L 386.758268 241.873738 
L 392.774613 242.516322 
L 398.790958 241.818351 
L 404.807304 241.522339 
L 410.823649 242.61337 
L 416.839994 241.000312 
L 422.85634 243.219523 
L 428.872685 243.424294 
L 434.88903 242.439819 
L 440.905375 240.661905 
L 446.921721 242.043993 
L 452.938066 242.664271 
L 458.954411 241.915603 
L 464.970756 241.83762 
L 470.987102 242.139962 
L 477.003447 241.70163 
L 483.019792 242.023558 
L 489.036138 242.321868 
L 495.052483 242.607215 
L 501.068828 241.690914 
L 507.085173 239.58232 
L 513.101519 243.081233 
L 519.117864 242.731866 
L 525.134209 240.36642 
L 531.150554 241.071446 
L 537.1669 241.508104 
L 543.183245 241.635835 
L 549.19959 241.984809 
L 555.215935 242.278654 
L 561.232281 241.658563 
L 567.248626 241.26705 
L 573.264971 242.614496 
L 579.281317 242.022649 
L 585.297662 241.829961 
L 591.314007 241.650922 
L 597.330352 241.278846 
L 603.346698 241.668339 
L 609.363043 241.247195 
L 615.379388 242.89671 
L 621.395733 240.463953 
L 627.412079 242.097087 
L 633.428424 240.967518 
L 639.444769 243.20245 
L 645.461115 241.634099 
L 651.47746 240.605848 
L 657.493805 241.021181 
L 663.51015 241.54463 
L 669.526496 242.244557 
L 675.542841 241.094267 
" clip-path="url(#pd978dc6118)" style="fill: none; stroke: #9467bd; stroke-width: 1.5; stroke-linecap: square"/>
   </g>
   <g id="patch_3">
    <path d="M 50.14375 385.478125 
L 50.14375 22.318125 
" style="fill: none; stroke: #000000; stroke-width: 0.8; stroke-linejoin: miter; stroke-linecap: square"/>
   </g>
   <g id="patch_4">
    <path d="M 705.32375 385.478125 
L 705.32375 22.318125 
" style="fill: none; stroke: #000000; stroke-width: 0.8; stroke-linejoin: miter; stroke-linecap: square"/>
   </g>
   <g id="patch_5">
    <path d="M 50.14375 385.478125 
L 705.32375 385.478125 
" style="fill: none; stroke: #000000; stroke-width: 0.8; stroke-linejoin: miter; stroke-linecap: square"/>
   </g>
   <g id="patch_6">
    <path d="M 50.14375 22.318125 
L 705.32375 22.318125 
" style="fill: none; stroke: #000000; stroke-width: 0.8; stroke-linejoin: miter; stroke-linecap: square"/>
   </g>
   <g id="text_17">
    <!-- Combined Train Loss -->
    <g transform="translate(315.882188 16.318125) scale(0.12 -0.12)">
     <defs>
      <path id="DejaVuSans-43" d="M 4122 4306 
L 4122 3641 
Q 3803 3938 3442 4084 
Q 3081 4231 2675 4231 
Q 1875 4231 1450 3742 
Q 1025 3253 1025 2328 
Q 1025 1406 1450 917 
Q 1875 428 2675 428 
Q 3081 428 3442 575 
Q 3803 722 4122 1019 
L 4122 359 
Q 3791 134 3420 21 
Q 3050 -91 2638 -91 
Q 1578 -91 968 557 
Q 359 1206 359 2328 
Q 359 3453 968 4101 
Q 1578 4750 2638 4750 
Q 3056 4750 3426 4639 
Q 3797 4528 4122 4306 
z
" transform="scale(0.015625)"/>
      <path id="DejaVuSans-6d" d="M 3328 2828 
Q 3544 3216 3844 3400 
Q 4144 3584 4550 3584 
Q 5097 3584 5394 3201 
Q 5691 2819 5691 2113 
L 5691 0 
L 5113 0 
L 5113 2094 
Q 5113 2597 4934 2840 
Q 4756 3084 4391 3084 
Q 3944 3084 3684 2787 
Q 3425 2491 3425 1978 
L 3425 0 
L 2847 0 
L 2847 2094 
Q 2847 2600 2669 2842 
Q 2491 3084 2119 3084 
Q 1678 3084 1418 2786 
Q 1159 2488 1159 1978 
L 1159 0 
L 581 0 
L 581 3500 
L 1159 3500 
L 1159 2956 
Q 1356 3278 1631 3431 
Q 1906 3584 2284 3584 
Q 2666 3584 2933 3390 
Q 3200 3197 3328 2828 
z
" transform="scale(0.015625)"/>
      <path id="DejaVuSans-62" d="M 3116 1747 
Q 3116 2381 2855 2742 
Q 2594 3103 2138 3103 
Q 1681 3103 1420 2742 
Q 1159 2381 1159 1747 
Q 1159 1113 1420 752 
Q 1681 391 2138 391 
Q 2594 391 2855 752 
Q 3116 1113 3116 1747 
z
M 1159 2969 
Q 1341 3281 1617 3432 
Q 1894 3584 2278 3584 
Q 2916 3584 3314 3078 
Q 3713 2572 3713 1747 
Q 3713 922 3314 415 
Q 2916 -91 2278 -91 
Q 1894 -91 1617 61 
Q 1341 213 1159 525 
L 1159 0 
L 581 0 
L 581 4863 
L 1159 4863 
L 1159 2969 
z
" transform="scale(0.015625)"/>
      <path id="DejaVuSans-65" d="M 3597 1894 
L 3597 1613 
L 953 1613 
Q 991 1019 1311 708 
Q 1631 397 2203 397 
Q 2534 397 2845 478 
Q 3156 559 3463 722 
L 3463 178 
Q 3153 47 2828 -22 
Q 2503 -91 2169 -91 
Q 1331 -91 842 396 
Q 353 884 353 1716 
Q 353 2575 817 3079 
Q 1281 3584 2069 3584 
Q 2775 3584 3186 3129 
Q 3597 2675 3597 1894 
z
M 3022 2063 
Q 3016 2534 2758 2815 
Q 2500 3097 2075 3097 
Q 1594 3097 1305 2825 
Q 1016 2553 972 2059 
L 3022 2063 
z
" transform="scale(0.015625)"/>
      <path id="DejaVuSans-64" d="M 2906 2969 
L 2906 4863 
L 3481 4863 
L 3481 0 
L 2906 0 
L 2906 525 
Q 2725 213 2448 61 
Q 2172 -91 1784 -91 
Q 1150 -91 751 415 
Q 353 922 353 1747 
Q 353 2572 751 3078 
Q 1150 3584 1784 3584 
Q 2172 3584 2448 3432 
Q 2725 3281 2906 2969 
z
M 947 1747 
Q 947 1113 1208 752 
Q 1469 391 1925 391 
Q 2381 391 2643 752 
Q 2906 1113 2906 1747 
Q 2906 2381 2643 2742 
Q 2381 3103 1925 3103 
Q 1469 3103 1208 2742 
Q 947 2381 947 1747 
z
" transform="scale(0.015625)"/>
     </defs>
     <use xlink:href="#DejaVuSans-43"/>
     <use xlink:href="#DejaVuSans-6f" transform="translate(69.824219 0)"/>
     <use xlink:href="#DejaVuSans-6d" transform="translate(131.005859 0)"/>
     <use xlink:href="#DejaVuSans-62" transform="translate(228.417969 0)"/>
     <use xlink:href="#DejaVuSans-69" transform="translate(291.894531 0)"/>
     <use xlink:href="#DejaVuSans-6e" transform="translate(319.677734 0)"/>
     <use xlink:href="#DejaVuSans-65" transform="translate(383.056641 0)"/>
     <use xlink:href="#DejaVuSans-64" transform="translate(444.580078 0)"/>
     <use xlink:href="#DejaVuSans-20" transform="translate(508.056641 0)"/>
     <use xlink:href="#DejaVuSans-54" transform="translate(539.84375 0)"/>
     <use xlink:href="#DejaVuSans-72" transform="translate(586.177734 0)"/>
     <use xlink:href="#DejaVuSans-61" transform="translate(627.291016 0)"/>
     <use xlink:href="#DejaVuSans-69" transform="translate(688.570312 0)"/>
     <use xlink:href="#DejaVuSans-6e" transform="translate(716.353516 0)"/>
     <use xlink:href="#DejaVuSans-20" transform="translate(779.732422 0)"/>
     <use xlink:href="#DejaVuSans-4c" transform="translate(811.519531 0)"/>
     <use xlink:href="#DejaVuSans-6f" transform="translate(865.482422 0)"/>
     <use xlink:href="#DejaVuSans-73" transform="translate(926.664062 0)"/>
     <use xlink:href="#DejaVuSans-73" transform="translate(978.763672 0)"/>
    </g>
   </g>
   <g id="legend_1">
    <g id="patch_7">
     <path d="M 636.14875 103.70875 
L 698.32375 103.70875 
Q 700.32375 103.70875 700.32375 101.70875 
L 700.32375 29.318125 
Q 700.32375 27.318125 698.32375 27.318125 
L 636.14875 27.318125 
Q 634.14875 27.318125 634.14875 29.318125 
L 634.14875 101.70875 
Q 634.14875 103.70875 636.14875 103.70875 
z
" style="fill: #ffffff; opacity: 0.8; stroke: #cccccc; stroke-linejoin: miter"/>
    </g>
    <g id="line2d_20">
     <path d="M 638.14875 35.416562 
L 648.14875 35.416562 
L 658.14875 35.416562 
" style="fill: none; stroke: #1f77b4; stroke-width: 1.5; stroke-linecap: square"/>
    </g>
    <g id="text_18">
     <!-- Fold 1 -->
     <g transform="translate(666.14875 38.916562) scale(0.1 -0.1)">
      <defs>
       <path id="DejaVuSans-46" d="M 628 4666 
L 3309 4666 
L 3309 4134 
L 1259 4134 
L 1259 2759 
L 3109 2759 
L 3109 2228 
L 1259 2228 
L 1259 0 
L 628 0 
L 628 4666 
z
" transform="scale(0.015625)"/>
       <path id="DejaVuSans-6c" d="M 603 4863 
L 1178 4863 
L 1178 0 
L 603 0 
L 603 4863 
z
" transform="scale(0.015625)"/>
      </defs>
      <use xlink:href="#DejaVuSans-46"/>
      <use xlink:href="#DejaVuSans-6f" transform="translate(53.894531 0)"/>
      <use xlink:href="#DejaVuSans-6c" transform="translate(115.076172 0)"/>
      <use xlink:href="#DejaVuSans-64" transform="translate(142.859375 0)"/>
      <use xlink:href="#DejaVuSans-20" transform="translate(206.335938 0)"/>
      <use xlink:href="#DejaVuSans-31" transform="translate(238.123047 0)"/>
     </g>
    </g>
    <g id="line2d_21">
     <path d="M 638.14875 50.094688 
L 648.14875 50.094688 
L 658.14875 50.094688 
" style="fill: none; stroke: #ff7f0e; stroke-width: 1.5; stroke-linecap: square"/>
    </g>
    <g id="text_19">
     <!-- Fold 2 -->
     <g transform="translate(666.14875 53.594688) scale(0.1 -0.1)">
      <use xlink:href="#DejaVuSans-46"/>
      <use xlink:href="#DejaVuSans-6f" transform="translate(53.894531 0)"/>
      <use xlink:href="#DejaVuSans-6c" transform="translate(115.076172 0)"/>
      <use xlink:href="#DejaVuSans-64" transform="translate(142.859375 0)"/>
      <use xlink:href="#DejaVuSans-20" transform="translate(206.335938 0)"/>
      <use xlink:href="#DejaVuSans-32" transform="translate(238.123047 0)"/>
     </g>
    </g>
    <g id="line2d_22">
     <path d="M 638.14875 64.772812 
L 648.14875 64.772812 
L 658.14875 64.772812 
" style="fill: none; stroke: #2ca02c; stroke-width: 1.5; stroke-linecap: square"/>
    </g>
    <g id="text_20">
     <!-- Fold 3 -->
     <g transform="translate(666.14875 68.272812) scale(0.1 -0.1)">
      <defs>
       <path id="DejaVuSans-33" d="M 2597 2516 
Q 3050 2419 3304 2112 
Q 3559 1806 3559 1356 
Q 3559 666 3084 287 
Q 2609 -91 1734 -91 
Q 1441 -91 1130 -33 
Q 819 25 488 141 
L 488 750 
Q 750 597 1062 519 
Q 1375 441 1716 441 
Q 2309 441 2620 675 
Q 2931 909 2931 1356 
Q 2931 1769 2642 2001 
Q 2353 2234 1838 2234 
L 1294 2234 
L 1294 2753 
L 1863 2753 
Q 2328 2753 2575 2939 
Q 2822 3125 2822 3475 
Q 2822 3834 2567 4026 
Q 2313 4219 1838 4219 
Q 1578 4219 1281 4162 
Q 984 4106 628 3988 
L 628 4550 
Q 988 4650 1302 4700 
Q 1616 4750 1894 4750 
Q 2613 4750 3031 4423 
Q 3450 4097 3450 3541 
Q 3450 3153 3228 2886 
Q 3006 2619 2597 2516 
z
" transform="scale(0.015625)"/>
      </defs>
      <use xlink:href="#DejaVuSans-46"/>
      <use xlink:href="#DejaVuSans-6f" transform="translate(53.894531 0)"/>
      <use xlink:href="#DejaVuSans-6c" transform="translate(115.076172 0)"/>
      <use xlink:href="#DejaVuSans-64" transform="translate(142.859375 0)"/>
      <use xlink:href="#DejaVuSans-20" transform="translate(206.335938 0)"/>
      <use xlink:href="#DejaVuSans-33" transform="translate(238.123047 0)"/>
     </g>
    </g>
    <g id="line2d_23">
     <path d="M 638.14875 79.450938 
L 648.14875 79.450938 
L 658.14875 79.450938 
" style="fill: none; stroke: #d62728; stroke-width: 1.5; stroke-linecap: square"/>
    </g>
    <g id="text_21">
     <!-- Fold 4 -->
     <g transform="translate(666.14875 82.950938) scale(0.1 -0.1)">
      <use xlink:href="#DejaVuSans-46"/>
      <use xlink:href="#DejaVuSans-6f" transform="translate(53.894531 0)"/>
      <use xlink:href="#DejaVuSans-6c" transform="translate(115.076172 0)"/>
      <use xlink:href="#DejaVuSans-64" transform="translate(142.859375 0)"/>
      <use xlink:href="#DejaVuSans-20" transform="translate(206.335938 0)"/>
      <use xlink:href="#DejaVuSans-34" transform="translate(238.123047 0)"/>
     </g>
    </g>
    <g id="line2d_24">
     <path d="M 638.14875 94.129063 
L 648.14875 94.129063 
L 658.14875 94.129063 
" style="fill: none; stroke: #9467bd; stroke-width: 1.5; stroke-linecap: square"/>
    </g>
    <g id="text_22">
     <!-- Fold 5 -->
     <g transform="translate(666.14875 97.629063) scale(0.1 -0.1)">
      <use xlink:href="#DejaVuSans-46"/>
      <use xlink:href="#DejaVuSans-6f" transform="translate(53.894531 0)"/>
      <use xlink:href="#DejaVuSans-6c" transform="translate(115.076172 0)"/>
      <use xlink:href="#DejaVuSans-64" transform="translate(142.859375 0)"/>
      <use xlink:href="#DejaVuSans-20" transform="translate(206.335938 0)"/>
      <use xlink:href="#DejaVuSans-35" transform="translate(238.123047 0)"/>
     </g>
    </g>
   </g>
  </g>
 </g>
 <defs>
  <clipPath id="pd978dc6118">
   <rect x="50.14375" y="22.318125" width="655.18" height="363.16"/>
  </clipPath>
 </defs>
</svg>
