<?xml version="1.0" encoding="utf-8" standalone="no"?>
<!DOCTYPE svg PUBLIC "-//W3C//DTD SVG 1.1//EN"
  "http://www.w3.org/Graphics/SVG/1.1/DTD/svg11.dtd">
<svg xmlns:xlink="http://www.w3.org/1999/xlink" width="712.37125pt" height="423.034375pt" viewBox="0 0 712.37125 423.034375" xmlns="http://www.w3.org/2000/svg" version="1.1">
 <metadata>
  <rdf:RDF xmlns:dc="http://purl.org/dc/elements/1.1/" xmlns:cc="http://creativecommons.org/ns#" xmlns:rdf="http://www.w3.org/1999/02/22-rdf-syntax-ns#">
   <cc:Work>
    <dc:type rdf:resource="http://purl.org/dc/dcmitype/StillImage"/>
    <dc:date>2025-06-27T18:50:44.147602</dc:date>
    <dc:format>image/svg+xml</dc:format>
    <dc:creator>
     <cc:Agent>
      <dc:title>Matplotlib v3.10.0, https://matplotlib.org/</dc:title>
     </cc:Agent>
    </dc:creator>
   </cc:Work>
  </rdf:RDF>
 </metadata>
 <defs>
  <style type="text/css">*{stroke-linejoin: round; stroke-linecap: butt}</style>
 </defs>
 <g id="figure_1">
  <g id="patch_1">
   <path d="M 0 423.034375 
L 712.37125 423.034375 
L 712.37125 0 
L 0 0 
z
" style="fill: #ffffff"/>
  </g>
  <g id="axes_1">
   <g id="patch_2">
    <path d="M 43.78125 385.478125 
L 705.17125 385.478125 
L 705.17125 22.318125 
L 43.78125 22.318125 
z
" style="fill: #ffffff"/>
   </g>
   <g id="matplotlib.axis_1">
    <g id="xtick_1">
     <g id="line2d_1">
      <defs>
       <path id="m0d4cbd7431" d="M 0 0 
L 0 3.5 
" style="stroke: #000000; stroke-width: 0.8"/>
      </defs>
      <g>
       <use xlink:href="#m0d4cbd7431" x="67.771062" y="385.478125" style="stroke: #000000; stroke-width: 0.8"/>
      </g>
     </g>
     <g id="text_1">
      <!-- 0 -->
      <g transform="translate(64.589812 400.076562) scale(0.1 -0.1)">
       <defs>
        <path id="DejaVuSans-30" d="M 2034 4250 
Q 1547 4250 1301 3770 
Q 1056 3291 1056 2328 
Q 1056 1369 1301 889 
Q 1547 409 2034 409 
Q 2525 409 2770 889 
Q 3016 1369 3016 2328 
Q 3016 3291 2770 3770 
Q 2525 4250 2034 4250 
z
M 2034 4750 
Q 2819 4750 3233 4129 
Q 3647 3509 3647 2328 
Q 3647 1150 3233 529 
Q 2819 -91 2034 -91 
Q 1250 -91 836 529 
Q 422 1150 422 2328 
Q 422 3509 836 4129 
Q 1250 4750 2034 4750 
z
" transform="scale(0.015625)"/>
       </defs>
       <use xlink:href="#DejaVuSans-30"/>
      </g>
     </g>
    </g>
    <g id="xtick_2">
     <g id="line2d_2">
      <g>
       <use xlink:href="#m0d4cbd7431" x="189.238463" y="385.478125" style="stroke: #000000; stroke-width: 0.8"/>
      </g>
     </g>
     <g id="text_2">
      <!-- 20 -->
      <g transform="translate(182.875963 400.076562) scale(0.1 -0.1)">
       <defs>
        <path id="DejaVuSans-32" d="M 1228 531 
L 3431 531 
L 3431 0 
L 469 0 
L 469 531 
Q 828 903 1448 1529 
Q 2069 2156 2228 2338 
Q 2531 2678 2651 2914 
Q 2772 3150 2772 3378 
Q 2772 3750 2511 3984 
Q 2250 4219 1831 4219 
Q 1534 4219 1204 4116 
Q 875 4013 500 3803 
L 500 4441 
Q 881 4594 1212 4672 
Q 1544 4750 1819 4750 
Q 2544 4750 2975 4387 
Q 3406 4025 3406 3419 
Q 3406 3131 3298 2873 
Q 3191 2616 2906 2266 
Q 2828 2175 2409 1742 
Q 1991 1309 1228 531 
z
" transform="scale(0.015625)"/>
       </defs>
       <use xlink:href="#DejaVuSans-32"/>
       <use xlink:href="#DejaVuSans-30" transform="translate(63.623047 0)"/>
      </g>
     </g>
    </g>
    <g id="xtick_3">
     <g id="line2d_3">
      <g>
       <use xlink:href="#m0d4cbd7431" x="310.705864" y="385.478125" style="stroke: #000000; stroke-width: 0.8"/>
      </g>
     </g>
     <g id="text_3">
      <!-- 40 -->
      <g transform="translate(304.343364 400.076562) scale(0.1 -0.1)">
       <defs>
        <path id="DejaVuSans-34" d="M 2419 4116 
L 825 1625 
L 2419 1625 
L 2419 4116 
z
M 2253 4666 
L 3047 4666 
L 3047 1625 
L 3713 1625 
L 3713 1100 
L 3047 1100 
L 3047 0 
L 2419 0 
L 2419 1100 
L 313 1100 
L 313 1709 
L 2253 4666 
z
" transform="scale(0.015625)"/>
       </defs>
       <use xlink:href="#DejaVuSans-34"/>
       <use xlink:href="#DejaVuSans-30" transform="translate(63.623047 0)"/>
      </g>
     </g>
    </g>
    <g id="xtick_4">
     <g id="line2d_4">
      <g>
       <use xlink:href="#m0d4cbd7431" x="432.173266" y="385.478125" style="stroke: #000000; stroke-width: 0.8"/>
      </g>
     </g>
     <g id="text_4">
      <!-- 60 -->
      <g transform="translate(425.810766 400.076562) scale(0.1 -0.1)">
       <defs>
        <path id="DejaVuSans-36" d="M 2113 2584 
Q 1688 2584 1439 2293 
Q 1191 2003 1191 1497 
Q 1191 994 1439 701 
Q 1688 409 2113 409 
Q 2538 409 2786 701 
Q 3034 994 3034 1497 
Q 3034 2003 2786 2293 
Q 2538 2584 2113 2584 
z
M 3366 4563 
L 3366 3988 
Q 3128 4100 2886 4159 
Q 2644 4219 2406 4219 
Q 1781 4219 1451 3797 
Q 1122 3375 1075 2522 
Q 1259 2794 1537 2939 
Q 1816 3084 2150 3084 
Q 2853 3084 3261 2657 
Q 3669 2231 3669 1497 
Q 3669 778 3244 343 
Q 2819 -91 2113 -91 
Q 1303 -91 875 529 
Q 447 1150 447 2328 
Q 447 3434 972 4092 
Q 1497 4750 2381 4750 
Q 2619 4750 2861 4703 
Q 3103 4656 3366 4563 
z
" transform="scale(0.015625)"/>
       </defs>
       <use xlink:href="#DejaVuSans-36"/>
       <use xlink:href="#DejaVuSans-30" transform="translate(63.623047 0)"/>
      </g>
     </g>
    </g>
    <g id="xtick_5">
     <g id="line2d_5">
      <g>
       <use xlink:href="#m0d4cbd7431" x="553.640667" y="385.478125" style="stroke: #000000; stroke-width: 0.8"/>
      </g>
     </g>
     <g id="text_5">
      <!-- 80 -->
      <g transform="translate(547.278167 400.076562) scale(0.1 -0.1)">
       <defs>
        <path id="DejaVuSans-38" d="M 2034 2216 
Q 1584 2216 1326 1975 
Q 1069 1734 1069 1313 
Q 1069 891 1326 650 
Q 1584 409 2034 409 
Q 2484 409 2743 651 
Q 3003 894 3003 1313 
Q 3003 1734 2745 1975 
Q 2488 2216 2034 2216 
z
M 1403 2484 
Q 997 2584 770 2862 
Q 544 3141 544 3541 
Q 544 4100 942 4425 
Q 1341 4750 2034 4750 
Q 2731 4750 3128 4425 
Q 3525 4100 3525 3541 
Q 3525 3141 3298 2862 
Q 3072 2584 2669 2484 
Q 3125 2378 3379 2068 
Q 3634 1759 3634 1313 
Q 3634 634 3220 271 
Q 2806 -91 2034 -91 
Q 1263 -91 848 271 
Q 434 634 434 1313 
Q 434 1759 690 2068 
Q 947 2378 1403 2484 
z
M 1172 3481 
Q 1172 3119 1398 2916 
Q 1625 2713 2034 2713 
Q 2441 2713 2670 2916 
Q 2900 3119 2900 3481 
Q 2900 3844 2670 4047 
Q 2441 4250 2034 4250 
Q 1625 4250 1398 4047 
Q 1172 3844 1172 3481 
z
" transform="scale(0.015625)"/>
       </defs>
       <use xlink:href="#DejaVuSans-38"/>
       <use xlink:href="#DejaVuSans-30" transform="translate(63.623047 0)"/>
      </g>
     </g>
    </g>
    <g id="xtick_6">
     <g id="line2d_6">
      <g>
       <use xlink:href="#m0d4cbd7431" x="675.108068" y="385.478125" style="stroke: #000000; stroke-width: 0.8"/>
      </g>
     </g>
     <g id="text_6">
      <!-- 100 -->
      <g transform="translate(665.564318 400.076562) scale(0.1 -0.1)">
       <defs>
        <path id="DejaVuSans-31" d="M 794 531 
L 1825 531 
L 1825 4091 
L 703 3866 
L 703 4441 
L 1819 4666 
L 2450 4666 
L 2450 531 
L 3481 531 
L 3481 0 
L 794 0 
L 794 531 
z
" transform="scale(0.015625)"/>
       </defs>
       <use xlink:href="#DejaVuSans-31"/>
       <use xlink:href="#DejaVuSans-30" transform="translate(63.623047 0)"/>
       <use xlink:href="#DejaVuSans-30" transform="translate(127.246094 0)"/>
      </g>
     </g>
    </g>
    <g id="text_7">
     <!-- Epoch -->
     <g transform="translate(359.165313 413.754687) scale(0.1 -0.1)">
      <defs>
       <path id="DejaVuSans-45" d="M 628 4666 
L 3578 4666 
L 3578 4134 
L 1259 4134 
L 1259 2753 
L 3481 2753 
L 3481 2222 
L 1259 2222 
L 1259 531 
L 3634 531 
L 3634 0 
L 628 0 
L 628 4666 
z
" transform="scale(0.015625)"/>
       <path id="DejaVuSans-70" d="M 1159 525 
L 1159 -1331 
L 581 -1331 
L 581 3500 
L 1159 3500 
L 1159 2969 
Q 1341 3281 1617 3432 
Q 1894 3584 2278 3584 
Q 2916 3584 3314 3078 
Q 3713 2572 3713 1747 
Q 3713 922 3314 415 
Q 2916 -91 2278 -91 
Q 1894 -91 1617 61 
Q 1341 213 1159 525 
z
M 3116 1747 
Q 3116 2381 2855 2742 
Q 2594 3103 2138 3103 
Q 1681 3103 1420 2742 
Q 1159 2381 1159 1747 
Q 1159 1113 1420 752 
Q 1681 391 2138 391 
Q 2594 391 2855 752 
Q 3116 1113 3116 1747 
z
" transform="scale(0.015625)"/>
       <path id="DejaVuSans-6f" d="M 1959 3097 
Q 1497 3097 1228 2736 
Q 959 2375 959 1747 
Q 959 1119 1226 758 
Q 1494 397 1959 397 
Q 2419 397 2687 759 
Q 2956 1122 2956 1747 
Q 2956 2369 2687 2733 
Q 2419 3097 1959 3097 
z
M 1959 3584 
Q 2709 3584 3137 3096 
Q 3566 2609 3566 1747 
Q 3566 888 3137 398 
Q 2709 -91 1959 -91 
Q 1206 -91 779 398 
Q 353 888 353 1747 
Q 353 2609 779 3096 
Q 1206 3584 1959 3584 
z
" transform="scale(0.015625)"/>
       <path id="DejaVuSans-63" d="M 3122 3366 
L 3122 2828 
Q 2878 2963 2633 3030 
Q 2388 3097 2138 3097 
Q 1578 3097 1268 2742 
Q 959 2388 959 1747 
Q 959 1106 1268 751 
Q 1578 397 2138 397 
Q 2388 397 2633 464 
Q 2878 531 3122 666 
L 3122 134 
Q 2881 22 2623 -34 
Q 2366 -91 2075 -91 
Q 1284 -91 818 406 
Q 353 903 353 1747 
Q 353 2603 823 3093 
Q 1294 3584 2113 3584 
Q 2378 3584 2631 3529 
Q 2884 3475 3122 3366 
z
" transform="scale(0.015625)"/>
       <path id="DejaVuSans-68" d="M 3513 2113 
L 3513 0 
L 2938 0 
L 2938 2094 
Q 2938 2591 2744 2837 
Q 2550 3084 2163 3084 
Q 1697 3084 1428 2787 
Q 1159 2491 1159 1978 
L 1159 0 
L 581 0 
L 581 4863 
L 1159 4863 
L 1159 2956 
Q 1366 3272 1645 3428 
Q 1925 3584 2291 3584 
Q 2894 3584 3203 3211 
Q 3513 2838 3513 2113 
z
" transform="scale(0.015625)"/>
      </defs>
      <use xlink:href="#DejaVuSans-45"/>
      <use xlink:href="#DejaVuSans-70" transform="translate(63.183594 0)"/>
      <use xlink:href="#DejaVuSans-6f" transform="translate(126.660156 0)"/>
      <use xlink:href="#DejaVuSans-63" transform="translate(187.841797 0)"/>
      <use xlink:href="#DejaVuSans-68" transform="translate(242.822266 0)"/>
     </g>
    </g>
   </g>
   <g id="matplotlib.axis_2">
    <g id="ytick_1">
     <g id="line2d_7">
      <defs>
       <path id="m719cf1fd41" d="M 0 0 
L -3.5 0 
" style="stroke: #000000; stroke-width: 0.8"/>
      </defs>
      <g>
       <use xlink:href="#m719cf1fd41" x="43.78125" y="370.717563" style="stroke: #000000; stroke-width: 0.8"/>
      </g>
     </g>
     <g id="text_8">
      <!-- 0.2 -->
      <g transform="translate(20.878125 374.516782) scale(0.1 -0.1)">
       <defs>
        <path id="DejaVuSans-2e" d="M 684 794 
L 1344 794 
L 1344 0 
L 684 0 
L 684 794 
z
" transform="scale(0.015625)"/>
       </defs>
       <use xlink:href="#DejaVuSans-30"/>
       <use xlink:href="#DejaVuSans-2e" transform="translate(63.623047 0)"/>
       <use xlink:href="#DejaVuSans-32" transform="translate(95.410156 0)"/>
      </g>
     </g>
    </g>
    <g id="ytick_2">
     <g id="line2d_8">
      <g>
       <use xlink:href="#m719cf1fd41" x="43.78125" y="326.11833" style="stroke: #000000; stroke-width: 0.8"/>
      </g>
     </g>
     <g id="text_9">
      <!-- 0.4 -->
      <g transform="translate(20.878125 329.917548) scale(0.1 -0.1)">
       <use xlink:href="#DejaVuSans-30"/>
       <use xlink:href="#DejaVuSans-2e" transform="translate(63.623047 0)"/>
       <use xlink:href="#DejaVuSans-34" transform="translate(95.410156 0)"/>
      </g>
     </g>
    </g>
    <g id="ytick_3">
     <g id="line2d_9">
      <g>
       <use xlink:href="#m719cf1fd41" x="43.78125" y="281.519096" style="stroke: #000000; stroke-width: 0.8"/>
      </g>
     </g>
     <g id="text_10">
      <!-- 0.6 -->
      <g transform="translate(20.878125 285.318315) scale(0.1 -0.1)">
       <use xlink:href="#DejaVuSans-30"/>
       <use xlink:href="#DejaVuSans-2e" transform="translate(63.623047 0)"/>
       <use xlink:href="#DejaVuSans-36" transform="translate(95.410156 0)"/>
      </g>
     </g>
    </g>
    <g id="ytick_4">
     <g id="line2d_10">
      <g>
       <use xlink:href="#m719cf1fd41" x="43.78125" y="236.919863" style="stroke: #000000; stroke-width: 0.8"/>
      </g>
     </g>
     <g id="text_11">
      <!-- 0.8 -->
      <g transform="translate(20.878125 240.719081) scale(0.1 -0.1)">
       <use xlink:href="#DejaVuSans-30"/>
       <use xlink:href="#DejaVuSans-2e" transform="translate(63.623047 0)"/>
       <use xlink:href="#DejaVuSans-38" transform="translate(95.410156 0)"/>
      </g>
     </g>
    </g>
    <g id="ytick_5">
     <g id="line2d_11">
      <g>
       <use xlink:href="#m719cf1fd41" x="43.78125" y="192.320629" style="stroke: #000000; stroke-width: 0.8"/>
      </g>
     </g>
     <g id="text_12">
      <!-- 1.0 -->
      <g transform="translate(20.878125 196.119848) scale(0.1 -0.1)">
       <use xlink:href="#DejaVuSans-31"/>
       <use xlink:href="#DejaVuSans-2e" transform="translate(63.623047 0)"/>
       <use xlink:href="#DejaVuSans-30" transform="translate(95.410156 0)"/>
      </g>
     </g>
    </g>
    <g id="ytick_6">
     <g id="line2d_12">
      <g>
       <use xlink:href="#m719cf1fd41" x="43.78125" y="147.721396" style="stroke: #000000; stroke-width: 0.8"/>
      </g>
     </g>
     <g id="text_13">
      <!-- 1.2 -->
      <g transform="translate(20.878125 151.520615) scale(0.1 -0.1)">
       <use xlink:href="#DejaVuSans-31"/>
       <use xlink:href="#DejaVuSans-2e" transform="translate(63.623047 0)"/>
       <use xlink:href="#DejaVuSans-32" transform="translate(95.410156 0)"/>
      </g>
     </g>
    </g>
    <g id="ytick_7">
     <g id="line2d_13">
      <g>
       <use xlink:href="#m719cf1fd41" x="43.78125" y="103.122162" style="stroke: #000000; stroke-width: 0.8"/>
      </g>
     </g>
     <g id="text_14">
      <!-- 1.4 -->
      <g transform="translate(20.878125 106.921381) scale(0.1 -0.1)">
       <use xlink:href="#DejaVuSans-31"/>
       <use xlink:href="#DejaVuSans-2e" transform="translate(63.623047 0)"/>
       <use xlink:href="#DejaVuSans-34" transform="translate(95.410156 0)"/>
      </g>
     </g>
    </g>
    <g id="ytick_8">
     <g id="line2d_14">
      <g>
       <use xlink:href="#m719cf1fd41" x="43.78125" y="58.522929" style="stroke: #000000; stroke-width: 0.8"/>
      </g>
     </g>
     <g id="text_15">
      <!-- 1.6 -->
      <g transform="translate(20.878125 62.322148) scale(0.1 -0.1)">
       <use xlink:href="#DejaVuSans-31"/>
       <use xlink:href="#DejaVuSans-2e" transform="translate(63.623047 0)"/>
       <use xlink:href="#DejaVuSans-36" transform="translate(95.410156 0)"/>
      </g>
     </g>
    </g>
    <g id="text_16">
     <!-- Train Loss -->
     <g transform="translate(14.798438 228.448125) rotate(-90) scale(0.1 -0.1)">
      <defs>
       <path id="DejaVuSans-54" d="M -19 4666 
L 3928 4666 
L 3928 4134 
L 2272 4134 
L 2272 0 
L 1638 0 
L 1638 4134 
L -19 4134 
L -19 4666 
z
" transform="scale(0.015625)"/>
       <path id="DejaVuSans-72" d="M 2631 2963 
Q 2534 3019 2420 3045 
Q 2306 3072 2169 3072 
Q 1681 3072 1420 2755 
Q 1159 2438 1159 1844 
L 1159 0 
L 581 0 
L 581 3500 
L 1159 3500 
L 1159 2956 
Q 1341 3275 1631 3429 
Q 1922 3584 2338 3584 
Q 2397 3584 2469 3576 
Q 2541 3569 2628 3553 
L 2631 2963 
z
" transform="scale(0.015625)"/>
       <path id="DejaVuSans-61" d="M 2194 1759 
Q 1497 1759 1228 1600 
Q 959 1441 959 1056 
Q 959 750 1161 570 
Q 1363 391 1709 391 
Q 2188 391 2477 730 
Q 2766 1069 2766 1631 
L 2766 1759 
L 2194 1759 
z
M 3341 1997 
L 3341 0 
L 2766 0 
L 2766 531 
Q 2569 213 2275 61 
Q 1981 -91 1556 -91 
Q 1019 -91 701 211 
Q 384 513 384 1019 
Q 384 1609 779 1909 
Q 1175 2209 1959 2209 
L 2766 2209 
L 2766 2266 
Q 2766 2663 2505 2880 
Q 2244 3097 1772 3097 
Q 1472 3097 1187 3025 
Q 903 2953 641 2809 
L 641 3341 
Q 956 3463 1253 3523 
Q 1550 3584 1831 3584 
Q 2591 3584 2966 3190 
Q 3341 2797 3341 1997 
z
" transform="scale(0.015625)"/>
       <path id="DejaVuSans-69" d="M 603 3500 
L 1178 3500 
L 1178 0 
L 603 0 
L 603 3500 
z
M 603 4863 
L 1178 4863 
L 1178 4134 
L 603 4134 
L 603 4863 
z
" transform="scale(0.015625)"/>
       <path id="DejaVuSans-6e" d="M 3513 2113 
L 3513 0 
L 2938 0 
L 2938 2094 
Q 2938 2591 2744 2837 
Q 2550 3084 2163 3084 
Q 1697 3084 1428 2787 
Q 1159 2491 1159 1978 
L 1159 0 
L 581 0 
L 581 3500 
L 1159 3500 
L 1159 2956 
Q 1366 3272 1645 3428 
Q 1925 3584 2291 3584 
Q 2894 3584 3203 3211 
Q 3513 2838 3513 2113 
z
" transform="scale(0.015625)"/>
       <path id="DejaVuSans-20" transform="scale(0.015625)"/>
       <path id="DejaVuSans-4c" d="M 628 4666 
L 1259 4666 
L 1259 531 
L 3531 531 
L 3531 0 
L 628 0 
L 628 4666 
z
" transform="scale(0.015625)"/>
       <path id="DejaVuSans-73" d="M 2834 3397 
L 2834 2853 
Q 2591 2978 2328 3040 
Q 2066 3103 1784 3103 
Q 1356 3103 1142 2972 
Q 928 2841 928 2578 
Q 928 2378 1081 2264 
Q 1234 2150 1697 2047 
L 1894 2003 
Q 2506 1872 2764 1633 
Q 3022 1394 3022 966 
Q 3022 478 2636 193 
Q 2250 -91 1575 -91 
Q 1294 -91 989 -36 
Q 684 19 347 128 
L 347 722 
Q 666 556 975 473 
Q 1284 391 1588 391 
Q 1994 391 2212 530 
Q 2431 669 2431 922 
Q 2431 1156 2273 1281 
Q 2116 1406 1581 1522 
L 1381 1569 
Q 847 1681 609 1914 
Q 372 2147 372 2553 
Q 372 3047 722 3315 
Q 1072 3584 1716 3584 
Q 2034 3584 2315 3537 
Q 2597 3491 2834 3397 
z
" transform="scale(0.015625)"/>
      </defs>
      <use xlink:href="#DejaVuSans-54"/>
      <use xlink:href="#DejaVuSans-72" transform="translate(46.333984 0)"/>
      <use xlink:href="#DejaVuSans-61" transform="translate(87.447266 0)"/>
      <use xlink:href="#DejaVuSans-69" transform="translate(148.726562 0)"/>
      <use xlink:href="#DejaVuSans-6e" transform="translate(176.509766 0)"/>
      <use xlink:href="#DejaVuSans-20" transform="translate(239.888672 0)"/>
      <use xlink:href="#DejaVuSans-4c" transform="translate(271.675781 0)"/>
      <use xlink:href="#DejaVuSans-6f" transform="translate(325.638672 0)"/>
      <use xlink:href="#DejaVuSans-73" transform="translate(386.820312 0)"/>
      <use xlink:href="#DejaVuSans-73" transform="translate(438.919922 0)"/>
     </g>
    </g>
   </g>
   <g id="line2d_15">
    <path d="M 73.844432 38.825398 
L 79.917802 141.944587 
L 85.991172 174.286273 
L 92.064542 190.361087 
L 98.137912 190.864616 
L 104.211282 202.339694 
L 110.284652 198.423641 
L 116.358022 213.625979 
L 122.431392 208.508572 
L 128.504762 210.613858 
L 134.578132 209.251225 
L 140.651503 214.702342 
L 146.724873 221.067287 
L 152.798243 231.636109 
L 158.871613 237.478994 
L 164.944983 228.145001 
L 171.018353 244.96052 
L 177.091723 244.783863 
L 183.165093 240.75841 
L 189.238463 240.846584 
L 195.311833 226.473716 
L 201.385203 234.684429 
L 207.458573 253.214165 
L 213.531943 240.413408 
L 219.605313 251.792745 
L 225.678683 245.025027 
L 231.752053 249.651556 
L 237.825424 260.622555 
L 243.898794 255.80687 
L 249.972164 249.756209 
L 256.045534 262.157651 
L 262.118904 271.234197 
L 268.192274 253.614492 
L 274.265644 249.347936 
L 280.339014 267.04515 
L 286.412384 262.26121 
L 292.485754 267.489227 
L 298.559124 259.647157 
L 304.632494 266.769772 
L 310.705864 253.616587 
L 316.779234 264.204822 
L 322.852604 274.654373 
L 328.925975 271.029062 
L 334.999345 254.414941 
L 341.072715 262.29893 
L 347.146085 260.485752 
L 353.219455 275.801649 
L 359.292825 279.804132 
L 365.366195 290.498778 
L 371.439565 290.024301 
L 377.512935 291.550838 
L 383.586305 290.861513 
L 389.659675 261.388278 
L 395.733045 286.592466 
L 401.806415 297.4507 
L 407.879785 292.74844 
L 413.953155 302.532161 
L 420.026525 303.565712 
L 426.099896 313.173574 
L 432.173266 311.523589 
L 438.246636 315.971746 
L 444.320006 303.213179 
L 450.393376 317.318694 
L 456.466746 320.75703 
L 462.540116 317.192344 
L 468.613486 317.317092 
L 474.686856 322.051738 
L 480.760226 316.752999 
L 486.833596 316.793947 
L 492.906966 319.573026 
L 498.980336 321.149895 
L 505.053706 325.611579 
L 511.127076 332.512972 
L 517.200447 329.568069 
L 523.273817 322.654906 
L 529.347187 322.031925 
L 535.420557 325.070418 
L 541.493927 334.681641 
L 547.567297 331.161286 
L 553.640667 309.068043 
L 559.714037 322.419399 
L 565.787407 329.02096 
L 571.860777 324.075086 
L 577.934147 324.833955 
L 584.007517 320.321338 
L 590.080887 330.192437 
L 596.154257 331.463163 
L 602.227627 331.414068 
L 608.300997 333.173394 
L 614.374368 334.687866 
L 620.447738 336.569644 
L 626.521108 338.622477 
L 632.594478 336.152562 
L 638.667848 334.213575 
L 644.741218 336.426299 
L 650.814588 329.385788 
L 656.887958 324.335586 
L 662.961328 337.866786 
L 669.034698 342.296445 
L 675.108068 338.896303 
" clip-path="url(#p671b3a8fb0)" style="fill: none; stroke: #1f77b4; stroke-width: 1.5; stroke-linecap: square"/>
   </g>
   <g id="line2d_16">
    <path d="M 73.844432 39.435166 
L 79.917802 120.247361 
L 85.991172 162.177421 
L 92.064542 178.657494 
L 98.137912 182.368021 
L 104.211282 215.792919 
L 110.284652 223.99433 
L 116.358022 231.14433 
L 122.431392 231.85802 
L 128.504762 248.144642 
L 134.578132 244.936027 
L 140.651503 257.215117 
L 146.724873 256.472311 
L 152.798243 267.156726 
L 158.871613 265.891796 
L 164.944983 260.350011 
L 171.018353 255.238906 
L 177.091723 280.386098 
L 183.165093 281.725172 
L 189.238463 287.608392 
L 195.311833 285.788097 
L 201.385203 289.439264 
L 207.458573 291.405328 
L 213.531943 302.248837 
L 219.605313 305.182353 
L 225.678683 309.34995 
L 231.752053 306.135153 
L 237.825424 304.234346 
L 243.898794 301.846121 
L 249.972164 308.764989 
L 256.045534 312.474493 
L 262.118904 321.625506 
L 268.192274 322.542719 
L 274.265644 307.642351 
L 280.339014 323.59693 
L 286.412384 327.190922 
L 292.485754 322.93489 
L 298.559124 325.296672 
L 304.632494 314.762116 
L 310.705864 314.358923 
L 316.779234 322.078404 
L 322.852604 321.410712 
L 328.925975 324.134801 
L 334.999345 330.092333 
L 341.072715 329.046495 
L 347.146085 334.618409 
L 353.219455 327.198174 
L 359.292825 333.958426 
L 365.366195 331.489382 
L 371.439565 332.757783 
L 377.512935 332.374943 
L 383.586305 341.583573 
L 389.659675 337.758255 
L 395.733045 339.308481 
L 401.806415 343.672735 
L 407.879785 339.081081 
L 413.953155 337.857353 
L 420.026525 343.301933 
L 426.099896 343.987726 
L 432.173266 348.967467 
L 438.246636 342.600601 
L 444.320006 350.093679 
L 450.393376 343.54557 
L 456.466746 342.836416 
L 462.540116 338.909263 
L 468.613486 345.812319 
L 474.686856 347.315656 
L 480.760226 354.445675 
L 486.833596 354.21176 
L 492.906966 354.145774 
L 498.980336 351.717496 
L 505.053706 335.793006 
L 511.127076 341.270943 
L 517.200447 344.750972 
L 523.273817 338.797724 
L 529.347187 343.141248 
L 535.420557 354.693615 
L 541.493927 355.94524 
L 547.567297 356.372994 
L 553.640667 354.562465 
L 559.714037 358.317966 
L 565.787407 357.278485 
L 571.860777 359.762682 
L 577.934147 357.978577 
L 584.007517 364.475015 
L 590.080887 359.642379 
L 596.154257 359.663453 
L 602.227627 360.319861 
L 608.300997 363.759889 
L 614.374368 360.29715 
L 620.447738 364.95286 
L 626.521108 356.003694 
L 632.594478 362.4993 
L 638.667848 362.695484 
L 644.741218 366.021183 
L 650.814588 368.08076 
L 656.887958 361.342055 
L 662.961328 358.423401 
L 669.034698 368.970852 
L 675.108068 366.475618 
" clip-path="url(#p671b3a8fb0)" style="fill: none; stroke: #ff7f0e; stroke-width: 1.5; stroke-linecap: square"/>
   </g>
   <g id="line2d_17">
    <path d="M 73.844432 44.069007 
L 79.917802 119.922842 
L 85.991172 146.123508 
L 92.064542 169.143049 
L 98.137912 179.674246 
L 104.211282 186.380916 
L 110.284652 195.494671 
L 116.358022 207.255826 
L 122.431392 217.564758 
L 128.504762 225.548271 
L 134.578132 232.833949 
L 140.651503 225.446803 
L 146.724873 242.370646 
L 152.798243 240.159915 
L 158.871613 240.456105 
L 164.944983 252.785034 
L 171.018353 250.772588 
L 177.091723 258.184566 
L 183.165093 254.413077 
L 189.238463 262.219079 
L 195.311833 274.931254 
L 201.385203 275.77714 
L 207.458573 279.605587 
L 213.531943 284.375586 
L 219.605313 289.095458 
L 225.678683 291.462411 
L 231.752053 290.531985 
L 237.825424 286.556266 
L 243.898794 290.637839 
L 249.972164 299.164837 
L 256.045534 299.249727 
L 262.118904 297.824525 
L 268.192274 297.703028 
L 274.265644 306.3887 
L 280.339014 308.173433 
L 286.412384 313.582183 
L 292.485754 314.234872 
L 298.559124 313.326929 
L 304.632494 317.654698 
L 310.705864 323.022865 
L 316.779234 327.797245 
L 322.852604 323.053341 
L 328.925975 319.382746 
L 334.999345 321.230207 
L 341.072715 330.293506 
L 347.146085 332.375301 
L 353.219455 320.91005 
L 359.292825 330.398128 
L 365.366195 312.732215 
L 371.439565 333.43962 
L 377.512935 331.136346 
L 383.586305 333.227766 
L 389.659675 331.715689 
L 395.733045 341.735374 
L 401.806415 344.285535 
L 407.879785 340.409732 
L 413.953155 337.288928 
L 420.026525 342.677694 
L 426.099896 340.679019 
L 432.173266 324.103613 
L 438.246636 326.243777 
L 444.320006 341.096524 
L 450.393376 339.644814 
L 456.466746 343.206204 
L 462.540116 344.377946 
L 468.613486 348.269358 
L 474.686856 347.118362 
L 480.760226 343.3509 
L 486.833596 350.29888 
L 492.906966 349.301986 
L 498.980336 349.719736 
L 505.053706 352.016168 
L 511.127076 347.087826 
L 517.200447 345.937165 
L 523.273817 352.603712 
L 529.347187 352.313893 
L 535.420557 348.294767 
L 541.493927 354.948057 
L 547.567297 354.455407 
L 553.640667 347.191201 
L 559.714037 350.166787 
L 565.787407 350.330149 
L 571.860777 353.310585 
L 577.934147 349.439591 
L 584.007517 349.301739 
L 590.080887 332.051213 
L 596.154257 342.67649 
L 602.227627 347.484111 
L 608.300997 335.250867 
L 614.374368 345.940642 
L 620.447738 352.016435 
L 626.521108 349.652012 
L 632.594478 355.355818 
L 638.667848 346.126153 
L 644.741218 354.241492 
L 650.814588 355.292822 
L 656.887958 341.905097 
L 662.961328 354.431113 
L 669.034698 354.782601 
L 675.108068 349.503611 
" clip-path="url(#p671b3a8fb0)" style="fill: none; stroke: #2ca02c; stroke-width: 1.5; stroke-linecap: square"/>
   </g>
   <g id="line2d_18">
    <path d="M 73.844432 50.957587 
L 79.917802 133.936179 
L 85.991172 175.044916 
L 92.064542 194.619484 
L 98.137912 199.715927 
L 104.211282 209.812254 
L 110.284652 209.920052 
L 116.358022 216.702421 
L 122.431392 217.366696 
L 128.504762 220.595281 
L 134.578132 235.300063 
L 140.651503 239.506352 
L 146.724873 245.43132 
L 152.798243 243.214469 
L 158.871613 238.728619 
L 164.944983 252.780815 
L 171.018353 253.037252 
L 177.091723 248.858408 
L 183.165093 249.596554 
L 189.238463 250.196747 
L 195.311833 261.360595 
L 201.385203 262.681207 
L 207.458573 255.547895 
L 213.531943 261.591629 
L 219.605313 272.445751 
L 225.678683 272.790111 
L 231.752053 274.215613 
L 237.825424 279.353303 
L 243.898794 273.057681 
L 249.972164 274.090525 
L 256.045534 278.9412 
L 262.118904 284.280535 
L 268.192274 291.34996 
L 274.265644 259.756166 
L 280.339014 268.226525 
L 286.412384 268.992353 
L 292.485754 283.999074 
L 298.559124 287.912687 
L 304.632494 292.016523 
L 310.705864 291.311875 
L 316.779234 296.372967 
L 322.852604 297.234216 
L 328.925975 289.425612 
L 334.999345 292.786494 
L 341.072715 299.542113 
L 347.146085 293.441119 
L 353.219455 301.864757 
L 359.292825 304.638714 
L 365.366195 304.66675 
L 371.439565 304.970211 
L 377.512935 300.600251 
L 383.586305 307.730808 
L 389.659675 304.00651 
L 395.733045 315.14784 
L 401.806415 299.427699 
L 407.879785 308.149599 
L 413.953155 311.901181 
L 420.026525 308.387262 
L 426.099896 315.112979 
L 432.173266 318.443913 
L 438.246636 327.142228 
L 444.320006 321.66786 
L 450.393376 320.9426 
L 456.466746 318.967336 
L 462.540116 329.765771 
L 468.613486 332.024844 
L 474.686856 328.743496 
L 480.760226 332.725175 
L 486.833596 335.854601 
L 492.906966 334.501077 
L 498.980336 337.596068 
L 505.053706 339.736402 
L 511.127076 341.463206 
L 517.200447 340.566174 
L 523.273817 338.329398 
L 529.347187 340.929477 
L 535.420557 346.312431 
L 541.493927 344.800245 
L 547.567297 345.80176 
L 553.640667 347.399198 
L 559.714037 345.351556 
L 565.787407 344.442541 
L 571.860777 343.648091 
L 577.934147 347.646873 
L 584.007517 354.602361 
L 590.080887 349.461763 
L 596.154257 352.118402 
L 602.227627 353.045544 
L 608.300997 352.239453 
L 614.374368 341.541874 
L 620.447738 350.960193 
L 626.521108 353.579168 
L 632.594478 347.588324 
L 638.667848 349.800786 
L 644.741218 354.961441 
L 650.814588 355.197437 
L 656.887958 354.239985 
L 662.961328 352.62317 
L 669.034698 351.54041 
L 675.108068 329.047734 
" clip-path="url(#p671b3a8fb0)" style="fill: none; stroke: #d62728; stroke-width: 1.5; stroke-linecap: square"/>
   </g>
   <g id="line2d_19">
    <path d="M 73.844432 48.086211 
L 79.917802 121.957335 
L 85.991172 147.007798 
L 92.064542 162.839621 
L 98.137912 177.449037 
L 104.211282 193.675662 
L 110.284652 207.426568 
L 116.358022 215.233658 
L 122.431392 223.170808 
L 128.504762 213.90823 
L 134.578132 224.666325 
L 140.651503 234.610425 
L 146.724873 238.242577 
L 152.798243 238.307942 
L 158.871613 242.757135 
L 164.944983 253.50428 
L 171.018353 251.493339 
L 177.091723 240.914811 
L 183.165093 242.879128 
L 189.238463 248.766136 
L 195.311833 253.25778 
L 201.385203 253.525034 
L 207.458573 246.746895 
L 213.531943 244.259492 
L 219.605313 254.883522 
L 225.678683 259.180396 
L 231.752053 273.653371 
L 237.825424 278.659203 
L 243.898794 280.511655 
L 249.972164 290.947776 
L 256.045534 281.37384 
L 262.118904 289.723542 
L 268.192274 293.665614 
L 274.265644 289.164394 
L 280.339014 307.289182 
L 286.412384 307.099792 
L 292.485754 294.185441 
L 298.559124 292.819816 
L 304.632494 304.626576 
L 310.705864 315.575092 
L 316.779234 315.444706 
L 322.852604 318.835861 
L 328.925975 319.905996 
L 334.999345 316.063076 
L 341.072715 327.440614 
L 347.146085 321.403792 
L 353.219455 322.218021 
L 359.292825 327.485389 
L 365.366195 329.773429 
L 371.439565 329.084031 
L 377.512935 331.741491 
L 383.586305 330.99247 
L 389.659675 335.760887 
L 395.733045 333.657096 
L 401.806415 337.795874 
L 407.879785 341.178616 
L 413.953155 337.51322 
L 420.026525 340.438111 
L 426.099896 334.293185 
L 432.173266 342.054574 
L 438.246636 342.082017 
L 444.320006 332.3875 
L 450.393376 335.067465 
L 456.466746 348.99832 
L 462.540116 347.666189 
L 468.613486 345.670991 
L 474.686856 346.575348 
L 480.760226 353.014558 
L 486.833596 351.763919 
L 492.906966 346.868436 
L 498.980336 351.211356 
L 505.053706 352.477693 
L 511.127076 351.517501 
L 517.200447 353.471866 
L 523.273817 347.736417 
L 529.347187 350.790191 
L 535.420557 353.315983 
L 541.493927 354.678064 
L 547.567297 354.900613 
L 553.640667 355.036329 
L 559.714037 357.603734 
L 565.787407 355.818822 
L 571.860777 357.557107 
L 577.934147 361.35664 
L 584.007517 365.997107 
L 590.080887 345.862488 
L 596.154257 353.700731 
L 602.227627 364.927191 
L 608.300997 355.878315 
L 614.374368 347.632801 
L 620.447738 367.101032 
L 626.521108 358.474768 
L 632.594478 356.929686 
L 638.667848 361.866539 
L 644.741218 367.30093 
L 650.814588 356.648574 
L 656.887958 365.327999 
L 662.961328 362.949902 
L 669.034698 367.926702 
L 675.108068 361.501051 
" clip-path="url(#p671b3a8fb0)" style="fill: none; stroke: #9467bd; stroke-width: 1.5; stroke-linecap: square"/>
   </g>
   <g id="patch_3">
    <path d="M 43.78125 385.478125 
L 43.78125 22.318125 
" style="fill: none; stroke: #000000; stroke-width: 0.8; stroke-linejoin: miter; stroke-linecap: square"/>
   </g>
   <g id="patch_4">
    <path d="M 705.17125 385.478125 
L 705.17125 22.318125 
" style="fill: none; stroke: #000000; stroke-width: 0.8; stroke-linejoin: miter; stroke-linecap: square"/>
   </g>
   <g id="patch_5">
    <path d="M 43.78125 385.478125 
L 705.17125 385.478125 
" style="fill: none; stroke: #000000; stroke-width: 0.8; stroke-linejoin: miter; stroke-linecap: square"/>
   </g>
   <g id="patch_6">
    <path d="M 43.78125 22.318125 
L 705.17125 22.318125 
" style="fill: none; stroke: #000000; stroke-width: 0.8; stroke-linejoin: miter; stroke-linecap: square"/>
   </g>
   <g id="text_17">
    <!-- Combined Train Loss -->
    <g transform="translate(312.624688 16.318125) scale(0.12 -0.12)">
     <defs>
      <path id="DejaVuSans-43" d="M 4122 4306 
L 4122 3641 
Q 3803 3938 3442 4084 
Q 3081 4231 2675 4231 
Q 1875 4231 1450 3742 
Q 1025 3253 1025 2328 
Q 1025 1406 1450 917 
Q 1875 428 2675 428 
Q 3081 428 3442 575 
Q 3803 722 4122 1019 
L 4122 359 
Q 3791 134 3420 21 
Q 3050 -91 2638 -91 
Q 1578 -91 968 557 
Q 359 1206 359 2328 
Q 359 3453 968 4101 
Q 1578 4750 2638 4750 
Q 3056 4750 3426 4639 
Q 3797 4528 4122 4306 
z
" transform="scale(0.015625)"/>
      <path id="DejaVuSans-6d" d="M 3328 2828 
Q 3544 3216 3844 3400 
Q 4144 3584 4550 3584 
Q 5097 3584 5394 3201 
Q 5691 2819 5691 2113 
L 5691 0 
L 5113 0 
L 5113 2094 
Q 5113 2597 4934 2840 
Q 4756 3084 4391 3084 
Q 3944 3084 3684 2787 
Q 3425 2491 3425 1978 
L 3425 0 
L 2847 0 
L 2847 2094 
Q 2847 2600 2669 2842 
Q 2491 3084 2119 3084 
Q 1678 3084 1418 2786 
Q 1159 2488 1159 1978 
L 1159 0 
L 581 0 
L 581 3500 
L 1159 3500 
L 1159 2956 
Q 1356 3278 1631 3431 
Q 1906 3584 2284 3584 
Q 2666 3584 2933 3390 
Q 3200 3197 3328 2828 
z
" transform="scale(0.015625)"/>
      <path id="DejaVuSans-62" d="M 3116 1747 
Q 3116 2381 2855 2742 
Q 2594 3103 2138 3103 
Q 1681 3103 1420 2742 
Q 1159 2381 1159 1747 
Q 1159 1113 1420 752 
Q 1681 391 2138 391 
Q 2594 391 2855 752 
Q 3116 1113 3116 1747 
z
M 1159 2969 
Q 1341 3281 1617 3432 
Q 1894 3584 2278 3584 
Q 2916 3584 3314 3078 
Q 3713 2572 3713 1747 
Q 3713 922 3314 415 
Q 2916 -91 2278 -91 
Q 1894 -91 1617 61 
Q 1341 213 1159 525 
L 1159 0 
L 581 0 
L 581 4863 
L 1159 4863 
L 1159 2969 
z
" transform="scale(0.015625)"/>
      <path id="DejaVuSans-65" d="M 3597 1894 
L 3597 1613 
L 953 1613 
Q 991 1019 1311 708 
Q 1631 397 2203 397 
Q 2534 397 2845 478 
Q 3156 559 3463 722 
L 3463 178 
Q 3153 47 2828 -22 
Q 2503 -91 2169 -91 
Q 1331 -91 842 396 
Q 353 884 353 1716 
Q 353 2575 817 3079 
Q 1281 3584 2069 3584 
Q 2775 3584 3186 3129 
Q 3597 2675 3597 1894 
z
M 3022 2063 
Q 3016 2534 2758 2815 
Q 2500 3097 2075 3097 
Q 1594 3097 1305 2825 
Q 1016 2553 972 2059 
L 3022 2063 
z
" transform="scale(0.015625)"/>
      <path id="DejaVuSans-64" d="M 2906 2969 
L 2906 4863 
L 3481 4863 
L 3481 0 
L 2906 0 
L 2906 525 
Q 2725 213 2448 61 
Q 2172 -91 1784 -91 
Q 1150 -91 751 415 
Q 353 922 353 1747 
Q 353 2572 751 3078 
Q 1150 3584 1784 3584 
Q 2172 3584 2448 3432 
Q 2725 3281 2906 2969 
z
M 947 1747 
Q 947 1113 1208 752 
Q 1469 391 1925 391 
Q 2381 391 2643 752 
Q 2906 1113 2906 1747 
Q 2906 2381 2643 2742 
Q 2381 3103 1925 3103 
Q 1469 3103 1208 2742 
Q 947 2381 947 1747 
z
" transform="scale(0.015625)"/>
     </defs>
     <use xlink:href="#DejaVuSans-43"/>
     <use xlink:href="#DejaVuSans-6f" transform="translate(69.824219 0)"/>
     <use xlink:href="#DejaVuSans-6d" transform="translate(131.005859 0)"/>
     <use xlink:href="#DejaVuSans-62" transform="translate(228.417969 0)"/>
     <use xlink:href="#DejaVuSans-69" transform="translate(291.894531 0)"/>
     <use xlink:href="#DejaVuSans-6e" transform="translate(319.677734 0)"/>
     <use xlink:href="#DejaVuSans-65" transform="translate(383.056641 0)"/>
     <use xlink:href="#DejaVuSans-64" transform="translate(444.580078 0)"/>
     <use xlink:href="#DejaVuSans-20" transform="translate(508.056641 0)"/>
     <use xlink:href="#DejaVuSans-54" transform="translate(539.84375 0)"/>
     <use xlink:href="#DejaVuSans-72" transform="translate(586.177734 0)"/>
     <use xlink:href="#DejaVuSans-61" transform="translate(627.291016 0)"/>
     <use xlink:href="#DejaVuSans-69" transform="translate(688.570312 0)"/>
     <use xlink:href="#DejaVuSans-6e" transform="translate(716.353516 0)"/>
     <use xlink:href="#DejaVuSans-20" transform="translate(779.732422 0)"/>
     <use xlink:href="#DejaVuSans-4c" transform="translate(811.519531 0)"/>
     <use xlink:href="#DejaVuSans-6f" transform="translate(865.482422 0)"/>
     <use xlink:href="#DejaVuSans-73" transform="translate(926.664062 0)"/>
     <use xlink:href="#DejaVuSans-73" transform="translate(978.763672 0)"/>
    </g>
   </g>
   <g id="legend_1">
    <g id="patch_7">
     <path d="M 635.99625 103.70875 
L 698.17125 103.70875 
Q 700.17125 103.70875 700.17125 101.70875 
L 700.17125 29.318125 
Q 700.17125 27.318125 698.17125 27.318125 
L 635.99625 27.318125 
Q 633.99625 27.318125 633.99625 29.318125 
L 633.99625 101.70875 
Q 633.99625 103.70875 635.99625 103.70875 
z
" style="fill: #ffffff; opacity: 0.8; stroke: #cccccc; stroke-linejoin: miter"/>
    </g>
    <g id="line2d_20">
     <path d="M 637.99625 35.416562 
L 647.99625 35.416562 
L 657.99625 35.416562 
" style="fill: none; stroke: #1f77b4; stroke-width: 1.5; stroke-linecap: square"/>
    </g>
    <g id="text_18">
     <!-- Fold 1 -->
     <g transform="translate(665.99625 38.916562) scale(0.1 -0.1)">
      <defs>
       <path id="DejaVuSans-46" d="M 628 4666 
L 3309 4666 
L 3309 4134 
L 1259 4134 
L 1259 2759 
L 3109 2759 
L 3109 2228 
L 1259 2228 
L 1259 0 
L 628 0 
L 628 4666 
z
" transform="scale(0.015625)"/>
       <path id="DejaVuSans-6c" d="M 603 4863 
L 1178 4863 
L 1178 0 
L 603 0 
L 603 4863 
z
" transform="scale(0.015625)"/>
      </defs>
      <use xlink:href="#DejaVuSans-46"/>
      <use xlink:href="#DejaVuSans-6f" transform="translate(53.894531 0)"/>
      <use xlink:href="#DejaVuSans-6c" transform="translate(115.076172 0)"/>
      <use xlink:href="#DejaVuSans-64" transform="translate(142.859375 0)"/>
      <use xlink:href="#DejaVuSans-20" transform="translate(206.335938 0)"/>
      <use xlink:href="#DejaVuSans-31" transform="translate(238.123047 0)"/>
     </g>
    </g>
    <g id="line2d_21">
     <path d="M 637.99625 50.094688 
L 647.99625 50.094688 
L 657.99625 50.094688 
" style="fill: none; stroke: #ff7f0e; stroke-width: 1.5; stroke-linecap: square"/>
    </g>
    <g id="text_19">
     <!-- Fold 2 -->
     <g transform="translate(665.99625 53.594688) scale(0.1 -0.1)">
      <use xlink:href="#DejaVuSans-46"/>
      <use xlink:href="#DejaVuSans-6f" transform="translate(53.894531 0)"/>
      <use xlink:href="#DejaVuSans-6c" transform="translate(115.076172 0)"/>
      <use xlink:href="#DejaVuSans-64" transform="translate(142.859375 0)"/>
      <use xlink:href="#DejaVuSans-20" transform="translate(206.335938 0)"/>
      <use xlink:href="#DejaVuSans-32" transform="translate(238.123047 0)"/>
     </g>
    </g>
    <g id="line2d_22">
     <path d="M 637.99625 64.772812 
L 647.99625 64.772812 
L 657.99625 64.772812 
" style="fill: none; stroke: #2ca02c; stroke-width: 1.5; stroke-linecap: square"/>
    </g>
    <g id="text_20">
     <!-- Fold 3 -->
     <g transform="translate(665.99625 68.272812) scale(0.1 -0.1)">
      <defs>
       <path id="DejaVuSans-33" d="M 2597 2516 
Q 3050 2419 3304 2112 
Q 3559 1806 3559 1356 
Q 3559 666 3084 287 
Q 2609 -91 1734 -91 
Q 1441 -91 1130 -33 
Q 819 25 488 141 
L 488 750 
Q 750 597 1062 519 
Q 1375 441 1716 441 
Q 2309 441 2620 675 
Q 2931 909 2931 1356 
Q 2931 1769 2642 2001 
Q 2353 2234 1838 2234 
L 1294 2234 
L 1294 2753 
L 1863 2753 
Q 2328 2753 2575 2939 
Q 2822 3125 2822 3475 
Q 2822 3834 2567 4026 
Q 2313 4219 1838 4219 
Q 1578 4219 1281 4162 
Q 984 4106 628 3988 
L 628 4550 
Q 988 4650 1302 4700 
Q 1616 4750 1894 4750 
Q 2613 4750 3031 4423 
Q 3450 4097 3450 3541 
Q 3450 3153 3228 2886 
Q 3006 2619 2597 2516 
z
" transform="scale(0.015625)"/>
      </defs>
      <use xlink:href="#DejaVuSans-46"/>
      <use xlink:href="#DejaVuSans-6f" transform="translate(53.894531 0)"/>
      <use xlink:href="#DejaVuSans-6c" transform="translate(115.076172 0)"/>
      <use xlink:href="#DejaVuSans-64" transform="translate(142.859375 0)"/>
      <use xlink:href="#DejaVuSans-20" transform="translate(206.335938 0)"/>
      <use xlink:href="#DejaVuSans-33" transform="translate(238.123047 0)"/>
     </g>
    </g>
    <g id="line2d_23">
     <path d="M 637.99625 79.450938 
L 647.99625 79.450938 
L 657.99625 79.450938 
" style="fill: none; stroke: #d62728; stroke-width: 1.5; stroke-linecap: square"/>
    </g>
    <g id="text_21">
     <!-- Fold 4 -->
     <g transform="translate(665.99625 82.950938) scale(0.1 -0.1)">
      <use xlink:href="#DejaVuSans-46"/>
      <use xlink:href="#DejaVuSans-6f" transform="translate(53.894531 0)"/>
      <use xlink:href="#DejaVuSans-6c" transform="translate(115.076172 0)"/>
      <use xlink:href="#DejaVuSans-64" transform="translate(142.859375 0)"/>
      <use xlink:href="#DejaVuSans-20" transform="translate(206.335938 0)"/>
      <use xlink:href="#DejaVuSans-34" transform="translate(238.123047 0)"/>
     </g>
    </g>
    <g id="line2d_24">
     <path d="M 637.99625 94.129063 
L 647.99625 94.129063 
L 657.99625 94.129063 
" style="fill: none; stroke: #9467bd; stroke-width: 1.5; stroke-linecap: square"/>
    </g>
    <g id="text_22">
     <!-- Fold 5 -->
     <g transform="translate(665.99625 97.629063) scale(0.1 -0.1)">
      <defs>
       <path id="DejaVuSans-35" d="M 691 4666 
L 3169 4666 
L 3169 4134 
L 1269 4134 
L 1269 2991 
Q 1406 3038 1543 3061 
Q 1681 3084 1819 3084 
Q 2600 3084 3056 2656 
Q 3513 2228 3513 1497 
Q 3513 744 3044 326 
Q 2575 -91 1722 -91 
Q 1428 -91 1123 -41 
Q 819 9 494 109 
L 494 744 
Q 775 591 1075 516 
Q 1375 441 1709 441 
Q 2250 441 2565 725 
Q 2881 1009 2881 1497 
Q 2881 1984 2565 2268 
Q 2250 2553 1709 2553 
Q 1456 2553 1204 2497 
Q 953 2441 691 2322 
L 691 4666 
z
" transform="scale(0.015625)"/>
      </defs>
      <use xlink:href="#DejaVuSans-46"/>
      <use xlink:href="#DejaVuSans-6f" transform="translate(53.894531 0)"/>
      <use xlink:href="#DejaVuSans-6c" transform="translate(115.076172 0)"/>
      <use xlink:href="#DejaVuSans-64" transform="translate(142.859375 0)"/>
      <use xlink:href="#DejaVuSans-20" transform="translate(206.335938 0)"/>
      <use xlink:href="#DejaVuSans-35" transform="translate(238.123047 0)"/>
     </g>
    </g>
   </g>
  </g>
 </g>
 <defs>
  <clipPath id="p671b3a8fb0">
   <rect x="43.78125" y="22.318125" width="661.39" height="363.16"/>
  </clipPath>
 </defs>
</svg>
