<?xml version="1.0" encoding="utf-8" standalone="no"?>
<!DOCTYPE svg PUBLIC "-//W3C//DTD SVG 1.1//EN"
  "http://www.w3.org/Graphics/SVG/1.1/DTD/svg11.dtd">
<svg xmlns:xlink="http://www.w3.org/1999/xlink" width="712.46125pt" height="423.034375pt" viewBox="0 0 712.46125 423.034375" xmlns="http://www.w3.org/2000/svg" version="1.1">
 <metadata>
  <rdf:RDF xmlns:dc="http://purl.org/dc/elements/1.1/" xmlns:cc="http://creativecommons.org/ns#" xmlns:rdf="http://www.w3.org/1999/02/22-rdf-syntax-ns#">
   <cc:Work>
    <dc:type rdf:resource="http://purl.org/dc/dcmitype/StillImage"/>
    <dc:date>2025-06-27T13:04:15.420584</dc:date>
    <dc:format>image/svg+xml</dc:format>
    <dc:creator>
     <cc:Agent>
      <dc:title>Matplotlib v3.10.0, https://matplotlib.org/</dc:title>
     </cc:Agent>
    </dc:creator>
   </cc:Work>
  </rdf:RDF>
 </metadata>
 <defs>
  <style type="text/css">*{stroke-linejoin: round; stroke-linecap: butt}</style>
 </defs>
 <g id="figure_1">
  <g id="patch_1">
   <path d="M 0 423.034375 
L 712.46125 423.034375 
L 712.46125 0 
L 0 0 
z
" style="fill: #ffffff"/>
  </g>
  <g id="axes_1">
   <g id="patch_2">
    <path d="M 43.78125 385.478125 
L 705.26125 385.478125 
L 705.26125 22.318125 
L 43.78125 22.318125 
z
" style="fill: #ffffff"/>
   </g>
   <g id="matplotlib.axis_1">
    <g id="xtick_1">
     <g id="line2d_1">
      <defs>
       <path id="m72decc2769" d="M 0 0 
L 0 3.5 
" style="stroke: #000000; stroke-width: 0.8"/>
      </defs>
      <g>
       <use xlink:href="#m72decc2769" x="67.774326" y="385.478125" style="stroke: #000000; stroke-width: 0.8"/>
      </g>
     </g>
     <g id="text_1">
      <!-- 0 -->
      <g transform="translate(64.593076 400.076562) scale(0.1 -0.1)">
       <defs>
        <path id="DejaVuSans-30" d="M 2034 4250 
Q 1547 4250 1301 3770 
Q 1056 3291 1056 2328 
Q 1056 1369 1301 889 
Q 1547 409 2034 409 
Q 2525 409 2770 889 
Q 3016 1369 3016 2328 
Q 3016 3291 2770 3770 
Q 2525 4250 2034 4250 
z
M 2034 4750 
Q 2819 4750 3233 4129 
Q 3647 3509 3647 2328 
Q 3647 1150 3233 529 
Q 2819 -91 2034 -91 
Q 1250 -91 836 529 
Q 422 1150 422 2328 
Q 422 3509 836 4129 
Q 1250 4750 2034 4750 
z
" transform="scale(0.015625)"/>
       </defs>
       <use xlink:href="#DejaVuSans-30"/>
      </g>
     </g>
    </g>
    <g id="xtick_2">
     <g id="line2d_2">
      <g>
       <use xlink:href="#m72decc2769" x="189.258256" y="385.478125" style="stroke: #000000; stroke-width: 0.8"/>
      </g>
     </g>
     <g id="text_2">
      <!-- 20 -->
      <g transform="translate(182.895756 400.076562) scale(0.1 -0.1)">
       <defs>
        <path id="DejaVuSans-32" d="M 1228 531 
L 3431 531 
L 3431 0 
L 469 0 
L 469 531 
Q 828 903 1448 1529 
Q 2069 2156 2228 2338 
Q 2531 2678 2651 2914 
Q 2772 3150 2772 3378 
Q 2772 3750 2511 3984 
Q 2250 4219 1831 4219 
Q 1534 4219 1204 4116 
Q 875 4013 500 3803 
L 500 4441 
Q 881 4594 1212 4672 
Q 1544 4750 1819 4750 
Q 2544 4750 2975 4387 
Q 3406 4025 3406 3419 
Q 3406 3131 3298 2873 
Q 3191 2616 2906 2266 
Q 2828 2175 2409 1742 
Q 1991 1309 1228 531 
z
" transform="scale(0.015625)"/>
       </defs>
       <use xlink:href="#DejaVuSans-32"/>
       <use xlink:href="#DejaVuSans-30" transform="translate(63.623047 0)"/>
      </g>
     </g>
    </g>
    <g id="xtick_3">
     <g id="line2d_3">
      <g>
       <use xlink:href="#m72decc2769" x="310.742187" y="385.478125" style="stroke: #000000; stroke-width: 0.8"/>
      </g>
     </g>
     <g id="text_3">
      <!-- 40 -->
      <g transform="translate(304.379687 400.076562) scale(0.1 -0.1)">
       <defs>
        <path id="DejaVuSans-34" d="M 2419 4116 
L 825 1625 
L 2419 1625 
L 2419 4116 
z
M 2253 4666 
L 3047 4666 
L 3047 1625 
L 3713 1625 
L 3713 1100 
L 3047 1100 
L 3047 0 
L 2419 0 
L 2419 1100 
L 313 1100 
L 313 1709 
L 2253 4666 
z
" transform="scale(0.015625)"/>
       </defs>
       <use xlink:href="#DejaVuSans-34"/>
       <use xlink:href="#DejaVuSans-30" transform="translate(63.623047 0)"/>
      </g>
     </g>
    </g>
    <g id="xtick_4">
     <g id="line2d_4">
      <g>
       <use xlink:href="#m72decc2769" x="432.226117" y="385.478125" style="stroke: #000000; stroke-width: 0.8"/>
      </g>
     </g>
     <g id="text_4">
      <!-- 60 -->
      <g transform="translate(425.863617 400.076562) scale(0.1 -0.1)">
       <defs>
        <path id="DejaVuSans-36" d="M 2113 2584 
Q 1688 2584 1439 2293 
Q 1191 2003 1191 1497 
Q 1191 994 1439 701 
Q 1688 409 2113 409 
Q 2538 409 2786 701 
Q 3034 994 3034 1497 
Q 3034 2003 2786 2293 
Q 2538 2584 2113 2584 
z
M 3366 4563 
L 3366 3988 
Q 3128 4100 2886 4159 
Q 2644 4219 2406 4219 
Q 1781 4219 1451 3797 
Q 1122 3375 1075 2522 
Q 1259 2794 1537 2939 
Q 1816 3084 2150 3084 
Q 2853 3084 3261 2657 
Q 3669 2231 3669 1497 
Q 3669 778 3244 343 
Q 2819 -91 2113 -91 
Q 1303 -91 875 529 
Q 447 1150 447 2328 
Q 447 3434 972 4092 
Q 1497 4750 2381 4750 
Q 2619 4750 2861 4703 
Q 3103 4656 3366 4563 
z
" transform="scale(0.015625)"/>
       </defs>
       <use xlink:href="#DejaVuSans-36"/>
       <use xlink:href="#DejaVuSans-30" transform="translate(63.623047 0)"/>
      </g>
     </g>
    </g>
    <g id="xtick_5">
     <g id="line2d_5">
      <g>
       <use xlink:href="#m72decc2769" x="553.710047" y="385.478125" style="stroke: #000000; stroke-width: 0.8"/>
      </g>
     </g>
     <g id="text_5">
      <!-- 80 -->
      <g transform="translate(547.347547 400.076562) scale(0.1 -0.1)">
       <defs>
        <path id="DejaVuSans-38" d="M 2034 2216 
Q 1584 2216 1326 1975 
Q 1069 1734 1069 1313 
Q 1069 891 1326 650 
Q 1584 409 2034 409 
Q 2484 409 2743 651 
Q 3003 894 3003 1313 
Q 3003 1734 2745 1975 
Q 2488 2216 2034 2216 
z
M 1403 2484 
Q 997 2584 770 2862 
Q 544 3141 544 3541 
Q 544 4100 942 4425 
Q 1341 4750 2034 4750 
Q 2731 4750 3128 4425 
Q 3525 4100 3525 3541 
Q 3525 3141 3298 2862 
Q 3072 2584 2669 2484 
Q 3125 2378 3379 2068 
Q 3634 1759 3634 1313 
Q 3634 634 3220 271 
Q 2806 -91 2034 -91 
Q 1263 -91 848 271 
Q 434 634 434 1313 
Q 434 1759 690 2068 
Q 947 2378 1403 2484 
z
M 1172 3481 
Q 1172 3119 1398 2916 
Q 1625 2713 2034 2713 
Q 2441 2713 2670 2916 
Q 2900 3119 2900 3481 
Q 2900 3844 2670 4047 
Q 2441 4250 2034 4250 
Q 1625 4250 1398 4047 
Q 1172 3844 1172 3481 
z
" transform="scale(0.015625)"/>
       </defs>
       <use xlink:href="#DejaVuSans-38"/>
       <use xlink:href="#DejaVuSans-30" transform="translate(63.623047 0)"/>
      </g>
     </g>
    </g>
    <g id="xtick_6">
     <g id="line2d_6">
      <g>
       <use xlink:href="#m72decc2769" x="675.193977" y="385.478125" style="stroke: #000000; stroke-width: 0.8"/>
      </g>
     </g>
     <g id="text_6">
      <!-- 100 -->
      <g transform="translate(665.650227 400.076562) scale(0.1 -0.1)">
       <defs>
        <path id="DejaVuSans-31" d="M 794 531 
L 1825 531 
L 1825 4091 
L 703 3866 
L 703 4441 
L 1819 4666 
L 2450 4666 
L 2450 531 
L 3481 531 
L 3481 0 
L 794 0 
L 794 531 
z
" transform="scale(0.015625)"/>
       </defs>
       <use xlink:href="#DejaVuSans-31"/>
       <use xlink:href="#DejaVuSans-30" transform="translate(63.623047 0)"/>
       <use xlink:href="#DejaVuSans-30" transform="translate(127.246094 0)"/>
      </g>
     </g>
    </g>
    <g id="text_7">
     <!-- Epoch -->
     <g transform="translate(359.210312 413.754687) scale(0.1 -0.1)">
      <defs>
       <path id="DejaVuSans-45" d="M 628 4666 
L 3578 4666 
L 3578 4134 
L 1259 4134 
L 1259 2753 
L 3481 2753 
L 3481 2222 
L 1259 2222 
L 1259 531 
L 3634 531 
L 3634 0 
L 628 0 
L 628 4666 
z
" transform="scale(0.015625)"/>
       <path id="DejaVuSans-70" d="M 1159 525 
L 1159 -1331 
L 581 -1331 
L 581 3500 
L 1159 3500 
L 1159 2969 
Q 1341 3281 1617 3432 
Q 1894 3584 2278 3584 
Q 2916 3584 3314 3078 
Q 3713 2572 3713 1747 
Q 3713 922 3314 415 
Q 2916 -91 2278 -91 
Q 1894 -91 1617 61 
Q 1341 213 1159 525 
z
M 3116 1747 
Q 3116 2381 2855 2742 
Q 2594 3103 2138 3103 
Q 1681 3103 1420 2742 
Q 1159 2381 1159 1747 
Q 1159 1113 1420 752 
Q 1681 391 2138 391 
Q 2594 391 2855 752 
Q 3116 1113 3116 1747 
z
" transform="scale(0.015625)"/>
       <path id="DejaVuSans-6f" d="M 1959 3097 
Q 1497 3097 1228 2736 
Q 959 2375 959 1747 
Q 959 1119 1226 758 
Q 1494 397 1959 397 
Q 2419 397 2687 759 
Q 2956 1122 2956 1747 
Q 2956 2369 2687 2733 
Q 2419 3097 1959 3097 
z
M 1959 3584 
Q 2709 3584 3137 3096 
Q 3566 2609 3566 1747 
Q 3566 888 3137 398 
Q 2709 -91 1959 -91 
Q 1206 -91 779 398 
Q 353 888 353 1747 
Q 353 2609 779 3096 
Q 1206 3584 1959 3584 
z
" transform="scale(0.015625)"/>
       <path id="DejaVuSans-63" d="M 3122 3366 
L 3122 2828 
Q 2878 2963 2633 3030 
Q 2388 3097 2138 3097 
Q 1578 3097 1268 2742 
Q 959 2388 959 1747 
Q 959 1106 1268 751 
Q 1578 397 2138 397 
Q 2388 397 2633 464 
Q 2878 531 3122 666 
L 3122 134 
Q 2881 22 2623 -34 
Q 2366 -91 2075 -91 
Q 1284 -91 818 406 
Q 353 903 353 1747 
Q 353 2603 823 3093 
Q 1294 3584 2113 3584 
Q 2378 3584 2631 3529 
Q 2884 3475 3122 3366 
z
" transform="scale(0.015625)"/>
       <path id="DejaVuSans-68" d="M 3513 2113 
L 3513 0 
L 2938 0 
L 2938 2094 
Q 2938 2591 2744 2837 
Q 2550 3084 2163 3084 
Q 1697 3084 1428 2787 
Q 1159 2491 1159 1978 
L 1159 0 
L 581 0 
L 581 4863 
L 1159 4863 
L 1159 2956 
Q 1366 3272 1645 3428 
Q 1925 3584 2291 3584 
Q 2894 3584 3203 3211 
Q 3513 2838 3513 2113 
z
" transform="scale(0.015625)"/>
      </defs>
      <use xlink:href="#DejaVuSans-45"/>
      <use xlink:href="#DejaVuSans-70" transform="translate(63.183594 0)"/>
      <use xlink:href="#DejaVuSans-6f" transform="translate(126.660156 0)"/>
      <use xlink:href="#DejaVuSans-63" transform="translate(187.841797 0)"/>
      <use xlink:href="#DejaVuSans-68" transform="translate(242.822266 0)"/>
     </g>
    </g>
   </g>
   <g id="matplotlib.axis_2">
    <g id="ytick_1">
     <g id="line2d_7">
      <defs>
       <path id="med502d6a7f" d="M 0 0 
L -3.5 0 
" style="stroke: #000000; stroke-width: 0.8"/>
      </defs>
      <g>
       <use xlink:href="#med502d6a7f" x="43.78125" y="335.601761" style="stroke: #000000; stroke-width: 0.8"/>
      </g>
     </g>
     <g id="text_8">
      <!-- 0.5 -->
      <g transform="translate(20.878125 339.40098) scale(0.1 -0.1)">
       <defs>
        <path id="DejaVuSans-2e" d="M 684 794 
L 1344 794 
L 1344 0 
L 684 0 
L 684 794 
z
" transform="scale(0.015625)"/>
        <path id="DejaVuSans-35" d="M 691 4666 
L 3169 4666 
L 3169 4134 
L 1269 4134 
L 1269 2991 
Q 1406 3038 1543 3061 
Q 1681 3084 1819 3084 
Q 2600 3084 3056 2656 
Q 3513 2228 3513 1497 
Q 3513 744 3044 326 
Q 2575 -91 1722 -91 
Q 1428 -91 1123 -41 
Q 819 9 494 109 
L 494 744 
Q 775 591 1075 516 
Q 1375 441 1709 441 
Q 2250 441 2565 725 
Q 2881 1009 2881 1497 
Q 2881 1984 2565 2268 
Q 2250 2553 1709 2553 
Q 1456 2553 1204 2497 
Q 953 2441 691 2322 
L 691 4666 
z
" transform="scale(0.015625)"/>
       </defs>
       <use xlink:href="#DejaVuSans-30"/>
       <use xlink:href="#DejaVuSans-2e" transform="translate(63.623047 0)"/>
       <use xlink:href="#DejaVuSans-35" transform="translate(95.410156 0)"/>
      </g>
     </g>
    </g>
    <g id="ytick_2">
     <g id="line2d_8">
      <g>
       <use xlink:href="#med502d6a7f" x="43.78125" y="265.781179" style="stroke: #000000; stroke-width: 0.8"/>
      </g>
     </g>
     <g id="text_9">
      <!-- 0.6 -->
      <g transform="translate(20.878125 269.580398) scale(0.1 -0.1)">
       <use xlink:href="#DejaVuSans-30"/>
       <use xlink:href="#DejaVuSans-2e" transform="translate(63.623047 0)"/>
       <use xlink:href="#DejaVuSans-36" transform="translate(95.410156 0)"/>
      </g>
     </g>
    </g>
    <g id="ytick_3">
     <g id="line2d_9">
      <g>
       <use xlink:href="#med502d6a7f" x="43.78125" y="195.960598" style="stroke: #000000; stroke-width: 0.8"/>
      </g>
     </g>
     <g id="text_10">
      <!-- 0.7 -->
      <g transform="translate(20.878125 199.759816) scale(0.1 -0.1)">
       <defs>
        <path id="DejaVuSans-37" d="M 525 4666 
L 3525 4666 
L 3525 4397 
L 1831 0 
L 1172 0 
L 2766 4134 
L 525 4134 
L 525 4666 
z
" transform="scale(0.015625)"/>
       </defs>
       <use xlink:href="#DejaVuSans-30"/>
       <use xlink:href="#DejaVuSans-2e" transform="translate(63.623047 0)"/>
       <use xlink:href="#DejaVuSans-37" transform="translate(95.410156 0)"/>
      </g>
     </g>
    </g>
    <g id="ytick_4">
     <g id="line2d_10">
      <g>
       <use xlink:href="#med502d6a7f" x="43.78125" y="126.140016" style="stroke: #000000; stroke-width: 0.8"/>
      </g>
     </g>
     <g id="text_11">
      <!-- 0.8 -->
      <g transform="translate(20.878125 129.939235) scale(0.1 -0.1)">
       <use xlink:href="#DejaVuSans-30"/>
       <use xlink:href="#DejaVuSans-2e" transform="translate(63.623047 0)"/>
       <use xlink:href="#DejaVuSans-38" transform="translate(95.410156 0)"/>
      </g>
     </g>
    </g>
    <g id="ytick_5">
     <g id="line2d_11">
      <g>
       <use xlink:href="#med502d6a7f" x="43.78125" y="56.319434" style="stroke: #000000; stroke-width: 0.8"/>
      </g>
     </g>
     <g id="text_12">
      <!-- 0.9 -->
      <g transform="translate(20.878125 60.118653) scale(0.1 -0.1)">
       <defs>
        <path id="DejaVuSans-39" d="M 703 97 
L 703 672 
Q 941 559 1184 500 
Q 1428 441 1663 441 
Q 2288 441 2617 861 
Q 2947 1281 2994 2138 
Q 2813 1869 2534 1725 
Q 2256 1581 1919 1581 
Q 1219 1581 811 2004 
Q 403 2428 403 3163 
Q 403 3881 828 4315 
Q 1253 4750 1959 4750 
Q 2769 4750 3195 4129 
Q 3622 3509 3622 2328 
Q 3622 1225 3098 567 
Q 2575 -91 1691 -91 
Q 1453 -91 1209 -44 
Q 966 3 703 97 
z
M 1959 2075 
Q 2384 2075 2632 2365 
Q 2881 2656 2881 3163 
Q 2881 3666 2632 3958 
Q 2384 4250 1959 4250 
Q 1534 4250 1286 3958 
Q 1038 3666 1038 3163 
Q 1038 2656 1286 2365 
Q 1534 2075 1959 2075 
z
" transform="scale(0.015625)"/>
       </defs>
       <use xlink:href="#DejaVuSans-30"/>
       <use xlink:href="#DejaVuSans-2e" transform="translate(63.623047 0)"/>
       <use xlink:href="#DejaVuSans-39" transform="translate(95.410156 0)"/>
      </g>
     </g>
    </g>
    <g id="text_13">
     <!-- Train Accuracy -->
     <g transform="translate(14.798438 240.309062) rotate(-90) scale(0.1 -0.1)">
      <defs>
       <path id="DejaVuSans-54" d="M -19 4666 
L 3928 4666 
L 3928 4134 
L 2272 4134 
L 2272 0 
L 1638 0 
L 1638 4134 
L -19 4134 
L -19 4666 
z
" transform="scale(0.015625)"/>
       <path id="DejaVuSans-72" d="M 2631 2963 
Q 2534 3019 2420 3045 
Q 2306 3072 2169 3072 
Q 1681 3072 1420 2755 
Q 1159 2438 1159 1844 
L 1159 0 
L 581 0 
L 581 3500 
L 1159 3500 
L 1159 2956 
Q 1341 3275 1631 3429 
Q 1922 3584 2338 3584 
Q 2397 3584 2469 3576 
Q 2541 3569 2628 3553 
L 2631 2963 
z
" transform="scale(0.015625)"/>
       <path id="DejaVuSans-61" d="M 2194 1759 
Q 1497 1759 1228 1600 
Q 959 1441 959 1056 
Q 959 750 1161 570 
Q 1363 391 1709 391 
Q 2188 391 2477 730 
Q 2766 1069 2766 1631 
L 2766 1759 
L 2194 1759 
z
M 3341 1997 
L 3341 0 
L 2766 0 
L 2766 531 
Q 2569 213 2275 61 
Q 1981 -91 1556 -91 
Q 1019 -91 701 211 
Q 384 513 384 1019 
Q 384 1609 779 1909 
Q 1175 2209 1959 2209 
L 2766 2209 
L 2766 2266 
Q 2766 2663 2505 2880 
Q 2244 3097 1772 3097 
Q 1472 3097 1187 3025 
Q 903 2953 641 2809 
L 641 3341 
Q 956 3463 1253 3523 
Q 1550 3584 1831 3584 
Q 2591 3584 2966 3190 
Q 3341 2797 3341 1997 
z
" transform="scale(0.015625)"/>
       <path id="DejaVuSans-69" d="M 603 3500 
L 1178 3500 
L 1178 0 
L 603 0 
L 603 3500 
z
M 603 4863 
L 1178 4863 
L 1178 4134 
L 603 4134 
L 603 4863 
z
" transform="scale(0.015625)"/>
       <path id="DejaVuSans-6e" d="M 3513 2113 
L 3513 0 
L 2938 0 
L 2938 2094 
Q 2938 2591 2744 2837 
Q 2550 3084 2163 3084 
Q 1697 3084 1428 2787 
Q 1159 2491 1159 1978 
L 1159 0 
L 581 0 
L 581 3500 
L 1159 3500 
L 1159 2956 
Q 1366 3272 1645 3428 
Q 1925 3584 2291 3584 
Q 2894 3584 3203 3211 
Q 3513 2838 3513 2113 
z
" transform="scale(0.015625)"/>
       <path id="DejaVuSans-20" transform="scale(0.015625)"/>
       <path id="DejaVuSans-41" d="M 2188 4044 
L 1331 1722 
L 3047 1722 
L 2188 4044 
z
M 1831 4666 
L 2547 4666 
L 4325 0 
L 3669 0 
L 3244 1197 
L 1141 1197 
L 716 0 
L 50 0 
L 1831 4666 
z
" transform="scale(0.015625)"/>
       <path id="DejaVuSans-75" d="M 544 1381 
L 544 3500 
L 1119 3500 
L 1119 1403 
Q 1119 906 1312 657 
Q 1506 409 1894 409 
Q 2359 409 2629 706 
Q 2900 1003 2900 1516 
L 2900 3500 
L 3475 3500 
L 3475 0 
L 2900 0 
L 2900 538 
Q 2691 219 2414 64 
Q 2138 -91 1772 -91 
Q 1169 -91 856 284 
Q 544 659 544 1381 
z
M 1991 3584 
L 1991 3584 
z
" transform="scale(0.015625)"/>
       <path id="DejaVuSans-79" d="M 2059 -325 
Q 1816 -950 1584 -1140 
Q 1353 -1331 966 -1331 
L 506 -1331 
L 506 -850 
L 844 -850 
Q 1081 -850 1212 -737 
Q 1344 -625 1503 -206 
L 1606 56 
L 191 3500 
L 800 3500 
L 1894 763 
L 2988 3500 
L 3597 3500 
L 2059 -325 
z
" transform="scale(0.015625)"/>
      </defs>
      <use xlink:href="#DejaVuSans-54"/>
      <use xlink:href="#DejaVuSans-72" transform="translate(46.333984 0)"/>
      <use xlink:href="#DejaVuSans-61" transform="translate(87.447266 0)"/>
      <use xlink:href="#DejaVuSans-69" transform="translate(148.726562 0)"/>
      <use xlink:href="#DejaVuSans-6e" transform="translate(176.509766 0)"/>
      <use xlink:href="#DejaVuSans-20" transform="translate(239.888672 0)"/>
      <use xlink:href="#DejaVuSans-41" transform="translate(271.675781 0)"/>
      <use xlink:href="#DejaVuSans-63" transform="translate(338.333984 0)"/>
      <use xlink:href="#DejaVuSans-63" transform="translate(393.314453 0)"/>
      <use xlink:href="#DejaVuSans-75" transform="translate(448.294922 0)"/>
      <use xlink:href="#DejaVuSans-72" transform="translate(511.673828 0)"/>
      <use xlink:href="#DejaVuSans-61" transform="translate(552.787109 0)"/>
      <use xlink:href="#DejaVuSans-63" transform="translate(614.066406 0)"/>
      <use xlink:href="#DejaVuSans-79" transform="translate(669.046875 0)"/>
     </g>
    </g>
   </g>
   <g id="line2d_12">
    <path d="M 73.848523 352.92609 
L 79.922719 313.327624 
L 85.996916 270.476426 
L 92.071112 236.959153 
L 98.145309 210.088765 
L 104.219505 169.783183 
L 110.293702 198.350648 
L 116.367898 157.903643 
L 122.442095 152.953835 
L 128.516291 150.125373 
L 134.590488 133.296025 
L 140.664684 138.670102 
L 146.738881 119.577985 
L 152.813077 105.011406 
L 158.887274 104.30429 
L 164.96147 91.01052 
L 171.035667 95.253212 
L 177.109863 86.626404 
L 183.18406 93.131866 
L 189.258256 112.223984 
L 195.332453 93.697558 
L 201.406649 87.474942 
L 207.480846 87.899211 
L 213.555042 76.726787 
L 219.629239 79.696672 
L 225.703435 74.605441 
L 231.777632 94.546097 
L 237.851829 83.373672 
L 243.926025 82.949403 
L 250.000222 80.403787 
L 256.074418 81.959441 
L 262.148615 89.030596 
L 268.222811 131.033255 
L 274.297008 109.536945 
L 280.371204 101.051559 
L 286.445401 85.636442 
L 292.519597 84.222211 
L 298.593794 75.878248 
L 304.66799 71.776979 
L 310.742187 72.201248 
L 316.816383 64.98867 
L 322.89058 72.76694 
L 328.964776 69.514209 
L 335.038973 72.908363 
L 341.113169 62.725901 
L 347.187366 53.957669 
L 353.261562 72.76694 
L 359.335759 68.524248 
L 365.409955 80.262364 
L 371.484152 63.857285 
L 377.558348 68.099978 
L 383.632545 64.422978 
L 389.706741 66.685747 
L 395.780938 61.735939 
L 401.855134 64.564401 
L 407.929331 70.079902 
L 414.003527 84.505057 
L 420.077724 70.645594 
L 426.15192 64.140132 
L 432.226117 63.008747 
L 438.300313 77.999595 
L 444.37451 63.433016 
L 450.448706 59.190323 
L 456.522903 62.018785 
L 462.597099 60.038862 
L 468.671296 51.977745 
L 474.745492 50.139245 
L 480.819689 50.987784 
L 486.893885 53.250553 
L 492.968082 61.594516 
L 499.042278 61.31167 
L 505.116475 50.987784 
L 511.190671 52.967707 
L 517.264868 57.917515 
L 523.339065 48.583591 
L 529.413261 63.574439 
L 535.487458 49.007861 
L 541.561654 47.16936 
L 547.635851 49.149284 
L 553.710047 58.907477 
L 559.784244 58.624631 
L 565.85844 46.603668 
L 571.932637 46.320822 
L 578.006833 51.129207 
L 584.08103 44.482321 
L 590.155226 38.825398 
L 596.229423 41.22959 
L 602.303619 43.49236 
L 608.377816 54.806207 
L 614.452012 51.27063 
L 620.526209 40.381052 
L 626.600405 44.340898 
L 632.674602 55.513323 
L 638.748798 56.361861 
L 644.822995 63.008747 
L 650.897191 60.463131 
L 656.971388 60.038862 
L 663.045584 63.998709 
L 669.119781 59.190323 
L 675.193977 57.917515 
" clip-path="url(#pf15f8c2907)" style="fill: none; stroke: #1f77b4; stroke-width: 1.5; stroke-linecap: square"/>
   </g>
   <g id="line2d_13">
    <path d="M 73.848523 326.904241 
L 79.922719 264.25381 
L 85.996916 252.091424 
L 92.071112 248.980116 
L 98.145309 217.15992 
L 104.219505 194.673648 
L 110.293702 184.632608 
L 116.367898 178.975684 
L 122.442095 172.753068 
L 128.516291 155.216604 
L 134.590488 134.427409 
L 140.664684 144.185603 
L 146.738881 135.558794 
L 152.813077 132.730332 
L 158.887274 137.397294 
L 164.96147 133.296025 
L 171.035667 124.669216 
L 177.109863 123.113562 
L 183.18406 122.265023 
L 189.258256 111.234022 
L 195.332453 96.667443 
L 201.406649 98.081674 
L 207.480846 88.323481 
L 213.555042 94.68752 
L 219.629239 107.698445 
L 225.703435 84.363634 
L 231.777632 86.343557 
L 237.851829 92.84902 
L 243.926025 120.709369 
L 250.000222 85.212173 
L 256.074418 78.565287 
L 262.148615 74.039748 
L 268.222811 73.615479 
L 274.297008 74.322594 
L 280.371204 79.413826 
L 286.445401 75.171133 
L 292.519597 86.060711 
L 298.593794 77.433902 
L 304.66799 67.958555 
L 310.742187 71.776979 
L 316.816383 77.433902 
L 322.89058 63.291593 
L 328.964776 69.08994 
L 335.038973 67.392863 
L 341.113169 75.171133 
L 347.187366 66.402901 
L 353.261562 66.544324 
L 359.335759 65.271516 
L 365.409955 63.715862 
L 371.484152 68.382824 
L 377.558348 85.212173 
L 383.632545 79.555249 
L 389.706741 80.120941 
L 395.780938 79.413826 
L 401.855134 72.908363 
L 407.929331 78.848133 
L 414.003527 59.614593 
L 420.077724 78.282441 
L 426.15192 66.544324 
L 432.226117 65.412939 
L 438.300313 65.837209 
L 444.37451 59.897439 
L 450.448706 55.089054 
L 456.522903 60.604554 
L 462.597099 67.817132 
L 468.671296 71.918402 
L 474.745492 70.079902 
L 480.819689 76.161095 
L 486.893885 80.96948 
L 492.968082 65.271516 
L 499.042278 77.009633 
L 505.116475 87.474942 
L 511.190671 62.867324 
L 517.264868 67.534286 
L 523.339065 66.968593 
L 529.413261 69.938478 
L 535.487458 68.524248 
L 541.561654 61.735939 
L 547.635851 71.918402 
L 553.710047 56.644708 
L 559.784244 70.504171 
L 565.85844 55.937592 
L 571.932637 66.402901 
L 578.006833 75.878248 
L 584.08103 73.049787 
L 590.155226 71.776979 
L 596.229423 77.009633 
L 602.303619 65.837209 
L 608.377816 75.595402 
L 614.452012 65.412939 
L 620.526209 61.877362 
L 626.600405 61.594516 
L 632.674602 71.211286 
L 638.748798 74.039748 
L 644.822995 71.635556 
L 650.897191 74.605441 
L 656.971388 75.595402 
L 663.045584 77.716749 
L 669.119781 87.757788 
L 675.193977 69.797055 
" clip-path="url(#pf15f8c2907)" style="fill: none; stroke: #ff7f0e; stroke-width: 1.5; stroke-linecap: square"/>
   </g>
   <g id="line2d_14">
    <path d="M 73.848523 346.913317 
L 79.922719 326.69391 
L 85.996916 281.589079 
L 92.071112 261.93525 
L 98.145309 247.795805 
L 104.219505 222.910381 
L 110.293702 208.346752 
L 116.367898 186.7134 
L 122.442095 151.78897 
L 128.516291 139.629047 
L 134.590488 156.030804 
L 140.664684 124.782629 
L 146.738881 114.178045 
L 152.813077 144.577853 
L 158.887274 125.206813 
L 164.96147 106.542745 
L 171.035667 110.360395 
L 177.109863 107.815295 
L 183.18406 97.4935 
L 189.258256 97.917683 
L 195.332453 103.714856 
L 201.406649 103.290672 
L 207.480846 103.007883 
L 213.555042 102.159517 
L 219.629239 112.339917 
L 225.703435 105.270195 
L 231.777632 84.909393 
L 237.851829 81.515926 
L 243.926025 82.364293 
L 250.000222 89.999594 
L 256.074418 85.333577 
L 262.148615 83.919632 
L 268.222811 77.132698 
L 274.297008 71.759709 
L 280.371204 68.366242 
L 286.445401 70.487159 
L 292.519597 65.11417 
L 298.593794 74.728992 
L 304.66799 62.144886 
L 310.742187 58.610025 
L 316.816383 60.448153 
L 322.89058 58.892814 
L 328.964776 75.29457 
L 335.038973 61.579308 
L 341.113169 55.499347 
L 347.187366 60.165364 
L 353.261562 59.74118 
L 359.335759 58.327236 
L 365.409955 61.579308 
L 371.484152 55.357952 
L 377.558348 60.023969 
L 383.632545 61.862097 
L 389.706741 48.146835 
L 395.780938 54.509585 
L 401.855134 54.226797 
L 407.929331 51.398907 
L 414.003527 61.579308 
L 420.077724 66.103931 
L 426.15192 49.984963 
L 432.226117 88.727043 
L 438.300313 74.02202 
L 444.37451 64.831381 
L 450.448706 62.144886 
L 456.522903 62.851858 
L 462.597099 63.558831 
L 468.671296 51.257513 
L 474.745492 63.134647 
L 480.819689 55.782136 
L 486.893885 63.841619 
L 492.968082 53.095641 
L 499.042278 50.83333 
L 505.116475 49.277991 
L 511.190671 50.974724 
L 517.264868 62.569069 
L 523.339065 71.335526 
L 529.413261 61.437914 
L 535.487458 62.427675 
L 541.561654 62.427675 
L 547.635851 73.032259 
L 553.710047 74.304809 
L 559.784244 64.124408 
L 565.85844 60.589547 
L 571.932637 63.417436 
L 578.006833 53.37843 
L 584.08103 51.964485 
L 590.155226 58.46863 
L 596.229423 65.11417 
L 602.303619 65.679747 
L 608.377816 54.085402 
L 614.452012 58.751419 
L 620.526209 68.083453 
L 626.600405 60.589547 
L 632.674602 53.37843 
L 638.748798 50.974724 
L 644.822995 68.507636 
L 650.897191 75.860148 
L 656.971388 81.515926 
L 663.045584 71.335526 
L 669.119781 93.675849 
L 675.193977 76.708515 
" clip-path="url(#pf15f8c2907)" style="fill: none; stroke: #2ca02c; stroke-width: 1.5; stroke-linecap: square"/>
   </g>
   <g id="line2d_15">
    <path d="M 73.848523 328.249249 
L 79.922719 295.445736 
L 85.996916 252.037638 
L 92.071112 203.680735 
L 98.145309 194.348701 
L 104.219505 199.72169 
L 110.293702 194.490095 
L 116.367898 196.893801 
L 122.442095 144.860642 
L 128.516291 137.50813 
L 134.590488 138.639286 
L 140.664684 138.073708 
L 146.738881 127.751913 
L 152.813077 126.196574 
L 158.887274 118.985457 
L 164.96147 106.966928 
L 171.035667 128.60028 
L 177.109863 114.460834 
L 183.18406 91.130749 
L 189.258256 98.483261 
L 195.332453 111.491551 
L 201.406649 99.614416 
L 207.480846 115.733384 
L 213.555042 99.755811 
L 219.629239 93.534455 
L 225.703435 83.21266 
L 231.777632 87.737282 
L 237.851829 93.675849 
L 243.926025 84.626604 
L 250.000222 94.100033 
L 256.074418 93.675849 
L 262.148615 87.737282 
L 268.222811 82.788476 
L 274.297008 76.284331 
L 280.371204 79.677798 
L 286.445401 78.829432 
L 292.519597 69.356003 
L 298.593794 69.921581 
L 304.66799 68.083453 
L 310.742187 71.901103 
L 316.816383 67.942059 
L 322.89058 68.224848 
L 328.964776 54.226797 
L 335.038973 65.396958 
L 341.113169 75.011781 
L 347.187366 68.366242 
L 353.261562 60.306758 
L 359.335759 54.085402 
L 365.409955 59.034208 
L 371.484152 55.92353 
L 377.558348 57.19608 
L 383.632545 76.708515 
L 389.706741 79.112221 
L 395.780938 76.142937 
L 401.855134 66.669509 
L 407.929331 66.103931 
L 414.003527 89.999594 
L 420.077724 62.144886 
L 426.15192 59.034208 
L 432.226117 52.954246 
L 438.300313 56.630502 
L 444.37451 54.933769 
L 450.448706 52.954246 
L 456.522903 58.044447 
L 462.597099 67.235086 
L 468.671296 56.630502 
L 474.745492 57.054686 
L 480.819689 57.761658 
L 486.893885 49.56078 
L 492.968082 51.398907 
L 499.042278 58.327236 
L 505.116475 69.356003 
L 511.190671 59.599786 
L 517.264868 53.944008 
L 523.339065 59.882575 
L 529.413261 70.487159 
L 535.487458 70.628553 
L 541.561654 58.327236 
L 547.635851 61.862097 
L 553.710047 64.972775 
L 559.784244 63.276042 
L 565.85844 51.257513 
L 571.932637 58.044447 
L 578.006833 58.044447 
L 584.08103 67.376481 
L 590.155226 58.327236 
L 596.229423 56.206319 
L 602.303619 47.722652 
L 608.377816 49.702174 
L 614.452012 50.409146 
L 620.526209 76.849909 
L 626.600405 84.909393 
L 632.674602 88.585649 
L 638.748798 66.810903 
L 644.822995 68.790425 
L 650.897191 68.366242 
L 656.971388 54.085402 
L 663.045584 57.478869 
L 669.119781 55.357952 
L 675.193977 65.255564 
" clip-path="url(#pf15f8c2907)" style="fill: none; stroke: #d62728; stroke-width: 1.5; stroke-linecap: square"/>
   </g>
   <g id="line2d_16">
    <path d="M 73.848523 368.970852 
L 79.922719 280.316529 
L 85.996916 276.498879 
L 92.071112 236.908432 
L 98.145309 177.239972 
L 104.219505 183.885511 
L 110.293702 176.391605 
L 116.367898 160.97961 
L 122.442095 149.385264 
L 128.516291 149.526659 
L 134.590488 124.217052 
L 140.664684 139.770442 
L 146.738881 120.258007 
L 152.813077 107.6739 
L 158.887274 109.229239 
L 164.96147 109.794817 
L 171.035667 114.460834 
L 177.109863 135.811397 
L 183.18406 113.188284 
L 189.258256 115.59199 
L 195.332453 123.934263 
L 201.406649 110.077606 
L 207.480846 103.149278 
L 213.555042 99.473022 
L 219.629239 115.733384 
L 225.703435 123.651474 
L 231.777632 126.620757 
L 237.851829 139.911836 
L 243.926025 115.450595 
L 250.000222 114.31944 
L 256.074418 127.610518 
L 262.148615 134.538847 
L 268.222811 126.196574 
L 274.297008 117.288723 
L 280.371204 108.94645 
L 286.445401 113.753862 
L 292.519597 107.391111 
L 298.593794 99.614416 
L 304.66799 101.452544 
L 310.742187 93.958638 
L 316.816383 96.645133 
L 322.89058 97.776289 
L 328.964776 111.067367 
L 335.038973 96.503738 
L 341.113169 97.776289 
L 347.187366 95.231188 
L 353.261562 102.300911 
L 359.335759 91.272144 
L 365.409955 91.837721 
L 371.484152 80.808954 
L 377.558348 74.870387 
L 383.632545 78.970826 
L 389.706741 85.899154 
L 395.780938 88.444255 
L 401.855134 77.981065 
L 407.929331 84.343815 
L 414.003527 98.200472 
L 420.077724 101.31115 
L 426.15192 89.716805 
L 432.226117 87.595888 
L 438.300313 84.202421 
L 444.37451 80.950348 
L 450.448706 82.364293 
L 456.522903 79.960587 
L 462.597099 75.435965 
L 468.671296 83.778238 
L 474.745492 97.210711 
L 480.819689 91.130749 
L 486.893885 75.718754 
L 492.968082 73.173653 
L 499.042278 79.395009 
L 505.116475 90.282382 
L 511.190671 72.183892 
L 517.264868 76.708515 
L 523.339065 82.364293 
L 529.413261 75.011781 
L 535.487458 68.366242 
L 541.561654 86.747521 
L 547.635851 75.718754 
L 553.710047 71.335526 
L 559.784244 69.780187 
L 565.85844 72.890865 
L 571.932637 99.473022 
L 578.006833 117.854301 
L 584.08103 121.530557 
L 590.155226 106.259956 
L 596.229423 87.454493 
L 602.303619 88.727043 
L 608.377816 86.464732 
L 614.452012 83.778238 
L 620.526209 82.081504 
L 626.600405 83.636843 
L 632.674602 95.231188 
L 638.748798 83.354054 
L 644.822995 104.139039 
L 650.897191 93.958638 
L 656.971388 79.960587 
L 663.045584 66.810903 
L 669.119781 75.860148 
L 675.193977 81.233137 
" clip-path="url(#pf15f8c2907)" style="fill: none; stroke: #9467bd; stroke-width: 1.5; stroke-linecap: square"/>
   </g>
   <g id="patch_3">
    <path d="M 43.78125 385.478125 
L 43.78125 22.318125 
" style="fill: none; stroke: #000000; stroke-width: 0.8; stroke-linejoin: miter; stroke-linecap: square"/>
   </g>
   <g id="patch_4">
    <path d="M 705.26125 385.478125 
L 705.26125 22.318125 
" style="fill: none; stroke: #000000; stroke-width: 0.8; stroke-linejoin: miter; stroke-linecap: square"/>
   </g>
   <g id="patch_5">
    <path d="M 43.78125 385.478125 
L 705.26125 385.478125 
" style="fill: none; stroke: #000000; stroke-width: 0.8; stroke-linejoin: miter; stroke-linecap: square"/>
   </g>
   <g id="patch_6">
    <path d="M 43.78125 22.318125 
L 705.26125 22.318125 
" style="fill: none; stroke: #000000; stroke-width: 0.8; stroke-linejoin: miter; stroke-linecap: square"/>
   </g>
   <g id="text_14">
    <!-- Combined Train Accuracy -->
    <g transform="translate(298.436563 16.318125) scale(0.12 -0.12)">
     <defs>
      <path id="DejaVuSans-43" d="M 4122 4306 
L 4122 3641 
Q 3803 3938 3442 4084 
Q 3081 4231 2675 4231 
Q 1875 4231 1450 3742 
Q 1025 3253 1025 2328 
Q 1025 1406 1450 917 
Q 1875 428 2675 428 
Q 3081 428 3442 575 
Q 3803 722 4122 1019 
L 4122 359 
Q 3791 134 3420 21 
Q 3050 -91 2638 -91 
Q 1578 -91 968 557 
Q 359 1206 359 2328 
Q 359 3453 968 4101 
Q 1578 4750 2638 4750 
Q 3056 4750 3426 4639 
Q 3797 4528 4122 4306 
z
" transform="scale(0.015625)"/>
      <path id="DejaVuSans-6d" d="M 3328 2828 
Q 3544 3216 3844 3400 
Q 4144 3584 4550 3584 
Q 5097 3584 5394 3201 
Q 5691 2819 5691 2113 
L 5691 0 
L 5113 0 
L 5113 2094 
Q 5113 2597 4934 2840 
Q 4756 3084 4391 3084 
Q 3944 3084 3684 2787 
Q 3425 2491 3425 1978 
L 3425 0 
L 2847 0 
L 2847 2094 
Q 2847 2600 2669 2842 
Q 2491 3084 2119 3084 
Q 1678 3084 1418 2786 
Q 1159 2488 1159 1978 
L 1159 0 
L 581 0 
L 581 3500 
L 1159 3500 
L 1159 2956 
Q 1356 3278 1631 3431 
Q 1906 3584 2284 3584 
Q 2666 3584 2933 3390 
Q 3200 3197 3328 2828 
z
" transform="scale(0.015625)"/>
      <path id="DejaVuSans-62" d="M 3116 1747 
Q 3116 2381 2855 2742 
Q 2594 3103 2138 3103 
Q 1681 3103 1420 2742 
Q 1159 2381 1159 1747 
Q 1159 1113 1420 752 
Q 1681 391 2138 391 
Q 2594 391 2855 752 
Q 3116 1113 3116 1747 
z
M 1159 2969 
Q 1341 3281 1617 3432 
Q 1894 3584 2278 3584 
Q 2916 3584 3314 3078 
Q 3713 2572 3713 1747 
Q 3713 922 3314 415 
Q 2916 -91 2278 -91 
Q 1894 -91 1617 61 
Q 1341 213 1159 525 
L 1159 0 
L 581 0 
L 581 4863 
L 1159 4863 
L 1159 2969 
z
" transform="scale(0.015625)"/>
      <path id="DejaVuSans-65" d="M 3597 1894 
L 3597 1613 
L 953 1613 
Q 991 1019 1311 708 
Q 1631 397 2203 397 
Q 2534 397 2845 478 
Q 3156 559 3463 722 
L 3463 178 
Q 3153 47 2828 -22 
Q 2503 -91 2169 -91 
Q 1331 -91 842 396 
Q 353 884 353 1716 
Q 353 2575 817 3079 
Q 1281 3584 2069 3584 
Q 2775 3584 3186 3129 
Q 3597 2675 3597 1894 
z
M 3022 2063 
Q 3016 2534 2758 2815 
Q 2500 3097 2075 3097 
Q 1594 3097 1305 2825 
Q 1016 2553 972 2059 
L 3022 2063 
z
" transform="scale(0.015625)"/>
      <path id="DejaVuSans-64" d="M 2906 2969 
L 2906 4863 
L 3481 4863 
L 3481 0 
L 2906 0 
L 2906 525 
Q 2725 213 2448 61 
Q 2172 -91 1784 -91 
Q 1150 -91 751 415 
Q 353 922 353 1747 
Q 353 2572 751 3078 
Q 1150 3584 1784 3584 
Q 2172 3584 2448 3432 
Q 2725 3281 2906 2969 
z
M 947 1747 
Q 947 1113 1208 752 
Q 1469 391 1925 391 
Q 2381 391 2643 752 
Q 2906 1113 2906 1747 
Q 2906 2381 2643 2742 
Q 2381 3103 1925 3103 
Q 1469 3103 1208 2742 
Q 947 2381 947 1747 
z
" transform="scale(0.015625)"/>
     </defs>
     <use xlink:href="#DejaVuSans-43"/>
     <use xlink:href="#DejaVuSans-6f" transform="translate(69.824219 0)"/>
     <use xlink:href="#DejaVuSans-6d" transform="translate(131.005859 0)"/>
     <use xlink:href="#DejaVuSans-62" transform="translate(228.417969 0)"/>
     <use xlink:href="#DejaVuSans-69" transform="translate(291.894531 0)"/>
     <use xlink:href="#DejaVuSans-6e" transform="translate(319.677734 0)"/>
     <use xlink:href="#DejaVuSans-65" transform="translate(383.056641 0)"/>
     <use xlink:href="#DejaVuSans-64" transform="translate(444.580078 0)"/>
     <use xlink:href="#DejaVuSans-20" transform="translate(508.056641 0)"/>
     <use xlink:href="#DejaVuSans-54" transform="translate(539.84375 0)"/>
     <use xlink:href="#DejaVuSans-72" transform="translate(586.177734 0)"/>
     <use xlink:href="#DejaVuSans-61" transform="translate(627.291016 0)"/>
     <use xlink:href="#DejaVuSans-69" transform="translate(688.570312 0)"/>
     <use xlink:href="#DejaVuSans-6e" transform="translate(716.353516 0)"/>
     <use xlink:href="#DejaVuSans-20" transform="translate(779.732422 0)"/>
     <use xlink:href="#DejaVuSans-41" transform="translate(811.519531 0)"/>
     <use xlink:href="#DejaVuSans-63" transform="translate(878.177734 0)"/>
     <use xlink:href="#DejaVuSans-63" transform="translate(933.158203 0)"/>
     <use xlink:href="#DejaVuSans-75" transform="translate(988.138672 0)"/>
     <use xlink:href="#DejaVuSans-72" transform="translate(1051.517578 0)"/>
     <use xlink:href="#DejaVuSans-61" transform="translate(1092.630859 0)"/>
     <use xlink:href="#DejaVuSans-63" transform="translate(1153.910156 0)"/>
     <use xlink:href="#DejaVuSans-79" transform="translate(1208.890625 0)"/>
    </g>
   </g>
   <g id="legend_1">
    <g id="patch_7">
     <path d="M 50.78125 103.70875 
L 112.95625 103.70875 
Q 114.95625 103.70875 114.95625 101.70875 
L 114.95625 29.318125 
Q 114.95625 27.318125 112.95625 27.318125 
L 50.78125 27.318125 
Q 48.78125 27.318125 48.78125 29.318125 
L 48.78125 101.70875 
Q 48.78125 103.70875 50.78125 103.70875 
z
" style="fill: #ffffff; opacity: 0.8; stroke: #cccccc; stroke-linejoin: miter"/>
    </g>
    <g id="line2d_17">
     <path d="M 52.78125 35.416562 
L 62.78125 35.416562 
L 72.78125 35.416562 
" style="fill: none; stroke: #1f77b4; stroke-width: 1.5; stroke-linecap: square"/>
    </g>
    <g id="text_15">
     <!-- Fold 1 -->
     <g transform="translate(80.78125 38.916562) scale(0.1 -0.1)">
      <defs>
       <path id="DejaVuSans-46" d="M 628 4666 
L 3309 4666 
L 3309 4134 
L 1259 4134 
L 1259 2759 
L 3109 2759 
L 3109 2228 
L 1259 2228 
L 1259 0 
L 628 0 
L 628 4666 
z
" transform="scale(0.015625)"/>
       <path id="DejaVuSans-6c" d="M 603 4863 
L 1178 4863 
L 1178 0 
L 603 0 
L 603 4863 
z
" transform="scale(0.015625)"/>
      </defs>
      <use xlink:href="#DejaVuSans-46"/>
      <use xlink:href="#DejaVuSans-6f" transform="translate(53.894531 0)"/>
      <use xlink:href="#DejaVuSans-6c" transform="translate(115.076172 0)"/>
      <use xlink:href="#DejaVuSans-64" transform="translate(142.859375 0)"/>
      <use xlink:href="#DejaVuSans-20" transform="translate(206.335938 0)"/>
      <use xlink:href="#DejaVuSans-31" transform="translate(238.123047 0)"/>
     </g>
    </g>
    <g id="line2d_18">
     <path d="M 52.78125 50.094688 
L 62.78125 50.094688 
L 72.78125 50.094688 
" style="fill: none; stroke: #ff7f0e; stroke-width: 1.5; stroke-linecap: square"/>
    </g>
    <g id="text_16">
     <!-- Fold 2 -->
     <g transform="translate(80.78125 53.594688) scale(0.1 -0.1)">
      <use xlink:href="#DejaVuSans-46"/>
      <use xlink:href="#DejaVuSans-6f" transform="translate(53.894531 0)"/>
      <use xlink:href="#DejaVuSans-6c" transform="translate(115.076172 0)"/>
      <use xlink:href="#DejaVuSans-64" transform="translate(142.859375 0)"/>
      <use xlink:href="#DejaVuSans-20" transform="translate(206.335938 0)"/>
      <use xlink:href="#DejaVuSans-32" transform="translate(238.123047 0)"/>
     </g>
    </g>
    <g id="line2d_19">
     <path d="M 52.78125 64.772812 
L 62.78125 64.772812 
L 72.78125 64.772812 
" style="fill: none; stroke: #2ca02c; stroke-width: 1.5; stroke-linecap: square"/>
    </g>
    <g id="text_17">
     <!-- Fold 3 -->
     <g transform="translate(80.78125 68.272812) scale(0.1 -0.1)">
      <defs>
       <path id="DejaVuSans-33" d="M 2597 2516 
Q 3050 2419 3304 2112 
Q 3559 1806 3559 1356 
Q 3559 666 3084 287 
Q 2609 -91 1734 -91 
Q 1441 -91 1130 -33 
Q 819 25 488 141 
L 488 750 
Q 750 597 1062 519 
Q 1375 441 1716 441 
Q 2309 441 2620 675 
Q 2931 909 2931 1356 
Q 2931 1769 2642 2001 
Q 2353 2234 1838 2234 
L 1294 2234 
L 1294 2753 
L 1863 2753 
Q 2328 2753 2575 2939 
Q 2822 3125 2822 3475 
Q 2822 3834 2567 4026 
Q 2313 4219 1838 4219 
Q 1578 4219 1281 4162 
Q 984 4106 628 3988 
L 628 4550 
Q 988 4650 1302 4700 
Q 1616 4750 1894 4750 
Q 2613 4750 3031 4423 
Q 3450 4097 3450 3541 
Q 3450 3153 3228 2886 
Q 3006 2619 2597 2516 
z
" transform="scale(0.015625)"/>
      </defs>
      <use xlink:href="#DejaVuSans-46"/>
      <use xlink:href="#DejaVuSans-6f" transform="translate(53.894531 0)"/>
      <use xlink:href="#DejaVuSans-6c" transform="translate(115.076172 0)"/>
      <use xlink:href="#DejaVuSans-64" transform="translate(142.859375 0)"/>
      <use xlink:href="#DejaVuSans-20" transform="translate(206.335938 0)"/>
      <use xlink:href="#DejaVuSans-33" transform="translate(238.123047 0)"/>
     </g>
    </g>
    <g id="line2d_20">
     <path d="M 52.78125 79.450938 
L 62.78125 79.450938 
L 72.78125 79.450938 
" style="fill: none; stroke: #d62728; stroke-width: 1.5; stroke-linecap: square"/>
    </g>
    <g id="text_18">
     <!-- Fold 4 -->
     <g transform="translate(80.78125 82.950938) scale(0.1 -0.1)">
      <use xlink:href="#DejaVuSans-46"/>
      <use xlink:href="#DejaVuSans-6f" transform="translate(53.894531 0)"/>
      <use xlink:href="#DejaVuSans-6c" transform="translate(115.076172 0)"/>
      <use xlink:href="#DejaVuSans-64" transform="translate(142.859375 0)"/>
      <use xlink:href="#DejaVuSans-20" transform="translate(206.335938 0)"/>
      <use xlink:href="#DejaVuSans-34" transform="translate(238.123047 0)"/>
     </g>
    </g>
    <g id="line2d_21">
     <path d="M 52.78125 94.129063 
L 62.78125 94.129063 
L 72.78125 94.129063 
" style="fill: none; stroke: #9467bd; stroke-width: 1.5; stroke-linecap: square"/>
    </g>
    <g id="text_19">
     <!-- Fold 5 -->
     <g transform="translate(80.78125 97.629063) scale(0.1 -0.1)">
      <use xlink:href="#DejaVuSans-46"/>
      <use xlink:href="#DejaVuSans-6f" transform="translate(53.894531 0)"/>
      <use xlink:href="#DejaVuSans-6c" transform="translate(115.076172 0)"/>
      <use xlink:href="#DejaVuSans-64" transform="translate(142.859375 0)"/>
      <use xlink:href="#DejaVuSans-20" transform="translate(206.335938 0)"/>
      <use xlink:href="#DejaVuSans-35" transform="translate(238.123047 0)"/>
     </g>
    </g>
   </g>
  </g>
 </g>
 <defs>
  <clipPath id="pf15f8c2907">
   <rect x="43.78125" y="22.318125" width="661.48" height="363.16"/>
  </clipPath>
 </defs>
</svg>
